<svg width="355" height="341" viewBox="0 0 355 341" fill="none" xmlns="http://www.w3.org/2000/svg">
<g filter="url(#filter0_d_249_17235)">
<mask id="mask0_249_17235" style="mask-type:alpha" maskUnits="userSpaceOnUse" x="5" y="0" width="345" height="328">
<path d="M5.97156 22.3154C5.97156 10.143 15.8392 0.275391 28.0115 0.275391H326.988C339.161 0.275391 349.028 10.143 349.028 22.3154V305.96C349.028 318.132 339.161 328 326.988 328H28.0115C15.8392 328 5.97156 318.132 5.97156 305.96V22.3154Z" fill="#D9D9D9"/>
</mask>
<g mask="url(#mask0_249_17235)">
<path d="M5.97156 22.3154C5.97156 10.143 15.8392 0.275391 28.0115 0.275391H326.988C339.161 0.275391 349.028 10.143 349.028 22.3154V305.96C349.028 318.132 339.161 328 326.988 328H28.0115C15.8392 328 5.97156 318.132 5.97156 305.96V22.3154Z" fill="#29ABE2"/>
<path d="M223.054 114.816C223.054 114.816 234.049 107.896 234.049 120.752C234.049 133.609 227.033 134.599 223.054 131.607C219.075 128.615 223.054 114.816 223.054 114.816Z" fill="#C1272D"/>
<path fill-rule="evenodd" clip-rule="evenodd" d="M231.731 138.912C231.731 134.258 229.69 130.6 227.22 129.148L229.108 125.938C233.025 128.241 235.455 133.341 235.455 138.912C235.455 142.665 234.362 146.139 232.501 148.722C230.641 151.303 227.909 153.109 224.704 153.109C221.499 153.109 218.767 151.303 216.908 148.722C215.046 146.139 213.953 142.665 213.953 138.912L213.953 138.911C213.953 137.755 214.06 136.602 214.272 135.467L217.933 136.148C217.764 137.059 217.678 137.985 217.677 138.912M217.677 138.913C217.678 141.971 218.574 144.664 219.929 146.545C221.287 148.429 223 149.385 224.704 149.385C226.409 149.385 228.121 148.429 229.479 146.545C230.835 144.663 231.731 141.97 231.731 138.912" fill="#FDCE34"/>
<path d="M158.497 114.816C158.497 114.816 147.894 107.896 147.894 120.752C147.894 133.609 154.66 134.599 158.497 131.607C162.334 128.615 158.497 114.816 158.497 114.816Z" fill="#C1272D"/>
<path fill-rule="evenodd" clip-rule="evenodd" d="M146.032 138.912C146.032 133.341 148.463 128.241 152.379 125.938L154.267 129.148C151.798 130.6 149.756 134.258 149.756 138.912C149.756 141.97 150.653 144.663 152.008 146.545C153.366 148.429 155.079 149.385 156.783 149.385C158.488 149.385 160.2 148.429 161.558 146.545C162.913 144.664 163.81 141.971 163.81 138.913C163.809 137.985 163.724 137.06 163.554 136.148L167.216 135.467C167.427 136.602 167.534 137.755 167.534 138.911V138.912C167.534 142.665 166.441 146.139 164.58 148.722C162.72 151.303 159.988 153.109 156.783 153.109C153.578 153.109 150.846 151.303 148.987 148.722C147.125 146.139 146.032 142.665 146.032 138.912Z" fill="#FDCE34"/>
<path d="M182.706 169.644L173.877 191.361H207.154L201.042 167.201L183.847 169.597L182.706 169.644Z" fill="#C1272D"/>
<path d="M201.684 169.793C201.684 169.793 200.281 174.039 192.303 174.039C184.324 174.039 182.995 169.508 182.995 169.508C182.995 169.508 200.428 166.188 201.684 169.793Z" fill="#63151B"/>
<path d="M206.979 76.764C200.56 74.139 193.413 73.9705 186.88 76.2902C175.453 80.1633 156.401 90.519 157.026 116.491C157.91 153.525 161.465 166.223 189.014 170.453C216.563 174.683 223.68 144.001 224.564 126.015C225.325 110.599 226.773 85.0733 206.979 76.764Z" fill="#C1272D"/>
<path d="M203.386 179.054C203.386 179.054 199.337 188.6 190.999 188.6C182.661 188.6 178.127 180.895 178.127 180.895L119.449 207.011L112.338 260.88L266.414 261.562L252.984 193.373L203.386 179.054Z" fill="#EF98C0"/>
<path d="M188.038 120.737C188.297 119.924 188.815 119.215 189.515 118.717C190.216 118.218 191.06 117.956 191.924 117.97C192.787 117.984 193.623 118.274 194.306 118.795C194.989 119.316 195.483 120.041 195.715 120.862C195.715 120.925 195.75 120.987 195.764 121.05C197.379 127.425 201.404 142.564 194.954 142.564C188.503 142.564 185.274 143.357 185.274 135.388C185.253 130.397 186.832 124.467 188.038 120.737Z" fill="#EF98C0"/>
<path d="M182.083 118.266C182.083 118.266 179.77 113.642 175.152 114.409C170.534 115.176 169.775 119.793 169.775 119.793" fill="#09231E"/>
<path d="M214.904 120.249C214.904 120.249 214.286 114.839 209.776 113.98C205.267 113.121 203.052 117.445 203.052 117.445" fill="#09231E"/>
<path fill-rule="evenodd" clip-rule="evenodd" d="M170.008 142.293C170.17 142.17 170.401 142.201 170.524 142.363L170.231 142.586C170.524 142.363 170.524 142.363 170.524 142.363L170.523 142.363L170.523 142.363C170.523 142.363 170.523 142.363 170.524 142.363L170.527 142.367C170.53 142.372 170.536 142.379 170.544 142.389C170.56 142.409 170.586 142.44 170.622 142.481C170.694 142.565 170.808 142.691 170.97 142.856C171.292 143.186 171.806 143.669 172.558 144.27C174.062 145.473 176.523 147.151 180.328 149.022C184.067 150.862 188.57 151.055 192.17 150.775C193.965 150.636 195.524 150.38 196.634 150.159C197.188 150.048 197.63 149.946 197.932 149.873C198.083 149.836 198.2 149.806 198.278 149.785C198.317 149.775 198.346 149.767 198.365 149.762L198.387 149.756L198.392 149.754L198.393 149.754L198.393 149.754C198.393 149.754 198.393 149.754 198.393 149.754M170.008 142.293C169.846 142.416 169.815 142.647 169.938 142.808ZM169.938 142.808L170.231 142.586Z" fill="#110A03"/>
<path d="M271.704 165.522L268.969 189.994H294.953L286.064 164.011L271.704 165.522Z" fill="#EF98C0"/>
<path d="M291.819 180.421C291.819 180.421 288.312 189.967 281.086 189.967C273.86 189.967 269.928 182.255 269.928 182.255L219.065 208.378L212.9 262.247L346.463 262.929L334.819 194.74L291.819 180.421Z" fill="#85C6AB"/>
<path d="M256.206 65.7447C256.206 65.7447 274.948 28.0206 317.995 56.7185C361.042 85.4165 313.212 184.493 348.743 172.877C348.743 172.877 309.112 192.692 302.28 168.094C295.447 143.496 299.546 116.848 299.546 116.848L256.206 65.7447Z" fill="#1E5884"/>
<path d="M289.027 163.867C289.027 163.867 287.59 168.114 279.417 168.114C271.243 168.114 269.881 163.582 269.881 163.582C269.881 163.582 287.739 160.262 289.027 163.867Z" fill="#63151B"/>
<path d="M311.651 77.7557L315.374 121.644C315.632 124.657 315.346 127.692 314.531 130.605L310.781 143.974C309.765 147.589 307.959 150.936 305.491 153.775C303.023 156.614 299.955 158.874 296.507 160.394L288.033 164.12C284.873 165.511 281.462 166.248 278.007 166.288C274.551 166.328 271.124 165.669 267.932 164.352L261.762 161.793C258.094 160.28 254.832 157.937 252.234 154.949C249.635 151.961 247.774 148.411 246.796 144.581L241.942 125.595C240.903 121.515 240.903 117.242 241.942 113.161L249.627 82.5533C250.827 77.6815 253.457 73.2759 257.183 69.8981C260.908 66.5204 265.56 64.3236 270.544 63.5881C273.042 63.2266 275.575 63.1716 278.086 63.4243C291.084 64.7892 310.28 64.1067 311.651 77.7557Z" fill="#EF98C0"/>
<path d="M282.374 75.7379C282.374 75.7379 284.434 105.006 235.693 111.132C235.693 111.132 237.752 52.5955 279.628 61.444C282.198 65.7448 283.17 70.8015 282.374 75.7379Z" fill="#1B6AB2"/>
<path d="M272.011 77.148C272.011 77.148 269.573 108.263 327.318 114.779C327.318 114.779 324.879 52.5486 275.267 61.9581C272.257 66.4205 271.092 71.8582 272.011 77.148V77.148Z" fill="#1B6AB2"/>
<path d="M281.532 127.542H276.92C275.046 127.542 273.528 129.138 273.528 131.107V131.727C273.528 133.695 275.046 135.291 276.92 135.291H281.532C283.405 135.291 284.924 133.695 284.924 131.727V131.107C284.924 129.138 283.405 127.542 281.532 127.542Z" fill="#FDCE34"/>
<path d="M268.058 118.001C268.058 118.001 265.32 112.616 259.85 113.513C254.381 114.409 253.471 119.794 253.471 119.794" fill="#09231E"/>
<path d="M305.437 120.25C305.437 120.25 304.692 114.07 299.322 113.086C293.953 112.102 291.306 117.043 291.306 117.043" fill="#09231E"/>
<path d="M260.865 138.938C260.865 138.938 277.507 147.779 290.394 142.354C290.394 142.354 287.542 155.682 273.178 154.343C258.813 153.003 260.865 138.938 260.865 138.938Z" fill="#09231E"/>
<path fill-rule="evenodd" clip-rule="evenodd" d="M284.647 132.908C284.326 132.843 283.989 132.855 283.678 132.943L283.51 132.345C283.917 132.231 284.354 132.215 284.77 132.299C285.182 132.382 285.563 132.56 285.867 132.82C286.087 132.985 286.269 133.189 286.397 133.421C286.527 133.657 286.598 133.916 286.602 134.181C286.606 134.446 286.543 134.706 286.419 134.945C286.296 135.184 286.117 135.394 285.897 135.566C285.676 135.737 285.419 135.867 285.141 135.95C284.862 136.034 284.568 136.069 284.274 136.055C283.98 136.041 283.692 135.977 283.426 135.867C283.165 135.759 282.929 135.607 282.734 135.418C282.6 135.304 282.483 135.175 282.387 135.033L282.903 134.687C282.966 134.781 283.046 134.869 283.141 134.949L283.151 134.958L283.161 134.967C283.296 135.1 283.466 135.212 283.663 135.294C283.861 135.375 284.079 135.424 284.304 135.435C284.529 135.446 284.753 135.418 284.963 135.356C285.172 135.293 285.36 135.197 285.515 135.076C285.671 134.955 285.789 134.813 285.868 134.66C285.946 134.509 285.983 134.349 285.981 134.19C285.979 134.031 285.936 133.872 285.853 133.721C285.77 133.57 285.647 133.43 285.487 133.312L285.478 133.305L285.469 133.297C285.253 133.11 284.968 132.972 284.647 132.908Z" fill="#0071BC"/>
<path d="M220.752 40.9151L217.666 36.8216C217.08 36.0437 216.284 35.4478 215.37 35.1038C214.456 34.7597 213.462 34.6817 212.506 34.8788L202.426 36.9415C201.523 37.1265 200.686 37.5493 200.003 38.1658C199.32 38.7823 198.815 39.5698 198.543 40.4463C198.27 41.3228 198.239 42.256 198.453 43.1485C198.667 44.041 199.117 44.8601 199.758 45.5202L226.692 73.2472C227.21 73.7807 227.837 74.1959 228.532 74.4642C229.227 74.7325 229.972 74.8474 230.716 74.8011C231.46 74.7547 232.184 74.5481 232.84 74.1956C233.496 73.8431 234.066 73.3531 234.513 72.7595L255.322 45.1605C255.862 44.4452 256.204 43.6021 256.314 42.7147C256.425 41.8274 256.3 40.9268 255.952 40.1024C255.604 39.2779 255.045 38.5583 254.332 38.015C253.618 37.4718 252.773 37.1237 251.882 37.0055L235.638 34.8548C234.353 34.6791 233.049 34.9936 231.987 35.7351C230.926 36.4767 230.185 37.5903 229.915 38.8524V38.8524C229.717 39.8194 229.243 40.7091 228.549 41.4145C227.855 42.1199 226.971 42.6109 226.004 42.8288C225.036 43.0466 224.026 42.9819 223.094 42.6424C222.163 42.3029 221.349 41.7031 220.752 40.9151V40.9151Z" fill="white"/>
<path d="M65.7982 167.866L63.0623 192.775H89.0534L80.1617 166.328L65.7982 167.866Z" fill="#FDCE34"/>
<path d="M86.5613 182.288C86.5613 182.288 83.0654 191.837 75.8617 191.837C68.6581 191.837 64.7388 184.13 64.7388 184.13L14.0335 210.254L7.88818 264.139L141.036 264.821L129.428 196.612L86.5613 182.288Z" fill="#4D71CD"/>
<path d="M84.0376 173.481C84.0376 173.481 82.5686 177.729 74.1966 177.729C65.8245 177.729 64.4303 173.196 64.4303 173.196C64.4303 173.196 82.7183 169.875 84.0376 173.481Z" fill="#63151B"/>
<path d="M22.414 126.33C23.4647 120.841 21.0496 115.874 16.9563 111.12C9.76565 102.819 9.72471 99.5396 16.8607 91.4512C21.4316 86.2716 22.9394 80.749 22.4414 73.9366C21.6636 63.2001 23.2532 60.9842 33.6775 58.5899C40.3838 57.0532 44.9001 53.719 48.3658 47.771C53.5848 38.8525 56.4023 37.8989 65.7624 41.7819C72.2299 44.4712 78.0902 44.8348 84.7282 41.9808C94.5726 37.7548 97.4789 38.6879 102.759 47.8534C106.552 54.4393 111.976 57.403 118.907 59.1456C127.845 61.3889 129.932 64.2017 128.766 73.3123C127.851 80.4814 129.693 86.0795 134.387 91.4718C141.407 99.5328 141.387 102.654 134.571 110.571C129.966 115.922 127.824 121.445 128.827 128.703C130.082 137.848 127.524 141.45 118.498 143.336C110.946 144.914 105.693 148.674 102.22 155.534C98.7479 162.395 93.2491 164.453 86.3655 160.981C79.0248 157.311 72.0388 157.249 64.664 160.981C58.2034 164.295 52.6365 162.813 49.3277 156.083C45.671 148.653 39.9744 144.805 31.9038 143.144C23.2327 141.374 22.0729 138.678 22.414 126.33Z" fill="#F15A24"/>
<path d="M120.354 121.279C120.354 121.279 125.479 175.449 78.0624 175.449C30.6455 175.449 30.6523 141.926 31.937 113.541C33.2216 85.1563 39.4478 63.0314 76.0573 56.6895C112.667 50.3475 120.354 87.7424 120.354 121.279Z" fill="#FDCE34"/>
<path d="M63.9743 116.2C63.9743 116.2 61.4066 110.813 56.2776 111.71C51.1485 112.607 50.2948 117.993 50.2948 117.993" fill="#09231E"/>
<path d="M102.277 118.45C102.277 118.45 101.507 112.268 95.9628 111.284C90.4186 110.3 87.6853 115.242 87.6853 115.242" fill="#09231E"/>
<path d="M74.8997 115.251C73.8504 115.892 72.9551 116.759 72.278 117.79C71.601 118.821 71.159 119.99 70.9839 121.213C70.0334 126.922 67.3303 132.188 63.2542 136.271C55.0147 144.621 74.4782 149.625 77.8161 144.888C80.8618 140.576 86.1576 108.605 74.8997 115.251Z" fill="#F7931E"/>
<path fill-rule="evenodd" clip-rule="evenodd" d="M49.8393 149.236C49.4671 148.734 48.759 148.627 48.2547 148.997C47.7488 149.368 47.6395 150.079 48.0107 150.585L48.9268 149.913C48.0107 150.585 48.011 150.585 48.0114 150.586L48.0121 150.587L48.0138 150.589L48.0177 150.594L48.0282 150.608C48.0364 150.619 48.047 150.633 48.0601 150.65C48.0863 150.683 48.1225 150.728 48.1694 150.784C48.2631 150.897 48.3998 151.053 48.5854 151.249C48.9566 151.642 49.5232 152.192 50.3339 152.864C51.9555 154.207 54.5511 156.033 58.5088 158.05C62.6743 160.173 67.5816 160.358 71.3474 160.055C73.2465 159.902 74.8932 159.621 76.0666 159.379C76.654 159.258 77.1246 159.146 77.4511 159.063C77.6143 159.022 77.7417 158.988 77.8296 158.964C77.8736 158.952 77.9078 158.942 77.9317 158.936L77.9599 158.928L77.9681 158.925L77.9707 158.924L77.9716 158.924C77.972 158.924 77.9723 158.924 77.6615 157.859L77.9723 158.924C78.5747 158.748 78.9204 158.117 78.7445 157.515C78.5687 156.913 77.9381 156.567 77.3358 156.743L77.3357 156.743L77.3354 156.743L77.3321 156.744L77.3133 156.749C77.2957 156.754 77.268 156.762 77.2306 156.772C77.1558 156.792 77.0424 156.823 76.8938 156.86C76.5965 156.935 76.1586 157.04 75.6072 157.154C74.5031 157.382 72.9509 157.646 71.1651 157.789C67.5609 158.08 63.1536 157.867 59.5405 156.025C55.7197 154.078 53.2663 152.342 51.7836 151.114C51.0422 150.5 50.5429 150.012 50.2361 149.688C50.0828 149.526 49.9774 149.404 49.914 149.328C49.8822 149.29 49.861 149.263 49.8494 149.249L49.8393 149.236Z" fill="#110A03"/>
<path fill-rule="evenodd" clip-rule="evenodd" d="M53.7143 99.8362C45.8406 99.8362 39.4326 106.318 39.4326 114.346C39.4326 122.373 45.8406 128.856 53.7143 128.856C61.5881 128.856 67.9961 122.373 67.9961 114.346C67.9961 106.318 61.5881 99.8362 53.7143 99.8362ZM37.4451 114.346C37.4451 105.249 44.7152 97.8486 53.7143 97.8486C62.7134 97.8486 69.9836 105.249 69.9836 114.346C69.9836 123.443 62.7134 130.843 53.7143 130.843C44.7152 130.843 37.4451 123.443 37.4451 114.346Z" fill="white"/>
<path fill-rule="evenodd" clip-rule="evenodd" d="M99.5411 99.8362C91.5276 99.8362 85.0314 106.332 85.0314 114.346C85.0314 122.359 91.5276 128.856 99.5411 128.856C107.555 128.856 114.051 122.359 114.051 114.346C114.051 106.332 107.555 99.8362 99.5411 99.8362ZM83.0438 114.346C83.0438 105.235 90.4299 97.8486 99.5411 97.8486C108.652 97.8486 116.038 105.235 116.038 114.346C116.038 123.457 108.652 130.843 99.5411 130.843C90.4299 130.843 83.0438 123.457 83.0438 114.346Z" fill="white"/>
<path fill-rule="evenodd" clip-rule="evenodd" d="M84.8192 111.071C84.8194 111.071 84.8196 111.071 84.0374 111.684C83.2553 112.297 83.2555 112.298 83.2557 112.298L83.2525 112.294L83.2307 112.267C83.21 112.242 83.1769 112.202 83.132 112.15C83.042 112.047 82.9049 111.894 82.7245 111.709C82.3625 111.338 81.8318 110.843 81.1625 110.353C79.812 109.363 77.9764 108.449 75.8652 108.502C73.8148 108.554 72.3413 109.611 71.3443 110.724C70.8466 111.28 70.482 111.835 70.2425 112.252C70.1233 112.459 70.0366 112.629 69.9811 112.744C69.9534 112.801 69.9336 112.845 69.9215 112.872L69.9092 112.9L69.9081 112.902C69.9083 112.902 69.9084 112.902 68.9899 112.522C68.0714 112.143 68.0716 112.142 68.0718 112.142L68.0731 112.139L68.0755 112.133L68.0826 112.117C68.0883 112.103 68.0962 112.085 68.1061 112.063C68.126 112.018 68.1543 111.956 68.1913 111.88C68.2651 111.727 68.374 111.514 68.5197 111.261C68.8101 110.756 69.2525 110.081 69.8637 109.398C71.0844 108.035 73.036 106.586 75.8151 106.516C78.5333 106.447 80.7964 107.621 82.3371 108.749C83.1135 109.318 83.7266 109.89 84.1471 110.321C84.3578 110.537 84.5215 110.719 84.6346 110.85C84.6912 110.915 84.7352 110.967 84.7661 111.005C84.7816 111.024 84.7939 111.039 84.8028 111.05L84.8137 111.064L84.8173 111.068L84.8192 111.071Z" fill="white"/>
</g>
<path d="M5.97156 259.005H349.028V305.96C349.028 318.132 339.161 328 326.988 328H28.0115C15.8392 328 5.97156 318.132 5.97156 305.96V259.005Z" fill="white"/>
<path d="M34.0815 302.254C33.2319 302.254 32.5132 302.091 31.9254 301.765C31.3441 301.445 30.9001 301.011 30.5934 300.462C30.2932 299.919 30.1431 299.305 30.1431 298.622C30.1431 298.098 30.2293 297.651 30.4018 297.28C30.5743 296.903 30.7947 296.571 31.063 296.284C31.3313 295.996 31.6124 295.721 31.9063 295.459C32.2065 295.198 32.4876 294.926 32.7495 294.645C33.0115 294.364 33.2255 294.041 33.3916 293.677C33.5641 293.313 33.6503 292.879 33.6503 292.374V291.904H35.011V292.393C35.011 293.032 34.912 293.572 34.714 294.013C34.5223 294.447 34.2764 294.821 33.9761 295.134C33.6758 295.447 33.3692 295.741 33.0562 296.015C32.6473 296.36 32.2864 296.724 31.9733 297.108C31.6603 297.491 31.5038 297.996 31.5038 298.622C31.5038 299.299 31.7242 299.864 32.165 300.318C32.6122 300.771 33.251 300.998 34.0815 300.998C35.0014 300.998 35.7137 300.736 36.2184 300.212C36.7231 299.695 36.9755 299.005 36.9755 298.143H38.3266C38.3266 298.96 38.1477 299.676 37.79 300.289C37.4386 300.909 36.9435 301.391 36.3047 301.736C35.6658 302.081 34.9248 302.254 34.0815 302.254ZM34.3594 290.515C34.0464 290.515 33.7876 290.413 33.5832 290.208C33.3852 289.997 33.2862 289.748 33.2862 289.461C33.2862 289.18 33.3852 288.934 33.5832 288.723C33.7876 288.506 34.0464 288.397 34.3594 288.397C34.6533 288.397 34.9088 288.506 35.126 288.723C35.3432 288.934 35.4518 289.18 35.4518 289.461C35.4518 289.748 35.3432 289.997 35.126 290.208C34.9088 290.413 34.6533 290.515 34.3594 290.515Z" fill="#009245"/>
<path d="M49.3765 299.628L48.3033 298.028C47.9455 298.226 47.5558 298.379 47.1342 298.488C46.719 298.596 46.259 298.651 45.7543 298.651C44.7322 298.651 43.8665 298.449 43.1574 298.047C42.4547 297.638 41.8861 297.098 41.4517 296.427C41.0237 295.75 40.7107 295.003 40.5126 294.185C40.3146 293.367 40.2156 292.543 40.2156 291.713C40.2156 290.882 40.3146 290.058 40.5126 289.24C40.7107 288.423 41.0237 287.678 41.4517 287.008C41.8861 286.33 42.4547 285.791 43.1574 285.388C43.8665 284.979 44.7322 284.775 45.7543 284.775C46.7828 284.775 47.6517 284.979 48.3608 285.388C49.0699 285.791 49.6385 286.33 50.0665 287.008C50.4945 287.678 50.8043 288.423 50.996 289.24C51.194 290.058 51.293 290.882 51.293 291.713C51.293 292.409 51.226 293.105 51.0918 293.802C50.964 294.492 50.7532 295.143 50.4594 295.757C50.1655 296.363 49.7758 296.894 49.2903 297.347L50.3635 298.928L49.3765 299.628ZM45.7543 297.376C46.1057 297.376 46.4283 297.338 46.7222 297.261C47.0224 297.178 47.2939 297.063 47.5367 296.916L46.5113 295.373L47.5271 294.674L48.5141 296.159C49.0124 295.597 49.3669 294.913 49.5778 294.108C49.7886 293.297 49.894 292.498 49.894 291.713C49.894 291.01 49.8205 290.323 49.6736 289.652C49.533 288.975 49.2999 288.365 48.9741 287.822C48.6546 287.279 48.2298 286.848 47.6996 286.529C47.1757 286.203 46.5273 286.04 45.7543 286.04C44.9877 286.04 44.3393 286.212 43.809 286.557C43.2852 286.896 42.8604 287.346 42.5346 287.908C42.2151 288.464 41.982 289.077 41.835 289.748C41.6881 290.413 41.6146 291.067 41.6146 291.713C41.6146 292.415 41.6881 293.105 41.835 293.783C41.982 294.453 42.2151 295.06 42.5346 295.603C42.8604 296.14 43.2852 296.571 43.809 296.897C44.3393 297.216 44.9877 297.376 45.7543 297.376Z" fill="#009245"/>
<path d="M58.2421 298.651C57.0858 298.651 56.2233 298.299 55.6548 297.596C55.0926 296.894 54.8115 295.824 54.8115 294.386V288.627H56.1531V294.607C56.1531 295.527 56.3447 296.223 56.728 296.696C57.1113 297.168 57.6671 297.405 58.3954 297.405C59.2067 297.405 59.8168 297.159 60.2257 296.667C60.6409 296.169 60.8485 295.44 60.8485 294.482V288.627H62.1901V298.421H60.8485V297.242C60.5547 297.715 60.1905 298.069 59.7561 298.306C59.3281 298.536 58.8234 298.651 58.2421 298.651Z" fill="#009245"/>
<path d="M66.1491 298.421V288.627H67.4906V298.421H66.1491ZM66.8103 286.663C66.5675 286.663 66.3599 286.576 66.1874 286.404C66.0213 286.231 65.9382 286.024 65.9382 285.781C65.9382 285.526 66.0213 285.312 66.1874 285.139C66.3599 284.96 66.5675 284.871 66.8103 284.871C67.0658 284.871 67.2766 284.96 67.4427 285.139C67.6152 285.312 67.7014 285.526 67.7014 285.781C67.7014 286.024 67.6152 286.231 67.4427 286.404C67.2766 286.576 67.0658 286.663 66.8103 286.663Z" fill="#009245"/>
<path d="M75.0216 298.651C74.1528 298.651 73.4022 298.436 72.7697 298.008C72.1437 297.574 71.6614 296.97 71.3228 296.197C70.9842 295.424 70.8149 294.53 70.8149 293.514C70.8149 292.435 70.9906 291.515 71.3419 290.754C71.6997 289.988 72.1948 289.403 72.8272 289.001C73.4597 288.598 74.1912 288.397 75.0216 288.397C75.7435 288.397 76.3983 288.566 76.9861 288.905C77.5738 289.244 78.0402 289.767 78.3851 290.477C78.7301 291.186 78.9026 292.096 78.9026 293.208C78.9026 293.323 78.8994 293.454 78.893 293.6C78.8866 293.741 78.877 293.888 78.8643 294.041H72.2044C72.2555 294.718 72.3928 295.313 72.6164 295.824C72.8464 296.328 73.1626 296.728 73.5651 297.021C73.974 297.309 74.4754 297.453 75.0696 297.453C75.472 297.453 75.8585 297.382 76.2291 297.242C76.5996 297.095 76.9446 296.871 77.264 296.571L78.0497 297.472C77.692 297.81 77.2512 298.092 76.7273 298.315C76.2099 298.539 75.6413 298.651 75.0216 298.651ZM72.1852 292.863H77.5323C77.5323 292.256 77.4397 291.703 77.2544 291.205C77.0755 290.707 76.7976 290.31 76.4207 290.017C76.0502 289.723 75.5838 289.576 75.0216 289.576C74.2614 289.576 73.613 289.838 73.0764 290.362C72.5461 290.885 72.2491 291.719 72.1852 292.863Z" fill="#009245"/>
<path d="M82.2477 298.421V288.627H83.5892V290.179C83.832 289.605 84.1674 289.164 84.5954 288.857C85.0298 288.55 85.5313 288.397 86.0999 288.397C86.6876 288.397 87.1667 288.554 87.5373 288.867L87.336 290.141C87.1444 290.007 86.9336 289.908 86.7036 289.844C86.48 289.78 86.2372 289.748 85.9753 289.748C85.5026 289.748 85.0873 289.882 84.7296 290.151C84.3718 290.419 84.0907 290.793 83.8863 291.272C83.6883 291.745 83.5892 292.297 83.5892 292.93V298.421H82.2477Z" fill="#009245"/>
<path d="M93.2548 298.651C92.386 298.651 91.6353 298.436 91.0029 298.008C90.3768 297.574 89.8945 296.97 89.5559 296.197C89.2173 295.424 89.048 294.53 89.048 293.514C89.048 292.435 89.2237 291.515 89.5751 290.754C89.9328 289.988 90.4279 289.403 91.0604 289.001C91.6928 288.598 92.4243 288.397 93.2548 288.397C93.9767 288.397 94.6315 288.566 95.2192 288.905C95.8069 289.244 96.2733 289.767 96.6183 290.477C96.9632 291.186 97.1357 292.096 97.1357 293.208C97.1357 293.323 97.1325 293.454 97.1261 293.6C97.1198 293.741 97.1102 293.888 97.0974 294.041H90.4375C90.4886 294.718 90.626 295.313 90.8495 295.824C91.0795 296.328 91.3958 296.728 91.7982 297.021C92.2071 297.309 92.7086 297.453 93.3027 297.453C93.7052 297.453 94.0917 297.382 94.4622 297.242C94.8327 297.095 95.1777 296.871 95.4971 296.571L96.2829 297.472C95.9251 297.81 95.4843 298.092 94.9605 298.315C94.443 298.539 93.8745 298.651 93.2548 298.651ZM90.4183 292.863H95.7654C95.7654 292.256 95.6728 291.703 95.4875 291.205C95.3087 290.707 95.0308 290.31 94.6538 290.017C94.2833 289.723 93.817 289.576 93.2548 289.576C92.4946 289.576 91.8461 289.838 91.3095 290.362C90.7793 290.885 90.4822 291.719 90.4183 292.863Z" fill="#009245"/>
<path d="M102.923 298.651C102.271 298.651 101.645 298.51 101.045 298.229C100.444 297.948 99.9395 297.558 99.5306 297.06L100.508 296.226C100.859 296.609 101.249 296.906 101.677 297.117C102.105 297.328 102.527 297.434 102.942 297.434C103.568 297.434 104.05 297.306 104.389 297.05C104.734 296.795 104.906 296.437 104.906 295.977C104.906 295.689 104.827 295.428 104.667 295.191C104.514 294.955 104.261 294.734 103.91 294.53C103.559 294.319 103.095 294.105 102.52 293.888C101.485 293.505 100.741 293.086 100.288 292.633C99.8341 292.173 99.6073 291.604 99.6073 290.927C99.6073 290.173 99.898 289.563 100.479 289.097C101.067 288.63 101.83 288.397 102.77 288.397C103.389 288.397 103.971 288.519 104.514 288.761C105.057 288.998 105.52 289.339 105.903 289.787L104.964 290.572C104.338 289.934 103.6 289.614 102.75 289.614C102.195 289.614 101.754 289.732 101.428 289.969C101.109 290.199 100.949 290.518 100.949 290.927C100.949 291.304 101.115 291.63 101.447 291.904C101.779 292.173 102.386 292.47 103.268 292.796C103.983 293.064 104.558 293.348 104.993 293.648C105.427 293.942 105.74 294.278 105.932 294.655C106.13 295.031 106.229 295.466 106.229 295.958C106.229 296.795 105.935 297.453 105.347 297.932C104.76 298.411 103.951 298.651 102.923 298.651Z" fill="#009245"/>
<path d="M117.169 298.651C116.134 298.651 115.322 298.363 114.735 297.788C114.147 297.207 113.853 296.408 113.853 295.392C113.853 294.741 113.997 294.175 114.284 293.696C114.578 293.217 114.99 292.85 115.52 292.594C116.057 292.332 116.689 292.201 117.418 292.201C117.897 292.201 118.354 292.262 118.788 292.383C119.229 292.505 119.654 292.687 120.063 292.93V291.991C120.063 291.16 119.88 290.55 119.516 290.16C119.159 289.771 118.6 289.576 117.839 289.576C117.386 289.576 116.903 289.662 116.392 289.835C115.888 290.001 115.409 290.237 114.955 290.544L114.562 289.413C115.08 289.087 115.639 288.838 116.239 288.665C116.84 288.487 117.427 288.397 118.002 288.397C119.101 288.397 119.932 288.685 120.494 289.26C121.056 289.835 121.337 290.681 121.337 291.799V298.421H120.063V297.309C119.673 297.737 119.226 298.069 118.721 298.306C118.223 298.536 117.705 298.651 117.169 298.651ZM117.341 297.472C117.833 297.472 118.312 297.344 118.778 297.089C119.245 296.827 119.673 296.453 120.063 295.967V294.137C119.686 293.894 119.277 293.709 118.836 293.581C118.402 293.447 117.98 293.38 117.571 293.38C116.836 293.38 116.249 293.565 115.808 293.936C115.373 294.3 115.156 294.789 115.156 295.402C115.156 296.034 115.351 296.539 115.741 296.916C116.13 297.287 116.664 297.472 117.341 297.472Z" fill="#009245"/>
<path d="M125.163 302.311V288.627H126.505V289.652C127.201 288.816 128.096 288.397 129.188 288.397C129.993 288.397 130.689 288.605 131.277 289.02C131.865 289.435 132.318 290.026 132.638 290.793C132.957 291.559 133.117 292.467 133.117 293.514C133.117 294.568 132.954 295.482 132.628 296.255C132.309 297.021 131.849 297.612 131.248 298.028C130.654 298.443 129.948 298.651 129.131 298.651C128.581 298.651 128.086 298.536 127.645 298.306C127.205 298.069 126.824 297.724 126.505 297.271V301.669L125.163 302.311ZM128.997 297.386C129.878 297.386 130.555 297.05 131.028 296.379C131.501 295.709 131.737 294.754 131.737 293.514C131.737 292.326 131.488 291.387 130.99 290.697C130.498 290.001 129.833 289.652 128.997 289.652C128.473 289.652 127.994 289.783 127.559 290.045C127.125 290.307 126.773 290.678 126.505 291.157V295.804C126.844 296.322 127.224 296.715 127.645 296.983C128.067 297.251 128.517 297.386 128.997 297.386Z" fill="#009245"/>
<path d="M136.348 298.421V288.627H137.69V290.179C137.932 289.605 138.268 289.164 138.696 288.857C139.13 288.55 139.632 288.397 140.2 288.397C140.788 288.397 141.267 288.554 141.638 288.867L141.437 290.141C141.245 290.007 141.034 289.908 140.804 289.844C140.58 289.78 140.338 289.748 140.076 289.748C139.603 289.748 139.188 289.882 138.83 290.151C138.472 290.419 138.191 290.793 137.987 291.272C137.789 291.745 137.69 292.297 137.69 292.93V298.421H136.348Z" fill="#009245"/>
<path d="M147.355 298.651C146.486 298.651 145.736 298.436 145.103 298.008C144.477 297.574 143.995 296.97 143.656 296.197C143.318 295.424 143.148 294.53 143.148 293.514C143.148 292.435 143.324 291.515 143.676 290.754C144.033 289.988 144.528 289.403 145.161 289.001C145.793 288.598 146.525 288.397 147.355 288.397C148.077 288.397 148.732 288.566 149.32 288.905C149.907 289.244 150.374 289.767 150.719 290.477C151.064 291.186 151.236 292.096 151.236 293.208C151.236 293.323 151.233 293.454 151.227 293.6C151.22 293.741 151.211 293.888 151.198 294.041H144.538C144.589 294.718 144.726 295.313 144.95 295.824C145.18 296.328 145.496 296.728 145.899 297.021C146.308 297.309 146.809 297.453 147.403 297.453C147.806 297.453 148.192 297.382 148.563 297.242C148.933 297.095 149.278 296.871 149.598 296.571L150.383 297.472C150.026 297.81 149.585 298.092 149.061 298.315C148.543 298.539 147.975 298.651 147.355 298.651ZM144.519 292.863H149.866C149.866 292.256 149.773 291.703 149.588 291.205C149.409 290.707 149.131 290.31 148.754 290.017C148.384 289.723 147.917 289.576 147.355 289.576C146.595 289.576 145.947 289.838 145.41 290.362C144.88 290.885 144.583 291.719 144.519 292.863Z" fill="#009245"/>
<path d="M154.581 298.421V288.627H155.923V289.882C156.198 289.403 156.562 289.036 157.015 288.78C157.475 288.525 157.996 288.397 158.577 288.397C159.721 288.397 160.57 288.752 161.126 289.461C161.682 290.164 161.96 291.234 161.96 292.671V298.421H160.618V292.431C160.618 291.518 160.427 290.825 160.043 290.352C159.66 289.873 159.104 289.633 158.376 289.633C157.571 289.633 156.961 289.879 156.546 290.371C156.13 290.863 155.923 291.588 155.923 292.546V298.421H154.581Z" fill="#009245"/>
<path d="M169.4 298.651C168.186 298.651 167.225 298.191 166.516 297.271C165.813 296.344 165.462 295.092 165.462 293.514C165.462 292.454 165.621 291.543 165.941 290.783C166.26 290.017 166.717 289.429 167.311 289.02C167.912 288.605 168.624 288.397 169.448 288.397C170.464 288.397 171.323 288.787 172.026 289.566V285.225L173.367 284.583V298.421H172.026V297.443C171.342 298.248 170.467 298.651 169.4 298.651ZM169.601 297.386C170.081 297.386 170.537 297.248 170.972 296.974C171.406 296.692 171.757 296.312 172.026 295.833V291.138C171.738 290.678 171.377 290.317 170.943 290.055C170.515 289.787 170.068 289.652 169.601 289.652C168.72 289.652 168.036 289.988 167.551 290.659C167.072 291.323 166.832 292.275 166.832 293.514C166.832 294.274 166.95 294.945 167.187 295.527C167.423 296.108 167.749 296.565 168.164 296.897C168.579 297.223 169.058 297.386 169.601 297.386Z" fill="#009245"/>
<path d="M180.872 298.651C180.003 298.651 179.252 298.436 178.62 298.008C177.994 297.574 177.512 296.97 177.173 296.197C176.834 295.424 176.665 294.53 176.665 293.514C176.665 292.435 176.841 291.515 177.192 290.754C177.55 289.988 178.045 289.403 178.677 289.001C179.31 288.598 180.041 288.397 180.872 288.397C181.594 288.397 182.249 288.566 182.836 288.905C183.424 289.244 183.89 289.767 184.235 290.477C184.58 291.186 184.753 292.096 184.753 293.208C184.753 293.323 184.75 293.454 184.743 293.6C184.737 293.741 184.727 293.888 184.715 294.041H178.055C178.106 294.718 178.243 295.313 178.467 295.824C178.697 296.328 179.013 296.728 179.415 297.021C179.824 297.309 180.326 297.453 180.92 297.453C181.322 297.453 181.709 297.382 182.079 297.242C182.45 297.095 182.795 296.871 183.114 296.571L183.9 297.472C183.542 297.81 183.101 298.092 182.578 298.315C182.06 298.539 181.492 298.651 180.872 298.651ZM178.035 292.863H183.383C183.383 292.256 183.29 291.703 183.105 291.205C182.926 290.707 182.648 290.31 182.271 290.017C181.9 289.723 181.434 289.576 180.872 289.576C180.112 289.576 179.463 289.838 178.927 290.362C178.396 290.885 178.099 291.719 178.035 292.863Z" fill="#009245"/>
<path d="M188.098 298.421V288.627H189.439V290.179C189.682 289.605 190.018 289.164 190.446 288.857C190.88 288.55 191.382 288.397 191.95 288.397C192.538 288.397 193.017 288.554 193.388 288.867L193.186 290.141C192.995 290.007 192.784 289.908 192.554 289.844C192.33 289.78 192.087 289.748 191.826 289.748C191.353 289.748 190.938 289.882 190.58 290.151C190.222 290.419 189.941 290.793 189.737 291.272C189.539 291.745 189.439 292.297 189.439 292.93V298.421H188.098Z" fill="#009245"/>
<path d="M203.664 298.651C203.012 298.651 202.386 298.51 201.785 298.229C201.185 297.948 200.68 297.558 200.271 297.06L201.249 296.226C201.6 296.609 201.99 296.906 202.418 297.117C202.846 297.328 203.268 297.434 203.683 297.434C204.309 297.434 204.791 297.306 205.13 297.05C205.475 296.795 205.647 296.437 205.647 295.977C205.647 295.689 205.567 295.428 205.408 295.191C205.254 294.955 205.002 294.734 204.651 294.53C204.299 294.319 203.836 294.105 203.261 293.888C202.226 293.505 201.482 293.086 201.028 292.633C200.575 292.173 200.348 291.604 200.348 290.927C200.348 290.173 200.639 289.563 201.22 289.097C201.808 288.63 202.571 288.397 203.51 288.397C204.13 288.397 204.711 288.519 205.254 288.761C205.797 288.998 206.261 289.339 206.644 289.787L205.705 290.572C205.079 289.934 204.341 289.614 203.491 289.614C202.935 289.614 202.495 289.732 202.169 289.969C201.849 290.199 201.69 290.518 201.69 290.927C201.69 291.304 201.856 291.63 202.188 291.904C202.52 292.173 203.127 292.47 204.009 292.796C204.724 293.064 205.299 293.348 205.733 293.648C206.168 293.942 206.481 294.278 206.673 294.655C206.871 295.031 206.97 295.466 206.97 295.958C206.97 296.795 206.676 297.453 206.088 297.932C205.5 298.411 204.692 298.651 203.664 298.651Z" fill="#009245"/>
<path d="M213.66 298.651C212.369 298.651 211.35 298.194 210.603 297.28C209.855 296.36 209.482 295.111 209.482 293.533C209.482 292.479 209.651 291.569 209.99 290.802C210.328 290.036 210.811 289.445 211.437 289.03C212.063 288.608 212.804 288.397 213.66 288.397C214.522 288.397 215.266 288.605 215.893 289.02C216.519 289.429 216.998 290.017 217.33 290.783C217.669 291.55 217.838 292.46 217.838 293.514C217.838 294.568 217.669 295.482 217.33 296.255C216.991 297.021 216.509 297.612 215.883 298.028C215.257 298.443 214.516 298.651 213.66 298.651ZM213.66 297.386C214.541 297.386 215.228 297.044 215.72 296.36C216.218 295.677 216.467 294.728 216.467 293.514C216.467 292.294 216.218 291.345 215.72 290.668C215.228 289.991 214.541 289.652 213.66 289.652C212.765 289.652 212.072 289.991 211.58 290.668C211.095 291.339 210.852 292.294 210.852 293.533C210.852 294.754 211.098 295.702 211.59 296.379C212.082 297.05 212.772 297.386 213.66 297.386Z" fill="#009245"/>
<path d="M225.173 298.651C224.63 298.651 224.145 298.551 223.717 298.353C223.295 298.149 222.883 297.83 222.481 297.395V298.421H221.139V285.225L222.481 284.583V289.672C222.794 289.269 223.18 288.956 223.64 288.733C224.1 288.509 224.586 288.397 225.097 288.397C225.908 288.397 226.608 288.605 227.195 289.02C227.783 289.435 228.237 290.026 228.556 290.793C228.882 291.559 229.045 292.467 229.045 293.514C229.045 295.143 228.706 296.408 228.029 297.309C227.352 298.203 226.4 298.651 225.173 298.651ZM225.001 297.386C225.851 297.386 226.505 297.05 226.965 296.379C227.425 295.702 227.655 294.747 227.655 293.514C227.655 292.256 227.425 291.297 226.965 290.639C226.512 289.981 225.847 289.652 224.972 289.652C224.499 289.652 224.027 289.796 223.554 290.084C223.088 290.371 222.73 290.738 222.481 291.186V295.833C222.755 296.306 223.116 296.683 223.564 296.964C224.011 297.245 224.49 297.386 225.001 297.386Z" fill="#009245"/>
<path d="M232.268 298.421V288.627H233.609V290.179C233.852 289.605 234.187 289.164 234.615 288.857C235.05 288.55 235.551 288.397 236.12 288.397C236.708 288.397 237.187 288.554 237.557 288.867L237.356 290.141C237.164 290.007 236.954 289.908 236.724 289.844C236.5 289.78 236.257 289.748 235.995 289.748C235.523 289.748 235.107 289.882 234.75 290.151C234.392 290.419 234.111 290.793 233.906 291.272C233.708 291.745 233.609 292.297 233.609 292.93V298.421H232.268Z" fill="#009245"/>
<path d="M243.275 298.651C242.406 298.651 241.655 298.436 241.023 298.008C240.397 297.574 239.914 296.97 239.576 296.197C239.237 295.424 239.068 294.53 239.068 293.514C239.068 292.435 239.244 291.515 239.595 290.754C239.953 289.988 240.448 289.403 241.08 289.001C241.713 288.598 242.444 288.397 243.275 288.397C243.997 288.397 244.651 288.566 245.239 288.905C245.827 289.244 246.293 289.767 246.638 290.477C246.983 291.186 247.156 292.096 247.156 293.208C247.156 293.323 247.153 293.454 247.146 293.6C247.14 293.741 247.13 293.888 247.117 294.041H240.457C240.509 294.718 240.646 295.313 240.87 295.824C241.1 296.328 241.416 296.728 241.818 297.021C242.227 297.309 242.729 297.453 243.323 297.453C243.725 297.453 244.112 297.382 244.482 297.242C244.853 297.095 245.198 296.871 245.517 296.571L246.303 297.472C245.945 297.81 245.504 298.092 244.98 298.315C244.463 298.539 243.894 298.651 243.275 298.651ZM240.438 292.863H245.785C245.785 292.256 245.693 291.703 245.508 291.205C245.329 290.707 245.051 290.31 244.674 290.017C244.303 289.723 243.837 289.576 243.275 289.576C242.515 289.576 241.866 289.838 241.33 290.362C240.799 290.885 240.502 291.719 240.438 292.863Z" fill="#009245"/>
<path d="M258.064 302.503L257.403 301.429C258.291 301.378 259.016 301.251 259.579 301.046C260.141 300.848 260.556 300.564 260.824 300.193C261.093 299.823 261.227 299.353 261.227 298.785V297.242C260.639 298.181 259.751 298.651 258.563 298.651C257.777 298.651 257.09 298.436 256.503 298.008C255.915 297.58 255.458 296.983 255.132 296.217C254.806 295.444 254.643 294.543 254.643 293.514C254.643 292.473 254.806 291.569 255.132 290.802C255.464 290.036 255.928 289.445 256.522 289.03C257.116 288.608 257.819 288.397 258.63 288.397C259.16 288.397 259.655 288.509 260.115 288.733C260.581 288.95 260.952 289.25 261.227 289.633V288.627H262.568V298.392C262.568 299.043 262.476 299.615 262.29 300.107C262.111 300.605 261.834 301.024 261.457 301.362C261.086 301.701 260.617 301.963 260.048 302.148C259.486 302.34 258.825 302.458 258.064 302.503ZM258.802 297.386C259.281 297.386 259.741 297.239 260.182 296.945C260.623 296.645 260.971 296.252 261.227 295.766V291.147C260.978 290.7 260.629 290.339 260.182 290.064C259.741 289.79 259.288 289.652 258.822 289.652C257.914 289.652 257.218 289.985 256.732 290.649C256.253 291.307 256.014 292.262 256.014 293.514C256.014 294.294 256.129 294.974 256.359 295.555C256.595 296.13 256.921 296.581 257.336 296.906C257.758 297.226 258.247 297.386 258.802 297.386Z" fill="#009245"/>
<path d="M269.997 298.651C269.129 298.651 268.378 298.436 267.746 298.008C267.12 297.574 266.637 296.97 266.299 296.197C265.96 295.424 265.791 294.53 265.791 293.514C265.791 292.435 265.966 291.515 266.318 290.754C266.676 289.988 267.171 289.403 267.803 289.001C268.436 288.598 269.167 288.397 269.997 288.397C270.719 288.397 271.374 288.566 271.962 288.905C272.55 289.244 273.016 289.767 273.361 290.477C273.706 291.186 273.878 292.096 273.878 293.208C273.878 293.323 273.875 293.454 273.869 293.6C273.862 293.741 273.853 293.888 273.84 294.041H267.18C267.231 294.718 267.369 295.313 267.592 295.824C267.822 296.328 268.138 296.728 268.541 297.021C268.95 297.309 269.451 297.453 270.045 297.453C270.448 297.453 270.834 297.382 271.205 297.242C271.575 297.095 271.92 296.871 272.24 296.571L273.026 297.472C272.668 297.81 272.227 298.092 271.703 298.315C271.186 298.539 270.617 298.651 269.997 298.651ZM267.161 292.863H272.508C272.508 292.256 272.415 291.703 272.23 291.205C272.051 290.707 271.773 290.31 271.397 290.017C271.026 289.723 270.56 289.576 269.997 289.576C269.237 289.576 268.589 289.838 268.052 290.362C267.522 290.885 267.225 291.719 267.161 292.863ZM269.02 287.381L271.799 284.392H273.735L270.381 287.381H269.02Z" fill="#009245"/>
<path d="M277.074 298.421V288.627H278.415V289.882C278.69 289.403 279.054 289.036 279.508 288.78C279.968 288.525 280.488 288.397 281.07 288.397C282.213 288.397 283.063 288.752 283.619 289.461C284.175 290.164 284.452 291.234 284.452 292.671V298.421H283.111V292.431C283.111 291.518 282.919 290.825 282.536 290.352C282.153 289.873 281.597 289.633 280.868 289.633C280.064 289.633 279.453 289.879 279.038 290.371C278.623 290.863 278.415 291.588 278.415 292.546V298.421H277.074Z" fill="#009245"/>
<path d="M292.161 298.651C291.292 298.651 290.542 298.436 289.909 298.008C289.283 297.574 288.801 296.97 288.462 296.197C288.124 295.424 287.954 294.53 287.954 293.514C287.954 292.435 288.13 291.515 288.481 290.754C288.839 289.988 289.334 289.403 289.967 289.001C290.599 288.598 291.33 288.397 292.161 288.397C292.883 288.397 293.538 288.566 294.125 288.905C294.713 289.244 295.18 289.767 295.524 290.477C295.869 291.186 296.042 292.096 296.042 293.208C296.042 293.323 296.039 293.454 296.032 293.6C296.026 293.741 296.016 293.888 296.004 294.041H289.344C289.395 294.718 289.532 295.313 289.756 295.824C289.986 296.328 290.302 296.728 290.704 297.021C291.113 297.309 291.615 297.453 292.209 297.453C292.611 297.453 292.998 297.382 293.368 297.242C293.739 297.095 294.084 296.871 294.403 296.571L295.189 297.472C294.831 297.81 294.391 298.092 293.867 298.315C293.349 298.539 292.781 298.651 292.161 298.651ZM289.325 292.863H294.672C294.672 292.256 294.579 291.703 294.394 291.205C294.215 290.707 293.937 290.31 293.56 290.017C293.19 289.723 292.723 289.576 292.161 289.576C291.401 289.576 290.752 289.838 290.216 290.362C289.685 290.885 289.388 291.719 289.325 292.863Z" fill="#009245"/>
<path d="M299.387 298.421V288.627H300.729V290.179C300.971 289.605 301.307 289.164 301.735 288.857C302.169 288.55 302.671 288.397 303.239 288.397C303.827 288.397 304.306 288.554 304.677 288.867L304.475 290.141C304.284 290.007 304.073 289.908 303.843 289.844C303.619 289.78 303.377 289.748 303.115 289.748C302.642 289.748 302.227 289.882 301.869 290.151C301.511 290.419 301.23 290.793 301.026 291.272C300.828 291.745 300.729 292.297 300.729 292.93V298.421H299.387Z" fill="#009245"/>
<path d="M310.365 298.651C309.075 298.651 308.056 298.194 307.309 297.28C306.561 296.36 306.187 295.111 306.187 293.533C306.187 292.479 306.357 291.569 306.695 290.802C307.034 290.036 307.516 289.445 308.142 289.03C308.768 288.608 309.509 288.397 310.365 288.397C311.228 288.397 311.972 288.605 312.598 289.02C313.224 289.429 313.703 290.017 314.035 290.783C314.374 291.55 314.543 292.46 314.543 293.514C314.543 294.568 314.374 295.482 314.035 296.255C313.697 297.021 313.215 297.612 312.589 298.028C311.962 298.443 311.221 298.651 310.365 298.651ZM310.365 297.386C311.247 297.386 311.934 297.044 312.426 296.36C312.924 295.677 313.173 294.728 313.173 293.514C313.173 292.294 312.924 291.345 312.426 290.668C311.934 289.991 311.247 289.652 310.365 289.652C309.471 289.652 308.778 289.991 308.286 290.668C307.8 291.339 307.558 292.294 307.558 293.533C307.558 294.754 307.804 295.702 308.296 296.379C308.787 297.05 309.477 297.386 310.365 297.386Z" fill="#009245"/>
<path d="M320.202 295.124V294.626C320.202 293.981 320.298 293.438 320.49 292.997C320.688 292.556 320.937 292.176 321.237 291.856C321.537 291.531 321.844 291.23 322.157 290.956C322.566 290.598 322.924 290.227 323.23 289.844C323.543 289.454 323.7 288.956 323.7 288.349C323.7 287.704 323.476 287.158 323.029 286.711C322.588 286.263 321.952 286.04 321.122 286.04C320.208 286.04 319.499 286.292 318.995 286.797C318.496 287.302 318.247 287.95 318.247 288.742H316.934C316.934 287.975 317.107 287.292 317.452 286.691C317.797 286.091 318.282 285.621 318.908 285.283C319.534 284.944 320.272 284.775 321.122 284.775C321.972 284.775 322.687 284.938 323.268 285.264C323.856 285.583 324.303 286.014 324.61 286.557C324.917 287.094 325.07 287.698 325.07 288.368C325.07 288.911 324.981 289.375 324.802 289.758C324.629 290.141 324.406 290.48 324.131 290.774C323.856 291.061 323.572 291.339 323.278 291.607C322.991 291.863 322.716 292.131 322.454 292.412C322.192 292.687 321.978 293.003 321.812 293.361C321.646 293.719 321.563 294.143 321.563 294.635V295.124H320.202ZM320.854 298.679C320.56 298.679 320.307 298.574 320.097 298.363C319.892 298.152 319.79 297.906 319.79 297.625C319.79 297.338 319.892 297.085 320.097 296.868C320.307 296.651 320.56 296.542 320.854 296.542C321.16 296.542 321.416 296.651 321.62 296.868C321.831 297.085 321.936 297.338 321.936 297.625C321.936 297.906 321.831 298.152 321.62 298.363C321.416 298.574 321.16 298.679 320.854 298.679Z" fill="#009245"/>
</g>
<defs>
<filter id="filter0_d_249_17235" x="0.222001" y="0.275391" width="354.556" height="340.182" filterUnits="userSpaceOnUse" color-interpolation-filters="sRGB">
<feFlood flood-opacity="0" result="BackgroundImageFix"/>
<feColorMatrix in="SourceAlpha" type="matrix" values="0 0 0 0 0 0 0 0 0 0 0 0 0 0 0 0 0 0 127 0" result="hardAlpha"/>
<feMorphology radius="2.87478" operator="erode" in="SourceAlpha" result="effect1_dropShadow_249_17235"/>
<feOffset dy="6.70782"/>
<feGaussianBlur stdDeviation="4.31217"/>
<feComposite in2="hardAlpha" operator="out"/>
<feColorMatrix type="matrix" values="0 0 0 0 1 0 0 0 0 0.572549 0 0 0 0 0.909804 0 0 0 0.15 0"/>
<feBlend mode="normal" in2="BackgroundImageFix" result="effect1_dropShadow_249_17235"/>
<feBlend mode="normal" in="SourceGraphic" in2="effect1_dropShadow_249_17235" result="shape"/>
</filter>
</defs>
</svg>
