<svg width="1526" height="500" viewBox="0 0 1526 500" fill="none" xmlns="http://www.w3.org/2000/svg">
<path d="M498.645 292.928L492.996 343.475H546.664L528.304 289.807L498.645 292.928Z" fill="#D9E021"/>
<path d="M540.262 324.154C540.262 324.154 532.963 344.025 517.923 344.025C502.882 344.025 494.699 327.972 494.699 327.972L388.831 382.346L376 494.472L654 495.892L629.764 353.96L540.262 324.154Z" fill="#84C7AC"/>
<path d="M533.784 289.165C533.784 289.165 530.728 298.394 513.312 298.394C495.897 298.394 492.996 288.546 492.996 288.546C492.996 288.546 531.039 281.328 533.784 289.165Z" fill="#1B1464"/>
<path d="M583.864 109.616L591.554 201.069C592.089 207.356 591.499 213.69 589.812 219.769L582.065 247.627C579.967 255.16 576.235 262.134 571.138 268.05C566.04 273.965 559.703 278.675 552.58 281.842L535.075 289.578C528.547 292.476 521.501 294.013 514.363 294.096C507.226 294.179 500.146 292.806 493.552 290.061L480.807 284.729C473.23 281.577 466.491 276.695 461.124 270.469C455.757 264.243 451.91 256.845 449.891 248.864L439.864 209.302C437.719 200.8 437.719 191.895 439.864 183.392L455.74 119.613C458.222 109.453 463.664 100.267 471.37 93.2278C479.077 86.1886 488.698 81.6158 499.005 80.0935C504.164 79.3403 509.396 79.2257 514.583 79.7522C541.378 82.5963 581.031 81.1743 583.864 109.616Z" fill="#D9E021"/>
<path d="M517.347 196.424H508.36C504.617 196.424 501.583 199.623 501.583 203.57V222.552C501.583 226.498 504.617 229.698 508.36 229.698H517.347C521.089 229.698 524.124 226.498 524.124 222.552V203.57C524.124 199.623 521.089 196.424 517.347 196.424Z" fill="#009245"/>
<path d="M488.703 193.879C488.703 193.879 483.263 183.011 472.397 184.82C461.531 186.629 459.722 197.497 459.722 197.497" fill="#09231E"/>
<path d="M569.205 198.572C569.205 198.572 567.562 185.839 555.735 183.812C543.908 181.785 538.077 191.965 538.077 191.965" fill="#09231E"/>
<path d="M586.593 232.919C598.534 212.36 607.841 190.393 614.298 167.53C624.098 131.463 608.315 104.313 608.315 104.313C608.315 104.313 601.142 135.75 589.663 135.75C578.185 135.75 616.924 82.8791 605.446 61.4449C605.446 61.4449 597.511 83.5793 592.16 76.7918C586.808 70.0043 601.615 43.5258 581.298 36.0524C581.298 36.0524 585.359 57.158 565.272 51.4422C545.185 45.7264 575.315 32.8659 575.315 24.2922C575.315 15.7185 565.272 4.28685 565.272 4.28685C565.272 4.28685 570.121 25.9783 558.37 32.9945C546.62 40.0106 529.402 41.4396 530.837 51.4422C530.837 51.4422 528.441 38.4388 536.82 30.008C545.199 21.5772 525.342 14.7325 525.342 14.7325C525.342 14.7325 528.441 30.0794 519.603 39.3676C510.764 48.6558 494.967 54.3001 497.837 61.4449C497.837 61.4449 492.571 50.2848 500.95 29.4221C509.329 8.55941 483.489 0 483.489 0C483.489 0 479.185 35.7238 464.837 55.7291C450.489 75.7344 439.011 117.174 443.315 131.463C443.315 131.463 432.884 120.861 442.397 92.5817C451.909 64.3028 436.658 64.0027 436.658 64.0027C436.658 64.0027 428.967 122.89 423.228 147.182C417.489 171.474 436.629 197.452 436.629 197.452C442.816 192.308 447.876 185.952 451.494 178.78C455.112 171.607 457.212 163.77 457.663 155.756C459.098 128.606 481.093 117.288 492.342 130.034C503.59 142.781 483.489 141.466 483.489 141.466C483.489 141.466 509.789 158.513 517.45 132.135C525.112 105.757 556.52 129.563 553.794 141.466C551.067 153.369 564.497 158.785 568.471 157.27C572.446 155.756 580.093 181.305 577.711 204.254C575.33 227.203 586.593 232.919 586.593 232.919Z" fill="#1E5884"/>
<path d="M172.236 248.026L174.449 296.207L121.785 292.88L136.604 244.641L172.236 248.026Z" fill="#F15A24"/>
<path d="M172.255 250.862C172.255 250.862 167.065 261.099 159.005 261.099C150.945 261.099 136.049 249.114 136.049 249.114L138.074 242.447L171.833 247.529L172.255 250.862Z" fill="#09231E"/>
<path d="M232.859 155.552C230.89 154.293 228.623 153.586 226.292 153.504L227.473 110.224C227.542 107.736 227.092 105.262 226.152 102.962C225.211 100.662 223.802 98.5869 222.015 96.872L198.166 73.9898C194.891 70.8469 190.545 69.0939 186.025 69.0938H112.418C109.8 69.0938 107.216 69.6819 104.852 70.8152C102.487 71.9486 100.403 73.5988 98.7503 75.646L86.7969 90.4795C84.1009 93.8401 82.7041 98.0727 82.8652 102.393L85.0686 158.56C83.4989 155.552 79.4664 150.743 71.0557 155.552C60.0816 161.872 66.9945 201.317 86.1488 186.527L87.1137 211.356C87.2452 214.598 88.2543 217.742 90.0315 220.446C91.8087 223.151 94.2861 225.313 97.1949 226.698L149.171 251.657C151.554 252.816 154.165 253.418 156.811 253.418C159.456 253.418 162.068 252.816 164.451 251.657L214.857 226.872C217.746 225.447 220.194 223.253 221.936 220.525C223.677 217.798 224.646 214.642 224.737 211.399L225.327 189.883C238.534 190.624 242.249 160.986 232.859 155.552Z" fill="#F15A24"/>
<path fill-rule="evenodd" clip-rule="evenodd" d="M86.5185 185.394C86.5185 185.394 86.7795 98.3737 111.675 95.0475C111.675 95.0475 181.39 91.7358 201.313 96.7179C221.235 101.7 225.73 178.959 225.73 178.959C225.73 178.959 246.131 101.7 234.502 81.757C222.874 61.814 183.043 53.4766 159.814 55.147C159.814 55.147 146.533 36.8598 106.688 46.8386C66.8424 56.8173 82.4586 149.502 86.5185 185.394Z" fill="#0A0C35"/>
<path d="M149.462 169.835C151.934 165.647 163.256 165.733 165.391 169.964C165.431 170.033 165.465 170.105 165.493 170.18C168.843 177.279 177.195 194.147 163.826 194.147C150.457 194.147 143.729 195.036 143.729 186.158C143.729 180.636 147.02 174.038 149.462 169.835Z" fill="#FBB03B"/>
<path d="M136.049 151.302C136.049 151.302 131.319 141.1 121.845 142.793C112.372 144.486 110.814 154.672 110.814 154.672" fill="#09231E"/>
<path d="M207.364 156.867C207.364 156.867 205.977 144.776 195.958 142.856C185.939 140.936 181.032 150.599 181.032 150.599" fill="#09231E"/>
<path d="M176.799 294.649L253.565 321.486L271 495.892H0L39.943 308.068L115.047 289.625H148.416L176.799 294.649Z" fill="#D9E021"/>
<path d="M179.736 278.652L149.215 288.702L159.388 310.47L186.518 295.402L179.736 278.652Z" fill="white"/>
<path d="M122.089 275.361L149.215 288.739L127.17 310.471L111.911 290.419L122.089 275.361Z" fill="white"/>
<path d="M86.0923 176.858C86.0923 176.858 96.8581 185.536 123.903 197.019C150.949 208.502 167.939 204.694 171.058 204.399C174.178 204.104 187.149 204.591 199.525 191.115C211.902 177.64 225.308 177.95 225.86 171.131C225.86 171.131 242.357 226.287 203.182 238.095C164.007 249.902 168.795 256.766 157.695 257.769C146.596 258.773 117.577 239.497 101.617 236.545C85.657 233.593 79.2729 204.251 86.0923 176.858Z" fill="#0A0C35"/>
<path d="M390.928 189.187C390.928 189.187 414.16 174.566 414.16 201.73C414.16 228.894 399.335 230.987 390.928 224.666C382.521 218.344 390.928 189.187 390.928 189.187Z" fill="#C1272D"/>
<path d="M401.725 216.078C408.472 220.045 413.196 229.298 413.196 240.099C413.196 254.491 404.788 266.162 394.415 266.162C384.042 266.162 375.634 254.491 375.634 240.099C375.635 237.899 375.838 235.703 376.24 233.54" stroke="#FDCE34" stroke-width="9" stroke-miterlimit="10"/>
<path d="M254.527 189.187C254.527 189.187 232.125 174.566 232.125 201.73C232.125 228.894 246.42 230.987 254.527 224.666C262.634 218.344 254.527 189.187 254.527 189.187Z" fill="#C1272D"/>
<path d="M243.596 216.078C236.849 220.045 232.125 229.298 232.125 240.099C232.125 254.491 240.533 266.162 250.907 266.162C261.28 266.162 269.688 254.491 269.688 240.099C269.687 237.899 269.484 235.703 269.081 233.54" stroke="#FDCE34" stroke-width="9" stroke-miterlimit="10"/>
<path d="M305.678 305.034L287.024 350.92H357.334L344.42 299.873L308.088 304.935L305.678 305.034Z" fill="#C1272D"/>
<path d="M345.776 305.348C345.776 305.348 342.812 314.32 325.955 314.32C309.097 314.32 306.287 304.746 306.287 304.746C306.287 304.746 343.121 297.73 345.776 305.348Z" fill="#63151B"/>
<path d="M356.964 108.788C343.401 103.242 328.301 102.886 314.497 107.787C290.355 115.971 250.099 137.851 251.42 192.726C253.287 270.975 260.798 297.803 319.006 306.741C377.214 315.679 392.251 250.851 394.118 212.85C395.727 180.277 398.786 126.345 356.964 108.788Z" fill="#C1272D"/>
<path d="M349.373 324.914C349.373 324.914 340.817 345.084 323.2 345.084C305.583 345.084 296.004 328.804 296.004 328.804L172.024 383.984L157 497.803L482.543 499.243L454.166 355.17L349.373 324.914Z" fill="#EF98C0"/>
<path d="M316.943 201.698C317.49 199.98 318.586 198.483 320.065 197.429C321.545 196.376 323.33 195.823 325.154 195.853C326.978 195.882 328.743 196.493 330.187 197.595C331.631 198.696 332.675 200.228 333.165 201.963C333.165 202.095 333.239 202.228 333.269 202.36C336.68 215.83 345.186 247.815 331.556 247.815C317.926 247.815 311.104 249.492 311.104 232.654C311.059 222.11 314.396 209.58 316.943 201.698Z" fill="#EF98C0"/>
<path d="M304.361 196.476C304.361 196.476 299.476 186.707 289.719 188.328C279.961 189.949 278.356 199.704 278.356 199.704" fill="#09231E"/>
<path d="M373.707 200.668C373.707 200.668 372.402 189.237 362.874 187.422C353.346 185.607 348.666 194.742 348.666 194.742" fill="#09231E"/>
<path d="M1260.36 220.213C1262.52 209.059 1257.55 198.966 1249.14 189.304C1234.37 172.435 1234.29 165.771 1248.95 149.334C1258.34 138.809 1261.44 127.586 1260.41 113.742C1258.81 91.9238 1262.08 87.4207 1283.5 82.5552C1297.28 79.4323 1306.56 72.6568 1313.68 60.5696C1324.4 42.4458 1330.19 40.5079 1349.42 48.3988C1362.71 53.8638 1374.75 54.6027 1388.39 48.8031C1408.61 40.2152 1414.59 42.1112 1425.43 60.7369C1433.23 74.1206 1444.37 80.1433 1458.61 83.6844C1476.97 88.2433 1481.26 93.9592 1478.87 112.473C1476.99 127.042 1480.77 138.418 1490.42 149.376C1504.84 165.757 1504.8 172.101 1490.8 188.189C1481.33 199.063 1476.93 210.286 1478.99 225.036C1481.57 243.62 1476.32 250.939 1457.77 254.773C1442.25 257.98 1431.46 265.62 1424.33 279.561C1417.19 293.502 1405.89 297.685 1391.75 290.631C1376.67 283.172 1362.32 283.046 1347.16 290.631C1333.89 297.364 1322.45 294.353 1315.65 280.676C1308.14 265.578 1296.44 257.757 1279.85 254.383C1262.04 250.786 1259.66 245.307 1260.36 220.213Z" fill="#0A0C35"/>
<path d="M1435.81 197.069C1435.81 197.069 1458.32 182.897 1458.32 209.226C1458.32 235.555 1443.95 237.584 1435.81 231.456C1427.66 225.329 1435.81 197.069 1435.81 197.069Z" fill="#662D91"/>
<path d="M1304.4 197.069C1304.4 197.069 1281.88 182.897 1281.88 209.226C1281.88 235.555 1296.25 237.584 1304.4 231.456C1312.55 225.329 1304.4 197.069 1304.4 197.069Z" fill="#662D91"/>
<path d="M1354.11 309.354L1336.03 353.83H1404.18L1391.66 304.352L1356.45 309.258L1354.11 309.354Z" fill="#662D91"/>
<path d="M1392.98 309.659C1392.98 309.659 1390.03 318.355 1373.29 318.355C1356.56 318.355 1353.77 309.075 1353.77 309.075C1353.77 309.075 1390.34 302.275 1392.98 309.659Z" fill="#63151B"/>
<path d="M1402.88 119.14C1389.74 113.765 1375.1 113.42 1361.72 118.17C1338.32 126.102 1299.3 147.31 1300.58 200.498C1302.39 276.343 1309.67 302.347 1366.09 311.01C1422.51 319.673 1437.09 256.837 1438.9 220.004C1440.46 188.432 1443.42 136.157 1402.88 119.14Z" fill="#662D91"/>
<path d="M1396.46 328.625C1396.46 328.625 1388.17 348.175 1371.09 348.175C1354.02 348.175 1344.73 332.395 1344.73 332.395L1224.56 385.88L1210 496.201L1525.54 497.597L1498.03 357.951L1396.46 328.625Z" fill="#EF98C0"/>
<path d="M1348.16 207.869C1348.16 207.869 1343.43 198.4 1333.97 199.971C1324.51 201.542 1322.96 210.997 1322.96 210.997" fill="#09231E"/>
<path d="M1415.38 211.931C1415.38 211.931 1414.11 200.852 1404.88 199.093C1395.64 197.333 1391.11 206.188 1391.11 206.188" fill="#09231E"/>
<path d="M1443.2 232.458C1443.4 231.41 1443.97 230.465 1444.79 229.786C1445.62 229.106 1446.66 228.734 1447.74 228.734C1448.81 228.734 1449.85 229.106 1450.68 229.786C1451.51 230.465 1452.07 231.41 1452.28 232.458C1455.27 248.392 1461.19 273.256 1471.04 289.287C1486.5 314.445 1440.1 332.768 1440.79 312.432C1441.34 297.044 1438.89 255.631 1443.2 232.458Z" fill="#FDCE34"/>
<path d="M1296.14 232.482C1295.95 231.429 1295.41 230.478 1294.6 229.794C1293.8 229.109 1292.78 228.734 1291.74 228.734C1290.69 228.734 1289.68 229.109 1288.87 229.794C1288.07 230.478 1287.52 231.429 1287.33 232.482C1284.4 248.411 1278.66 273.268 1269.08 289.295C1254.05 314.446 1299.15 332.765 1298.48 312.434C1297.96 297.05 1300.33 255.649 1296.14 232.482Z" fill="#FDCE34"/>
<path d="M1373.84 239.936C1382.86 239.936 1390.17 235.13 1390.17 229.201C1390.17 223.271 1382.86 218.465 1373.84 218.465C1364.81 218.465 1357.5 223.271 1357.5 229.201C1357.5 235.13 1364.81 239.936 1373.84 239.936Z" fill="#EF98C0"/>
<path d="M1439.63 213.799C1439.63 213.799 1424.02 210.604 1428.21 189.678C1428.21 189.678 1414.25 181.307 1418.44 172.936C1418.44 172.936 1403.55 172.532 1404.02 160.185C1404.02 160.185 1396.11 170.146 1380.75 160.381C1380.75 160.381 1373.77 170.146 1362.6 165.961C1362.6 165.961 1354.23 183.637 1335.43 174.108C1335.43 174.108 1331.9 195.258 1316.54 189.678C1316.54 189.678 1310.05 205.024 1300.74 193.165C1291.43 181.307 1280.25 191.073 1278.85 165.961C1278.85 165.961 1255.12 147.825 1274.66 125.503C1274.66 125.503 1267.17 89.1188 1295.35 87.0819C1295.35 87.0819 1317.06 54.6877 1348.21 76.1443C1348.21 76.1443 1365.51 46.9727 1398.26 68.8061C1398.26 68.8061 1437.98 50.1675 1450.54 85.0451C1450.54 85.0451 1477.93 107.367 1461.45 128.293C1461.45 128.293 1468.43 158.567 1445.52 163.659C1445.52 163.659 1454.45 171.234 1445.52 185.981C1445.46 186.036 1449.6 203.043 1439.63 213.799Z" fill="#0A0C35"/>
<path d="M899.2 249.035L901.415 297.234L848.732 293.905L863.556 245.648L899.2 249.035Z" fill="#84C7AC"/>
<path d="M900.317 250.773C900.317 250.773 894.81 261.014 886.259 261.014C877.707 261.014 861.902 249.025 861.902 249.025L864.052 242.355L899.869 247.439L900.317 250.773Z" fill="#09231E"/>
<path d="M960.875 155.961C958.88 154.694 956.583 153.983 954.222 153.9L955.418 110.354C955.488 107.851 955.032 105.362 954.08 103.047C953.127 100.733 951.699 98.6453 949.888 96.9199L925.724 73.8676C922.407 70.7053 918.003 68.9416 913.423 68.9414H838.846C836.193 68.9432 833.573 69.5372 831.178 70.6801C828.783 71.823 826.672 73.4861 824.998 75.5487L812.887 90.4735C810.156 93.8547 808.74 98.1133 808.904 102.46L811.136 158.973C809.546 155.961 805.46 151.094 796.953 155.961C785.834 162.32 792.838 202.007 812.245 187.126L813.223 212.108C813.356 215.37 814.379 218.534 816.179 221.255C817.98 223.976 820.49 226.151 823.437 227.545L876.098 252.658C878.513 253.824 881.159 254.429 883.839 254.429C886.519 254.429 889.165 253.824 891.58 252.658L942.65 227.72C945.578 226.287 948.058 224.078 949.822 221.334C951.587 218.59 952.568 215.415 952.66 212.152L953.259 190.503C966.625 191.249 970.389 161.428 960.875 155.961Z" fill="#84C7AC"/>
<path fill-rule="evenodd" clip-rule="evenodd" d="M812.536 161.285C812.536 161.285 814.942 98.6143 839.831 95.2634C839.831 95.2634 909.526 91.9272 929.443 96.9462C949.36 101.965 953.853 179.795 953.853 179.795C953.853 179.795 974.249 101.965 962.551 81.8748C950.853 61.7845 911.106 53.3855 887.884 55.0682C887.884 55.0682 874.606 36.646 834.772 46.6985C794.939 56.7509 808.477 125.128 812.536 161.285Z" fill="#0A0C35"/>
<path d="M876.419 158.154C876.956 156.45 878.032 154.965 879.486 153.92C880.939 152.876 882.692 152.327 884.484 152.357C886.276 152.386 888.01 152.992 889.428 154.084C890.846 155.176 891.872 156.696 892.353 158.417C892.394 158.546 892.428 158.678 892.455 158.811C895.806 172.171 904.161 203.895 890.787 203.895C877.414 203.895 870.683 205.558 870.683 188.857C870.683 178.399 873.975 165.972 876.419 158.154Z" fill="#EF98C0"/>
<path d="M865.195 152.277C865.195 152.277 860.052 142.072 849.751 143.766C839.45 145.459 837.756 155.649 837.756 155.649" fill="#09231E"/>
<path d="M934.341 156.747C934.341 156.747 932.88 145.582 922.931 143.809C912.982 142.036 908 150.959 908 150.959" fill="#09231E"/>
<path d="M904.156 295.648L980.643 322.351L998 495.892H728L767.798 309L842.629 290.648H875.876L904.156 295.648Z" fill="#FDCE34"/>
<path d="M905.605 279.674L875.073 289.728L885.251 311.503L912.39 296.43L905.605 279.674Z" fill="white"/>
<path d="M849.534 276.381L875.073 289.763L854.318 311.503L839.951 291.444L849.534 276.381Z" fill="white"/>
<path d="M752.325 212.509C752.325 212.509 773 199.053 773 224.052C773 249.05 759.807 250.976 752.325 245.159C744.844 239.341 752.325 212.509 752.325 212.509Z" fill="#304F9D"/>
<path d="M627.536 212.509C627.536 212.509 606 199.053 606 224.052C606 249.05 619.743 250.976 627.536 245.159C635.33 239.341 627.536 212.509 627.536 212.509Z" fill="#304F9D"/>
<path d="M673.51 318.645L656 360.893H722L709.878 313.893L675.773 318.553L673.51 318.645Z" fill="#304F9D"/>
<path d="M711 319.011C711 319.011 708.223 326.893 692.428 326.893C676.633 326.893 674 318.482 674 318.482C674 318.482 708.512 312.318 711 319.011Z" fill="#1B1464"/>
<path d="M721.109 137.973C708.634 132.87 694.745 132.542 682.047 137.052C659.842 144.582 622.814 164.716 624.029 215.21C625.746 287.213 632.655 311.899 686.195 320.123C739.735 328.348 753.566 268.695 755.284 233.728C756.763 203.755 759.577 154.128 721.109 137.973Z" fill="#304F9D"/>
<path d="M714.688 336.893C714.688 336.893 706.829 355.521 690.649 355.521C674.468 355.521 665.67 340.485 665.67 340.485L551.799 391.446L538 496.562L837 497.893L810.937 364.835L714.688 336.893Z" fill="#C7B299"/>
<path d="M672 218.82C672 218.82 667.491 209.522 658.486 211.065C649.481 212.608 648 221.893 648 221.893" fill="#09231E"/>
<path d="M736 222.893C736 222.893 734.801 211.873 726.05 210.123C717.299 208.373 713 217.18 713 217.18" fill="#09231E"/>
<path d="M693.5 256.893C702.06 256.893 709 252.639 709 247.393C709 242.146 702.06 237.893 693.5 237.893C684.94 237.893 678 242.146 678 247.393C678 252.639 684.94 256.893 693.5 256.893Z" fill="#EF98C0"/>
<path d="M1085.55 307.251L1080.23 355.663H1130.75L1113.47 304.262L1085.55 307.251Z" fill="#FDCE34"/>
<path d="M1125.9 335.279C1125.9 335.279 1119.11 353.839 1105.11 353.839C1091.11 353.839 1083.49 338.859 1083.49 338.859L984.944 389.632L973 494.36L1231.78 495.685L1209.22 363.118L1125.9 335.279Z" fill="#29ABE2"/>
<path d="M1121 318.162C1121 318.162 1118.14 326.417 1101.87 326.417C1085.6 326.417 1082.89 317.608 1082.89 317.608C1082.89 317.608 1118.43 311.153 1121 318.162Z" fill="#63151B"/>
<path d="M1001.23 226.523C1003.27 215.857 998.58 206.203 990.624 196.963C976.649 180.83 976.569 174.456 990.439 158.736C999.322 148.669 1002.25 137.936 1001.28 124.696C999.773 103.829 1002.86 99.5225 1023.12 94.8691C1036.16 91.8824 1044.93 85.4024 1051.67 73.8423C1061.81 56.5089 1067.29 54.6555 1085.48 62.2023C1098.05 67.429 1109.44 68.1356 1122.34 62.5889C1141.47 54.3755 1147.12 56.1889 1157.39 74.0023C1164.76 86.8024 1175.3 92.5624 1188.77 95.9491C1206.14 100.309 1210.2 105.776 1207.93 123.483C1206.15 137.416 1209.73 148.296 1218.85 158.776C1232.5 174.443 1232.46 180.51 1219.21 195.896C1210.26 206.297 1206.1 217.03 1208.05 231.137C1210.49 248.91 1205.52 255.91 1187.97 259.577C1173.3 262.644 1163.09 269.95 1156.34 283.284C1149.59 296.617 1138.9 300.617 1125.52 293.87C1111.26 286.737 1097.68 286.617 1083.35 293.87C1070.79 300.31 1059.97 297.43 1053.54 284.35C1046.43 269.91 1035.36 262.43 1019.68 259.204C1002.82 255.763 1000.57 250.523 1001.23 226.523Z" fill="#F15A24"/>
<path d="M1191.58 216.706C1191.58 216.706 1201.54 321.987 1109.39 321.987C1017.23 321.987 1017.24 256.835 1019.74 201.668C1022.24 146.501 1034.34 103.501 1105.49 91.1748C1176.64 78.8491 1191.58 151.527 1191.58 216.706Z" fill="#FDCE34"/>
<path d="M1082.01 206.838C1082.01 206.838 1077.01 196.369 1067.05 198.112C1057.08 199.854 1055.42 210.323 1055.42 210.323" fill="#09231E"/>
<path d="M1156.45 211.209C1156.45 211.209 1154.95 199.194 1144.18 197.281C1133.4 195.368 1128.09 204.974 1128.09 204.974" fill="#09231E"/>
<path d="M1103.24 204.992C1101.2 206.238 1099.46 207.924 1098.14 209.927C1096.83 211.93 1095.97 214.202 1095.63 216.579C1093.78 227.675 1088.53 237.91 1080.61 245.845C1064.59 262.074 1102.42 271.798 1108.91 262.593C1114.83 254.212 1125.12 192.076 1103.24 204.992Z" fill="#F7931E"/>
<path d="M1062.06 233.365C1078.46 233.365 1091.75 219.874 1091.75 203.233C1091.75 186.592 1078.46 173.102 1062.06 173.102C1045.67 173.102 1032.38 186.592 1032.38 203.233C1032.38 219.874 1045.67 233.365 1062.06 233.365Z" stroke="white" stroke-width="2.07413" stroke-miterlimit="10"/>
<path d="M1151.13 233.365C1167.77 233.365 1181.26 219.874 1181.26 203.233C1181.26 186.592 1167.77 173.102 1151.13 173.102C1134.49 173.102 1121 186.592 1121 203.233C1121 219.874 1134.49 233.365 1151.13 233.365Z" stroke="white" stroke-width="2.07413" stroke-miterlimit="10"/>
<path d="M1121 198.059C1121 198.059 1114.45 189.708 1105.07 189.944C1095.68 190.181 1091.75 199.688 1091.75 199.688" stroke="white" stroke-width="2.07413" stroke-miterlimit="10"/>
<path d="M318 270H334" stroke="black" stroke-width="2" stroke-linecap="round"/>
<path d="M502 257H518" stroke="black" stroke-width="2" stroke-linecap="round"/>
<path d="M682 280H698" stroke="black" stroke-width="2" stroke-linecap="round"/>
<path d="M876 222H892" stroke="black" stroke-width="2" stroke-linecap="round"/>
<path d="M1092 286H1108" stroke="black" stroke-width="2" stroke-linecap="round"/>
<path d="M1366 271H1382" stroke="black" stroke-width="2" stroke-linecap="round"/>
<path d="M148 222H164" stroke="white" stroke-width="2" stroke-linecap="round"/>
</svg>
