<svg width="1440" height="456" viewBox="0 0 1440 456" fill="none" xmlns="http://www.w3.org/2000/svg">
<mask id="mask0_174_15325" style="mask-type:alpha" maskUnits="userSpaceOnUse" x="0" y="0" width="1440" height="456">
<rect width="1440" height="456" fill="#D9D9D9"/>
</mask>
<g mask="url(#mask0_174_15325)">
<rect x="1440" y="-3" width="460" height="1440" transform="rotate(90 1440 -3)" fill="#FCF9F5"/>
<path d="M1304.76 158.395C1309.96 203.117 1321.89 246.816 1312.88 293.115C1299.97 359.475 1266.47 401.589 1210.17 413.782C1152.12 426.376 1082.8 399.396 1049.14 351.141C1017.82 306.242 1020.71 245.86 1055.69 191.583C1087.61 142.016 1132.88 106.273 1177.64 66.1819C1154.54 72.0564 1131.62 78.9013 1108.29 83.5312C1083.26 88.5019 1057.82 94.2578 1032.51 94.643C955.832 95.9098 902.486 61.9816 885.592 4.24457C866.293 -61.6189 898.678 -147.787 956.144 -183.834C1006.73 -215.577 1054.49 -201.413 1100.95 -174.33C1137.78 -152.847 1163.16 -119.297 1190.02 -87.4355C1196.75 -78.2052 1212.29 -76.9385 1212.57 -64.145C1210.11 -71.8048 1209.32 -81.5462 1210.73 -91.4505C1201 -150.832 1186.24 -209.628 1208.65 -269.981C1237.88 -348.667 1317.02 -382.173 1396.44 -347.171C1478.66 -310.924 1508.14 -230.208 1468.95 -154.329C1442.88 -103.851 1397.93 -71.1233 1360.14 -31.5948C1361.51 -27.4982 1351.06 -23.6906 1358.17 -21.1645C1363.65 -19.2236 1371.15 -22.535 1377.81 -23.1572C1417.61 -29.7354 1456.82 -40.0768 1497.86 -37.8322C1564.21 -34.2024 1609.64 -2.34845 1626.65 54.0256C1645.91 117.904 1620.05 195.257 1566.32 234.585C1521.24 267.602 1466.16 265.247 1411.09 230.385C1376.41 208.458 1353.1 175.078 1322.96 148.654C1319.65 136.705 1302.36 136.401 1301.62 123.963C1309.2 133.838 1301.57 146.669 1304.76 158.395Z" fill="#29ABE2"/>
<path d="M1219.72 -318.338V244.565C1219.72 245.922 1220.02 247.262 1220.59 248.494C1221.16 249.725 1221.99 250.819 1223.03 251.699L1245.56 270.811C1248.66 273.437 1251.14 276.703 1252.85 280.383C1254.55 284.063 1255.44 288.069 1255.43 292.123V450.267L1248.29 288.101L1126.87 457.401H1039.38L1105.44 427.103L1120.62 -326.354L1219.72 -318.338Z" fill="#FF92E8"/>
<path d="M1213.47 297.901L1219.72 248.891L1248.31 273.137C1250.54 275.033 1252.34 277.391 1253.57 280.048C1254.8 282.705 1255.43 285.596 1255.43 288.523L1255.37 457.423H1250.18L1239.79 318.154L1126.87 457.423H1039.38L1105.44 427.124L1213.47 297.901Z" fill="black"/>
<path d="M190.638 -803.068V176.204C190.638 179.601 191.546 383.122 188.979 385.327L304.22 438.661H411.248L330.419 401.317L311.861 -813L190.638 -803.068Z" fill="#662D91"/>
<path d="M172 456.617V352.572H343.331L366.49 392.955C366.49 392.955 463.744 389.836 466.824 456.518L172 456.617Z" fill="black"/>
<path d="M687.002 261.299C687.002 261.299 694.452 265.065 699.848 265.065C733.316 265.065 756.456 207.983 756.456 183.649C756.456 160.257 736.475 153.08 736.475 153.08C733.907 149.781 730.592 147.117 726.794 145.298C722.995 143.48 718.818 142.558 714.594 142.605C685.101 142.605 657.697 195.638 657.697 224.488C657.697 249.29 680.529 261.299 687.036 261.299M723.985 165.688C729.373 165.688 733.657 172.272 733.657 177.072C733.657 198.752 706.695 248.355 693.535 248.355C689.412 248.355 685.135 243.832 685.135 237.281C685.135 213.724 708.282 165.688 723.958 165.688" fill="#FF92E8"/>
<path d="M722.887 295.016C721.96 292.337 720.075 290.095 717.595 288.725C715.116 287.355 712.217 286.953 709.458 287.596C706.252 288.359 702.999 288.906 699.719 289.231C676.684 291.495 657.967 281.05 648.261 268.884C641.735 260.702 638.271 249.165 638.344 239.984C638.628 210.198 650.906 180.636 650.906 172.018C650.906 157.747 642.919 153.359 637.596 150.837C632.274 148.315 630.542 144.721 623.051 144.721C615.56 144.721 610.68 160.871 600.657 182.668C590.634 204.466 580.763 221.722 580.763 221.722C580.763 221.722 585.153 172.799 585.153 160.567C585.113 150.36 573.067 143.476 564.432 143.476C564.432 143.476 561.126 141.285 553.939 141.285C546.753 141.285 524.498 221.258 506.798 245.716C504.762 248.543 501 250.893 501 253.401C501 259.206 513.37 266.104 520.108 266.104C526.845 266.104 536.703 240.229 544.696 218.75C552.372 198.23 555.196 186.6 555.506 185.654C555.348 187.222 553.001 231.915 553.001 244.618C553.001 257.631 565.219 259.352 565.219 259.352C565.219 259.352 571.949 262 577.278 262C582.607 262 595.13 238.634 604.221 216.056C609.199 203.616 614.814 191.44 621.041 179.577C619.09 185.654 614.965 207.563 613.947 228.301C613.5 234.072 613.513 239.869 613.986 245.637C615.566 266.077 622.978 278.223 630.403 286.014C647.904 304.316 667.745 311.167 692.361 312.445C695.63 312.531 698.901 312.371 702.146 311.968C706.288 311.564 710.405 310.93 714.477 310.068C716.069 309.723 717.571 309.043 718.881 308.072C720.191 307.102 721.28 305.863 722.075 304.439C722.871 303.015 723.355 301.437 723.494 299.812C723.634 298.186 723.427 296.549 722.887 295.01V295.016Z" fill="#FF92E8"/>
<path d="M784.055 143.346C784.055 141.444 785.642 141.285 788.187 141.285C796.931 141.285 810.445 148.714 810.445 158.039C810.445 167.364 792.798 200.383 788.187 221.871C783.576 243.36 782.307 254.422 782.307 257.268C782.307 260.114 780.081 263.746 774.534 263.746C768.986 263.746 755.14 258.688 755.14 249.997C755.12 225.979 785.164 155.193 785.164 148.239C785.164 145.551 784.055 145.241 784.055 143.346" fill="#FF92E8"/>
<path d="M824.152 150.077C825.557 150.077 826.484 151.318 829.599 151.318C832.713 151.318 848.564 142.604 865.667 142.604C893.186 142.604 909.203 159.097 909.203 176.372C909.203 204.69 874.221 218.543 861.625 220.878C861.625 222.588 874.526 247.636 887.587 247.636C890.079 247.636 892.226 247.013 893.498 247.013C895.989 247.013 897.388 248.731 897.388 250.442C897.388 253.704 889.767 264.441 874.062 264.441C847.318 264.441 837.683 225.546 837.683 225.546C837.683 225.546 827.578 253.399 827.578 259.62C827.578 263.354 824.622 265.065 821.667 265.065C818.712 265.065 802.543 257.77 802.543 250.475C802.543 243.18 811.23 217.316 811.23 214.962C811.23 212.608 807.188 209.829 807.188 206.407C807.188 204.537 809.521 204.073 811.542 204.073C812.585 204.074 813.626 204.177 814.65 204.378C814.65 204.378 829.268 170.152 829.268 166.577C829.268 163.003 822.422 155.529 822.422 152.107C822.422 150.86 823.045 150.117 824.132 150.117M847.146 200.372C847.146 201.778 847.769 202.09 849.942 202.09C857.231 202.09 886.951 183.879 886.951 168.321C886.951 163.964 884.618 161.942 879.662 161.942C872.976 161.942 867.847 165.052 863.493 166.451C860.067 167.545 858.192 169.409 857.119 172.214C857.119 172.214 847.179 198.973 847.179 200.372" fill="#FF92E8"/>
<path d="M955.147 141.295C957.316 141.295 961.813 145.481 971.436 150.607C980.748 155.727 993.009 160.072 993.009 169.696C993.009 179.471 987.573 209.579 987.421 215.009C990.833 217.807 996.111 219.044 996.111 224.322C996.111 231.928 983.545 229.752 982.295 235.493C981.156 241.286 980.381 247.144 979.974 253.034C979.974 257.842 980.589 258.464 980.589 261.103C980.589 264.053 977.944 265.6 973.916 265.6C967.712 265.6 954.075 256.136 954.075 248.999C954.075 242.636 956.251 232.702 956.251 232.702C956.251 232.702 939.645 234.56 930.954 235.493C930.333 235.804 926.609 243.258 924.44 249.151C922.904 253.596 922.118 258.265 922.112 262.968C922.112 265.911 918.382 269.013 914.97 269.013C908.145 269.013 896.035 258.616 896.035 249.925C896.035 244.184 901.934 233.476 901.934 231.928C901.934 229.441 896.505 222.926 896.505 211.285C896.505 210.042 896.816 208.805 898.363 208.805C899.911 208.805 905.347 213.15 912.953 213.15C913.111 213.15 924.44 193.903 934.367 178.228C944.115 162.559 953.282 147.346 953.434 145.018C953.434 143.934 953.123 143.934 953.123 143.153C953.119 142.894 953.17 142.636 953.272 142.398C953.375 142.159 953.527 141.945 953.718 141.77C953.909 141.594 954.135 141.461 954.381 141.379C954.628 141.297 954.889 141.268 955.147 141.295M940.709 212.066C940.709 213.931 944.433 213.931 948.646 213.931C955.782 213.931 960.127 213.62 960.596 211.444C962.766 203.996 966.178 184.597 966.178 178.856C966.178 177.771 965.867 177.302 965.556 177.302C962.455 177.302 940.729 209.711 940.729 212.066" fill="#FF92E8"/>
<path d="M814.123 135.7C814.123 135.7 818.314 128.863 819.514 123.559C821.364 115.363 805.502 109.995 799.416 111.158C796.837 111.659 796.192 113.251 795.547 115.409C793.871 121.167 794.174 122.558 793.522 125.47C791.137 136.181 811.351 142.804 814.123 135.7Z" fill="#FF92E8"/>
</g>
</svg>
