<svg width="2033" height="558" viewBox="0 0 2033 558" fill="none" xmlns="http://www.w3.org/2000/svg">
<g clip-path="url(#clip0_290_17123)">
<rect width="2033" height="558" fill="#74CBF0"/>
<g clip-path="url(#clip1_290_17123)">
<path d="M1723 152.128L1366.92 164.423L1356 51H1723V152.128Z" fill="#C49474"/>
<path d="M1451.79 129.549L1451.52 87.3308L1443.47 87.4256C1443.01 87.4743 1442.54 87.4027 1442.12 87.218C1441.69 87.0333 1441.32 86.7416 1441.04 86.3713C1440.58 85.6704 1440.38 84.836 1440.45 84.0022C1440.49 83.1568 1440.76 82.3387 1441.23 81.633C1441.41 81.3273 1441.67 81.073 1441.97 80.8946C1442.28 80.7163 1442.63 80.6197 1442.98 80.6143H1468.03C1468.49 80.6522 1468.94 80.8066 1469.33 81.0632C1469.72 81.3198 1470.04 81.6705 1470.26 82.0831C1470.65 82.808 1470.78 83.6438 1470.63 84.4523C1470.46 85.2565 1470.05 85.9887 1469.45 86.549C1469.17 86.8434 1468.82 87.0589 1468.44 87.1734C1468.05 87.2879 1467.64 87.2973 1467.25 87.2005L1458.65 87.2834L1458.75 129.502L1467.25 129.597C1467.64 129.501 1468.05 129.51 1468.43 129.622C1468.82 129.734 1469.17 129.946 1469.45 130.236C1470.05 130.803 1470.46 131.538 1470.63 132.345C1470.78 133.153 1470.65 133.989 1470.26 134.714C1470.05 135.144 1469.74 135.515 1469.35 135.79C1468.96 136.066 1468.5 136.238 1468.03 136.289H1442.98C1442.6 136.29 1442.23 136.188 1441.91 135.994C1441.59 135.8 1441.32 135.521 1441.15 135.188C1440.68 134.482 1440.41 133.664 1440.37 132.819C1440.29 131.985 1440.5 131.15 1440.96 130.45C1441.24 130.077 1441.61 129.784 1442.03 129.6C1442.46 129.415 1442.92 129.344 1443.38 129.395L1451.44 129.478L1451.79 129.549Z" fill="#0A0C35"/>
<path d="M1507.16 119.706C1507.29 119.244 1507.54 118.826 1507.88 118.496C1508.23 118.167 1508.66 117.938 1509.12 117.834C1509.98 117.677 1510.85 117.837 1511.6 118.284C1512.38 118.799 1512.97 119.556 1513.29 120.44C1513.48 120.936 1513.56 121.469 1513.52 122C1513.48 122.531 1513.33 123.046 1513.06 123.508C1511.49 127.331 1509.03 130.722 1505.88 133.399C1503.1 135.817 1499.55 137.15 1495.87 137.154C1493.13 137.153 1490.44 136.395 1488.1 134.963C1485.58 133.42 1483.4 131.376 1481.7 128.957C1479.78 126.24 1478.32 123.221 1477.4 120.025C1476.34 116.43 1475.82 112.698 1475.85 108.95C1475.83 105.187 1476.35 101.441 1477.4 97.8263C1478.33 94.5328 1479.78 91.4096 1481.7 88.5748C1483.37 86.0603 1485.55 83.9222 1488.1 82.2965C1490.42 80.8053 1493.11 80.0118 1495.87 80.0103C1499.55 79.9322 1503.16 81.0226 1506.19 83.1257C1509.18 85.2027 1511.53 88.559 1513.23 93.1946C1513.46 93.5234 1513.59 93.9167 1513.59 94.32C1513.59 94.7233 1513.46 95.1166 1513.23 95.4453C1512.78 96.2182 1512.09 96.8309 1511.28 97.1985C1510.44 97.5979 1509.5 97.7262 1508.58 97.5657C1508.08 97.4683 1507.61 97.2455 1507.22 96.9182C1506.83 96.5909 1506.53 96.1698 1506.35 95.6941C1505.12 92.5826 1503.62 90.4464 1501.86 89.2855C1500.04 88.1088 1497.91 87.5026 1495.74 87.5442C1493.87 87.5577 1492.07 88.2004 1490.62 89.3684C1488.92 90.7162 1487.51 92.3821 1486.45 94.2726C1485.2 96.4988 1484.26 98.8914 1483.66 101.38C1482.99 104.06 1482.65 106.814 1482.66 109.577C1482.64 112.255 1483 114.922 1483.71 117.502C1484.32 119.795 1485.3 121.974 1486.6 123.958C1487.7 125.644 1489.13 127.084 1490.82 128.187C1492.6 129.391 1494.75 129.931 1496.89 129.715C1499.02 129.498 1501.02 128.539 1502.53 127.003C1504.62 124.967 1506.21 122.468 1507.16 119.706V119.706Z" fill="#0A0C35"/>
<path d="M1531.03 137.794C1530.41 137.788 1529.8 137.728 1529.19 137.616C1528.56 137.507 1527.95 137.308 1527.37 137.024C1526.87 136.775 1526.4 136.447 1526 136.053C1525.82 135.875 1525.67 135.661 1525.58 135.424C1525.48 135.188 1525.44 134.934 1525.44 134.679L1524.81 84.6776C1524.76 84.0186 1524.85 83.3568 1525.07 82.7346C1525.29 82.1123 1525.64 81.5435 1526.1 81.0646C1526.95 80.2354 1528.52 79.8208 1530.83 79.8208L1555.41 80.0103C1555.87 79.9581 1556.34 80.028 1556.76 80.213C1557.19 80.398 1557.56 80.6917 1557.84 81.0646C1558.31 81.7596 1558.52 82.5989 1558.43 83.4338C1558.38 84.2768 1558.12 85.0931 1557.66 85.8029C1557.48 86.1204 1557.22 86.385 1556.91 86.5701C1556.59 86.7552 1556.24 86.8543 1555.87 86.8572L1532.01 87.1297V104.306L1547.83 104.389C1548.29 104.34 1548.76 104.412 1549.18 104.597C1549.61 104.781 1549.98 105.073 1550.26 105.443C1550.71 106.145 1550.92 106.979 1550.85 107.812C1550.8 108.657 1550.53 109.474 1550.07 110.182C1549.89 110.498 1549.63 110.761 1549.31 110.944C1549 111.127 1548.64 111.223 1548.28 111.224L1532.13 111.414L1532.21 130.568L1555.61 130.746C1556.06 130.708 1556.52 130.784 1556.93 130.969C1557.34 131.153 1557.7 131.439 1557.98 131.8C1558.44 132.501 1558.64 133.336 1558.57 134.169C1558.53 135.015 1558.26 135.833 1557.79 136.538C1557.61 136.857 1557.35 137.122 1557.04 137.307C1556.72 137.492 1556.37 137.591 1556 137.593L1531.03 137.794Z" fill="#0A0C35"/>
<path d="M1600.06 91.9154C1600.24 92.291 1600.32 92.7078 1600.28 93.1238C1600.25 93.5399 1600.11 93.9402 1599.88 94.2845C1599.4 94.9507 1598.73 95.4483 1597.95 95.706C1597.19 95.9741 1596.38 96.0354 1595.59 95.8837C1595.21 95.8231 1594.87 95.644 1594.61 95.373C1594.35 95.102 1594.18 94.7535 1594.13 94.3793C1593.81 92.84 1593.14 91.3962 1592.17 90.1622C1591.38 89.214 1590.44 88.4119 1589.38 87.793C1588.5 87.2834 1587.54 86.9269 1586.54 86.7388L1584.53 86.4189C1583.11 86.2859 1581.68 86.4267 1580.32 86.8335C1579.13 87.181 1578.02 87.7387 1577.03 88.4801C1576.16 89.1254 1575.41 89.929 1574.83 90.8493C1574.31 91.6787 1574 92.6214 1573.92 93.5975C1573.69 95.238 1573.94 96.9107 1574.65 98.4069C1575.36 99.6922 1576.38 100.776 1577.62 101.558C1579.11 102.501 1580.69 103.272 1582.35 103.856C1584.15 104.519 1586.02 105.25 1587.97 106.047C1589.86 106.841 1591.73 107.718 1593.6 108.665C1595.38 109.56 1597.02 110.731 1598.44 112.136C1599.83 113.549 1600.89 115.257 1601.55 117.135C1602.28 119.409 1602.48 121.819 1602.14 124.183C1601.92 126.827 1601.02 129.368 1599.51 131.551C1598.17 133.482 1596.4 135.079 1594.34 136.219C1592.27 137.353 1590.01 138.099 1587.67 138.422C1585.31 138.755 1582.91 138.675 1580.58 138.185C1577.54 137.611 1574.67 136.342 1572.21 134.477C1569.75 132.645 1568.01 130.002 1567.31 127.014C1567.26 126.521 1567.32 126.024 1567.47 125.552C1567.62 125.08 1567.86 124.643 1568.18 124.266C1568.76 123.582 1569.5 123.062 1570.34 122.762C1571.07 122.478 1571.88 122.478 1572.62 122.762C1572.97 122.886 1573.29 123.111 1573.51 123.41C1573.74 123.709 1573.88 124.068 1573.91 124.444C1574.02 125.462 1574.35 126.443 1574.89 127.315C1575.43 128.186 1576.16 128.925 1577.02 129.478C1578.8 130.646 1580.82 131.396 1582.93 131.67C1584.29 131.877 1585.68 131.877 1587.04 131.67C1588.33 131.476 1589.58 131.025 1590.7 130.343C1591.8 129.671 1592.75 128.784 1593.49 127.737C1594.3 126.546 1594.81 125.183 1594.99 123.757C1595.26 122.269 1595.13 120.738 1594.63 119.315C1594.14 118.062 1593.36 116.944 1592.35 116.057C1591.22 115.09 1589.95 114.292 1588.6 113.688C1587.13 113.025 1585.58 112.349 1583.94 111.674C1581.86 110.88 1579.77 110.028 1577.67 109.115C1575.65 108.243 1573.76 107.104 1572.04 105.728C1570.39 104.372 1569.07 102.664 1568.16 100.729C1567.17 98.4088 1566.83 95.8581 1567.2 93.3606C1567.38 91.1698 1568.07 89.0514 1569.21 87.1771C1570.27 85.4753 1571.68 84.0115 1573.33 82.877C1574.98 81.7382 1576.82 80.9001 1578.77 80.4013C1580.69 79.8811 1582.69 79.681 1584.68 79.809C1586.02 79.896 1587.34 80.1264 1588.62 80.496C1590.17 80.9254 1591.65 81.5885 1593.01 82.4624C1594.55 83.4505 1595.93 84.6872 1597.08 86.1228C1598.43 87.8436 1599.44 89.8104 1600.06 91.9154V91.9154Z" fill="#0A0C35"/>
<path d="M1620.73 129.55L1620.44 87.3312L1612.4 87.426C1611.94 87.4746 1611.48 87.4031 1611.05 87.2184C1610.63 87.0336 1610.26 86.742 1609.98 86.3717C1609.52 85.6708 1609.31 84.8363 1609.39 84.0025C1609.43 83.1572 1609.7 82.3391 1610.17 81.6334C1610.34 81.3168 1610.6 81.0526 1610.91 80.8675C1611.22 80.6824 1611.58 80.5829 1611.94 80.5791H1637C1637.47 80.6171 1637.91 80.7714 1638.3 81.0281C1638.7 81.2847 1639.02 81.6354 1639.24 82.048C1639.62 82.7729 1639.75 83.6086 1639.6 84.4171C1639.43 85.2213 1639.02 85.9535 1638.42 86.5138C1638.14 86.8083 1637.79 87.0238 1637.41 87.1383C1637.02 87.2528 1636.61 87.2621 1636.22 87.1654L1627.62 87.2483L1627.72 129.467L1636.22 129.561C1636.61 129.466 1637.02 129.474 1637.41 129.587C1637.79 129.699 1638.14 129.911 1638.42 130.201C1639.02 130.768 1639.43 131.503 1639.6 132.31C1639.75 133.118 1639.62 133.954 1639.24 134.679C1639.03 135.116 1638.72 135.493 1638.33 135.775C1637.94 136.057 1637.48 136.234 1637 136.29H1611.94C1611.58 136.286 1611.22 136.187 1610.91 136.001C1610.6 135.816 1610.34 135.552 1610.17 135.236C1609.7 134.53 1609.43 133.712 1609.39 132.866C1609.31 132.033 1609.52 131.198 1609.98 130.497C1610.26 130.125 1610.62 129.832 1611.05 129.647C1611.48 129.462 1611.94 129.392 1612.4 129.443L1620.44 129.526L1620.73 129.55Z" fill="#0A0C35"/>
<path d="M1678.12 558L1688.61 153.312L1410.65 162.919L1386.57 558H1678.12Z" fill="#B27A54"/>
<path d="M1547.69 351.646C1588.75 351.646 1622.04 318.303 1622.04 277.172C1622.04 236.041 1588.75 202.697 1547.69 202.697C1506.63 202.697 1473.34 236.041 1473.34 277.172C1473.34 318.303 1506.63 351.646 1547.69 351.646Z" stroke="#040423" stroke-width="4.61" stroke-miterlimit="10"/>
<path fill-rule="evenodd" clip-rule="evenodd" d="M1554.21 235.64C1551.81 235.386 1549.39 235.275 1546.98 235.309C1544.57 235.22 1542.16 235.331 1539.77 235.64V235.64L1539.52 232.087L1542.79 231.743L1541.61 213.974H1536.77V209.106C1536.77 209.106 1537.59 208.348 1546.94 208.348C1556.3 208.348 1557.13 209.106 1557.13 209.106V213.974H1552.31L1551.13 231.743L1554.42 232.087L1554.17 235.64H1554.21Z" fill="#0A0C35"/>
<path fill-rule="evenodd" clip-rule="evenodd" d="M1537.79 236.15C1537.79 236.15 1535.43 236.825 1531.06 238.519C1528.8 239.417 1526.6 240.486 1524.5 241.718L1522.94 238.519L1525.81 237.015L1518.09 220.976L1513.58 222.906L1511.77 218.381C1511.77 218.381 1512.34 217.363 1520.96 213.643C1529.58 209.923 1530.65 210.374 1530.65 210.374L1532.46 214.91L1527.94 216.841L1533.6 233.793L1536.73 232.703L1537.79 236.15V236.15Z" fill="#0A0C35"/>
<path fill-rule="evenodd" clip-rule="evenodd" d="M1522.85 243.032C1520.98 244.546 1519.2 246.172 1517.52 247.901C1515.77 249.627 1514.15 251.48 1512.67 253.444V253.444L1510.05 251.075L1512.19 248.481L1499.1 236.73L1495.64 240.284L1492.28 236.848C1492.28 236.848 1492.37 235.664 1499.01 228.947C1505.66 222.231 1506.74 222.065 1506.74 222.065L1510.09 225.512L1506.65 229.066L1518.14 242.499L1520.69 240.319L1522.9 243.091L1522.85 243.032Z" fill="#0A0C35"/>
<path fill-rule="evenodd" clip-rule="evenodd" d="M1511.69 255.115C1510.5 257.252 1509.46 259.469 1508.57 261.749C1507.57 264.007 1506.75 266.34 1506.11 268.726V268.726L1502.82 267.624L1503.81 264.355L1487.27 258.645L1485.38 263.265L1480.94 261.417C1480.94 261.417 1480.61 260.327 1484.23 251.419C1487.85 242.511 1488.75 242.108 1488.75 242.108L1493.17 243.956L1491.37 248.576L1506.96 256.465L1508.56 253.445L1511.68 255.115H1511.69Z" fill="#0A0C35"/>
<path fill-rule="evenodd" clip-rule="evenodd" d="M1505.78 270.656C1505.52 273.108 1505.38 275.571 1505.38 278.036C1505.34 280.507 1505.47 282.977 1505.78 285.428L1502.34 285.677L1502.01 282.324L1484.61 283.509V288.461H1479.88C1479.88 288.461 1479.13 287.62 1479.13 278.048C1479.13 268.477 1479.88 267.553 1479.88 267.553H1484.61V272.599L1502.01 273.784L1502.34 270.419L1505.78 270.68V270.656Z" fill="#0A0C35"/>
<path fill-rule="evenodd" clip-rule="evenodd" d="M1506.19 287.359C1506.81 289.68 1507.6 291.953 1508.56 294.159C1509.39 296.488 1510.44 298.736 1511.68 300.875V300.875L1508.56 302.463L1507 299.525L1491.41 307.414L1493.21 311.951L1488.78 313.882C1488.78 313.882 1487.87 313.29 1484.27 304.477C1480.66 295.663 1480.98 294.573 1480.98 294.573L1485.41 292.726L1487.27 297.393L1503.83 291.636L1502.83 288.449L1506.2 287.359H1506.19Z" fill="#0A0C35"/>
<path fill-rule="evenodd" clip-rule="evenodd" d="M1512.76 302.545C1514.24 304.474 1515.81 306.325 1517.49 308.089C1519.15 309.866 1520.96 311.495 1522.9 312.958V312.958L1520.61 315.73L1518.05 313.55L1506.61 327.007L1510.05 330.561L1506.69 334.008C1506.69 334.008 1505.51 333.925 1498.97 327.125C1492.43 320.326 1492.24 319.236 1492.24 319.236L1495.6 315.789L1499.05 319.343L1512.19 307.592L1510.05 304.986L1512.76 302.616V302.545Z" fill="#0A0C35"/>
<path fill-rule="evenodd" clip-rule="evenodd" d="M1524.58 314.226C1526.64 315.401 1528.78 316.438 1530.98 317.329C1533.21 318.349 1535.51 319.189 1537.87 319.84V319.84L1536.69 323.205L1533.57 322.198L1527.99 339.066L1532.5 340.997L1530.61 345.534C1530.61 345.534 1529.55 345.866 1520.93 342.17C1512.31 338.474 1511.82 337.55 1511.82 337.55L1513.62 333.025L1518.14 334.956L1525.85 318.917L1522.9 317.329L1524.55 314.226H1524.58Z" fill="#0A0C35"/>
<path fill-rule="evenodd" clip-rule="evenodd" d="M1539.84 320.267C1542.19 320.531 1544.56 320.669 1546.93 320.681C1549.35 320.778 1551.77 320.639 1554.16 320.267L1554.49 323.88L1551.12 324.128L1552.3 341.897H1557.22V346.849C1557.22 346.849 1556.32 347.524 1546.96 347.524C1537.59 347.524 1536.79 346.849 1536.79 346.849V341.897H1541.67L1542.85 324.128L1539.58 323.88L1539.9 320.267H1539.84Z" fill="#0A0C35"/>
<path fill-rule="evenodd" clip-rule="evenodd" d="M1556.26 319.899C1558.58 319.263 1560.86 318.471 1563.08 317.53C1565.32 316.648 1567.49 315.582 1569.56 314.344V314.344L1571.24 317.53L1568.28 319.047L1575.97 335.038L1580.47 333.107L1582.28 337.644C1582.28 337.644 1581.78 338.651 1573.09 342.383C1564.4 346.114 1563.41 345.664 1563.41 345.664L1561.6 341.127L1566.11 339.279L1560.59 322.269L1557.39 323.358L1556.32 319.923L1556.26 319.899Z" fill="#0A0C35"/>
<path fill-rule="evenodd" clip-rule="evenodd" d="M1571.37 313.124C1573.24 311.613 1575.02 309.991 1576.7 308.267C1578.45 306.536 1580.07 304.679 1581.55 302.711V302.711L1584.17 305.081L1582.03 307.687L1595.17 319.438L1598.61 315.884L1601.98 319.331C1601.98 319.331 1601.9 320.516 1595.25 327.22C1588.61 333.925 1587.53 334.103 1587.53 334.103L1584.17 330.667L1587.61 327.114L1576.13 313.681L1573.6 315.896L1571.39 313.124H1571.37Z" fill="#0A0C35"/>
<path fill-rule="evenodd" clip-rule="evenodd" d="M1582.69 300.946C1583.85 298.789 1584.89 296.575 1585.82 294.313C1586.83 292.1 1587.62 289.795 1588.18 287.43V287.43L1591.55 288.52L1590.57 291.707L1607.13 297.416L1609.02 292.796L1613.37 294.644C1613.37 294.644 1613.69 295.734 1610.17 304.547C1606.64 313.361 1605.53 313.977 1605.53 313.977L1601.11 312.141L1602.99 307.521L1587.39 299.62L1585.84 302.652L1582.69 300.946Z" fill="#0A0C35"/>
<path fill-rule="evenodd" clip-rule="evenodd" d="M1588.61 285.345C1588.61 285.345 1588.93 282.822 1589.01 277.953C1589.05 275.483 1588.92 273.013 1588.61 270.562V270.562L1592.05 270.313L1592.38 273.677L1609.78 272.493V267.541H1614.51C1614.51 267.541 1615.25 268.382 1615.25 277.953C1615.25 287.525 1614.51 288.366 1614.51 288.366H1609.78V283.403L1592.38 282.218L1592.05 285.547L1588.61 285.298V285.345Z" fill="#0A0C35"/>
<path fill-rule="evenodd" clip-rule="evenodd" d="M1588.18 268.465C1588.18 268.465 1587.53 266.037 1585.82 261.583C1584.94 259.272 1583.89 257.028 1582.69 254.866V254.866L1585.82 253.267L1587.28 256.288L1602.96 248.398L1601.08 243.79L1605.51 241.859C1605.51 241.859 1606.5 242.44 1610.03 251.253C1613.55 260.066 1613.31 261.168 1613.31 261.168L1608.88 263.04L1606.99 258.432L1590.49 264.224L1591.47 267.411L1588.18 268.501V268.465Z" fill="#0A0C35"/>
<path fill-rule="evenodd" clip-rule="evenodd" d="M1581.38 253.184C1579.9 251.258 1578.32 249.412 1576.65 247.652C1574.97 245.893 1573.16 244.266 1571.24 242.783L1573.45 240.012L1575.99 242.191L1587.48 228.758L1584.04 225.204L1587.4 221.769C1587.4 221.769 1588.58 221.852 1595.12 228.651C1601.66 235.451 1601.85 236.541 1601.85 236.541L1598.48 239.988L1595.04 236.434L1581.9 248.185L1584.04 250.791L1581.33 253.16L1581.38 253.184Z" fill="#0A0C35"/>
<path fill-rule="evenodd" clip-rule="evenodd" d="M1569.49 241.599C1567.38 240.428 1565.21 239.365 1562.99 238.412C1560.81 237.383 1558.52 236.569 1556.18 235.984L1557.25 232.62L1560.45 233.627L1566.03 216.758L1561.51 214.827L1563.32 210.29C1563.32 210.29 1564.39 209.959 1573.01 213.655C1581.63 217.35 1582.2 218.263 1582.2 218.263L1580.39 222.764L1575.88 220.833L1568.16 236.872L1571.03 238.377L1569.49 241.563V241.599Z" fill="#0A0C35"/>
<path fill-rule="evenodd" clip-rule="evenodd" d="M1528.52 260.067C1527.56 261.19 1526.68 262.377 1525.88 263.62C1525.03 264.838 1524.29 266.13 1523.67 267.482V267.482L1521.79 266.392L1522.77 264.627L1513.5 259.178L1511.86 261.689L1509.4 260.007C1509.4 260.007 1509.4 259.344 1512.51 254.475C1515.62 249.607 1516.37 249.441 1516.37 249.441L1518.74 251.111L1517.1 253.634L1525.55 260.268L1526.86 258.669L1528.51 260.007L1528.52 260.067Z" fill="#0A0C35"/>
<path fill-rule="evenodd" clip-rule="evenodd" d="M1523.19 268.726C1522.74 270.155 1522.38 271.611 1522.11 273.085C1521.79 274.547 1521.6 276.033 1521.54 277.527V277.527L1519.4 277.278L1519.57 275.264L1509.07 273.843L1508.49 276.864L1505.61 276.271C1505.61 276.271 1505.28 275.608 1506.36 269.898C1507.43 264.189 1508 263.762 1508 263.762L1510.92 264.224L1510.35 267.245L1520.7 270.1L1521.19 268.086L1523.25 268.678L1523.19 268.726Z" fill="#0A0C35"/>
<path fill-rule="evenodd" clip-rule="evenodd" d="M1521.57 278.794C1521.69 280.287 1521.91 281.771 1522.22 283.237C1522.43 284.726 1522.79 286.19 1523.29 287.608V287.608L1521.23 288.2L1520.67 286.269L1510.4 289.029L1510.98 291.979L1508.1 292.559C1508.1 292.559 1507.61 292.145 1506.46 286.518C1505.32 280.891 1505.64 280.133 1505.64 280.133L1508.51 279.553L1509.09 282.573L1519.67 281.14L1519.43 279.043L1521.57 278.794V278.794Z" fill="#0A0C35"/>
<path fill-rule="evenodd" clip-rule="evenodd" d="M1523.75 288.781C1524.43 290.078 1525.17 291.339 1525.98 292.56C1526.79 293.833 1527.69 295.051 1528.66 296.208L1526.93 297.547L1525.75 295.959L1517.3 302.581L1518.94 305.104L1516.58 306.786C1516.58 306.786 1515.92 306.609 1512.72 301.752C1509.51 296.895 1509.6 296.208 1509.6 296.208L1512.07 294.526L1513.7 297.049L1522.9 291.671L1521.92 289.823L1523.8 288.816L1523.75 288.781Z" fill="#0A0C35"/>
<path fill-rule="evenodd" clip-rule="evenodd" d="M1529.5 297.014C1529.5 297.014 1530.68 298.021 1533.05 299.691C1534.23 300.568 1535.49 301.33 1536.82 301.965L1535.84 303.896L1534.03 302.889L1528.7 312.366L1531.24 314.036L1529.6 316.559C1529.6 316.559 1528.95 316.642 1524.18 313.361C1519.41 310.08 1519.16 309.416 1519.16 309.416L1520.81 307.047L1523.28 308.729L1529.76 300.082L1528.2 298.731L1529.51 297.061L1529.5 297.014Z" fill="#0A0C35"/>
<path fill-rule="evenodd" clip-rule="evenodd" d="M1537.96 302.462C1539.35 302.922 1540.78 303.29 1542.23 303.564C1543.65 303.937 1545.11 304.159 1546.58 304.227L1546.33 306.407L1544.27 306.158L1542.96 316.997L1545.83 317.578L1545.27 320.515C1545.27 320.515 1544.69 320.847 1539.1 319.674C1533.52 318.502 1533.04 317.992 1533.04 317.992L1533.6 315.054L1536.56 315.647L1539.27 305.151L1537.38 304.559L1537.96 302.462Z" fill="#0A0C35"/>
<path fill-rule="evenodd" clip-rule="evenodd" d="M1547.81 304.228C1549.27 304.107 1550.72 303.91 1552.16 303.635C1553.62 303.37 1555.04 302.974 1556.43 302.451V302.451L1557 304.547L1555.03 305.14L1557.82 315.718L1560.78 315.126L1561.35 317.981C1561.35 317.981 1560.85 318.573 1555.27 319.663C1549.69 320.752 1549.12 320.504 1549.12 320.504L1548.54 317.566L1551.41 316.985L1550.02 306.147L1548.06 306.395L1547.81 304.216V304.228Z" fill="#0A0C35"/>
<path fill-rule="evenodd" clip-rule="evenodd" d="M1557.58 302.048C1557.58 302.048 1558.89 301.373 1561.35 299.786C1562.61 298.968 1563.8 298.041 1564.9 297.014V297.014L1566.22 298.779L1564.66 300.034L1571.14 308.682L1573.6 307L1575.24 309.369C1575.24 309.369 1575.08 310.044 1570.32 313.313C1565.57 316.583 1564.9 316.512 1564.9 316.512L1563.26 313.989L1565.72 312.318L1560.39 302.913L1558.58 303.92L1557.6 301.989L1557.58 302.048Z" fill="#0A0C35"/>
<path fill-rule="evenodd" clip-rule="evenodd" d="M1565.78 296.208C1565.78 296.208 1566.77 295.024 1568.41 292.595C1569.28 291.417 1570.02 290.15 1570.62 288.816V288.816L1572.51 289.823L1571.53 291.671L1580.8 297.049L1582.45 294.526L1584.91 296.125C1584.91 296.125 1584.91 296.883 1581.78 301.657C1578.66 306.431 1577.93 306.786 1577.93 306.786L1575.56 305.104L1577.2 302.581L1568.75 295.959L1567.44 297.547L1565.78 296.208Z" fill="#0A0C35"/>
<path fill-rule="evenodd" clip-rule="evenodd" d="M1571.24 287.608C1571.67 286.171 1572.02 284.712 1572.3 283.237C1572.62 281.745 1572.84 280.233 1572.96 278.712L1575.01 278.961L1574.84 281.057L1585.43 282.491L1586.01 279.47L1588.88 280.05C1588.88 280.05 1589.13 280.643 1588.06 286.435C1587 292.228 1586.42 292.477 1586.42 292.477L1583.55 291.884L1584.13 289.03L1573.86 286.187L1573.28 288.2L1571.24 287.608V287.608Z" fill="#0A0C35"/>
<path fill-rule="evenodd" clip-rule="evenodd" d="M1572.93 277.456C1572.8 275.959 1572.58 274.472 1572.26 273.002C1572.06 271.517 1571.7 270.057 1571.2 268.643V268.643L1573.25 268.051L1573.83 269.982L1584.09 267.21L1583.51 264.189L1586.38 263.597C1586.38 263.597 1586.88 264.023 1588.03 269.721C1589.18 275.419 1588.84 276.106 1588.84 276.106L1585.97 276.698L1585.43 273.701L1574.84 275.123L1575.09 277.219L1572.96 277.48L1572.93 277.456Z" fill="#0A0C35"/>
<path fill-rule="evenodd" clip-rule="evenodd" d="M1570.7 267.375C1570.7 267.375 1570.05 266.037 1568.49 263.514C1567.7 262.232 1566.79 261.023 1565.78 259.901V259.901L1567.51 258.562L1568.69 260.161L1577.15 253.563L1575.52 251.04L1577.98 249.358C1577.98 249.358 1578.64 249.536 1581.75 254.404C1584.86 259.273 1584.87 259.936 1584.87 259.936L1582.51 261.618L1580.78 259.095L1571.58 264.556L1572.57 266.321L1570.68 267.411L1570.7 267.375Z" fill="#0A0C35"/>
<path fill-rule="evenodd" clip-rule="evenodd" d="M1564.87 258.977C1564.87 258.977 1563.69 257.97 1561.33 256.288C1560.14 255.416 1558.88 254.659 1557.55 254.025V254.025L1558.62 252.094L1560.34 253.101L1565.68 243.625L1563.22 241.954L1564.85 239.431C1564.85 239.431 1565.51 239.431 1570.28 242.618C1575.04 245.804 1575.2 246.562 1575.2 246.562L1573.6 248.991L1571.14 247.309L1564.66 255.956L1566.22 257.306L1564.9 258.977H1564.87Z" fill="#0A0C35"/>
<path fill-rule="evenodd" clip-rule="evenodd" d="M1556.35 253.563C1554.97 253.096 1553.57 252.7 1552.16 252.379C1550.7 252.047 1549.22 251.849 1547.73 251.786V251.786L1547.97 249.607L1550.02 249.855L1551.41 239.028L1548.47 238.436L1549.04 235.498C1549.04 235.498 1549.62 235.167 1555.2 236.339C1560.78 237.512 1561.27 237.939 1561.27 237.939L1560.7 240.876L1557.74 240.284L1555.03 250.862L1556.91 251.443L1556.35 253.551V253.563Z" fill="#0A0C35"/>
<path fill-rule="evenodd" clip-rule="evenodd" d="M1546.5 251.845C1545.03 251.96 1543.58 252.157 1542.14 252.438C1540.69 252.703 1539.26 253.099 1537.87 253.622V253.622L1537.21 251.525L1539.19 250.933L1536.4 240.355L1533.52 240.947L1532.95 238.009C1532.95 238.009 1533.36 237.5 1538.94 236.327C1544.52 235.155 1545.18 235.569 1545.18 235.569L1545.75 238.507L1542.79 239.099L1544.19 249.843L1546.25 249.678L1546.5 251.857V251.845Z" fill="#0A0C35"/>
<path fill-rule="evenodd" clip-rule="evenodd" d="M1536.64 254.108C1536.64 254.108 1535.33 254.783 1532.87 256.382C1531.63 257.222 1530.44 258.144 1529.32 259.143V259.143L1528.01 257.389L1529.57 256.122L1523.09 247.474L1520.63 249.156L1518.99 246.645C1518.99 246.645 1519.24 246.053 1523.91 242.783C1528.58 239.514 1529.41 239.585 1529.41 239.585L1530.97 242.108L1528.51 243.79L1533.84 253.184L1535.65 252.177L1536.63 254.108H1536.64Z" fill="#0A0C35"/>
<path fill-rule="evenodd" clip-rule="evenodd" d="M1533.77 269.555C1533.3 270.329 1532.9 271.146 1532.59 271.995C1532.19 272.827 1531.89 273.702 1531.69 274.601V274.601L1530.45 274.175L1530.78 272.99L1524.63 270.894L1523.88 272.576L1522.24 271.9C1522.24 271.9 1522.16 271.474 1523.42 268.205C1524.69 264.935 1525.15 264.651 1525.15 264.651L1526.79 265.326L1526.06 267.091L1531.97 270.029L1532.55 268.844L1533.73 269.508L1533.77 269.555Z" fill="#0A0C35"/>
<path fill-rule="evenodd" clip-rule="evenodd" d="M1531.56 275.431C1531.56 275.431 1531.48 276.355 1531.48 278.12C1531.4 279.047 1531.46 279.98 1531.64 280.891L1530.32 281.057L1530.15 279.719L1523.67 280.216V282.064H1521.87C1521.87 282.064 1521.62 281.733 1521.62 278.202C1521.62 274.672 1521.87 274.258 1521.87 274.258H1523.67V276.07L1530.15 276.497L1530.25 275.229L1531.56 275.395V275.431Z" fill="#0A0C35"/>
<path fill-rule="evenodd" clip-rule="evenodd" d="M1531.8 281.649C1532 282.545 1532.31 283.414 1532.71 284.244C1533.04 285.113 1533.43 285.956 1533.89 286.767V286.767L1532.71 287.359L1532.13 286.269L1526.21 289.207L1526.95 290.877L1525.3 291.635C1525.3 291.635 1524.89 291.387 1523.58 288.082C1522.26 284.777 1522.39 284.386 1522.39 284.386L1524.04 283.628L1524.77 285.393L1530.93 283.201L1530.52 282.017L1531.83 281.602L1531.8 281.649Z" fill="#0A0C35"/>
<path fill-rule="evenodd" clip-rule="evenodd" d="M1534.26 287.359C1534.82 288.063 1535.43 288.736 1536.06 289.373C1536.67 290.069 1537.37 290.689 1538.12 291.221V291.221L1537.21 292.228L1536.31 291.47L1531.96 296.421L1533.27 297.677L1532.09 299.027C1532.09 299.027 1531.69 298.945 1529.13 296.421C1526.58 293.898 1526.67 293.484 1526.67 293.484L1527.86 292.228L1529.17 293.484L1534.1 289.207L1533.27 288.2L1534.26 287.359V287.359Z" fill="#0A0C35"/>
<path fill-rule="evenodd" clip-rule="evenodd" d="M1538.69 291.635C1538.69 291.635 1539.52 292.062 1541.16 292.725C1541.97 293.129 1542.82 293.439 1543.7 293.649V293.649L1543.29 294.905L1542.11 294.573L1540.05 300.875L1541.78 301.621L1541.04 303.303C1541.04 303.303 1540.63 303.386 1537.42 302.048C1534.22 300.709 1533.98 300.283 1533.98 300.283L1534.72 298.601L1536.36 299.359L1539.23 293.317L1538.17 292.725L1538.74 291.635H1538.69Z" fill="#0A0C35"/>
<path fill-rule="evenodd" clip-rule="evenodd" d="M1544.35 293.839C1545.25 293.97 1546.16 294.03 1547.06 294.017C1547.97 294.036 1548.88 293.977 1549.77 293.839V293.839L1549.85 295.189L1548.67 295.272L1549.17 301.989L1550.98 301.906V303.754C1550.98 303.754 1550.65 304.085 1547.11 304.085C1543.57 304.085 1543.34 303.754 1543.34 303.754V301.989H1545.15L1545.56 295.272L1544.32 295.189L1544.4 293.839H1544.35Z" fill="#0A0C35"/>
<path fill-rule="evenodd" clip-rule="evenodd" d="M1550.52 293.649C1551.4 293.437 1552.25 293.127 1553.06 292.725C1554.7 292.062 1555.52 291.635 1555.52 291.635L1556.1 292.725L1555.03 293.317L1557.91 299.359L1559.54 298.601L1560.28 300.283C1560.28 300.283 1560.04 300.709 1556.84 302.048C1553.65 303.386 1553.22 303.303 1553.22 303.303L1552.48 301.621L1554.21 300.875L1552.08 294.573L1550.89 294.999L1550.48 293.649H1550.52Z" fill="#0A0C35"/>
<path fill-rule="evenodd" clip-rule="evenodd" d="M1556.1 291.221C1556.1 291.221 1556.84 290.629 1558.16 289.373C1558.79 288.734 1559.39 288.062 1559.95 287.359V287.359L1560.95 288.2L1560.12 289.207L1565.04 293.484L1566.36 292.145L1567.55 293.484C1567.55 293.484 1567.55 293.898 1565.07 296.421C1562.6 298.945 1562.2 299.027 1562.2 299.027L1560.9 297.677L1562.2 296.338L1557.91 291.47L1557 292.145L1556.1 291.221Z" fill="#0A0C35"/>
<path fill-rule="evenodd" clip-rule="evenodd" d="M1560.37 286.731C1560.81 285.942 1561.2 285.127 1561.55 284.291C1561.95 283.435 1562.25 282.537 1562.45 281.614V281.614L1563.63 282.028L1563.31 283.284L1569.47 285.393L1570.21 283.71L1571.85 284.386C1571.85 284.386 1571.92 284.8 1570.61 288.07C1569.3 291.339 1568.89 291.623 1568.89 291.623L1567.25 290.948L1567.98 289.195L1562.07 286.257L1561.5 287.347L1560.32 286.755L1560.37 286.731Z" fill="#0A0C35"/>
<path fill-rule="evenodd" clip-rule="evenodd" d="M1562.58 280.808C1562.71 279.918 1562.76 279.019 1562.74 278.119C1562.76 277.193 1562.71 276.266 1562.58 275.348V275.348L1563.89 275.182L1563.97 276.437L1570.54 276.023V274.175H1572.35C1572.35 274.175 1572.6 274.506 1572.6 278.037C1572.6 281.567 1572.35 281.981 1572.35 281.981H1570.54V280.133L1563.97 279.636L1563.89 280.891L1562.58 280.808V280.808Z" fill="#0A0C35"/>
<path fill-rule="evenodd" clip-rule="evenodd" d="M1562.5 274.506C1562.5 274.506 1562.25 273.594 1561.6 271.912C1561.26 271.073 1560.86 270.258 1560.41 269.472L1561.6 268.809L1562.16 269.993L1568 266.972L1567.26 265.29L1568.91 264.532C1568.91 264.532 1569.31 264.781 1570.62 268.086C1571.93 271.391 1571.86 271.77 1571.86 271.77L1570.22 272.528L1569.49 270.763L1563.32 272.955L1563.74 274.139L1562.56 274.554L1562.5 274.506Z" fill="#0A0C35"/>
<path fill-rule="evenodd" clip-rule="evenodd" d="M1559.95 268.726C1559.95 268.726 1559.37 268.051 1558.16 266.7C1557.53 266.053 1556.87 265.44 1556.18 264.864L1557 263.845L1557.91 264.686L1562.25 259.652L1560.95 258.302L1562.13 257.046C1562.13 257.046 1562.54 257.046 1565.09 259.557C1567.63 262.069 1567.56 262.495 1567.56 262.495L1566.37 263.834L1565.05 262.495L1560.13 266.949L1560.96 267.861L1559.97 268.714L1559.95 268.726Z" fill="#0A0C35"/>
<path fill-rule="evenodd" clip-rule="evenodd" d="M1555.44 264.438C1554.69 263.971 1553.89 263.575 1553.07 263.253C1552.26 262.851 1551.41 262.542 1550.53 262.329V262.329L1550.94 261.073L1552.12 261.405L1554.17 255.103L1552.53 254.357L1553.19 252.675C1553.19 252.675 1553.6 252.592 1556.8 253.93C1559.99 255.269 1560.25 255.696 1560.25 255.696L1559.59 257.378L1557.87 256.619L1555 262.661L1556.18 263.253L1555.52 264.438H1555.44Z" fill="#0A0C35"/>
<path fill-rule="evenodd" clip-rule="evenodd" d="M1549.69 262.175C1549.69 262.175 1548.79 262.08 1547.06 262.009C1546.16 261.992 1545.25 262.047 1544.35 262.175V262.175L1544.19 260.825L1545.37 260.742L1544.97 254.108H1543.21V252.26C1543.21 252.26 1543.54 252.011 1546.98 252.011C1550.42 252.011 1550.85 252.26 1550.85 252.26V254.025L1549.04 254.108L1548.54 260.742L1549.85 260.825L1549.69 262.175V262.175Z" fill="#0A0C35"/>
<path fill-rule="evenodd" clip-rule="evenodd" d="M1543.54 262.341C1542.67 262.601 1541.83 262.91 1541 263.265C1540.18 263.626 1539.39 264.045 1538.63 264.521V264.521L1537.97 263.336L1539.15 262.744L1536.19 256.702L1534.56 257.461L1533.9 255.778C1533.9 255.778 1534.07 255.364 1537.26 254.013C1540.45 252.663 1540.88 252.758 1540.88 252.758L1541.62 254.44L1539.88 255.186L1542.02 261.488L1543.21 261.074L1543.62 262.329L1543.54 262.341Z" fill="#0A0C35"/>
<path fill-rule="evenodd" clip-rule="evenodd" d="M1537.96 264.947C1537.26 265.518 1536.61 266.131 1535.99 266.783C1535.3 267.406 1534.69 268.114 1534.18 268.892L1533.11 267.968L1533.94 267.044L1529 262.673L1527.82 263.94L1526.51 262.673C1526.51 262.673 1526.59 262.258 1529.05 259.735C1531.51 257.212 1531.93 257.141 1531.93 257.141L1533.11 258.396L1531.93 259.735L1536.19 264.769L1537.19 263.94L1538 264.947H1537.96Z" fill="#0A0C35"/>
</g>
<path d="M593.559 341.463C593.559 341.463 603.595 346.536 610.863 346.536C655.947 346.536 687.119 269.642 687.119 236.863C687.119 205.352 660.203 195.685 660.203 195.685C656.744 191.241 652.278 187.651 647.161 185.202C642.044 182.752 636.417 181.51 630.727 181.574C590.998 181.574 554.083 253.013 554.083 291.877C554.083 325.286 584.84 341.463 593.604 341.463M643.378 212.669C650.636 212.669 656.407 221.537 656.407 228.003C656.407 257.208 620.087 324.027 602.36 324.027C596.805 324.027 591.044 317.934 591.044 309.109C591.044 277.376 622.224 212.669 643.342 212.669" fill="white"/>
<path d="M641.898 386.885C640.65 383.275 638.111 380.256 634.77 378.41C631.43 376.565 627.525 376.023 623.809 376.89C619.49 377.918 615.107 378.654 610.69 379.092C579.66 382.142 554.446 368.071 541.372 351.683C532.581 340.662 527.914 325.12 528.012 312.753C528.395 272.628 544.934 232.807 544.934 221.197C544.934 201.973 534.175 196.062 527.006 192.664C519.836 189.267 517.502 184.426 507.412 184.426C497.321 184.426 490.748 206.182 477.246 235.544C463.744 264.907 450.446 288.152 450.446 288.152C450.446 288.152 456.36 222.25 456.36 205.772C456.307 192.022 440.079 182.749 428.448 182.749C428.448 182.749 423.995 179.798 414.313 179.798C404.632 179.798 374.653 287.528 350.811 320.475C348.068 324.282 343 327.447 343 330.827C343 338.647 359.664 347.938 368.739 347.938C377.815 347.938 391.094 313.083 401.862 284.148C412.202 256.507 416.006 240.841 416.424 239.566C416.21 241.679 413.049 301.884 413.049 318.994C413.049 336.524 429.508 338.843 429.508 338.843C429.508 338.843 438.574 342.409 445.753 342.409C452.931 342.409 469.8 310.934 482.046 280.519C488.753 263.762 496.315 247.36 504.704 231.38C502.077 239.566 496.519 269.079 495.147 297.015C494.546 304.788 494.564 312.597 495.201 320.368C497.33 347.902 507.314 364.264 517.315 374.759C540.891 399.413 567.619 408.642 600.777 410.363C605.181 410.478 609.587 410.264 613.958 409.721C619.538 409.177 625.084 408.322 630.569 407.161C632.715 406.697 634.737 405.78 636.502 404.472C638.267 403.165 639.734 401.497 640.805 399.578C641.877 397.66 642.528 395.535 642.717 393.345C642.905 391.155 642.626 388.95 641.898 386.876V386.885Z" fill="white"/>
<path d="M724.296 182.573C724.296 180.011 726.435 179.798 729.863 179.798C741.641 179.798 759.845 189.806 759.845 202.367C759.845 214.927 736.074 259.407 729.863 288.354C723.651 317.301 721.942 332.201 721.942 336.035C721.942 339.869 718.944 344.762 711.47 344.762C703.997 344.762 685.345 337.948 685.345 326.241C685.318 293.887 725.79 198.532 725.79 189.165C725.79 185.545 724.296 185.126 724.296 182.573" fill="white"/>
<path d="M778.311 191.64C780.203 191.64 781.453 193.31 785.648 193.31C789.844 193.31 811.195 181.572 834.234 181.572C871.305 181.572 892.88 203.789 892.88 227.061C892.88 265.206 845.758 283.868 828.789 287.013C828.789 289.318 846.169 323.059 863.763 323.059C867.119 323.059 870.011 322.219 871.725 322.219C875.081 322.219 876.965 324.533 876.965 326.838C876.965 331.233 866.699 345.696 845.544 345.696C809.517 345.696 796.538 293.302 796.538 293.302C796.538 293.302 782.926 330.822 782.926 339.202C782.926 344.231 778.945 346.536 774.963 346.536C770.982 346.536 749.202 336.709 749.202 326.882C749.202 317.056 760.904 282.215 760.904 279.044C760.904 275.873 755.459 272.13 755.459 267.52C755.459 265.001 758.601 264.375 761.324 264.375C762.729 264.378 764.131 264.515 765.51 264.786C765.51 264.786 785.202 218.681 785.202 213.866C785.202 209.051 775.981 198.983 775.981 194.373C775.981 192.694 776.82 191.693 778.284 191.693M809.285 259.391C809.285 261.285 810.124 261.704 813.052 261.704C822.871 261.704 862.906 237.173 862.906 216.216C862.906 210.346 859.764 207.622 853.087 207.622C844.08 207.622 837.171 211.811 831.306 213.696C826.692 215.17 824.165 217.681 822.719 221.459C822.719 221.459 809.33 257.506 809.33 259.391" fill="white"/>
<path d="M954.77 179.81C957.692 179.81 963.75 185.45 976.713 192.355C989.257 199.251 1005.77 205.105 1005.77 218.069C1005.77 231.237 998.45 271.794 998.246 279.109C1002.84 282.878 1009.95 284.544 1009.95 291.654C1009.95 301.9 993.025 298.969 991.341 306.703C989.807 314.506 988.763 322.398 988.214 330.331C988.214 336.809 989.043 337.646 989.043 341.201C989.043 345.175 985.479 347.26 980.054 347.26C971.697 347.26 953.327 334.51 953.327 324.896C953.327 316.325 956.258 302.943 956.258 302.943C956.258 302.943 933.888 305.446 922.181 306.703C921.344 307.122 916.328 317.163 913.406 325.101C911.337 331.089 910.278 337.379 910.27 343.714C910.27 347.679 905.246 351.857 900.649 351.857C891.455 351.857 875.142 337.851 875.142 326.144C875.142 318.41 883.089 303.985 883.089 301.9C883.089 298.55 875.775 289.774 875.775 274.093C875.775 272.418 876.194 270.752 878.278 270.752C880.363 270.752 887.686 276.606 897.931 276.606C898.145 276.606 913.406 250.678 926.778 229.562C939.91 208.455 952.258 187.963 952.463 184.827C952.463 183.365 952.044 183.365 952.044 182.314C952.038 181.965 952.107 181.618 952.245 181.296C952.383 180.975 952.588 180.687 952.845 180.45C953.103 180.214 953.407 180.035 953.739 179.924C954.071 179.814 954.422 179.775 954.77 179.81M935.322 275.145C935.322 277.657 940.338 277.657 946.013 277.657C955.625 277.657 961.479 277.238 962.111 274.307C965.033 264.275 969.63 238.142 969.63 230.409C969.63 228.948 969.211 228.315 968.793 228.315C964.614 228.315 935.349 271.973 935.349 275.145" fill="white"/>
<path d="M764.799 172.273C764.799 172.273 770.445 163.062 772.061 155.918C774.553 144.878 753.187 137.646 744.987 139.213C741.513 139.887 740.644 142.032 739.776 144.939C737.517 152.696 737.926 154.57 737.048 158.492C733.835 172.921 761.064 181.842 764.799 172.273Z" fill="white"/>
<path d="M790 413.941L795.647 367.824H810.379C814.319 367.762 818.195 368.829 821.551 370.899C824.784 372.904 827.348 375.827 828.917 379.296C830.559 382.922 831.143 386.939 830.6 390.883C830.089 395.064 828.539 399.051 826.093 402.478C823.648 405.973 820.42 408.846 816.666 410.866C813.01 412.881 808.905 413.939 804.732 413.941H790ZM800.189 405.824H805.67C809.573 405.819 813.313 404.261 816.07 401.494C819.064 398.717 820.952 394.947 821.384 390.883C821.91 386.666 821.01 383.112 818.683 380.219C817.576 378.814 816.155 377.689 814.535 376.935C812.914 376.181 811.139 375.82 809.353 375.879H803.916L800.189 405.824Z" fill="white"/>
<path d="M834.345 413.941L838.413 383.185H848.15L844.082 413.941H834.345ZM844.015 377.912C843.326 377.919 842.643 377.788 842.013 377.528C841.384 377.267 840.824 376.884 840.371 376.405C839.918 375.925 839.583 375.36 839.39 374.75C839.196 374.139 839.149 373.497 839.251 372.868C839.427 371.475 840.178 370.197 841.347 369.3C842.447 368.361 843.888 367.835 845.387 367.824C846.086 367.803 846.78 367.923 847.423 368.177C848.065 368.431 848.638 368.813 849.103 369.294C849.568 369.775 849.912 370.345 850.111 370.963C850.31 371.58 850.36 372.231 850.256 372.868C850.074 374.262 849.321 375.539 848.15 376.436C847.02 377.384 845.543 377.905 844.015 377.895V377.912Z" fill="white"/>
<path d="M877.771 382.677H885.786L882.029 414.031C881.619 418.477 879.569 422.597 876.294 425.552C872.962 428.483 868.678 430.032 864.286 429.896C861.289 429.941 858.322 429.295 855.603 428.008L856.659 419.256C859.074 421.315 862.136 422.41 865.28 422.341C866.232 422.35 867.177 422.166 868.059 421.798C868.941 421.431 869.742 420.888 870.417 420.201C871.971 418.52 872.904 416.338 873.056 414.031L873.355 411.386C870.959 413.597 867.839 414.81 864.611 414.786C860.435 414.786 857.192 413.224 854.882 410.1C852.571 406.976 851.691 403.079 852.242 398.408C852.676 393.988 854.591 389.858 857.661 386.716C859.063 385.216 860.75 384.026 862.618 383.219C864.487 382.411 866.497 382.004 868.526 382.021C870.124 381.953 871.714 382.271 873.169 382.949C874.624 383.627 875.903 384.647 876.901 385.924L877.771 382.677ZM867.365 406.727C868.854 406.726 870.307 406.255 871.526 405.378C872.825 404.466 873.873 403.227 874.569 401.781L875.37 395.107C875.056 393.678 874.289 392.394 873.188 391.455C872.129 390.541 870.783 390.049 869.397 390.07C868.371 390.059 867.354 390.266 866.41 390.677C865.467 391.089 864.618 391.697 863.916 392.463C862.385 394.091 861.432 396.197 861.207 398.444C860.991 399.858 861.109 401.304 861.55 402.662C861.947 403.875 862.715 404.925 863.74 405.657C864.809 406.393 866.077 406.767 867.365 406.727V406.727Z" fill="white"/>
<path d="M891.107 413.941L894.732 383.185H903.408L899.783 413.941H891.107ZM899.724 377.912C899.113 377.928 898.506 377.804 897.947 377.549C897.387 377.294 896.89 376.914 896.489 376.436C896.073 375.957 895.764 375.389 895.583 374.772C895.403 374.156 895.356 373.506 895.445 372.868C895.643 371.498 896.298 370.244 897.297 369.322C898.296 368.401 899.575 367.871 900.912 367.824C901.534 367.803 902.154 367.923 902.726 368.177C903.298 368.431 903.809 368.813 904.223 369.294C904.637 369.775 904.944 370.345 905.121 370.963C905.299 371.58 905.343 372.231 905.25 372.868C905.096 374.262 904.426 375.541 903.383 376.436C902.382 377.378 901.076 377.898 899.724 377.895V377.912Z" fill="white"/>
<path d="M925.64 405.48L929.176 411.714C927.078 413.246 924.499 414.03 921.874 413.932C917.79 413.932 914.844 412.944 913.035 410.969C911.225 408.994 910.524 406.285 910.931 402.842L912.54 389.868H908.845L909.649 383.334H913.362L914.661 373.143H923.695L922.396 383.334H930.13L929.326 389.868H921.574L919.903 402.876C919.723 403.822 919.922 404.799 920.46 405.608C920.729 405.923 921.071 406.171 921.458 406.331C921.846 406.492 922.267 406.561 922.687 406.533C923.227 406.557 923.766 406.476 924.273 406.295C924.781 406.115 925.245 405.837 925.64 405.48Z" fill="white"/>
<path d="M949.206 382.017C953.516 382.017 956.837 382.999 959.171 384.964C961.505 386.928 962.424 389.875 961.929 393.804L959.485 413.326H951.776L951.713 410.318C948.613 412.607 944.851 413.875 940.969 413.94C937.985 413.94 935.645 413.092 933.95 411.397C932.285 409.696 931.631 407.415 932.007 404.548C932.19 403.039 932.734 401.595 933.594 400.332C934.455 399.068 935.607 398.022 936.958 397.277C939.883 395.523 943.685 395 948.365 395.707L952.752 396.383L953.065 393.752C953.222 393.069 953.182 392.358 952.949 391.696C952.717 391.035 952.301 390.45 951.749 390.007C950.508 389.143 949.008 388.71 947.487 388.779C945.941 388.796 944.416 389.133 943.012 389.768C941.608 390.403 940.357 391.321 939.34 392.462L934.514 387.367C936.327 385.581 938.506 384.191 940.907 383.289C943.575 382.388 946.385 381.957 949.206 382.017V382.017ZM941.56 404.056C941.476 404.491 941.5 404.939 941.631 405.362C941.762 405.785 941.996 406.17 942.312 406.486C943.038 407.106 943.984 407.422 944.945 407.363C947.076 407.363 949.311 406.442 951.651 404.6L952.089 401.469L949.645 400.978C946.959 400.443 944.936 400.513 943.664 401.162C943.089 401.422 942.595 401.827 942.231 402.336C941.868 402.844 941.649 403.438 941.596 404.056H941.56Z" fill="white"/>
<path d="M979.827 413.932C975.885 413.932 973.04 412.932 971.294 410.933C969.547 408.934 968.87 406.192 969.263 402.708L973.529 367.822H982.25L977.984 402.768C977.81 403.726 978.002 404.715 978.521 405.533C978.781 405.852 979.111 406.103 979.485 406.265C979.859 406.428 980.266 406.498 980.672 406.469C981.188 406.485 981.701 406.396 982.183 406.208C982.665 406.021 983.105 405.739 983.479 405.377L986.893 411.687C984.863 413.241 982.367 414.035 979.827 413.932V413.932Z" fill="white"/>
<path d="M1369.64 402.438L1365.26 442.286H1406.84L1392.62 399.978L1369.64 402.438Z" fill="#FDCE34"/>
<path d="M1402.86 425.508C1402.86 425.508 1397.26 440.785 1385.74 440.785C1374.22 440.785 1367.95 428.454 1367.95 428.454L1286.83 470.246L1277 556.448L1490 557.539L1471.43 448.423L1402.86 425.508Z" fill="#29ABE2"/>
<path d="M1398.82 411.419C1398.82 411.419 1396.47 418.214 1383.08 418.214C1369.68 418.214 1367.45 410.964 1367.45 410.964C1367.45 410.964 1396.71 405.65 1398.82 411.419Z" fill="#63151B"/>
<path d="M1300.24 335.99C1301.92 327.211 1298.05 319.265 1291.51 311.659C1280 298.38 1279.94 293.134 1291.35 280.195C1298.67 271.909 1301.08 263.074 1300.28 252.176C1299.04 235.001 1301.58 231.456 1318.26 227.625C1328.98 225.167 1336.21 219.833 1341.75 210.318C1350.1 196.051 1354.61 194.526 1369.58 200.737C1379.93 205.039 1389.3 205.621 1399.92 201.056C1415.67 194.295 1420.32 195.788 1428.77 210.45C1434.84 220.986 1443.51 225.727 1454.6 228.514C1468.9 232.103 1472.24 236.603 1470.37 251.177C1468.91 262.646 1471.86 271.601 1479.36 280.228C1490.59 293.123 1490.56 298.116 1479.66 310.781C1472.29 319.342 1468.86 328.176 1470.47 339.788C1472.48 354.417 1468.38 360.179 1453.95 363.197C1441.86 365.721 1433.46 371.735 1427.91 382.71C1422.35 393.685 1413.55 396.977 1402.54 391.424C1390.8 385.553 1379.62 385.454 1367.83 391.424C1357.49 396.725 1348.59 394.354 1343.29 383.588C1337.44 371.702 1328.33 365.546 1315.42 362.89C1301.55 360.058 1299.69 355.745 1300.24 335.99Z" fill="#F15A24"/>
<path d="M1456.92 327.91C1456.92 327.91 1465.11 414.567 1389.26 414.567C1313.41 414.567 1313.42 360.94 1315.47 315.532C1317.53 270.124 1327.49 234.73 1386.05 224.584C1444.62 214.439 1456.92 274.261 1456.92 327.91Z" fill="#FDCE34"/>
<path d="M1366.72 319.787C1366.72 319.787 1362.61 311.17 1354.41 312.604C1346.2 314.039 1344.84 322.656 1344.84 322.656" fill="#09231E"/>
<path d="M1428 323.385C1428 323.385 1426.76 313.496 1417.9 311.921C1409.03 310.347 1404.65 318.254 1404.65 318.254" fill="#09231E"/>
<path d="M1384.2 318.269C1382.52 319.295 1381.09 320.682 1380.01 322.331C1378.92 323.979 1378.22 325.849 1377.94 327.806C1376.42 336.939 1372.09 345.363 1365.57 351.895C1352.39 365.253 1383.53 373.257 1388.87 365.68C1393.74 358.782 1402.21 307.637 1384.2 318.269Z" fill="#F7931E"/>
<path d="M1360.5 386H1387.5" stroke="#110A03" stroke-width="2.37142" stroke-miterlimit="10" stroke-linecap="round"/>
<path d="M1350.31 341.622C1363.81 341.622 1374.75 330.518 1374.75 316.82C1374.75 303.123 1363.81 292.019 1350.31 292.019C1336.81 292.019 1325.87 303.123 1325.87 316.82C1325.87 330.518 1336.81 341.622 1350.31 341.622Z" stroke="white" stroke-width="2.07413" stroke-miterlimit="10"/>
<path d="M1423.62 341.622C1437.32 341.622 1448.42 330.518 1448.42 316.82C1448.42 303.123 1437.32 292.019 1423.62 292.019C1409.92 292.019 1398.82 303.123 1398.82 316.82C1398.82 330.518 1409.92 341.622 1423.62 341.622Z" stroke="white" stroke-width="2.07413" stroke-miterlimit="10"/>
<path d="M1398.82 312.561C1398.82 312.561 1393.43 305.687 1385.7 305.882C1377.98 306.077 1374.75 313.902 1374.75 313.902" stroke="white" stroke-width="2.07413" stroke-miterlimit="10"/>
<path d="M1068.62 334.239C1070.36 325.242 1066.36 317.099 1059.58 309.306C1047.66 295.697 1047.59 290.321 1059.42 277.061C1067 268.57 1069.49 259.516 1068.67 248.348C1067.38 230.747 1070.01 227.115 1087.29 223.19C1098.41 220.67 1105.89 215.204 1111.64 205.454C1120.29 190.833 1124.96 189.27 1140.47 195.635C1151.19 200.044 1160.91 200.64 1171.91 195.961C1188.22 189.033 1193.04 190.563 1201.79 205.589C1208.08 216.385 1217.07 221.244 1228.56 224.101C1243.37 227.778 1246.83 232.389 1244.9 247.325C1243.38 259.078 1246.44 268.255 1254.22 277.095C1265.85 290.31 1265.82 295.427 1254.52 308.406C1246.89 317.178 1243.34 326.232 1245 338.131C1247.08 353.123 1242.84 359.027 1227.88 362.12C1215.36 364.707 1206.66 370.87 1200.9 382.117C1195.14 393.363 1186.03 396.737 1174.62 391.046C1162.45 385.029 1150.88 384.928 1138.65 391.046C1127.94 396.479 1118.72 394.049 1113.23 383.016C1107.17 370.836 1097.73 364.527 1084.35 361.805C1069.98 358.903 1068.06 354.483 1068.62 334.239Z" fill="#0A0C35"/>
<path d="M1210.16 315.569C1210.16 315.569 1228.33 304.137 1228.33 325.377C1228.33 346.617 1216.73 348.253 1210.16 343.31C1203.59 338.367 1210.16 315.569 1210.16 315.569Z" fill="#662D91"/>
<path d="M1104.15 315.569C1104.15 315.569 1085.99 304.137 1085.99 325.377C1085.99 346.617 1097.58 348.253 1104.15 343.31C1110.73 338.367 1104.15 315.569 1104.15 315.569Z" fill="#662D91"/>
<path d="M1144.25 406.152L1129.67 442.03H1184.65L1174.55 402.116L1146.14 406.074L1144.25 406.152Z" fill="#662D91"/>
<path d="M1175.61 406.397C1175.61 406.397 1173.23 413.412 1159.73 413.412C1146.23 413.412 1143.98 405.927 1143.98 405.927C1143.98 405.927 1173.48 400.441 1175.61 406.397Z" fill="#63151B"/>
<path d="M1183.6 252.704C1173 248.367 1161.19 248.088 1150.4 251.921C1131.52 258.319 1100.04 275.428 1101.08 318.336C1102.54 379.521 1108.41 400.498 1153.92 407.487C1199.44 414.476 1211.19 363.785 1212.65 334.072C1213.91 308.602 1216.3 266.431 1183.6 252.704Z" fill="#662D91"/>
<path d="M1178.42 421.696C1178.42 421.696 1171.73 437.468 1157.96 437.468C1144.18 437.468 1136.69 424.738 1136.69 424.738L1039.75 467.885L1028 556.881L1282.55 558.008L1260.36 445.354L1178.42 421.696Z" fill="#EF98C0"/>
<path d="M1139.46 324.282C1139.46 324.282 1135.64 316.643 1128.01 317.911C1120.38 319.178 1119.13 326.806 1119.13 326.806" fill="#09231E"/>
<path d="M1193.68 327.559C1193.68 327.559 1192.66 318.621 1185.21 317.202C1177.76 315.783 1174.1 322.926 1174.1 322.926" fill="#09231E"/>
<path d="M1216.12 344.119C1216.29 343.273 1216.74 342.511 1217.41 341.963C1218.08 341.415 1218.92 341.115 1219.79 341.115C1220.65 341.115 1221.49 341.415 1222.16 341.963C1222.83 342.511 1223.28 343.273 1223.45 344.119C1225.87 356.973 1230.64 377.031 1238.58 389.963C1251.06 410.258 1213.63 425.04 1214.18 408.635C1214.62 396.221 1212.65 362.813 1216.12 344.119Z" fill="#FDCE34"/>
<path d="M1097.49 344.138C1097.34 343.289 1096.9 342.521 1096.25 341.969C1095.6 341.417 1094.78 341.115 1093.94 341.115C1093.09 341.115 1092.28 341.417 1091.63 341.969C1090.98 342.521 1090.54 343.289 1090.38 344.138C1088.02 356.988 1083.39 377.041 1075.66 389.97C1063.53 410.26 1099.92 425.037 1099.38 408.636C1098.96 396.226 1100.87 362.827 1097.49 344.138Z" fill="#FDCE34"/>
<path d="M1160.17 350.151C1167.45 350.151 1173.35 346.274 1173.35 341.491C1173.35 336.708 1167.45 332.83 1160.17 332.83C1152.89 332.83 1146.99 336.708 1146.99 341.491C1146.99 346.274 1152.89 350.151 1160.17 350.151Z" fill="#EF98C0"/>
<path d="M1213.24 329.065C1213.24 329.065 1200.65 326.488 1204.03 309.606C1204.03 309.606 1192.77 302.854 1196.15 296.101C1196.15 296.101 1184.14 295.774 1184.52 285.814C1184.52 285.814 1178.13 293.85 1165.75 285.972C1165.75 285.972 1160.12 293.85 1151.11 290.474C1151.11 290.474 1144.35 304.733 1129.18 297.046C1129.18 297.046 1126.33 314.108 1113.95 309.606C1113.95 309.606 1108.71 321.986 1101.2 312.42C1093.69 302.854 1084.67 310.732 1083.54 290.474C1083.54 290.474 1064.4 275.843 1080.17 257.836C1080.17 257.836 1074.12 228.484 1096.85 226.841C1096.85 226.841 1114.36 200.708 1139.5 218.017C1139.5 218.017 1153.45 194.484 1179.87 212.098C1179.87 212.098 1211.92 197.062 1222.05 225.198C1222.05 225.198 1244.14 243.205 1230.84 260.087C1230.84 260.087 1236.47 284.509 1218 288.617C1218 288.617 1225.2 294.728 1218 306.624C1217.95 306.669 1221.28 320.388 1213.24 329.065Z" fill="#0A0C35"/>
<path d="M1146 375H1173" stroke="#110A03" stroke-width="2.37142" stroke-miterlimit="10" stroke-linecap="round"/>
<rect x="-50" y="529" width="2121" height="29" fill="#FF92E8"/>
</g>
<defs>
<clipPath id="clip0_290_17123">
<rect width="2033" height="558" fill="white"/>
</clipPath>
<clipPath id="clip1_290_17123">
<rect width="367" height="507" fill="white" transform="translate(1356 51)"/>
</clipPath>
</defs>
</svg>
