<?xml version="1.0" encoding="utf-8"?>
<!-- Generator: Adobe Illustrator 26.1.0, SVG Export Plug-In . SVG Version: 6.00 Build 0)  -->
<svg version="1.1" id="Capa_1" xmlns="http://www.w3.org/2000/svg" xmlns:xlink="http://www.w3.org/1999/xlink" x="0px" y="0px"
	 viewBox="0 0 1526 500" style="enable-background:new 0 0 1526 500;" xml:space="preserve">
<style type="text/css">
	.st0{fill:#D9E021;}
	.st1{fill:#84C7AC;}
	.st2{fill:#1B1464;}
	.st3{fill:#009245;}
	.st4{fill:#09231E;}
	.st5{fill:#1E5884;}
	.st6{fill:none;stroke:#110A03;stroke-width:2.1624;stroke-linecap:round;stroke-miterlimit:10;}
	.st7{fill:#F15A24;}
	.st8{fill-rule:evenodd;clip-rule:evenodd;fill:#0A0C35;}
	.st9{fill:#FBB03B;}
	.st10{fill:#FFFFFF;}
	.st11{fill:#0A0C35;}
	.st12{fill:none;stroke:#FFFFFF;stroke-width:2.1624;stroke-linecap:round;stroke-miterlimit:10;}
	.st13{fill:#C1272D;}
	.st14{fill:none;stroke:#FDCE34;stroke-width:8.2069;stroke-miterlimit:10;}
	.st15{fill:#63151B;}
	.st16{fill:#EF98C0;}
	.st17{fill:#662D91;}
	.st18{fill:#FDCE34;}
	.st19{fill:#304F9D;}
	.st20{fill:#C7B299;}
	.st21{fill:#29ABE2;}
	.st22{fill:#F7931E;}
	.st23{fill:none;stroke:#FFFFFF;stroke-width:1.8913;stroke-miterlimit:10;}
</style>
<path class="st0" d="M521.9,323.1l-5.2,46.1h48.9L549,320.2L521.9,323.1z"/>
<path class="st1" d="M559.9,351.6c0,0-6.7,18.1-20.4,18.1c-13.7,0-21.2-14.6-21.2-14.6l-96.5,49.6l-11.7,102.2l253.5,1.3
	l-22.1-129.4L559.9,351.6z"/>
<path class="st2" d="M554,319.7c0,0-2.8,8.4-18.7,8.4c-15.9,0-18.5-9-18.5-9S551.5,312.5,554,319.7z"/>
<path class="st0" d="M599.6,155.9l7,83.4c0.5,5.7-0.1,11.5-1.6,17.1l-7.1,25.4c-1.9,6.9-5.3,13.2-10,18.6
	c-4.6,5.4-10.4,9.7-16.9,12.6l-16,7.1c-6,2.6-12.4,4-18.9,4.1c-6.5,0.1-13-1.2-19-3.7l-11.6-4.9c-6.9-2.9-13.1-7.3-17.9-13
	c-4.9-5.7-8.4-12.4-10.2-19.7l-9.1-36.1c-2-7.8-2-15.9,0-23.6l14.5-58.2c2.3-9.3,7.2-17.6,14.3-24.1c7-6.4,15.8-10.6,25.2-12
	c4.7-0.7,9.5-0.8,14.2-0.3C560.9,131.3,597,130,599.6,155.9z"/>
<path class="st3" d="M539,235.1h-8.2c-3.4,0-6.2,2.9-6.2,6.5v17.3c0,3.6,2.8,6.5,6.2,6.5h8.2c3.4,0,6.2-2.9,6.2-6.5v-17.3
	C545.2,238,542.4,235.1,539,235.1z"/>
<path class="st4" d="M512.9,232.8c0,0-5-9.9-14.9-8.3c-9.9,1.6-11.6,11.6-11.6,11.6"/>
<path class="st4" d="M586.3,237.1c0,0-1.5-11.6-12.3-13.5s-16.1,7.4-16.1,7.4"/>
<path class="st5" d="M602.1,268.4c10.9-18.7,19.4-38.8,25.3-59.6c8.9-32.9-5.5-57.6-5.5-57.6s-6.5,28.7-17,28.7
	c-10.5,0,24.9-48.2,14.4-67.8c0,0-7.2,20.2-12.1,14c-4.9-6.2,8.6-30.3-9.9-37.1c0,0,3.7,19.2-14.6,14c-18.3-5.2,9.2-16.9,9.2-24.8
	s-9.2-18.2-9.2-18.2s4.4,19.8-6.3,26.2c-10.7,6.4-26.4,7.7-25.1,16.8c0,0-2.2-11.9,5.5-19.5s-10.5-13.9-10.5-13.9s2.8,14-5.2,22.5
	c-8.1,8.5-22.5,13.6-19.8,20.1c0,0-4.8-10.2,2.8-29.2c7.6-19-15.9-26.8-15.9-26.8s-3.9,32.6-17,50.8s-23.6,56-19.6,69.1
	c0,0-9.5-9.7-0.8-35.5c8.7-25.8-5.2-26.1-5.2-26.1s-7,53.7-12.2,75.8c-5.2,22.2,12.2,45.8,12.2,45.8c5.6-4.7,10.3-10.5,13.6-17
	c3.3-6.5,5.2-13.7,5.6-21c1.3-24.8,21.4-35.1,31.6-23.5c10.3,11.6-8.1,10.4-8.1,10.4s24,15.5,31-8.5c7-24.1,35.6-2.3,33.1,8.5
	c-2.5,10.9,9.8,15.8,13.4,14.4c3.6-1.4,10.6,21.9,8.4,42.8C591.8,263.2,602.1,268.4,602.1,268.4z"/>
<path class="st6" d="M554,293.6c0,0-20.3,5.8-34.9-1.5c-14.6-7.2-18.9-13-18.9-13"/>
<path class="st7" d="M224.3,282.1l2,43.9l-48-3l13.5-44L224.3,282.1z"/>
<path class="st4" d="M224.3,284.7c0,0-4.7,9.3-12.1,9.3s-20.9-10.9-20.9-10.9l1.8-6.1l30.8,4.6L224.3,284.7z"/>
<path class="st7" d="M279.6,197.8c-1.8-1.1-3.9-1.8-6-1.9l1.1-39.5c0.1-2.3-0.3-4.5-1.2-6.6c-0.9-2.1-2.1-4-3.8-5.6l-21.7-20.9
	c-3-2.9-6.9-4.5-11.1-4.5h-67.1c-2.4,0-4.7,0.5-6.9,1.6c-2.2,1-4.1,2.5-5.6,4.4l-10.9,13.5c-2.5,3.1-3.7,6.9-3.6,10.9l2,51.2
	c-1.4-2.7-5.1-7.1-12.8-2.7c-10,5.8-3.7,41.7,13.8,28.2l0.9,22.6c0.1,3,1,5.8,2.7,8.3c1.6,2.5,3.9,4.4,6.5,5.7l47.4,22.8
	c2.2,1.1,4.6,1.6,7,1.6c2.4,0,4.8-0.5,7-1.6l46-22.6c2.6-1.3,4.9-3.3,6.5-5.8c1.6-2.5,2.5-5.4,2.6-8.3l0.5-19.6
	C284.7,229.8,288.1,202.8,279.6,197.8z"/>
<path class="st8" d="M146.1,225c0,0,0.2-79.4,22.9-82.4c0,0,63.6-3,81.7,1.5c18.2,4.5,22.3,75,22.3,75s18.6-70.5,8-88.6
	c-10.6-18.2-46.9-25.8-68.1-24.3c0,0-12.1-16.7-48.4-7.6C128.2,107.8,142.4,192.3,146.1,225z"/>
<path class="st9" d="M203.5,210.8c2.3-3.8,12.6-3.7,14.5,0.1c0,0.1,0.1,0.1,0.1,0.2c3.1,6.5,10.7,21.9-1.5,21.9s-18.3,0.8-18.3-7.3
	C198.3,220.7,201.3,214.7,203.5,210.8z"/>
<path class="st4" d="M191.3,193.9c0,0-4.3-9.3-13-7.8c-8.6,1.5-10.1,10.8-10.1,10.8"/>
<path class="st4" d="M256.3,199c0,0-1.3-11-10.4-12.8c-9.1-1.8-13.6,7.1-13.6,7.1"/>
<path class="st0" d="M228.4,324.7l70,24.5l15.9,159H67.2l36.4-171.3l68.5-16.8h30.4L228.4,324.7z"/>
<path class="st10" d="M231.1,310.1l-27.8,9.2l9.3,19.8l24.7-13.7L231.1,310.1z"/>
<path class="st10" d="M178.5,307.1l24.7,12.2l-20.1,19.8l-13.9-18.3L178.5,307.1z"/>
<path class="st11" d="M145.7,217.3c0,0,9.8,7.9,34.5,18.4c24.7,10.5,40.2,7,43,6.7c2.8-0.3,14.7,0.2,26-12.1
	c11.3-12.3,23.5-12,24-18.2c0,0,15,50.3-20.7,61.1c-35.7,10.8-31.4,17-41.5,17.9c-10.1,0.9-36.6-16.7-51.1-19.4
	C145.3,269,139.5,242.2,145.7,217.3z"/>
<path class="st12" d="M229.3,258.6c0,0-21.5,6.6-37-1.7c-15.5-8.3-20-14.9-20-14.9"/>
<path class="st13" d="M423.7,228.5c0,0,21.2-13.3,21.2,11.4s-13.5,26.7-21.2,20.9C416,255.1,423.7,228.5,423.7,228.5z"/>
<path class="st14" d="M433.5,253c6.2,3.6,10.5,12.1,10.5,21.9c0,13.1-7.7,23.8-17.1,23.8c-9.5,0-17.1-10.6-17.1-23.8
	c0-2,0.2-4,0.6-6"/>
<path class="st13" d="M299.3,228.5c0,0-20.4-13.3-20.4,11.4s13,26.7,20.4,20.9C306.7,255.1,299.3,228.5,299.3,228.5z"/>
<path class="st14" d="M289.3,253c-6.2,3.6-10.5,12.1-10.5,21.9c0,13.1,7.7,23.8,17.1,23.8c9.5,0,17.1-10.6,17.1-23.8
	c0-2-0.2-4-0.6-6"/>
<path class="st13" d="M346,334.1l-17,41.8h64.1l-11.8-46.5l-33.1,4.6L346,334.1z"/>
<path class="st15" d="M382.5,334.4c0,0-2.7,8.2-18.1,8.2c-15.4,0-17.9-8.7-17.9-8.7S380.1,327.5,382.5,334.4z"/>
<path class="st13" d="M392.7,155.2c-12.4-5.1-26.1-5.4-38.7-0.9c-22,7.5-58.7,27.4-57.5,77.5c1.7,71.4,8.6,95.8,61.6,104
	s66.8-51,68.5-85.6C428.1,220.4,430.9,171.2,392.7,155.2z"/>
<path class="st16" d="M385.8,352.3c0,0-7.8,18.4-23.9,18.4c-16.1,0-24.8-14.8-24.8-14.8l-113.1,50.3l-13.7,103.8l296.9,1.3
	l-25.9-131.4L385.8,352.3z"/>
<path class="st16" d="M356.2,239.9c0.5-1.6,1.5-2.9,2.8-3.9c1.3-1,3-1.5,4.6-1.4c1.7,0,3.3,0.6,4.6,1.6c1.3,1,2.3,2.4,2.7,4
	c0,0.1,0.1,0.2,0.1,0.4c3.1,12.3,10.9,41.4-1.6,41.4c-12.4,0-18.6,1.5-18.6-13.8C350.9,258.5,353.9,247.1,356.2,239.9z"/>
<path class="st4" d="M344.8,235.1c0,0-4.5-8.9-13.4-7.4c-8.9,1.5-10.4,10.4-10.4,10.4"/>
<path class="st4" d="M408,239c0,0-1.2-10.4-9.9-12.1c-8.7-1.7-13,6.7-13,6.7"/>
<path class="st6" d="M376.4,296.5c0,0-20.6,5.8-35.3-1.5c-14.7-7.3-19.1-13-19.1-13"/>
<path class="st11" d="M1216.5,256.8c2-10.2-2.6-19.4-10.2-28.2c-13.5-15.4-13.5-21.5-0.2-36.4c8.6-9.6,11.4-19.8,10.5-32.5
	c-1.5-19.9,1.5-24,21.1-28.4c12.6-2.8,21-9,27.5-20c9.8-16.5,15.1-18.3,32.6-11.1c12.1,5,23.1,5.7,35.5,0.4
	c18.4-7.8,23.9-6.1,33.8,10.9c7.1,12.2,17.3,17.7,30.3,20.9c16.7,4.2,20.7,9.4,18.5,26.3c-1.7,13.3,1.7,23.7,10.5,33.7
	c13.1,14.9,13.1,20.7,0.3,35.4c-8.6,9.9-12.6,20.1-10.8,33.6c2.4,16.9-2.4,23.6-19.3,27.1c-14.2,2.9-24,9.9-30.5,22.6
	c-6.5,12.7-16.8,16.5-29.7,10.1c-13.8-6.8-26.8-6.9-40.7,0c-12.1,6.1-22.5,3.4-28.7-9.1c-6.8-13.8-17.5-20.9-32.6-24
	C1218,284.7,1215.9,279.7,1216.5,256.8z"/>
<path class="st17" d="M1376.5,235.7c0,0,20.5-12.9,20.5,11.1s-13.1,25.9-20.5,20.3C1369.1,261.5,1376.5,235.7,1376.5,235.7z"/>
<path class="st17" d="M1256.7,235.7c0,0-20.5-12.9-20.5,11.1s13.1,25.9,20.5,20.3C1264.1,261.5,1256.7,235.7,1256.7,235.7z"/>
<path class="st17" d="M1302,338.1l-16.5,40.6h62.1l-11.4-45.1l-32.1,4.5L1302,338.1z"/>
<path class="st15" d="M1337.4,338.3c0,0-2.7,7.9-18,7.9c-15.3,0-17.8-8.5-17.8-8.5S1335,331.6,1337.4,338.3z"/>
<path class="st17" d="M1346.5,164.6c-12-4.9-25.3-5.2-37.5-0.9c-21.3,7.2-56.9,26.6-55.8,75.1c1.7,69.2,8.3,92.9,59.7,100.8
	c51.4,7.9,64.7-49.4,66.4-83C1380.7,227.8,1383.4,180.1,1346.5,164.6z"/>
<path class="st16" d="M1340.6,355.6c0,0-7.6,17.8-23.1,17.8c-15.6,0-24-14.4-24-14.4l-109.6,48.8l-13.3,100.6l287.7,1.3l-25.1-127.3
	L1340.6,355.6z"/>
<path class="st4" d="M1296.6,245.5c0,0-4.3-8.6-12.9-7.2c-8.6,1.4-10,10.1-10,10.1"/>
<path class="st4" d="M1357.9,249.2c0,0-1.2-10.1-9.6-11.7c-8.4-1.6-12.6,6.5-12.6,6.5"/>
<path class="st6" d="M1334,301.6c0,0-20.6,5.6-35.3-1.4c-14.8-7-19.2-12.6-19.2-12.6"/>
<path class="st18" d="M1383.2,268c0.2-1,0.7-1.8,1.4-2.4c0.8-0.6,1.7-1,2.7-1c1,0,1.9,0.3,2.7,1c0.8,0.6,1.3,1.5,1.5,2.4
	c2.7,14.5,8.1,37.2,17.1,51.8c14.1,22.9-28.2,39.6-27.6,21.1C1381.5,326.8,1379.3,289.1,1383.2,268z"/>
<path class="st18" d="M1249.1,268c-0.2-1-0.7-1.8-1.4-2.5c-0.7-0.6-1.7-1-2.6-1c-1,0-1.9,0.3-2.6,1c-0.7,0.6-1.2,1.5-1.4,2.5
	c-2.7,14.5-7.9,37.2-16.6,51.8c-13.7,22.9,27.4,39.6,26.8,21.1C1250.8,326.9,1253,289.1,1249.1,268z"/>
<path class="st16" d="M1320,274.8c8.2,0,14.9-4.4,14.9-9.8c0-5.4-6.7-9.8-14.9-9.8c-8.2,0-14.9,4.4-14.9,9.8
	C1305.1,270.4,1311.8,274.8,1320,274.8z"/>
<path class="st11" d="M1380,250.9c0,0-14.2-2.9-10.4-22c0,0-12.7-7.6-8.9-15.3c0,0-13.6-0.4-13.1-11.6c0,0-7.2,9.1-21.2,0.2
	c0,0-6.4,8.9-16.6,5.1c0,0-7.6,16.1-24.8,7.4c0,0-3.2,19.3-17.2,14.2c0,0-5.9,14-14.4,3.2c-8.5-10.8-18.7-1.9-20-24.8
	c0,0-21.6-16.5-3.8-36.9c0,0-6.8-33.2,18.9-35c0,0,19.8-29.5,48.2-10c0,0,15.8-26.6,45.6-6.7c0,0,36.2-17,47.7,14.8
	c0,0,25,20.4,9.9,39.4c0,0,6.4,27.6-14.5,32.2c0,0,8.1,6.9,0,20.4C1385.3,225.6,1389.1,241.1,1380,250.9z"/>
<path class="st1" d="M887.2,283.1l2,44l-48-3l13.5-44L887.2,283.1z"/>
<path class="st4" d="M888.2,284.7c0,0-5,9.3-12.8,9.3c-7.8,0-22.2-10.9-22.2-10.9l2-6.1l32.7,4.6L888.2,284.7z"/>
<path class="st1" d="M943.4,198.2c-1.8-1.2-3.9-1.8-6.1-1.9l1.1-39.7c0.1-2.3-0.4-4.6-1.2-6.7c-0.9-2.1-2.2-4-3.8-5.6l-22-21
	c-3-2.9-7-4.5-11.2-4.5h-68c-2.4,0-4.8,0.5-7,1.6c-2.2,1-4.1,2.6-5.6,4.4l-11,13.6c-2.5,3.1-3.8,7-3.6,10.9l2,51.5
	c-1.4-2.7-5.2-7.2-12.9-2.7c-10.1,5.8-3.8,42,13.9,28.4l0.9,22.8c0.1,3,1.1,5.9,2.7,8.3c1.6,2.5,3.9,4.5,6.6,5.7l48,22.9
	c2.2,1.1,4.6,1.6,7.1,1.6c2.4,0,4.9-0.6,7.1-1.6l46.6-22.7c2.7-1.3,4.9-3.3,6.5-5.8c1.6-2.5,2.5-5.4,2.6-8.4l0.5-19.7
	C948.7,230.4,952.1,203.2,943.4,198.2z"/>
<path class="st8" d="M808.2,203.1c0,0,2.2-57.1,24.9-60.2c0,0,63.6-3,81.7,1.5c18.2,4.6,22.3,75.5,22.3,75.5s18.6-71,7.9-89.3
	c-10.7-18.3-46.9-26-68.1-24.4c0,0-12.1-16.8-48.4-7.6C792.1,107.7,804.4,170.1,808.2,203.1z"/>
<path class="st16" d="M866.4,200.2c0.5-1.6,1.5-2.9,2.8-3.9c1.3-1,2.9-1.5,4.6-1.4c1.6,0,3.2,0.6,4.5,1.6c1.3,1,2.2,2.4,2.7,4
	c0,0.1,0.1,0.2,0.1,0.4c3.1,12.2,10.7,41.1-1.5,41.1c-12.2,0-18.3,1.5-18.3-13.7C861.2,218.7,864.2,207.3,866.4,200.2z"/>
<path class="st4" d="M856.2,194.8c0,0-4.7-9.3-14.1-7.8c-9.4,1.5-10.9,10.8-10.9,10.8"/>
<path class="st4" d="M919.2,198.9c0,0-1.3-10.2-10.4-11.8c-9.1-1.6-13.6,6.5-13.6,6.5"/>
<path class="st18" d="M891.7,325.6l69.7,24.3l15.8,158.2H731.1l36.3-170.4l68.2-16.7h30.3L891.7,325.6z"/>
<path class="st6" d="M891.2,255.7c0,0-21.2,5.9-36.4-1.5c-15.2-7.4-19.7-13.3-19.7-13.3"/>
<path class="st10" d="M893,311l-27.8,9.2l9.3,19.9l24.7-13.7L893,311z"/>
<path class="st10" d="M841.9,308l23.3,12.2L846.3,340l-13.1-18.3L841.9,308z"/>
<path class="st19" d="M753.2,249.8c0,0,18.9-12.3,18.9,10.5c0,22.8-12,24.6-18.9,19.2C746.4,274.2,753.2,249.8,753.2,249.8z"/>
<path class="st19" d="M639.5,249.8c0,0-19.6-12.3-19.6,10.5c0,22.8,12.5,24.6,19.6,19.2C646.6,274.2,639.5,249.8,639.5,249.8z"/>
<path class="st19" d="M681.4,346.5l-16,38.5h60.2l-11.1-42.9l-31.1,4.2L681.4,346.5z"/>
<path class="st2" d="M715.6,346.9c0,0-2.5,7.2-16.9,7.2c-14.4,0-16.8-7.7-16.8-7.7S713.3,340.8,715.6,346.9z"/>
<path class="st19" d="M724.8,181.8c-11.4-4.7-24-5-35.6-0.8c-20.2,6.9-54,25.2-52.9,71.3c1.6,65.7,7.9,88.2,56.7,95.7
	c48.8,7.5,61.4-46.9,63-78.8C757.3,241.8,759.9,196.5,724.8,181.8z"/>
<path class="st20" d="M718.9,363.2c0,0-7.2,17-21.9,17c-14.8,0-22.8-13.7-22.8-13.7l-103.8,46.5l-12.6,95.9l272.7,1.2l-23.8-121.3
	L718.9,363.2z"/>
<path class="st4" d="M680,255.5c0,0-4.1-8.5-12.3-7.1c-8.2,1.4-9.6,9.9-9.6,9.9"/>
<path class="st4" d="M738.4,259.2c0,0-1.1-10-9.1-11.6s-11.9,6.4-11.9,6.4"/>
<path class="st6" d="M710.1,311.9c0,0-19.6,5.4-33.7-1.4c-14.1-6.7-18.3-12.1-18.3-12.1"/>
<path class="st16" d="M699.6,290.2c7.8,0,14.1-3.9,14.1-8.7c0-4.8-6.3-8.7-14.1-8.7c-7.8,0-14.1,3.9-14.1,8.7
	C685.5,286.4,691.8,290.2,699.6,290.2z"/>
<path class="st18" d="M1057.1,336.2l-4.9,44.1h46.1l-15.8-46.9L1057.1,336.2z"/>
<path class="st21" d="M1093.9,361.7c0,0-6.2,16.9-19,16.9s-19.7-13.7-19.7-13.7l-89.9,46.3l-10.9,95.5l236,1.2l-20.6-120.9
	L1093.9,361.7z"/>
<path class="st15" d="M1089.4,346.1c0,0-2.6,7.5-17.4,7.5c-14.8,0-17.3-8-17.3-8S1087.1,339.7,1089.4,346.1z"/>
<path class="st7" d="M980.2,262.5c1.9-9.7-2.4-18.5-9.7-27c-12.7-14.7-12.8-20.5-0.2-34.9c8.1-9.2,10.8-19,9.9-31
	c-1.4-19,1.4-23,19.9-27.2c11.9-2.7,19.9-8.6,26-19.2c9.2-15.8,14.2-17.5,30.8-10.6c11.5,4.8,21.8,5.4,33.6,0.4
	c17.4-7.5,22.6-5.8,32,10.4c6.7,11.7,16.3,16.9,28.6,20c15.8,4,19.5,9,17.5,25.1c-1.6,12.7,1.6,22.6,10,32.2
	c12.4,14.3,12.4,19.8,0.3,33.8c-8.2,9.5-12,19.3-10.2,32.1c2.2,16.2-2.3,22.6-18.3,25.9c-13.4,2.8-22.7,9.5-28.8,21.6
	c-6.2,12.2-15.9,15.8-28.1,9.7c-13-6.5-25.4-6.6-38.5,0c-11.5,5.9-21.3,3.2-27.2-8.7c-6.5-13.2-16.6-20-30.9-22.9
	C981.7,289.2,979.6,284.4,980.2,262.5z"/>
<path class="st18" d="M1153.8,253.6c0,0,9.1,96-74.9,96c-84,0-84-59.4-81.7-109.7s13.3-89.5,78.2-100.8
	C1140.2,127.9,1153.8,194.2,1153.8,253.6z"/>
<path class="st4" d="M1053.9,244.6c0,0-4.6-9.5-13.6-8c-9.1,1.6-10.6,11.1-10.6,11.1"/>
<path class="st4" d="M1121.8,248.6c0,0-1.4-11-11.2-12.7c-9.8-1.7-14.7,7-14.7,7"/>
<path class="st22" d="M1073.2,242.9c-1.9,1.1-3.4,2.7-4.7,4.5c-1.2,1.8-2,3.9-2.3,6.1c-1.7,10.1-6.5,19.5-13.7,26.7
	c-14.6,14.8,19.9,23.7,25.8,15.3C1083.8,287.8,1093.2,231.1,1073.2,242.9z"/>
<path class="st6" d="M1078.1,318.4c0,0-19.2,5.6-33-1.4c-13.8-7-17.9-12.6-17.9-12.6"/>
<path class="st23" d="M1035.7,268.8c15,0,27.1-12.3,27.1-27.5c0-15.2-12.1-27.5-27.1-27.5c-14.9,0-27.1,12.3-27.1,27.5
	C1008.6,256.5,1020.7,268.8,1035.7,268.8z"/>
<path class="st23" d="M1116.9,268.8c15.2,0,27.5-12.3,27.5-27.5c0-15.2-12.3-27.5-27.5-27.5s-27.5,12.3-27.5,27.5
	C1089.4,256.5,1101.7,268.8,1116.9,268.8z"/>
<path class="st23" d="M1089.4,236.6c0,0-6-7.6-14.5-7.4c-8.6,0.2-12.1,8.9-12.1,8.9"/>
</svg>
