<svg width="370" height="355" viewBox="0 0 370 355" fill="none" xmlns="http://www.w3.org/2000/svg">
<g filter="url(#filter0_d_250_17253)">
<mask id="mask0_250_17253" style="mask-type:alpha" maskUnits="userSpaceOnUse" x="6" y="0" width="358" height="342">
<rect x="6" width="358" height="342" rx="23" fill="#D9D9D9"/>
</mask>
<g mask="url(#mask0_250_17253)">
<rect x="6" width="358" height="342" rx="23" fill="#A0E0FB"/>
</g>
<path d="M6 270H364V319C364 331.703 353.703 342 341 342H29C16.2975 342 6 331.703 6 319V270Z" fill="white"/>
<path d="M114.627 311.24C113.593 311.24 112.713 311.037 111.987 310.63C111.267 310.217 110.683 309.663 110.237 308.97C109.797 308.277 109.47 307.5 109.257 306.64C109.05 305.773 108.947 304.893 108.947 304C108.947 303.1 109.053 302.223 109.267 301.37C109.487 300.51 109.823 299.733 110.277 299.04C110.737 298.34 111.323 297.787 112.037 297.38C112.757 296.967 113.617 296.76 114.617 296.76C115.45 296.76 116.15 296.88 116.717 297.12C117.29 297.353 117.753 297.657 118.107 298.03C118.467 298.397 118.753 298.783 118.967 299.19L117.717 299.85C117.51 299.523 117.273 299.227 117.007 298.96C116.747 298.693 116.423 298.48 116.037 298.32C115.657 298.16 115.183 298.08 114.617 298.08C113.857 298.08 113.207 298.253 112.667 298.6C112.133 298.947 111.7 299.407 111.367 299.98C111.033 300.553 110.79 301.19 110.637 301.89C110.483 302.59 110.407 303.293 110.407 304C110.407 304.74 110.487 305.463 110.647 306.17C110.807 306.87 111.057 307.503 111.397 308.07C111.737 308.63 112.173 309.077 112.707 309.41C113.24 309.743 113.88 309.91 114.627 309.91C115.453 309.91 116.117 309.727 116.617 309.36C117.123 308.993 117.527 308.547 117.827 308.02L119.107 308.51C118.88 308.997 118.567 309.447 118.167 309.86C117.773 310.273 117.283 310.607 116.697 310.86C116.11 311.113 115.42 311.24 114.627 311.24ZM126.485 311.24C125.138 311.24 124.075 310.763 123.295 309.81C122.515 308.85 122.125 307.547 122.125 305.9C122.125 304.8 122.302 303.85 122.655 303.05C123.008 302.25 123.512 301.633 124.165 301.2C124.818 300.76 125.592 300.54 126.485 300.54C127.385 300.54 128.162 300.757 128.815 301.19C129.468 301.617 129.968 302.23 130.315 303.03C130.668 303.83 130.845 304.78 130.845 305.88C130.845 306.98 130.668 307.933 130.315 308.74C129.962 309.54 129.458 310.157 128.805 310.59C128.152 311.023 127.378 311.24 126.485 311.24ZM126.485 309.92C127.405 309.92 128.122 309.563 128.635 308.85C129.155 308.137 129.415 307.147 129.415 305.88C129.415 304.607 129.155 303.617 128.635 302.91C128.122 302.203 127.405 301.85 126.485 301.85C125.552 301.85 124.828 302.203 124.315 302.91C123.808 303.61 123.555 304.607 123.555 305.9C123.555 307.173 123.812 308.163 124.325 308.87C124.838 309.57 125.558 309.92 126.485 309.92ZM134.212 311V300.78H135.612V302.09C135.899 301.59 136.279 301.207 136.752 300.94C137.232 300.673 137.775 300.54 138.382 300.54C139.575 300.54 140.462 300.91 141.042 301.65C141.622 302.383 141.912 303.5 141.912 305V311H140.512V304.75C140.512 303.797 140.312 303.073 139.912 302.58C139.512 302.08 138.932 301.83 138.172 301.83C137.332 301.83 136.695 302.087 136.262 302.6C135.829 303.113 135.612 303.87 135.612 304.87V311H134.212ZM148.29 311.24C147.617 311.24 147.104 311.037 146.75 310.63C146.404 310.217 146.23 309.62 146.23 308.84V302.01H144.54V300.78H146.23V297.24L147.63 296.56V300.78H150.17V302.01H147.63V308.42C147.63 308.953 147.717 309.34 147.89 309.58C148.07 309.813 148.357 309.93 148.75 309.93C149.23 309.93 149.734 309.757 150.26 309.41L150.1 310.79C149.834 310.943 149.547 311.057 149.24 311.13C148.934 311.203 148.617 311.24 148.29 311.24ZM157.097 311.24C156.19 311.24 155.407 311.017 154.747 310.57C154.094 310.117 153.59 309.487 153.237 308.68C152.884 307.873 152.707 306.94 152.707 305.88C152.707 304.753 152.89 303.793 153.257 303C153.63 302.2 154.147 301.59 154.807 301.17C155.467 300.75 156.23 300.54 157.097 300.54C157.85 300.54 158.534 300.717 159.147 301.07C159.76 301.423 160.247 301.97 160.607 302.71C160.967 303.45 161.147 304.4 161.147 305.56C161.147 305.68 161.144 305.817 161.137 305.97C161.13 306.117 161.12 306.27 161.107 306.43H154.157C154.21 307.137 154.354 307.757 154.587 308.29C154.827 308.817 155.157 309.233 155.577 309.54C156.004 309.84 156.527 309.99 157.147 309.99C157.567 309.99 157.97 309.917 158.357 309.77C158.744 309.617 159.104 309.383 159.437 309.07L160.257 310.01C159.884 310.363 159.424 310.657 158.877 310.89C158.337 311.123 157.744 311.24 157.097 311.24ZM154.137 305.2H159.717C159.717 304.567 159.62 303.99 159.427 303.47C159.24 302.95 158.95 302.537 158.557 302.23C158.17 301.923 157.684 301.77 157.097 301.77C156.304 301.77 155.627 302.043 155.067 302.59C154.514 303.137 154.204 304.007 154.137 305.2ZM164.638 311V300.78H166.038V302.09C166.324 301.59 166.704 301.207 167.178 300.94C167.658 300.673 168.201 300.54 168.808 300.54C170.001 300.54 170.888 300.91 171.468 301.65C172.048 302.383 172.338 303.5 172.338 305V311H170.938V304.75C170.938 303.797 170.738 303.073 170.338 302.58C169.938 302.08 169.358 301.83 168.598 301.83C167.758 301.83 167.121 302.087 166.688 302.6C166.254 303.113 166.038 303.87 166.038 304.87V311H164.638ZM176.369 311V300.78H177.769V311H176.369ZM177.059 298.73C176.806 298.73 176.589 298.64 176.409 298.46C176.236 298.28 176.149 298.063 176.149 297.81C176.149 297.543 176.236 297.32 176.409 297.14C176.589 296.953 176.806 296.86 177.059 296.86C177.326 296.86 177.546 296.953 177.719 297.14C177.899 297.32 177.989 297.543 177.989 297.81C177.989 298.063 177.899 298.28 177.719 298.46C177.546 298.64 177.326 298.73 177.059 298.73ZM185.348 311.24C184.081 311.24 183.078 310.76 182.338 309.8C181.605 308.833 181.238 307.527 181.238 305.88C181.238 304.773 181.405 303.823 181.738 303.03C182.071 302.23 182.548 301.617 183.168 301.19C183.795 300.757 184.538 300.54 185.398 300.54C186.458 300.54 187.355 300.947 188.088 301.76V297.23L189.488 296.56V311H188.088V309.98C187.375 310.82 186.461 311.24 185.348 311.24ZM185.558 309.92C186.058 309.92 186.535 309.777 186.988 309.49C187.441 309.197 187.808 308.8 188.088 308.3V303.4C187.788 302.92 187.411 302.543 186.958 302.27C186.511 301.99 186.045 301.85 185.558 301.85C184.638 301.85 183.925 302.2 183.418 302.9C182.918 303.593 182.668 304.587 182.668 305.88C182.668 306.673 182.791 307.373 183.038 307.98C183.285 308.587 183.625 309.063 184.058 309.41C184.491 309.75 184.991 309.92 185.558 309.92ZM197.29 311.24C195.943 311.24 194.88 310.763 194.1 309.81C193.32 308.85 192.93 307.547 192.93 305.9C192.93 304.8 193.106 303.85 193.46 303.05C193.813 302.25 194.316 301.633 194.97 301.2C195.623 300.76 196.396 300.54 197.29 300.54C198.19 300.54 198.966 300.757 199.62 301.19C200.273 301.617 200.773 302.23 201.12 303.03C201.473 303.83 201.65 304.78 201.65 305.88C201.65 306.98 201.473 307.933 201.12 308.74C200.766 309.54 200.263 310.157 199.61 310.59C198.956 311.023 198.183 311.24 197.29 311.24ZM197.29 309.92C198.21 309.92 198.926 309.563 199.44 308.85C199.96 308.137 200.22 307.147 200.22 305.88C200.22 304.607 199.96 303.617 199.44 302.91C198.926 302.203 198.21 301.85 197.29 301.85C196.356 301.85 195.633 302.203 195.12 302.91C194.613 303.61 194.36 304.607 194.36 305.9C194.36 307.173 194.616 308.163 195.13 308.87C195.643 309.57 196.363 309.92 197.29 309.92ZM210.204 315.06V300.78H211.604V301.85C212.331 300.977 213.264 300.54 214.404 300.54C215.244 300.54 215.971 300.757 216.584 301.19C217.197 301.623 217.671 302.24 218.004 303.04C218.337 303.84 218.504 304.787 218.504 305.88C218.504 306.98 218.334 307.933 217.994 308.74C217.661 309.54 217.181 310.157 216.554 310.59C215.934 311.023 215.197 311.24 214.344 311.24C213.771 311.24 213.254 311.12 212.794 310.88C212.334 310.633 211.937 310.273 211.604 309.8V314.39L210.204 315.06ZM214.204 309.92C215.124 309.92 215.831 309.57 216.324 308.87C216.817 308.17 217.064 307.173 217.064 305.88C217.064 304.64 216.804 303.66 216.284 302.94C215.771 302.213 215.077 301.85 214.204 301.85C213.657 301.85 213.157 301.987 212.704 302.26C212.251 302.533 211.884 302.92 211.604 303.42V308.27C211.957 308.81 212.354 309.22 212.794 309.5C213.234 309.78 213.704 309.92 214.204 309.92ZM225.088 311.24C224.008 311.24 223.161 310.94 222.548 310.34C221.934 309.733 221.628 308.9 221.628 307.84C221.628 307.16 221.778 306.57 222.078 306.07C222.384 305.57 222.814 305.187 223.368 304.92C223.928 304.647 224.588 304.51 225.348 304.51C225.848 304.51 226.324 304.573 226.778 304.7C227.238 304.827 227.681 305.017 228.108 305.27V304.29C228.108 303.423 227.918 302.787 227.538 302.38C227.164 301.973 226.581 301.77 225.788 301.77C225.314 301.77 224.811 301.86 224.278 302.04C223.751 302.213 223.251 302.46 222.778 302.78L222.368 301.6C222.908 301.26 223.491 301 224.118 300.82C224.744 300.633 225.358 300.54 225.958 300.54C227.104 300.54 227.971 300.84 228.558 301.44C229.144 302.04 229.438 302.923 229.438 304.09V311H228.108V309.84C227.701 310.287 227.234 310.633 226.708 310.88C226.188 311.12 225.648 311.24 225.088 311.24ZM225.268 310.01C225.781 310.01 226.281 309.877 226.768 309.61C227.254 309.337 227.701 308.947 228.108 308.44V306.53C227.714 306.277 227.288 306.083 226.828 305.95C226.374 305.81 225.934 305.74 225.508 305.74C224.741 305.74 224.128 305.933 223.668 306.32C223.214 306.7 222.988 307.21 222.988 307.85C222.988 308.51 223.191 309.037 223.598 309.43C224.004 309.817 224.561 310.01 225.268 310.01ZM233.431 311V300.78H234.831V302.4C235.084 301.8 235.434 301.34 235.881 301.02C236.334 300.7 236.857 300.54 237.451 300.54C238.064 300.54 238.564 300.703 238.951 301.03L238.741 302.36C238.541 302.22 238.321 302.117 238.081 302.05C237.847 301.983 237.594 301.95 237.321 301.95C236.827 301.95 236.394 302.09 236.021 302.37C235.647 302.65 235.354 303.04 235.141 303.54C234.934 304.033 234.831 304.61 234.831 305.27V311H233.431ZM244.134 311.24C243.054 311.24 242.208 310.94 241.594 310.34C240.981 309.733 240.674 308.9 240.674 307.84C240.674 307.16 240.824 306.57 241.124 306.07C241.431 305.57 241.861 305.187 242.414 304.92C242.974 304.647 243.634 304.51 244.394 304.51C244.894 304.51 245.371 304.573 245.824 304.7C246.284 304.827 246.728 305.017 247.154 305.27V304.29C247.154 303.423 246.964 302.787 246.584 302.38C246.211 301.973 245.628 301.77 244.834 301.77C244.361 301.77 243.858 301.86 243.324 302.04C242.798 302.213 242.298 302.46 241.824 302.78L241.414 301.6C241.954 301.26 242.538 301 243.164 300.82C243.791 300.633 244.404 300.54 245.004 300.54C246.151 300.54 247.018 300.84 247.604 301.44C248.191 302.04 248.484 302.923 248.484 304.09V311H247.154V309.84C246.748 310.287 246.281 310.633 245.754 310.88C245.234 311.12 244.694 311.24 244.134 311.24ZM244.314 310.01C244.828 310.01 245.328 309.877 245.814 309.61C246.301 309.337 246.748 308.947 247.154 308.44V306.53C246.761 306.277 246.334 306.083 245.874 305.95C245.421 305.81 244.981 305.74 244.554 305.74C243.788 305.74 243.174 305.933 242.714 306.32C242.261 306.7 242.034 307.21 242.034 307.85C242.034 308.51 242.238 309.037 242.644 309.43C243.051 309.817 243.608 310.01 244.314 310.01ZM260.833 311.24C259.566 311.24 258.563 310.76 257.823 309.8C257.089 308.833 256.723 307.527 256.723 305.88C256.723 304.773 256.889 303.823 257.223 303.03C257.556 302.23 258.033 301.617 258.653 301.19C259.279 300.757 260.023 300.54 260.883 300.54C261.943 300.54 262.839 300.947 263.573 301.76V297.23L264.973 296.56V311H263.573V309.98C262.859 310.82 261.946 311.24 260.833 311.24ZM261.043 309.92C261.543 309.92 262.019 309.777 262.473 309.49C262.926 309.197 263.293 308.8 263.573 308.3V303.4C263.273 302.92 262.896 302.543 262.443 302.27C261.996 301.99 261.529 301.85 261.043 301.85C260.123 301.85 259.409 302.2 258.903 302.9C258.403 303.593 258.153 304.587 258.153 305.88C258.153 306.673 258.276 307.373 258.523 307.98C258.769 308.587 259.109 309.063 259.543 309.41C259.976 309.75 260.476 309.92 261.043 309.92ZM272.774 311.24C271.427 311.24 270.364 310.763 269.584 309.81C268.804 308.85 268.414 307.547 268.414 305.9C268.414 304.8 268.591 303.85 268.944 303.05C269.297 302.25 269.801 301.633 270.454 301.2C271.107 300.76 271.881 300.54 272.774 300.54C273.674 300.54 274.451 300.757 275.104 301.19C275.757 301.617 276.257 302.23 276.604 303.03C276.957 303.83 277.134 304.78 277.134 305.88C277.134 306.98 276.957 307.933 276.604 308.74C276.251 309.54 275.747 310.157 275.094 310.59C274.441 311.023 273.667 311.24 272.774 311.24ZM272.774 309.92C273.694 309.92 274.411 309.563 274.924 308.85C275.444 308.137 275.704 307.147 275.704 305.88C275.704 304.607 275.444 303.617 274.924 302.91C274.411 302.203 273.694 301.85 272.774 301.85C271.841 301.85 271.117 302.203 270.604 302.91C270.097 303.61 269.844 304.607 269.844 305.9C269.844 307.173 270.101 308.163 270.614 308.87C271.127 309.57 271.847 309.92 272.774 309.92ZM284.175 311.24C283.335 311.24 282.612 311.027 282.005 310.6C281.398 310.167 280.932 309.553 280.605 308.76C280.285 307.96 280.125 307.007 280.125 305.9C280.125 304.787 280.292 303.83 280.625 303.03C280.958 302.23 281.435 301.617 282.055 301.19C282.675 300.757 283.415 300.54 284.275 300.54C285.095 300.54 285.795 300.74 286.375 301.14C286.962 301.533 287.388 302.1 287.655 302.84L286.325 303.33C286.152 302.857 285.888 302.493 285.535 302.24C285.182 301.987 284.768 301.86 284.295 301.86C283.408 301.86 282.732 302.203 282.265 302.89C281.805 303.577 281.575 304.58 281.575 305.9C281.575 307.167 281.805 308.153 282.265 308.86C282.725 309.56 283.372 309.91 284.205 309.91C284.752 309.91 285.222 309.763 285.615 309.47C286.008 309.177 286.282 308.777 286.435 308.27L287.755 308.71C287.522 309.51 287.088 310.133 286.455 310.58C285.828 311.02 285.068 311.24 284.175 311.24ZM294.878 311.24C293.971 311.24 293.188 311.017 292.528 310.57C291.875 310.117 291.371 309.487 291.018 308.68C290.665 307.873 290.488 306.94 290.488 305.88C290.488 304.753 290.671 303.793 291.038 303C291.411 302.2 291.928 301.59 292.588 301.17C293.248 300.75 294.011 300.54 294.878 300.54C295.631 300.54 296.315 300.717 296.928 301.07C297.541 301.423 298.028 301.97 298.388 302.71C298.748 303.45 298.928 304.4 298.928 305.56C298.928 305.68 298.925 305.817 298.918 305.97C298.911 306.117 298.901 306.27 298.888 306.43H291.938C291.991 307.137 292.135 307.757 292.368 308.29C292.608 308.817 292.938 309.233 293.358 309.54C293.785 309.84 294.308 309.99 294.928 309.99C295.348 309.99 295.751 309.917 296.138 309.77C296.525 309.617 296.885 309.383 297.218 309.07L298.038 310.01C297.665 310.363 297.205 310.657 296.658 310.89C296.118 311.123 295.525 311.24 294.878 311.24ZM291.918 305.2H297.498C297.498 304.567 297.401 303.99 297.208 303.47C297.021 302.95 296.731 302.537 296.338 302.23C295.951 301.923 295.465 301.77 294.878 301.77C294.085 301.77 293.408 302.043 292.848 302.59C292.295 303.137 291.985 304.007 291.918 305.2ZM302.419 311V300.78H303.819V302.09C304.106 301.59 304.486 301.207 304.959 300.94C305.439 300.673 305.982 300.54 306.589 300.54C307.782 300.54 308.669 300.91 309.249 301.65C309.829 302.383 310.119 303.5 310.119 305V311H308.719V304.75C308.719 303.797 308.519 303.073 308.119 302.58C307.719 302.08 307.139 301.83 306.379 301.83C305.539 301.83 304.902 302.087 304.469 302.6C304.036 303.113 303.819 303.87 303.819 304.87V311H302.419ZM316.497 311.24C315.824 311.24 315.311 311.037 314.957 310.63C314.611 310.217 314.437 309.62 314.437 308.84V302.01H312.747V300.78H314.437V297.24L315.837 296.56V300.78H318.377V302.01H315.837V308.42C315.837 308.953 315.924 309.34 316.097 309.58C316.277 309.813 316.564 309.93 316.957 309.93C317.437 309.93 317.941 309.757 318.467 309.41L318.307 310.79C318.041 310.943 317.754 311.057 317.447 311.13C317.141 311.203 316.824 311.24 316.497 311.24ZM325.304 311.24C324.397 311.24 323.614 311.017 322.954 310.57C322.301 310.117 321.797 309.487 321.444 308.68C321.091 307.873 320.914 306.94 320.914 305.88C320.914 304.753 321.097 303.793 321.464 303C321.837 302.2 322.354 301.59 323.014 301.17C323.674 300.75 324.437 300.54 325.304 300.54C326.057 300.54 326.741 300.717 327.354 301.07C327.967 301.423 328.454 301.97 328.814 302.71C329.174 303.45 329.354 304.4 329.354 305.56C329.354 305.68 329.351 305.817 329.344 305.97C329.337 306.117 329.327 306.27 329.314 306.43H322.364C322.417 307.137 322.561 307.757 322.794 308.29C323.034 308.817 323.364 309.233 323.784 309.54C324.211 309.84 324.734 309.99 325.354 309.99C325.774 309.99 326.177 309.917 326.564 309.77C326.951 309.617 327.311 309.383 327.644 309.07L328.464 310.01C328.091 310.363 327.631 310.657 327.084 310.89C326.544 311.123 325.951 311.24 325.304 311.24ZM322.344 305.2H327.924C327.924 304.567 327.827 303.99 327.634 303.47C327.447 302.95 327.157 302.537 326.764 302.23C326.377 301.923 325.891 301.77 325.304 301.77C324.511 301.77 323.834 302.043 323.274 302.59C322.721 303.137 322.411 304.007 322.344 305.2ZM335.393 311.24C334.713 311.24 334.06 311.093 333.433 310.8C332.806 310.507 332.28 310.1 331.853 309.58L332.873 308.71C333.24 309.11 333.646 309.42 334.093 309.64C334.54 309.86 334.98 309.97 335.413 309.97C336.066 309.97 336.57 309.837 336.923 309.57C337.283 309.303 337.463 308.93 337.463 308.45C337.463 308.15 337.38 307.877 337.213 307.63C337.053 307.383 336.79 307.153 336.423 306.94C336.056 306.72 335.573 306.497 334.973 306.27C333.893 305.87 333.116 305.433 332.643 304.96C332.17 304.48 331.933 303.887 331.933 303.18C331.933 302.393 332.236 301.757 332.843 301.27C333.456 300.783 334.253 300.54 335.233 300.54C335.88 300.54 336.486 300.667 337.053 300.92C337.62 301.167 338.103 301.523 338.503 301.99L337.523 302.81C336.87 302.143 336.1 301.81 335.213 301.81C334.633 301.81 334.173 301.933 333.833 302.18C333.5 302.42 333.333 302.753 333.333 303.18C333.333 303.573 333.506 303.913 333.853 304.2C334.2 304.48 334.833 304.79 335.753 305.13C336.5 305.41 337.1 305.707 337.553 306.02C338.006 306.327 338.333 306.677 338.533 307.07C338.74 307.463 338.843 307.917 338.843 308.43C338.843 309.303 338.536 309.99 337.923 310.49C337.31 310.99 336.466 311.24 335.393 311.24Z" fill="#009245"/>
</g>
<g clip-path="url(#clip0_250_17253)">
<path d="M332 89.8791L173.848 95.3359L169 45H332V89.8791Z" fill="#C49474"/>
<path d="M211.545 79.8593L211.424 61.1233L207.847 61.1654C207.643 61.187 207.436 61.1552 207.247 61.0732C207.059 60.9912 206.894 60.8618 206.771 60.6975C206.568 60.3864 206.475 60.0161 206.508 59.6461C206.528 59.2709 206.647 58.9079 206.855 58.5947C206.935 58.459 207.048 58.3462 207.184 58.267C207.32 58.1878 207.475 58.145 207.632 58.1426H218.757C218.963 58.1594 219.163 58.2279 219.336 58.3418C219.51 58.4557 219.652 58.6113 219.749 58.7944C219.922 59.1162 219.979 59.487 219.912 59.8458C219.837 60.2027 219.654 60.5277 219.387 60.7763C219.264 60.907 219.109 61.0026 218.938 61.0535C218.766 61.1043 218.584 61.1084 218.41 61.0655L214.591 61.1023L214.633 79.8383L218.41 79.8803C218.583 79.8378 218.765 79.8417 218.936 79.8915C219.108 79.9413 219.263 80.0354 219.387 80.1642C219.653 80.4157 219.836 80.742 219.912 81.0999C219.979 81.4587 219.922 81.8296 219.749 82.1513C219.656 82.3424 219.517 82.5067 219.343 82.629C219.169 82.7513 218.968 82.8275 218.757 82.8505H207.632C207.465 82.8509 207.3 82.8056 207.157 82.7194C207.013 82.6333 206.896 82.5096 206.818 82.3616C206.61 82.0484 206.491 81.6854 206.471 81.3102C206.438 80.9402 206.531 80.5699 206.734 80.2588C206.857 80.0937 207.021 79.9637 207.21 79.8816C207.399 79.7996 207.606 79.7683 207.811 79.7909L211.387 79.8277L211.545 79.8593Z" fill="#0A0C35"/>
<path d="M236.137 75.491C236.193 75.2863 236.304 75.1008 236.458 74.9544C236.611 74.808 236.802 74.7064 237.009 74.6604C237.387 74.5908 237.777 74.6618 238.107 74.8602C238.454 75.0888 238.718 75.4247 238.858 75.817C238.944 76.0369 238.98 76.2734 238.963 76.5091C238.946 76.7448 238.876 76.9736 238.758 77.1785C238.06 78.8751 236.967 80.3801 235.57 81.5681C234.335 82.6411 232.756 83.2327 231.121 83.2346C229.903 83.2341 228.709 82.8976 227.67 82.2621C226.551 81.5772 225.584 80.6701 224.829 79.5967C223.976 78.391 223.329 77.0514 222.917 75.633C222.447 74.0373 222.215 72.381 222.229 70.7177C222.22 69.0477 222.452 67.3853 222.917 65.7813C223.332 64.3197 223.977 62.9337 224.829 61.6756C225.572 60.5597 226.54 59.6109 227.67 58.8894C228.7 58.2276 229.897 57.8754 231.121 57.8748C232.757 57.8401 234.362 58.3241 235.706 59.2574C237.034 60.1791 238.075 61.6686 238.832 63.7258C238.935 63.8717 238.991 64.0463 238.991 64.2253C238.991 64.4042 238.935 64.5788 238.832 64.7247C238.63 65.0677 238.327 65.3395 237.965 65.5027C237.592 65.6799 237.174 65.7369 236.767 65.6657C236.545 65.6224 236.338 65.5236 236.164 65.3783C235.991 65.2331 235.857 65.0462 235.775 64.8351C235.228 63.4542 234.565 62.5062 233.784 61.991C232.974 61.4688 232.027 61.1998 231.063 61.2182C230.236 61.2242 229.434 61.5095 228.789 62.0278C228.037 62.626 227.409 63.3652 226.94 64.2042C226.381 65.1922 225.964 66.254 225.7 67.3584C225.401 68.5477 225.251 69.7698 225.254 70.9963C225.247 72.1846 225.404 73.3681 225.721 74.5132C225.993 75.5305 226.426 76.4977 227.003 77.3783C227.492 78.1264 228.131 78.7654 228.878 79.255C229.67 79.7892 230.623 80.029 231.573 79.933C232.523 79.837 233.409 79.4111 234.078 78.7293C235.008 77.8261 235.714 76.7169 236.137 75.491Z" fill="#0A0C35"/>
<path d="M246.737 83.5188C246.463 83.5159 246.191 83.4895 245.922 83.44C245.642 83.3915 245.369 83.3029 245.114 83.1771C244.889 83.0665 244.683 82.921 244.504 82.746C244.423 82.6672 244.359 82.5722 244.317 82.4672C244.274 82.3622 244.254 82.2495 244.257 82.1362L243.974 59.9464C243.952 59.6539 243.992 59.3602 244.091 59.0841C244.189 58.808 244.344 58.5555 244.546 58.343C244.925 57.975 245.625 57.791 246.647 57.791L257.567 57.8751C257.772 57.8519 257.979 57.883 258.168 57.9651C258.357 58.0472 258.521 58.1775 258.644 58.343C258.853 58.6514 258.946 59.0239 258.907 59.3944C258.886 59.7685 258.768 60.1308 258.565 60.4458C258.486 60.5867 258.371 60.7041 258.231 60.7863C258.092 60.8684 257.934 60.9124 257.772 60.9137L247.173 61.0346V68.6573L254.2 68.6941C254.405 68.6725 254.612 68.7042 254.8 68.7862C254.989 68.8682 255.153 68.9976 255.277 69.1619C255.479 69.4733 255.572 69.8434 255.54 70.2133C255.519 70.5882 255.399 70.9509 255.193 71.2647C255.113 71.405 254.998 71.5217 254.859 71.6029C254.719 71.6842 254.561 71.7271 254.4 71.7273L247.225 71.8115L247.262 80.312L257.657 80.3909C257.857 80.3739 258.058 80.4079 258.242 80.4897C258.426 80.5715 258.586 80.6985 258.707 80.8588C258.91 81.1698 259.002 81.5401 258.97 81.9102C258.95 82.2853 258.83 82.6484 258.623 82.9616C258.544 83.1028 258.429 83.2206 258.29 83.3028C258.15 83.385 257.992 83.4287 257.83 83.4294L246.737 83.5188Z" fill="#0A0C35"/>
<path d="M277.395 63.1569C277.476 63.3236 277.511 63.5086 277.497 63.6932C277.483 63.8778 277.421 64.0555 277.317 64.2083C277.105 64.5039 276.805 64.7248 276.46 64.8391C276.123 64.9581 275.761 64.9853 275.41 64.918C275.245 64.8911 275.093 64.8116 274.976 64.6913C274.86 64.571 274.785 64.4164 274.764 64.2503C274.622 63.5672 274.324 62.9265 273.892 62.3788C273.544 61.958 273.124 61.6021 272.652 61.3274C272.262 61.1013 271.835 60.9431 271.392 60.8596L270.499 60.7176C269.87 60.6586 269.235 60.7211 268.629 60.9016C268.102 61.0558 267.608 61.3033 267.169 61.6323C266.78 61.9187 266.449 62.2753 266.192 62.6837C265.961 63.0518 265.822 63.4702 265.787 63.9034C265.684 64.6314 265.797 65.3737 266.113 66.0377C266.427 66.6081 266.881 67.0893 267.431 67.4361C268.091 67.8545 268.796 68.1967 269.532 68.4559C270.331 68.7503 271.162 69.0745 272.027 69.4285C272.868 69.7807 273.698 70.1697 274.527 70.5903C275.32 70.9871 276.045 71.507 276.676 72.1306C277.296 72.7575 277.768 73.5155 278.057 74.3491C278.381 75.3582 278.471 76.4279 278.32 77.477C278.224 78.6502 277.821 79.7777 277.154 80.7468C276.557 81.6038 275.772 82.3123 274.858 82.8181C273.938 83.3213 272.935 83.6527 271.896 83.7959C270.847 83.9437 269.781 83.9081 268.744 83.6908C267.395 83.4358 266.122 82.8727 265.026 82.0453C263.934 81.2322 263.164 80.0593 262.851 78.7334C262.831 78.5144 262.855 78.2937 262.922 78.0842C262.989 77.8747 263.097 77.6808 263.24 77.5138C263.493 77.21 263.824 76.9796 264.196 76.8461C264.522 76.7201 264.883 76.7201 265.21 76.8461C265.367 76.9011 265.506 77.001 265.607 77.1337C265.709 77.2663 265.77 77.4259 265.782 77.5926C265.831 78.0447 265.98 78.48 266.22 78.8666C266.459 79.2532 266.781 79.5814 267.163 79.8269C267.954 80.3452 268.852 80.6776 269.79 80.7994C270.394 80.8915 271.008 80.8915 271.612 80.7994C272.189 80.7134 272.742 80.5132 273.241 80.2106C273.727 79.9122 274.149 79.5189 274.48 79.0541C274.837 78.5253 275.065 77.9205 275.147 77.2877C275.265 76.6276 275.209 75.9481 274.984 75.3163C274.767 74.7602 274.419 74.2644 273.971 73.8707C273.469 73.4415 272.909 73.0874 272.306 72.8193C271.654 72.5249 270.966 72.2252 270.236 71.9256C269.312 71.5734 268.387 71.1948 267.452 70.7901C266.556 70.4029 265.715 69.8972 264.952 69.2866C264.22 68.685 263.631 67.927 263.229 67.0681C262.788 66.0386 262.641 64.9066 262.804 63.7982C262.882 62.826 263.188 61.8859 263.697 61.0541C264.168 60.2989 264.791 59.6492 265.525 59.1458C266.259 58.6404 267.077 58.2684 267.941 58.0471C268.796 57.8162 269.683 57.7274 270.567 57.7842C271.159 57.8228 271.746 57.9251 272.316 58.0891C273.006 58.2797 273.663 58.5739 274.265 58.9618C274.952 59.4003 275.563 59.9491 276.072 60.5862C276.674 61.3499 277.124 62.2227 277.395 63.1569Z" fill="#0A0C35"/>
<path d="M286.577 79.8594L286.451 61.1234L282.879 61.1655C282.674 61.1871 282.468 61.1554 282.279 61.0734C282.09 60.9914 281.926 60.862 281.802 60.6976C281.599 60.3866 281.507 60.0163 281.539 59.6462C281.559 59.2711 281.679 58.908 281.886 58.5948C281.965 58.4543 282.079 58.3371 282.217 58.255C282.356 58.1728 282.513 58.1286 282.674 58.127H293.804C294.011 58.1438 294.21 58.2123 294.383 58.3262C294.557 58.4401 294.699 58.5957 294.797 58.7788C294.969 59.1005 295.026 59.4714 294.96 59.8302C294.884 60.1871 294.701 60.5121 294.434 60.7607C294.312 60.8914 294.157 60.987 293.985 61.0378C293.813 61.0886 293.631 61.0928 293.457 61.0499L289.639 61.0866L289.681 79.8226L293.457 79.8647C293.631 79.8222 293.812 79.826 293.984 79.8759C294.155 79.9257 294.311 80.0197 294.434 80.1486C294.7 80.4001 294.883 80.7264 294.96 81.0843C295.026 81.4431 294.969 81.814 294.797 82.1357C294.706 82.3297 294.567 82.4972 294.393 82.6224C294.219 82.7475 294.017 82.8261 293.804 82.8507H282.674C282.513 82.849 282.356 82.8048 282.217 82.7227C282.079 82.6405 281.965 82.5233 281.886 82.3828C281.679 82.0696 281.559 81.7066 281.539 81.3314C281.507 80.9614 281.599 80.5911 281.802 80.28C281.925 80.1149 282.089 79.9849 282.278 79.9028C282.467 79.8207 282.674 79.7895 282.879 79.8121L286.451 79.8489L286.577 79.8594Z" fill="#0A0C35"/>
<path d="M312.067 270L316.726 90.4043L193.272 94.6677L182.578 270H312.067Z" fill="#B27A54"/>
<path d="M254.137 178.422C272.375 178.422 287.16 163.625 287.16 145.371C287.16 127.118 272.375 112.32 254.137 112.32C235.9 112.32 221.115 127.118 221.115 145.371C221.115 163.625 235.9 178.422 254.137 178.422Z" stroke="#040423" stroke-width="4.61" stroke-miterlimit="10"/>
<path fill-rule="evenodd" clip-rule="evenodd" d="M257.031 126.94C255.966 126.827 254.894 126.778 253.822 126.793C252.752 126.754 251.68 126.803 250.618 126.94L250.508 125.363L251.963 125.211L251.438 117.325H249.289V115.165C249.289 115.165 249.652 114.828 253.806 114.828C257.961 114.828 258.329 115.165 258.329 115.165V117.325H256.191L255.666 125.211L257.126 125.363L257.016 126.94H257.031Z" fill="#0A0C35"/>
<path fill-rule="evenodd" clip-rule="evenodd" d="M249.741 127.168C249.741 127.168 248.691 127.467 246.752 128.219C245.746 128.617 244.772 129.092 243.837 129.638L243.144 128.219L244.42 127.551L240.99 120.433L238.989 121.29L238.186 119.282C238.186 119.282 238.438 118.83 242.267 117.179C246.096 115.529 246.569 115.728 246.569 115.728L247.372 117.742L245.366 118.599L247.882 126.121L249.268 125.638L249.741 127.168Z" fill="#0A0C35"/>
<path fill-rule="evenodd" clip-rule="evenodd" d="M243.107 130.221C242.275 130.893 241.484 131.614 240.738 132.382C239.961 133.148 239.241 133.97 238.585 134.842L237.419 133.79L238.369 132.639L232.555 127.424L231.021 129.001L229.529 127.477C229.529 127.477 229.566 126.951 232.518 123.97C235.47 120.99 235.948 120.916 235.948 120.916L237.44 122.446L235.911 124.023L241.011 129.984L242.146 129.017L243.128 130.247L243.107 130.221Z" fill="#0A0C35"/>
<path fill-rule="evenodd" clip-rule="evenodd" d="M238.149 135.583C237.62 136.531 237.157 137.515 236.762 138.527C236.318 139.529 235.953 140.564 235.67 141.623L234.209 141.134L234.651 139.683L227.302 137.149L226.462 139.2L224.492 138.379C224.492 138.379 224.345 137.896 225.953 133.943C227.56 129.989 227.959 129.811 227.959 129.811L229.923 130.631L229.125 132.681L236.048 136.182L236.757 134.842L238.144 135.583H238.149Z" fill="#0A0C35"/>
<path fill-rule="evenodd" clip-rule="evenodd" d="M235.523 142.481C235.406 143.569 235.347 144.662 235.344 145.756C235.326 146.852 235.386 147.948 235.523 149.036L233.994 149.147L233.847 147.659L226.121 148.185V150.382H224.02C224.02 150.382 223.689 150.009 223.689 145.761C223.689 141.514 224.02 141.104 224.02 141.104H226.121V143.343L233.847 143.869L233.994 142.376L235.523 142.491V142.481Z" fill="#0A0C35"/>
<path fill-rule="evenodd" clip-rule="evenodd" d="M235.706 149.893C235.983 150.923 236.334 151.931 236.757 152.91C237.128 153.944 237.592 154.941 238.144 155.891L236.757 156.595L236.064 155.292L229.141 158.793L229.939 160.806L227.975 161.663C227.975 161.663 227.57 161.4 225.968 157.489C224.366 153.578 224.508 153.094 224.508 153.094L226.478 152.274L227.302 154.345L234.656 151.79L234.215 150.376L235.712 149.893H235.706Z" fill="#0A0C35"/>
<path fill-rule="evenodd" clip-rule="evenodd" d="M238.622 156.633C239.279 157.489 239.98 158.31 240.723 159.093C241.46 159.882 242.265 160.604 243.128 161.254L242.109 162.484L240.975 161.517L235.89 167.489L237.419 169.066L235.927 170.595C235.927 170.595 235.402 170.559 232.497 167.541C229.593 164.524 229.508 164.04 229.508 164.04L231 162.51L232.534 164.087L238.369 158.872L237.419 157.716L238.622 156.664V156.633Z" fill="#0A0C35"/>
<path fill-rule="evenodd" clip-rule="evenodd" d="M243.874 161.816C244.79 162.338 245.739 162.798 246.716 163.194C247.705 163.646 248.729 164.019 249.778 164.308L249.253 165.801L247.866 165.354L245.387 172.84L247.393 173.697L246.553 175.711C246.553 175.711 246.08 175.858 242.251 174.218C238.422 172.578 238.207 172.167 238.207 172.167L239.005 170.159L241.011 171.016L244.436 163.898L243.128 163.194L243.858 161.816H243.874Z" fill="#0A0C35"/>
<path fill-rule="evenodd" clip-rule="evenodd" d="M250.65 164.498C251.696 164.615 252.748 164.677 253.801 164.682C254.874 164.725 255.949 164.663 257.01 164.498L257.158 166.101L255.661 166.212L256.186 174.097H258.371V176.295C258.371 176.295 257.972 176.594 253.812 176.594C249.652 176.594 249.295 176.295 249.295 176.295V174.097H251.464L251.989 166.212L250.534 166.101L250.676 164.498H250.65Z" fill="#0A0C35"/>
<path fill-rule="evenodd" clip-rule="evenodd" d="M257.945 164.335C258.976 164.052 259.987 163.701 260.971 163.283C261.967 162.892 262.93 162.419 263.849 161.869L264.595 163.283L263.282 163.956L266.696 171.053L268.697 170.196L269.501 172.21C269.501 172.21 269.28 172.657 265.42 174.312C261.559 175.968 261.118 175.769 261.118 175.769L260.314 173.755L262.321 172.935L259.868 165.386L258.444 165.87L257.972 164.345L257.945 164.335Z" fill="#0A0C35"/>
<path fill-rule="evenodd" clip-rule="evenodd" d="M264.653 161.328C265.485 160.657 266.276 159.938 267.022 159.173C267.798 158.404 268.518 157.58 269.175 156.707L270.341 157.758L269.391 158.915L275.226 164.13L276.754 162.553L278.251 164.083C278.251 164.083 278.215 164.608 275.263 167.584C272.311 170.559 271.833 170.638 271.833 170.638L270.341 169.114L271.87 167.536L266.77 161.575L265.645 162.558L264.663 161.328H264.653Z" fill="#0A0C35"/>
<path fill-rule="evenodd" clip-rule="evenodd" d="M269.685 155.922C270.196 154.965 270.659 153.982 271.071 152.978C271.519 151.996 271.871 150.974 272.122 149.924L273.619 150.407L273.183 151.822L280.536 154.355L281.377 152.305L283.31 153.125C283.31 153.125 283.451 153.609 281.886 157.52C280.321 161.431 279.827 161.705 279.827 161.705L277.863 160.89L278.698 158.84L271.77 155.333L271.082 156.679L269.685 155.922Z" fill="#0A0C35"/>
<path fill-rule="evenodd" clip-rule="evenodd" d="M272.311 148.999C272.311 148.999 272.453 147.879 272.489 145.719C272.507 144.622 272.448 143.526 272.311 142.438L273.839 142.328L273.986 143.821L281.713 143.295V141.098H283.814C283.814 141.098 284.145 141.471 284.145 145.719C284.145 149.966 283.814 150.339 283.814 150.339H281.713V148.137L273.986 147.611L273.839 149.088L272.311 148.978V148.999Z" fill="#0A0C35"/>
<path fill-rule="evenodd" clip-rule="evenodd" d="M272.122 141.508C272.122 141.508 271.833 140.431 271.071 138.454C270.681 137.429 270.217 136.433 269.685 135.473L271.071 134.764L271.723 136.104L278.687 132.603L277.852 130.558L279.817 129.701C279.817 129.701 280.258 129.959 281.823 133.87C283.388 137.781 283.283 138.27 283.283 138.27L281.314 139.101L280.473 137.056L273.146 139.626L273.582 141.041L272.122 141.524V141.508Z" fill="#0A0C35"/>
<path fill-rule="evenodd" clip-rule="evenodd" d="M269.102 134.727C268.445 133.872 267.744 133.053 267.001 132.272C266.255 131.491 265.451 130.769 264.595 130.111L265.577 128.881L266.707 129.848L271.812 123.887L270.283 122.31L271.775 120.785C271.775 120.785 272.3 120.822 275.205 123.839C278.11 126.857 278.194 127.341 278.194 127.341L276.697 128.87L275.168 127.293L269.333 132.508L270.283 133.665L269.081 134.716L269.102 134.727Z" fill="#0A0C35"/>
<path fill-rule="evenodd" clip-rule="evenodd" d="M263.818 129.585C262.881 129.066 261.918 128.594 260.934 128.171C259.963 127.714 258.95 127.353 257.909 127.093L258.381 125.6L259.805 126.047L262.284 118.561L260.277 117.704L261.081 115.691C261.081 115.691 261.554 115.544 265.383 117.184C269.212 118.824 269.464 119.229 269.464 119.229L268.66 121.227L266.659 120.37L263.229 127.488L264.506 128.155L263.818 129.569V129.585Z" fill="#0A0C35"/>
<path fill-rule="evenodd" clip-rule="evenodd" d="M245.623 137.78C245.197 138.279 244.806 138.805 244.452 139.357C244.073 139.897 243.744 140.471 243.47 141.071L242.634 140.587L243.07 139.804L238.952 137.386L238.222 138.5L237.13 137.754C237.13 137.754 237.13 137.459 238.511 135.299C239.893 133.138 240.229 133.064 240.229 133.064L241.279 133.806L240.549 134.925L244.305 137.869L244.888 137.16L245.618 137.754L245.623 137.78Z" fill="#0A0C35"/>
<path fill-rule="evenodd" clip-rule="evenodd" d="M243.254 141.625C243.054 142.259 242.895 142.905 242.776 143.559C242.636 144.208 242.552 144.867 242.524 145.531L241.573 145.42L241.647 144.526L236.983 143.896L236.725 145.236L235.449 144.973C235.449 144.973 235.302 144.679 235.78 142.145C236.258 139.611 236.51 139.422 236.51 139.422L237.807 139.627L237.555 140.967L242.151 142.234L242.367 141.341L243.28 141.604L243.254 141.625Z" fill="#0A0C35"/>
<path fill-rule="evenodd" clip-rule="evenodd" d="M242.535 146.092C242.591 146.754 242.687 147.413 242.824 148.063C242.919 148.724 243.079 149.374 243.301 150.003L242.388 150.266L242.135 149.409L237.576 150.634L237.834 151.943L236.552 152.2C236.552 152.2 236.337 152.016 235.827 149.519C235.318 147.022 235.46 146.686 235.46 146.686L236.736 146.428L236.993 147.769L241.694 147.133L241.584 146.202L242.535 146.092Z" fill="#0A0C35"/>
<path fill-rule="evenodd" clip-rule="evenodd" d="M243.506 150.523C243.806 151.099 244.136 151.659 244.494 152.2C244.856 152.765 245.254 153.306 245.686 153.82L244.919 154.414L244.394 153.709L240.639 156.648L241.369 157.768L240.318 158.514C240.318 158.514 240.029 158.435 238.606 156.28C237.182 154.124 237.219 153.82 237.219 153.82L238.317 153.073L239.042 154.193L243.128 151.806L242.692 150.986L243.527 150.539L243.506 150.523Z" fill="#0A0C35"/>
<path fill-rule="evenodd" clip-rule="evenodd" d="M246.059 154.178C246.059 154.178 246.584 154.625 247.635 155.366C248.16 155.755 248.721 156.093 249.31 156.375L248.874 157.232L248.071 156.785L245.702 160.991L246.831 161.732L246.101 162.852C246.101 162.852 245.812 162.889 243.695 161.432C241.579 159.976 241.468 159.682 241.468 159.682L242.198 158.63L243.296 159.377L246.175 155.539L245.481 154.94L246.064 154.199L246.059 154.178Z" fill="#0A0C35"/>
<path fill-rule="evenodd" clip-rule="evenodd" d="M249.815 156.596C250.435 156.8 251.069 156.963 251.711 157.085C252.343 157.25 252.991 157.349 253.644 157.379L253.533 158.346L252.619 158.236L252.036 163.046L253.313 163.304L253.061 164.607C253.061 164.607 252.803 164.755 250.324 164.234C247.845 163.714 247.63 163.488 247.63 163.488L247.882 162.184L249.195 162.447L250.398 157.789L249.557 157.526L249.815 156.596Z" fill="#0A0C35"/>
<path fill-rule="evenodd" clip-rule="evenodd" d="M254.19 157.378C254.838 157.325 255.484 157.237 256.123 157.116C256.769 156.998 257.404 156.822 258.019 156.59L258.271 157.52L257.399 157.783L258.639 162.478L259.952 162.215L260.204 163.482C260.204 163.482 259.983 163.745 257.504 164.228C255.025 164.712 254.773 164.602 254.773 164.602L254.516 163.298L255.792 163.04L255.172 158.23L254.3 158.34L254.19 157.373V157.378Z" fill="#0A0C35"/>
<path fill-rule="evenodd" clip-rule="evenodd" d="M258.528 156.412C258.528 156.412 259.111 156.112 260.204 155.408C260.764 155.045 261.292 154.634 261.78 154.178L262.368 154.961L261.675 155.518L264.553 159.356L265.645 158.609L266.376 159.661C266.376 159.661 266.302 159.96 264.191 161.411C262.079 162.862 261.78 162.831 261.78 162.831L261.055 161.711L262.147 160.97L259.778 156.796L258.975 157.243L258.539 156.386L258.528 156.412Z" fill="#0A0C35"/>
<path fill-rule="evenodd" clip-rule="evenodd" d="M262.174 153.819C262.174 153.819 262.61 153.294 263.34 152.216C263.725 151.693 264.054 151.131 264.322 150.539L265.162 150.986L264.726 151.806L268.844 154.193L269.574 153.073L270.667 153.783C270.667 153.783 270.667 154.119 269.28 156.238C267.894 158.356 267.568 158.514 267.568 158.514L266.517 157.767L267.242 156.648L263.492 153.709L262.909 154.413L262.174 153.819Z" fill="#0A0C35"/>
<path fill-rule="evenodd" clip-rule="evenodd" d="M264.595 150.003C264.787 149.365 264.945 148.718 265.068 148.063C265.209 147.401 265.307 146.73 265.362 146.055L266.271 146.165L266.197 147.096L270.898 147.732L271.155 146.391L272.432 146.649C272.432 146.649 272.542 146.912 272.069 149.482C271.597 152.053 271.339 152.163 271.339 152.163L270.063 151.9L270.32 150.634L265.761 149.372L265.504 150.266L264.595 150.003Z" fill="#0A0C35"/>
<path fill-rule="evenodd" clip-rule="evenodd" d="M265.346 145.498C265.289 144.834 265.191 144.174 265.052 143.522C264.959 142.863 264.801 142.215 264.579 141.587L265.488 141.324L265.745 142.181L270.304 140.951L270.047 139.611L271.323 139.348C271.323 139.348 271.544 139.537 272.053 142.066C272.563 144.594 272.416 144.899 272.416 144.899L271.14 145.162L270.898 143.832L266.197 144.463L266.307 145.393L265.362 145.509L265.346 145.498Z" fill="#0A0C35"/>
<path fill-rule="evenodd" clip-rule="evenodd" d="M264.359 141.025C264.359 141.025 264.07 140.431 263.376 139.311C263.023 138.743 262.621 138.206 262.174 137.708L262.941 137.114L263.466 137.824L267.221 134.896L266.496 133.776L267.589 133.029C267.589 133.029 267.883 133.108 269.264 135.269C270.646 137.429 270.651 137.724 270.651 137.724L269.601 138.47L268.834 137.351L264.747 139.774L265.189 140.557L264.348 141.041L264.359 141.025Z" fill="#0A0C35"/>
<path fill-rule="evenodd" clip-rule="evenodd" d="M261.769 137.297C261.769 137.297 261.244 136.85 260.193 136.104C259.668 135.717 259.107 135.381 258.518 135.1L258.991 134.243L259.757 134.69L262.126 130.484L261.034 129.743L261.759 128.623C261.759 128.623 262.053 128.623 264.17 130.037C266.286 131.451 266.355 131.788 266.355 131.788L265.645 132.865L264.553 132.119L261.675 135.957L262.368 136.556L261.78 137.297H261.769Z" fill="#0A0C35"/>
<path fill-rule="evenodd" clip-rule="evenodd" d="M257.982 134.896C257.372 134.688 256.751 134.513 256.123 134.37C255.476 134.223 254.816 134.135 254.153 134.107L254.263 133.14L255.172 133.25L255.792 128.445L254.484 128.182L254.736 126.879C254.736 126.879 254.993 126.731 257.473 127.252C259.952 127.772 260.167 127.962 260.167 127.962L259.915 129.265L258.602 129.002L257.399 133.697L258.234 133.955L257.982 134.89V134.896Z" fill="#0A0C35"/>
<path fill-rule="evenodd" clip-rule="evenodd" d="M253.607 134.132C252.958 134.182 252.313 134.27 251.674 134.395C251.027 134.512 250.393 134.688 249.778 134.92L249.484 133.99L250.361 133.727L249.121 129.032L247.845 129.295L247.593 127.991C247.593 127.991 247.771 127.765 250.251 127.245C252.73 126.725 253.024 126.909 253.024 126.909L253.276 128.212L251.963 128.475L252.583 133.243L253.497 133.17L253.607 134.137V134.132Z" fill="#0A0C35"/>
<path fill-rule="evenodd" clip-rule="evenodd" d="M249.232 135.137C249.232 135.137 248.649 135.436 247.556 136.146C247.004 136.518 246.477 136.928 245.98 137.371L245.397 136.593L246.091 136.03L243.212 132.193L242.12 132.939L241.39 131.825C241.39 131.825 241.5 131.562 243.575 130.111C245.649 128.66 246.017 128.691 246.017 128.691L246.71 129.811L245.618 130.558L247.987 134.727L248.79 134.28L249.226 135.137H249.232Z" fill="#0A0C35"/>
<path fill-rule="evenodd" clip-rule="evenodd" d="M247.955 141.991C247.746 142.334 247.57 142.697 247.43 143.074C247.254 143.443 247.12 143.831 247.031 144.23L246.479 144.041L246.626 143.515L243.895 142.585L243.564 143.331L242.834 143.032C242.834 143.032 242.797 142.842 243.359 141.392C243.921 139.941 244.126 139.814 244.126 139.814L244.856 140.114L244.531 140.897L247.157 142.201L247.414 141.675L247.939 141.97L247.955 141.991Z" fill="#0A0C35"/>
<path fill-rule="evenodd" clip-rule="evenodd" d="M246.973 144.599C246.973 144.599 246.936 145.009 246.936 145.792C246.904 146.203 246.929 146.617 247.01 147.022L246.421 147.096L246.348 146.502L243.47 146.722V147.542H242.671C242.671 147.542 242.561 147.395 242.561 145.829C242.561 144.262 242.671 144.078 242.671 144.078H243.47V144.882L246.348 145.072L246.39 144.509L246.973 144.583V144.599Z" fill="#0A0C35"/>
<path fill-rule="evenodd" clip-rule="evenodd" d="M247.078 147.359C247.171 147.756 247.306 148.142 247.482 148.51C247.63 148.896 247.805 149.27 248.008 149.63L247.482 149.893L247.225 149.409L244.599 150.713L244.924 151.454L244.194 151.791C244.194 151.791 244.011 151.68 243.428 150.213C242.844 148.747 242.902 148.573 242.902 148.573L243.632 148.237L243.958 149.02L246.695 148.048L246.511 147.522L247.094 147.338L247.078 147.359Z" fill="#0A0C35"/>
<path fill-rule="evenodd" clip-rule="evenodd" d="M248.17 149.893C248.422 150.205 248.69 150.503 248.974 150.786C249.245 151.095 249.552 151.37 249.888 151.606L249.484 152.053L249.084 151.717L247.152 153.914L247.735 154.471L247.209 155.071C247.209 155.071 247.031 155.034 245.896 153.914C244.762 152.794 244.804 152.61 244.804 152.61L245.329 152.053L245.912 152.61L248.102 150.713L247.735 150.266L248.17 149.893Z" fill="#0A0C35"/>
<path fill-rule="evenodd" clip-rule="evenodd" d="M250.14 151.791C250.14 151.791 250.508 151.98 251.238 152.275C251.598 152.454 251.976 152.591 252.367 152.685L252.183 153.242L251.658 153.095L250.744 155.891L251.511 156.223L251.185 156.969C251.185 156.969 251.002 157.006 249.578 156.412C248.155 155.818 248.05 155.629 248.05 155.629L248.375 154.882L249.105 155.219L250.382 152.538L249.909 152.275L250.161 151.791H250.14Z" fill="#0A0C35"/>
<path fill-rule="evenodd" clip-rule="evenodd" d="M252.656 152.77C253.054 152.828 253.457 152.854 253.859 152.848C254.261 152.857 254.664 152.831 255.062 152.77L255.099 153.369L254.573 153.406L254.794 156.386L255.598 156.35V157.17C255.598 157.17 255.45 157.317 253.88 157.317C252.31 157.317 252.204 157.17 252.204 157.17V156.386H253.008L253.192 153.406L252.64 153.369L252.677 152.77H252.656Z" fill="#0A0C35"/>
<path fill-rule="evenodd" clip-rule="evenodd" d="M255.393 152.685C255.783 152.59 256.162 152.453 256.522 152.275C257.252 151.98 257.615 151.791 257.615 151.791L257.872 152.275L257.399 152.538L258.676 155.219L259.4 154.882L259.731 155.629C259.731 155.629 259.621 155.818 258.203 156.412C256.785 157.006 256.596 156.969 256.596 156.969L256.265 156.223L257.031 155.891L256.086 153.095L255.561 153.284L255.377 152.685H255.393Z" fill="#0A0C35"/>
<path fill-rule="evenodd" clip-rule="evenodd" d="M257.872 151.606C257.872 151.606 258.203 151.344 258.786 150.786C259.067 150.503 259.334 150.204 259.584 149.893L260.025 150.266L259.658 150.713L261.843 152.61L262.431 152.016L262.956 152.61C262.956 152.61 262.956 152.794 261.858 153.914C260.761 155.034 260.582 155.071 260.582 155.071L260.004 154.471L260.582 153.877L258.675 151.717L258.271 152.016L257.872 151.606Z" fill="#0A0C35"/>
<path fill-rule="evenodd" clip-rule="evenodd" d="M259.768 149.615C259.964 149.264 260.14 148.903 260.293 148.532C260.471 148.152 260.605 147.754 260.692 147.344L261.218 147.528L261.076 148.085L263.812 149.021L264.138 148.274L264.868 148.574C264.868 148.574 264.9 148.758 264.317 150.209C263.734 151.66 263.555 151.786 263.555 151.786L262.825 151.486L263.151 150.708L260.524 149.405L260.272 149.888L259.747 149.625L259.768 149.615Z" fill="#0A0C35"/>
<path fill-rule="evenodd" clip-rule="evenodd" d="M260.75 146.987C260.806 146.592 260.831 146.193 260.824 145.794C260.832 145.382 260.807 144.971 260.75 144.563L261.333 144.49L261.37 145.047L264.285 144.863V144.043H265.089C265.089 144.043 265.199 144.19 265.199 145.757C265.199 147.323 265.089 147.507 265.089 147.507H264.285V146.687L261.37 146.466L261.333 147.024L260.75 146.987Z" fill="#0A0C35"/>
<path fill-rule="evenodd" clip-rule="evenodd" d="M260.713 144.19C260.713 144.19 260.603 143.785 260.314 143.039C260.164 142.666 259.988 142.305 259.789 141.956L260.314 141.661L260.566 142.187L263.156 140.847L262.83 140.1L263.56 139.764C263.56 139.764 263.739 139.874 264.322 141.341C264.905 142.807 264.873 142.976 264.873 142.976L264.143 143.312L263.818 142.529L261.081 143.501L261.265 144.027L260.74 144.211L260.713 144.19Z" fill="#0A0C35"/>
<path fill-rule="evenodd" clip-rule="evenodd" d="M259.584 141.623C259.584 141.623 259.327 141.323 258.786 140.724C258.508 140.437 258.216 140.165 257.909 139.909L258.271 139.457L258.675 139.83L260.603 137.596L260.025 136.997L260.551 136.439C260.551 136.439 260.734 136.439 261.864 137.554C262.993 138.668 262.962 138.858 262.962 138.858L262.436 139.452L261.848 138.858L259.663 140.834L260.031 141.239L259.589 141.618L259.584 141.623Z" fill="#0A0C35"/>
<path fill-rule="evenodd" clip-rule="evenodd" d="M257.578 139.721C257.244 139.514 256.893 139.338 256.527 139.195C256.167 139.017 255.788 138.879 255.398 138.785L255.582 138.228L256.107 138.375L257.016 135.578L256.286 135.247L256.58 134.5C256.58 134.5 256.764 134.464 258.182 135.058C259.6 135.652 259.715 135.841 259.715 135.841L259.421 136.587L258.66 136.251L257.383 138.932L257.909 139.195L257.614 139.721H257.578Z" fill="#0A0C35"/>
<path fill-rule="evenodd" clip-rule="evenodd" d="M255.025 138.718C255.025 138.718 254.626 138.675 253.859 138.644C253.457 138.636 253.054 138.661 252.656 138.718L252.583 138.118L253.108 138.081L252.929 135.138H252.147V134.317C252.147 134.317 252.294 134.207 253.822 134.207C255.351 134.207 255.54 134.317 255.54 134.317V135.101L254.736 135.138L254.516 138.081L255.099 138.118L255.025 138.718Z" fill="#0A0C35"/>
<path fill-rule="evenodd" clip-rule="evenodd" d="M252.294 138.791C251.91 138.906 251.533 139.043 251.164 139.201C250.801 139.361 250.45 139.547 250.114 139.758L249.82 139.232L250.345 138.969L249.032 136.288L248.307 136.625L248.013 135.878C248.013 135.878 248.086 135.694 249.505 135.095C250.923 134.496 251.112 134.538 251.112 134.538L251.443 135.284L250.671 135.615L251.621 138.412L252.147 138.228L252.33 138.785L252.294 138.791Z" fill="#0A0C35"/>
<path fill-rule="evenodd" clip-rule="evenodd" d="M249.815 139.947C249.507 140.2 249.216 140.472 248.943 140.762C248.636 141.038 248.366 141.352 248.139 141.697L247.661 141.287L248.029 140.877L245.838 138.937L245.313 139.5L244.73 138.937C244.73 138.937 244.767 138.753 245.859 137.634C246.952 136.514 247.136 136.482 247.136 136.482L247.661 137.04L247.136 137.634L249.032 139.868L249.473 139.5L249.836 139.947H249.815Z" fill="#0A0C35"/>
</g>
<path d="M104.168 176.244L105.005 194.504L85.0931 193.243L90.6962 174.961L104.168 176.244Z" fill="#F15A24"/>
<path d="M104.268 177.385C104.268 177.385 102.259 181.231 99.1398 181.231C96.0205 181.231 90.2555 176.729 90.2555 176.729L91.0394 174.225L104.104 176.133L104.268 177.385Z" fill="#09231E"/>
<path d="M127.351 141.278C126.601 140.802 125.737 140.534 124.849 140.503L125.299 124.139C125.325 123.199 125.154 122.263 124.796 121.393C124.437 120.524 123.9 119.739 123.219 119.091L114.132 110.439C112.884 109.251 111.228 108.588 109.505 108.588H81.4579C80.4605 108.588 79.4757 108.81 78.5749 109.239C77.6741 109.667 76.8799 110.291 76.2501 111.065L71.6953 116.674C70.668 117.944 70.1358 119.545 70.1971 121.178L71.0368 142.415C70.4386 141.278 68.9021 139.46 65.6972 141.278C61.5156 143.667 64.1497 158.581 71.4483 152.989L71.816 162.377C71.8661 163.603 72.2506 164.792 72.9278 165.814C73.605 166.837 74.549 167.654 75.6574 168.178L95.4624 177.615C96.3705 178.053 97.3656 178.281 98.3737 178.281C99.3817 178.281 100.377 178.053 101.285 177.615L120.492 168.244C121.593 167.705 122.525 166.875 123.189 165.844C123.852 164.813 124.222 163.62 124.256 162.394L124.481 154.258C129.514 154.538 130.929 143.332 127.351 141.278Z" fill="#F15A24"/>
<path fill-rule="evenodd" clip-rule="evenodd" d="M71.6815 152.837C71.6815 152.837 71.7808 119.736 81.2521 118.471C81.2521 118.471 107.774 117.211 115.353 119.106C122.932 121.001 124.642 150.389 124.642 150.389C124.642 150.389 132.404 121.001 127.98 113.415C123.556 105.83 108.403 102.658 99.5658 103.294C99.5658 103.294 94.513 96.3375 79.3545 100.133C64.1961 103.929 70.137 139.184 71.6815 152.837Z" fill="#0A0C35"/>
<path d="M95.441 146.667C96.4047 145.034 100.818 145.068 101.651 146.717C101.667 146.744 101.68 146.772 101.691 146.801C102.997 149.569 106.253 156.145 101.041 156.145C95.8288 156.145 93.2056 156.492 93.2056 153.03C93.2056 150.877 94.4887 148.305 95.441 146.667Z" fill="#FBB03B"/>
<path d="M90.6244 139.8C90.6244 139.8 88.7583 136.06 85.0207 136.681C81.2831 137.301 80.6683 141.036 80.6683 141.036" fill="#09231E"/>
<path d="M117.543 141.774C117.543 141.774 117.018 137.398 113.23 136.703C109.442 136.008 107.586 139.505 107.586 139.505" fill="#09231E"/>
<path d="M105.878 194.197L134.916 204.368L141.511 270.467H39L54.1092 199.283L82.519 192.293H95.1412L105.878 194.197Z" fill="#304F9D"/>
<path d="M106.883 187.869L95.4179 191.713L99.2394 200.038L109.43 194.275L106.883 187.869Z" fill="white"/>
<path d="M85.2288 186.762L95.4181 191.82L87.1376 200.037L81.4058 192.455L85.2288 186.762Z" fill="white"/>
<path d="M71.3698 149.473C71.3698 149.473 75.4505 152.759 85.7019 157.107C95.9533 161.455 102.393 160.013 103.576 159.901C104.758 159.789 109.675 159.974 114.366 154.871C119.057 149.769 124.139 149.887 124.348 147.305C124.348 147.305 130.601 168.189 115.752 172.659C100.903 177.13 102.718 179.729 98.5107 180.109C94.3034 180.489 83.3041 173.19 77.2544 172.073C71.2048 170.955 68.7849 159.845 71.3698 149.473Z" fill="#0A0C35"/>
<path d="M106.111 166.569C106.111 166.569 97.1975 169.26 90.8018 165.894C84.406 162.528 82.5118 159.844 82.5118 159.844" stroke="white" stroke-width="2.37142" stroke-miterlimit="10" stroke-linecap="round"/>
<path d="M148.461 157.423C149.314 152.855 147.256 148.74 143.789 144.811C137.699 137.951 137.647 135.225 143.599 128.461C147.411 124.13 148.648 119.531 148.191 113.87C147.477 104.95 148.801 103.099 157.549 101.049C163.176 99.7341 166.954 96.937 169.833 91.973C174.17 84.5297 176.532 83.721 184.421 86.8959C189.871 89.0949 194.799 89.364 200.362 86.954C208.612 83.3854 211.06 84.1445 215.549 91.7337C218.774 97.187 223.349 99.62 229.184 101.029C236.708 102.844 238.478 105.17 237.549 112.75C236.821 118.715 238.4 123.358 242.375 127.814C248.32 134.475 248.32 137.07 242.637 143.689C238.796 148.164 237.027 152.767 237.91 158.795C239.016 166.39 236.886 169.398 229.311 171.017C222.973 172.372 218.579 175.527 215.699 181.249C212.818 186.972 208.209 188.714 202.404 185.867C196.214 182.857 190.342 182.846 184.165 185.99C178.753 188.781 174.066 187.58 171.248 182.005C168.133 175.849 163.323 172.682 156.531 171.348C149.234 169.925 148.244 167.691 148.461 157.423Z" fill="#0A0C35"/>
<path d="M220.167 147.472C220.167 147.472 229.339 141.613 229.411 152.383C229.484 163.153 223.611 164.023 220.261 161.539C216.911 159.055 220.167 147.472 220.167 147.472Z" fill="#662D91"/>
<path d="M166.414 147.834C166.414 147.834 157.164 142.099 157.237 152.869C157.309 163.639 163.193 164.43 166.509 161.901C169.825 159.372 166.414 147.834 166.414 147.834Z" fill="#662D91"/>
<path d="M187.057 193.629L179.784 211.872L207.661 211.685L202.404 191.48L188.013 193.584L187.057 193.629Z" fill="#662D91"/>
<path d="M202.957 193.647C202.957 193.647 201.777 197.212 194.93 197.258C188.083 197.304 186.916 193.516 186.916 193.516C186.916 193.516 201.858 190.634 202.957 193.647Z" fill="#63151B"/>
<path d="M206.486 115.686C201.093 113.523 195.105 113.422 189.645 115.402C180.095 118.711 164.192 127.494 164.862 149.248C165.812 180.268 168.861 190.885 191.964 194.273C215.067 197.662 220.856 171.918 221.494 156.846C222.045 143.927 223.114 122.535 206.486 115.686Z" fill="#662D91"/>
<path d="M204.435 201.395C204.435 201.395 201.096 209.415 194.111 209.462C187.126 209.509 183.285 203.08 183.285 203.08L134.275 225.289L128.622 270.457L257.701 270.159L246.065 213.111L204.435 201.395Z" fill="#EF98C0"/>
<path d="M184.346 152.132C184.346 152.132 182.383 148.271 178.519 148.94C174.654 149.609 174.044 153.481 174.044 153.481" fill="#09231E"/>
<path d="M211.852 153.608C211.852 153.608 211.304 149.079 207.522 148.385C203.739 147.691 201.908 151.325 201.908 151.325" fill="#09231E"/>
<path d="M201.318 177.167C201.318 177.167 192.103 179.749 185.464 176.64C178.825 173.531 176.835 171.029 176.835 171.029" stroke="#110A03" stroke-width="2.37142" stroke-miterlimit="10" stroke-linecap="round"/>
<path d="M223.287 161.928C223.368 161.499 223.597 161.111 223.934 160.831C224.271 160.55 224.695 160.395 225.135 160.392C225.574 160.389 226.001 160.539 226.342 160.814C226.683 161.09 226.916 161.475 227.003 161.903C228.272 168.413 230.762 178.567 234.832 185.098C241.228 195.346 222.298 202.969 222.524 194.649C222.706 188.353 221.591 171.419 223.287 161.928Z" fill="#FDCE34"/>
<path d="M163.134 162.342C163.053 161.912 162.828 161.525 162.497 161.247C162.165 160.969 161.749 160.819 161.321 160.822C160.893 160.825 160.479 160.981 160.151 161.263C159.824 161.545 159.604 161.936 159.528 162.367C158.376 168.891 156.096 179.075 152.221 185.657C146.14 195.987 164.641 203.356 164.311 195.042C164.056 188.75 164.909 171.808 163.134 162.342Z" fill="#FDCE34"/>
<path d="M194.936 165.178C198.627 165.153 201.606 163.166 201.589 160.741C201.573 158.316 198.568 156.37 194.877 156.394C191.186 156.419 188.207 158.406 188.223 160.831C188.24 163.256 191.245 165.203 194.936 165.178Z" fill="#EF98C0"/>
<path d="M221.777 154.305C221.777 154.305 215.384 153.041 217.04 144.469C217.04 144.469 211.307 141.084 212.996 137.648C212.996 137.648 206.903 137.523 207.063 132.472C207.063 132.472 203.853 136.568 197.545 132.616C197.545 132.616 194.717 136.63 190.137 134.948C190.137 134.948 186.76 142.202 179.043 138.356C179.043 138.356 177.656 147.017 171.36 144.777C171.36 144.777 168.747 151.072 164.906 146.247C161.065 141.422 156.518 145.447 155.878 135.179C155.878 135.179 146.121 127.825 154.053 118.641C154.053 118.641 150.887 103.778 162.41 102.867C162.41 102.867 171.2 89.5561 184.003 98.2474C184.003 98.2474 190.998 86.2668 204.453 95.1078C204.453 95.1078 220.652 87.3741 225.887 101.607C225.887 101.607 237.152 110.662 230.466 119.268C230.466 119.268 233.404 131.632 224.048 133.778C224.048 133.778 227.723 136.853 224.11 142.909C224.087 142.932 225.824 149.877 221.777 154.305Z" fill="#0A0C35"/>
<defs>
<filter id="filter0_d_250_17253" x="0" y="0" width="370" height="355" filterUnits="userSpaceOnUse" color-interpolation-filters="sRGB">
<feFlood flood-opacity="0" result="BackgroundImageFix"/>
<feColorMatrix in="SourceAlpha" type="matrix" values="0 0 0 0 0 0 0 0 0 0 0 0 0 0 0 0 0 0 127 0" result="hardAlpha"/>
<feMorphology radius="3" operator="erode" in="SourceAlpha" result="effect1_dropShadow_250_17253"/>
<feOffset dy="7"/>
<feGaussianBlur stdDeviation="4.5"/>
<feComposite in2="hardAlpha" operator="out"/>
<feColorMatrix type="matrix" values="0 0 0 0 1 0 0 0 0 0.572549 0 0 0 0 0.909804 0 0 0 0.15 0"/>
<feBlend mode="normal" in2="BackgroundImageFix" result="effect1_dropShadow_250_17253"/>
<feBlend mode="normal" in="SourceGraphic" in2="effect1_dropShadow_250_17253" result="shape"/>
</filter>
<clipPath id="clip0_250_17253">
<rect width="163" height="225" fill="white" transform="translate(169 45)"/>
</clipPath>
</defs>
</svg>
