<svg width="552" height="675" viewBox="0 0 552 675" fill="none" xmlns="http://www.w3.org/2000/svg">
<mask id="mask0_258_17471" style="mask-type:alpha" maskUnits="userSpaceOnUse" x="0" y="0" width="552" height="675">
<rect width="552" height="675" rx="14" fill="#FFDAF7"/>
</mask>
<g mask="url(#mask0_258_17471)">
<rect width="552" height="675" rx="14" fill="#FFDAF7"/>
</g>
<path d="M523.889 665.181H232.58C230.574 665.181 228.65 664.384 227.232 662.967C225.814 661.55 225.017 659.628 225.017 657.623V302.989C225.017 300.985 225.814 299.062 227.232 297.645C228.65 296.228 230.574 295.432 232.58 295.432H490.461C492.467 295.432 494.39 296.228 495.809 297.645C497.227 299.062 498.024 300.985 498.024 302.989L531.452 657.623C531.452 659.628 530.656 661.55 529.237 662.967C527.819 664.384 525.895 665.181 523.889 665.181Z" fill="#FBB03B"/>
<path d="M495.997 368.875H268.069V379.005H495.997V368.875Z" fill="#FCF9F5"/>
<path d="M495.997 416.992H268.069V427.122H495.997V416.992Z" fill="#FCF9F5"/>
<path d="M495.997 462.578H268.069V472.708H495.997V462.578Z" fill="#FCF9F5"/>
<path d="M389.631 515.762H268.069V523.359H389.631V515.762Z" fill="#FCF9F5"/>
<path d="M403.494 609.463H154.091C152.084 609.463 150.158 608.668 148.736 607.251C147.315 605.834 146.513 603.912 146.508 601.906V247.272C146.513 245.266 147.315 243.344 148.736 241.927C150.158 240.51 152.084 239.715 154.091 239.715H445.381C447.387 239.715 449.31 240.511 450.729 241.928C452.147 243.346 452.944 245.268 452.944 247.272L411.161 601.906C411.161 602.907 410.962 603.898 410.575 604.822C410.189 605.746 409.622 606.584 408.909 607.287C408.196 607.99 407.349 608.545 406.42 608.918C405.49 609.292 404.495 609.477 403.494 609.463V609.463Z" fill="#662D91"/>
<path d="M417.489 313.158H189.562V323.288H417.489V313.158Z" fill="#FCF9F5"/>
<path d="M417.488 361.277H189.561V371.407H417.488V361.277Z" fill="#FCF9F5"/>
<path d="M417.489 406.863H189.562V416.993H417.489V406.863Z" fill="#FCF9F5"/>
<path d="M311.122 460.047H189.561V467.644H311.122V460.047Z" fill="#FCF9F5"/>
<path d="M366.852 553.749H104.811C102.805 553.749 100.881 552.953 99.4632 551.536C98.0449 550.118 97.248 548.196 97.248 546.192L68 191.578C68 189.572 68.7962 187.647 70.2139 186.227C71.6315 184.806 73.555 184.006 75.5627 184H366.852C368.862 184.006 370.788 184.806 372.209 186.226C373.63 187.646 374.43 189.57 374.436 191.578V546.213C374.425 548.215 373.621 550.132 372.2 551.544C370.779 552.956 368.856 553.749 366.852 553.749V553.749Z" fill="#C1272D"/>
<path d="M336.448 257.443H111.053V267.573H336.448V257.443Z" fill="#FCF9F5"/>
<path d="M336.448 305.562H111.053V315.693H336.448V305.562Z" fill="#FCF9F5"/>
<path d="M336.448 351.146H111.053V361.277H336.448V351.146Z" fill="#FCF9F5"/>
<path d="M232.614 404.33H111.053V411.928H232.614V404.33Z" fill="#FCF9F5"/>
</svg>
