<svg width="552" height="416" viewBox="0 0 552 416" fill="none" xmlns="http://www.w3.org/2000/svg">
<path d="M451.439 165.551L425.944 193.85L411.781 155.646L197.911 145.742L171 0L552 42.449L522.257 208L451.439 165.551Z" fill="#C1272D"/>
<path d="M100.561 373.551L126.056 401.85L140.219 363.646L354.089 353.742L381 208L0 250.449L29.7435 416L100.561 373.551Z" fill="#009245"/>
<path d="M386.5 357.082C375.23 357.082 366.083 366.229 366.083 377.499C366.083 388.769 375.23 397.915 386.5 397.915C397.77 397.915 406.917 388.769 406.917 377.499C406.917 366.229 397.77 357.082 386.5 357.082ZM380.967 386.257L373.638 378.928C372.841 378.132 372.841 376.845 373.638 376.049C374.434 375.253 375.72 375.253 376.516 376.049L382.417 381.929L396.463 367.882C397.26 367.086 398.546 367.086 399.342 367.882C400.138 368.679 400.138 369.965 399.342 370.761L383.846 386.257C383.07 387.054 381.763 387.054 380.967 386.257Z" fill="#009245"/>
<path d="M148 147.219L171.852 123.367L177.151 128.666L153.3 152.518L148 147.219Z" fill="#C1272D"/>
<path d="M153.165 123.5L177.016 147.352L171.987 152.381L148.135 128.53L153.165 123.5Z" fill="#C1272D"/>
<path d="M279.966 72.2298L286.185 72.4109L285.646 90.9331L295.739 91.2271L295.585 96.5288L279.272 96.0537L279.966 72.2298Z" fill="white"/>
<path d="M307.257 78.2289C309.794 78.3028 311.748 78.9493 313.119 80.1683C314.49 81.3648 315.156 83.0169 315.117 85.1246L314.769 97.0876L308.821 96.9143L308.882 94.8412C307.613 96.3689 305.743 97.0968 303.274 97.0249C301.325 96.9681 299.8 96.4021 298.697 95.3269C297.618 94.2297 297.104 92.8201 297.154 91.0982C297.205 89.3536 297.845 88.0117 299.074 87.0724C300.326 86.1338 302.085 85.6861 304.351 85.7294L309.143 85.869L309.149 85.6651C309.175 84.7815 308.889 84.0929 308.291 83.5992C307.716 83.1063 306.862 82.8433 305.729 82.8103C304.958 82.7879 304.082 82.8871 303.101 83.1079C302.142 83.3295 301.169 83.6639 300.18 84.1113L298.634 79.9846C300.149 79.3484 301.591 78.8915 302.96 78.6139C304.352 78.3143 305.784 78.186 307.257 78.2289ZM305.263 92.9671C306.169 92.9935 306.968 92.8013 307.661 92.3906C308.354 91.9573 308.801 91.3921 309.003 90.695L309.049 89.0976L305.447 88.9927C303.747 88.9432 302.879 89.5529 302.842 90.8217C302.824 91.4561 303.024 91.9721 303.443 92.3698C303.886 92.7455 304.492 92.9446 305.263 92.9671Z" fill="white"/>
<path d="M339.042 79.1546C341.059 79.2133 342.649 79.8946 343.813 81.1984C344.999 82.5028 345.561 84.2312 345.499 86.3836L345.161 97.9727L339.146 97.7975L339.433 87.9417C339.463 86.8995 339.204 86.0756 338.654 85.47C338.106 84.8418 337.356 84.5138 336.404 84.4861C335.406 84.4797 334.57 84.7841 333.894 85.3994C333.241 86.0153 332.843 86.8427 332.7 87.8817L332.416 97.6015L326.367 97.4253L326.903 79.0391L332.952 79.2153L332.865 82.2061C333.553 81.1603 334.415 80.3804 335.45 79.8663C336.508 79.3529 337.706 79.1157 339.042 79.1546Z" fill="white"/>
<path d="M357.897 79.7378C360.888 79.8249 363.162 80.7755 364.719 82.5896C366.277 84.4037 367.01 86.8514 366.92 89.9328C366.907 90.4086 366.885 90.7708 366.855 91.0193L354.076 90.6472C354.34 91.698 354.827 92.5171 355.535 93.1047C356.245 93.6696 357.12 93.9672 358.162 93.9975C358.955 94.0206 359.719 93.8841 360.453 93.5881C361.21 93.2926 361.903 92.848 362.533 92.254L365.602 95.5068C364.619 96.5439 363.44 97.3259 362.064 97.8528C360.711 98.3576 359.185 98.5853 357.486 98.5358C355.515 98.4784 353.804 98.043 352.354 97.2298C350.904 96.4166 349.802 95.296 349.05 93.8682C348.321 92.441 347.983 90.7985 348.037 88.9406C348.092 87.0601 348.537 85.4177 349.371 84.0134C350.207 82.5864 351.36 81.5089 352.833 80.7808C354.306 80.03 355.994 79.6824 357.897 79.7378ZM361.103 87.6205C361.134 86.5556 360.842 85.6967 360.226 85.0438C359.633 84.369 358.827 84.0167 357.808 83.987C356.856 83.9593 356.043 84.253 355.367 84.8683C354.714 85.4842 354.27 86.333 354.034 87.4146L361.103 87.6205Z" fill="white"/>
<path d="M387.885 80.8153L387.397 97.5702C387.348 99.2694 386.885 100.741 386.01 101.986C385.134 103.253 383.927 104.204 382.389 104.839C380.874 105.498 379.13 105.799 377.159 105.742C375.618 105.697 374.14 105.438 372.726 104.966C371.311 104.494 370.07 103.88 369.004 103.123L371.233 99.0042C372.054 99.595 372.948 100.063 373.913 100.409C374.878 100.754 375.859 100.942 376.856 100.971C378.215 101.01 379.301 100.724 380.112 100.113C380.924 99.5019 381.345 98.6524 381.377 97.5649L381.434 95.5937C380.164 97.1667 378.396 97.9203 376.13 97.8543C374.612 97.8101 373.263 97.408 372.084 96.648C370.927 95.866 370.029 94.7967 369.388 93.4401C368.77 92.0616 368.487 90.5 368.538 88.7554C368.588 87.0334 368.949 85.5247 369.622 84.229C370.317 82.9341 371.265 81.9412 372.464 81.2505C373.663 80.5598 375.011 80.2362 376.506 80.2798C377.639 80.3128 378.652 80.5577 379.546 81.0146C380.463 81.4495 381.216 82.0723 381.804 82.8831L381.87 80.6401L387.885 80.8153ZM377.788 93.4807C378.898 93.513 379.805 93.1426 380.508 92.3694C381.21 91.5962 381.58 90.5752 381.617 89.3064C381.655 88.0149 381.345 86.9628 380.689 86.15C380.032 85.3372 379.149 84.9147 378.039 84.8823C376.928 84.85 376.01 85.2314 375.284 86.0266C374.581 86.7998 374.211 87.8208 374.174 89.0896C374.137 90.3584 374.447 91.3992 375.104 92.212C375.783 93.0255 376.678 93.4484 377.788 93.4807Z" fill="white"/>
<path d="M398.278 84.1793C398.944 83.1329 399.783 82.341 400.797 81.8036C401.833 81.2668 402.997 81.0173 404.288 81.0549L404.127 86.5946C403.923 86.566 403.618 86.5457 403.21 86.5338C401.783 86.4923 400.617 86.7985 399.714 87.4524C398.811 88.0838 398.275 88.9752 398.105 90.1268L397.832 99.5068L391.783 99.3306L392.318 80.9444L398.368 81.1206L398.278 84.1793Z" fill="white"/>
<path d="M406.921 81.3697L412.937 81.5449L412.401 99.9311L406.386 99.7559L406.921 81.3697ZM410.125 72.9934C411.053 73.0205 411.804 73.3484 412.375 73.9773C412.969 74.5842 413.253 75.3635 413.225 76.3151C413.198 77.244 412.87 78.0054 412.24 78.5994C411.633 79.194 410.865 79.4777 409.936 79.4507C409.008 79.4236 408.246 79.0953 407.652 78.4657C407.081 77.8368 406.809 77.0579 406.836 76.129C406.864 75.1774 407.181 74.4156 407.787 73.8437C408.416 73.2498 409.196 72.9663 410.125 72.9934Z" fill="white"/>
<path d="M429.03 99.463C428.339 99.8284 427.549 100.111 426.658 100.312C425.769 100.491 424.871 100.566 423.965 100.54C422.152 100.487 420.695 99.9232 419.592 98.848C418.512 97.7734 417.999 96.3185 418.052 94.4833L418.282 86.5987L415.733 86.5244L415.85 82.5141L418.399 82.5884L418.547 77.4905L424.563 77.6657L424.414 82.7636L429.172 82.9021L429.056 86.9124L424.298 86.7739L424.096 93.7069C424.058 94.9984 424.572 95.6596 425.637 95.6906C426.294 95.7098 427.081 95.5286 427.999 95.1472L429.03 99.463Z" fill="white"/>
<path d="M440.71 82.1157C443.248 82.1896 445.202 82.8361 446.572 84.0552C447.943 85.2516 448.609 86.9037 448.57 89.0115L448.222 100.974L442.275 100.801L442.335 98.728C441.066 100.256 439.197 100.984 436.727 100.912C434.779 100.855 433.253 100.289 432.151 99.2138C431.071 98.1165 430.557 96.707 430.607 94.985C430.658 93.2404 431.298 91.8985 432.527 90.9592C433.779 90.0206 435.538 89.573 437.804 89.6163L442.596 89.7559L442.602 89.5519C442.628 88.6683 442.342 87.9797 441.744 87.4861C441.169 86.9931 440.315 86.7301 439.182 86.6972C438.412 86.6747 437.536 86.7739 436.554 86.9948C435.595 87.2163 434.622 87.5508 433.634 87.9982L432.087 83.8714C433.602 83.2352 435.044 82.7784 436.413 82.5008C437.805 82.2012 439.237 82.0728 440.71 82.1157ZM438.716 96.8539C439.622 96.8803 440.422 96.6881 441.114 96.2775C441.807 95.8441 442.254 95.2789 442.456 94.5818L442.502 92.9845L438.9 92.8796C437.201 92.8301 436.332 93.4397 436.295 94.7085C436.277 95.3429 436.477 95.859 436.897 96.2567C437.339 96.6324 437.946 96.8315 438.716 96.8539Z" fill="white"/>
<path d="M67.0816 282.559L72.8377 282.033L75.006 305.768L69.5886 306.263L57.5254 293.06L58.8214 307.247L53.0315 307.776L50.8632 284.041L56.3145 283.543L68.4208 296.845L67.0816 282.559Z" fill="white"/>
<path d="M86.2157 286.035C88.7439 285.804 90.7613 286.211 92.268 287.257C93.7727 288.281 94.6322 289.841 94.8466 291.938L95.9354 303.856L90.01 304.398L89.8214 302.332C88.7447 304.001 86.9762 304.948 84.5158 305.173C82.5745 305.35 80.9922 304.971 79.7687 304.036C78.5657 303.076 77.8858 301.738 77.7291 300.023C77.5703 298.285 78.0448 296.876 79.1525 295.796C80.2827 294.714 81.9754 294.059 84.2306 293.83L89.0048 293.394L88.9862 293.19C88.9058 292.31 88.5392 291.661 87.8864 291.242C87.2562 290.822 86.3768 290.663 85.2482 290.766C84.4807 290.837 83.623 291.04 82.6751 291.377C81.7497 291.712 80.8233 292.161 79.896 292.724L77.8657 288.812C79.2937 287.999 80.6704 287.372 81.9959 286.932C83.3419 286.468 84.7485 286.169 86.2157 286.035ZM86.0037 300.906C86.9066 300.823 87.6771 300.537 88.3151 300.046C88.951 299.533 89.3273 298.918 89.444 298.202L89.2986 296.61L85.7096 296.938C84.0166 297.093 83.2279 297.802 83.3433 299.066C83.4011 299.698 83.6619 300.187 84.1259 300.531C84.6103 300.851 85.2363 300.976 86.0037 300.906Z" fill="white"/>
<path d="M111.816 301.45C111.174 301.895 110.423 302.271 109.563 302.577C108.702 302.861 107.819 303.044 106.916 303.126C105.111 303.291 103.596 302.906 102.372 301.971C101.172 301.034 100.488 299.651 100.321 297.823L99.6029 289.967L97.0635 290.199L96.6985 286.204L99.2379 285.972L98.7739 280.893L104.767 280.346L105.231 285.424L109.971 284.991L110.336 288.987L105.596 289.42L106.227 296.327C106.345 297.614 106.934 298.208 107.995 298.112C108.649 298.052 109.409 297.777 110.275 297.289L111.816 301.45Z" fill="white"/>
<path d="M121.331 282.827C123.859 282.596 125.877 283.003 127.384 284.049C128.888 285.073 129.748 286.633 129.962 288.73L131.051 300.648L125.126 301.19L124.937 299.124C123.86 300.793 122.092 301.74 119.631 301.965C117.69 302.142 116.108 301.763 114.884 300.828C113.681 299.868 113.001 298.53 112.845 296.815C112.686 295.077 113.16 293.668 114.268 292.588C115.398 291.506 117.091 290.851 119.346 290.622L124.12 290.186L124.102 289.982C124.021 289.102 123.655 288.453 123.002 288.034C122.372 287.614 121.492 287.455 120.364 287.558C119.596 287.629 118.738 287.832 117.791 288.169C116.865 288.504 115.939 288.953 115.012 289.516L112.981 285.604C114.409 284.791 115.786 284.164 117.111 283.724C118.457 283.26 119.864 282.961 121.331 282.827ZM121.119 297.698C122.022 297.615 122.793 297.329 123.431 296.838C124.067 296.325 124.443 295.71 124.559 294.994L124.414 293.402L120.825 293.73C119.132 293.885 118.343 294.594 118.459 295.858C118.517 296.49 118.777 296.979 119.241 297.323C119.726 297.643 120.352 297.768 121.119 297.698Z" fill="white"/>
<path d="M132.974 275.14L139.001 274.589L141.296 299.713L135.269 300.263L132.974 275.14Z" fill="white"/>
<path d="M144.404 280.958L150.397 280.41L152.071 298.728L146.078 299.276L144.404 280.958ZM146.58 272.258C147.505 272.173 148.289 272.409 148.932 272.965C149.595 273.496 149.97 274.236 150.056 275.184C150.141 276.109 149.906 276.905 149.353 277.57C148.821 278.233 148.093 278.607 147.167 278.691C146.242 278.776 145.447 278.541 144.782 277.987C144.139 277.431 143.775 276.691 143.691 275.765C143.604 274.817 143.828 274.023 144.361 273.383C144.915 272.717 145.654 272.343 146.58 272.258Z" fill="white"/>
<path d="M163.258 278.997C165.786 278.766 167.804 279.173 169.31 280.219C170.815 281.242 171.675 282.803 171.889 284.9L172.978 296.818L167.053 297.36L166.864 295.294C165.787 296.963 164.019 297.91 161.558 298.135C159.617 298.312 158.035 297.933 156.811 296.998C155.608 296.038 154.928 294.7 154.772 292.985C154.613 291.247 155.087 289.838 156.195 288.758C157.325 287.676 159.018 287.02 161.273 286.792L166.047 286.355L166.029 286.152C165.948 285.272 165.582 284.623 164.929 284.204C164.299 283.784 163.419 283.625 162.291 283.728C161.523 283.798 160.665 284.002 159.718 284.339C158.792 284.674 157.866 285.123 156.938 285.685L154.908 281.774C156.336 280.96 157.713 280.334 159.038 279.894C160.384 279.43 161.791 279.131 163.258 278.997ZM163.046 293.868C163.949 293.785 164.72 293.498 165.358 293.008C165.994 292.494 166.37 291.88 166.486 291.163L166.341 289.572L162.752 289.9C161.059 290.055 160.27 290.764 160.386 292.028C160.444 292.66 160.704 293.148 161.168 293.493C161.653 293.813 162.279 293.938 163.046 293.868Z" fill="white"/>
<path d="M59.6687 338.631C58.4139 338.745 57.3808 338.575 56.5694 338.12C55.7647 337.665 55.1852 336.965 54.8311 336.02C54.4764 335.068 54.3573 333.911 54.4738 332.548L55.1566 324.743L57.6562 324.515L56.9637 332.873C56.9024 333.668 56.9592 334.326 57.1338 334.845C57.3151 335.364 57.6141 335.742 58.0306 335.979C58.4466 336.208 58.9766 336.294 59.6206 336.235C60.1251 336.189 60.5916 336.056 61.0201 335.836C61.4485 335.616 61.8045 335.262 62.0879 334.774C62.378 334.286 62.5576 333.614 62.6266 332.757L63.3624 323.994L65.852 323.766L65.1055 332.742C65.0208 333.794 64.8242 334.682 64.5155 335.406C64.2067 336.131 63.8087 336.719 63.3212 337.172C62.8397 337.618 62.2882 337.956 61.6666 338.187C61.045 338.418 60.3791 338.566 59.6687 338.631Z" fill="white"/>
<path d="M70.5988 337.632C69.7888 337.706 69.1816 337.507 68.777 337.035C68.3784 336.556 68.2181 335.828 68.2962 334.85L68.7446 329.427L67.1513 329.572L67.3368 327.426L68.9202 327.282L69.2084 323.841L71.6434 322.795L71.2903 327.065L73.4912 326.864L73.3156 329.009L71.1148 329.21L70.6834 334.381C70.6419 334.806 70.6752 335.098 70.7833 335.255C70.8975 335.406 71.1172 335.466 71.4425 335.436C71.6815 335.414 71.9079 335.364 72.1215 335.284C72.3417 335.203 72.6106 335.068 72.928 334.879L72.6501 337.003C72.0992 337.348 71.4154 337.557 70.5988 337.632Z" fill="white"/>
<path d="M74.5843 337.027L75.4471 326.686L77.8371 326.467L76.9744 336.809L74.5843 337.027ZM76.7357 325.182C76.4236 325.211 76.1481 325.125 75.909 324.926C75.6765 324.727 75.5454 324.464 75.5157 324.139C75.4763 323.707 75.598 323.318 75.8809 322.971C76.1699 322.616 76.5268 322.42 76.9517 322.381C77.2837 322.351 77.5659 322.435 77.7983 322.635C78.0308 322.835 78.1619 323.097 78.1916 323.422C78.2316 323.861 78.1069 324.254 77.8173 324.601C77.5277 324.949 77.1672 325.143 76.7357 325.182Z" fill="white"/>
<path d="M79.8885 336.542L81.0295 322.761L83.4844 321.714L82.2586 336.326L79.8885 336.542Z" fill="white"/>
<path d="M85.3084 336.047L86.1712 325.706L88.5612 325.488L87.6985 335.829L85.3084 336.047ZM87.4598 324.202C87.1477 324.231 86.8722 324.146 86.6331 323.947C86.4006 323.747 86.2695 323.484 86.2398 323.159C86.2004 322.728 86.3221 322.338 86.605 321.991C86.894 321.637 87.2509 321.44 87.6758 321.401C88.0078 321.371 88.29 321.455 88.5224 321.655C88.7549 321.855 88.886 322.117 88.9157 322.443C88.9557 322.881 88.831 323.274 88.5414 323.622C88.2518 323.969 87.8913 324.163 87.4598 324.202Z" fill="white"/>
<path d="M90.1744 335.603L90.323 333.711L95.6951 327.005L91.2138 327.414L91.3857 325.229L99.0239 324.532L98.879 326.352L93.4824 333.121L98.3223 332.679L98.1412 334.875L90.1744 335.603Z" fill="white"/>
<path d="M103.729 334.605C102.753 334.695 101.965 334.495 101.365 334.008C100.771 333.513 100.433 332.825 100.353 331.942C100.285 331.198 100.408 330.531 100.722 329.94C101.042 329.341 101.517 328.86 102.146 328.494C102.782 328.121 103.541 327.895 104.424 327.814C104.856 327.775 105.285 327.786 105.712 327.847C106.146 327.901 106.506 328.002 106.794 328.15L106.842 327.573C106.913 326.957 106.805 326.505 106.517 326.217C106.236 325.921 105.8 325.801 105.209 325.854C104.711 325.9 104.188 326.038 103.64 326.269C103.098 326.493 102.58 326.794 102.086 327.174L101.569 325.253C102.157 324.798 102.771 324.444 103.41 324.191C104.049 323.932 104.707 323.771 105.385 323.71C106.201 323.635 106.903 323.735 107.491 324.009C108.085 324.283 108.531 324.704 108.831 325.273C109.131 325.841 109.25 326.523 109.189 327.319L108.647 333.915L106.286 334.131L106.351 333.301C106.082 333.647 105.707 333.939 105.226 334.177C104.746 334.415 104.247 334.558 103.729 334.605ZM104.173 332.426C104.591 332.388 105.008 332.269 105.425 332.071C105.842 331.872 106.21 331.607 106.528 331.277L106.619 330.074C106.36 329.957 106.061 329.87 105.721 329.814C105.382 329.758 105.026 329.747 104.654 329.781C104.216 329.821 103.843 329.919 103.536 330.074C103.235 330.222 103.008 330.417 102.856 330.658C102.71 330.893 102.651 331.159 102.678 331.458C102.71 331.803 102.861 332.061 103.13 332.23C103.4 332.4 103.748 332.465 104.173 332.426Z" fill="white"/>
<path d="M111.46 333.658L112.323 323.317L114.703 323.099L114.607 324.142C114.811 323.735 115.105 323.397 115.489 323.128C115.878 322.851 116.286 322.694 116.711 322.655C117.355 322.596 117.938 322.79 118.461 323.238L117.957 325.523C117.727 325.35 117.471 325.226 117.19 325.152C116.914 325.07 116.641 325.041 116.369 325.066C115.99 325.101 115.654 325.232 115.36 325.459C115.072 325.68 114.835 325.979 114.649 326.358C114.469 326.729 114.358 327.164 114.316 327.663L113.84 333.441L111.46 333.658Z" fill="white"/>
<path d="M128.911 332.305C128.081 332.381 127.342 332.281 126.695 332.005C126.046 331.723 125.52 331.276 125.116 330.663C124.712 330.051 124.468 329.28 124.383 328.351C124.309 327.541 124.36 326.749 124.537 325.977C124.714 325.197 125.01 324.487 125.427 323.847C125.851 323.206 126.385 322.678 127.03 322.264C127.675 321.851 128.426 321.605 129.282 321.526C130.099 321.452 130.808 321.558 131.41 321.844C132.018 322.13 132.5 322.565 132.854 323.148C133.208 323.725 133.422 324.412 133.495 325.209C133.53 325.594 133.531 325.975 133.499 326.353C133.472 326.723 133.412 327.094 133.319 327.464L126.796 328.06C126.841 328.551 126.959 328.959 127.149 329.283C127.345 329.599 127.601 329.834 127.916 329.986C128.237 330.131 128.604 330.184 129.015 330.146C129.414 330.11 129.81 329.98 130.205 329.757C130.606 329.533 130.942 329.254 131.213 328.921L132.572 330.384C132.131 330.913 131.615 331.348 131.024 331.69C130.439 332.025 129.734 332.23 128.911 332.305ZM126.968 325.985L131.201 325.599C131.176 325.179 131.086 324.819 130.931 324.519C130.776 324.212 130.554 323.984 130.266 323.837C129.984 323.682 129.644 323.622 129.246 323.659C128.834 323.696 128.47 323.816 128.154 324.019C127.837 324.216 127.577 324.484 127.374 324.824C127.17 325.157 127.035 325.544 126.968 325.985Z" fill="white"/>
<path d="M135.298 331.48L136.439 317.7L138.893 316.652L137.668 331.264L135.298 331.48Z" fill="white"/>
<path d="M145.661 330.534L146.524 320.192L148.924 319.973L148.828 321.016C149.11 320.575 149.463 320.228 149.888 319.975C150.32 319.715 150.781 319.562 151.272 319.518C152.009 319.45 152.633 319.574 153.144 319.889C153.655 320.204 154.03 320.685 154.27 321.332C154.509 321.973 154.59 322.752 154.513 323.67L153.996 329.772L151.606 329.991L152.097 324.152C152.169 323.328 152.081 322.727 151.832 322.348C151.589 321.962 151.186 321.795 150.621 321.846C150.057 321.898 149.585 322.149 149.204 322.598C148.823 323.042 148.601 323.614 148.537 324.316L148.031 330.317L145.661 330.534Z" fill="white"/>
<path d="M161.18 329.357C159.926 329.472 158.914 329.176 158.147 328.469C157.386 327.762 156.942 326.708 156.814 325.307C156.702 324.079 156.828 322.976 157.194 321.999C157.56 321.022 158.121 320.231 158.876 319.626C159.63 319.022 160.532 318.672 161.581 318.576C162.756 318.468 163.728 318.775 164.497 319.494C165.265 320.207 165.709 321.218 165.828 322.526C165.942 323.774 165.82 324.896 165.463 325.893C165.105 326.89 164.556 327.693 163.815 328.303C163.081 328.912 162.203 329.264 161.18 329.357ZM161.147 327.01C161.665 326.963 162.108 326.762 162.477 326.407C162.853 326.044 163.127 325.571 163.301 324.986C163.475 324.394 163.528 323.733 163.462 323.003C163.396 322.286 163.189 321.743 162.841 321.373C162.499 321.002 162.043 320.843 161.472 320.895C160.967 320.941 160.527 321.146 160.152 321.508C159.783 321.87 159.509 322.343 159.328 322.929C159.154 323.514 159.099 324.165 159.165 324.882C159.232 325.619 159.437 326.172 159.779 326.543C160.126 326.906 160.582 327.062 161.147 327.01Z" fill="white"/>
<path d="M167.647 328.525L168.51 318.184L170.84 317.971L170.766 318.922C171.077 318.512 171.452 318.186 171.892 317.945C172.338 317.697 172.813 317.55 173.318 317.504C173.822 317.457 174.29 317.552 174.719 317.787C175.149 318.016 175.477 318.351 175.705 318.792C176.078 318.256 176.518 317.84 177.027 317.546C177.542 317.245 178.128 317.064 178.785 317.004C179.489 316.94 180.099 317.058 180.615 317.359C181.13 317.653 181.518 318.09 181.779 318.669C182.045 319.24 182.144 319.917 182.075 320.7L181.519 327.258L179.089 327.48L179.592 321.329C179.651 320.654 179.554 320.144 179.301 319.799C179.056 319.453 178.68 319.303 178.176 319.349C177.685 319.394 177.263 319.613 176.91 320.007C176.565 320.4 176.362 320.934 176.304 321.609L175.793 327.781L173.343 328.005L173.866 321.852C173.918 321.184 173.819 320.678 173.566 320.333C173.32 319.98 172.944 319.827 172.44 319.873C171.942 319.919 171.51 320.142 171.145 320.544C170.786 320.938 170.581 321.469 170.528 322.137L170.017 328.309L167.647 328.525Z" fill="white"/>
<path d="M189.12 326.805C188.642 326.848 188.188 326.786 187.757 326.618C187.326 326.443 187.002 326.195 186.786 325.873L186.708 326.784L184.378 326.997L185.519 313.216L187.984 312.167L187.56 317.197C187.83 316.857 188.16 316.583 188.549 316.373C188.938 316.164 189.352 316.039 189.79 315.999C190.44 315.939 191.031 316.069 191.563 316.389C192.101 316.708 192.539 317.184 192.878 317.815C193.216 318.441 193.424 319.181 193.503 320.038C193.616 321.279 193.504 322.394 193.166 323.382C192.834 324.37 192.321 325.167 191.627 325.772C190.932 326.371 190.096 326.715 189.12 326.805ZM188.71 324.512C189.248 324.463 189.708 324.26 190.09 323.904C190.472 323.541 190.754 323.067 190.934 322.482C191.121 321.889 191.181 321.221 191.113 320.477C191.048 319.767 190.838 319.227 190.483 318.858C190.134 318.481 189.68 318.318 189.123 318.369C188.797 318.399 188.467 318.52 188.131 318.731C187.796 318.942 187.541 319.19 187.366 319.474L187.005 323.764C187.19 324.035 187.426 324.238 187.713 324.372C188.006 324.5 188.338 324.546 188.71 324.512Z" fill="white"/>
<path d="M195.215 326.007L196.078 315.665L198.458 315.448L198.362 316.491C198.566 316.084 198.86 315.746 199.244 315.477C199.633 315.2 200.041 315.042 200.466 315.003C201.11 314.945 201.693 315.139 202.216 315.587L201.712 317.872C201.482 317.699 201.226 317.575 200.945 317.5C200.67 317.418 200.396 317.39 200.124 317.415C199.745 317.449 199.409 317.58 199.115 317.808C198.827 318.028 198.59 318.328 198.404 318.706C198.224 319.078 198.113 319.513 198.071 320.012L197.595 325.789L195.215 326.007Z" fill="white"/>
<path d="M207.207 325.152C206.377 325.228 205.638 325.128 204.991 324.853C204.342 324.57 203.816 324.123 203.412 323.511C203.008 322.898 202.763 322.127 202.678 321.198C202.604 320.388 202.656 319.597 202.833 318.824C203.01 318.045 203.306 317.335 203.723 316.694C204.146 316.053 204.681 315.525 205.326 315.112C205.971 314.698 206.721 314.452 207.578 314.374C208.395 314.299 209.104 314.405 209.706 314.691C210.314 314.977 210.796 315.412 211.15 315.995C211.504 316.572 211.718 317.259 211.79 318.056C211.826 318.441 211.827 318.822 211.794 319.2C211.768 319.571 211.708 319.941 211.615 320.311L205.092 320.907C205.137 321.398 205.254 321.806 205.445 322.13C205.641 322.447 205.897 322.681 206.212 322.833C206.533 322.978 206.899 323.031 207.311 322.994C207.709 322.957 208.106 322.827 208.501 322.604C208.902 322.38 209.238 322.101 209.509 321.769L210.867 323.231C210.427 323.76 209.911 324.196 209.32 324.537C208.734 324.872 208.03 325.077 207.207 325.152ZM205.264 318.833L209.496 318.446C209.471 318.027 209.382 317.667 209.227 317.366C209.072 317.059 208.85 316.832 208.562 316.684C208.28 316.529 207.94 316.469 207.542 316.506C207.13 316.543 206.766 316.664 206.45 316.867C206.133 317.063 205.873 317.331 205.67 317.671C205.466 318.004 205.331 318.392 205.264 318.833Z" fill="white"/>
<path d="M222.024 323.799C221.029 323.89 220.2 323.58 219.54 322.871C218.879 322.161 218.49 321.162 218.372 319.875C218.259 318.633 218.374 317.508 218.717 316.499C219.066 315.49 219.598 314.675 220.311 314.054C221.023 313.427 221.868 313.068 222.844 312.979C223.302 312.937 223.718 312.983 224.091 313.116C224.472 313.249 224.779 313.465 225.014 313.765L225.354 309.577L227.819 308.528L226.603 323.139L224.263 323.353L224.339 322.422C224.087 322.813 223.761 323.131 223.362 323.375C222.968 323.612 222.522 323.753 222.024 323.799ZM222.62 321.414C222.998 321.38 223.356 321.26 223.692 321.055C224.028 320.851 224.293 320.596 224.486 320.29L224.823 316.072C224.663 315.785 224.436 315.572 224.142 315.431C223.854 315.283 223.528 315.226 223.162 315.26C222.605 315.311 222.132 315.518 221.743 315.881C221.361 316.238 221.079 316.715 220.9 317.314C220.72 317.913 220.665 318.594 220.735 319.357C220.799 320.055 220.995 320.586 221.322 320.951C221.656 321.308 222.089 321.463 222.62 321.414Z" fill="white"/>
<path d="M233.738 322.728C232.908 322.804 232.169 322.704 231.521 322.429C230.873 322.147 230.347 321.699 229.943 321.087C229.539 320.474 229.294 319.703 229.209 318.774C229.135 317.964 229.187 317.173 229.364 316.4C229.541 315.621 229.837 314.911 230.254 314.27C230.677 313.629 231.212 313.102 231.857 312.688C232.502 312.274 233.252 312.028 234.109 311.95C234.925 311.875 235.635 311.981 236.237 312.268C236.845 312.554 237.327 312.988 237.681 313.572C238.035 314.149 238.249 314.835 238.321 315.632C238.356 316.017 238.358 316.399 238.325 316.776C238.299 317.147 238.239 317.517 238.146 317.887L231.623 318.483C231.668 318.975 231.785 319.382 231.976 319.706C232.172 320.023 232.428 320.257 232.743 320.409C233.064 320.554 233.43 320.608 233.842 320.57C234.24 320.534 234.637 320.404 235.031 320.18C235.433 319.956 235.769 319.678 236.04 319.345L237.398 320.807C236.958 321.336 236.442 321.772 235.851 322.114C235.265 322.448 234.561 322.653 233.738 322.728ZM231.795 316.409L236.027 316.022C236.002 315.603 235.913 315.243 235.758 314.942C235.603 314.635 235.381 314.408 235.093 314.26C234.811 314.105 234.471 314.046 234.073 314.082C233.661 314.12 233.297 314.24 232.981 314.443C232.664 314.639 232.404 314.907 232.201 315.247C231.997 315.581 231.862 315.968 231.795 316.409Z" fill="white"/>
<path d="M245.078 321.451L246.219 307.671L248.674 306.623L247.448 321.235L245.078 321.451Z" fill="white"/>
<path d="M253.487 320.924C252.511 321.013 251.723 320.814 251.123 320.327C250.529 319.832 250.192 319.143 250.111 318.26C250.043 317.517 250.166 316.849 250.48 316.258C250.801 315.66 251.275 315.178 251.905 314.813C252.54 314.44 253.299 314.214 254.182 314.133C254.614 314.093 255.043 314.104 255.471 314.166C255.904 314.22 256.265 314.321 256.553 314.469L256.6 313.892C256.671 313.276 256.563 312.824 256.276 312.536C255.994 312.24 255.558 312.119 254.967 312.173C254.469 312.219 253.947 312.357 253.399 312.588C252.857 312.811 252.339 313.113 251.844 313.493L251.328 311.572C251.915 311.117 252.529 310.763 253.169 310.51C253.808 310.251 254.466 310.09 255.143 310.028C255.96 309.954 256.662 310.054 257.249 310.328C257.843 310.602 258.29 311.023 258.589 311.591C258.889 312.16 259.008 312.842 258.947 313.637L258.405 320.234L256.045 320.45L256.11 319.62C255.84 319.966 255.465 320.258 254.985 320.496C254.504 320.734 254.005 320.877 253.487 320.924ZM253.931 318.745C254.349 318.707 254.767 318.588 255.184 318.389C255.601 318.191 255.968 317.926 256.286 317.596L256.377 316.393C256.119 316.276 255.82 316.189 255.48 316.133C255.14 316.077 254.784 316.066 254.412 316.1C253.974 316.14 253.601 316.238 253.294 316.393C252.993 316.541 252.767 316.736 252.615 316.977C252.469 317.212 252.409 317.478 252.437 317.777C252.468 318.122 252.619 318.379 252.889 318.549C253.159 318.718 253.506 318.784 253.931 318.745Z" fill="white"/>
<path d="M265.688 323.646L266.898 309.195L269.298 308.976L269.215 309.817C269.787 309.049 270.558 308.62 271.527 308.532C272.165 308.473 272.739 308.602 273.249 308.917C273.767 309.231 274.191 309.694 274.521 310.307C274.858 310.918 275.065 311.643 275.141 312.479C275.254 313.714 275.139 314.836 274.796 315.845C274.459 316.846 273.941 317.66 273.242 318.286C272.549 318.905 271.727 319.258 270.778 319.345C270.293 319.389 269.857 319.342 269.47 319.203C269.089 319.064 268.763 318.833 268.492 318.509L268.163 322.596L265.688 323.646ZM270.447 317.045C270.985 316.996 271.439 316.794 271.808 316.439C272.183 316.077 272.454 315.6 272.621 315.009C272.794 314.411 272.846 313.73 272.776 312.966C272.711 312.256 272.512 311.722 272.178 311.364C271.85 311.006 271.415 310.852 270.87 310.901C270.498 310.935 270.135 311.065 269.781 311.292C269.434 311.518 269.174 311.793 269.003 312.116L268.678 316.253C268.845 316.539 269.085 316.751 269.399 316.89C269.713 317.029 270.062 317.08 270.447 317.045Z" fill="white"/>
<path d="M281.626 318.354C280.796 318.429 280.057 318.33 279.41 318.054C278.761 317.772 278.235 317.325 277.831 316.712C277.427 316.1 277.182 315.329 277.097 314.399C277.023 313.589 277.075 312.798 277.252 312.025C277.429 311.246 277.725 310.536 278.142 309.896C278.565 309.254 279.1 308.727 279.745 308.313C280.39 307.899 281.14 307.653 281.997 307.575C282.814 307.501 283.523 307.606 284.125 307.893C284.733 308.179 285.215 308.613 285.569 309.197C285.923 309.774 286.137 310.461 286.209 311.257C286.245 311.642 286.246 312.024 286.213 312.402C286.187 312.772 286.127 313.143 286.034 313.513L279.511 314.108C279.556 314.6 279.673 315.007 279.864 315.331C280.06 315.648 280.316 315.883 280.631 316.035C280.952 316.179 281.318 316.233 281.73 316.195C282.128 316.159 282.525 316.029 282.92 315.805C283.321 315.581 283.657 315.303 283.928 314.97L285.286 316.433C284.846 316.962 284.33 317.397 283.739 317.739C283.153 318.073 282.449 318.278 281.626 318.354ZM279.683 312.034L283.915 311.648C283.89 311.228 283.801 310.868 283.646 310.568C283.491 310.26 283.269 310.033 282.981 309.885C282.699 309.73 282.359 309.671 281.961 309.707C281.549 309.745 281.185 309.865 280.869 310.068C280.552 310.264 280.292 310.533 280.089 310.872C279.885 311.206 279.75 311.593 279.683 312.034Z" fill="white"/>
<path d="M288.119 317.519L288.981 307.178L291.362 306.961L291.266 308.004C291.47 307.597 291.764 307.259 292.147 306.989C292.537 306.713 292.945 306.555 293.369 306.516C294.013 306.457 294.597 306.652 295.12 307.099L294.616 309.385C294.386 309.212 294.13 309.088 293.849 309.013C293.573 308.931 293.3 308.902 293.027 308.927C292.649 308.962 292.313 309.093 292.019 309.321C291.731 309.541 291.494 309.841 291.308 310.219C291.127 310.59 291.017 311.026 290.975 311.525L290.499 317.302L288.119 317.519Z" fill="white"/>
<path d="M299.486 316.722C298.941 316.772 298.413 316.74 297.9 316.626C297.389 316.519 296.931 316.343 296.527 316.099C296.123 315.854 295.804 315.555 295.571 315.202L297.182 313.709C297.515 314.06 297.883 314.314 298.286 314.472C298.695 314.629 299.109 314.688 299.527 314.65C299.999 314.607 300.369 314.479 300.637 314.267C300.905 314.048 301.025 313.783 300.996 313.471C300.975 313.239 300.839 313.034 300.589 312.856C300.344 312.67 299.908 312.473 299.279 312.262C298.237 311.916 297.481 311.516 297.011 311.064C296.541 310.611 296.277 310.07 296.22 309.439C296.163 308.815 296.275 308.252 296.558 307.751C296.846 307.25 297.271 306.843 297.832 306.53C298.392 306.211 299.06 306.016 299.837 305.945C300.561 305.879 301.245 305.967 301.889 306.21C302.541 306.452 303.039 306.808 303.383 307.278L301.767 308.711C301.246 308.143 300.601 307.894 299.831 307.964C299.426 308.001 299.098 308.122 298.849 308.325C298.599 308.522 298.487 308.757 298.512 309.029C298.532 309.248 298.649 309.435 298.864 309.589C299.079 309.743 299.494 309.923 300.108 310.128C301.199 310.49 301.994 310.91 302.493 311.386C302.998 311.856 303.281 312.426 303.342 313.096C303.432 314.085 303.129 314.91 302.433 315.569C301.736 316.222 300.754 316.606 299.486 316.722Z" fill="white"/>
<path d="M309.447 315.812C308.193 315.927 307.181 315.631 306.414 314.924C305.653 314.217 305.209 313.163 305.081 311.762C304.969 310.534 305.095 309.431 305.461 308.454C305.827 307.477 306.388 306.686 307.142 306.081C307.897 305.477 308.799 305.127 309.848 305.031C311.023 304.923 311.995 305.23 312.764 305.949C313.532 306.662 313.976 307.673 314.095 308.981C314.209 310.229 314.087 311.351 313.73 312.348C313.372 313.345 312.823 314.148 312.082 314.758C311.348 315.367 310.47 315.719 309.447 315.812ZM309.414 313.465C309.932 313.418 310.375 313.217 310.744 312.862C311.12 312.499 311.394 312.026 311.568 311.441C311.742 310.849 311.795 310.188 311.729 309.458C311.663 308.741 311.456 308.198 311.108 307.828C310.766 307.457 310.31 307.298 309.739 307.35C309.234 307.396 308.794 307.601 308.419 307.963C308.05 308.325 307.776 308.798 307.595 309.384C307.421 309.969 307.366 310.62 307.432 311.337C307.499 312.074 307.704 312.627 308.045 312.998C308.393 313.361 308.849 313.517 309.414 313.465Z" fill="white"/>
<path d="M315.914 314.98L316.777 304.639L319.177 304.42L319.081 305.463C319.362 305.022 319.715 304.675 320.141 304.422C320.572 304.162 321.034 304.009 321.525 303.964C322.262 303.897 322.886 304.021 323.397 304.335C323.907 304.65 324.283 305.131 324.523 305.779C324.762 306.42 324.843 307.199 324.766 308.116L324.249 314.219L321.859 314.437L322.35 308.598C322.422 307.775 322.334 307.174 322.085 306.795C321.842 306.409 321.438 306.241 320.874 306.293C320.31 306.345 319.837 306.595 319.457 307.045C319.075 307.488 318.853 308.061 318.79 308.763L318.284 314.764L315.914 314.98Z" fill="white"/>
<path d="M330.11 313.924C329.135 314.013 328.346 313.814 327.746 313.327C327.152 312.832 326.815 312.143 326.734 311.26C326.666 310.517 326.789 309.85 327.104 309.259C327.424 308.66 327.899 308.178 328.528 307.813C329.163 307.44 329.923 307.214 330.806 307.133C331.237 307.093 331.666 307.104 332.094 307.166C332.527 307.22 332.888 307.321 333.176 307.469L333.224 306.892C333.295 306.276 333.186 305.824 332.899 305.536C332.618 305.24 332.181 305.119 331.59 305.173C331.093 305.219 330.57 305.357 330.022 305.588C329.48 305.811 328.962 306.113 328.468 306.493L327.951 304.572C328.538 304.117 329.152 303.763 329.792 303.51C330.431 303.251 331.089 303.09 331.766 303.029C332.583 302.954 333.285 303.054 333.872 303.328C334.466 303.602 334.913 304.023 335.213 304.591C335.512 305.16 335.631 305.842 335.57 306.637L335.028 313.234L332.668 313.45L332.733 312.62C332.463 312.966 332.088 313.258 331.608 313.496C331.127 313.734 330.628 313.877 330.11 313.924ZM330.554 311.745C330.972 311.707 331.39 311.588 331.807 311.389C332.224 311.191 332.591 310.926 332.909 310.596L333 309.393C332.742 309.276 332.443 309.189 332.103 309.133C331.763 309.077 331.407 309.066 331.035 309.1C330.597 309.14 330.225 309.238 329.917 309.393C329.616 309.541 329.39 309.736 329.238 309.977C329.092 310.212 329.032 310.478 329.06 310.777C329.091 311.122 329.242 311.379 329.512 311.549C329.782 311.718 330.129 311.784 330.554 311.745Z" fill="white"/>
</svg>
