<svg width="264" height="130" viewBox="0 0 264 130" fill="none" xmlns="http://www.w3.org/2000/svg">
<path d="M0 11C0 4.92487 4.92487 0 11 0H253C259.075 0 264 4.92487 264 11V119C264 125.075 259.075 130 253 130H11C4.92487 130 0 125.075 0 119V11Z" fill="#C1272D"/>
<path d="M58.4992 48.2394L54.8392 40.0994C54.7792 39.946 54.7125 39.7794 54.6392 39.5994C54.5725 39.4194 54.5092 39.2494 54.4492 39.0894C54.4625 39.2227 54.4725 39.3894 54.4792 39.5894C54.4859 39.7827 54.4892 39.9527 54.4892 40.0994V47.9994H52.1792V33.9994H54.4492L58.1792 42.4394C58.2459 42.586 58.3059 42.7327 58.3592 42.8794C58.4192 43.026 58.4759 43.1794 58.5292 43.3394C58.5825 43.186 58.6359 43.036 58.6892 42.8894C58.7492 42.736 58.8125 42.586 58.8792 42.4394L62.6392 33.9994H64.8092V47.9994H62.4992V40.0994C62.4992 39.9394 62.5025 39.7594 62.5092 39.5594C62.5159 39.3527 62.5225 39.1927 62.5292 39.0794C62.4692 39.226 62.3992 39.396 62.3192 39.5894C62.2459 39.7827 62.1792 39.9527 62.1192 40.0994L58.4992 48.2394Z" fill="white"/>
<path d="M71.1458 48.2394C70.0258 48.2394 69.1458 47.936 68.5058 47.3294C67.8658 46.7227 67.5458 45.8994 67.5458 44.8594C67.5458 44.1794 67.7091 43.5894 68.0358 43.0894C68.3624 42.5827 68.8224 42.1927 69.4158 41.9194C70.0091 41.6394 70.7024 41.4994 71.4958 41.4994C71.9624 41.4994 72.4058 41.546 72.8258 41.6394C73.2524 41.726 73.6324 41.8594 73.9658 42.0394V41.3794C73.9658 40.726 73.7991 40.2427 73.4658 39.9294C73.1324 39.6094 72.6291 39.4494 71.9558 39.4494C71.4624 39.4494 70.9524 39.5394 70.4258 39.7194C69.8991 39.8994 69.3824 40.1594 68.8758 40.4994L68.2058 38.7094C68.7658 38.336 69.3958 38.0494 70.0958 37.8494C70.7958 37.6427 71.4991 37.5394 72.2058 37.5394C73.5191 37.5394 74.5024 37.8594 75.1558 38.4994C75.8158 39.1327 76.1458 40.086 76.1458 41.3594V47.9994H73.9658V47.1394C73.6058 47.4927 73.1824 47.766 72.6958 47.9594C72.2091 48.146 71.6924 48.2394 71.1458 48.2394ZM71.6058 46.3294C72.0391 46.3294 72.4591 46.236 72.8658 46.0494C73.2791 45.8627 73.6458 45.596 73.9658 45.2494V43.8594C73.6658 43.6927 73.3258 43.566 72.9458 43.4794C72.5724 43.386 72.2058 43.3394 71.8458 43.3394C71.1791 43.3394 70.6558 43.476 70.2758 43.7494C69.8958 44.016 69.7058 44.386 69.7058 44.8594C69.7058 45.3127 69.8724 45.6727 70.2058 45.9394C70.5391 46.1994 71.0058 46.3294 71.6058 46.3294Z" fill="white"/>
<path d="M79.3895 47.9994V37.7794H81.6295V38.9594C81.8295 38.5194 82.1295 38.1727 82.5295 37.9194C82.9362 37.666 83.3828 37.5394 83.8695 37.5394C84.5562 37.5394 85.1362 37.7627 85.6095 38.2094L85.2995 40.2794C85.0462 40.0794 84.7928 39.936 84.5395 39.8494C84.2862 39.7627 84.0062 39.7194 83.6995 39.7194C83.2728 39.7194 82.9062 39.826 82.5995 40.0394C82.2928 40.2527 82.0528 40.556 81.8795 40.9494C81.7128 41.3427 81.6295 41.8094 81.6295 42.3494V47.9994H79.3895Z" fill="white"/>
<path d="M87.704 47.9994V37.7794H89.944V47.9994H87.704ZM87.104 36.4794L89.944 33.3594H92.844L89.284 36.4794H87.104Z" fill="white"/>
<path d="M96.3028 48.2394C95.1828 48.2394 94.3028 47.936 93.6628 47.3294C93.0228 46.7227 92.7028 45.8994 92.7028 44.8594C92.7028 44.1794 92.8661 43.5894 93.1928 43.0894C93.5195 42.5827 93.9795 42.1927 94.5728 41.9194C95.1661 41.6394 95.8595 41.4994 96.6528 41.4994C97.1195 41.4994 97.5628 41.546 97.9828 41.6394C98.4095 41.726 98.7895 41.8594 99.1228 42.0394V41.3794C99.1228 40.726 98.9561 40.2427 98.6228 39.9294C98.2895 39.6094 97.7861 39.4494 97.1128 39.4494C96.6195 39.4494 96.1095 39.5394 95.5828 39.7194C95.0561 39.8994 94.5395 40.1594 94.0328 40.4994L93.3628 38.7094C93.9228 38.336 94.5528 38.0494 95.2528 37.8494C95.9528 37.6427 96.6561 37.5394 97.3628 37.5394C98.6761 37.5394 99.6595 37.8594 100.313 38.4994C100.973 39.1327 101.303 40.086 101.303 41.3594V47.9994H99.1228V47.1394C98.7628 47.4927 98.3395 47.766 97.8528 47.9594C97.3661 48.146 96.8495 48.2394 96.3028 48.2394ZM96.7628 46.3294C97.1961 46.3294 97.6161 46.236 98.0228 46.0494C98.4361 45.8627 98.8028 45.596 99.1228 45.2494V43.8594C98.8228 43.6927 98.4828 43.566 98.1028 43.4794C97.7295 43.386 97.3628 43.3394 97.0028 43.3394C96.3361 43.3394 95.8128 43.476 95.4328 43.7494C95.0528 44.016 94.8628 44.386 94.8628 44.8594C94.8628 45.3127 95.0295 45.6727 95.3628 45.9394C95.6961 46.1994 96.1628 46.3294 96.7628 46.3294Z" fill="white"/>
<path d="M114.003 48.2394C113.149 48.2394 112.373 48.0927 111.673 47.7994C110.979 47.4994 110.386 47.086 109.893 46.5594C109.406 46.026 109.043 45.406 108.803 44.6994L110.913 43.9094C111.206 44.5494 111.626 45.0694 112.173 45.4694C112.719 45.8627 113.349 46.0594 114.063 46.0594C114.809 46.0594 115.409 45.8927 115.863 45.5594C116.316 45.226 116.543 44.7394 116.543 44.0994C116.543 43.6594 116.409 43.2927 116.143 42.9994C115.876 42.6994 115.519 42.446 115.073 42.2394C114.626 42.026 114.136 41.826 113.603 41.6394C113.103 41.4594 112.596 41.2627 112.083 41.0494C111.569 40.836 111.103 40.576 110.683 40.2694C110.263 39.956 109.923 39.5727 109.663 39.1194C109.409 38.6594 109.283 38.0994 109.283 37.4394C109.283 36.7727 109.463 36.1627 109.823 35.6094C110.183 35.0494 110.703 34.6027 111.383 34.2694C112.063 33.9294 112.883 33.7594 113.843 33.7594C114.636 33.7594 115.336 33.8894 115.943 34.1494C116.549 34.4027 117.049 34.7527 117.443 35.1994C117.836 35.6394 118.113 36.136 118.273 36.6894L116.193 37.3794C116.013 36.9727 115.719 36.6294 115.313 36.3494C114.913 36.0627 114.376 35.9194 113.703 35.9194C113.049 35.9194 112.539 36.056 112.173 36.3294C111.806 36.596 111.623 36.9727 111.623 37.4594C111.623 37.806 111.746 38.0994 111.993 38.3394C112.239 38.5727 112.569 38.7794 112.983 38.9594C113.403 39.1394 113.863 39.3194 114.363 39.4994C114.896 39.6927 115.426 39.906 115.953 40.1394C116.486 40.3727 116.973 40.6594 117.413 40.9994C117.859 41.3394 118.213 41.7594 118.473 42.2594C118.739 42.7594 118.873 43.3694 118.873 44.0894C118.873 44.9694 118.659 45.7194 118.233 46.3394C117.806 46.9527 117.223 47.4227 116.483 47.7494C115.749 48.076 114.923 48.2394 114.003 48.2394Z" fill="white"/>
<path d="M124.761 48.2394C123.641 48.2394 122.761 47.936 122.121 47.3294C121.481 46.7227 121.161 45.8994 121.161 44.8594C121.161 44.1794 121.324 43.5894 121.651 43.0894C121.977 42.5827 122.437 42.1927 123.031 41.9194C123.624 41.6394 124.317 41.4994 125.111 41.4994C125.577 41.4994 126.021 41.546 126.441 41.6394C126.867 41.726 127.247 41.8594 127.581 42.0394V41.3794C127.581 40.726 127.414 40.2427 127.081 39.9294C126.747 39.6094 126.244 39.4494 125.571 39.4494C125.077 39.4494 124.567 39.5394 124.041 39.7194C123.514 39.8994 122.997 40.1594 122.491 40.4994L121.821 38.7094C122.381 38.336 123.011 38.0494 123.711 37.8494C124.411 37.6427 125.114 37.5394 125.821 37.5394C127.134 37.5394 128.117 37.8594 128.771 38.4994C129.431 39.1327 129.761 40.086 129.761 41.3594V47.9994H127.581V47.1394C127.221 47.4927 126.797 47.766 126.311 47.9594C125.824 48.146 125.307 48.2394 124.761 48.2394ZM125.221 46.3294C125.654 46.3294 126.074 46.236 126.481 46.0494C126.894 45.8627 127.261 45.596 127.581 45.2494V43.8594C127.281 43.6927 126.941 43.566 126.561 43.4794C126.187 43.386 125.821 43.3394 125.461 43.3394C124.794 43.3394 124.271 43.476 123.891 43.7494C123.511 44.016 123.321 44.386 123.321 44.8594C123.321 45.3127 123.487 45.6727 123.821 45.9394C124.154 46.1994 124.621 46.3294 125.221 46.3294Z" fill="white"/>
<path d="M133.004 47.9994V37.7794H135.244V38.7794C135.564 38.3594 135.948 38.0494 136.394 37.8494C136.848 37.6427 137.364 37.5394 137.944 37.5394C139.124 37.5394 140.021 37.8994 140.634 38.6194C141.248 39.3394 141.554 40.396 141.554 41.7894V47.9994H139.304V42.1994C139.304 41.346 139.141 40.7094 138.814 40.2894C138.494 39.8694 138.008 39.6594 137.354 39.6594C136.648 39.6594 136.118 39.866 135.764 40.2794C135.418 40.6927 135.244 41.3194 135.244 42.1594V47.9994H133.004Z" fill="white"/>
<path d="M148.861 48.2394C147.935 48.2394 147.138 48.026 146.471 47.5994C145.805 47.166 145.291 46.5494 144.931 45.7494C144.571 44.9494 144.391 43.9994 144.391 42.8994C144.391 41.7994 144.575 40.8494 144.941 40.0494C145.308 39.2427 145.828 38.6227 146.501 38.1894C147.175 37.756 147.978 37.5394 148.911 37.5394C149.905 37.5394 150.738 37.7727 151.411 38.2394C152.085 38.6994 152.575 39.376 152.881 40.2694L150.751 41.0094C150.585 40.576 150.345 40.2427 150.031 40.0094C149.725 39.776 149.358 39.6594 148.931 39.6594C148.225 39.6594 147.671 39.946 147.271 40.5194C146.871 41.0927 146.671 41.886 146.671 42.8994C146.671 43.8994 146.868 44.6827 147.261 45.2494C147.655 45.816 148.195 46.0994 148.881 46.0994C149.348 46.0994 149.748 45.9727 150.081 45.7194C150.415 45.4594 150.658 45.0894 150.811 44.6094L152.931 45.2594C152.645 46.2327 152.151 46.9727 151.451 47.4794C150.758 47.986 149.895 48.2394 148.861 48.2394Z" fill="white"/>
<path d="M155.648 47.9994V34.5894L157.888 33.5594V38.7894C158.208 38.376 158.595 38.066 159.048 37.8594C159.501 37.646 160.015 37.5394 160.588 37.5394C161.408 37.5394 162.085 37.7094 162.618 38.0494C163.151 38.3894 163.548 38.8794 163.808 39.5194C164.068 40.1527 164.198 40.9094 164.198 41.7894V47.9994H161.948V42.1994C161.948 41.3794 161.795 40.7527 161.488 40.3194C161.181 39.8794 160.685 39.6594 159.998 39.6594C159.291 39.6594 158.761 39.866 158.408 40.2794C158.061 40.6927 157.888 41.3194 157.888 42.1594V47.9994H155.648Z" fill="white"/>
<path d="M171.705 48.2394C170.738 48.2394 169.905 48.016 169.205 47.5694C168.505 47.1227 167.968 46.4994 167.595 45.6994C167.222 44.8927 167.035 43.9527 167.035 42.8794C167.035 41.766 167.228 40.8127 167.615 40.0194C168.002 39.2194 168.545 38.606 169.245 38.1794C169.945 37.7527 170.765 37.5394 171.705 37.5394C172.512 37.5394 173.245 37.7127 173.905 38.0594C174.572 38.406 175.102 38.9394 175.495 39.6594C175.888 40.3727 176.085 41.2827 176.085 42.3894C176.085 42.5627 176.082 42.7694 176.075 43.0094C176.068 43.2427 176.048 43.4794 176.015 43.7194H169.265C169.305 44.2394 169.428 44.6927 169.635 45.0794C169.848 45.466 170.132 45.7694 170.485 45.9894C170.838 46.2027 171.255 46.3094 171.735 46.3094C172.202 46.3094 172.615 46.2327 172.975 46.0794C173.335 45.9194 173.678 45.666 174.005 45.3194L175.305 46.6894C174.885 47.1494 174.372 47.5227 173.765 47.8094C173.165 48.096 172.478 48.2394 171.705 48.2394ZM169.275 41.9094H173.885C173.865 41.4227 173.765 40.996 173.585 40.6294C173.412 40.2627 173.165 39.9794 172.845 39.7794C172.525 39.5727 172.135 39.4694 171.675 39.4694C171.035 39.4694 170.488 39.6694 170.035 40.0694C169.588 40.4694 169.335 41.0827 169.275 41.9094Z" fill="white"/>
<path d="M178.165 47.9994V46.3094L183.425 39.7794H178.545V37.7794H186.295V39.4194L181.035 45.9894H186.275V47.9994H178.165Z" fill="white"/>
<path d="M198.483 48.2394C197.516 48.2394 196.683 48.016 195.983 47.5694C195.283 47.1227 194.746 46.4994 194.373 45.6994C194 44.8927 193.813 43.9527 193.813 42.8794C193.813 41.766 194.006 40.8127 194.393 40.0194C194.78 39.2194 195.323 38.606 196.023 38.1794C196.723 37.7527 197.543 37.5394 198.483 37.5394C199.29 37.5394 200.023 37.7127 200.683 38.0594C201.35 38.406 201.88 38.9394 202.273 39.6594C202.666 40.3727 202.863 41.2827 202.863 42.3894C202.863 42.5627 202.86 42.7694 202.853 43.0094C202.846 43.2427 202.826 43.4794 202.793 43.7194H196.043C196.083 44.2394 196.206 44.6927 196.413 45.0794C196.626 45.466 196.91 45.7694 197.263 45.9894C197.616 46.2027 198.033 46.3094 198.513 46.3094C198.98 46.3094 199.393 46.2327 199.753 46.0794C200.113 45.9194 200.456 45.666 200.783 45.3194L202.083 46.6894C201.663 47.1494 201.15 47.5227 200.543 47.8094C199.943 48.096 199.256 48.2394 198.483 48.2394ZM196.053 41.9094H200.663C200.643 41.4227 200.543 40.996 200.363 40.6294C200.19 40.2627 199.943 39.9794 199.623 39.7794C199.303 39.5727 198.913 39.4694 198.453 39.4694C197.813 39.4694 197.266 39.6694 196.813 40.0694C196.366 40.4694 196.113 41.0827 196.053 41.9094Z" fill="white"/>
<path d="M208.563 48.2394C207.797 48.2394 207.06 48.076 206.353 47.7494C205.647 47.416 205.08 46.9727 204.653 46.4194L206.153 45.1394C206.507 45.506 206.903 45.796 207.343 46.0094C207.783 46.2227 208.213 46.3294 208.633 46.3294C209.167 46.3294 209.58 46.236 209.873 46.0494C210.167 45.856 210.313 45.586 210.313 45.2394C210.313 45.026 210.247 44.8327 210.113 44.6594C209.98 44.4794 209.747 44.3027 209.413 44.1294C209.08 43.956 208.62 43.7594 208.033 43.5394C206.887 43.1194 206.073 42.666 205.593 42.1794C205.113 41.686 204.873 41.0694 204.873 40.3294C204.873 39.496 205.207 38.8227 205.873 38.3094C206.54 37.796 207.407 37.5394 208.473 37.5394C209.2 37.5394 209.87 37.6794 210.483 37.9594C211.103 38.2327 211.637 38.6294 212.083 39.1494L210.593 40.3794C209.987 39.7594 209.267 39.4494 208.433 39.4494C207.987 39.4494 207.63 39.536 207.363 39.7094C207.097 39.876 206.963 40.0994 206.963 40.3794C206.963 40.6594 207.117 40.9094 207.423 41.1294C207.737 41.3427 208.31 41.5927 209.143 41.8794C209.903 42.1327 210.523 42.416 211.003 42.7294C211.49 43.0427 211.843 43.4027 212.063 43.8094C212.29 44.216 212.403 44.686 212.403 45.2194C212.403 46.1594 212.06 46.8994 211.373 47.4394C210.693 47.9727 209.757 48.2394 208.563 48.2394Z" fill="white"/>
<path d="M64.6479 72.2394C63.6813 72.2394 62.8479 72.016 62.1479 71.5694C61.4479 71.1227 60.9113 70.4994 60.5379 69.6994C60.1646 68.8927 59.9779 67.9527 59.9779 66.8794C59.9779 65.766 60.1713 64.8127 60.5579 64.0194C60.9446 63.2194 61.4879 62.606 62.1879 62.1794C62.8879 61.7527 63.7079 61.5394 64.6479 61.5394C65.4546 61.5394 66.1879 61.7127 66.8479 62.0594C67.5146 62.406 68.0446 62.9394 68.4379 63.6594C68.8313 64.3727 69.0279 65.2827 69.0279 66.3894C69.0279 66.5627 69.0246 66.7694 69.0179 67.0094C69.0113 67.2427 68.9913 67.4794 68.9579 67.7194H62.2079C62.2479 68.2394 62.3713 68.6927 62.5779 69.0794C62.7913 69.466 63.0746 69.7694 63.4279 69.9894C63.7813 70.2027 64.1979 70.3094 64.6779 70.3094C65.1446 70.3094 65.5579 70.2327 65.9179 70.0794C66.2779 69.9194 66.6213 69.666 66.9479 69.3194L68.2479 70.6894C67.8279 71.1494 67.3146 71.5227 66.7079 71.8094C66.1079 72.096 65.4213 72.2394 64.6479 72.2394ZM62.2179 65.9094H66.8279C66.8079 65.4227 66.7079 64.996 66.5279 64.6294C66.3546 64.2627 66.1079 63.9794 65.7879 63.7794C65.4679 63.5727 65.0779 63.4694 64.6179 63.4694C63.9779 63.4694 63.4313 63.6694 62.9779 64.0694C62.5313 64.4694 62.2779 65.0827 62.2179 65.9094Z" fill="white"/>
<path d="M71.8036 71.9994V58.5894L74.0436 57.5594V71.9994H71.8036Z" fill="white"/>
<path d="M86.1809 72.2394C84.8676 72.2394 83.8376 71.7627 83.0909 70.8094C82.3442 69.856 81.9709 68.546 81.9709 66.8794C81.9709 65.806 82.1442 64.8694 82.4909 64.0694C82.8442 63.2627 83.3342 62.6394 83.9609 62.1994C84.5942 61.7594 85.3376 61.5394 86.1909 61.5394C87.1376 61.5394 87.9209 61.866 88.5409 62.5194V58.5894L90.7909 57.5594V71.9994H88.5409V71.1794C87.9942 71.886 87.2076 72.2394 86.1809 72.2394ZM86.5309 70.1094C86.9776 70.1094 87.3676 70.0194 87.7009 69.8394C88.0409 69.6594 88.3209 69.396 88.5409 69.0494V64.6994C88.3209 64.3794 88.0309 64.126 87.6709 63.9394C87.3176 63.7527 86.9376 63.6594 86.5309 63.6594C85.7976 63.6594 85.2276 63.936 84.8209 64.4894C84.4209 65.0427 84.2209 65.8394 84.2209 66.8794C84.2209 67.546 84.3142 68.1194 84.5009 68.5994C84.6876 69.0794 84.9542 69.4527 85.3009 69.7194C85.6476 69.9794 86.0576 70.1094 86.5309 70.1094Z" fill="white"/>
<path d="M94.1462 71.9994V61.7794H96.3862V71.9994H94.1462ZM95.2562 60.2994C94.8896 60.2994 94.5762 60.1694 94.3162 59.9094C94.0562 59.6494 93.9262 59.336 93.9262 58.9694C93.9262 58.596 94.0529 58.2794 94.3062 58.0194C94.5662 57.7527 94.8829 57.6194 95.2562 57.6194C95.6429 57.6194 95.9629 57.7494 96.2162 58.0094C96.4762 58.2694 96.6062 58.5894 96.6062 58.9694C96.6062 59.3427 96.4762 59.6594 96.2162 59.9194C95.9562 60.1727 95.6362 60.2994 95.2562 60.2994Z" fill="white"/>
<path d="M99.745 71.9994V61.7794H101.985V62.9594C102.185 62.5194 102.485 62.1727 102.885 61.9194C103.292 61.666 103.738 61.5394 104.225 61.5394C104.912 61.5394 105.492 61.7627 105.965 62.2094L105.655 64.2794C105.402 64.0794 105.148 63.936 104.895 63.8494C104.642 63.7627 104.362 63.7194 104.055 63.7194C103.628 63.7194 103.262 63.826 102.955 64.0394C102.648 64.2527 102.408 64.556 102.235 64.9494C102.068 65.3427 101.985 65.8094 101.985 66.3494V71.9994H99.745Z" fill="white"/>
<path d="M111.642 72.2394C110.675 72.2394 109.842 72.016 109.142 71.5694C108.442 71.1227 107.905 70.4994 107.532 69.6994C107.158 68.8927 106.972 67.9527 106.972 66.8794C106.972 65.766 107.165 64.8127 107.552 64.0194C107.938 63.2194 108.482 62.606 109.182 62.1794C109.882 61.7527 110.702 61.5394 111.642 61.5394C112.448 61.5394 113.182 61.7127 113.842 62.0594C114.508 62.406 115.038 62.9394 115.432 63.6594C115.825 64.3727 116.022 65.2827 116.022 66.3894C116.022 66.5627 116.018 66.7694 116.012 67.0094C116.005 67.2427 115.985 67.4794 115.952 67.7194H109.202C109.242 68.2394 109.365 68.6927 109.572 69.0794C109.785 69.466 110.068 69.7694 110.422 69.9894C110.775 70.2027 111.192 70.3094 111.672 70.3094C112.138 70.3094 112.552 70.2327 112.912 70.0794C113.272 69.9194 113.615 69.666 113.942 69.3194L115.242 70.6894C114.822 71.1494 114.308 71.5227 113.702 71.8094C113.102 72.096 112.415 72.2394 111.642 72.2394ZM109.212 65.9094H113.822C113.802 65.4227 113.702 64.996 113.522 64.6294C113.348 64.2627 113.102 63.9794 112.782 63.7794C112.462 63.5727 112.072 63.4694 111.612 63.4694C110.972 63.4694 110.425 63.6694 109.972 64.0694C109.525 64.4694 109.272 65.0827 109.212 65.9094Z" fill="white"/>
<path d="M122.959 72.2394C122.032 72.2394 121.236 72.026 120.569 71.5994C119.902 71.166 119.389 70.5494 119.029 69.7494C118.669 68.9494 118.489 67.9994 118.489 66.8994C118.489 65.7994 118.672 64.8494 119.039 64.0494C119.406 63.2427 119.926 62.6227 120.599 62.1894C121.272 61.756 122.076 61.5394 123.009 61.5394C124.002 61.5394 124.836 61.7727 125.509 62.2394C126.182 62.6994 126.672 63.376 126.979 64.2694L124.849 65.0094C124.682 64.576 124.442 64.2427 124.129 64.0094C123.822 63.776 123.456 63.6594 123.029 63.6594C122.322 63.6594 121.769 63.946 121.369 64.5194C120.969 65.0927 120.769 65.886 120.769 66.8994C120.769 67.8994 120.966 68.6827 121.359 69.2494C121.752 69.816 122.292 70.0994 122.979 70.0994C123.446 70.0994 123.846 69.9727 124.179 69.7194C124.512 69.4594 124.756 69.0894 124.909 68.6094L127.029 69.2594C126.742 70.2327 126.249 70.9727 125.549 71.4794C124.856 71.986 123.992 72.2394 122.959 72.2394Z" fill="white"/>
<path d="M132.529 72.2394C131.756 72.2394 131.172 72.0194 130.779 71.5794C130.386 71.1394 130.189 70.496 130.189 69.6494V63.7494H128.639V61.7794H130.189V58.6294L132.429 57.5594V61.7794H134.809V63.7494H132.429V69.1594C132.429 69.526 132.499 69.7994 132.639 69.9794C132.786 70.1527 133.009 70.2394 133.309 70.2394C133.796 70.2394 134.326 70.0794 134.899 69.7594L134.649 71.7794C134.336 71.9327 134.006 72.046 133.659 72.1194C133.312 72.1994 132.936 72.2394 132.529 72.2394Z" fill="white"/>
<path d="M141.416 72.2394C139.99 72.2394 138.866 71.7627 138.046 70.8094C137.226 69.856 136.816 68.5527 136.816 66.8994C136.816 65.7994 137.003 64.8494 137.376 64.0494C137.75 63.2494 138.28 62.6327 138.966 62.1994C139.66 61.7594 140.476 61.5394 141.416 61.5394C142.363 61.5394 143.18 61.756 143.866 62.1894C144.553 62.6227 145.083 63.2394 145.456 64.0394C145.83 64.8394 146.016 65.7894 146.016 66.8894C146.016 67.9894 145.83 68.9394 145.456 69.7394C145.083 70.5394 144.553 71.156 143.866 71.5894C143.18 72.0227 142.363 72.2394 141.416 72.2394ZM141.416 70.1094C142.156 70.1094 142.733 69.826 143.146 69.2594C143.56 68.6927 143.766 67.9027 143.766 66.8894C143.766 65.8694 143.556 65.076 143.136 64.5094C142.723 63.9427 142.15 63.6594 141.416 63.6594C140.683 63.6594 140.106 63.946 139.686 64.5194C139.273 65.086 139.066 65.8794 139.066 66.8994C139.066 67.906 139.273 68.6927 139.686 69.2594C140.106 69.826 140.683 70.1094 141.416 70.1094Z" fill="white"/>
<path d="M148.64 71.9994V61.7794H150.88V62.9594C151.08 62.5194 151.38 62.1727 151.78 61.9194C152.186 61.666 152.633 61.5394 153.12 61.5394C153.806 61.5394 154.386 61.7627 154.86 62.2094L154.55 64.2794C154.296 64.0794 154.043 63.936 153.79 63.8494C153.536 63.7627 153.256 63.7194 152.95 63.7194C152.523 63.7194 152.156 63.826 151.85 64.0394C151.543 64.2527 151.303 64.556 151.13 64.9494C150.963 65.3427 150.88 65.8094 150.88 66.3494V71.9994H148.64Z" fill="white"/>
<path d="M165.636 72.2394C164.323 72.2394 163.293 71.7627 162.546 70.8094C161.8 69.856 161.426 68.546 161.426 66.8794C161.426 65.806 161.6 64.8694 161.946 64.0694C162.3 63.2627 162.79 62.6394 163.416 62.1994C164.05 61.7594 164.793 61.5394 165.646 61.5394C166.593 61.5394 167.376 61.866 167.996 62.5194V58.5894L170.246 57.5594V71.9994H167.996V71.1794C167.45 71.886 166.663 72.2394 165.636 72.2394ZM165.986 70.1094C166.433 70.1094 166.823 70.0194 167.156 69.8394C167.496 69.6594 167.776 69.396 167.996 69.0494V64.6994C167.776 64.3794 167.486 64.126 167.126 63.9394C166.773 63.7527 166.393 63.6594 165.986 63.6594C165.253 63.6594 164.683 63.936 164.276 64.4894C163.876 65.0427 163.676 65.8394 163.676 66.8794C163.676 67.546 163.77 68.1194 163.956 68.5994C164.143 69.0794 164.41 69.4527 164.756 69.7194C165.103 69.9794 165.513 70.1094 165.986 70.1094Z" fill="white"/>
<path d="M177.692 72.2394C176.725 72.2394 175.892 72.016 175.192 71.5694C174.492 71.1227 173.955 70.4994 173.582 69.6994C173.208 68.8927 173.022 67.9527 173.022 66.8794C173.022 65.766 173.215 64.8127 173.602 64.0194C173.988 63.2194 174.532 62.606 175.232 62.1794C175.932 61.7527 176.752 61.5394 177.692 61.5394C178.498 61.5394 179.232 61.7127 179.892 62.0594C180.558 62.406 181.088 62.9394 181.482 63.6594C181.875 64.3727 182.072 65.2827 182.072 66.3894C182.072 66.5627 182.068 66.7694 182.062 67.0094C182.055 67.2427 182.035 67.4794 182.002 67.7194H175.252C175.292 68.2394 175.415 68.6927 175.622 69.0794C175.835 69.466 176.118 69.7694 176.472 69.9894C176.825 70.2027 177.242 70.3094 177.722 70.3094C178.188 70.3094 178.602 70.2327 178.962 70.0794C179.322 69.9194 179.665 69.666 179.992 69.3194L181.292 70.6894C180.872 71.1494 180.358 71.5227 179.752 71.8094C179.152 72.096 178.465 72.2394 177.692 72.2394ZM175.262 65.9094H179.872C179.852 65.4227 179.752 64.996 179.572 64.6294C179.398 64.2627 179.152 63.9794 178.832 63.7794C178.512 63.5727 178.122 63.4694 177.662 63.4694C177.022 63.4694 176.475 63.6694 176.022 64.0694C175.575 64.4694 175.322 65.0827 175.262 65.9094Z" fill="white"/>
<path d="M189.9 71.9994V58.5894L192.14 57.5594V71.9994H189.9Z" fill="white"/>
<path d="M198.575 72.2394C197.455 72.2394 196.575 71.936 195.935 71.3294C195.295 70.7227 194.975 69.8994 194.975 68.8594C194.975 68.1794 195.138 67.5894 195.465 67.0894C195.791 66.5827 196.251 66.1927 196.845 65.9194C197.438 65.6394 198.131 65.4994 198.925 65.4994C199.391 65.4994 199.835 65.546 200.255 65.6394C200.681 65.726 201.061 65.8594 201.395 66.0394V65.3794C201.395 64.726 201.228 64.2427 200.895 63.9294C200.561 63.6094 200.058 63.4494 199.385 63.4494C198.891 63.4494 198.381 63.5394 197.855 63.7194C197.328 63.8994 196.811 64.1594 196.305 64.4994L195.635 62.7094C196.195 62.336 196.825 62.0494 197.525 61.8494C198.225 61.6427 198.928 61.5394 199.635 61.5394C200.948 61.5394 201.931 61.8594 202.585 62.4994C203.245 63.1327 203.575 64.086 203.575 65.3594V71.9994H201.395V71.1394C201.035 71.4927 200.611 71.766 200.125 71.9594C199.638 72.146 199.121 72.2394 198.575 72.2394ZM199.035 70.3294C199.468 70.3294 199.888 70.236 200.295 70.0494C200.708 69.8627 201.075 69.596 201.395 69.2494V67.8594C201.095 67.6927 200.755 67.566 200.375 67.4794C200.001 67.386 199.635 67.3394 199.275 67.3394C198.608 67.3394 198.085 67.476 197.705 67.7494C197.325 68.016 197.135 68.386 197.135 68.8594C197.135 69.3127 197.301 69.6727 197.635 69.9394C197.968 70.1994 198.435 70.3294 199.035 70.3294Z" fill="white"/>
<path d="M97.8558 96.2394C96.8891 96.2394 96.0558 96.016 95.3558 95.5694C94.6558 95.1227 94.1191 94.4994 93.7458 93.6994C93.3724 92.8927 93.1858 91.9527 93.1858 90.8794C93.1858 89.766 93.3791 88.8127 93.7658 88.0194C94.1524 87.2194 94.6958 86.606 95.3958 86.1794C96.0958 85.7527 96.9158 85.5394 97.8558 85.5394C98.6624 85.5394 99.3958 85.7127 100.056 86.0594C100.722 86.406 101.252 86.9394 101.646 87.6594C102.039 88.3727 102.236 89.2827 102.236 90.3894C102.236 90.5627 102.232 90.7694 102.226 91.0094C102.219 91.2427 102.199 91.4794 102.166 91.7194H95.4158C95.4558 92.2394 95.5791 92.6927 95.7858 93.0794C95.9991 93.466 96.2824 93.7694 96.6358 93.9894C96.9891 94.2027 97.4058 94.3094 97.8858 94.3094C98.3524 94.3094 98.7658 94.2327 99.1258 94.0794C99.4858 93.9194 99.8291 93.666 100.156 93.3194L101.456 94.6894C101.036 95.1494 100.522 95.5227 99.9158 95.8094C99.3158 96.096 98.6291 96.2394 97.8558 96.2394ZM95.4258 89.9094H100.036C100.016 89.4227 99.9158 88.996 99.7358 88.6294C99.5624 88.2627 99.3158 87.9794 98.9958 87.7794C98.6758 87.5727 98.2858 87.4694 97.8258 87.4694C97.1858 87.4694 96.6391 87.6694 96.1858 88.0694C95.7391 88.4694 95.4858 89.0827 95.4258 89.9094Z" fill="white"/>
<path d="M105.009 95.9994V85.7794H107.249V86.7294C107.569 86.3294 107.942 86.0327 108.369 85.8394C108.796 85.6394 109.276 85.5394 109.809 85.5394C110.409 85.5394 110.936 85.666 111.389 85.9194C111.842 86.166 112.192 86.5294 112.439 87.0094C112.766 86.536 113.192 86.1727 113.719 85.9194C114.252 85.666 114.846 85.5394 115.499 85.5394C116.699 85.5394 117.622 85.8794 118.269 86.5594C118.916 87.2327 119.239 88.2027 119.239 89.4694V95.9994H116.989V90.2094C116.989 89.356 116.836 88.7194 116.529 88.2994C116.229 87.8727 115.776 87.6594 115.169 87.6594C114.756 87.6594 114.402 87.756 114.109 87.9494C113.822 88.1427 113.606 88.4294 113.459 88.8094C113.312 89.1894 113.239 89.6527 113.239 90.1994V95.9994H110.989V90.2094C110.989 89.3427 110.839 88.7027 110.539 88.2894C110.246 87.8694 109.792 87.6594 109.179 87.6594C108.546 87.6594 108.066 87.8694 107.739 88.2894C107.412 88.7094 107.249 89.3327 107.249 90.1594V95.9994H105.009Z" fill="white"/>
<path d="M122.64 100.059V85.7794H124.88V86.5694C125.5 85.8827 126.29 85.5394 127.25 85.5394C128.123 85.5394 128.873 85.756 129.5 86.1894C130.133 86.6227 130.62 87.2394 130.96 88.0394C131.306 88.8394 131.48 89.7894 131.48 90.8894C131.48 91.9694 131.303 92.9094 130.95 93.7094C130.596 94.5094 130.103 95.1327 129.47 95.5794C128.836 96.0194 128.093 96.2394 127.24 96.2394C126.74 96.2394 126.293 96.1527 125.9 95.9794C125.513 95.7994 125.173 95.5294 124.88 95.1694V99.0294L122.64 100.059ZM126.91 94.1094C127.65 94.1094 128.216 93.8294 128.61 93.2694C129.01 92.7094 129.21 91.916 129.21 90.8894C129.21 89.876 129.006 89.086 128.6 88.5194C128.193 87.946 127.63 87.6594 126.91 87.6594C126.47 87.6594 126.08 87.7494 125.74 87.9294C125.4 88.1094 125.113 88.3694 124.88 88.7094V93.0394C125.113 93.3794 125.406 93.6427 125.76 93.8294C126.113 94.016 126.496 94.1094 126.91 94.1094Z" fill="white"/>
<path d="M134.118 95.9994V85.7794H136.358V86.9594C136.558 86.5194 136.858 86.1727 137.258 85.9194C137.664 85.666 138.111 85.5394 138.598 85.5394C139.284 85.5394 139.864 85.7627 140.338 86.2094L140.028 88.2794C139.774 88.0794 139.521 87.936 139.268 87.8494C139.014 87.7627 138.734 87.7194 138.428 87.7194C138.001 87.7194 137.634 87.826 137.328 88.0394C137.021 88.2527 136.781 88.556 136.608 88.9494C136.441 89.3427 136.358 89.8094 136.358 90.3494V95.9994H134.118Z" fill="white"/>
<path d="M146.014 96.2394C145.048 96.2394 144.214 96.016 143.514 95.5694C142.814 95.1227 142.278 94.4994 141.904 93.6994C141.531 92.8927 141.344 91.9527 141.344 90.8794C141.344 89.766 141.538 88.8127 141.924 88.0194C142.311 87.2194 142.854 86.606 143.554 86.1794C144.254 85.7527 145.074 85.5394 146.014 85.5394C146.821 85.5394 147.554 85.7127 148.214 86.0594C148.881 86.406 149.411 86.9394 149.804 87.6594C150.198 88.3727 150.394 89.2827 150.394 90.3894C150.394 90.5627 150.391 90.7694 150.384 91.0094C150.378 91.2427 150.358 91.4794 150.324 91.7194H143.574C143.614 92.2394 143.738 92.6927 143.944 93.0794C144.158 93.466 144.441 93.7694 144.794 93.9894C145.148 94.2027 145.564 94.3094 146.044 94.3094C146.511 94.3094 146.924 94.2327 147.284 94.0794C147.644 93.9194 147.988 93.666 148.314 93.3194L149.614 94.6894C149.194 95.1494 148.681 95.5227 148.074 95.8094C147.474 96.096 146.788 96.2394 146.014 96.2394ZM143.584 89.9094H148.194C148.174 89.4227 148.074 88.996 147.894 88.6294C147.721 88.2627 147.474 87.9794 147.154 87.7794C146.834 87.5727 146.444 87.4694 145.984 87.4694C145.344 87.4694 144.798 87.6694 144.344 88.0694C143.898 88.4694 143.644 89.0827 143.584 89.9094Z" fill="white"/>
<path d="M156.095 96.2394C155.328 96.2394 154.591 96.076 153.885 95.7494C153.178 95.416 152.611 94.9727 152.185 94.4194L153.685 93.1394C154.038 93.506 154.435 93.796 154.875 94.0094C155.315 94.2227 155.745 94.3294 156.165 94.3294C156.698 94.3294 157.111 94.236 157.405 94.0494C157.698 93.856 157.845 93.586 157.845 93.2394C157.845 93.026 157.778 92.8327 157.645 92.6594C157.511 92.4794 157.278 92.3027 156.945 92.1294C156.611 91.956 156.151 91.7594 155.565 91.5394C154.418 91.1194 153.605 90.666 153.125 90.1794C152.645 89.686 152.405 89.0694 152.405 88.3294C152.405 87.496 152.738 86.8227 153.405 86.3094C154.071 85.796 154.938 85.5394 156.005 85.5394C156.731 85.5394 157.401 85.6794 158.015 85.9594C158.635 86.2327 159.168 86.6294 159.615 87.1494L158.125 88.3794C157.518 87.7594 156.798 87.4494 155.965 87.4494C155.518 87.4494 155.161 87.536 154.895 87.7094C154.628 87.876 154.495 88.0994 154.495 88.3794C154.495 88.6594 154.648 88.9094 154.955 89.1294C155.268 89.3427 155.841 89.5927 156.675 89.8794C157.435 90.1327 158.055 90.416 158.535 90.7294C159.021 91.0427 159.375 91.4027 159.595 91.8094C159.821 92.216 159.935 92.686 159.935 93.2194C159.935 94.1594 159.591 94.8994 158.905 95.4394C158.225 95.9727 157.288 96.2394 156.095 96.2394Z" fill="white"/>
<path d="M165.517 96.2394C164.397 96.2394 163.517 95.936 162.877 95.3294C162.237 94.7227 161.917 93.8994 161.917 92.8594C161.917 92.1794 162.08 91.5894 162.407 91.0894C162.734 90.5827 163.194 90.1927 163.787 89.9194C164.38 89.6394 165.074 89.4994 165.867 89.4994C166.334 89.4994 166.777 89.546 167.197 89.6394C167.624 89.726 168.004 89.8594 168.337 90.0394V89.3794C168.337 88.726 168.17 88.2427 167.837 87.9294C167.504 87.6094 167 87.4494 166.327 87.4494C165.834 87.4494 165.324 87.5394 164.797 87.7194C164.27 87.8994 163.754 88.1594 163.247 88.4994L162.577 86.7094C163.137 86.336 163.767 86.0494 164.467 85.8494C165.167 85.6427 165.87 85.5394 166.577 85.5394C167.89 85.5394 168.874 85.8594 169.527 86.4994C170.187 87.1327 170.517 88.086 170.517 89.3594V95.9994H168.337V95.1394C167.977 95.4927 167.554 95.766 167.067 95.9594C166.58 96.146 166.064 96.2394 165.517 96.2394ZM165.977 94.3294C166.41 94.3294 166.83 94.236 167.237 94.0494C167.65 93.8627 168.017 93.596 168.337 93.2494V91.8594C168.037 91.6927 167.697 91.566 167.317 91.4794C166.944 91.386 166.577 91.3394 166.217 91.3394C165.55 91.3394 165.027 91.476 164.647 91.7494C164.267 92.016 164.077 92.386 164.077 92.8594C164.077 93.3127 164.244 93.6727 164.577 93.9394C164.91 94.1994 165.377 94.3294 165.977 94.3294Z" fill="white"/>
</svg>
