<svg width="264" height="130" viewBox="0 0 264 130" fill="none" xmlns="http://www.w3.org/2000/svg">
<path d="M0 11C0 4.92487 4.92487 0 11 0H253C259.075 0 264 4.92487 264 11V119C264 125.075 259.075 130 253 130H11C4.92487 130 0 125.075 0 119V11Z" fill="#009245"/>
<path d="M68.397 59.0005V45.0005H70.707V56.7705H77.517V59.0005H68.397Z" fill="white"/>
<path d="M82.676 59.2405C81.556 59.2405 80.676 58.9372 80.036 58.3305C79.396 57.7239 79.076 56.9005 79.076 55.8605C79.076 55.1805 79.2394 54.5905 79.566 54.0905C79.8927 53.5839 80.3527 53.1939 80.946 52.9205C81.5394 52.6405 82.2327 52.5005 83.026 52.5005C83.4927 52.5005 83.936 52.5472 84.356 52.6405C84.7827 52.7272 85.1627 52.8605 85.496 53.0405V52.3805C85.496 51.7272 85.3294 51.2439 84.996 50.9305C84.6627 50.6105 84.1594 50.4505 83.486 50.4505C82.9927 50.4505 82.4827 50.5405 81.956 50.7205C81.4294 50.9005 80.9127 51.1605 80.406 51.5005L79.736 49.7105C80.296 49.3372 80.926 49.0505 81.626 48.8505C82.326 48.6439 83.0294 48.5405 83.736 48.5405C85.0494 48.5405 86.0327 48.8605 86.686 49.5005C87.346 50.1339 87.676 51.0872 87.676 52.3605V59.0005H85.496V58.1405C85.136 58.4939 84.7127 58.7672 84.226 58.9605C83.7394 59.1472 83.2227 59.2405 82.676 59.2405ZM83.136 57.3305C83.5694 57.3305 83.9894 57.2372 84.396 57.0505C84.8094 56.8639 85.176 56.5972 85.496 56.2505V54.8605C85.196 54.6939 84.856 54.5672 84.476 54.4805C84.1027 54.3872 83.736 54.3405 83.376 54.3405C82.7094 54.3405 82.186 54.4772 81.806 54.7505C81.426 55.0172 81.236 55.3872 81.236 55.8605C81.236 56.3139 81.4027 56.6739 81.736 56.9405C82.0694 57.2005 82.536 57.3305 83.136 57.3305Z" fill="white"/>
<path d="M99.7259 59.2405C98.7992 59.2405 98.0025 59.0272 97.3359 58.6005C96.6692 58.1672 96.1559 57.5505 95.7959 56.7505C95.4359 55.9505 95.2559 55.0005 95.2559 53.9005C95.2559 52.8005 95.4392 51.8505 95.8059 51.0505C96.1725 50.2439 96.6925 49.6239 97.3659 49.1905C98.0392 48.7572 98.8425 48.5405 99.7759 48.5405C100.769 48.5405 101.603 48.7739 102.276 49.2405C102.949 49.7005 103.439 50.3772 103.746 51.2705L101.616 52.0105C101.449 51.5772 101.209 51.2439 100.896 51.0105C100.589 50.7772 100.223 50.6605 99.7959 50.6605C99.0892 50.6605 98.5359 50.9472 98.1359 51.5205C97.7359 52.0939 97.5359 52.8872 97.5359 53.9005C97.5359 54.9005 97.7325 55.6839 98.1259 56.2505C98.5192 56.8172 99.0592 57.1005 99.7459 57.1005C100.213 57.1005 100.613 56.9739 100.946 56.7205C101.279 56.4605 101.523 56.0905 101.676 55.6105L103.796 56.2605C103.509 57.2339 103.016 57.9739 102.316 58.4805C101.623 58.9872 100.759 59.2405 99.7259 59.2405Z" fill="white"/>
<path d="M110.572 59.2405C109.146 59.2405 108.022 58.7639 107.202 57.8105C106.382 56.8572 105.972 55.5539 105.972 53.9005C105.972 52.8005 106.159 51.8505 106.532 51.0505C106.906 50.2505 107.436 49.6339 108.122 49.2005C108.816 48.7605 109.632 48.5405 110.572 48.5405C111.519 48.5405 112.336 48.7572 113.022 49.1905C113.709 49.6239 114.239 50.2405 114.612 51.0405C114.986 51.8405 115.172 52.7905 115.172 53.8905C115.172 54.9905 114.986 55.9405 114.612 56.7405C114.239 57.5405 113.709 58.1572 113.022 58.5905C112.336 59.0239 111.519 59.2405 110.572 59.2405ZM110.572 57.1105C111.312 57.1105 111.889 56.8272 112.302 56.2605C112.716 55.6939 112.922 54.9039 112.922 53.8905C112.922 52.8705 112.712 52.0772 112.292 51.5105C111.879 50.9439 111.306 50.6605 110.572 50.6605C109.839 50.6605 109.262 50.9472 108.842 51.5205C108.429 52.0872 108.222 52.8805 108.222 53.9005C108.222 54.9072 108.429 55.6939 108.842 56.2605C109.262 56.8272 109.839 57.1105 110.572 57.1105Z" fill="white"/>
<path d="M117.796 59.0005V48.7805H120.036V49.7305C120.356 49.3305 120.729 49.0339 121.156 48.8405C121.582 48.6405 122.062 48.5405 122.596 48.5405C123.196 48.5405 123.722 48.6672 124.176 48.9205C124.629 49.1672 124.979 49.5305 125.226 50.0105C125.552 49.5372 125.979 49.1739 126.506 48.9205C127.039 48.6672 127.632 48.5405 128.286 48.5405C129.486 48.5405 130.409 48.8805 131.056 49.5605C131.702 50.2339 132.026 51.2039 132.026 52.4705V59.0005H129.776V53.2105C129.776 52.3572 129.622 51.7205 129.316 51.3005C129.016 50.8739 128.562 50.6605 127.956 50.6605C127.542 50.6605 127.189 50.7572 126.896 50.9505C126.609 51.1439 126.392 51.4305 126.246 51.8105C126.099 52.1905 126.026 52.6539 126.026 53.2005V59.0005H123.776V53.2105C123.776 52.3439 123.626 51.7039 123.326 51.2905C123.032 50.8705 122.579 50.6605 121.966 50.6605C121.332 50.6605 120.852 50.8705 120.526 51.2905C120.199 51.7105 120.036 52.3339 120.036 53.1605V59.0005H117.796Z" fill="white"/>
<path d="M138.8 59.2405C137.62 59.2405 136.72 58.8805 136.1 58.1605C135.48 57.4405 135.17 56.3872 135.17 55.0005V48.7805H137.41V54.5605C137.41 55.4272 137.57 56.0705 137.89 56.4905C138.216 56.9039 138.706 57.1105 139.36 57.1105C140.073 57.1105 140.603 56.9039 140.95 56.4905C141.296 56.0705 141.47 55.4405 141.47 54.6005V48.7805H143.72V59.0005H141.47V58.0405C141.156 58.4405 140.776 58.7405 140.33 58.9405C139.89 59.1405 139.38 59.2405 138.8 59.2405Z" fill="white"/>
<path d="M147.119 59.0005V48.7805H149.359V49.7805C149.679 49.3605 150.062 49.0505 150.509 48.8505C150.962 48.6439 151.479 48.5405 152.059 48.5405C153.239 48.5405 154.136 48.9005 154.749 49.6205C155.362 50.3405 155.669 51.3972 155.669 52.7905V59.0005H153.419V53.2005C153.419 52.3472 153.256 51.7105 152.929 51.2905C152.609 50.8705 152.122 50.6605 151.469 50.6605C150.762 50.6605 150.232 50.8672 149.879 51.2805C149.532 51.6939 149.359 52.3205 149.359 53.1605V59.0005H147.119Z" fill="white"/>
<path d="M158.93 59.0005V48.7805H161.17V59.0005H158.93ZM160.04 47.3005C159.673 47.3005 159.36 47.1705 159.1 46.9105C158.84 46.6505 158.71 46.3372 158.71 45.9705C158.71 45.5972 158.836 45.2805 159.09 45.0205C159.35 44.7539 159.666 44.6205 160.04 44.6205C160.426 44.6205 160.746 44.7505 161 45.0105C161.26 45.2705 161.39 45.5905 161.39 45.9705C161.39 46.3439 161.26 46.6605 161 46.9205C160.74 47.1739 160.42 47.3005 160.04 47.3005Z" fill="white"/>
<path d="M168.178 59.2405C166.865 59.2405 165.835 58.7639 165.088 57.8105C164.342 56.8572 163.968 55.5472 163.968 53.8805C163.968 52.8072 164.142 51.8705 164.488 51.0705C164.842 50.2639 165.332 49.6405 165.958 49.2005C166.592 48.7605 167.335 48.5405 168.188 48.5405C169.135 48.5405 169.918 48.8672 170.538 49.5205V45.5905L172.788 44.5605V59.0005H170.538V58.1805C169.992 58.8872 169.205 59.2405 168.178 59.2405ZM168.528 57.1105C168.975 57.1105 169.365 57.0205 169.698 56.8405C170.038 56.6605 170.318 56.3972 170.538 56.0505V51.7005C170.318 51.3805 170.028 51.1272 169.668 50.9405C169.315 50.7539 168.935 50.6605 168.528 50.6605C167.795 50.6605 167.225 50.9372 166.818 51.4905C166.418 52.0439 166.218 52.8405 166.218 53.8805C166.218 54.5472 166.312 55.1205 166.498 55.6005C166.685 56.0805 166.952 56.4539 167.298 56.7205C167.645 56.9805 168.055 57.1105 168.528 57.1105Z" fill="white"/>
<path d="M179.124 59.2405C178.004 59.2405 177.124 58.9372 176.484 58.3305C175.844 57.7239 175.524 56.9005 175.524 55.8605C175.524 55.1805 175.687 54.5905 176.014 54.0905C176.34 53.5839 176.8 53.1939 177.394 52.9205C177.987 52.6405 178.68 52.5005 179.474 52.5005C179.94 52.5005 180.384 52.5472 180.804 52.6405C181.23 52.7272 181.61 52.8605 181.944 53.0405V52.3805C181.944 51.7272 181.777 51.2439 181.444 50.9305C181.11 50.6105 180.607 50.4505 179.934 50.4505C179.44 50.4505 178.93 50.5405 178.404 50.7205C177.877 50.9005 177.36 51.1605 176.854 51.5005L176.184 49.7105C176.744 49.3372 177.374 49.0505 178.074 48.8505C178.774 48.6439 179.477 48.5405 180.184 48.5405C181.497 48.5405 182.48 48.8605 183.134 49.5005C183.794 50.1339 184.124 51.0872 184.124 52.3605V59.0005H181.944V58.1405C181.584 58.4939 181.16 58.7672 180.674 58.9605C180.187 59.1472 179.67 59.2405 179.124 59.2405ZM179.584 57.3305C180.017 57.3305 180.437 57.2372 180.844 57.0505C181.257 56.8639 181.624 56.5972 181.944 56.2505V54.8605C181.644 54.6939 181.304 54.5672 180.924 54.4805C180.55 54.3872 180.184 54.3405 179.824 54.3405C179.157 54.3405 178.634 54.4772 178.254 54.7505C177.874 55.0172 177.684 55.3872 177.684 55.8605C177.684 56.3139 177.85 56.6739 178.184 56.9405C178.517 57.2005 178.984 57.3305 179.584 57.3305Z" fill="white"/>
<path d="M191.017 59.2405C189.704 59.2405 188.674 58.7639 187.927 57.8105C187.181 56.8572 186.807 55.5472 186.807 53.8805C186.807 52.8072 186.981 51.8705 187.327 51.0705C187.681 50.2639 188.171 49.6405 188.797 49.2005C189.431 48.7605 190.174 48.5405 191.027 48.5405C191.974 48.5405 192.757 48.8672 193.377 49.5205V45.5905L195.627 44.5605V59.0005H193.377V58.1805C192.831 58.8872 192.044 59.2405 191.017 59.2405ZM191.367 57.1105C191.814 57.1105 192.204 57.0205 192.537 56.8405C192.877 56.6605 193.157 56.3972 193.377 56.0505V51.7005C193.157 51.3805 192.867 51.1272 192.507 50.9405C192.154 50.7539 191.774 50.6605 191.367 50.6605C190.634 50.6605 190.064 50.9372 189.657 51.4905C189.257 52.0439 189.057 52.8405 189.057 53.8805C189.057 54.5472 189.151 55.1205 189.337 55.6005C189.524 56.0805 189.791 56.4539 190.137 56.7205C190.484 56.9805 190.894 57.1105 191.367 57.1105Z" fill="white"/>
<path d="M83.5731 83.2406C82.6465 83.2406 81.8498 83.0272 81.1831 82.6005C80.5165 82.1672 80.0031 81.5505 79.6431 80.7505C79.2831 79.9505 79.1031 79.0005 79.1031 77.9005C79.1031 76.8005 79.2865 75.8505 79.6531 75.0505C80.0198 74.2439 80.5398 73.6239 81.2131 73.1905C81.8865 72.7572 82.6898 72.5405 83.6231 72.5405C84.6165 72.5405 85.4498 72.7739 86.1231 73.2405C86.7965 73.7005 87.2865 74.3772 87.5931 75.2705L85.4631 76.0105C85.2965 75.5772 85.0565 75.2439 84.7431 75.0105C84.4365 74.7772 84.0698 74.6605 83.6431 74.6605C82.9365 74.6605 82.3831 74.9472 81.9831 75.5205C81.5831 76.0939 81.3831 76.8872 81.3831 77.9005C81.3831 78.9005 81.5798 79.6839 81.9731 80.2505C82.3665 80.8172 82.9065 81.1005 83.5931 81.1005C84.0598 81.1005 84.4598 80.9739 84.7931 80.7206C85.1265 80.4606 85.3698 80.0905 85.5231 79.6105L87.6431 80.2605C87.3565 81.2339 86.8631 81.9739 86.1631 82.4805C85.4698 82.9872 84.6065 83.2406 83.5731 83.2406Z" fill="white"/>
<path d="M94.4195 83.2406C92.9929 83.2406 91.8696 82.7639 91.0496 81.8106C90.2296 80.8572 89.8196 79.5539 89.8196 77.9005C89.8196 76.8005 90.0062 75.8505 90.3795 75.0505C90.7529 74.2505 91.2829 73.6339 91.9695 73.2005C92.6629 72.7605 93.4795 72.5405 94.4195 72.5405C95.3662 72.5405 96.1829 72.7572 96.8696 73.1905C97.5562 73.6239 98.0862 74.2405 98.4596 75.0405C98.8329 75.8405 99.0196 76.7905 99.0196 77.8905C99.0196 78.9905 98.8329 79.9406 98.4596 80.7406C98.0862 81.5406 97.5562 82.1572 96.8696 82.5905C96.1829 83.0239 95.3662 83.2406 94.4195 83.2406ZM94.4195 81.1105C95.1595 81.1105 95.7362 80.8272 96.1495 80.2605C96.5629 79.6939 96.7696 78.9039 96.7696 77.8905C96.7696 76.8705 96.5596 76.0772 96.1396 75.5105C95.7262 74.9439 95.1529 74.6605 94.4195 74.6605C93.6862 74.6605 93.1096 74.9472 92.6896 75.5205C92.2762 76.0872 92.0696 76.8805 92.0696 77.9005C92.0696 78.9072 92.2762 79.6939 92.6896 80.2605C93.1096 80.8272 93.6862 81.1105 94.4195 81.1105Z" fill="white"/>
<path d="M101.899 83.0005V69.5905L104.139 68.5605V83.0005H101.899Z" fill="white"/>
<path d="M111.614 83.2406C110.187 83.2406 109.064 82.7639 108.244 81.8106C107.424 80.8572 107.014 79.5539 107.014 77.9005C107.014 76.8005 107.201 75.8505 107.574 75.0505C107.947 74.2505 108.477 73.6339 109.164 73.2005C109.857 72.7605 110.674 72.5405 111.614 72.5405C112.561 72.5405 113.377 72.7572 114.064 73.1905C114.751 73.6239 115.281 74.2405 115.654 75.0405C116.027 75.8405 116.214 76.7905 116.214 77.8905C116.214 78.9905 116.027 79.9406 115.654 80.7406C115.281 81.5406 114.751 82.1572 114.064 82.5905C113.377 83.0239 112.561 83.2406 111.614 83.2406ZM111.614 81.1105C112.354 81.1105 112.931 80.8272 113.344 80.2605C113.757 79.6939 113.964 78.9039 113.964 77.8905C113.964 76.8705 113.754 76.0772 113.334 75.5105C112.921 74.9439 112.347 74.6605 111.614 74.6605C110.881 74.6605 110.304 74.9472 109.884 75.5205C109.471 76.0872 109.264 76.8805 109.264 77.9005C109.264 78.9072 109.471 79.6939 109.884 80.2605C110.304 80.8272 110.881 81.1105 111.614 81.1105Z" fill="white"/>
<path d="M118.837 83.0005V72.7805H121.077V73.7305C121.397 73.3305 121.771 73.0339 122.197 72.8405C122.624 72.6405 123.104 72.5405 123.637 72.5405C124.237 72.5405 124.764 72.6672 125.217 72.9205C125.671 73.1672 126.021 73.5305 126.267 74.0105C126.594 73.5372 127.021 73.1739 127.547 72.9205C128.081 72.6672 128.674 72.5405 129.327 72.5405C130.527 72.5405 131.451 72.8805 132.097 73.5605C132.744 74.2339 133.067 75.2039 133.067 76.4705V83.0005H130.817V77.2105C130.817 76.3572 130.664 75.7205 130.357 75.3005C130.057 74.8739 129.604 74.6605 128.997 74.6605C128.584 74.6605 128.231 74.7572 127.937 74.9505C127.651 75.1439 127.434 75.4305 127.287 75.8105C127.141 76.1905 127.067 76.6539 127.067 77.2006V83.0005H124.817V77.2105C124.817 76.3439 124.667 75.7039 124.367 75.2905C124.074 74.8705 123.621 74.6605 123.007 74.6605C122.374 74.6605 121.894 74.8705 121.567 75.2905C121.241 75.7105 121.077 76.3339 121.077 77.1605V83.0005H118.837Z" fill="white"/>
<path d="M140.852 83.2406C140.372 83.2406 139.948 83.1539 139.582 82.9805C139.222 82.8072 138.878 82.5339 138.552 82.1605V83.0005H136.312V69.5905L138.552 68.5605V73.6005C138.832 73.2605 139.172 73.0005 139.572 72.8205C139.978 72.6339 140.418 72.5405 140.892 72.5405C141.738 72.5405 142.478 72.7639 143.112 73.2105C143.752 73.6505 144.248 74.2705 144.602 75.0705C144.955 75.8705 145.132 76.8072 145.132 77.8806C145.132 79.5739 144.755 80.8906 144.002 81.8306C143.248 82.7706 142.198 83.2406 140.852 83.2406ZM140.572 81.1105C141.305 81.1105 141.868 80.8305 142.262 80.2705C142.662 79.7105 142.862 78.9139 142.862 77.8806C142.862 76.8339 142.665 76.0372 142.272 75.4905C141.878 74.9372 141.312 74.6605 140.572 74.6605C140.165 74.6605 139.775 74.7605 139.402 74.9605C139.035 75.1539 138.752 75.4072 138.552 75.7205V80.0505C138.772 80.3839 139.052 80.6439 139.392 80.8306C139.732 81.0172 140.125 81.1105 140.572 81.1105Z" fill="white"/>
<path d="M147.927 83.0005V72.7805H150.167V83.0005H147.927ZM149.037 71.3005C148.67 71.3005 148.357 71.1705 148.097 70.9105C147.837 70.6505 147.707 70.3372 147.707 69.9705C147.707 69.5972 147.834 69.2805 148.087 69.0205C148.347 68.7539 148.664 68.6205 149.037 68.6205C149.424 68.6205 149.744 68.7505 149.997 69.0105C150.257 69.2705 150.387 69.5905 150.387 69.9705C150.387 70.3439 150.257 70.6605 149.997 70.9205C149.737 71.1739 149.417 71.3005 149.037 71.3005Z" fill="white"/>
<path d="M156.526 83.2406C155.406 83.2406 154.526 82.9372 153.886 82.3306C153.246 81.7239 152.926 80.9005 152.926 79.8605C152.926 79.1805 153.089 78.5905 153.416 78.0905C153.742 77.5839 154.202 77.1939 154.796 76.9205C155.389 76.6405 156.082 76.5005 156.876 76.5005C157.342 76.5005 157.786 76.5472 158.206 76.6405C158.632 76.7272 159.012 76.8606 159.346 77.0406V76.3805C159.346 75.7272 159.179 75.2439 158.846 74.9305C158.512 74.6105 158.009 74.4505 157.336 74.4505C156.842 74.4505 156.332 74.5405 155.806 74.7205C155.279 74.9005 154.762 75.1605 154.256 75.5005L153.586 73.7105C154.146 73.3372 154.776 73.0505 155.476 72.8505C156.176 72.6439 156.879 72.5405 157.586 72.5405C158.899 72.5405 159.882 72.8605 160.536 73.5005C161.196 74.1339 161.526 75.0872 161.526 76.3605V83.0005H159.346V82.1405C158.986 82.4939 158.562 82.7672 158.076 82.9605C157.589 83.1472 157.072 83.2406 156.526 83.2406ZM156.986 81.3305C157.419 81.3305 157.839 81.2372 158.246 81.0505C158.659 80.8639 159.026 80.5972 159.346 80.2505V78.8605C159.046 78.6939 158.706 78.5672 158.326 78.4805C157.952 78.3872 157.586 78.3405 157.226 78.3405C156.559 78.3405 156.036 78.4772 155.656 78.7505C155.276 79.0172 155.086 79.3872 155.086 79.8605C155.086 80.3139 155.252 80.6739 155.586 80.9405C155.919 81.2005 156.386 81.3305 156.986 81.3305Z" fill="white"/>
<path d="M164.769 83.0005V72.7805H167.009V73.7805C167.329 73.3605 167.713 73.0505 168.159 72.8505C168.613 72.6439 169.129 72.5405 169.709 72.5405C170.889 72.5405 171.786 72.9005 172.399 73.6205C173.013 74.3405 173.319 75.3972 173.319 76.7906V83.0005H171.069V77.2006C171.069 76.3472 170.906 75.7105 170.579 75.2905C170.259 74.8705 169.773 74.6605 169.119 74.6605C168.413 74.6605 167.883 74.8672 167.529 75.2805C167.183 75.6939 167.009 76.3205 167.009 77.1605V83.0005H164.769Z" fill="white"/>
<path d="M179.599 83.2406C178.479 83.2406 177.599 82.9372 176.959 82.3306C176.319 81.7239 175.999 80.9005 175.999 79.8605C175.999 79.1805 176.162 78.5905 176.489 78.0905C176.816 77.5839 177.276 77.1939 177.869 76.9205C178.462 76.6405 179.156 76.5005 179.949 76.5005C180.416 76.5005 180.859 76.5472 181.279 76.6405C181.706 76.7272 182.086 76.8606 182.419 77.0406V76.3805C182.419 75.7272 182.252 75.2439 181.919 74.9305C181.586 74.6105 181.082 74.4505 180.409 74.4505C179.916 74.4505 179.406 74.5405 178.879 74.7205C178.352 74.9005 177.836 75.1605 177.329 75.5005L176.659 73.7105C177.219 73.3372 177.849 73.0505 178.549 72.8505C179.249 72.6439 179.952 72.5405 180.659 72.5405C181.972 72.5405 182.956 72.8605 183.609 73.5005C184.269 74.1339 184.599 75.0872 184.599 76.3605V83.0005H182.419V82.1405C182.059 82.4939 181.636 82.7672 181.149 82.9605C180.662 83.1472 180.146 83.2406 179.599 83.2406ZM180.059 81.3305C180.492 81.3305 180.912 81.2372 181.319 81.0505C181.732 80.8639 182.099 80.5972 182.419 80.2505V78.8605C182.119 78.6939 181.779 78.5672 181.399 78.4805C181.026 78.3872 180.659 78.3405 180.299 78.3405C179.632 78.3405 179.109 78.4772 178.729 78.7505C178.349 79.0172 178.159 79.3872 178.159 79.8605C178.159 80.3139 178.326 80.6739 178.659 80.9405C178.992 81.2005 179.459 81.3305 180.059 81.3305Z" fill="white"/>
</svg>
