<svg width="264" height="130" viewBox="0 0 264 130" fill="none" xmlns="http://www.w3.org/2000/svg">
<path d="M0 11C0 4.92487 4.92487 0 11 0H253C259.075 0 264 4.92487 264 11V119C264 125.075 259.075 130 253 130H11C4.92487 130 0 125.075 0 119V11Z" fill="#009245"/>
<path d="M58.4992 51.2394L54.8392 43.0994C54.7792 42.946 54.7125 42.7794 54.6392 42.5994C54.5725 42.4194 54.5092 42.2494 54.4492 42.0894C54.4625 42.2227 54.4725 42.3894 54.4792 42.5894C54.4859 42.7827 54.4892 42.9527 54.4892 43.0994V50.9994H52.1792V36.9994H54.4492L58.1792 45.4394C58.2459 45.586 58.3059 45.7327 58.3592 45.8794C58.4192 46.026 58.4759 46.1794 58.5292 46.3394C58.5825 46.186 58.6359 46.036 58.6892 45.8894C58.7492 45.736 58.8125 45.586 58.8792 45.4394L62.6392 36.9994H64.8092V50.9994H62.4992V43.0994C62.4992 42.9394 62.5025 42.7594 62.5092 42.5594C62.5159 42.3527 62.5225 42.1927 62.5292 42.0794C62.4692 42.226 62.3992 42.396 62.3192 42.5894C62.2459 42.7827 62.1792 42.9527 62.1192 43.0994L58.4992 51.2394Z" fill="white"/>
<path d="M71.1458 51.2394C70.0258 51.2394 69.1458 50.936 68.5058 50.3294C67.8658 49.7227 67.5458 48.8994 67.5458 47.8594C67.5458 47.1794 67.7091 46.5894 68.0358 46.0894C68.3624 45.5827 68.8224 45.1927 69.4158 44.9194C70.0091 44.6394 70.7024 44.4994 71.4958 44.4994C71.9624 44.4994 72.4058 44.546 72.8258 44.6394C73.2524 44.726 73.6324 44.8594 73.9658 45.0394V44.3794C73.9658 43.726 73.7991 43.2427 73.4658 42.9294C73.1324 42.6094 72.6291 42.4494 71.9558 42.4494C71.4624 42.4494 70.9524 42.5394 70.4258 42.7194C69.8991 42.8994 69.3824 43.1594 68.8758 43.4994L68.2058 41.7094C68.7658 41.336 69.3958 41.0494 70.0958 40.8494C70.7958 40.6427 71.4991 40.5394 72.2058 40.5394C73.5191 40.5394 74.5024 40.8594 75.1558 41.4994C75.8158 42.1327 76.1458 43.086 76.1458 44.3594V50.9994H73.9658V50.1394C73.6058 50.4927 73.1824 50.766 72.6958 50.9594C72.2091 51.146 71.6924 51.2394 71.1458 51.2394ZM71.6058 49.3294C72.0391 49.3294 72.4591 49.236 72.8658 49.0494C73.2791 48.8627 73.6458 48.596 73.9658 48.2494V46.8594C73.6658 46.6927 73.3258 46.566 72.9458 46.4794C72.5724 46.386 72.2058 46.3394 71.8458 46.3394C71.1791 46.3394 70.6558 46.476 70.2758 46.7494C69.8958 47.016 69.7058 47.386 69.7058 47.8594C69.7058 48.3127 69.8724 48.6727 70.2058 48.9394C70.5391 49.1994 71.0058 49.3294 71.6058 49.3294Z" fill="white"/>
<path d="M79.3895 50.9994V40.7794H81.6295V41.9594C81.8295 41.5194 82.1295 41.1727 82.5295 40.9194C82.9362 40.666 83.3828 40.5394 83.8695 40.5394C84.5562 40.5394 85.1362 40.7627 85.6095 41.2094L85.2995 43.2794C85.0462 43.0794 84.7928 42.936 84.5395 42.8494C84.2862 42.7627 84.0062 42.7194 83.6995 42.7194C83.2728 42.7194 82.9062 42.826 82.5995 43.0394C82.2928 43.2527 82.0528 43.556 81.8795 43.9494C81.7128 44.3427 81.6295 44.8094 81.6295 45.3494V50.9994H79.3895Z" fill="white"/>
<path d="M87.704 50.9994V40.7794H89.944V50.9994H87.704ZM87.104 39.4794L89.944 36.3594H92.844L89.284 39.4794H87.104Z" fill="white"/>
<path d="M96.3028 51.2394C95.1828 51.2394 94.3028 50.936 93.6628 50.3294C93.0228 49.7227 92.7028 48.8994 92.7028 47.8594C92.7028 47.1794 92.8661 46.5894 93.1928 46.0894C93.5195 45.5827 93.9795 45.1927 94.5728 44.9194C95.1661 44.6394 95.8595 44.4994 96.6528 44.4994C97.1195 44.4994 97.5628 44.546 97.9828 44.6394C98.4095 44.726 98.7895 44.8594 99.1228 45.0394V44.3794C99.1228 43.726 98.9561 43.2427 98.6228 42.9294C98.2895 42.6094 97.7861 42.4494 97.1128 42.4494C96.6195 42.4494 96.1095 42.5394 95.5828 42.7194C95.0561 42.8994 94.5395 43.1594 94.0328 43.4994L93.3628 41.7094C93.9228 41.336 94.5528 41.0494 95.2528 40.8494C95.9528 40.6427 96.6561 40.5394 97.3628 40.5394C98.6761 40.5394 99.6595 40.8594 100.313 41.4994C100.973 42.1327 101.303 43.086 101.303 44.3594V50.9994H99.1228V50.1394C98.7628 50.4927 98.3395 50.766 97.8528 50.9594C97.3661 51.146 96.8495 51.2394 96.3028 51.2394ZM96.7628 49.3294C97.1961 49.3294 97.6161 49.236 98.0228 49.0494C98.4361 48.8627 98.8028 48.596 99.1228 48.2494V46.8594C98.8228 46.6927 98.4828 46.566 98.1028 46.4794C97.7295 46.386 97.3628 46.3394 97.0028 46.3394C96.3361 46.3394 95.8128 46.476 95.4328 46.7494C95.0528 47.016 94.8628 47.386 94.8628 47.8594C94.8628 48.3127 95.0295 48.6727 95.3628 48.9394C95.6961 49.1994 96.1628 49.3294 96.7628 49.3294Z" fill="white"/>
<path d="M114.003 51.2394C113.149 51.2394 112.373 51.0927 111.673 50.7994C110.979 50.4994 110.386 50.086 109.893 49.5594C109.406 49.026 109.043 48.406 108.803 47.6994L110.913 46.9094C111.206 47.5494 111.626 48.0694 112.173 48.4694C112.719 48.8627 113.349 49.0594 114.063 49.0594C114.809 49.0594 115.409 48.8927 115.863 48.5594C116.316 48.226 116.543 47.7394 116.543 47.0994C116.543 46.6594 116.409 46.2927 116.143 45.9994C115.876 45.6994 115.519 45.446 115.073 45.2394C114.626 45.026 114.136 44.826 113.603 44.6394C113.103 44.4594 112.596 44.2627 112.083 44.0494C111.569 43.836 111.103 43.576 110.683 43.2694C110.263 42.956 109.923 42.5727 109.663 42.1194C109.409 41.6594 109.283 41.0994 109.283 40.4394C109.283 39.7727 109.463 39.1627 109.823 38.6094C110.183 38.0494 110.703 37.6027 111.383 37.2694C112.063 36.9294 112.883 36.7594 113.843 36.7594C114.636 36.7594 115.336 36.8894 115.943 37.1494C116.549 37.4027 117.049 37.7527 117.443 38.1994C117.836 38.6394 118.113 39.136 118.273 39.6894L116.193 40.3794C116.013 39.9727 115.719 39.6294 115.313 39.3494C114.913 39.0627 114.376 38.9194 113.703 38.9194C113.049 38.9194 112.539 39.056 112.173 39.3294C111.806 39.596 111.623 39.9727 111.623 40.4594C111.623 40.806 111.746 41.0994 111.993 41.3394C112.239 41.5727 112.569 41.7794 112.983 41.9594C113.403 42.1394 113.863 42.3194 114.363 42.4994C114.896 42.6927 115.426 42.906 115.953 43.1394C116.486 43.3727 116.973 43.6594 117.413 43.9994C117.859 44.3394 118.213 44.7594 118.473 45.2594C118.739 45.7594 118.873 46.3694 118.873 47.0894C118.873 47.9694 118.659 48.7194 118.233 49.3394C117.806 49.9527 117.223 50.4227 116.483 50.7494C115.749 51.076 114.923 51.2394 114.003 51.2394Z" fill="white"/>
<path d="M124.761 51.2394C123.641 51.2394 122.761 50.936 122.121 50.3294C121.481 49.7227 121.161 48.8994 121.161 47.8594C121.161 47.1794 121.324 46.5894 121.651 46.0894C121.977 45.5827 122.437 45.1927 123.031 44.9194C123.624 44.6394 124.317 44.4994 125.111 44.4994C125.577 44.4994 126.021 44.546 126.441 44.6394C126.867 44.726 127.247 44.8594 127.581 45.0394V44.3794C127.581 43.726 127.414 43.2427 127.081 42.9294C126.747 42.6094 126.244 42.4494 125.571 42.4494C125.077 42.4494 124.567 42.5394 124.041 42.7194C123.514 42.8994 122.997 43.1594 122.491 43.4994L121.821 41.7094C122.381 41.336 123.011 41.0494 123.711 40.8494C124.411 40.6427 125.114 40.5394 125.821 40.5394C127.134 40.5394 128.117 40.8594 128.771 41.4994C129.431 42.1327 129.761 43.086 129.761 44.3594V50.9994H127.581V50.1394C127.221 50.4927 126.797 50.766 126.311 50.9594C125.824 51.146 125.307 51.2394 124.761 51.2394ZM125.221 49.3294C125.654 49.3294 126.074 49.236 126.481 49.0494C126.894 48.8627 127.261 48.596 127.581 48.2494V46.8594C127.281 46.6927 126.941 46.566 126.561 46.4794C126.187 46.386 125.821 46.3394 125.461 46.3394C124.794 46.3394 124.271 46.476 123.891 46.7494C123.511 47.016 123.321 47.386 123.321 47.8594C123.321 48.3127 123.487 48.6727 123.821 48.9394C124.154 49.1994 124.621 49.3294 125.221 49.3294Z" fill="white"/>
<path d="M133.004 50.9994V40.7794H135.244V41.7794C135.564 41.3594 135.948 41.0494 136.394 40.8494C136.848 40.6427 137.364 40.5394 137.944 40.5394C139.124 40.5394 140.021 40.8994 140.634 41.6194C141.248 42.3394 141.554 43.396 141.554 44.7894V50.9994H139.304V45.1994C139.304 44.346 139.141 43.7094 138.814 43.2894C138.494 42.8694 138.008 42.6594 137.354 42.6594C136.648 42.6594 136.118 42.866 135.764 43.2794C135.418 43.6927 135.244 44.3194 135.244 45.1594V50.9994H133.004Z" fill="white"/>
<path d="M148.861 51.2394C147.935 51.2394 147.138 51.026 146.471 50.5994C145.805 50.166 145.291 49.5494 144.931 48.7494C144.571 47.9494 144.391 46.9994 144.391 45.8994C144.391 44.7994 144.575 43.8494 144.941 43.0494C145.308 42.2427 145.828 41.6227 146.501 41.1894C147.175 40.756 147.978 40.5394 148.911 40.5394C149.905 40.5394 150.738 40.7727 151.411 41.2394C152.085 41.6994 152.575 42.376 152.881 43.2694L150.751 44.0094C150.585 43.576 150.345 43.2427 150.031 43.0094C149.725 42.776 149.358 42.6594 148.931 42.6594C148.225 42.6594 147.671 42.946 147.271 43.5194C146.871 44.0927 146.671 44.886 146.671 45.8994C146.671 46.8994 146.868 47.6827 147.261 48.2494C147.655 48.816 148.195 49.0994 148.881 49.0994C149.348 49.0994 149.748 48.9727 150.081 48.7194C150.415 48.4594 150.658 48.0894 150.811 47.6094L152.931 48.2594C152.645 49.2327 152.151 49.9727 151.451 50.4794C150.758 50.986 149.895 51.2394 148.861 51.2394Z" fill="white"/>
<path d="M155.648 50.9994V37.5894L157.888 36.5594V41.7894C158.208 41.376 158.595 41.066 159.048 40.8594C159.501 40.646 160.015 40.5394 160.588 40.5394C161.408 40.5394 162.085 40.7094 162.618 41.0494C163.151 41.3894 163.548 41.8794 163.808 42.5194C164.068 43.1527 164.198 43.9094 164.198 44.7894V50.9994H161.948V45.1994C161.948 44.3794 161.795 43.7527 161.488 43.3194C161.181 42.8794 160.685 42.6594 159.998 42.6594C159.291 42.6594 158.761 42.866 158.408 43.2794C158.061 43.6927 157.888 44.3194 157.888 45.1594V50.9994H155.648Z" fill="white"/>
<path d="M171.705 51.2394C170.738 51.2394 169.905 51.016 169.205 50.5694C168.505 50.1227 167.968 49.4994 167.595 48.6994C167.222 47.8927 167.035 46.9527 167.035 45.8794C167.035 44.766 167.228 43.8127 167.615 43.0194C168.002 42.2194 168.545 41.606 169.245 41.1794C169.945 40.7527 170.765 40.5394 171.705 40.5394C172.512 40.5394 173.245 40.7127 173.905 41.0594C174.572 41.406 175.102 41.9394 175.495 42.6594C175.888 43.3727 176.085 44.2827 176.085 45.3894C176.085 45.5627 176.082 45.7694 176.075 46.0094C176.068 46.2427 176.048 46.4794 176.015 46.7194H169.265C169.305 47.2394 169.428 47.6927 169.635 48.0794C169.848 48.466 170.132 48.7694 170.485 48.9894C170.838 49.2027 171.255 49.3094 171.735 49.3094C172.202 49.3094 172.615 49.2327 172.975 49.0794C173.335 48.9194 173.678 48.666 174.005 48.3194L175.305 49.6894C174.885 50.1494 174.372 50.5227 173.765 50.8094C173.165 51.096 172.478 51.2394 171.705 51.2394ZM169.275 44.9094H173.885C173.865 44.4227 173.765 43.996 173.585 43.6294C173.412 43.2627 173.165 42.9794 172.845 42.7794C172.525 42.5727 172.135 42.4694 171.675 42.4694C171.035 42.4694 170.488 42.6694 170.035 43.0694C169.588 43.4694 169.335 44.0827 169.275 44.9094Z" fill="white"/>
<path d="M178.165 50.9994V49.3094L183.425 42.7794H178.545V40.7794H186.295V42.4194L181.035 48.9894H186.275V50.9994H178.165Z" fill="white"/>
<path d="M198.483 51.2394C197.516 51.2394 196.683 51.016 195.983 50.5694C195.283 50.1227 194.746 49.4994 194.373 48.6994C194 47.8927 193.813 46.9527 193.813 45.8794C193.813 44.766 194.006 43.8127 194.393 43.0194C194.78 42.2194 195.323 41.606 196.023 41.1794C196.723 40.7527 197.543 40.5394 198.483 40.5394C199.29 40.5394 200.023 40.7127 200.683 41.0594C201.35 41.406 201.88 41.9394 202.273 42.6594C202.666 43.3727 202.863 44.2827 202.863 45.3894C202.863 45.5627 202.86 45.7694 202.853 46.0094C202.846 46.2427 202.826 46.4794 202.793 46.7194H196.043C196.083 47.2394 196.206 47.6927 196.413 48.0794C196.626 48.466 196.91 48.7694 197.263 48.9894C197.616 49.2027 198.033 49.3094 198.513 49.3094C198.98 49.3094 199.393 49.2327 199.753 49.0794C200.113 48.9194 200.456 48.666 200.783 48.3194L202.083 49.6894C201.663 50.1494 201.15 50.5227 200.543 50.8094C199.943 51.096 199.256 51.2394 198.483 51.2394ZM196.053 44.9094H200.663C200.643 44.4227 200.543 43.996 200.363 43.6294C200.19 43.2627 199.943 42.9794 199.623 42.7794C199.303 42.5727 198.913 42.4694 198.453 42.4694C197.813 42.4694 197.266 42.6694 196.813 43.0694C196.366 43.4694 196.113 44.0827 196.053 44.9094Z" fill="white"/>
<path d="M208.563 51.2394C207.797 51.2394 207.06 51.076 206.353 50.7494C205.647 50.416 205.08 49.9727 204.653 49.4194L206.153 48.1394C206.507 48.506 206.903 48.796 207.343 49.0094C207.783 49.2227 208.213 49.3294 208.633 49.3294C209.167 49.3294 209.58 49.236 209.873 49.0494C210.167 48.856 210.313 48.586 210.313 48.2394C210.313 48.026 210.247 47.8327 210.113 47.6594C209.98 47.4794 209.747 47.3027 209.413 47.1294C209.08 46.956 208.62 46.7594 208.033 46.5394C206.887 46.1194 206.073 45.666 205.593 45.1794C205.113 44.686 204.873 44.0694 204.873 43.3294C204.873 42.496 205.207 41.8227 205.873 41.3094C206.54 40.796 207.407 40.5394 208.473 40.5394C209.2 40.5394 209.87 40.6794 210.483 40.9594C211.103 41.2327 211.637 41.6294 212.083 42.1494L210.593 43.3794C209.987 42.7594 209.267 42.4494 208.433 42.4494C207.987 42.4494 207.63 42.536 207.363 42.7094C207.097 42.876 206.963 43.0994 206.963 43.3794C206.963 43.6594 207.117 43.9094 207.423 44.1294C207.737 44.3427 208.31 44.5927 209.143 44.8794C209.903 45.1327 210.523 45.416 211.003 45.7294C211.49 46.0427 211.843 46.4027 212.063 46.8094C212.29 47.216 212.403 47.686 212.403 48.2194C212.403 49.1594 212.06 49.8994 211.373 50.4394C210.693 50.9727 209.757 51.2394 208.563 51.2394Z" fill="white"/>
<path d="M55.27 74.9994V61.5894L57.51 60.5594V74.9994H55.27Z" fill="white"/>
<path d="M63.945 75.2394C62.825 75.2394 61.945 74.936 61.305 74.3294C60.665 73.7227 60.345 72.8994 60.345 71.8594C60.345 71.1794 60.5083 70.5894 60.835 70.0894C61.1616 69.5827 61.6216 69.1927 62.215 68.9194C62.8083 68.6394 63.5016 68.4994 64.295 68.4994C64.7616 68.4994 65.205 68.546 65.625 68.6394C66.0516 68.726 66.4316 68.8594 66.765 69.0394V68.3794C66.765 67.726 66.5983 67.2427 66.265 66.9294C65.9316 66.6094 65.4283 66.4494 64.755 66.4494C64.2616 66.4494 63.7516 66.5394 63.225 66.7194C62.6983 66.8994 62.1816 67.1594 61.675 67.4994L61.005 65.7094C61.565 65.336 62.195 65.0494 62.895 64.8494C63.595 64.6427 64.2983 64.5394 65.005 64.5394C66.3183 64.5394 67.3016 64.8594 67.955 65.4994C68.615 66.1327 68.945 67.086 68.945 68.3594V74.9994H66.765V74.1394C66.405 74.4927 65.9816 74.766 65.495 74.9594C65.0083 75.146 64.4916 75.2394 63.945 75.2394ZM64.405 73.3294C64.8383 73.3294 65.2583 73.236 65.665 73.0494C66.0783 72.8627 66.445 72.596 66.765 72.2494V70.8594C66.465 70.6927 66.125 70.566 65.745 70.4794C65.3716 70.386 65.005 70.3394 64.645 70.3394C63.9783 70.3394 63.455 70.476 63.075 70.7494C62.695 71.016 62.505 71.386 62.505 71.8594C62.505 72.3127 62.6716 72.6727 63.005 72.9394C63.3383 73.1994 63.805 73.3294 64.405 73.3294Z" fill="white"/>
<path d="M80.7348 75.2394C79.4215 75.2394 78.3915 74.7627 77.6448 73.8094C76.8982 72.856 76.5248 71.546 76.5248 69.8794C76.5248 68.806 76.6982 67.8694 77.0448 67.0694C77.3982 66.2627 77.8882 65.6394 78.5148 65.1994C79.1482 64.7594 79.8915 64.5394 80.7448 64.5394C81.6915 64.5394 82.4748 64.866 83.0948 65.5194V61.5894L85.3448 60.5594V74.9994H83.0948V74.1794C82.5482 74.886 81.7615 75.2394 80.7348 75.2394ZM81.0848 73.1094C81.5315 73.1094 81.9215 73.0194 82.2548 72.8394C82.5948 72.6594 82.8748 72.396 83.0948 72.0494V67.6994C82.8748 67.3794 82.5848 67.126 82.2248 66.9394C81.8715 66.7527 81.4915 66.6594 81.0848 66.6594C80.3515 66.6594 79.7815 66.936 79.3748 67.4894C78.9748 68.0427 78.7748 68.8394 78.7748 69.8794C78.7748 70.546 78.8682 71.1194 79.0548 71.5994C79.2415 72.0794 79.5082 72.4527 79.8548 72.7194C80.2015 72.9794 80.6115 73.1094 81.0848 73.1094Z" fill="white"/>
<path d="M88.7001 74.9994V64.7794H90.9401V74.9994H88.7001ZM89.8101 63.2994C89.4435 63.2994 89.1301 63.1694 88.8701 62.9094C88.6101 62.6494 88.4801 62.336 88.4801 61.9694C88.4801 61.596 88.6068 61.2794 88.8601 61.0194C89.1201 60.7527 89.4368 60.6194 89.8101 60.6194C90.1968 60.6194 90.5168 60.7494 90.7701 61.0094C91.0301 61.2694 91.1601 61.5894 91.1601 61.9694C91.1601 62.3427 91.0301 62.6594 90.7701 62.9194C90.5101 63.1727 90.1901 63.2994 89.8101 63.2994Z" fill="white"/>
<path d="M94.2989 74.9994V64.7794H96.5389V65.9594C96.7389 65.5194 97.0389 65.1727 97.4389 64.9194C97.8456 64.666 98.2922 64.5394 98.7789 64.5394C99.4656 64.5394 100.046 64.7627 100.519 65.2094L100.209 67.2794C99.9556 67.0794 99.7022 66.936 99.4489 66.8494C99.1955 66.7627 98.9156 66.7194 98.6089 66.7194C98.1822 66.7194 97.8156 66.826 97.5089 67.0394C97.2022 67.2527 96.9622 67.556 96.7889 67.9494C96.6222 68.3427 96.5389 68.8094 96.5389 69.3494V74.9994H94.2989Z" fill="white"/>
<path d="M106.196 75.2394C105.229 75.2394 104.396 75.016 103.696 74.5694C102.996 74.1227 102.459 73.4994 102.086 72.6994C101.712 71.8927 101.526 70.9527 101.526 69.8794C101.526 68.766 101.719 67.8127 102.106 67.0194C102.492 66.2194 103.036 65.606 103.736 65.1794C104.436 64.7527 105.256 64.5394 106.196 64.5394C107.002 64.5394 107.736 64.7127 108.396 65.0594C109.062 65.406 109.592 65.9394 109.986 66.6594C110.379 67.3727 110.576 68.2827 110.576 69.3894C110.576 69.5627 110.572 69.7694 110.566 70.0094C110.559 70.2427 110.539 70.4794 110.506 70.7194H103.756C103.796 71.2394 103.919 71.6927 104.126 72.0794C104.339 72.466 104.622 72.7694 104.976 72.9894C105.329 73.2027 105.746 73.3094 106.226 73.3094C106.692 73.3094 107.106 73.2327 107.466 73.0794C107.826 72.9194 108.169 72.666 108.496 72.3194L109.796 73.6894C109.376 74.1494 108.862 74.5227 108.256 74.8094C107.656 75.096 106.969 75.2394 106.196 75.2394ZM103.766 68.9094H108.376C108.356 68.4227 108.256 67.996 108.076 67.6294C107.902 67.2627 107.656 66.9794 107.336 66.7794C107.016 66.5727 106.626 66.4694 106.166 66.4694C105.526 66.4694 104.979 66.6694 104.526 67.0694C104.079 67.4694 103.826 68.0827 103.766 68.9094Z" fill="white"/>
<path d="M117.513 75.2394C116.586 75.2394 115.789 75.026 115.123 74.5994C114.456 74.166 113.943 73.5494 113.583 72.7494C113.223 71.9494 113.043 70.9994 113.043 69.8994C113.043 68.7994 113.226 67.8494 113.593 67.0494C113.959 66.2427 114.479 65.6227 115.153 65.1894C115.826 64.756 116.629 64.5394 117.563 64.5394C118.556 64.5394 119.389 64.7727 120.063 65.2394C120.736 65.6994 121.226 66.376 121.533 67.2694L119.403 68.0094C119.236 67.576 118.996 67.2427 118.683 67.0094C118.376 66.776 118.009 66.6594 117.583 66.6594C116.876 66.6594 116.323 66.946 115.923 67.5194C115.523 68.0927 115.323 68.886 115.323 69.8994C115.323 70.8994 115.519 71.6827 115.913 72.2494C116.306 72.816 116.846 73.0994 117.533 73.0994C117.999 73.0994 118.399 72.9727 118.733 72.7194C119.066 72.4594 119.309 72.0894 119.463 71.6094L121.583 72.2594C121.296 73.2327 120.803 73.9727 120.103 74.4794C119.409 74.986 118.546 75.2394 117.513 75.2394Z" fill="white"/>
<path d="M127.083 75.2394C126.31 75.2394 125.726 75.0194 125.333 74.5794C124.94 74.1394 124.743 73.496 124.743 72.6494V66.7494H123.193V64.7794H124.743V61.6294L126.983 60.5594V64.7794H129.363V66.7494H126.983V72.1594C126.983 72.526 127.053 72.7994 127.193 72.9794C127.34 73.1527 127.563 73.2394 127.863 73.2394C128.35 73.2394 128.88 73.0794 129.453 72.7594L129.203 74.7794C128.89 74.9327 128.56 75.046 128.213 75.1194C127.866 75.1994 127.49 75.2394 127.083 75.2394Z" fill="white"/>
<path d="M135.97 75.2394C134.543 75.2394 133.42 74.7627 132.6 73.8094C131.78 72.856 131.37 71.5527 131.37 69.8994C131.37 68.7994 131.557 67.8494 131.93 67.0494C132.303 66.2494 132.833 65.6327 133.52 65.1994C134.213 64.7594 135.03 64.5394 135.97 64.5394C136.917 64.5394 137.733 64.756 138.42 65.1894C139.107 65.6227 139.637 66.2394 140.01 67.0394C140.383 67.8394 140.57 68.7894 140.57 69.8894C140.57 70.9894 140.383 71.9394 140.01 72.7394C139.637 73.5394 139.107 74.156 138.42 74.5894C137.733 75.0227 136.917 75.2394 135.97 75.2394ZM135.97 73.1094C136.71 73.1094 137.287 72.826 137.7 72.2594C138.113 71.6927 138.32 70.9027 138.32 69.8894C138.32 68.8694 138.11 68.076 137.69 67.5094C137.277 66.9427 136.703 66.6594 135.97 66.6594C135.237 66.6594 134.66 66.946 134.24 67.5194C133.827 68.086 133.62 68.8794 133.62 69.8994C133.62 70.906 133.827 71.6927 134.24 72.2594C134.66 72.826 135.237 73.1094 135.97 73.1094Z" fill="white"/>
<path d="M143.193 74.9994V64.7794H145.433V65.9594C145.633 65.5194 145.933 65.1727 146.333 64.9194C146.74 64.666 147.187 64.5394 147.673 64.5394C148.36 64.5394 148.94 64.7627 149.413 65.2094L149.103 67.2794C148.85 67.0794 148.597 66.936 148.343 66.8494C148.09 66.7627 147.81 66.7194 147.503 66.7194C147.077 66.7194 146.71 66.826 146.403 67.0394C146.097 67.2527 145.857 67.556 145.683 67.9494C145.517 68.3427 145.433 68.8094 145.433 69.3494V74.9994H143.193Z" fill="white"/>
<path d="M154.215 75.2394C153.095 75.2394 152.215 74.936 151.575 74.3294C150.935 73.7227 150.615 72.8994 150.615 71.8594C150.615 71.1794 150.778 70.5894 151.105 70.0894C151.431 69.5827 151.891 69.1927 152.485 68.9194C153.078 68.6394 153.771 68.4994 154.565 68.4994C155.031 68.4994 155.475 68.546 155.895 68.6394C156.321 68.726 156.701 68.8594 157.035 69.0394V68.3794C157.035 67.726 156.868 67.2427 156.535 66.9294C156.201 66.6094 155.698 66.4494 155.025 66.4494C154.531 66.4494 154.021 66.5394 153.495 66.7194C152.968 66.8994 152.451 67.1594 151.945 67.4994L151.275 65.7094C151.835 65.336 152.465 65.0494 153.165 64.8494C153.865 64.6427 154.568 64.5394 155.275 64.5394C156.588 64.5394 157.571 64.8594 158.225 65.4994C158.885 66.1327 159.215 67.086 159.215 68.3594V74.9994H157.035V74.1394C156.675 74.4927 156.251 74.766 155.765 74.9594C155.278 75.146 154.761 75.2394 154.215 75.2394ZM154.675 73.3294C155.108 73.3294 155.528 73.236 155.935 73.0494C156.348 72.8627 156.715 72.596 157.035 72.2494V70.8594C156.735 70.6927 156.395 70.566 156.015 70.4794C155.641 70.386 155.275 70.3394 154.915 70.3394C154.248 70.3394 153.725 70.476 153.345 70.7494C152.965 71.016 152.775 71.386 152.775 71.8594C152.775 72.3127 152.941 72.6727 153.275 72.9394C153.608 73.1994 154.075 73.3294 154.675 73.3294Z" fill="white"/>
<path d="M171.004 75.2394C169.691 75.2394 168.661 74.7627 167.914 73.8094C167.168 72.856 166.794 71.546 166.794 69.8794C166.794 68.806 166.968 67.8694 167.314 67.0694C167.668 66.2627 168.158 65.6394 168.784 65.1994C169.418 64.7594 170.161 64.5394 171.014 64.5394C171.961 64.5394 172.744 64.866 173.364 65.5194V61.5894L175.614 60.5594V74.9994H173.364V74.1794C172.818 74.886 172.031 75.2394 171.004 75.2394ZM171.354 73.1094C171.801 73.1094 172.191 73.0194 172.524 72.8394C172.864 72.6594 173.144 72.396 173.364 72.0494V67.6994C173.144 67.3794 172.854 67.126 172.494 66.9394C172.141 66.7527 171.761 66.6594 171.354 66.6594C170.621 66.6594 170.051 66.936 169.644 67.4894C169.244 68.0427 169.044 68.8394 169.044 69.8794C169.044 70.546 169.138 71.1194 169.324 71.5994C169.511 72.0794 169.778 72.4527 170.124 72.7194C170.471 72.9794 170.881 73.1094 171.354 73.1094Z" fill="white"/>
<path d="M183.06 75.2394C182.093 75.2394 181.26 75.016 180.56 74.5694C179.86 74.1227 179.323 73.4994 178.95 72.6994C178.576 71.8927 178.39 70.9527 178.39 69.8794C178.39 68.766 178.583 67.8127 178.97 67.0194C179.356 66.2194 179.9 65.606 180.6 65.1794C181.3 64.7527 182.12 64.5394 183.06 64.5394C183.866 64.5394 184.6 64.7127 185.26 65.0594C185.926 65.406 186.456 65.9394 186.85 66.6594C187.243 67.3727 187.44 68.2827 187.44 69.3894C187.44 69.5627 187.436 69.7694 187.43 70.0094C187.423 70.2427 187.403 70.4794 187.37 70.7194H180.62C180.66 71.2394 180.783 71.6927 180.99 72.0794C181.203 72.466 181.486 72.7694 181.84 72.9894C182.193 73.2027 182.61 73.3094 183.09 73.3094C183.556 73.3094 183.97 73.2327 184.33 73.0794C184.69 72.9194 185.033 72.666 185.36 72.3194L186.66 73.6894C186.24 74.1494 185.726 74.5227 185.12 74.8094C184.52 75.096 183.833 75.2394 183.06 75.2394ZM180.63 68.9094H185.24C185.22 68.4227 185.12 67.996 184.94 67.6294C184.766 67.2627 184.52 66.9794 184.2 66.7794C183.88 66.5727 183.49 66.4694 183.03 66.4694C182.39 66.4694 181.843 66.6694 181.39 67.0694C180.943 67.4694 180.69 68.0827 180.63 68.9094Z" fill="white"/>
<path d="M195.268 74.9994V61.5894L197.508 60.5594V74.9994H195.268Z" fill="white"/>
<path d="M203.943 75.2394C202.823 75.2394 201.943 74.936 201.303 74.3294C200.663 73.7227 200.343 72.8994 200.343 71.8594C200.343 71.1794 200.506 70.5894 200.833 70.0894C201.159 69.5827 201.619 69.1927 202.213 68.9194C202.806 68.6394 203.499 68.4994 204.293 68.4994C204.759 68.4994 205.203 68.546 205.623 68.6394C206.049 68.726 206.429 68.8594 206.763 69.0394V68.3794C206.763 67.726 206.596 67.2427 206.263 66.9294C205.929 66.6094 205.426 66.4494 204.753 66.4494C204.259 66.4494 203.749 66.5394 203.223 66.7194C202.696 66.8994 202.179 67.1594 201.673 67.4994L201.003 65.7094C201.563 65.336 202.193 65.0494 202.893 64.8494C203.593 64.6427 204.296 64.5394 205.003 64.5394C206.316 64.5394 207.299 64.8594 207.953 65.4994C208.613 66.1327 208.943 67.086 208.943 68.3594V74.9994H206.763V74.1394C206.403 74.4927 205.979 74.766 205.493 74.9594C205.006 75.146 204.489 75.2394 203.943 75.2394ZM204.403 73.3294C204.836 73.3294 205.256 73.236 205.663 73.0494C206.076 72.8627 206.443 72.596 206.763 72.2494V70.8594C206.463 70.6927 206.123 70.566 205.743 70.4794C205.369 70.386 205.003 70.3394 204.643 70.3394C203.976 70.3394 203.453 70.476 203.073 70.7494C202.693 71.016 202.503 71.386 202.503 71.8594C202.503 72.3127 202.669 72.6727 203.003 72.9394C203.336 73.1994 203.803 73.3294 204.403 73.3294Z" fill="white"/>
<path d="M97.8558 99.2394C96.8891 99.2394 96.0558 99.016 95.3558 98.5694C94.6558 98.1227 94.1191 97.4994 93.7458 96.6994C93.3724 95.8927 93.1858 94.9527 93.1858 93.8794C93.1858 92.766 93.3791 91.8127 93.7658 91.0194C94.1524 90.2194 94.6958 89.606 95.3958 89.1794C96.0958 88.7527 96.9158 88.5394 97.8558 88.5394C98.6624 88.5394 99.3958 88.7127 100.056 89.0594C100.722 89.406 101.252 89.9394 101.646 90.6594C102.039 91.3727 102.236 92.2827 102.236 93.3894C102.236 93.5627 102.232 93.7694 102.226 94.0094C102.219 94.2427 102.199 94.4794 102.166 94.7194H95.4158C95.4558 95.2394 95.5791 95.6927 95.7858 96.0794C95.9991 96.466 96.2824 96.7694 96.6358 96.9894C96.9891 97.2027 97.4058 97.3094 97.8858 97.3094C98.3524 97.3094 98.7658 97.2327 99.1258 97.0794C99.4858 96.9194 99.8291 96.666 100.156 96.3194L101.456 97.6894C101.036 98.1494 100.522 98.5227 99.9158 98.8094C99.3158 99.096 98.6291 99.2394 97.8558 99.2394ZM95.4258 92.9094H100.036C100.016 92.4227 99.9158 91.996 99.7358 91.6294C99.5624 91.2627 99.3158 90.9794 98.9958 90.7794C98.6758 90.5727 98.2858 90.4694 97.8258 90.4694C97.1858 90.4694 96.6391 90.6694 96.1858 91.0694C95.7391 91.4694 95.4858 92.0827 95.4258 92.9094Z" fill="white"/>
<path d="M105.009 98.9994V88.7794H107.249V89.7294C107.569 89.3294 107.942 89.0327 108.369 88.8394C108.796 88.6394 109.276 88.5394 109.809 88.5394C110.409 88.5394 110.936 88.666 111.389 88.9194C111.842 89.166 112.192 89.5294 112.439 90.0094C112.766 89.536 113.192 89.1727 113.719 88.9194C114.252 88.666 114.846 88.5394 115.499 88.5394C116.699 88.5394 117.622 88.8794 118.269 89.5594C118.916 90.2327 119.239 91.2027 119.239 92.4694V98.9994H116.989V93.2094C116.989 92.356 116.836 91.7194 116.529 91.2994C116.229 90.8727 115.776 90.6594 115.169 90.6594C114.756 90.6594 114.402 90.756 114.109 90.9494C113.822 91.1427 113.606 91.4294 113.459 91.8094C113.312 92.1894 113.239 92.6527 113.239 93.1994V98.9994H110.989V93.2094C110.989 92.3427 110.839 91.7027 110.539 91.2894C110.246 90.8694 109.792 90.6594 109.179 90.6594C108.546 90.6594 108.066 90.8694 107.739 91.2894C107.412 91.7094 107.249 92.3327 107.249 93.1594V98.9994H105.009Z" fill="white"/>
<path d="M122.64 103.059V88.7794H124.88V89.5694C125.5 88.8827 126.29 88.5394 127.25 88.5394C128.123 88.5394 128.873 88.756 129.5 89.1894C130.133 89.6227 130.62 90.2394 130.96 91.0394C131.306 91.8394 131.48 92.7894 131.48 93.8894C131.48 94.9694 131.303 95.9094 130.95 96.7094C130.596 97.5094 130.103 98.1327 129.47 98.5794C128.836 99.0194 128.093 99.2394 127.24 99.2394C126.74 99.2394 126.293 99.1527 125.9 98.9794C125.513 98.7994 125.173 98.5294 124.88 98.1694V102.029L122.64 103.059ZM126.91 97.1094C127.65 97.1094 128.216 96.8294 128.61 96.2694C129.01 95.7094 129.21 94.916 129.21 93.8894C129.21 92.876 129.006 92.086 128.6 91.5194C128.193 90.946 127.63 90.6594 126.91 90.6594C126.47 90.6594 126.08 90.7494 125.74 90.9294C125.4 91.1094 125.113 91.3694 124.88 91.7094V96.0394C125.113 96.3794 125.406 96.6427 125.76 96.8294C126.113 97.016 126.496 97.1094 126.91 97.1094Z" fill="white"/>
<path d="M134.118 98.9994V88.7794H136.358V89.9594C136.558 89.5194 136.858 89.1727 137.258 88.9194C137.664 88.666 138.111 88.5394 138.598 88.5394C139.284 88.5394 139.864 88.7627 140.338 89.2094L140.028 91.2794C139.774 91.0794 139.521 90.936 139.268 90.8494C139.014 90.7627 138.734 90.7194 138.428 90.7194C138.001 90.7194 137.634 90.826 137.328 91.0394C137.021 91.2527 136.781 91.556 136.608 91.9494C136.441 92.3427 136.358 92.8094 136.358 93.3494V98.9994H134.118Z" fill="white"/>
<path d="M146.014 99.2394C145.048 99.2394 144.214 99.016 143.514 98.5694C142.814 98.1227 142.278 97.4994 141.904 96.6994C141.531 95.8927 141.344 94.9527 141.344 93.8794C141.344 92.766 141.538 91.8127 141.924 91.0194C142.311 90.2194 142.854 89.606 143.554 89.1794C144.254 88.7527 145.074 88.5394 146.014 88.5394C146.821 88.5394 147.554 88.7127 148.214 89.0594C148.881 89.406 149.411 89.9394 149.804 90.6594C150.198 91.3727 150.394 92.2827 150.394 93.3894C150.394 93.5627 150.391 93.7694 150.384 94.0094C150.378 94.2427 150.358 94.4794 150.324 94.7194H143.574C143.614 95.2394 143.738 95.6927 143.944 96.0794C144.158 96.466 144.441 96.7694 144.794 96.9894C145.148 97.2027 145.564 97.3094 146.044 97.3094C146.511 97.3094 146.924 97.2327 147.284 97.0794C147.644 96.9194 147.988 96.666 148.314 96.3194L149.614 97.6894C149.194 98.1494 148.681 98.5227 148.074 98.8094C147.474 99.096 146.788 99.2394 146.014 99.2394ZM143.584 92.9094H148.194C148.174 92.4227 148.074 91.996 147.894 91.6294C147.721 91.2627 147.474 90.9794 147.154 90.7794C146.834 90.5727 146.444 90.4694 145.984 90.4694C145.344 90.4694 144.798 90.6694 144.344 91.0694C143.898 91.4694 143.644 92.0827 143.584 92.9094Z" fill="white"/>
<path d="M156.095 99.2394C155.328 99.2394 154.591 99.076 153.885 98.7494C153.178 98.416 152.611 97.9727 152.185 97.4194L153.685 96.1394C154.038 96.506 154.435 96.796 154.875 97.0094C155.315 97.2227 155.745 97.3294 156.165 97.3294C156.698 97.3294 157.111 97.236 157.405 97.0494C157.698 96.856 157.845 96.586 157.845 96.2394C157.845 96.026 157.778 95.8327 157.645 95.6594C157.511 95.4794 157.278 95.3027 156.945 95.1294C156.611 94.956 156.151 94.7594 155.565 94.5394C154.418 94.1194 153.605 93.666 153.125 93.1794C152.645 92.686 152.405 92.0694 152.405 91.3294C152.405 90.496 152.738 89.8227 153.405 89.3094C154.071 88.796 154.938 88.5394 156.005 88.5394C156.731 88.5394 157.401 88.6794 158.015 88.9594C158.635 89.2327 159.168 89.6294 159.615 90.1494L158.125 91.3794C157.518 90.7594 156.798 90.4494 155.965 90.4494C155.518 90.4494 155.161 90.536 154.895 90.7094C154.628 90.876 154.495 91.0994 154.495 91.3794C154.495 91.6594 154.648 91.9094 154.955 92.1294C155.268 92.3427 155.841 92.5927 156.675 92.8794C157.435 93.1327 158.055 93.416 158.535 93.7294C159.021 94.0427 159.375 94.4027 159.595 94.8094C159.821 95.216 159.935 95.686 159.935 96.2194C159.935 97.1594 159.591 97.8994 158.905 98.4394C158.225 98.9727 157.288 99.2394 156.095 99.2394Z" fill="white"/>
<path d="M165.517 99.2394C164.397 99.2394 163.517 98.936 162.877 98.3294C162.237 97.7227 161.917 96.8994 161.917 95.8594C161.917 95.1794 162.08 94.5894 162.407 94.0894C162.734 93.5827 163.194 93.1927 163.787 92.9194C164.38 92.6394 165.074 92.4994 165.867 92.4994C166.334 92.4994 166.777 92.546 167.197 92.6394C167.624 92.726 168.004 92.8594 168.337 93.0394V92.3794C168.337 91.726 168.17 91.2427 167.837 90.9294C167.504 90.6094 167 90.4494 166.327 90.4494C165.834 90.4494 165.324 90.5394 164.797 90.7194C164.27 90.8994 163.754 91.1594 163.247 91.4994L162.577 89.7094C163.137 89.336 163.767 89.0494 164.467 88.8494C165.167 88.6427 165.87 88.5394 166.577 88.5394C167.89 88.5394 168.874 88.8594 169.527 89.4994C170.187 90.1327 170.517 91.086 170.517 92.3594V98.9994H168.337V98.1394C167.977 98.4927 167.554 98.766 167.067 98.9594C166.58 99.146 166.064 99.2394 165.517 99.2394ZM165.977 97.3294C166.41 97.3294 166.83 97.236 167.237 97.0494C167.65 96.8627 168.017 96.596 168.337 96.2494V94.8594C168.037 94.6927 167.697 94.566 167.317 94.4794C166.944 94.386 166.577 94.3394 166.217 94.3394C165.55 94.3394 165.027 94.476 164.647 94.7494C164.267 95.016 164.077 95.386 164.077 95.8594C164.077 96.3127 164.244 96.6727 164.577 96.9394C164.91 97.1994 165.377 97.3294 165.977 97.3294Z" fill="white"/>
</svg>
