<svg width="264" height="130" viewBox="0 0 264 130" fill="none" xmlns="http://www.w3.org/2000/svg">
<path d="M0 11C0 4.92487 4.92487 0 11 0H253C259.075 0 264 4.92487 264 11V119C264 125.075 259.075 130 253 130H11C4.92487 130 0 125.075 0 119V11Z" fill="#C1272D"/>
<path d="M56.001 69.0005V55.0005H58.311V66.7705H65.121V69.0005H56.001Z" fill="white"/>
<path d="M71.32 69.2405C69.8934 69.2405 68.77 68.7639 67.95 67.8105C67.13 66.8572 66.72 65.5539 66.72 63.9005C66.72 62.8005 66.9067 61.8505 67.28 61.0505C67.6534 60.2505 68.1834 59.6339 68.87 59.2005C69.5634 58.7605 70.38 58.5405 71.32 58.5405C72.2667 58.5405 73.0834 58.7572 73.77 59.1905C74.4567 59.6239 74.9867 60.2405 75.36 61.0405C75.7334 61.8405 75.92 62.7905 75.92 63.8905C75.92 64.9905 75.7334 65.9405 75.36 66.7405C74.9867 67.5405 74.4567 68.1572 73.77 68.5905C73.0834 69.0239 72.2667 69.2405 71.32 69.2405ZM71.32 67.1105C72.06 67.1105 72.6367 66.8272 73.05 66.2605C73.4634 65.6939 73.67 64.9039 73.67 63.8905C73.67 62.8705 73.46 62.0772 73.04 61.5105C72.6267 60.9439 72.0534 60.6605 71.32 60.6605C70.5867 60.6605 70.01 60.9472 69.59 61.5205C69.1767 62.0872 68.97 62.8805 68.97 63.9005C68.97 64.9072 69.1767 65.6939 69.59 66.2605C70.01 66.8272 70.5867 67.1105 71.32 67.1105Z" fill="white"/>
<path d="M81.7243 69.2405C80.9576 69.2405 80.2209 69.0772 79.5143 68.7505C78.8076 68.4172 78.2409 67.9739 77.8143 67.4205L79.3143 66.1405C79.6676 66.5072 80.0643 66.7972 80.5043 67.0105C80.9443 67.2239 81.3743 67.3305 81.7943 67.3305C82.3276 67.3305 82.7409 67.2372 83.0343 67.0505C83.3276 66.8572 83.4743 66.5872 83.4743 66.2405C83.4743 66.0272 83.4076 65.8339 83.2743 65.6605C83.1409 65.4805 82.9076 65.3039 82.5743 65.1305C82.2409 64.9572 81.7809 64.7605 81.1943 64.5405C80.0476 64.1205 79.2343 63.6672 78.7543 63.1805C78.2743 62.6872 78.0343 62.0705 78.0343 61.3305C78.0343 60.4972 78.3676 59.8239 79.0343 59.3105C79.7009 58.7972 80.5676 58.5405 81.6343 58.5405C82.3609 58.5405 83.0309 58.6805 83.6443 58.9605C84.2643 59.2339 84.7976 59.6305 85.2443 60.1505L83.7543 61.3805C83.1476 60.7605 82.4276 60.4505 81.5943 60.4505C81.1476 60.4505 80.7909 60.5372 80.5243 60.7105C80.2576 60.8772 80.1243 61.1005 80.1243 61.3805C80.1243 61.6605 80.2776 61.9105 80.5843 62.1305C80.8976 62.3439 81.4709 62.5939 82.3043 62.8805C83.0643 63.1339 83.6843 63.4172 84.1643 63.7305C84.6509 64.0439 85.0043 64.4039 85.2243 64.8105C85.4509 65.2172 85.5643 65.6872 85.5643 66.2205C85.5643 67.1605 85.2209 67.9005 84.5343 68.4405C83.8543 68.9739 82.9176 69.2405 81.7243 69.2405Z" fill="white"/>
<path d="M97.3041 69.2405C96.3774 69.2405 95.5808 69.0272 94.9141 68.6005C94.2474 68.1672 93.7341 67.5505 93.3741 66.7505C93.0141 65.9505 92.8341 65.0005 92.8341 63.9005C92.8341 62.8005 93.0174 61.8505 93.3841 61.0505C93.7508 60.2439 94.2708 59.6239 94.9441 59.1905C95.6174 58.7572 96.4208 58.5405 97.3541 58.5405C98.3474 58.5405 99.1808 58.7739 99.8541 59.2405C100.527 59.7005 101.017 60.3772 101.324 61.2705L99.1941 62.0105C99.0274 61.5772 98.7874 61.2439 98.4741 61.0105C98.1674 60.7772 97.8008 60.6605 97.3741 60.6605C96.6674 60.6605 96.1141 60.9472 95.7141 61.5205C95.3141 62.0939 95.1141 62.8872 95.1141 63.9005C95.1141 64.9005 95.3108 65.6839 95.7041 66.2505C96.0974 66.8172 96.6374 67.1005 97.3241 67.1005C97.7908 67.1005 98.1908 66.9739 98.5241 66.7205C98.8574 66.4605 99.1008 66.0905 99.2541 65.6105L101.374 66.2605C101.087 67.2339 100.594 67.9739 99.8941 68.4805C99.2008 68.9872 98.3374 69.2405 97.3041 69.2405Z" fill="white"/>
<path d="M108.151 69.2405C106.724 69.2405 105.601 68.7639 104.781 67.8105C103.961 66.8572 103.551 65.5539 103.551 63.9005C103.551 62.8005 103.737 61.8505 104.111 61.0505C104.484 60.2505 105.014 59.6339 105.701 59.2005C106.394 58.7605 107.211 58.5405 108.151 58.5405C109.097 58.5405 109.914 58.7572 110.601 59.1905C111.287 59.6239 111.817 60.2405 112.191 61.0405C112.564 61.8405 112.751 62.7905 112.751 63.8905C112.751 64.9905 112.564 65.9405 112.191 66.7405C111.817 67.5405 111.287 68.1572 110.601 68.5905C109.914 69.0239 109.097 69.2405 108.151 69.2405ZM108.151 67.1105C108.891 67.1105 109.467 66.8272 109.881 66.2605C110.294 65.6939 110.501 64.9039 110.501 63.8905C110.501 62.8705 110.291 62.0772 109.871 61.5105C109.457 60.9439 108.884 60.6605 108.151 60.6605C107.417 60.6605 106.841 60.9472 106.421 61.5205C106.007 62.0872 105.801 62.8805 105.801 63.9005C105.801 64.9072 106.007 65.6939 106.421 66.2605C106.841 66.8272 107.417 67.1105 108.151 67.1105Z" fill="white"/>
<path d="M115.63 69.0005V55.5905L117.87 54.5605V69.0005H115.63Z" fill="white"/>
<path d="M125.345 69.2405C123.918 69.2405 122.795 68.7639 121.975 67.8105C121.155 66.8572 120.745 65.5539 120.745 63.9005C120.745 62.8005 120.932 61.8505 121.305 61.0505C121.678 60.2505 122.208 59.6339 122.895 59.2005C123.588 58.7605 124.405 58.5405 125.345 58.5405C126.292 58.5405 127.108 58.7572 127.795 59.1905C128.482 59.6239 129.012 60.2405 129.385 61.0405C129.758 61.8405 129.945 62.7905 129.945 63.8905C129.945 64.9905 129.758 65.9405 129.385 66.7405C129.012 67.5405 128.482 68.1572 127.795 68.5905C127.108 69.0239 126.292 69.2405 125.345 69.2405ZM125.345 67.1105C126.085 67.1105 126.662 66.8272 127.075 66.2605C127.488 65.6939 127.695 64.9039 127.695 63.8905C127.695 62.8705 127.485 62.0772 127.065 61.5105C126.652 60.9439 126.078 60.6605 125.345 60.6605C124.612 60.6605 124.035 60.9472 123.615 61.5205C123.202 62.0872 122.995 62.8805 122.995 63.9005C122.995 64.9072 123.202 65.6939 123.615 66.2605C124.035 66.8272 124.612 67.1105 125.345 67.1105Z" fill="white"/>
<path d="M132.568 69.0005V58.7805H134.808V59.7305C135.128 59.3305 135.502 59.0339 135.928 58.8405C136.355 58.6405 136.835 58.5405 137.368 58.5405C137.968 58.5405 138.495 58.6672 138.948 58.9205C139.402 59.1672 139.752 59.5305 139.998 60.0105C140.325 59.5372 140.752 59.1739 141.278 58.9205C141.812 58.6672 142.405 58.5405 143.058 58.5405C144.258 58.5405 145.182 58.8805 145.828 59.5605C146.475 60.2339 146.798 61.2039 146.798 62.4705V69.0005H144.548V63.2105C144.548 62.3572 144.395 61.7205 144.088 61.3005C143.788 60.8739 143.335 60.6605 142.728 60.6605C142.315 60.6605 141.962 60.7572 141.668 60.9505C141.382 61.1439 141.165 61.4305 141.018 61.8105C140.872 62.1905 140.798 62.6539 140.798 63.2005V69.0005H138.548V63.2105C138.548 62.3439 138.398 61.7039 138.098 61.2905C137.805 60.8705 137.352 60.6605 136.738 60.6605C136.105 60.6605 135.625 60.8705 135.298 61.2905C134.972 61.7105 134.808 62.3339 134.808 63.1605V69.0005H132.568Z" fill="white"/>
<path d="M154.583 69.2405C154.103 69.2405 153.679 69.1539 153.313 68.9805C152.953 68.8072 152.609 68.5339 152.283 68.1605V69.0005H150.043V55.5905L152.283 54.5605V59.6005C152.563 59.2605 152.903 59.0005 153.303 58.8205C153.709 58.6339 154.149 58.5405 154.623 58.5405C155.469 58.5405 156.209 58.7639 156.843 59.2105C157.483 59.6505 157.979 60.2705 158.333 61.0705C158.686 61.8705 158.863 62.8072 158.863 63.8805C158.863 65.5739 158.486 66.8905 157.733 67.8305C156.979 68.7705 155.929 69.2405 154.583 69.2405ZM154.303 67.1105C155.036 67.1105 155.599 66.8305 155.993 66.2705C156.393 65.7105 156.593 64.9139 156.593 63.8805C156.593 62.8339 156.396 62.0372 156.003 61.4905C155.609 60.9372 155.043 60.6605 154.303 60.6605C153.896 60.6605 153.506 60.7605 153.133 60.9605C152.766 61.1539 152.483 61.4072 152.283 61.7205V66.0505C152.503 66.3839 152.783 66.6439 153.123 66.8305C153.463 67.0172 153.856 67.1105 154.303 67.1105Z" fill="white"/>
<path d="M161.658 69.0005V58.7805H163.898V69.0005H161.658ZM162.768 57.3005C162.401 57.3005 162.088 57.1705 161.828 56.9105C161.568 56.6505 161.438 56.3372 161.438 55.9705C161.438 55.5972 161.565 55.2805 161.818 55.0205C162.078 54.7539 162.395 54.6205 162.768 54.6205C163.155 54.6205 163.475 54.7505 163.728 55.0105C163.988 55.2705 164.118 55.5905 164.118 55.9705C164.118 56.3439 163.988 56.6605 163.728 56.9205C163.468 57.1739 163.148 57.3005 162.768 57.3005Z" fill="white"/>
<path d="M170.257 69.2405C169.137 69.2405 168.257 68.9372 167.617 68.3305C166.977 67.7239 166.657 66.9005 166.657 65.8605C166.657 65.1805 166.82 64.5905 167.147 64.0905C167.473 63.5839 167.933 63.1939 168.527 62.9205C169.12 62.6405 169.813 62.5005 170.607 62.5005C171.073 62.5005 171.517 62.5472 171.937 62.6405C172.363 62.7272 172.743 62.8605 173.077 63.0405V62.3805C173.077 61.7272 172.91 61.2439 172.577 60.9305C172.243 60.6105 171.74 60.4505 171.067 60.4505C170.573 60.4505 170.063 60.5405 169.537 60.7205C169.01 60.9005 168.493 61.1605 167.987 61.5005L167.317 59.7105C167.877 59.3372 168.507 59.0505 169.207 58.8505C169.907 58.6439 170.61 58.5405 171.317 58.5405C172.63 58.5405 173.613 58.8605 174.267 59.5005C174.927 60.1339 175.257 61.0872 175.257 62.3605V69.0005H173.077V68.1405C172.717 68.4939 172.293 68.7672 171.807 68.9605C171.32 69.1472 170.803 69.2405 170.257 69.2405ZM170.717 67.3305C171.15 67.3305 171.57 67.2372 171.977 67.0505C172.39 66.8639 172.757 66.5972 173.077 66.2505V64.8605C172.777 64.6939 172.437 64.5672 172.057 64.4805C171.683 64.3872 171.317 64.3405 170.957 64.3405C170.29 64.3405 169.767 64.4772 169.387 64.7505C169.007 65.0172 168.817 65.3872 168.817 65.8605C168.817 66.3139 168.983 66.6739 169.317 66.9405C169.65 67.2005 170.117 67.3305 170.717 67.3305Z" fill="white"/>
<path d="M178.5 69.0005V58.7805H180.74V59.7805C181.06 59.3605 181.444 59.0505 181.89 58.8505C182.344 58.6439 182.86 58.5405 183.44 58.5405C184.62 58.5405 185.517 58.9005 186.13 59.6205C186.744 60.3405 187.05 61.3972 187.05 62.7905V69.0005H184.8V63.2005C184.8 62.3472 184.637 61.7105 184.31 61.2905C183.99 60.8705 183.504 60.6605 182.85 60.6605C182.144 60.6605 181.614 60.8672 181.26 61.2805C180.914 61.6939 180.74 62.3205 180.74 63.1605V69.0005H178.5Z" fill="white"/>
<path d="M194.487 69.2405C193.061 69.2405 191.937 68.7639 191.117 67.8105C190.297 66.8572 189.887 65.5539 189.887 63.9005C189.887 62.8005 190.074 61.8505 190.447 61.0505C190.821 60.2505 191.351 59.6339 192.037 59.2005C192.731 58.7605 193.547 58.5405 194.487 58.5405C195.434 58.5405 196.251 58.7572 196.937 59.1905C197.624 59.6239 198.154 60.2405 198.527 61.0405C198.901 61.8405 199.087 62.7905 199.087 63.8905C199.087 64.9905 198.901 65.9405 198.527 66.7405C198.154 67.5405 197.624 68.1572 196.937 68.5905C196.251 69.0239 195.434 69.2405 194.487 69.2405ZM194.487 67.1105C195.227 67.1105 195.804 66.8272 196.217 66.2605C196.631 65.6939 196.837 64.9039 196.837 63.8905C196.837 62.8705 196.627 62.0772 196.207 61.5105C195.794 60.9439 195.221 60.6605 194.487 60.6605C193.754 60.6605 193.177 60.9472 192.757 61.5205C192.344 62.0872 192.137 62.8805 192.137 63.9005C192.137 64.9072 192.344 65.6939 192.757 66.2605C193.177 66.8272 193.754 67.1105 194.487 67.1105Z" fill="white"/>
<path d="M204.891 69.2405C204.125 69.2405 203.388 69.0772 202.681 68.7505C201.975 68.4172 201.408 67.9739 200.981 67.4205L202.481 66.1405C202.835 66.5072 203.231 66.7972 203.671 67.0105C204.111 67.2239 204.541 67.3305 204.961 67.3305C205.495 67.3305 205.908 67.2372 206.201 67.0505C206.495 66.8572 206.641 66.5872 206.641 66.2405C206.641 66.0272 206.575 65.8339 206.441 65.6605C206.308 65.4805 206.075 65.3039 205.741 65.1305C205.408 64.9572 204.948 64.7605 204.361 64.5405C203.215 64.1205 202.401 63.6672 201.921 63.1805C201.441 62.6872 201.201 62.0705 201.201 61.3305C201.201 60.4972 201.535 59.8239 202.201 59.3105C202.868 58.7972 203.735 58.5405 204.801 58.5405C205.528 58.5405 206.198 58.6805 206.811 58.9605C207.431 59.2339 207.965 59.6305 208.411 60.1505L206.921 61.3805C206.315 60.7605 205.595 60.4505 204.761 60.4505C204.315 60.4505 203.958 60.5372 203.691 60.7105C203.425 60.8772 203.291 61.1005 203.291 61.3805C203.291 61.6605 203.445 61.9105 203.751 62.1305C204.065 62.3439 204.638 62.5939 205.471 62.8805C206.231 63.1339 206.851 63.4172 207.331 63.7305C207.818 64.0439 208.171 64.4039 208.391 64.8105C208.618 65.2172 208.731 65.6872 208.731 66.2205C208.731 67.1605 208.388 67.9005 207.701 68.4405C207.021 68.9739 206.085 69.2405 204.891 69.2405Z" fill="white"/>
</svg>
