<svg width="552" height="416" viewBox="0 0 552 416" fill="none" xmlns="http://www.w3.org/2000/svg">
<path d="M451.439 165.551L425.944 193.85L411.781 155.646L197.911 145.742L171 0L552 42.449L522.257 208L451.439 165.551Z" fill="#C1272D"/>
<path d="M100.561 373.551L126.056 401.85L140.219 363.646L354.089 353.742L381 208L0 250.449L29.7435 416L100.561 373.551Z" fill="#009245"/>
<path d="M386.5 357.082C375.23 357.082 366.083 366.229 366.083 377.499C366.083 388.769 375.23 397.915 386.5 397.915C397.77 397.915 406.917 388.769 406.917 377.499C406.917 366.229 397.77 357.082 386.5 357.082ZM380.967 386.257L373.638 378.928C372.841 378.132 372.841 376.845 373.638 376.049C374.434 375.253 375.72 375.253 376.516 376.049L382.417 381.929L396.463 367.882C397.26 367.086 398.546 367.086 399.342 367.882C400.138 368.679 400.138 369.965 399.342 370.761L383.846 386.257C383.07 387.054 381.763 387.054 380.967 386.257Z" fill="#009245"/>
<path d="M148 147.219L171.852 123.367L177.151 128.666L153.3 152.518L148 147.219Z" fill="#C1272D"/>
<path d="M153.165 123.5L177.016 147.352L171.987 152.381L148.135 128.53L153.165 123.5Z" fill="#C1272D"/>
<path d="M240.965 44.2312L247.185 44.4123L246.645 62.9344L256.739 63.2284L256.585 68.5302L240.272 68.0551L240.965 44.2312Z" fill="white"/>
<path d="M268.494 50.2711C270.487 50.3292 272.232 50.7768 273.727 51.6141C275.222 52.4286 276.368 53.5618 277.165 55.0136C277.963 56.4428 278.334 58.0863 278.28 59.9442C278.225 61.8247 277.758 63.4664 276.878 64.8694C275.999 66.2497 274.789 67.3143 273.248 68.0631C271.707 68.7892 269.94 69.1232 267.946 69.0652C265.952 69.0071 264.208 68.5708 262.712 67.7562C261.217 66.919 260.071 65.7858 259.274 64.3567C258.499 62.9055 258.14 61.2397 258.195 59.3592C258.249 57.5013 258.704 55.8818 259.561 54.5009C260.44 53.0979 261.651 52.0333 263.191 51.3072C264.732 50.5584 266.5 50.2131 268.494 50.2711ZM268.351 55.1651C267.173 55.1307 266.209 55.5222 265.46 56.3394C264.71 57.1566 264.316 58.2449 264.276 59.6043C264.236 60.9864 264.566 62.1071 265.267 62.9666C265.967 63.826 266.907 64.2729 268.085 64.3072C269.286 64.3422 270.261 63.9511 271.01 63.1339C271.76 62.3167 272.154 61.217 272.195 59.8349C272.234 58.4755 271.892 57.3658 271.169 56.5057C270.469 55.6462 269.529 55.1994 268.351 55.1651Z" fill="white"/>
<path d="M293.729 57.0267C291.386 55.7113 289.456 55.0314 287.938 54.9872C287.417 54.972 286.995 55.0618 286.672 55.2565C286.349 55.4285 286.182 55.7071 286.171 56.0922C286.159 56.5001 286.399 56.8359 286.89 57.0996C287.381 57.3634 288.166 57.6583 289.245 57.9846C290.548 58.408 291.625 58.8248 292.474 59.2351C293.347 59.6233 294.09 60.2119 294.702 61.0007C295.315 61.7668 295.603 62.7617 295.567 63.9851C295.513 65.843 294.746 67.2833 293.265 68.3059C291.807 69.3066 289.922 69.7733 287.611 69.706C286.048 69.6604 284.559 69.4016 283.144 68.9296C281.73 68.4349 280.48 67.7408 279.395 66.8475L281.412 62.9946C282.433 63.75 283.504 64.3481 284.625 64.7889C285.77 65.2078 286.852 65.432 287.871 65.4617C288.46 65.4789 288.927 65.4018 289.272 65.2304C289.641 65.0371 289.83 64.7591 289.841 64.3966C289.854 63.9435 289.604 63.5847 289.09 63.3203C288.599 63.0565 287.814 62.7616 286.735 62.4353C285.455 62.0126 284.401 61.6077 283.573 61.2208C282.746 60.8112 282.026 60.2233 281.413 59.4572C280.823 58.6917 280.546 57.7085 280.581 56.5077C280.635 54.6498 281.379 53.2202 282.815 52.2189C284.25 51.1949 286.078 50.7153 288.299 50.7799C289.636 50.8189 290.944 51.0384 292.225 51.4385C293.529 51.8393 294.748 52.4077 295.883 53.1437L293.729 57.0267Z" fill="white"/>
<path d="M251.859 91.8225C249.516 90.507 247.586 89.8272 246.068 89.783C245.546 89.7678 245.124 89.8576 244.801 90.0522C244.479 90.2243 244.312 90.5029 244.301 90.888C244.289 91.2959 244.528 91.6316 245.02 91.8954C245.511 92.1591 246.296 92.4541 247.375 92.7803C248.678 93.2038 249.754 93.6206 250.604 94.0309C251.477 94.4191 252.219 95.0076 252.831 95.7965C253.444 96.5626 253.732 97.5574 253.697 98.7809C253.643 100.639 252.875 102.079 251.394 103.102C249.936 104.102 248.052 104.569 245.741 104.502C244.178 104.456 242.688 104.197 241.274 103.725C239.859 103.231 238.61 102.537 237.525 101.643L239.542 97.7904C240.563 98.5458 241.634 99.1439 242.755 99.5847C243.899 100.004 244.981 100.228 246.001 100.257C246.59 100.275 247.057 100.198 247.402 100.026C247.77 99.8328 247.96 99.5549 247.97 99.1924C247.984 98.7392 247.733 98.3805 247.219 98.1161C246.728 97.8523 245.943 97.5573 244.864 97.2311C243.584 96.8083 242.53 96.4035 241.702 96.0166C240.875 95.607 240.155 95.0191 239.543 94.2529C238.953 93.4874 238.675 92.5043 238.71 91.3035C238.764 89.4456 239.509 88.016 240.944 87.0147C242.38 85.9907 244.208 85.511 246.428 85.5757C247.765 85.6146 249.074 85.8342 250.355 86.2343C251.658 86.6351 252.877 87.2035 254.013 87.9395L251.859 91.8225Z" fill="white"/>
<path d="M265.852 86.2095C267.846 86.2675 269.591 86.7152 271.086 87.5524C272.581 88.367 273.727 89.5001 274.524 90.9519C275.321 92.3811 275.693 94.0246 275.639 95.8825C275.584 97.763 275.117 99.4048 274.237 100.808C273.358 102.188 272.148 103.253 270.606 104.001C269.066 104.728 267.299 105.062 265.305 105.004C263.311 104.945 261.566 104.509 260.071 103.695C258.576 102.857 257.43 101.724 256.632 100.295C255.858 98.8439 255.499 97.178 255.553 95.2975C255.608 93.4396 256.063 91.8202 256.919 90.4392C257.799 89.0362 259.01 87.9717 260.55 87.2455C262.091 86.4968 263.859 86.1514 265.852 86.2095ZM265.71 91.1034C264.532 91.0691 263.568 91.4605 262.818 92.2777C262.069 93.0949 261.674 94.1832 261.635 95.5427C261.595 96.9247 261.925 98.0455 262.625 98.9049C263.326 99.7643 264.265 100.211 265.444 100.246C266.644 100.281 267.62 99.8894 268.369 99.0722C269.118 98.255 269.513 97.1554 269.554 95.7733C269.593 94.4139 269.251 93.3041 268.528 92.444C267.827 91.5846 266.888 91.1377 265.71 91.1034Z" fill="white"/>
<path d="M290.618 86.9308C292.317 86.9803 293.801 87.4203 295.069 88.2509C296.338 89.0589 297.303 90.1981 297.963 91.6686C298.646 93.1171 298.961 94.7816 298.906 96.6622C298.852 98.5201 298.453 100.141 297.71 101.525C296.989 102.91 295.972 103.969 294.658 104.702C293.367 105.435 291.883 105.778 290.206 105.729C289.051 105.695 288.003 105.449 287.064 104.991C286.149 104.511 285.374 103.842 284.742 102.985L284.672 105.363L278.623 105.187L279.357 79.97L285.407 80.1462L285.139 89.3563C286.526 87.6733 288.352 86.8648 290.618 86.9308ZM288.717 100.787C289.895 100.822 290.859 100.43 291.609 99.613C292.381 98.7965 292.787 97.7085 292.826 96.3491C292.866 94.9896 292.524 93.8799 291.801 93.0198C291.101 92.1377 290.162 91.6795 288.984 91.6452C287.828 91.6115 286.875 92.0146 286.125 92.8545C285.376 93.6717 284.981 94.76 284.942 96.1194C284.902 97.4788 285.233 98.5883 285.933 99.4477C286.634 100.307 287.562 100.754 288.717 100.787Z" fill="white"/>
<path d="M308.248 90.7096C308.913 89.6632 309.752 88.8713 310.766 88.3339C311.802 87.7972 312.966 87.5476 314.257 87.5853L314.096 93.1249C313.892 93.0963 313.587 93.0761 313.179 93.0642C311.752 93.0226 310.586 93.3288 309.683 93.9828C308.78 94.6141 308.244 95.5056 308.074 96.6571L307.801 106.037L301.752 105.861L302.287 87.4747L308.337 87.6509L308.248 90.7096Z" fill="white"/>
<path d="M324.985 87.9317C327.976 88.0188 330.25 88.9694 331.807 90.7835C333.364 92.5976 334.098 95.0454 334.008 98.1267C333.994 98.6025 333.972 98.9647 333.942 99.2133L321.164 98.8411C321.428 99.8919 321.914 100.711 322.623 101.299C323.332 101.864 324.208 102.161 325.25 102.191C326.043 102.215 326.807 102.078 327.541 101.782C328.298 101.487 328.991 101.042 329.621 100.448L332.689 103.701C331.707 104.738 330.527 105.52 329.151 106.047C327.799 106.552 326.273 106.779 324.573 106.73C322.602 106.672 320.892 106.237 319.441 105.424C317.991 104.611 316.89 103.49 316.138 102.062C315.408 100.635 315.071 98.9924 315.125 97.1346C315.18 95.254 315.624 93.6116 316.459 92.2073C317.294 90.7804 318.448 89.7028 319.92 88.9747C321.394 88.224 323.082 87.8763 324.985 87.9317ZM328.191 95.8144C328.222 94.7495 327.929 93.8906 327.313 93.2378C326.721 92.5629 325.915 92.2106 324.895 92.1809C323.944 92.1532 323.13 92.447 322.454 93.0622C321.802 93.6781 321.357 94.5269 321.122 95.6085L328.191 95.8144Z" fill="white"/>
<path d="M334.323 88.4078L340.542 88.5889L344.01 101.479L348.257 88.8136L354.306 88.9898L346.872 107.175L340.652 106.994L334.323 88.4078Z" fill="white"/>
<path d="M356.352 89.0494L362.368 89.2246L361.832 107.611L355.817 107.436L356.352 89.0494ZM359.555 80.6731C360.484 80.7001 361.234 81.0281 361.806 81.657C362.4 82.2639 362.684 83.0432 362.656 83.9948C362.629 84.9237 362.301 85.6851 361.671 86.2791C361.064 86.8736 360.296 87.1574 359.367 87.1303C358.438 87.1033 357.677 86.775 357.083 86.1454C356.512 85.5165 356.24 84.7376 356.267 83.8087C356.294 82.8571 356.611 82.0953 357.218 81.5234C357.847 80.9295 358.626 80.646 359.555 80.6731Z" fill="white"/>
<path d="M364.525 89.2874L370.744 89.4686L374.212 102.359L378.459 89.6932L384.508 89.8694L377.074 108.055L370.855 107.874L364.525 89.2874Z" fill="white"/>
<path d="M386.554 89.929L392.57 90.1042L392.034 108.49L386.019 108.315L386.554 89.929ZM389.757 81.5527C390.686 81.5798 391.436 81.9078 392.008 82.5367C392.602 83.1435 392.886 83.9228 392.858 84.8744C392.831 85.8033 392.503 86.5648 391.873 87.1587C391.266 87.7533 390.498 88.037 389.569 88.01C388.64 87.9829 387.879 87.6546 387.285 87.0251C386.714 86.3962 386.442 85.6172 386.469 84.6883C386.496 83.7367 386.813 82.9749 387.42 82.403C388.049 81.8091 388.829 81.5257 389.757 81.5527Z" fill="white"/>
<path d="M405.302 90.271C408.293 90.3581 410.567 91.3087 412.124 93.1228C413.681 94.9369 414.415 97.3846 414.325 100.466C414.312 100.942 414.29 101.304 414.26 101.553L401.481 101.18C401.745 102.231 402.232 103.05 402.94 103.638C403.649 104.203 404.525 104.5 405.567 104.531C406.36 104.554 407.124 104.417 407.858 104.121C408.615 103.826 409.308 103.381 409.938 102.787L413.007 106.04C412.024 107.077 410.845 107.859 409.469 108.386C408.116 108.891 406.59 109.118 404.891 109.069C402.92 109.012 401.209 108.576 399.759 107.763C398.309 106.95 397.207 105.829 396.455 104.401C395.726 102.974 395.388 101.332 395.442 99.4738C395.497 97.5933 395.942 95.9509 396.776 94.5466C397.612 93.1196 398.765 92.0421 400.238 91.314C401.711 90.5632 403.399 90.2155 405.302 90.271ZM408.508 98.1536C408.539 97.0888 408.247 96.2299 407.631 95.577C407.038 94.9021 406.232 94.5499 405.213 94.5202C404.261 94.4924 403.448 94.7862 402.772 95.4015C402.119 96.0174 401.675 96.8662 401.439 97.9478L408.508 98.1536Z" fill="white"/>
<path d="M429.825 90.9512C431.842 91.0099 433.432 91.6912 434.596 92.9949C435.782 94.2994 436.344 96.0278 436.282 98.1802L435.944 109.769L429.929 109.594L430.216 99.7383C430.246 98.6961 429.987 97.8722 429.437 97.2666C428.889 96.6383 428.139 96.3104 427.187 96.2826C426.189 96.2763 425.353 96.5807 424.677 97.196C424.024 97.8119 423.626 98.6393 423.483 99.6782L423.199 109.398L417.15 109.222L417.686 90.8357L423.735 91.0119L423.648 94.0026C424.336 92.9569 425.198 92.177 426.233 91.6629C427.291 91.1495 428.489 90.9123 429.825 90.9512Z" fill="white"/>
<path d="M452.041 109.286C451.35 109.651 450.56 109.934 449.669 110.135C448.78 110.313 447.882 110.389 446.976 110.363C445.163 110.31 443.706 109.746 442.603 108.671C441.523 107.596 441.01 106.141 441.063 104.306L441.293 96.4214L438.744 96.3471L438.861 92.3368L441.41 92.4111L441.558 87.3132L447.574 87.4884L447.425 92.5863L452.183 92.7248L452.067 96.7351L447.309 96.5966L447.107 103.53C447.069 104.821 447.583 105.482 448.648 105.513C449.305 105.532 450.092 105.351 451.01 104.97L452.041 109.286Z" fill="white"/>
<path d="M463.416 91.9635C466.407 92.0507 468.681 93.0013 470.238 94.8154C471.796 96.6295 472.529 99.0772 472.439 102.159C472.426 102.634 472.404 102.997 472.374 103.245L459.595 102.873C459.859 103.924 460.346 104.743 461.054 105.33C461.764 105.895 462.639 106.193 463.681 106.223C464.474 106.246 465.238 106.11 465.972 105.814C466.729 105.518 467.422 105.074 468.052 104.48L471.121 107.733C470.138 108.77 468.959 109.552 467.583 110.079C466.23 110.583 464.704 110.811 463.005 110.762C461.034 110.704 459.323 110.269 457.873 109.456C456.423 108.642 455.321 107.522 454.569 106.094C453.84 104.667 453.502 103.024 453.556 101.166C453.611 99.2859 454.056 97.6434 454.89 96.2391C455.726 94.8122 456.879 93.7347 458.352 93.0066C459.825 92.2558 461.513 91.9081 463.416 91.9635ZM466.622 99.8462C466.653 98.7813 466.361 97.9225 465.745 97.2696C465.152 96.5947 464.346 96.2424 463.327 96.2127C462.375 96.185 461.562 96.4788 460.886 97.0941C460.233 97.71 459.789 98.5587 459.553 99.6403L466.622 99.8462Z" fill="white"/>
<path d="M487.899 98.6972C485.556 97.3817 483.626 96.7019 482.108 96.6577C481.587 96.6425 481.165 96.7323 480.842 96.9269C480.519 97.099 480.352 97.3776 480.341 97.7627C480.329 98.1706 480.569 98.5063 481.06 98.7701C481.551 99.0338 482.336 99.3288 483.415 99.655C484.718 100.078 485.795 100.495 486.644 100.906C487.517 101.294 488.26 101.882 488.872 102.671C489.484 103.437 489.773 104.432 489.737 105.656C489.683 107.514 488.916 108.954 487.435 109.976C485.977 110.977 484.092 111.444 481.781 111.376C480.218 111.331 478.729 111.072 477.314 110.6C475.9 110.105 474.65 109.411 473.565 108.518L475.582 104.665C476.603 105.42 477.674 106.019 478.795 106.459C479.94 106.878 481.022 107.102 482.041 107.132C482.63 107.149 483.097 107.072 483.442 106.901C483.811 106.708 484 106.43 484.011 106.067C484.024 105.614 483.774 105.255 483.26 104.991C482.769 104.727 481.984 104.432 480.905 104.106C479.624 103.683 478.57 103.278 477.743 102.891C476.916 102.482 476.196 101.894 475.583 101.128C474.993 100.362 474.716 99.379 474.751 98.1782C474.805 96.3203 475.549 94.8907 476.984 93.8894C478.42 92.8654 480.248 92.3858 482.469 92.4504C483.805 92.4894 485.114 92.7089 486.395 93.109C487.699 93.5098 488.918 94.0782 490.053 94.8142L487.899 98.6972Z" fill="white"/>
<path d="M53.8632 279.042L60.0594 278.476L61.7452 296.929L71.8013 296.011L72.2839 301.293L56.0315 302.777L53.8632 279.042Z" fill="white"/>
<path d="M81.6768 281.725C84.205 281.494 86.2224 281.902 87.7291 282.947C89.2338 283.971 90.0933 285.531 90.3077 287.628L91.3965 299.547L85.4711 300.088L85.2825 298.023C84.2058 299.691 82.4373 300.638 79.9769 300.863C78.0356 301.04 76.4533 300.661 75.2298 299.726C74.0268 298.766 73.3469 297.429 73.1902 295.713C73.0314 293.975 73.5059 292.566 74.6136 291.486C75.7438 290.404 77.4365 289.749 79.6917 289.52L84.4659 289.084L84.4473 288.881C84.3669 288 84.0003 287.351 83.3475 286.933C82.7173 286.512 81.8379 286.354 80.7093 286.457C79.9418 286.527 79.0841 286.73 78.1362 287.067C77.2108 287.402 76.2844 287.851 75.3571 288.414L73.3268 284.502C74.7548 283.689 76.1315 283.062 77.457 282.623C78.803 282.158 80.2096 281.859 81.6768 281.725ZM81.4648 296.596C82.3678 296.513 83.1382 296.227 83.7762 295.736C84.4121 295.223 84.7884 294.608 84.9051 293.892L84.7597 292.3L81.1707 292.628C79.4777 292.783 78.689 293.492 78.8045 294.756C78.8622 295.388 79.123 295.877 79.587 296.221C80.0714 296.541 80.6974 296.666 81.4648 296.596Z" fill="white"/>
<path d="M106.524 285.532C104.041 284.507 102.043 284.064 100.53 284.202C100.011 284.25 99.6028 284.389 99.3053 284.621C99.0058 284.831 98.8736 285.127 98.9086 285.511C98.9458 285.917 99.224 286.222 99.7432 286.425C100.263 286.628 101.077 286.827 102.188 287.021C103.532 287.285 104.65 287.57 105.543 287.875C106.457 288.156 107.264 288.651 107.966 289.361C108.667 290.048 109.072 291.001 109.184 292.22C109.353 294.071 108.763 295.593 107.416 296.786C106.088 297.954 104.274 298.643 101.971 298.854C100.414 298.996 98.9043 298.918 97.4431 298.619C95.9797 298.297 94.6559 297.758 93.4714 297.001L95.0118 292.934C96.1162 293.562 97.2512 294.027 98.4169 294.33C99.6032 294.609 100.704 294.702 101.72 294.609C102.307 294.555 102.761 294.423 103.083 294.211C103.426 293.975 103.581 293.677 103.548 293.315C103.507 292.864 103.215 292.538 102.673 292.337C102.154 292.134 101.339 291.935 100.229 291.741C98.9072 291.475 97.8122 291.199 96.944 290.914C96.0738 290.607 95.2886 290.109 94.5886 289.422C93.911 288.733 93.5176 287.79 93.4083 286.594C93.2393 284.743 93.807 283.234 95.1117 282.068C96.4143 280.879 98.1716 280.184 100.384 279.982C101.716 279.86 103.041 279.921 104.361 280.165C105.703 280.406 106.982 280.824 108.197 281.419L106.524 285.532Z" fill="white"/>
<path d="M130.331 277.314C132.024 277.16 133.55 277.419 134.908 278.091C136.265 278.741 137.359 279.756 138.191 281.137C139.043 282.493 139.555 284.108 139.726 285.982C139.895 287.833 139.694 289.49 139.122 290.953C138.573 292.415 137.69 293.588 136.473 294.473C135.279 295.356 133.847 295.873 132.177 296.026C131.026 296.131 129.956 296.013 128.969 295.67C128.002 295.303 127.154 294.732 126.423 293.957L127.239 302.896L121.212 303.446L118.939 278.56L124.966 278.009L125.182 280.379C126.357 278.542 128.074 277.521 130.331 277.314ZM130.106 291.299C131.28 291.192 132.19 290.687 132.836 289.786C133.504 288.883 133.777 287.754 133.653 286.4C133.529 285.045 133.057 283.985 132.236 283.218C131.435 282.426 130.448 282.084 129.274 282.191C128.123 282.296 127.225 282.81 126.581 283.734C125.935 284.635 125.674 285.763 125.798 287.117C125.922 288.472 126.383 289.534 127.181 290.303C127.98 291.072 128.955 291.404 130.106 291.299Z" fill="white"/>
<path d="M150.021 275.516C153.001 275.243 155.373 275.914 157.136 277.529C158.9 279.143 159.922 281.485 160.202 284.555C160.245 285.029 160.267 285.391 160.267 285.641L147.536 286.804C147.924 287.816 148.506 288.571 149.279 289.069C150.051 289.545 150.956 289.735 151.995 289.641C152.785 289.568 153.526 289.341 154.22 288.959C154.936 288.575 155.571 288.051 156.125 287.386L159.561 290.247C158.71 291.394 157.633 292.312 156.33 293C155.048 293.663 153.56 294.073 151.867 294.227C149.904 294.407 148.153 294.18 146.616 293.546C145.078 292.913 143.851 291.932 142.933 290.605C142.037 289.276 141.505 287.685 141.336 285.834C141.165 283.961 141.409 282.277 142.07 280.783C142.728 279.266 143.744 278.058 145.119 277.158C146.491 276.236 148.125 275.689 150.021 275.516ZM154.15 282.957C154.053 281.896 153.659 281.078 152.969 280.504C152.3 279.905 151.458 279.652 150.442 279.745C149.494 279.831 148.721 280.221 148.125 280.912C147.55 281.602 147.211 282.498 147.107 283.6L154.15 282.957Z" fill="white"/>
<path d="M168.688 277.088C169.223 275.969 169.962 275.082 170.903 274.427C171.868 273.77 172.993 273.383 174.28 273.265L174.784 278.784C174.579 278.78 174.273 278.797 173.867 278.834C172.444 278.964 171.324 279.408 170.506 280.165C169.685 280.9 169.26 281.85 169.229 283.013L170.083 292.358L164.056 292.909L162.383 274.591L168.41 274.041L168.688 277.088Z" fill="white"/>
<path d="M189.684 277.935C187.2 276.91 185.202 276.467 183.69 276.605C183.171 276.652 182.762 276.792 182.465 277.024C182.165 277.234 182.033 277.53 182.068 277.914C182.105 278.32 182.384 278.625 182.903 278.828C183.422 279.031 184.237 279.229 185.347 279.424C186.691 279.688 187.81 279.973 188.703 280.278C189.616 280.559 190.424 281.054 191.126 281.764C191.826 282.451 192.232 283.404 192.343 284.623C192.512 286.474 191.923 287.996 190.575 289.189C189.248 290.357 187.433 291.046 185.131 291.257C183.573 291.399 182.064 291.321 180.603 291.022C179.139 290.7 177.815 290.161 176.631 289.404L178.171 285.337C179.276 285.965 180.411 286.43 181.577 286.733C182.763 287.012 183.864 287.105 184.88 287.012C185.466 286.958 185.921 286.826 186.243 286.614C186.586 286.378 186.74 286.079 186.707 285.718C186.666 285.267 186.375 284.941 185.833 284.74C185.314 284.537 184.499 284.338 183.388 284.144C182.067 283.878 180.972 283.602 180.104 283.317C179.233 283.01 178.448 282.512 177.748 281.825C177.071 281.136 176.677 280.193 176.568 278.997C176.399 277.146 176.967 275.637 178.271 274.471C179.574 273.282 181.331 272.587 183.543 272.385C184.875 272.263 186.201 272.324 187.52 272.568C188.863 272.809 190.141 273.227 191.356 273.822L189.684 277.935Z" fill="white"/>
<path d="M202.903 270.684C204.89 270.503 206.675 270.738 208.26 271.39C209.842 272.019 211.116 273.007 212.081 274.353C213.044 275.676 213.61 277.263 213.779 279.114C213.95 280.988 213.683 282.673 212.978 284.172C212.271 285.648 211.197 286.85 209.757 287.778C208.315 288.684 206.6 289.227 204.614 289.409C202.627 289.59 200.843 289.366 199.261 288.737C197.676 288.085 196.402 287.097 195.439 285.774C194.497 284.426 193.94 282.816 193.769 280.942C193.6 279.091 193.857 277.429 194.542 275.955C195.247 274.457 196.321 273.255 197.763 272.349C199.204 271.421 200.917 270.866 202.903 270.684ZM203.349 275.56C202.175 275.667 201.265 276.172 200.619 277.073C199.973 277.974 199.712 279.102 199.836 280.456C199.961 281.833 200.424 282.906 201.222 283.675C202.021 284.445 203.007 284.775 204.181 284.668C205.377 284.559 206.298 284.054 206.944 283.153C207.59 282.251 207.851 281.112 207.725 279.735C207.601 278.381 207.129 277.32 206.307 276.553C205.509 275.784 204.523 275.453 203.349 275.56Z" fill="white"/>
<path d="M228.081 268.35C230.09 268.167 231.75 268.652 233.062 269.807C234.397 270.96 235.162 272.608 235.358 274.753L236.412 286.299L230.419 286.846L229.522 277.027C229.428 275.989 229.071 275.202 228.453 274.667C227.833 274.109 227.049 273.873 226.101 273.96C225.11 274.073 224.316 274.476 223.719 275.167C223.145 275.857 222.849 276.726 222.831 277.775L223.715 287.459L217.688 288.009L216.015 269.692L222.042 269.141L222.314 272.121C222.872 271 223.634 270.122 224.6 269.488C225.589 268.851 226.749 268.472 228.081 268.35Z" fill="white"/>
<path d="M247.07 266.615C249.598 266.385 251.616 266.792 253.122 267.838C254.627 268.861 255.487 270.422 255.701 272.519L256.79 284.437L250.864 284.978L250.676 282.913C249.599 284.582 247.831 285.529 245.37 285.754C243.429 285.931 241.847 285.552 240.623 284.617C239.42 283.657 238.74 282.319 238.584 280.604C238.425 278.865 238.899 277.456 240.007 276.377C241.137 275.295 242.83 274.639 245.085 274.41L249.859 273.974L249.841 273.771C249.76 272.891 249.394 272.241 248.741 271.823C248.111 271.403 247.231 271.244 246.103 271.347C245.335 271.417 244.477 271.621 243.529 271.958C242.604 272.293 241.678 272.741 240.75 273.304L238.72 269.393C240.148 268.579 241.525 267.953 242.85 267.513C244.196 267.049 245.603 266.75 247.07 266.615ZM246.858 281.486C247.761 281.404 248.531 281.117 249.169 280.627C249.805 280.113 250.182 279.499 250.298 278.782L250.153 277.191L246.564 277.519C244.871 277.673 244.082 278.383 244.198 279.647C244.255 280.279 244.516 280.767 244.98 281.112C245.465 281.432 246.091 281.557 246.858 281.486Z" fill="white"/>
<path d="M271.917 270.423C269.434 269.398 267.436 268.954 265.924 269.093C265.404 269.14 264.996 269.28 264.699 269.512C264.399 269.721 264.267 270.018 264.302 270.402C264.339 270.808 264.617 271.112 265.137 271.315C265.656 271.518 266.471 271.717 267.581 271.911C268.925 272.176 270.044 272.46 270.937 272.766C271.85 273.046 272.658 273.542 273.36 274.251C274.06 274.939 274.466 275.892 274.577 277.111C274.746 278.962 274.157 280.483 272.809 281.676C271.482 282.845 269.667 283.534 267.364 283.744C265.807 283.887 264.298 283.808 262.836 283.509C261.373 283.188 260.049 282.649 258.865 281.892L260.405 277.825C261.509 278.452 262.644 278.918 263.81 279.221C264.997 279.499 266.098 279.592 267.113 279.499C267.7 279.446 268.155 279.313 268.477 279.102C268.819 278.866 268.974 278.567 268.941 278.206C268.9 277.754 268.608 277.428 268.067 277.227C267.547 277.024 266.732 276.826 265.622 276.631C264.3 276.365 263.206 276.09 262.337 275.805C261.467 275.497 260.682 275 259.982 274.313C259.304 273.624 258.911 272.681 258.802 271.484C258.633 269.633 259.2 268.125 260.505 266.959C261.808 265.77 263.565 265.074 265.777 264.872C267.109 264.751 268.435 264.812 269.754 265.055C271.096 265.297 272.375 265.715 273.59 266.31L271.917 270.423Z" fill="white"/>
<path d="M70.3853 324.984C67.9018 323.959 65.9038 323.515 64.3914 323.653C63.8723 323.701 63.4639 323.841 63.1665 324.073C62.867 324.282 62.7347 324.579 62.7698 324.962C62.8069 325.369 63.0851 325.673 63.6044 325.876C64.1237 326.079 64.9385 326.278 66.0488 326.472C67.393 326.737 68.5116 327.021 69.4044 327.327C70.3177 327.607 71.1255 328.103 71.8276 328.812C72.5277 329.499 72.9334 330.453 73.0448 331.671C73.2139 333.522 72.6245 335.044 71.2768 336.237C69.9496 337.405 68.1348 338.095 65.8324 338.305C64.2748 338.447 62.7655 338.369 61.3042 338.07C59.8409 337.749 58.517 337.209 57.3326 336.453L58.873 332.386C59.9773 333.013 61.1123 333.479 62.2781 333.782C63.4644 334.06 64.5654 334.153 65.5811 334.06C66.168 334.007 66.6225 333.874 66.9446 333.663C67.2872 333.427 67.442 333.128 67.409 332.767C67.3678 332.315 67.0762 331.989 66.5344 331.788C66.0151 331.585 65.2003 331.387 64.09 331.192C62.7683 330.926 61.6734 330.65 60.8052 330.366C59.935 330.058 59.1498 329.561 58.4497 328.874C57.7722 328.184 57.3788 327.242 57.2695 326.045C57.1004 324.194 57.6682 322.686 58.9728 321.52C60.2754 320.331 62.0328 319.635 64.2449 319.433C65.5767 319.312 66.9024 319.373 68.222 319.616C69.5642 319.858 70.8429 320.276 72.058 320.87L70.3853 324.984Z" fill="white"/>
<path d="M83.6049 317.733C85.5913 317.551 87.3768 317.787 88.9613 318.439C90.5438 319.068 91.8176 320.055 92.7827 321.401C93.7458 322.724 94.3118 324.311 94.4809 326.162C94.6521 328.036 94.385 329.722 93.6797 331.22C92.9724 332.696 91.8986 333.898 90.4584 334.826C89.0162 335.732 87.3019 336.275 85.3155 336.457C83.3291 336.638 81.5446 336.415 79.9622 335.785C78.3776 335.133 77.1038 334.146 76.1408 332.823C75.1982 331.475 74.6414 329.864 74.4702 327.991C74.3012 326.14 74.559 324.477 75.2438 323.003C75.949 321.505 77.0228 320.303 78.465 319.397C79.9052 318.469 81.6185 317.914 83.6049 317.733ZM84.0504 322.609C82.8766 322.716 81.9667 323.22 81.3206 324.121C80.6746 325.022 80.4135 326.15 80.5372 327.505C80.663 328.881 81.1252 329.955 81.9238 330.724C82.7224 331.493 83.7086 331.824 84.8824 331.717C86.0788 331.607 87 331.102 87.646 330.201C88.292 329.3 88.5521 328.161 88.4263 326.784C88.3026 325.429 87.8302 324.369 87.009 323.602C86.2103 322.832 85.2241 322.501 84.0504 322.609Z" fill="white"/>
<path d="M108.278 315.479C109.971 315.324 111.497 315.583 112.855 316.256C114.212 316.906 115.306 317.921 116.138 319.302C116.99 320.658 117.502 322.273 117.673 324.146C117.842 325.997 117.641 327.654 117.069 329.118C116.52 330.579 115.637 331.752 114.42 332.637C113.226 333.52 111.794 334.038 110.124 334.191C108.973 334.296 107.903 334.177 106.916 333.835C105.949 333.468 105.101 332.897 104.37 332.121L104.586 334.492L98.5593 335.042L96.2642 309.919L102.291 309.368L103.129 318.544C104.304 316.707 106.021 315.685 108.278 315.479ZM108.053 329.463C109.227 329.356 110.137 328.852 110.783 327.951C111.451 327.048 111.724 325.919 111.6 324.564C111.476 323.21 111.004 322.149 110.183 321.382C109.382 320.59 108.395 320.248 107.221 320.355C106.07 320.46 105.172 320.975 104.528 321.899C103.882 322.8 103.621 323.928 103.745 325.282C103.869 326.636 104.33 327.698 105.128 328.467C105.927 329.237 106.902 329.569 108.053 329.463Z" fill="white"/>
<path d="M126.234 317.116C126.769 315.998 127.507 315.111 128.449 314.456C129.413 313.798 130.539 313.411 131.825 313.294L132.329 318.813C132.124 318.809 131.818 318.825 131.412 318.862C129.99 318.992 128.87 319.436 128.051 320.194C127.231 320.929 126.805 321.878 126.775 323.041L127.629 332.387L121.602 332.937L119.929 314.619L125.955 314.069L126.234 317.116Z" fill="white"/>
<path d="M142.517 312.351C145.497 312.079 147.868 312.75 149.632 314.364C151.395 315.978 152.417 318.32 152.698 321.39C152.741 321.864 152.763 322.227 152.763 322.477L140.032 323.64C140.42 324.651 141.001 325.406 141.775 325.905C142.547 326.38 143.452 326.571 144.49 326.476C145.28 326.404 146.022 326.177 146.716 325.795C147.432 325.411 148.067 324.886 148.62 324.221L152.057 327.082C151.206 328.23 150.129 329.148 148.826 329.836C147.544 330.499 146.056 330.908 144.363 331.063C142.399 331.242 140.649 331.015 139.111 330.382C137.574 329.748 136.347 328.768 135.429 327.44C134.533 326.111 134.001 324.521 133.832 322.67C133.661 320.796 133.905 319.113 134.565 317.618C135.224 316.101 136.24 314.893 137.614 313.994C138.987 313.072 140.621 312.524 142.517 312.351ZM146.645 319.792C146.548 318.731 146.155 317.914 145.465 317.339C144.796 316.741 143.954 316.487 142.938 316.58C141.99 316.667 141.217 317.056 140.62 317.748C140.046 318.438 139.707 319.334 139.603 320.436L146.645 319.792Z" fill="white"/>
<path d="M151.845 311.704L158.041 311.138L163.03 323.519L165.727 310.436L171.754 309.885L166.554 328.831L160.358 329.397L151.845 311.704Z" fill="white"/>
<path d="M173.792 309.699L179.785 309.151L181.459 327.469L175.466 328.016L173.792 309.699ZM175.968 300.999C176.893 300.914 177.677 301.15 178.32 301.706C178.983 302.237 179.358 302.977 179.444 303.925C179.529 304.85 179.294 305.645 178.74 306.31C178.209 306.974 177.481 307.347 176.555 307.432C175.63 307.516 174.835 307.282 174.169 306.728C173.527 306.172 173.163 305.432 173.079 304.506C172.992 303.558 173.215 302.764 173.749 302.123C174.303 301.458 175.042 301.083 175.968 300.999Z" fill="white"/>
<path d="M181.934 308.955L188.131 308.389L193.12 320.77L195.817 307.687L201.844 307.136L196.644 326.082L190.447 326.648L181.934 308.955Z" fill="white"/>
<path d="M203.882 306.95L209.875 306.402L211.548 324.72L205.555 325.268L203.882 306.95ZM206.057 298.25C206.983 298.165 207.767 298.401 208.409 298.957C209.072 299.488 209.447 300.228 209.534 301.176C209.618 302.101 209.384 302.897 208.83 303.562C208.299 304.225 207.57 304.599 206.645 304.683C205.719 304.768 204.924 304.533 204.259 303.979C203.616 303.423 203.253 302.683 203.168 301.757C203.082 300.809 203.305 300.015 203.838 299.374C204.392 298.709 205.132 298.334 206.057 298.25Z" fill="white"/>
<path d="M222.536 305.041C225.515 304.769 227.887 305.44 229.65 307.054C231.414 308.668 232.436 311.01 232.716 314.08C232.759 314.554 232.781 314.916 232.781 315.167L220.05 316.33C220.439 317.341 221.02 318.096 221.794 318.595C222.565 319.07 223.47 319.261 224.509 319.166C225.299 319.094 226.041 318.867 226.734 318.485C227.45 318.101 228.085 317.576 228.639 316.911L232.075 319.772C231.224 320.92 230.147 321.837 228.844 322.525C227.562 323.189 226.074 323.598 224.382 323.753C222.418 323.932 220.667 323.705 219.13 323.072C217.592 322.438 216.365 321.458 215.447 320.13C214.552 318.801 214.019 317.211 213.85 315.36C213.679 313.486 213.924 311.802 214.584 310.308C215.242 308.791 216.258 307.583 217.633 306.684C219.005 305.762 220.639 305.214 222.536 305.041ZM226.664 312.482C226.567 311.421 226.173 310.604 225.484 310.029C224.814 309.43 223.972 309.177 222.956 309.27C222.008 309.357 221.236 309.746 220.639 310.438C220.064 311.128 219.725 312.024 219.621 313.126L226.664 312.482Z" fill="white"/>
<path d="M246.963 302.775C248.972 302.592 250.632 303.077 251.944 304.232C253.279 305.385 254.044 307.033 254.24 309.178L255.294 320.724L249.301 321.271L248.404 311.452C248.31 310.414 247.953 309.627 247.335 309.092C246.715 308.534 245.931 308.298 244.983 308.385C243.992 308.498 243.198 308.9 242.601 309.592C242.027 310.282 241.731 311.151 241.713 312.2L242.597 321.884L236.57 322.434L234.897 304.116L240.924 303.566L241.196 306.545C241.754 305.425 242.516 304.547 243.482 303.913C244.471 303.276 245.631 302.897 246.963 302.775Z" fill="white"/>
<path d="M271.217 318.313C270.575 318.759 269.824 319.135 268.965 319.441C268.103 319.724 267.221 319.907 266.318 319.99C264.512 320.155 262.997 319.77 261.774 318.834C260.573 317.897 259.889 316.514 259.722 314.686L259.004 306.831L256.465 307.063L256.1 303.067L258.639 302.835L258.175 297.756L264.168 297.209L264.632 302.288L269.372 301.855L269.737 305.85L264.997 306.283L265.628 313.19C265.746 314.477 266.335 315.072 267.396 314.975C268.05 314.915 268.811 314.641 269.676 314.152L271.217 318.313Z" fill="white"/>
<path d="M280.433 299.752C283.413 299.479 285.784 300.15 287.548 301.765C289.311 303.379 290.333 305.721 290.614 308.791C290.657 309.265 290.679 309.627 290.679 309.878L277.948 311.041C278.336 312.052 278.917 312.807 279.691 313.305C280.463 313.781 281.368 313.972 282.406 313.877C283.196 313.805 283.938 313.577 284.632 313.195C285.348 312.811 285.983 312.287 286.536 311.622L289.973 314.483C289.122 315.63 288.045 316.548 286.742 317.236C285.46 317.9 283.972 318.309 282.279 318.463C280.315 318.643 278.565 318.416 277.027 317.782C275.49 317.149 274.262 316.168 273.345 314.841C272.449 313.512 271.917 311.922 271.748 310.071C271.577 308.197 271.821 306.513 272.481 305.019C273.139 303.502 274.156 302.294 275.53 301.395C276.903 300.473 278.537 299.925 280.433 299.752ZM284.561 307.193C284.464 306.132 284.071 305.314 283.381 304.74C282.712 304.141 281.869 303.888 280.854 303.981C279.906 304.068 279.133 304.457 278.536 305.149C277.962 305.838 277.623 306.734 277.519 307.836L284.561 307.193Z" fill="white"/>
<path d="M305.547 303.5C303.063 302.475 301.065 302.032 299.553 302.17C299.034 302.218 298.625 302.357 298.328 302.589C298.028 302.799 297.896 303.095 297.931 303.479C297.968 303.886 298.246 304.19 298.766 304.393C299.285 304.596 300.1 304.795 301.21 304.989C302.554 305.253 303.673 305.538 304.566 305.843C305.479 306.124 306.287 306.619 306.989 307.329C307.689 308.016 308.095 308.969 308.206 310.188C308.375 312.039 307.786 313.561 306.438 314.754C305.111 315.922 303.296 316.612 300.994 316.822C299.436 316.964 297.927 316.886 296.466 316.587C295.002 316.265 293.678 315.726 292.494 314.97L294.034 310.903C295.139 311.53 296.274 311.995 297.439 312.299C298.626 312.577 299.727 312.67 300.743 312.577C301.329 312.524 301.784 312.391 302.106 312.179C302.449 311.943 302.603 311.645 302.57 311.284C302.529 310.832 302.238 310.506 301.696 310.305C301.176 310.102 300.362 309.903 299.251 309.709C297.93 309.443 296.835 309.167 295.967 308.882C295.096 308.575 294.311 308.078 293.611 307.39C292.934 306.701 292.54 305.758 292.431 304.562C292.262 302.711 292.83 301.203 294.134 300.036C295.437 298.848 297.194 298.152 299.406 297.95C300.738 297.828 302.064 297.889 303.383 298.133C304.726 298.375 306.004 298.793 307.219 299.387L305.547 303.5Z" fill="white"/>
</svg>
