<svg width="169" height="190" viewBox="0 0 169 190" fill="none" xmlns="http://www.w3.org/2000/svg">
<rect width="169" height="188.554" transform="translate(0 0.661133)" fill="white"/>
<g style="mix-blend-mode:multiply">
<path d="M11.8721 58.2028L21.7683 94.2124H44.9433L41.8166 111.174L24.1101 119.005L22.8091 123.438H24.6305L25.1509 120.048L41.8166 113.265L37.3932 118.745L36.6083 123.438H37.9136L38.1738 119.005L43.1219 113.786L50.9323 119.527L51.3588 123.451H53.2741L51.7129 119.266L43.6423 110.913L47.025 94.4732H57.4416L60.0479 89.2538L24.8907 90.8226L17.0804 55.0695L11.8721 58.2028Z" fill="#009245"/>
</g>
<path d="M156.524 56.2965L146.341 93.3619H122.488L125.704 110.82L143.927 118.873L145.267 123.438H143.394L142.856 119.95L125.704 112.965L130.26 118.608L131.062 123.438H129.723L129.454 118.873L124.365 113.504L116.324 119.412L115.885 123.451H113.91L115.518 119.142L123.828 110.55L120.343 93.627H109.623L106.944 88.258L143.125 89.8695L151.166 53.0734L156.524 56.2965Z" fill="#FF7BAC"/>
<path d="M92.066 119.548L85.5993 116.308L77.196 95.8966L86.5804 77.0882L60.7137 79.0332L64.9196 68.0174H67.8288L69.1084 65.1021L66.8434 62.8322L70.4009 55.0566H67.4918L64.2584 63.1785L50.3483 62.2039L39.0316 50.2135V43.0705C43.2717 38.082 40.3113 26.5575 40.3113 26.5575C39.3558 16.1958 22.2166 19.7566 23.5134 31.4221C24.2769 38.3128 27.523 42.938 31.1189 44.6393L24.8058 90.7158L70.3924 87.4756L57.1349 122.468H58.1074L60.3682 117.928L61.6479 122.788L68.7587 123.113L65.2011 115.987L73.2973 102.702L86.2306 122.793L86.5548 122.472L84.6139 118.907L88.8156 120.852L92.066 119.548ZM36.1353 79.3666L40.6611 67.3762H61.6778L57.1477 79.3666H36.1353Z" fill="#FBB03B"/>
<path d="M145.834 28.7332C147.165 16.7258 129.526 13.0581 128.528 23.7319C128.528 23.7319 125.201 36.7354 130.524 41.4033C131.341 42.1325 132.324 42.6493 133.387 42.908V42.908L134.082 52.1284L126.916 58.3523L118.811 76.5366C118.811 76.5366 114.993 75.1004 113.56 76.0579C112.127 77.0154 112.127 78.9262 112.127 78.9262L94.9365 77.4899L104.009 119.125C102.407 119.165 100.81 119.325 99.232 119.604C96.3698 120.082 95.3929 123.451 95.3929 123.451H97.7817C99.6884 123.451 104.466 122.972 104.466 122.972V123.434H109.239L106.855 88.4971L125.807 89.0956L140.758 89.7624L142.669 55.001L138.83 49.2558L138.919 41.8222C142.255 39.7533 145.113 35.2179 145.834 28.7332Z" fill="#662D91"/>
<path d="M30.5827 152.184C30.9515 152.184 31.2531 152.156 31.4878 152.1C31.7336 152.033 31.9291 151.949 32.0744 151.849C32.2197 151.737 32.3202 151.608 32.3761 151.463C32.432 151.318 32.4599 151.156 32.4599 150.977C32.4599 150.597 32.2811 150.284 31.9236 150.039C31.566 149.782 30.9515 149.508 30.0799 149.217C29.7 149.083 29.3201 148.932 28.9402 148.765C28.5603 148.586 28.2195 148.368 27.9178 148.111C27.6162 147.843 27.3703 147.525 27.1804 147.156C26.9904 146.776 26.8955 146.318 26.8955 145.781C26.8955 145.245 26.996 144.765 27.1971 144.34C27.3983 143.904 27.6832 143.536 28.0519 143.234C28.4207 142.932 28.8676 142.703 29.3927 142.547C29.9179 142.379 30.5101 142.295 31.1693 142.295C31.9515 142.295 32.6275 142.379 33.1973 142.547C33.7672 142.714 34.2365 142.899 34.6052 143.1L33.851 145.161C33.527 144.994 33.1638 144.848 32.7616 144.726C32.3705 144.591 31.8956 144.524 31.3369 144.524C30.7112 144.524 30.2587 144.614 29.9794 144.793C29.7112 144.96 29.5771 145.223 29.5771 145.58C29.5771 145.793 29.6274 145.971 29.728 146.117C29.8285 146.262 29.9682 146.396 30.147 146.519C30.3369 146.631 30.5492 146.737 30.7839 146.837C31.0297 146.927 31.2978 147.022 31.5884 147.122C32.1917 147.346 32.7169 147.569 33.1638 147.793C33.6108 148.005 33.9795 148.256 34.27 148.547C34.5717 148.837 34.7952 149.178 34.9404 149.569C35.0857 149.96 35.1583 150.435 35.1583 150.994C35.1583 152.078 34.7784 152.921 34.0186 153.525C33.2588 154.117 32.1135 154.413 30.5827 154.413C30.0687 154.413 29.605 154.38 29.1916 154.312C28.7782 154.257 28.4095 154.184 28.0854 154.095C27.7726 154.005 27.4988 153.91 27.2642 153.81C27.0407 153.709 26.8508 153.614 26.6943 153.525L27.4318 151.446C27.7782 151.636 28.2028 151.81 28.7056 151.966C29.2196 152.111 29.8453 152.184 30.5827 152.184Z" fill="#662D91"/>
<path d="M36.7092 149.837C36.7092 149.055 36.8265 148.374 37.0611 147.793C37.3069 147.2 37.6254 146.709 38.0165 146.318C38.4075 145.927 38.8545 145.631 39.3573 145.429C39.8713 145.228 40.3964 145.128 40.9328 145.128C42.1842 145.128 43.1731 145.513 43.8993 146.284C44.6256 147.044 44.9888 148.167 44.9888 149.653C44.9888 149.798 44.9832 149.96 44.972 150.139C44.9608 150.307 44.9497 150.458 44.9385 150.592H39.2735C39.3294 151.106 39.5696 151.513 39.9942 151.815C40.4188 152.117 40.9886 152.268 41.7037 152.268C42.1619 152.268 42.6088 152.229 43.0446 152.15C43.4915 152.061 43.8546 151.955 44.134 151.832L44.4692 153.86C44.3351 153.927 44.1563 153.994 43.9329 154.061C43.7094 154.128 43.458 154.184 43.1786 154.229C42.9105 154.285 42.62 154.329 42.3071 154.363C41.9942 154.396 41.6814 154.413 41.3685 154.413C40.5752 154.413 39.8824 154.296 39.2902 154.061C38.7092 153.826 38.2232 153.508 37.8321 153.106C37.4522 152.692 37.1673 152.206 36.9773 151.648C36.7985 151.089 36.7092 150.486 36.7092 149.837ZM42.5753 148.882C42.5641 148.67 42.525 148.463 42.458 148.262C42.4021 148.061 42.3071 147.882 42.173 147.726C42.0501 147.569 41.8881 147.441 41.687 147.34C41.497 147.24 41.2568 147.189 40.9663 147.189C40.6869 147.189 40.4467 147.24 40.2456 147.34C40.0445 147.43 39.8769 147.552 39.7428 147.709C39.6087 147.865 39.5025 148.05 39.4243 148.262C39.3573 148.463 39.307 148.67 39.2735 148.882H42.5753Z" fill="#662D91"/>
<path d="M47.0416 145.664C47.4662 145.541 48.0137 145.429 48.6842 145.329C49.3546 145.217 50.0585 145.161 50.796 145.161C51.5446 145.161 52.1647 145.262 52.6564 145.463C53.1592 145.653 53.5558 145.927 53.8463 146.284C54.1368 146.642 54.3436 147.066 54.4665 147.558C54.5894 148.05 54.6508 148.597 54.6508 149.201V154.178H52.1535V149.502C52.1535 148.698 52.0474 148.128 51.8351 147.793C51.6228 147.457 51.2261 147.29 50.6451 147.29C50.4663 147.29 50.2764 147.301 50.0753 147.323C49.8741 147.335 49.6954 147.351 49.5389 147.374V154.178H47.0416V145.664Z" fill="#662D91"/>
<path d="M59.5678 152.385C60.0259 152.385 60.3499 152.34 60.5399 152.251C60.7298 152.162 60.8248 151.988 60.8248 151.731C60.8248 151.53 60.7019 151.357 60.4561 151.212C60.2102 151.055 59.8359 150.882 59.3331 150.692C58.942 150.547 58.5845 150.396 58.2605 150.24C57.9476 150.083 57.6794 149.899 57.456 149.687C57.2325 149.463 57.0593 149.201 56.9364 148.899C56.8135 148.597 56.752 148.234 56.752 147.809C56.752 146.983 57.0593 146.329 57.6738 145.848C58.2884 145.368 59.132 145.128 60.2047 145.128C60.741 145.128 61.255 145.178 61.7466 145.279C62.2382 145.368 62.6293 145.469 62.9198 145.58L62.4841 147.525C62.1935 147.424 61.8751 147.335 61.5287 147.256C61.1935 147.178 60.8136 147.139 60.389 147.139C59.6069 147.139 59.2158 147.357 59.2158 147.793C59.2158 147.893 59.2326 147.983 59.2661 148.061C59.2996 148.139 59.3666 148.217 59.4672 148.296C59.5678 148.363 59.7018 148.441 59.8694 148.53C60.0482 148.608 60.2717 148.698 60.5399 148.798C61.0874 148.999 61.5399 149.201 61.8974 149.402C62.255 149.592 62.5343 149.804 62.7355 150.039C62.9478 150.262 63.093 150.513 63.1712 150.793C63.2606 151.072 63.3053 151.396 63.3053 151.765C63.3053 152.636 62.9757 153.296 62.3165 153.743C61.6684 154.19 60.7466 154.413 59.551 154.413C58.7688 154.413 58.1152 154.346 57.59 154.212C57.0761 154.078 56.7185 153.966 56.5174 153.877L56.9364 151.849C57.361 152.016 57.7968 152.15 58.2437 152.251C58.6906 152.34 59.132 152.385 59.5678 152.385Z" fill="#662D91"/>
<path d="M67.7946 154.178H65.2973V145.362H67.7946V154.178ZM68.0292 142.815C68.0292 143.273 67.8784 143.636 67.5767 143.904C67.2862 144.161 66.9398 144.29 66.5376 144.29C66.1353 144.29 65.7834 144.161 65.4817 143.904C65.1912 143.636 65.0459 143.273 65.0459 142.815C65.0459 142.357 65.1912 141.999 65.4817 141.742C65.7834 141.474 66.1353 141.34 66.5376 141.34C66.9398 141.34 67.2862 141.474 67.5767 141.742C67.8784 141.999 68.0292 142.357 68.0292 142.815Z" fill="#662D91"/>
<path d="M75.916 149.703C75.916 148.094 75.3238 147.29 74.1394 147.29C73.8824 147.29 73.6254 147.323 73.3685 147.39C73.1226 147.457 72.9215 147.541 72.7651 147.642V152.184C72.888 152.206 73.0444 152.229 73.2344 152.251C73.4243 152.262 73.631 152.268 73.8545 152.268C74.5361 152.268 75.0501 152.033 75.3965 151.564C75.7428 151.094 75.916 150.474 75.916 149.703ZM78.4636 149.77C78.4636 150.474 78.3574 151.111 78.1451 151.681C77.944 152.251 77.6479 152.737 77.2569 153.139C76.8658 153.541 76.3853 153.854 75.8155 154.078C75.2456 154.29 74.5975 154.396 73.8713 154.396C73.5696 154.396 73.2511 154.38 72.9159 154.346C72.5919 154.324 72.2679 154.29 71.9438 154.245C71.631 154.201 71.3293 154.15 71.0388 154.095C70.7483 154.028 70.4913 153.96 70.2678 153.893V141.575L72.7651 141.172V145.564C73.0444 145.441 73.3349 145.346 73.6366 145.279C73.9383 145.212 74.2623 145.178 74.6087 145.178C75.2344 145.178 75.7875 145.29 76.268 145.513C76.7485 145.726 77.1507 146.033 77.4747 146.435C77.7988 146.837 78.0446 147.323 78.2122 147.893C78.3798 148.452 78.4636 149.078 78.4636 149.77Z" fill="#662D91"/>
<path d="M84.0283 154.346C83.302 154.335 82.7098 154.257 82.2517 154.111C81.8047 153.966 81.4472 153.765 81.179 153.508C80.922 153.24 80.7433 152.921 80.6427 152.553C80.5533 152.173 80.5086 151.748 80.5086 151.279V141.575L83.0059 141.172V150.776C83.0059 151 83.0227 151.201 83.0562 151.379C83.0897 151.558 83.1512 151.709 83.2406 151.832C83.3411 151.955 83.4808 152.055 83.6596 152.134C83.8383 152.212 84.0786 152.262 84.3803 152.284L84.0283 154.346Z" fill="#662D91"/>
<path d="M85.5184 149.837C85.5184 149.055 85.6357 148.374 85.8703 147.793C86.1162 147.2 86.4346 146.709 86.8257 146.318C87.2168 145.927 87.6637 145.631 88.1665 145.429C88.6805 145.228 89.2057 145.128 89.742 145.128C90.9934 145.128 91.9823 145.513 92.7086 146.284C93.4348 147.044 93.798 148.167 93.798 149.653C93.798 149.798 93.7924 149.96 93.7812 150.139C93.7701 150.307 93.7589 150.458 93.7477 150.592H88.0827C88.1386 151.106 88.3788 151.513 88.8034 151.815C89.228 152.117 89.7979 152.268 90.513 152.268C90.9711 152.268 91.418 152.229 91.8538 152.15C92.3007 152.061 92.6639 151.955 92.9432 151.832L93.2784 153.86C93.1443 153.927 92.9656 153.994 92.7421 154.061C92.5186 154.128 92.2672 154.184 91.9879 154.229C91.7197 154.285 91.4292 154.329 91.1163 154.363C90.8035 154.396 90.4906 154.413 90.1778 154.413C89.3844 154.413 88.6917 154.296 88.0995 154.061C87.5184 153.826 87.0324 153.508 86.6413 153.106C86.2614 152.692 85.9765 152.206 85.7865 151.648C85.6078 151.089 85.5184 150.486 85.5184 149.837ZM91.3845 148.882C91.3733 148.67 91.3342 148.463 91.2672 148.262C91.2113 148.061 91.1163 147.882 90.9822 147.726C90.8593 147.569 90.6973 147.441 90.4962 147.34C90.3063 147.24 90.066 147.189 89.7755 147.189C89.4962 147.189 89.2559 147.24 89.0548 147.34C88.8537 147.43 88.6861 147.552 88.552 147.709C88.4179 147.865 88.3118 148.05 88.2336 148.262C88.1665 148.463 88.1162 148.67 88.0827 148.882H91.3845Z" fill="#662D91"/>
<path d="M103.372 152.435C103.618 152.435 103.852 152.43 104.076 152.419C104.299 152.407 104.478 152.391 104.612 152.368V150.474C104.512 150.452 104.361 150.43 104.16 150.407C103.958 150.385 103.774 150.374 103.606 150.374C103.372 150.374 103.148 150.391 102.936 150.424C102.735 150.446 102.556 150.497 102.4 150.575C102.243 150.653 102.12 150.759 102.031 150.893C101.942 151.027 101.897 151.195 101.897 151.396C101.897 151.787 102.025 152.061 102.282 152.217C102.551 152.363 102.914 152.435 103.372 152.435ZM103.171 145.128C103.908 145.128 104.523 145.212 105.014 145.379C105.506 145.547 105.897 145.787 106.188 146.1C106.489 146.413 106.702 146.793 106.824 147.24C106.947 147.687 107.009 148.184 107.009 148.731V153.927C106.651 154.005 106.154 154.095 105.517 154.195C104.88 154.307 104.109 154.363 103.204 154.363C102.634 154.363 102.115 154.312 101.645 154.212C101.187 154.111 100.791 153.949 100.456 153.726C100.12 153.491 99.8633 153.19 99.6845 152.821C99.5058 152.452 99.4164 152 99.4164 151.463C99.4164 150.949 99.5169 150.513 99.7181 150.156C99.9303 149.798 100.21 149.513 100.556 149.301C100.902 149.089 101.299 148.938 101.746 148.849C102.193 148.748 102.657 148.698 103.137 148.698C103.461 148.698 103.746 148.715 103.992 148.748C104.249 148.77 104.456 148.804 104.612 148.849V148.614C104.612 148.189 104.484 147.849 104.227 147.592C103.97 147.335 103.523 147.206 102.886 147.206C102.461 147.206 102.042 147.24 101.629 147.307C101.215 147.363 100.858 147.446 100.556 147.558L100.238 145.547C100.383 145.502 100.562 145.457 100.774 145.413C100.997 145.357 101.238 145.312 101.495 145.279C101.752 145.234 102.02 145.2 102.299 145.178C102.59 145.145 102.88 145.128 103.171 145.128Z" fill="#662D91"/>
<path d="M113.461 143.167L115.958 142.765V145.362H118.958V147.441H115.958V150.541C115.958 151.067 116.048 151.486 116.226 151.798C116.416 152.111 116.791 152.268 117.349 152.268C117.618 152.268 117.891 152.245 118.171 152.201C118.461 152.145 118.724 152.072 118.958 151.983L119.31 153.927C119.009 154.05 118.673 154.156 118.305 154.245C117.936 154.335 117.483 154.38 116.947 154.38C116.266 154.38 115.701 154.29 115.254 154.111C114.807 153.921 114.45 153.664 114.182 153.34C113.914 153.005 113.724 152.603 113.612 152.134C113.511 151.664 113.461 151.145 113.461 150.575V143.167Z" fill="#662D91"/>
<path d="M128.643 153.877C128.219 154 127.671 154.111 127.001 154.212C126.33 154.324 125.626 154.38 124.889 154.38C124.14 154.38 123.514 154.279 123.012 154.078C122.52 153.877 122.129 153.597 121.838 153.24C121.548 152.871 121.341 152.435 121.218 151.932C121.095 151.43 121.034 150.877 121.034 150.273V145.362H123.531V149.972C123.531 150.776 123.637 151.357 123.85 151.715C124.062 152.072 124.459 152.251 125.04 152.251C125.218 152.251 125.408 152.245 125.609 152.234C125.811 152.212 125.989 152.189 126.146 152.167V145.362H128.643V153.877Z" fill="#662D91"/>
<path d="M133.644 152.385C134.102 152.385 134.426 152.34 134.616 152.251C134.806 152.162 134.901 151.988 134.901 151.731C134.901 151.53 134.778 151.357 134.532 151.212C134.286 151.055 133.912 150.882 133.409 150.692C133.018 150.547 132.661 150.396 132.337 150.24C132.024 150.083 131.756 149.899 131.532 149.687C131.309 149.463 131.135 149.201 131.012 148.899C130.89 148.597 130.828 148.234 130.828 147.809C130.828 146.983 131.135 146.329 131.75 145.848C132.364 145.368 133.208 145.128 134.281 145.128C134.817 145.128 135.331 145.178 135.823 145.279C136.314 145.368 136.705 145.469 136.996 145.58L136.56 147.525C136.27 147.424 135.951 147.335 135.605 147.256C135.27 147.178 134.89 147.139 134.465 147.139C133.683 147.139 133.292 147.357 133.292 147.793C133.292 147.893 133.309 147.983 133.342 148.061C133.376 148.139 133.443 148.217 133.543 148.296C133.644 148.363 133.778 148.441 133.946 148.53C134.124 148.608 134.348 148.698 134.616 148.798C135.163 148.999 135.616 149.201 135.974 149.402C136.331 149.592 136.61 149.804 136.812 150.039C137.024 150.262 137.169 150.513 137.247 150.793C137.337 151.072 137.381 151.396 137.381 151.765C137.381 152.636 137.052 153.296 136.393 153.743C135.744 154.19 134.823 154.413 133.627 154.413C132.845 154.413 132.191 154.346 131.666 154.212C131.152 154.078 130.795 153.966 130.593 153.877L131.012 151.849C131.437 152.016 131.873 152.15 132.32 152.251C132.767 152.34 133.208 152.385 133.644 152.385Z" fill="#662D91"/>
<path d="M44.8466 166.464C44.8466 167.235 45.0197 167.855 45.3661 168.324C45.7125 168.793 46.2265 169.028 46.9081 169.028C47.1316 169.028 47.3383 169.022 47.5282 169.011C47.7182 168.989 47.8746 168.967 47.9975 168.944V164.402C47.8411 164.302 47.6344 164.218 47.3774 164.151C47.1316 164.084 46.8801 164.05 46.6232 164.05C45.4388 164.05 44.8466 164.855 44.8466 166.464ZM50.4948 170.654C50.2713 170.721 50.0143 170.788 49.7238 170.855C49.4333 170.911 49.126 170.961 48.802 171.006C48.4891 171.05 48.1651 171.084 47.8299 171.106C47.5059 171.14 47.193 171.157 46.8913 171.157C46.165 171.157 45.517 171.05 44.9471 170.838C44.3773 170.626 43.8968 170.324 43.5057 169.933C43.1147 169.531 42.813 169.05 42.6007 168.492C42.3996 167.922 42.299 167.285 42.299 166.581C42.299 165.866 42.3884 165.223 42.5672 164.654C42.7459 164.073 43.0029 163.581 43.3381 163.179C43.6733 162.776 44.0812 162.469 44.5616 162.257C45.0533 162.045 45.6119 161.938 46.2377 161.938C46.584 161.938 46.8913 161.972 47.1595 162.039C47.4388 162.106 47.7182 162.201 47.9975 162.324V158.335L50.4948 157.933V170.654Z" fill="#662D91"/>
<path d="M52.5398 166.598C52.5398 165.816 52.6571 165.134 52.8918 164.553C53.1376 163.961 53.456 163.469 53.8471 163.078C54.2382 162.687 54.6851 162.391 55.1879 162.19C55.7019 161.989 56.2271 161.888 56.7634 161.888C58.0149 161.888 59.0037 162.274 59.73 163.045C60.4563 163.804 60.8194 164.927 60.8194 166.413C60.8194 166.559 60.8138 166.721 60.8027 166.899C60.7915 167.067 60.7803 167.218 60.7691 167.352H55.1041C55.16 167.866 55.4002 168.274 55.8248 168.576C56.2494 168.877 56.8193 169.028 57.5344 169.028C57.9925 169.028 58.4394 168.989 58.8752 168.911C59.3222 168.821 59.6853 168.715 59.9646 168.592L60.2998 170.62C60.1658 170.687 59.987 170.754 59.7635 170.821C59.54 170.888 59.2886 170.944 59.0093 170.989C58.7411 171.045 58.4506 171.09 58.1378 171.123C57.8249 171.157 57.512 171.173 57.1992 171.173C56.4059 171.173 55.7131 171.056 55.1209 170.821C54.5399 170.587 54.0538 170.268 53.6628 169.866C53.2829 169.453 52.9979 168.967 52.808 168.408C52.6292 167.849 52.5398 167.246 52.5398 166.598ZM58.4059 165.642C58.3948 165.43 58.3556 165.223 58.2886 165.022C58.2327 164.821 58.1378 164.642 58.0037 164.486C57.8808 164.33 57.7188 164.201 57.5176 164.1C57.3277 164 57.0874 163.95 56.7969 163.95C56.5176 163.95 56.2774 164 56.0762 164.1C55.8751 164.19 55.7075 164.313 55.5734 164.469C55.4394 164.626 55.3332 164.81 55.255 165.022C55.1879 165.223 55.1377 165.43 55.1041 165.642H58.4059Z" fill="#662D91"/>
<path d="M62.4533 166.531C62.4533 165.894 62.5538 165.296 62.755 164.737C62.9673 164.168 63.269 163.676 63.66 163.262C64.0511 162.838 64.526 162.503 65.0847 162.257C65.6433 162.011 66.2802 161.888 66.9953 161.888C67.4646 161.888 67.8948 161.933 68.2859 162.022C68.677 162.1 69.0569 162.218 69.4256 162.374L68.906 164.369C68.6714 164.279 68.4144 164.201 68.135 164.134C67.8557 164.067 67.5428 164.033 67.1965 164.033C66.459 164.033 65.9059 164.263 65.5372 164.721C65.1796 165.179 65.0009 165.782 65.0009 166.531C65.0009 167.324 65.1685 167.939 65.5037 168.374C65.85 168.81 66.4478 169.028 67.297 169.028C67.5987 169.028 67.9227 169 68.2691 168.944C68.6155 168.888 68.9339 168.799 69.2245 168.676L69.5764 170.721C69.2859 170.844 68.9228 170.95 68.487 171.039C68.0512 171.129 67.5708 171.173 67.0456 171.173C66.2411 171.173 65.5484 171.056 64.9673 170.821C64.3863 170.576 63.9058 170.246 63.5259 169.833C63.1572 169.419 62.8835 168.933 62.7047 168.374C62.5371 167.805 62.4533 167.19 62.4533 166.531Z" fill="#662D91"/>
<path d="M73.8755 170.939H71.3782V162.123H73.8755V170.939ZM74.1101 159.575C74.1101 160.033 73.9593 160.396 73.6576 160.665C73.3671 160.922 73.0207 161.05 72.6184 161.05C72.2162 161.05 71.8642 160.922 71.5625 160.665C71.272 160.396 71.1268 160.033 71.1268 159.575C71.1268 159.117 71.272 158.76 71.5625 158.503C71.8642 158.234 72.2162 158.1 72.6184 158.1C73.0207 158.1 73.3671 158.234 73.6576 158.503C73.9593 158.76 74.1101 159.117 74.1101 159.575Z" fill="#662D91"/>
<path d="M78.8795 169.145C79.3376 169.145 79.6616 169.101 79.8516 169.011C80.0415 168.922 80.1365 168.749 80.1365 168.492C80.1365 168.291 80.0136 168.117 79.7678 167.972C79.5219 167.816 79.1476 167.643 78.6448 167.453C78.2537 167.307 77.8962 167.156 77.5722 167C77.2593 166.844 76.9911 166.659 76.7677 166.447C76.5442 166.223 76.371 165.961 76.2481 165.659C76.1252 165.358 76.0637 164.994 76.0637 164.57C76.0637 163.743 76.371 163.089 76.9855 162.609C77.6001 162.128 78.4437 161.888 79.5164 161.888C80.0527 161.888 80.5667 161.938 81.0583 162.039C81.5499 162.128 81.941 162.229 82.2315 162.341L81.7958 164.285C81.5052 164.184 81.1868 164.095 80.8404 164.017C80.5052 163.938 80.1253 163.899 79.7007 163.899C78.9186 163.899 78.5275 164.117 78.5275 164.553C78.5275 164.654 78.5443 164.743 78.5778 164.821C78.6113 164.899 78.6783 164.978 78.7789 165.056C78.8795 165.123 79.0135 165.201 79.1811 165.29C79.3599 165.369 79.5834 165.458 79.8516 165.559C80.3991 165.76 80.8516 165.961 81.2091 166.162C81.5667 166.352 81.846 166.564 82.0472 166.799C82.2595 167.022 82.4047 167.274 82.4829 167.553C82.5723 167.832 82.617 168.156 82.617 168.525C82.617 169.397 82.2874 170.056 81.6282 170.503C80.9801 170.95 80.0583 171.173 78.8627 171.173C78.0806 171.173 77.4269 171.106 76.9017 170.972C76.3878 170.838 76.0302 170.726 75.8291 170.637L76.2481 168.609C76.6727 168.777 77.1085 168.911 77.5554 169.011C78.0023 169.101 78.4437 169.145 78.8795 169.145Z" fill="#662D91"/>
<path d="M87.1063 170.939H84.609V162.123H87.1063V170.939ZM87.3409 159.575C87.3409 160.033 87.1901 160.396 86.8884 160.665C86.5979 160.922 86.2515 161.05 85.8493 161.05C85.447 161.05 85.0951 160.922 84.7934 160.665C84.5029 160.396 84.3576 160.033 84.3576 159.575C84.3576 159.117 84.5029 158.76 84.7934 158.503C85.0951 158.234 85.447 158.1 85.8493 158.1C86.2515 158.1 86.5979 158.234 86.8884 158.503C87.1901 158.76 87.3409 159.117 87.3409 159.575Z" fill="#662D91"/>
<path d="M97.8256 166.514C97.8256 167.207 97.725 167.844 97.5239 168.425C97.3228 168.995 97.0323 169.486 96.6524 169.9C96.2724 170.302 95.8143 170.615 95.278 170.838C94.7528 171.062 94.1606 171.173 93.5014 171.173C92.8533 171.173 92.2611 171.062 91.7248 170.838C91.1997 170.615 90.7471 170.302 90.3672 169.9C89.9873 169.486 89.6912 168.995 89.4789 168.425C89.2666 167.844 89.1605 167.207 89.1605 166.514C89.1605 165.821 89.2666 165.19 89.4789 164.62C89.7024 164.05 90.0041 163.564 90.384 163.162C90.7751 162.76 91.2332 162.447 91.7583 162.223C92.2947 162 92.8757 161.888 93.5014 161.888C94.1383 161.888 94.7193 162 95.2445 162.223C95.7808 162.447 96.2389 162.76 96.6188 163.162C96.9987 163.564 97.2948 164.05 97.5071 164.62C97.7194 165.19 97.8256 165.821 97.8256 166.514ZM95.278 166.514C95.278 165.743 95.1216 165.14 94.8087 164.704C94.507 164.257 94.0713 164.033 93.5014 164.033C92.9316 164.033 92.4902 164.257 92.1773 164.704C91.8645 165.14 91.7081 165.743 91.7081 166.514C91.7081 167.285 91.8645 167.9 92.1773 168.358C92.4902 168.805 92.9316 169.028 93.5014 169.028C94.0713 169.028 94.507 168.805 94.8087 168.358C95.1216 167.9 95.278 167.285 95.278 166.514Z" fill="#662D91"/>
<path d="M99.8858 162.424C100.31 162.302 100.858 162.19 101.528 162.089C102.199 161.978 102.903 161.922 103.64 161.922C104.389 161.922 105.009 162.022 105.5 162.223C106.003 162.413 106.4 162.687 106.69 163.045C106.981 163.402 107.188 163.827 107.311 164.318C107.434 164.81 107.495 165.358 107.495 165.961V170.939H104.998V166.263C104.998 165.458 104.892 164.888 104.679 164.553C104.467 164.218 104.07 164.05 103.489 164.05C103.31 164.05 103.121 164.061 102.919 164.084C102.718 164.095 102.539 164.112 102.383 164.134V170.939H99.8858V162.424Z" fill="#662D91"/>
<path d="M109.462 166.598C109.462 165.816 109.579 165.134 109.814 164.553C110.06 163.961 110.378 163.469 110.769 163.078C111.16 162.687 111.607 162.391 112.11 162.19C112.624 161.989 113.149 161.888 113.686 161.888C114.937 161.888 115.926 162.274 116.652 163.045C117.379 163.804 117.742 164.927 117.742 166.413C117.742 166.559 117.736 166.721 117.725 166.899C117.714 167.067 117.703 167.218 117.691 167.352H112.026C112.082 167.866 112.323 168.274 112.747 168.576C113.172 168.877 113.742 169.028 114.457 169.028C114.915 169.028 115.362 168.989 115.797 168.911C116.244 168.821 116.608 168.715 116.887 168.592L117.222 170.62C117.088 170.687 116.909 170.754 116.686 170.821C116.462 170.888 116.211 170.944 115.932 170.989C115.663 171.045 115.373 171.09 115.06 171.123C114.747 171.157 114.434 171.173 114.121 171.173C113.328 171.173 112.635 171.056 112.043 170.821C111.462 170.587 110.976 170.268 110.585 169.866C110.205 169.453 109.92 168.967 109.73 168.408C109.551 167.849 109.462 167.246 109.462 166.598ZM115.328 165.642C115.317 165.43 115.278 165.223 115.211 165.022C115.155 164.821 115.06 164.642 114.926 164.486C114.803 164.33 114.641 164.201 114.44 164.1C114.25 164 114.01 163.95 113.719 163.95C113.44 163.95 113.2 164 112.999 164.1C112.797 164.19 112.63 164.313 112.496 164.469C112.362 164.626 112.255 164.81 112.177 165.022C112.11 165.223 112.06 165.43 112.026 165.642H115.328Z" fill="#662D91"/>
<path d="M122.325 169.145C122.783 169.145 123.108 169.101 123.297 169.011C123.487 168.922 123.582 168.749 123.582 168.492C123.582 168.291 123.459 168.117 123.214 167.972C122.968 167.816 122.594 167.643 122.091 167.453C121.7 167.307 121.342 167.156 121.018 167C120.705 166.844 120.437 166.659 120.214 166.447C119.99 166.223 119.817 165.961 119.694 165.659C119.571 165.358 119.51 164.994 119.51 164.57C119.51 163.743 119.817 163.089 120.431 162.609C121.046 162.128 121.89 161.888 122.962 161.888C123.499 161.888 124.013 161.938 124.504 162.039C124.996 162.128 125.387 162.229 125.677 162.341L125.242 164.285C124.951 164.184 124.633 164.095 124.286 164.017C123.951 163.938 123.571 163.899 123.147 163.899C122.364 163.899 121.973 164.117 121.973 164.553C121.973 164.654 121.99 164.743 122.024 164.821C122.057 164.899 122.124 164.978 122.225 165.056C122.325 165.123 122.459 165.201 122.627 165.29C122.806 165.369 123.029 165.458 123.297 165.559C123.845 165.76 124.298 165.961 124.655 166.162C125.013 166.352 125.292 166.564 125.493 166.799C125.705 167.022 125.851 167.274 125.929 167.553C126.018 167.832 126.063 168.156 126.063 168.525C126.063 169.397 125.733 170.056 125.074 170.503C124.426 170.95 123.504 171.173 122.309 171.173C121.526 171.173 120.873 171.106 120.348 170.972C119.834 170.838 119.476 170.726 119.275 170.637L119.694 168.609C120.119 168.777 120.554 168.911 121.001 169.011C121.448 169.101 121.89 169.145 122.325 169.145Z" fill="#662D91"/>
</svg>
