<svg width="242" height="270" viewBox="0 0 242 270" fill="none" xmlns="http://www.w3.org/2000/svg">
<rect width="242" height="270" fill="white"/>
<g style="mix-blend-mode:multiply">
<path d="M17 82.3969L31.1709 133.961H64.3565L59.8792 158.25L34.5243 169.463L32.6613 175.811H35.2695L36.0147 170.957L59.8792 161.243L53.5451 169.09L52.4212 175.811H54.2903L54.6629 169.463L61.7483 161.99L72.9323 170.21L73.5431 175.829H76.2857L74.0501 169.837L62.4935 157.876L67.3373 134.334H82.2534L85.9855 126.861L35.6421 129.107L24.4581 77.9102L17 82.3969Z" fill="#009245"/>
</g>
<path d="M224.134 79.6671L209.554 132.743H175.397L180.002 157.742L206.096 169.274L208.014 175.811H205.333L204.563 170.816L180.002 160.814L186.526 168.894L187.674 175.811H185.756L185.371 169.274L178.084 161.586L166.57 170.045L165.941 175.829H163.113L165.416 169.659L177.315 157.356L172.324 133.123H156.975L153.139 125.435L204.948 127.742L216.462 75.0518L224.134 79.6671Z" fill="#FF7BAC"/>
<path d="M131.834 170.241L122.574 165.601L110.541 136.373L123.979 109.44L86.9387 112.225L92.9614 96.451H97.1271L98.9596 92.2764L95.7161 89.0261L100.81 77.8918H96.6446L92.0146 89.5219L72.0959 88.1263L55.891 70.9566V60.7283C61.9625 53.585 57.7235 37.0825 57.7235 37.0825C56.3552 22.2449 31.8127 27.3438 33.6696 44.0483C34.7629 53.9155 39.4112 60.5385 44.5604 62.9747L35.5203 128.954L100.798 124.314L81.814 174.422H83.2067L86.444 167.921L88.2764 174.881L98.4587 175.346L93.3645 165.142L104.958 146.118L123.478 174.887L123.942 174.428L121.163 169.323L127.179 172.108L131.834 170.241ZM51.7436 112.703L58.2243 95.5328H88.3192L81.8323 112.703H51.7436Z" fill="#FBB03B"/>
<path d="M208.827 40.1979C210.733 23.0037 185.475 17.7518 184.046 33.0362C184.046 33.0362 179.282 51.6566 186.905 58.3408C188.074 59.385 189.481 60.125 191.003 60.4954V60.4954L191.999 73.6986L181.737 82.6109L170.132 108.65C170.132 108.65 164.665 106.593 162.613 107.965C160.56 109.336 160.56 112.072 160.56 112.072L135.944 110.015L148.936 169.635C146.642 169.692 144.355 169.921 142.095 170.32C137.997 171.006 136.598 175.829 136.598 175.829H140.018C142.749 175.829 149.59 175.144 149.59 175.144V175.805H156.425L153.011 125.777L180.149 126.634L201.558 127.589L204.295 77.812L198.797 69.5852L198.925 58.9407C203.702 55.9781 207.794 49.4836 208.827 40.1979Z" fill="#662D91"/>
<path d="M43.7936 216.973C44.3216 216.973 44.7536 216.933 45.0896 216.853C45.4416 216.757 45.7216 216.637 45.9296 216.493C46.1376 216.333 46.2816 216.149 46.3616 215.941C46.4416 215.733 46.4816 215.501 46.4816 215.245C46.4816 214.701 46.2256 214.253 45.7136 213.901C45.2016 213.533 44.3216 213.141 43.0736 212.725C42.5296 212.533 41.9856 212.317 41.4416 212.077C40.8976 211.821 40.4096 211.509 39.9776 211.141C39.5456 210.757 39.1936 210.301 38.9216 209.773C38.6496 209.229 38.5136 208.573 38.5136 207.805C38.5136 207.037 38.6576 206.349 38.9456 205.741C39.2336 205.117 39.6416 204.589 40.1696 204.157C40.6976 203.725 41.3376 203.397 42.0896 203.173C42.8416 202.933 43.6896 202.813 44.6336 202.813C45.7536 202.813 46.7216 202.933 47.5376 203.173C48.3536 203.413 49.0256 203.677 49.5536 203.965L48.4736 206.917C48.0096 206.677 47.4896 206.469 46.9136 206.293C46.3536 206.101 45.6736 206.005 44.8736 206.005C43.9776 206.005 43.3296 206.133 42.9296 206.389C42.5456 206.629 42.3536 207.005 42.3536 207.517C42.3536 207.821 42.4256 208.077 42.5696 208.285C42.7136 208.493 42.9136 208.685 43.1696 208.861C43.4416 209.021 43.7456 209.173 44.0816 209.317C44.4336 209.445 44.8176 209.581 45.2336 209.725C46.0976 210.045 46.8496 210.365 47.4896 210.685C48.1296 210.989 48.6576 211.349 49.0736 211.765C49.5056 212.181 49.8256 212.669 50.0336 213.229C50.2416 213.789 50.3456 214.469 50.3456 215.269C50.3456 216.821 49.8016 218.029 48.7136 218.893C47.6256 219.741 45.9856 220.165 43.7936 220.165C43.0576 220.165 42.3936 220.117 41.8016 220.021C41.2096 219.941 40.6816 219.837 40.2176 219.709C39.7696 219.581 39.3776 219.445 39.0416 219.301C38.7216 219.157 38.4496 219.021 38.2256 218.893L39.2816 215.917C39.7776 216.189 40.3856 216.437 41.1056 216.661C41.8416 216.869 42.7376 216.973 43.7936 216.973Z" fill="#662D91"/>
<path d="M52.5663 213.613C52.5663 212.493 52.7343 211.517 53.0703 210.685C53.4223 209.837 53.8783 209.133 54.4383 208.573C54.9983 208.013 55.6383 207.589 56.3583 207.301C57.0943 207.013 57.8463 206.869 58.6143 206.869C60.4063 206.869 61.8223 207.421 62.8623 208.525C63.9023 209.613 64.4223 211.221 64.4223 213.349C64.4223 213.557 64.4143 213.789 64.3983 214.045C64.3823 214.285 64.3663 214.501 64.3503 214.693H56.2383C56.3183 215.429 56.6623 216.013 57.2703 216.445C57.8783 216.877 58.6943 217.093 59.7183 217.093C60.3743 217.093 61.0143 217.037 61.6383 216.925C62.2783 216.797 62.7983 216.645 63.1983 216.469L63.6783 219.373C63.4863 219.469 63.2303 219.565 62.9103 219.661C62.5903 219.757 62.2303 219.837 61.8303 219.901C61.4463 219.981 61.0303 220.045 60.5823 220.093C60.1343 220.141 59.6863 220.165 59.2383 220.165C58.1023 220.165 57.1103 219.997 56.2623 219.661C55.4303 219.325 54.7343 218.869 54.1743 218.293C53.6303 217.701 53.2223 217.005 52.9503 216.205C52.6943 215.405 52.5663 214.541 52.5663 213.613ZM60.9663 212.245C60.9503 211.941 60.8943 211.645 60.7983 211.357C60.7183 211.069 60.5823 210.813 60.3903 210.589C60.2143 210.365 59.9823 210.181 59.6943 210.037C59.4223 209.893 59.0783 209.821 58.6623 209.821C58.2623 209.821 57.9183 209.893 57.6303 210.037C57.3423 210.165 57.1023 210.341 56.9103 210.565C56.7183 210.789 56.5663 211.053 56.4543 211.357C56.3583 211.645 56.2863 211.941 56.2383 212.245H60.9663Z" fill="#662D91"/>
<path d="M67.362 207.637C67.97 207.461 68.754 207.301 69.714 207.157C70.674 206.997 71.682 206.917 72.738 206.917C73.81 206.917 74.698 207.061 75.402 207.349C76.122 207.621 76.69 208.013 77.106 208.525C77.522 209.037 77.818 209.645 77.994 210.349C78.17 211.053 78.258 211.837 78.258 212.701V219.829H74.682V213.133C74.682 211.981 74.53 211.165 74.226 210.685C73.922 210.205 73.354 209.965 72.522 209.965C72.266 209.965 71.994 209.981 71.706 210.013C71.418 210.029 71.162 210.053 70.938 210.085V219.829H67.362V207.637Z" fill="#662D91"/>
<path d="M85.2988 217.261C85.9548 217.261 86.4188 217.197 86.6908 217.069C86.9628 216.941 87.0988 216.693 87.0988 216.325C87.0988 216.037 86.9228 215.789 86.5708 215.581C86.2188 215.357 85.6828 215.109 84.9628 214.837C84.4028 214.629 83.8908 214.413 83.4268 214.189C82.9788 213.965 82.5948 213.701 82.2748 213.397C81.9548 213.077 81.7068 212.701 81.5308 212.269C81.3548 211.837 81.2668 211.317 81.2668 210.709C81.2668 209.525 81.7068 208.589 82.5868 207.901C83.4668 207.213 84.6748 206.869 86.2108 206.869C86.9788 206.869 87.7148 206.941 88.4188 207.085C89.1228 207.213 89.6828 207.357 90.0988 207.517L89.4748 210.301C89.0588 210.157 88.6028 210.029 88.1068 209.917C87.6268 209.805 87.0828 209.749 86.4748 209.749C85.3548 209.749 84.7948 210.061 84.7948 210.685C84.7948 210.829 84.8188 210.957 84.8668 211.069C84.9148 211.181 85.0108 211.293 85.1548 211.405C85.2988 211.501 85.4908 211.613 85.7308 211.741C85.9868 211.853 86.3068 211.981 86.6908 212.125C87.4748 212.413 88.1228 212.701 88.6348 212.989C89.1468 213.261 89.5468 213.565 89.8348 213.901C90.1388 214.221 90.3468 214.581 90.4588 214.981C90.5868 215.381 90.6508 215.845 90.6508 216.373C90.6508 217.621 90.1788 218.565 89.2348 219.205C88.3068 219.845 86.9868 220.165 85.2748 220.165C84.1548 220.165 83.2188 220.069 82.4668 219.877C81.7308 219.685 81.2188 219.525 80.9308 219.397L81.5308 216.493C82.1388 216.733 82.7628 216.925 83.4028 217.069C84.0428 217.197 84.6748 217.261 85.2988 217.261Z" fill="#662D91"/>
<path d="M97.0792 219.829H93.5032V207.205H97.0792V219.829ZM97.4152 203.557C97.4152 204.213 97.1992 204.733 96.7672 205.117C96.3512 205.485 95.8552 205.669 95.2792 205.669C94.7032 205.669 94.1992 205.485 93.7672 205.117C93.3512 204.733 93.1432 204.213 93.1432 203.557C93.1432 202.901 93.3512 202.389 93.7672 202.021C94.1992 201.637 94.7032 201.445 95.2792 201.445C95.8552 201.445 96.3512 201.637 96.7672 202.021C97.1992 202.389 97.4152 202.901 97.4152 203.557Z" fill="#662D91"/>
<path d="M108.709 213.421C108.709 211.117 107.861 209.965 106.165 209.965C105.797 209.965 105.429 210.013 105.061 210.109C104.709 210.205 104.421 210.325 104.197 210.469V216.973C104.373 217.005 104.597 217.037 104.869 217.069C105.141 217.085 105.437 217.093 105.757 217.093C106.733 217.093 107.469 216.757 107.965 216.085C108.461 215.413 108.709 214.525 108.709 213.421ZM112.357 213.517C112.357 214.525 112.205 215.437 111.901 216.253C111.613 217.069 111.189 217.765 110.629 218.341C110.069 218.917 109.381 219.365 108.565 219.685C107.749 219.989 106.821 220.141 105.781 220.141C105.349 220.141 104.893 220.117 104.413 220.069C103.949 220.037 103.485 219.989 103.021 219.925C102.573 219.861 102.141 219.789 101.725 219.709C101.309 219.613 100.941 219.517 100.621 219.421V201.781L104.197 201.205V207.493C104.597 207.317 105.013 207.181 105.445 207.085C105.877 206.989 106.341 206.941 106.837 206.941C107.733 206.941 108.525 207.101 109.213 207.421C109.901 207.725 110.477 208.165 110.941 208.741C111.405 209.317 111.757 210.013 111.997 210.829C112.237 211.629 112.357 212.525 112.357 213.517Z" fill="#662D91"/>
<path d="M120.325 220.069C119.285 220.053 118.437 219.941 117.781 219.733C117.141 219.525 116.629 219.237 116.245 218.869C115.877 218.485 115.621 218.029 115.477 217.501C115.349 216.957 115.285 216.349 115.285 215.677V201.781L118.861 201.205V214.957C118.861 215.277 118.885 215.565 118.933 215.821C118.981 216.077 119.069 216.293 119.197 216.469C119.341 216.645 119.541 216.789 119.797 216.901C120.053 217.013 120.397 217.085 120.829 217.117L120.325 220.069Z" fill="#662D91"/>
<path d="M122.459 213.613C122.459 212.493 122.627 211.517 122.963 210.685C123.315 209.837 123.771 209.133 124.331 208.573C124.891 208.013 125.531 207.589 126.251 207.301C126.987 207.013 127.739 206.869 128.507 206.869C130.299 206.869 131.715 207.421 132.755 208.525C133.795 209.613 134.315 211.221 134.315 213.349C134.315 213.557 134.307 213.789 134.291 214.045C134.275 214.285 134.259 214.501 134.243 214.693H126.131C126.211 215.429 126.555 216.013 127.163 216.445C127.771 216.877 128.587 217.093 129.611 217.093C130.267 217.093 130.907 217.037 131.531 216.925C132.171 216.797 132.691 216.645 133.091 216.469L133.571 219.373C133.379 219.469 133.123 219.565 132.803 219.661C132.483 219.757 132.123 219.837 131.723 219.901C131.339 219.981 130.923 220.045 130.475 220.093C130.027 220.141 129.579 220.165 129.131 220.165C127.995 220.165 127.003 219.997 126.155 219.661C125.323 219.325 124.627 218.869 124.067 218.293C123.523 217.701 123.115 217.005 122.843 216.205C122.587 215.405 122.459 214.541 122.459 213.613ZM130.859 212.245C130.843 211.941 130.787 211.645 130.691 211.357C130.611 211.069 130.475 210.813 130.283 210.589C130.107 210.365 129.875 210.181 129.587 210.037C129.315 209.893 128.971 209.821 128.555 209.821C128.155 209.821 127.811 209.893 127.523 210.037C127.235 210.165 126.995 210.341 126.803 210.565C126.611 210.789 126.459 211.053 126.347 211.357C126.251 211.645 126.179 211.941 126.131 212.245H130.859Z" fill="#662D91"/>
<path d="M148.024 217.333C148.376 217.333 148.712 217.325 149.032 217.309C149.352 217.293 149.608 217.269 149.8 217.237V214.525C149.656 214.493 149.44 214.461 149.152 214.429C148.864 214.397 148.6 214.381 148.36 214.381C148.024 214.381 147.704 214.405 147.4 214.453C147.112 214.485 146.856 214.557 146.632 214.669C146.408 214.781 146.232 214.933 146.104 215.125C145.976 215.317 145.912 215.557 145.912 215.845C145.912 216.405 146.096 216.797 146.464 217.021C146.848 217.229 147.368 217.333 148.024 217.333ZM147.736 206.869C148.792 206.869 149.672 206.989 150.376 207.229C151.08 207.469 151.64 207.813 152.056 208.261C152.488 208.709 152.792 209.253 152.968 209.893C153.144 210.533 153.232 211.245 153.232 212.029V219.469C152.72 219.581 152.008 219.709 151.096 219.853C150.184 220.013 149.08 220.093 147.784 220.093C146.968 220.093 146.224 220.021 145.552 219.877C144.896 219.733 144.328 219.501 143.848 219.181C143.368 218.845 143 218.413 142.744 217.885C142.488 217.357 142.36 216.709 142.36 215.941C142.36 215.205 142.504 214.581 142.792 214.069C143.096 213.557 143.496 213.149 143.992 212.845C144.488 212.541 145.056 212.325 145.696 212.197C146.336 212.053 147 211.981 147.688 211.981C148.152 211.981 148.56 212.005 148.912 212.053C149.28 212.085 149.576 212.133 149.8 212.197V211.861C149.8 211.253 149.616 210.765 149.248 210.397C148.88 210.029 148.24 209.845 147.328 209.845C146.72 209.845 146.12 209.893 145.528 209.989C144.936 210.069 144.424 210.189 143.992 210.349L143.536 207.469C143.744 207.405 144 207.341 144.304 207.277C144.624 207.197 144.968 207.133 145.336 207.085C145.704 207.021 146.088 206.973 146.488 206.941C146.904 206.893 147.32 206.869 147.736 206.869Z" fill="#662D91"/>
<path d="M162.471 204.061L166.047 203.485V207.205H170.343V210.181H166.047V214.621C166.047 215.373 166.175 215.973 166.431 216.421C166.703 216.869 167.239 217.093 168.039 217.093C168.423 217.093 168.815 217.061 169.215 216.997C169.631 216.917 170.007 216.813 170.343 216.685L170.847 219.469C170.415 219.645 169.935 219.797 169.407 219.925C168.879 220.053 168.231 220.117 167.463 220.117C166.487 220.117 165.679 219.989 165.039 219.733C164.399 219.461 163.887 219.093 163.503 218.629C163.119 218.149 162.847 217.573 162.687 216.901C162.543 216.229 162.471 215.485 162.471 214.669V204.061Z" fill="#662D91"/>
<path d="M184.211 219.397C183.603 219.573 182.819 219.733 181.859 219.877C180.899 220.037 179.891 220.117 178.835 220.117C177.763 220.117 176.867 219.973 176.147 219.685C175.443 219.397 174.883 218.997 174.467 218.485C174.051 217.957 173.755 217.333 173.579 216.613C173.403 215.893 173.315 215.101 173.315 214.237V207.205H176.891V213.805C176.891 214.957 177.043 215.789 177.347 216.301C177.651 216.813 178.219 217.069 179.051 217.069C179.307 217.069 179.579 217.061 179.867 217.045C180.155 217.013 180.411 216.981 180.635 216.949V207.205H184.211V219.397Z" fill="#662D91"/>
<path d="M191.372 217.261C192.028 217.261 192.492 217.197 192.764 217.069C193.036 216.941 193.172 216.693 193.172 216.325C193.172 216.037 192.996 215.789 192.644 215.581C192.292 215.357 191.756 215.109 191.036 214.837C190.476 214.629 189.964 214.413 189.5 214.189C189.052 213.965 188.668 213.701 188.348 213.397C188.028 213.077 187.78 212.701 187.604 212.269C187.428 211.837 187.34 211.317 187.34 210.709C187.34 209.525 187.78 208.589 188.66 207.901C189.54 207.213 190.748 206.869 192.284 206.869C193.052 206.869 193.788 206.941 194.492 207.085C195.196 207.213 195.756 207.357 196.172 207.517L195.548 210.301C195.132 210.157 194.676 210.029 194.18 209.917C193.7 209.805 193.156 209.749 192.548 209.749C191.428 209.749 190.868 210.061 190.868 210.685C190.868 210.829 190.892 210.957 190.94 211.069C190.988 211.181 191.084 211.293 191.228 211.405C191.372 211.501 191.564 211.613 191.804 211.741C192.06 211.853 192.38 211.981 192.764 212.125C193.548 212.413 194.196 212.701 194.708 212.989C195.22 213.261 195.62 213.565 195.908 213.901C196.212 214.221 196.42 214.581 196.532 214.981C196.66 215.381 196.724 215.845 196.724 216.373C196.724 217.621 196.252 218.565 195.308 219.205C194.38 219.845 193.06 220.165 191.348 220.165C190.228 220.165 189.292 220.069 188.54 219.877C187.804 219.685 187.292 219.525 187.004 219.397L187.604 216.493C188.212 216.733 188.836 216.925 189.476 217.069C190.116 217.197 190.748 217.261 191.372 217.261Z" fill="#662D91"/>
<path d="M64.2187 237.421C64.2187 238.525 64.4667 239.413 64.9627 240.085C65.4587 240.757 66.1947 241.093 67.1707 241.093C67.4907 241.093 67.7867 241.085 68.0587 241.069C68.3307 241.037 68.5547 241.005 68.7307 240.973V234.469C68.5067 234.325 68.2107 234.205 67.8427 234.109C67.4907 234.013 67.1307 233.965 66.7627 233.965C65.0667 233.965 64.2187 235.117 64.2187 237.421ZM72.3067 243.421C71.9867 243.517 71.6187 243.613 71.2027 243.709C70.7867 243.789 70.3467 243.861 69.8827 243.925C69.4347 243.989 68.9707 244.037 68.4907 244.069C68.0267 244.117 67.5787 244.141 67.1467 244.141C66.1067 244.141 65.1787 243.989 64.3627 243.685C63.5467 243.381 62.8587 242.949 62.2987 242.389C61.7387 241.813 61.3067 241.125 61.0027 240.325C60.7147 239.509 60.5707 238.597 60.5707 237.589C60.5707 236.565 60.6987 235.645 60.9547 234.829C61.2107 233.997 61.5787 233.293 62.0587 232.717C62.5387 232.141 63.1227 231.701 63.8107 231.397C64.5147 231.093 65.3147 230.941 66.2107 230.941C66.7067 230.941 67.1467 230.989 67.5307 231.085C67.9307 231.181 68.3307 231.317 68.7307 231.493V225.781L72.3067 225.205V243.421Z" fill="#662D91"/>
<path d="M75.2351 237.613C75.2351 236.493 75.4031 235.517 75.7391 234.685C76.0911 233.837 76.5471 233.133 77.1071 232.573C77.6671 232.013 78.3071 231.589 79.0271 231.301C79.7631 231.013 80.5151 230.869 81.2831 230.869C83.0751 230.869 84.4911 231.421 85.5311 232.525C86.5711 233.613 87.0911 235.221 87.0911 237.349C87.0911 237.557 87.0831 237.789 87.0671 238.045C87.0511 238.285 87.0351 238.501 87.0191 238.693H78.9071C78.9871 239.429 79.3311 240.013 79.9391 240.445C80.5471 240.877 81.3631 241.093 82.3871 241.093C83.0431 241.093 83.6831 241.037 84.3071 240.925C84.9471 240.797 85.4671 240.645 85.8671 240.469L86.3471 243.373C86.1551 243.469 85.8991 243.565 85.5791 243.661C85.2591 243.757 84.8991 243.837 84.4991 243.901C84.1151 243.981 83.6991 244.045 83.2511 244.093C82.8031 244.141 82.3551 244.165 81.9071 244.165C80.7711 244.165 79.7791 243.997 78.9311 243.661C78.0991 243.325 77.4031 242.869 76.8431 242.293C76.2991 241.701 75.8911 241.005 75.6191 240.205C75.3631 239.405 75.2351 238.541 75.2351 237.613ZM83.6351 236.245C83.6191 235.941 83.5631 235.645 83.4671 235.357C83.3871 235.069 83.2511 234.813 83.0591 234.589C82.8831 234.365 82.6511 234.181 82.3631 234.037C82.0911 233.893 81.7471 233.821 81.3311 233.821C80.9311 233.821 80.5871 233.893 80.2991 234.037C80.0111 234.165 79.7711 234.341 79.5791 234.565C79.3871 234.789 79.2351 235.053 79.1231 235.357C79.0271 235.645 78.9551 235.941 78.9071 236.245H83.6351Z" fill="#662D91"/>
<path d="M89.4307 237.517C89.4307 236.605 89.5747 235.749 89.8627 234.949C90.1667 234.133 90.5987 233.429 91.1587 232.837C91.7187 232.229 92.3987 231.749 93.1987 231.397C93.9987 231.045 94.9107 230.869 95.9347 230.869C96.6067 230.869 97.2227 230.933 97.7827 231.061C98.3427 231.173 98.8867 231.341 99.4147 231.565L98.6707 234.421C98.3347 234.293 97.9667 234.181 97.5667 234.085C97.1667 233.989 96.7187 233.941 96.2227 233.941C95.1667 233.941 94.3747 234.269 93.8467 234.925C93.3347 235.581 93.0787 236.445 93.0787 237.517C93.0787 238.653 93.3187 239.533 93.7987 240.157C94.2947 240.781 95.1507 241.093 96.3667 241.093C96.7987 241.093 97.2627 241.053 97.7587 240.973C98.2547 240.893 98.7107 240.765 99.1267 240.589L99.6307 243.517C99.2147 243.693 98.6947 243.845 98.0707 243.973C97.4467 244.101 96.7587 244.165 96.0067 244.165C94.8547 244.165 93.8627 243.997 93.0307 243.661C92.1987 243.309 91.5107 242.837 90.9667 242.245C90.4387 241.653 90.0467 240.957 89.7907 240.157C89.5507 239.341 89.4307 238.461 89.4307 237.517Z" fill="#662D91"/>
<path d="M105.787 243.829H102.211V231.205H105.787V243.829ZM106.123 227.557C106.123 228.213 105.907 228.733 105.475 229.117C105.059 229.485 104.563 229.669 103.987 229.669C103.411 229.669 102.907 229.485 102.475 229.117C102.059 228.733 101.851 228.213 101.851 227.557C101.851 226.901 102.059 226.389 102.475 226.021C102.907 225.637 103.411 225.445 103.987 225.445C104.563 225.445 105.059 225.637 105.475 226.021C105.907 226.389 106.123 226.901 106.123 227.557Z" fill="#662D91"/>
<path d="M112.952 241.261C113.608 241.261 114.072 241.197 114.344 241.069C114.616 240.941 114.752 240.693 114.752 240.325C114.752 240.037 114.576 239.789 114.224 239.581C113.872 239.357 113.336 239.109 112.616 238.837C112.056 238.629 111.544 238.413 111.08 238.189C110.632 237.965 110.248 237.701 109.928 237.397C109.608 237.077 109.36 236.701 109.184 236.269C109.008 235.837 108.92 235.317 108.92 234.709C108.92 233.525 109.36 232.589 110.24 231.901C111.12 231.213 112.328 230.869 113.864 230.869C114.632 230.869 115.368 230.941 116.072 231.085C116.776 231.213 117.336 231.357 117.752 231.517L117.128 234.301C116.712 234.157 116.256 234.029 115.76 233.917C115.28 233.805 114.736 233.749 114.128 233.749C113.008 233.749 112.448 234.061 112.448 234.685C112.448 234.829 112.472 234.957 112.52 235.069C112.568 235.181 112.664 235.293 112.808 235.405C112.952 235.501 113.144 235.613 113.384 235.741C113.64 235.853 113.96 235.981 114.344 236.125C115.128 236.413 115.776 236.701 116.288 236.989C116.8 237.261 117.2 237.565 117.488 237.901C117.792 238.221 118 238.581 118.112 238.981C118.24 239.381 118.304 239.845 118.304 240.373C118.304 241.621 117.832 242.565 116.888 243.205C115.96 243.845 114.64 244.165 112.928 244.165C111.808 244.165 110.872 244.069 110.12 243.877C109.384 243.685 108.872 243.525 108.584 243.397L109.184 240.493C109.792 240.733 110.416 240.925 111.056 241.069C111.696 241.197 112.328 241.261 112.952 241.261Z" fill="#662D91"/>
<path d="M124.733 243.829H121.157V231.205H124.733V243.829ZM125.069 227.557C125.069 228.213 124.853 228.733 124.421 229.117C124.005 229.485 123.509 229.669 122.933 229.669C122.357 229.669 121.853 229.485 121.421 229.117C121.005 228.733 120.797 228.213 120.797 227.557C120.797 226.901 121.005 226.389 121.421 226.021C121.853 225.637 122.357 225.445 122.933 225.445C123.509 225.445 124.005 225.637 124.421 226.021C124.853 226.389 125.069 226.901 125.069 227.557Z" fill="#662D91"/>
<path d="M140.082 237.493C140.082 238.485 139.938 239.397 139.65 240.229C139.362 241.045 138.946 241.749 138.402 242.341C137.858 242.917 137.202 243.365 136.434 243.685C135.682 244.005 134.834 244.165 133.89 244.165C132.962 244.165 132.114 244.005 131.346 243.685C130.594 243.365 129.946 242.917 129.402 242.341C128.858 241.749 128.434 241.045 128.13 240.229C127.826 239.397 127.674 238.485 127.674 237.493C127.674 236.501 127.826 235.597 128.13 234.781C128.45 233.965 128.882 233.269 129.426 232.693C129.986 232.117 130.642 231.669 131.394 231.349C132.162 231.029 132.994 230.869 133.89 230.869C134.802 230.869 135.634 231.029 136.386 231.349C137.154 231.669 137.81 232.117 138.354 232.693C138.898 233.269 139.322 233.965 139.626 234.781C139.93 235.597 140.082 236.501 140.082 237.493ZM136.434 237.493C136.434 236.389 136.21 235.525 135.762 234.901C135.33 234.261 134.706 233.941 133.89 233.941C133.074 233.941 132.442 234.261 131.994 234.901C131.546 235.525 131.322 236.389 131.322 237.493C131.322 238.597 131.546 239.477 131.994 240.133C132.442 240.773 133.074 241.093 133.89 241.093C134.706 241.093 135.33 240.773 135.762 240.133C136.21 239.477 136.434 238.597 136.434 237.493Z" fill="#662D91"/>
<path d="M143.032 231.637C143.64 231.461 144.424 231.301 145.384 231.157C146.344 230.997 147.352 230.917 148.408 230.917C149.48 230.917 150.368 231.061 151.072 231.349C151.792 231.621 152.36 232.013 152.776 232.525C153.192 233.037 153.488 233.645 153.664 234.349C153.84 235.053 153.928 235.837 153.928 236.701V243.829H150.352V237.133C150.352 235.981 150.2 235.165 149.896 234.685C149.592 234.205 149.024 233.965 148.192 233.965C147.936 233.965 147.664 233.981 147.376 234.013C147.088 234.029 146.832 234.053 146.608 234.085V243.829H143.032V231.637Z" fill="#662D91"/>
<path d="M156.745 237.613C156.745 236.493 156.913 235.517 157.249 234.685C157.601 233.837 158.057 233.133 158.617 232.573C159.177 232.013 159.817 231.589 160.537 231.301C161.273 231.013 162.025 230.869 162.793 230.869C164.585 230.869 166.001 231.421 167.041 232.525C168.081 233.613 168.601 235.221 168.601 237.349C168.601 237.557 168.593 237.789 168.577 238.045C168.561 238.285 168.545 238.501 168.529 238.693H160.417C160.497 239.429 160.841 240.013 161.449 240.445C162.057 240.877 162.873 241.093 163.897 241.093C164.553 241.093 165.193 241.037 165.817 240.925C166.457 240.797 166.977 240.645 167.377 240.469L167.857 243.373C167.665 243.469 167.409 243.565 167.089 243.661C166.769 243.757 166.409 243.837 166.009 243.901C165.625 243.981 165.209 244.045 164.761 244.093C164.313 244.141 163.865 244.165 163.417 244.165C162.281 244.165 161.289 243.997 160.441 243.661C159.609 243.325 158.913 242.869 158.353 242.293C157.809 241.701 157.401 241.005 157.129 240.205C156.873 239.405 156.745 238.541 156.745 237.613ZM165.145 236.245C165.129 235.941 165.073 235.645 164.977 235.357C164.897 235.069 164.761 234.813 164.569 234.589C164.393 234.365 164.161 234.181 163.873 234.037C163.601 233.893 163.257 233.821 162.841 233.821C162.441 233.821 162.097 233.893 161.809 234.037C161.521 234.165 161.281 234.341 161.089 234.565C160.897 234.789 160.745 235.053 160.633 235.357C160.537 235.645 160.465 235.941 160.417 236.245H165.145Z" fill="#662D91"/>
<path d="M175.165 241.261C175.821 241.261 176.285 241.197 176.557 241.069C176.829 240.941 176.965 240.693 176.965 240.325C176.965 240.037 176.789 239.789 176.437 239.581C176.085 239.357 175.549 239.109 174.829 238.837C174.269 238.629 173.757 238.413 173.293 238.189C172.845 237.965 172.461 237.701 172.141 237.397C171.821 237.077 171.573 236.701 171.397 236.269C171.221 235.837 171.133 235.317 171.133 234.709C171.133 233.525 171.573 232.589 172.453 231.901C173.333 231.213 174.541 230.869 176.077 230.869C176.845 230.869 177.581 230.941 178.285 231.085C178.989 231.213 179.549 231.357 179.965 231.517L179.341 234.301C178.925 234.157 178.469 234.029 177.973 233.917C177.493 233.805 176.949 233.749 176.341 233.749C175.221 233.749 174.661 234.061 174.661 234.685C174.661 234.829 174.685 234.957 174.733 235.069C174.781 235.181 174.877 235.293 175.021 235.405C175.165 235.501 175.357 235.613 175.597 235.741C175.853 235.853 176.173 235.981 176.557 236.125C177.341 236.413 177.989 236.701 178.501 236.989C179.013 237.261 179.413 237.565 179.701 237.901C180.005 238.221 180.213 238.581 180.325 238.981C180.453 239.381 180.517 239.845 180.517 240.373C180.517 241.621 180.045 242.565 179.101 243.205C178.173 243.845 176.853 244.165 175.141 244.165C174.021 244.165 173.085 244.069 172.333 243.877C171.597 243.685 171.085 243.525 170.797 243.397L171.397 240.493C172.005 240.733 172.629 240.925 173.269 241.069C173.909 241.197 174.541 241.261 175.165 241.261Z" fill="#662D91"/>
</svg>
