<svg width="242" height="270" viewBox="0 0 242 270" fill="none" xmlns="http://www.w3.org/2000/svg">
<rect width="242" height="270" fill="white"/>
<path d="M115.603 172.769L174.388 108.64L128.073 71.2319L72.8506 119.922L115.603 172.769Z" fill="#FF92E8"/>
<path d="M175.278 115.765L102.54 51.043L67.8035 16.0098L20.5977 59.356L125.401 183.16L134.901 171.581L109.071 132.391L139.651 166.237L149.152 156.737L125.401 123.485L155.387 151.096L166.372 140.111L139.651 108.64L166.372 132.391L175.278 115.765Z" fill="#304F9D"/>
<path d="M177.653 16.0098L221 61.4342L171.419 112.203L134.01 78.654L106.993 86.0763L90.6641 69.7472L125.994 61.4342L177.653 16.0098Z" fill="#FF92E8"/>
<path d="M83.2421 101.218L67.8037 124.375C67.8037 129.838 99.0763 159.31 114.713 173.363L141.136 158.815L132.823 147.533L102.243 158.815L128.073 143.97L118.572 135.657L92.1489 147.533L114.713 131.204L102.243 117.547L80.2732 135.657L98.9774 113.093L83.2421 101.218Z" fill="#FF92E8"/>
<path d="M40.1533 209.176C42.6493 209.176 44.5612 209.624 45.8892 210.52C47.2172 211.4 47.8813 212.776 47.8813 214.648C47.8813 215.816 47.6093 216.768 47.0653 217.504C46.5373 218.224 45.7693 218.792 44.7613 219.208C45.0973 219.624 45.4493 220.104 45.8173 220.648C46.1853 221.176 46.5453 221.736 46.8973 222.328C47.2653 222.904 47.6173 223.512 47.9533 224.152C48.2893 224.776 48.6012 225.392 48.8892 226H44.6893C44.3853 225.456 44.0732 224.904 43.7533 224.344C43.4493 223.784 43.1293 223.24 42.7933 222.712C42.4733 222.184 42.1533 221.688 41.8333 221.224C41.5132 220.744 41.1933 220.312 40.8733 219.928H39.0253V226H35.2812V209.608C36.0973 209.448 36.9373 209.336 37.8012 209.272C38.6813 209.208 39.4653 209.176 40.1533 209.176ZM40.3693 212.368C40.0972 212.368 39.8492 212.376 39.6252 212.392C39.4172 212.408 39.2173 212.424 39.0253 212.44V216.952H40.0813C41.4893 216.952 42.4973 216.776 43.1053 216.424C43.7133 216.072 44.0173 215.472 44.0173 214.624C44.0173 213.808 43.7053 213.232 43.0813 212.896C42.4733 212.544 41.5693 212.368 40.3693 212.368Z" fill="#662D91"/>
<path d="M50.0197 219.784C50.0197 218.664 50.1877 217.688 50.5237 216.856C50.8757 216.008 51.3317 215.304 51.8917 214.744C52.4517 214.184 53.0917 213.76 53.8117 213.472C54.5477 213.184 55.2997 213.04 56.0677 213.04C57.8597 213.04 59.2757 213.592 60.3157 214.696C61.3557 215.784 61.8757 217.392 61.8757 219.52C61.8757 219.728 61.8677 219.96 61.8517 220.216C61.8357 220.456 61.8197 220.672 61.8037 220.864H53.6917C53.7717 221.6 54.1157 222.184 54.7237 222.616C55.3317 223.048 56.1477 223.264 57.1717 223.264C57.8277 223.264 58.4677 223.208 59.0917 223.096C59.7317 222.968 60.2517 222.816 60.6517 222.64L61.1317 225.544C60.9397 225.64 60.6837 225.736 60.3637 225.832C60.0437 225.928 59.6837 226.008 59.2837 226.072C58.8997 226.152 58.4837 226.216 58.0357 226.264C57.5877 226.312 57.1397 226.336 56.6917 226.336C55.5557 226.336 54.5637 226.168 53.7157 225.832C52.8837 225.496 52.1877 225.04 51.6277 224.464C51.0837 223.872 50.6757 223.176 50.4037 222.376C50.1477 221.576 50.0197 220.712 50.0197 219.784ZM58.4197 218.416C58.4037 218.112 58.3477 217.816 58.2517 217.528C58.1717 217.24 58.0357 216.984 57.8437 216.76C57.6677 216.536 57.4357 216.352 57.1477 216.208C56.8757 216.064 56.5317 215.992 56.1157 215.992C55.7157 215.992 55.3717 216.064 55.0837 216.208C54.7957 216.336 54.5557 216.512 54.3637 216.736C54.1717 216.96 54.0197 217.224 53.9077 217.528C53.8117 217.816 53.7397 218.112 53.6917 218.416H58.4197Z" fill="#662D91"/>
<path d="M68.4393 223.432C69.0953 223.432 69.5593 223.368 69.8313 223.24C70.1033 223.112 70.2393 222.864 70.2393 222.496C70.2393 222.208 70.0633 221.96 69.7113 221.752C69.3593 221.528 68.8233 221.28 68.1033 221.008C67.5433 220.8 67.0313 220.584 66.5673 220.36C66.1193 220.136 65.7353 219.872 65.4153 219.568C65.0953 219.248 64.8473 218.872 64.6713 218.44C64.4953 218.008 64.4073 217.488 64.4073 216.88C64.4073 215.696 64.8473 214.76 65.7273 214.072C66.6073 213.384 67.8153 213.04 69.3513 213.04C70.1193 213.04 70.8553 213.112 71.5593 213.256C72.2633 213.384 72.8233 213.528 73.2393 213.688L72.6153 216.472C72.1993 216.328 71.7433 216.2 71.2473 216.088C70.7673 215.976 70.2233 215.92 69.6153 215.92C68.4953 215.92 67.9353 216.232 67.9353 216.856C67.9353 217 67.9593 217.128 68.0073 217.24C68.0553 217.352 68.1513 217.464 68.2953 217.576C68.4393 217.672 68.6313 217.784 68.8713 217.912C69.1273 218.024 69.4473 218.152 69.8313 218.296C70.6153 218.584 71.2633 218.872 71.7753 219.16C72.2873 219.432 72.6873 219.736 72.9753 220.072C73.2793 220.392 73.4873 220.752 73.5993 221.152C73.7273 221.552 73.7913 222.016 73.7913 222.544C73.7913 223.792 73.3193 224.736 72.3753 225.376C71.4473 226.016 70.1273 226.336 68.4153 226.336C67.2953 226.336 66.3593 226.24 65.6073 226.048C64.8713 225.856 64.3593 225.696 64.0713 225.568L64.6713 222.664C65.2793 222.904 65.9033 223.096 66.5433 223.24C67.1833 223.368 67.8153 223.432 68.4393 223.432Z" fill="#662D91"/>
<path d="M84.7318 219.784C84.7318 218.68 84.4838 217.8 83.9878 217.144C83.4918 216.472 82.7558 216.136 81.7798 216.136C81.4598 216.136 81.1638 216.152 80.8918 216.184C80.6198 216.2 80.3957 216.224 80.2197 216.256V222.712C80.4437 222.856 80.7317 222.976 81.0837 223.072C81.4517 223.168 81.8198 223.216 82.1878 223.216C83.8838 223.216 84.7318 222.072 84.7318 219.784ZM88.3798 219.688C88.3798 220.664 88.2598 221.552 88.0198 222.352C87.7798 223.152 87.4278 223.84 86.9638 224.416C86.4998 224.992 85.9237 225.44 85.2357 225.76C84.5477 226.08 83.7557 226.24 82.8597 226.24C82.3637 226.24 81.8998 226.192 81.4678 226.096C81.0358 226 80.6197 225.864 80.2197 225.688V230.44H76.6438V213.808C76.9638 213.712 77.3317 213.624 77.7477 213.544C78.1637 213.448 78.5958 213.368 79.0438 213.304C79.5078 213.24 79.9718 213.192 80.4358 213.16C80.9158 213.112 81.3717 213.088 81.8037 213.088C82.8437 213.088 83.7718 213.248 84.5878 213.568C85.4038 213.872 86.0917 214.312 86.6517 214.888C87.2117 215.448 87.6358 216.136 87.9238 216.952C88.2278 217.768 88.3798 218.68 88.3798 219.688Z" fill="#662D91"/>
<path d="M90.7081 219.784C90.7081 218.664 90.8761 217.688 91.2121 216.856C91.5641 216.008 92.0201 215.304 92.5801 214.744C93.1401 214.184 93.7801 213.76 94.5001 213.472C95.2361 213.184 95.9881 213.04 96.7561 213.04C98.5481 213.04 99.9641 213.592 101.004 214.696C102.044 215.784 102.564 217.392 102.564 219.52C102.564 219.728 102.556 219.96 102.54 220.216C102.524 220.456 102.508 220.672 102.492 220.864H94.3801C94.4601 221.6 94.8041 222.184 95.4121 222.616C96.0201 223.048 96.8361 223.264 97.8601 223.264C98.5161 223.264 99.1561 223.208 99.7801 223.096C100.42 222.968 100.94 222.816 101.34 222.64L101.82 225.544C101.628 225.64 101.372 225.736 101.052 225.832C100.732 225.928 100.372 226.008 99.9721 226.072C99.5881 226.152 99.1721 226.216 98.7241 226.264C98.2761 226.312 97.8281 226.336 97.3801 226.336C96.2441 226.336 95.2521 226.168 94.4041 225.832C93.5721 225.496 92.8761 225.04 92.3161 224.464C91.7721 223.872 91.3641 223.176 91.0921 222.376C90.8361 221.576 90.7081 220.712 90.7081 219.784ZM99.1081 218.416C99.0921 218.112 99.0361 217.816 98.9401 217.528C98.8601 217.24 98.7241 216.984 98.5321 216.76C98.3561 216.536 98.1241 216.352 97.8361 216.208C97.5641 216.064 97.2201 215.992 96.8041 215.992C96.4041 215.992 96.0601 216.064 95.7721 216.208C95.4841 216.336 95.2441 216.512 95.0521 216.736C94.8601 216.96 94.7081 217.224 94.5961 217.528C94.5001 217.816 94.4281 218.112 94.3801 218.416H99.1081Z" fill="#662D91"/>
<path d="M105.384 210.232L108.96 209.656V213.376H113.256V216.352H108.96V220.792C108.96 221.544 109.088 222.144 109.344 222.592C109.616 223.04 110.152 223.264 110.952 223.264C111.336 223.264 111.728 223.232 112.128 223.168C112.544 223.088 112.92 222.984 113.256 222.856L113.76 225.64C113.328 225.816 112.848 225.968 112.32 226.096C111.792 226.224 111.144 226.288 110.376 226.288C109.4 226.288 108.592 226.16 107.952 225.904C107.312 225.632 106.8 225.264 106.416 224.8C106.032 224.32 105.76 223.744 105.6 223.072C105.456 222.4 105.384 221.656 105.384 220.84V210.232Z" fill="#662D91"/>
<path d="M127.124 225.568C126.516 225.744 125.732 225.904 124.772 226.048C123.812 226.208 122.804 226.288 121.748 226.288C120.676 226.288 119.78 226.144 119.06 225.856C118.356 225.568 117.796 225.168 117.38 224.656C116.964 224.128 116.668 223.504 116.492 222.784C116.316 222.064 116.228 221.272 116.228 220.408V213.376H119.804V219.976C119.804 221.128 119.956 221.96 120.26 222.472C120.564 222.984 121.132 223.24 121.964 223.24C122.22 223.24 122.492 223.232 122.78 223.216C123.068 223.184 123.324 223.152 123.548 223.12V213.376H127.124V225.568Z" fill="#662D91"/>
<path d="M142.469 219.664C142.469 220.656 142.325 221.568 142.037 222.4C141.749 223.216 141.333 223.92 140.789 224.512C140.245 225.088 139.589 225.536 138.821 225.856C138.069 226.176 137.221 226.336 136.277 226.336C135.349 226.336 134.501 226.176 133.733 225.856C132.981 225.536 132.333 225.088 131.789 224.512C131.245 223.92 130.821 223.216 130.517 222.4C130.213 221.568 130.061 220.656 130.061 219.664C130.061 218.672 130.213 217.768 130.517 216.952C130.837 216.136 131.269 215.44 131.813 214.864C132.373 214.288 133.029 213.84 133.781 213.52C134.549 213.2 135.381 213.04 136.277 213.04C137.189 213.04 138.021 213.2 138.773 213.52C139.541 213.84 140.197 214.288 140.741 214.864C141.285 215.44 141.709 216.136 142.013 216.952C142.317 217.768 142.469 218.672 142.469 219.664ZM138.821 219.664C138.821 218.56 138.597 217.696 138.149 217.072C137.717 216.432 137.093 216.112 136.277 216.112C135.461 216.112 134.829 216.432 134.381 217.072C133.933 217.696 133.709 218.56 133.709 219.664C133.709 220.768 133.933 221.648 134.381 222.304C134.829 222.944 135.461 223.264 136.277 223.264C137.093 223.264 137.717 222.944 138.149 222.304C138.597 221.648 138.821 220.768 138.821 219.664Z" fill="#662D91"/>
<path d="M149.043 223.432C149.699 223.432 150.163 223.368 150.435 223.24C150.707 223.112 150.843 222.864 150.843 222.496C150.843 222.208 150.667 221.96 150.315 221.752C149.963 221.528 149.427 221.28 148.707 221.008C148.147 220.8 147.635 220.584 147.171 220.36C146.723 220.136 146.339 219.872 146.019 219.568C145.699 219.248 145.451 218.872 145.275 218.44C145.099 218.008 145.011 217.488 145.011 216.88C145.011 215.696 145.451 214.76 146.331 214.072C147.211 213.384 148.419 213.04 149.955 213.04C150.723 213.04 151.459 213.112 152.163 213.256C152.867 213.384 153.427 213.528 153.843 213.688L153.219 216.472C152.803 216.328 152.347 216.2 151.851 216.088C151.371 215.976 150.827 215.92 150.219 215.92C149.099 215.92 148.539 216.232 148.539 216.856C148.539 217 148.563 217.128 148.611 217.24C148.659 217.352 148.755 217.464 148.899 217.576C149.043 217.672 149.235 217.784 149.475 217.912C149.731 218.024 150.051 218.152 150.435 218.296C151.219 218.584 151.867 218.872 152.379 219.16C152.891 219.432 153.291 219.736 153.579 220.072C153.883 220.392 154.091 220.752 154.203 221.152C154.331 221.552 154.395 222.016 154.395 222.544C154.395 223.792 153.923 224.736 152.979 225.376C152.051 226.016 150.731 226.336 149.019 226.336C147.899 226.336 146.963 226.24 146.211 226.048C145.475 225.856 144.963 225.696 144.675 225.568L145.275 222.664C145.883 222.904 146.507 223.096 147.147 223.24C147.787 223.368 148.419 223.432 149.043 223.432Z" fill="#662D91"/>
<path d="M162.071 223.504C162.423 223.504 162.759 223.496 163.079 223.48C163.399 223.464 163.655 223.44 163.847 223.408V220.696C163.703 220.664 163.487 220.632 163.199 220.6C162.911 220.568 162.647 220.552 162.407 220.552C162.071 220.552 161.751 220.576 161.447 220.624C161.159 220.656 160.903 220.728 160.679 220.84C160.455 220.952 160.279 221.104 160.151 221.296C160.023 221.488 159.959 221.728 159.959 222.016C159.959 222.576 160.143 222.968 160.511 223.192C160.895 223.4 161.415 223.504 162.071 223.504ZM161.783 213.04C162.839 213.04 163.719 213.16 164.423 213.4C165.127 213.64 165.687 213.984 166.103 214.432C166.535 214.88 166.839 215.424 167.015 216.064C167.191 216.704 167.279 217.416 167.279 218.2V225.64C166.767 225.752 166.055 225.88 165.143 226.024C164.231 226.184 163.127 226.264 161.831 226.264C161.015 226.264 160.271 226.192 159.599 226.048C158.943 225.904 158.375 225.672 157.895 225.352C157.415 225.016 157.047 224.584 156.791 224.056C156.535 223.528 156.407 222.88 156.407 222.112C156.407 221.376 156.551 220.752 156.839 220.24C157.143 219.728 157.543 219.32 158.039 219.016C158.535 218.712 159.103 218.496 159.743 218.368C160.383 218.224 161.047 218.152 161.735 218.152C162.199 218.152 162.607 218.176 162.959 218.224C163.327 218.256 163.623 218.304 163.847 218.368V218.032C163.847 217.424 163.663 216.936 163.295 216.568C162.927 216.2 162.287 216.016 161.375 216.016C160.767 216.016 160.167 216.064 159.575 216.16C158.983 216.24 158.471 216.36 158.039 216.52L157.583 213.64C157.791 213.576 158.047 213.512 158.351 213.448C158.671 213.368 159.015 213.304 159.383 213.256C159.751 213.192 160.135 213.144 160.535 213.112C160.951 213.064 161.367 213.04 161.783 213.04Z" fill="#662D91"/>
<path d="M179.686 219.592C179.686 220.696 179.934 221.584 180.43 222.256C180.926 222.928 181.662 223.264 182.638 223.264C182.958 223.264 183.254 223.256 183.526 223.24C183.798 223.208 184.022 223.176 184.198 223.144V216.64C183.974 216.496 183.678 216.376 183.31 216.28C182.958 216.184 182.598 216.136 182.23 216.136C180.534 216.136 179.686 217.288 179.686 219.592ZM187.774 225.592C187.454 225.688 187.086 225.784 186.67 225.88C186.254 225.96 185.814 226.032 185.35 226.096C184.902 226.16 184.438 226.208 183.958 226.24C183.494 226.288 183.046 226.312 182.614 226.312C181.574 226.312 180.646 226.16 179.83 225.856C179.014 225.552 178.326 225.12 177.766 224.56C177.206 223.984 176.774 223.296 176.47 222.496C176.182 221.68 176.038 220.768 176.038 219.76C176.038 218.736 176.166 217.816 176.422 217C176.678 216.168 177.046 215.464 177.526 214.888C178.006 214.312 178.59 213.872 179.278 213.568C179.982 213.264 180.782 213.112 181.678 213.112C182.174 213.112 182.614 213.16 182.998 213.256C183.398 213.352 183.798 213.488 184.198 213.664V207.952L187.774 207.376V225.592Z" fill="#662D91"/>
<path d="M190.703 219.784C190.703 218.664 190.871 217.688 191.207 216.856C191.559 216.008 192.015 215.304 192.575 214.744C193.135 214.184 193.775 213.76 194.495 213.472C195.231 213.184 195.983 213.04 196.751 213.04C198.543 213.04 199.959 213.592 200.999 214.696C202.039 215.784 202.559 217.392 202.559 219.52C202.559 219.728 202.551 219.96 202.535 220.216C202.519 220.456 202.503 220.672 202.487 220.864H194.375C194.455 221.6 194.799 222.184 195.407 222.616C196.015 223.048 196.831 223.264 197.855 223.264C198.511 223.264 199.151 223.208 199.775 223.096C200.415 222.968 200.935 222.816 201.335 222.64L201.815 225.544C201.623 225.64 201.367 225.736 201.047 225.832C200.727 225.928 200.367 226.008 199.967 226.072C199.583 226.152 199.167 226.216 198.719 226.264C198.271 226.312 197.823 226.336 197.375 226.336C196.239 226.336 195.247 226.168 194.399 225.832C193.567 225.496 192.871 225.04 192.311 224.464C191.767 223.872 191.359 223.176 191.087 222.376C190.831 221.576 190.703 220.712 190.703 219.784ZM199.103 218.416C199.087 218.112 199.031 217.816 198.935 217.528C198.855 217.24 198.719 216.984 198.527 216.76C198.351 216.536 198.119 216.352 197.831 216.208C197.559 216.064 197.215 215.992 196.799 215.992C196.399 215.992 196.055 216.064 195.767 216.208C195.479 216.336 195.239 216.512 195.047 216.736C194.855 216.96 194.703 217.224 194.591 217.528C194.495 217.816 194.423 218.112 194.375 218.416H199.103Z" fill="#662D91"/>
<path d="M68.2302 250.24C67.1902 250.224 66.3422 250.112 65.6862 249.904C65.0462 249.696 64.5342 249.408 64.1502 249.04C63.7822 248.656 63.5262 248.2 63.3822 247.672C63.2542 247.128 63.1902 246.52 63.1902 245.848V231.952L66.7662 231.376V245.128C66.7662 245.448 66.7902 245.736 66.8382 245.992C66.8862 246.248 66.9742 246.464 67.1022 246.64C67.2462 246.816 67.4462 246.96 67.7022 247.072C67.9582 247.184 68.3022 247.256 68.7342 247.288L68.2302 250.24Z" fill="#662D91"/>
<path d="M76.1395 247.504C76.4915 247.504 76.8275 247.496 77.1475 247.48C77.4675 247.464 77.7235 247.44 77.9155 247.408V244.696C77.7715 244.664 77.5555 244.632 77.2675 244.6C76.9795 244.568 76.7155 244.552 76.4755 244.552C76.1395 244.552 75.8195 244.576 75.5155 244.624C75.2275 244.656 74.9715 244.728 74.7475 244.84C74.5235 244.952 74.3475 245.104 74.2195 245.296C74.0915 245.488 74.0275 245.728 74.0275 246.016C74.0275 246.576 74.2115 246.968 74.5795 247.192C74.9635 247.4 75.4835 247.504 76.1395 247.504ZM75.8515 237.04C76.9075 237.04 77.7875 237.16 78.4915 237.4C79.1955 237.64 79.7555 237.984 80.1715 238.432C80.6035 238.88 80.9075 239.424 81.0835 240.064C81.2595 240.704 81.3475 241.416 81.3475 242.2V249.64C80.8355 249.752 80.1235 249.88 79.2115 250.024C78.2995 250.184 77.1955 250.264 75.8995 250.264C75.0835 250.264 74.3395 250.192 73.6675 250.048C73.0115 249.904 72.4435 249.672 71.9635 249.352C71.4835 249.016 71.1155 248.584 70.8595 248.056C70.6035 247.528 70.4755 246.88 70.4755 246.112C70.4755 245.376 70.6195 244.752 70.9075 244.24C71.2115 243.728 71.6115 243.32 72.1075 243.016C72.6035 242.712 73.1715 242.496 73.8115 242.368C74.4515 242.224 75.1155 242.152 75.8035 242.152C76.2675 242.152 76.6755 242.176 77.0275 242.224C77.3955 242.256 77.6915 242.304 77.9155 242.368V242.032C77.9155 241.424 77.7315 240.936 77.3635 240.568C76.9955 240.2 76.3555 240.016 75.4435 240.016C74.8355 240.016 74.2355 240.064 73.6435 240.16C73.0515 240.24 72.5395 240.36 72.1075 240.52L71.6515 237.64C71.8595 237.576 72.1155 237.512 72.4195 237.448C72.7395 237.368 73.0835 237.304 73.4515 237.256C73.8195 237.192 74.2035 237.144 74.6035 237.112C75.0195 237.064 75.4355 237.04 75.8515 237.04Z" fill="#662D91"/>
<path d="M88.3851 247.432C89.0411 247.432 89.5051 247.368 89.7771 247.24C90.0491 247.112 90.1851 246.864 90.1851 246.496C90.1851 246.208 90.0091 245.96 89.6571 245.752C89.3051 245.528 88.7691 245.28 88.0491 245.008C87.4891 244.8 86.9771 244.584 86.5131 244.36C86.0651 244.136 85.6811 243.872 85.3611 243.568C85.0411 243.248 84.7931 242.872 84.6171 242.44C84.4411 242.008 84.3531 241.488 84.3531 240.88C84.3531 239.696 84.7931 238.76 85.6731 238.072C86.5531 237.384 87.7611 237.04 89.2971 237.04C90.0651 237.04 90.8011 237.112 91.5051 237.256C92.2091 237.384 92.7691 237.528 93.1851 237.688L92.5611 240.472C92.1451 240.328 91.6891 240.2 91.1931 240.088C90.7131 239.976 90.1691 239.92 89.5611 239.92C88.4411 239.92 87.8811 240.232 87.8811 240.856C87.8811 241 87.9051 241.128 87.9531 241.24C88.0011 241.352 88.0971 241.464 88.2411 241.576C88.3851 241.672 88.5771 241.784 88.8171 241.912C89.0731 242.024 89.3931 242.152 89.7771 242.296C90.5611 242.584 91.2091 242.872 91.7211 243.16C92.2331 243.432 92.6331 243.736 92.9211 244.072C93.2251 244.392 93.4331 244.752 93.5451 245.152C93.6731 245.552 93.7371 246.016 93.7371 246.544C93.7371 247.792 93.2651 248.736 92.3211 249.376C91.3931 250.016 90.0731 250.336 88.3611 250.336C87.2411 250.336 86.3051 250.24 85.5531 250.048C84.8171 249.856 84.3051 249.696 84.0171 249.568L84.6171 246.664C85.2251 246.904 85.8491 247.096 86.4891 247.24C87.1291 247.368 87.7611 247.432 88.3851 247.432Z" fill="#662D91"/>
<path d="M110.623 243.784C110.623 242.68 110.375 241.8 109.879 241.144C109.383 240.472 108.647 240.136 107.671 240.136C107.351 240.136 107.055 240.152 106.783 240.184C106.511 240.2 106.287 240.224 106.111 240.256V246.712C106.335 246.856 106.623 246.976 106.975 247.072C107.343 247.168 107.711 247.216 108.079 247.216C109.775 247.216 110.623 246.072 110.623 243.784ZM114.271 243.688C114.271 244.664 114.151 245.552 113.911 246.352C113.671 247.152 113.319 247.84 112.855 248.416C112.391 248.992 111.815 249.44 111.127 249.76C110.439 250.08 109.647 250.24 108.751 250.24C108.255 250.24 107.791 250.192 107.359 250.096C106.927 250 106.511 249.864 106.111 249.688V254.44H102.535V237.808C102.855 237.712 103.223 237.624 103.639 237.544C104.055 237.448 104.487 237.368 104.935 237.304C105.399 237.24 105.863 237.192 106.327 237.16C106.807 237.112 107.263 237.088 107.695 237.088C108.735 237.088 109.663 237.248 110.479 237.568C111.295 237.872 111.983 238.312 112.543 238.888C113.103 239.448 113.527 240.136 113.815 240.952C114.119 241.768 114.271 242.68 114.271 243.688Z" fill="#662D91"/>
<path d="M122.024 247.504C122.376 247.504 122.712 247.496 123.032 247.48C123.352 247.464 123.608 247.44 123.8 247.408V244.696C123.656 244.664 123.44 244.632 123.152 244.6C122.864 244.568 122.6 244.552 122.36 244.552C122.024 244.552 121.704 244.576 121.4 244.624C121.112 244.656 120.856 244.728 120.632 244.84C120.408 244.952 120.232 245.104 120.104 245.296C119.976 245.488 119.912 245.728 119.912 246.016C119.912 246.576 120.096 246.968 120.464 247.192C120.848 247.4 121.368 247.504 122.024 247.504ZM121.736 237.04C122.792 237.04 123.672 237.16 124.376 237.4C125.08 237.64 125.64 237.984 126.056 238.432C126.488 238.88 126.792 239.424 126.968 240.064C127.144 240.704 127.232 241.416 127.232 242.2V249.64C126.72 249.752 126.008 249.88 125.096 250.024C124.184 250.184 123.08 250.264 121.784 250.264C120.968 250.264 120.224 250.192 119.552 250.048C118.896 249.904 118.328 249.672 117.848 249.352C117.368 249.016 117 248.584 116.744 248.056C116.488 247.528 116.36 246.88 116.36 246.112C116.36 245.376 116.504 244.752 116.792 244.24C117.096 243.728 117.496 243.32 117.992 243.016C118.488 242.712 119.056 242.496 119.696 242.368C120.336 242.224 121 242.152 121.688 242.152C122.152 242.152 122.56 242.176 122.912 242.224C123.28 242.256 123.576 242.304 123.8 242.368V242.032C123.8 241.424 123.616 240.936 123.248 240.568C122.88 240.2 122.24 240.016 121.328 240.016C120.72 240.016 120.12 240.064 119.528 240.16C118.936 240.24 118.424 240.36 117.992 240.52L117.536 237.64C117.744 237.576 118 237.512 118.304 237.448C118.624 237.368 118.968 237.304 119.336 237.256C119.704 237.192 120.088 237.144 120.488 237.112C120.904 237.064 121.32 237.04 121.736 237.04Z" fill="#662D91"/>
<path d="M138.253 240.544C137.933 240.464 137.557 240.384 137.125 240.304C136.693 240.208 136.229 240.16 135.733 240.16C135.509 240.16 135.237 240.184 134.917 240.232C134.613 240.264 134.381 240.304 134.221 240.352V250H130.645V238.048C131.285 237.824 132.037 237.616 132.901 237.424C133.781 237.216 134.757 237.112 135.829 237.112C136.021 237.112 136.253 237.128 136.525 237.16C136.797 237.176 137.069 237.208 137.341 237.256C137.613 237.288 137.885 237.336 138.157 237.4C138.429 237.448 138.661 237.512 138.853 237.592L138.253 240.544Z" fill="#662D91"/>
<path d="M140.83 234.232L144.406 233.656V237.376H148.702V240.352H144.406V244.792C144.406 245.544 144.534 246.144 144.79 246.592C145.062 247.04 145.598 247.264 146.398 247.264C146.782 247.264 147.174 247.232 147.574 247.168C147.99 247.088 148.366 246.984 148.702 246.856L149.206 249.64C148.774 249.816 148.294 249.968 147.766 250.096C147.238 250.224 146.59 250.288 145.822 250.288C144.846 250.288 144.038 250.16 143.398 249.904C142.758 249.632 142.246 249.264 141.862 248.8C141.478 248.32 141.206 247.744 141.046 247.072C140.902 246.4 140.83 245.656 140.83 244.84V234.232Z" fill="#662D91"/>
<path d="M150.725 243.784C150.725 242.664 150.893 241.688 151.229 240.856C151.581 240.008 152.037 239.304 152.597 238.744C153.157 238.184 153.797 237.76 154.517 237.472C155.253 237.184 156.005 237.04 156.773 237.04C158.565 237.04 159.981 237.592 161.021 238.696C162.061 239.784 162.581 241.392 162.581 243.52C162.581 243.728 162.573 243.96 162.557 244.216C162.541 244.456 162.525 244.672 162.509 244.864H154.397C154.477 245.6 154.821 246.184 155.429 246.616C156.037 247.048 156.853 247.264 157.877 247.264C158.533 247.264 159.173 247.208 159.797 247.096C160.437 246.968 160.957 246.816 161.357 246.64L161.837 249.544C161.645 249.64 161.389 249.736 161.069 249.832C160.749 249.928 160.389 250.008 159.989 250.072C159.605 250.152 159.189 250.216 158.741 250.264C158.293 250.312 157.845 250.336 157.397 250.336C156.261 250.336 155.269 250.168 154.421 249.832C153.589 249.496 152.893 249.04 152.333 248.464C151.789 247.872 151.381 247.176 151.109 246.376C150.853 245.576 150.725 244.712 150.725 243.784ZM159.125 242.416C159.109 242.112 159.053 241.816 158.957 241.528C158.877 241.24 158.741 240.984 158.549 240.76C158.373 240.536 158.141 240.352 157.853 240.208C157.581 240.064 157.237 239.992 156.821 239.992C156.421 239.992 156.077 240.064 155.789 240.208C155.501 240.336 155.261 240.512 155.069 240.736C154.877 240.96 154.725 241.224 154.613 241.528C154.517 241.816 154.445 242.112 154.397 242.416H159.125Z" fill="#662D91"/>
<path d="M169.145 247.432C169.801 247.432 170.265 247.368 170.537 247.24C170.809 247.112 170.945 246.864 170.945 246.496C170.945 246.208 170.769 245.96 170.417 245.752C170.065 245.528 169.529 245.28 168.809 245.008C168.249 244.8 167.737 244.584 167.273 244.36C166.825 244.136 166.441 243.872 166.121 243.568C165.801 243.248 165.553 242.872 165.377 242.44C165.201 242.008 165.113 241.488 165.113 240.88C165.113 239.696 165.553 238.76 166.433 238.072C167.313 237.384 168.521 237.04 170.057 237.04C170.825 237.04 171.561 237.112 172.265 237.256C172.969 237.384 173.529 237.528 173.945 237.688L173.321 240.472C172.905 240.328 172.449 240.2 171.953 240.088C171.473 239.976 170.929 239.92 170.321 239.92C169.201 239.92 168.641 240.232 168.641 240.856C168.641 241 168.665 241.128 168.713 241.24C168.761 241.352 168.857 241.464 169.001 241.576C169.145 241.672 169.337 241.784 169.577 241.912C169.833 242.024 170.153 242.152 170.537 242.296C171.321 242.584 171.969 242.872 172.481 243.16C172.993 243.432 173.393 243.736 173.681 244.072C173.985 244.392 174.193 244.752 174.305 245.152C174.433 245.552 174.497 246.016 174.497 246.544C174.497 247.792 174.025 248.736 173.081 249.376C172.153 250.016 170.833 250.336 169.121 250.336C168.001 250.336 167.065 250.24 166.313 250.048C165.577 249.856 165.065 249.696 164.777 249.568L165.377 246.664C165.985 246.904 166.609 247.096 167.249 247.24C167.889 247.368 168.521 247.432 169.145 247.432Z" fill="#662D91"/>
</svg>
