<svg width="169" height="189" viewBox="0 0 169 189" fill="none" xmlns="http://www.w3.org/2000/svg">
<rect width="169" height="188.554" transform="translate(0 0.268616)" fill="white"/>
<path d="M137.597 53.6771L106.231 27.7838L85.4445 45.654L75.9584 21.219L27.4541 33.9828L62.1021 69.7233C62.1021 69.7233 93.1019 76.6538 93.8287 76.2881C94.5555 75.9223 137.597 53.6771 137.597 53.6771Z" fill="#EF98C0"/>
<path fill-rule="evenodd" clip-rule="evenodd" d="M20.6102 31.3902C21.0346 30.4308 22.1565 29.9972 23.1158 30.4217L82.8312 56.843L146.886 50.3291C147.93 50.223 148.862 50.983 148.968 52.0267C149.074 53.0704 148.314 54.0025 147.27 54.1086L82.2144 60.7243L21.5787 33.8958C20.6193 33.4714 20.1857 32.3496 20.6102 31.3902Z" fill="#662D91"/>
<path d="M72.7178 86.2055L80.1031 49.4053L86.8133 53.044L87.8777 80.4051L107.595 90.6368L100.571 115.142L72.8772 109.689L72.7178 86.2055Z" fill="#29ABE2"/>
<path d="M100.655 115.213L102.02 135.699H69.707L72.8956 108.84C72.8956 108.84 101.556 104.742 100.655 115.213Z" fill="#29ABE2"/>
<path d="M40.2463 166.661C38.358 166.661 36.9166 166.136 35.9222 165.086C34.9389 164.035 34.4473 162.544 34.4473 160.611C34.4473 159.65 34.5981 158.795 34.8998 158.046C35.2015 157.287 35.6149 156.65 36.1401 156.136C36.6652 155.611 37.2909 155.214 38.0172 154.946C38.7435 154.678 39.5312 154.544 40.3804 154.544C40.8721 154.544 41.319 154.583 41.7212 154.661C42.1235 154.728 42.4755 154.812 42.7772 154.912C43.0788 155.002 43.3302 155.097 43.5314 155.197C43.7325 155.298 43.8777 155.376 43.9671 155.432L43.2129 157.544C42.8554 157.354 42.4364 157.192 41.9559 157.058C41.4866 156.924 40.9503 156.856 40.3469 156.856C39.9447 156.856 39.548 156.924 39.1569 157.058C38.777 157.192 38.4362 157.41 38.1345 157.711C37.844 158.002 37.6094 158.382 37.4306 158.851C37.2518 159.32 37.1624 159.89 37.1624 160.56C37.1624 161.097 37.2183 161.6 37.33 162.069C37.453 162.527 37.6429 162.924 37.8999 163.259C38.1681 163.594 38.5144 163.862 38.939 164.063C39.3636 164.253 39.8776 164.348 40.481 164.348C40.8609 164.348 41.2017 164.326 41.5034 164.281C41.8051 164.237 42.0732 164.186 42.3079 164.13C42.5425 164.063 42.7492 163.991 42.928 163.913C43.1068 163.834 43.2688 163.762 43.414 163.695L44.1347 165.79C43.766 166.013 43.2464 166.214 42.576 166.393C41.9056 166.572 41.1291 166.661 40.2463 166.661Z" fill="#662D91"/>
<path d="M53.8259 162.002C53.8259 162.695 53.7253 163.332 53.5242 163.913C53.3231 164.482 53.0326 164.974 52.6527 165.387C52.2728 165.79 51.8146 166.103 51.2783 166.326C50.7531 166.55 50.1609 166.661 49.5017 166.661C48.8536 166.661 48.2614 166.55 47.7251 166.326C47.2 166.103 46.7474 165.79 46.3675 165.387C45.9876 164.974 45.6915 164.482 45.4792 163.913C45.2669 163.332 45.1608 162.695 45.1608 162.002C45.1608 161.309 45.2669 160.678 45.4792 160.108C45.7027 159.538 46.0044 159.052 46.3843 158.65C46.7754 158.248 47.2335 157.935 47.7586 157.711C48.295 157.488 48.876 157.376 49.5017 157.376C50.1386 157.376 50.7196 157.488 51.2448 157.711C51.7811 157.935 52.2392 158.248 52.6191 158.65C52.999 159.052 53.2951 159.538 53.5074 160.108C53.7197 160.678 53.8259 161.309 53.8259 162.002ZM51.2783 162.002C51.2783 161.231 51.1219 160.628 50.809 160.192C50.5073 159.745 50.0716 159.521 49.5017 159.521C48.9319 159.521 48.4905 159.745 48.1776 160.192C47.8648 160.628 47.7084 161.231 47.7084 162.002C47.7084 162.773 47.8648 163.387 48.1776 163.846C48.4905 164.292 48.9319 164.516 49.5017 164.516C50.0716 164.516 50.5073 164.292 50.809 163.846C51.1219 163.387 51.2783 162.773 51.2783 162.002Z" fill="#662D91"/>
<path d="M55.8861 157.912C56.3107 157.789 56.8582 157.678 57.5286 157.577C58.199 157.465 58.9029 157.41 59.6404 157.41C60.389 157.41 61.0092 157.51 61.5008 157.711C62.0036 157.901 62.4003 158.175 62.6908 158.532C62.9813 158.89 63.188 159.315 63.3109 159.806C63.4338 160.298 63.4953 160.845 63.4953 161.449V166.427H60.998V161.75C60.998 160.946 60.8918 160.376 60.6795 160.041C60.4672 159.706 60.0706 159.538 59.4896 159.538C59.3108 159.538 59.1208 159.549 58.9197 159.572C58.7186 159.583 58.5398 159.6 58.3834 159.622V166.427H55.8861V157.912Z" fill="#662D91"/>
<path d="M69.7028 153.421C70.172 153.421 70.6022 153.471 70.9933 153.571C71.3844 153.661 71.6861 153.75 71.8984 153.84L71.4123 155.834C71.1888 155.734 70.943 155.661 70.6748 155.616C70.4179 155.56 70.1776 155.532 69.9542 155.532C69.6525 155.532 69.3955 155.577 69.1832 155.666C68.9821 155.745 68.82 155.856 68.6971 156.002C68.5854 156.147 68.5016 156.32 68.4457 156.521C68.401 156.722 68.3787 156.94 68.3787 157.175V157.611H71.4626V159.689H68.3787V166.427H65.8814V157.141C65.8814 156.002 66.1998 155.097 66.8367 154.426C67.4848 153.756 68.4401 153.421 69.7028 153.421Z" fill="#662D91"/>
<path d="M75.7716 166.427H73.2743V157.611H75.7716V166.427ZM76.0062 155.063C76.0062 155.521 75.8554 155.884 75.5537 156.153C75.2632 156.41 74.9168 156.538 74.5145 156.538C74.1123 156.538 73.7603 156.41 73.4586 156.153C73.1681 155.884 73.0229 155.521 73.0229 155.063C73.0229 154.605 73.1681 154.247 73.4586 153.99C73.7603 153.722 74.1123 153.588 74.5145 153.588C74.9168 153.588 75.2632 153.722 75.5537 153.99C75.8554 154.247 76.0062 154.605 76.0062 155.063Z" fill="#662D91"/>
<path d="M80.3733 161.952C80.3733 162.723 80.5465 163.343 80.8929 163.812C81.2393 164.281 81.7533 164.516 82.4348 164.516C82.6583 164.516 82.865 164.51 83.055 164.499C83.2449 164.477 83.4014 164.454 83.5243 164.432V159.89C83.3678 159.79 83.1611 159.706 82.9041 159.639C82.6583 159.572 82.4069 159.538 82.1499 159.538C80.9655 159.538 80.3733 160.343 80.3733 161.952ZM86.0216 166.142C85.7981 166.209 85.5411 166.276 85.2506 166.343C84.9601 166.399 84.6528 166.449 84.3288 166.494C84.0159 166.538 83.6919 166.572 83.3567 166.594C83.0326 166.628 82.7198 166.644 82.4181 166.644C81.6918 166.644 81.0437 166.538 80.4739 166.326C79.904 166.114 79.4236 165.812 79.0325 165.421C78.6414 165.019 78.3397 164.538 78.1274 163.98C77.9263 163.41 77.8258 162.773 77.8258 162.069C77.8258 161.354 77.9151 160.711 78.0939 160.141C78.2727 159.56 78.5297 159.069 78.8649 158.667C79.2001 158.264 79.6079 157.957 80.0884 157.745C80.58 157.532 81.1387 157.426 81.7644 157.426C82.1108 157.426 82.4181 157.46 82.6862 157.527C82.9656 157.594 83.2449 157.689 83.5243 157.812V153.823L86.0216 153.421V166.142Z" fill="#662D91"/>
<path d="M88.0666 162.086C88.0666 161.304 88.1839 160.622 88.4185 160.041C88.6644 159.449 88.9828 158.957 89.3739 158.566C89.765 158.175 90.2119 157.879 90.7147 157.678C91.2287 157.477 91.7538 157.376 92.2902 157.376C93.5416 157.376 94.5305 157.762 95.2568 158.532C95.983 159.292 96.3462 160.415 96.3462 161.901C96.3462 162.047 96.3406 162.209 96.3294 162.387C96.3182 162.555 96.3071 162.706 96.2959 162.84H90.6309C90.6868 163.354 90.927 163.762 91.3516 164.063C91.7762 164.365 92.346 164.516 93.0612 164.516C93.5193 164.516 93.9662 164.477 94.402 164.399C94.8489 164.309 95.2121 164.203 95.4914 164.08L95.8266 166.108C95.6925 166.175 95.5138 166.242 95.2903 166.309C95.0668 166.376 94.8154 166.432 94.5361 166.477C94.2679 166.533 93.9774 166.577 93.6645 166.611C93.3517 166.644 93.0388 166.661 92.7259 166.661C91.9326 166.661 91.2399 166.544 90.6477 166.309C90.0666 166.075 89.5806 165.756 89.1895 165.354C88.8096 164.941 88.5247 164.454 88.3347 163.896C88.156 163.337 88.0666 162.734 88.0666 162.086ZM93.9327 161.13C93.9215 160.918 93.8824 160.711 93.8154 160.51C93.7595 160.309 93.6645 160.13 93.5304 159.974C93.4075 159.817 93.2455 159.689 93.0444 159.588C92.8544 159.488 92.6142 159.438 92.3237 159.438C92.0444 159.438 91.8041 159.488 91.603 159.588C91.4019 159.678 91.2343 159.801 91.1002 159.957C90.9661 160.114 90.86 160.298 90.7818 160.51C90.7147 160.711 90.6644 160.918 90.6309 161.13H93.9327Z" fill="#662D91"/>
<path d="M98.3991 157.912C98.8237 157.789 99.3712 157.678 100.042 157.577C100.712 157.465 101.416 157.41 102.153 157.41C102.902 157.41 103.522 157.51 104.014 157.711C104.517 157.901 104.913 158.175 105.204 158.532C105.494 158.89 105.701 159.315 105.824 159.806C105.947 160.298 106.008 160.845 106.008 161.449V166.427H103.511V161.75C103.511 160.946 103.405 160.376 103.193 160.041C102.98 159.706 102.584 159.538 102.003 159.538C101.824 159.538 101.634 159.549 101.433 159.572C101.232 159.583 101.053 159.6 100.896 159.622V166.427H98.3991V157.912Z" fill="#662D91"/>
<path d="M107.975 162.019C107.975 161.382 108.076 160.784 108.277 160.225C108.489 159.655 108.791 159.164 109.182 158.75C109.573 158.326 110.048 157.991 110.607 157.745C111.165 157.499 111.802 157.376 112.517 157.376C112.987 157.376 113.417 157.421 113.808 157.51C114.199 157.588 114.579 157.706 114.948 157.862L114.428 159.857C114.193 159.767 113.936 159.689 113.657 159.622C113.378 159.555 113.065 159.521 112.719 159.521C111.981 159.521 111.428 159.75 111.059 160.209C110.702 160.667 110.523 161.27 110.523 162.019C110.523 162.812 110.691 163.427 111.026 163.862C111.372 164.298 111.97 164.516 112.819 164.516C113.121 164.516 113.445 164.488 113.791 164.432C114.138 164.376 114.456 164.287 114.747 164.164L115.099 166.209C114.808 166.332 114.445 166.438 114.009 166.527C113.573 166.617 113.093 166.661 112.568 166.661C111.763 166.661 111.07 166.544 110.489 166.309C109.908 166.063 109.428 165.734 109.048 165.32C108.679 164.907 108.406 164.421 108.227 163.862C108.059 163.292 107.975 162.678 107.975 162.019Z" fill="#662D91"/>
<path d="M119.398 166.427H116.9V157.611H119.398V166.427ZM119.632 155.063C119.632 155.521 119.481 155.884 119.18 156.153C118.889 156.41 118.543 156.538 118.141 156.538C117.738 156.538 117.386 156.41 117.085 156.153C116.794 155.884 116.649 155.521 116.649 155.063C116.649 154.605 116.794 154.247 117.085 153.99C117.386 153.722 117.738 153.588 118.141 153.588C118.543 153.588 118.889 153.722 119.18 153.99C119.481 154.247 119.632 154.605 119.632 155.063Z" fill="#662D91"/>
<path d="M125.24 164.684C125.485 164.684 125.72 164.678 125.943 164.667C126.167 164.656 126.346 164.639 126.48 164.616V162.723C126.379 162.7 126.228 162.678 126.027 162.656C125.826 162.633 125.642 162.622 125.474 162.622C125.24 162.622 125.016 162.639 124.804 162.672C124.603 162.695 124.424 162.745 124.267 162.823C124.111 162.901 123.988 163.008 123.899 163.142C123.809 163.276 123.765 163.443 123.765 163.644C123.765 164.035 123.893 164.309 124.15 164.466C124.418 164.611 124.781 164.684 125.24 164.684ZM125.038 157.376C125.776 157.376 126.39 157.46 126.882 157.627C127.374 157.795 127.765 158.035 128.055 158.348C128.357 158.661 128.569 159.041 128.692 159.488C128.815 159.935 128.877 160.432 128.877 160.98V166.175C128.519 166.253 128.022 166.343 127.385 166.443C126.748 166.555 125.977 166.611 125.072 166.611C124.502 166.611 123.983 166.561 123.513 166.46C123.055 166.36 122.658 166.198 122.323 165.974C121.988 165.739 121.731 165.438 121.552 165.069C121.373 164.7 121.284 164.248 121.284 163.711C121.284 163.197 121.385 162.762 121.586 162.404C121.798 162.047 122.077 161.762 122.424 161.549C122.77 161.337 123.167 161.186 123.614 161.097C124.061 160.996 124.524 160.946 125.005 160.946C125.329 160.946 125.614 160.963 125.86 160.996C126.117 161.019 126.323 161.052 126.48 161.097V160.862C126.48 160.438 126.351 160.097 126.094 159.84C125.837 159.583 125.39 159.454 124.753 159.454C124.329 159.454 123.91 159.488 123.496 159.555C123.083 159.611 122.726 159.695 122.424 159.806L122.105 157.795C122.251 157.75 122.429 157.706 122.642 157.661C122.865 157.605 123.105 157.56 123.362 157.527C123.619 157.482 123.888 157.449 124.167 157.426C124.457 157.393 124.748 157.376 125.038 157.376Z" fill="#662D91"/>
<path d="M134.78 166.594C134.054 166.583 133.462 166.505 133.003 166.36C132.557 166.214 132.199 166.013 131.931 165.756C131.674 165.488 131.495 165.17 131.394 164.801C131.305 164.421 131.26 163.996 131.26 163.527V153.823L133.758 153.421V163.024C133.758 163.248 133.774 163.449 133.808 163.628C133.842 163.806 133.903 163.957 133.992 164.08C134.093 164.203 134.233 164.304 134.411 164.382C134.59 164.46 134.83 164.51 135.132 164.533L134.78 166.594Z" fill="#662D91"/>
</svg>
