<svg width="242" height="270" viewBox="0 0 242 270" fill="none" xmlns="http://www.w3.org/2000/svg">
<rect width="242" height="270" fill="white"/>
<path d="M135.964 38.4118L138.157 91.9412L121.709 108.412H107.317V124.882L157.004 135.176L169.374 157.824H29L39.2801 133.118L86.7568 126.941V108.412L70.7542 106.233L55.9166 91.9412L57.63 34.826C57.7191 31.9236 58.9334 29.1701 61.0156 27.1491C63.0978 25.1282 65.8841 23.9986 68.7839 24H124.827C127.781 24 130.614 25.1749 132.702 27.2663C134.791 29.3577 135.964 32.1943 135.964 35.152V38.4118Z" fill="#009245"/>
<path d="M208.327 150.493L171.342 192.964C168.439 196.297 163.383 196.645 160.051 193.74L115.686 155.06C112.288 152.098 112.008 146.914 115.066 143.603L134.106 122.986C137.265 119.566 142.666 119.555 145.839 122.964L159.01 137.114C162.585 140.955 168.828 140.372 171.63 135.936L178.606 124.89C181.301 120.624 187.222 119.887 190.88 123.362L207.804 139.439C210.909 142.389 211.14 147.262 208.327 150.493Z" fill="#DF5056"/>
<path d="M70.1611 243V226.368H81.3931V229.512H73.9051V232.776H80.5531V235.848H73.9051V239.856H81.9451V243H70.1611Z" fill="#662D91"/>
<path d="M91.5918 236.304C91.5918 235.152 91.4398 234.336 91.1358 233.856C90.8478 233.376 90.3438 233.136 89.6238 233.136C89.3998 233.136 89.1678 233.152 88.9278 233.184C88.6878 233.2 88.4558 233.224 88.2318 233.256V243H84.6558V230.808C84.9598 230.728 85.3118 230.648 85.7118 230.568C86.1278 230.472 86.5598 230.392 87.0078 230.328C87.4718 230.248 87.9438 230.192 88.4238 230.16C88.9038 230.112 89.3758 230.088 89.8398 230.088C90.7518 230.088 91.4878 230.208 92.0478 230.448C92.6238 230.672 93.0958 230.944 93.4638 231.264C93.9758 230.896 94.5598 230.608 95.2158 230.4C95.8878 230.192 96.5038 230.088 97.0638 230.088C98.0718 230.088 98.8958 230.232 99.5358 230.52C100.192 230.792 100.712 231.184 101.096 231.696C101.48 232.208 101.744 232.816 101.888 233.52C102.032 234.224 102.104 235.008 102.104 235.872V243H98.5278V236.304C98.5278 235.152 98.3758 234.336 98.0718 233.856C97.7838 233.376 97.2798 233.136 96.5598 233.136C96.3678 233.136 96.0958 233.184 95.7438 233.28C95.4078 233.376 95.1278 233.496 94.9038 233.64C95.0158 234.008 95.0878 234.4 95.1198 234.816C95.1518 235.216 95.1678 235.648 95.1678 236.112V243H91.5918V236.304Z" fill="#662D91"/>
<path d="M113.619 236.784C113.619 235.68 113.371 234.8 112.875 234.144C112.379 233.472 111.643 233.136 110.667 233.136C110.347 233.136 110.051 233.152 109.779 233.184C109.507 233.2 109.283 233.224 109.107 233.256V239.712C109.331 239.856 109.619 239.976 109.971 240.072C110.339 240.168 110.707 240.216 111.075 240.216C112.771 240.216 113.619 239.072 113.619 236.784ZM117.267 236.688C117.267 237.664 117.147 238.552 116.907 239.352C116.667 240.152 116.315 240.84 115.851 241.416C115.387 241.992 114.811 242.44 114.123 242.76C113.435 243.08 112.643 243.24 111.747 243.24C111.251 243.24 110.787 243.192 110.355 243.096C109.923 243 109.507 242.864 109.107 242.688V247.44H105.531V230.808C105.851 230.712 106.219 230.624 106.635 230.544C107.051 230.448 107.483 230.368 107.931 230.304C108.395 230.24 108.859 230.192 109.323 230.16C109.803 230.112 110.259 230.088 110.691 230.088C111.731 230.088 112.659 230.248 113.475 230.568C114.291 230.872 114.979 231.312 115.539 231.888C116.099 232.448 116.523 233.136 116.811 233.952C117.115 234.768 117.267 235.68 117.267 236.688Z" fill="#662D91"/>
<path d="M125.02 240.504C125.372 240.504 125.708 240.496 126.028 240.48C126.348 240.464 126.604 240.44 126.796 240.408V237.696C126.652 237.664 126.436 237.632 126.148 237.6C125.86 237.568 125.596 237.552 125.356 237.552C125.02 237.552 124.7 237.576 124.396 237.624C124.108 237.656 123.852 237.728 123.628 237.84C123.404 237.952 123.228 238.104 123.1 238.296C122.972 238.488 122.908 238.728 122.908 239.016C122.908 239.576 123.092 239.968 123.46 240.192C123.844 240.4 124.364 240.504 125.02 240.504ZM124.732 230.04C125.788 230.04 126.668 230.16 127.372 230.4C128.076 230.64 128.636 230.984 129.052 231.432C129.484 231.88 129.788 232.424 129.964 233.064C130.14 233.704 130.228 234.416 130.228 235.2V242.64C129.716 242.752 129.004 242.88 128.092 243.024C127.18 243.184 126.076 243.264 124.78 243.264C123.964 243.264 123.22 243.192 122.548 243.048C121.892 242.904 121.324 242.672 120.844 242.352C120.364 242.016 119.996 241.584 119.74 241.056C119.484 240.528 119.356 239.88 119.356 239.112C119.356 238.376 119.5 237.752 119.788 237.24C120.092 236.728 120.492 236.32 120.988 236.016C121.484 235.712 122.052 235.496 122.692 235.368C123.332 235.224 123.996 235.152 124.684 235.152C125.148 235.152 125.556 235.176 125.908 235.224C126.276 235.256 126.572 235.304 126.796 235.368V235.032C126.796 234.424 126.612 233.936 126.244 233.568C125.876 233.2 125.236 233.016 124.324 233.016C123.716 233.016 123.116 233.064 122.524 233.16C121.932 233.24 121.42 233.36 120.988 233.52L120.532 230.64C120.74 230.576 120.996 230.512 121.3 230.448C121.62 230.368 121.964 230.304 122.332 230.256C122.7 230.192 123.084 230.144 123.484 230.112C123.9 230.064 124.316 230.04 124.732 230.04ZM128.044 225.84L124.084 229.176L122.452 227.712L125.86 223.824L128.044 225.84Z" fill="#662D91"/>
<path d="M133.521 227.232L137.097 226.656V230.376H141.393V233.352H137.097V237.792C137.097 238.544 137.225 239.144 137.481 239.592C137.753 240.04 138.289 240.264 139.089 240.264C139.473 240.264 139.865 240.232 140.265 240.168C140.681 240.088 141.057 239.984 141.393 239.856L141.897 242.64C141.465 242.816 140.985 242.968 140.457 243.096C139.929 243.224 139.281 243.288 138.513 243.288C137.537 243.288 136.729 243.16 136.089 242.904C135.449 242.632 134.937 242.264 134.553 241.8C134.169 241.32 133.897 240.744 133.737 240.072C133.593 239.4 133.521 238.656 133.521 237.84V227.232Z" fill="#662D91"/>
<path d="M148.061 243H144.485V230.376H148.061V243ZM148.397 226.728C148.397 227.384 148.181 227.904 147.749 228.288C147.333 228.656 146.837 228.84 146.261 228.84C145.685 228.84 145.181 228.656 144.749 228.288C144.333 227.904 144.125 227.384 144.125 226.728C144.125 226.072 144.333 225.56 144.749 225.192C145.181 224.808 145.685 224.616 146.261 224.616C146.837 224.616 147.333 224.808 147.749 225.192C148.181 225.56 148.397 226.072 148.397 226.728Z" fill="#662D91"/>
<path d="M151.003 236.688C151.003 235.776 151.147 234.92 151.435 234.12C151.739 233.304 152.171 232.6 152.731 232.008C153.291 231.4 153.971 230.92 154.771 230.568C155.571 230.216 156.483 230.04 157.507 230.04C158.179 230.04 158.795 230.104 159.355 230.232C159.915 230.344 160.459 230.512 160.987 230.736L160.243 233.592C159.907 233.464 159.539 233.352 159.139 233.256C158.739 233.16 158.291 233.112 157.795 233.112C156.739 233.112 155.947 233.44 155.419 234.096C154.907 234.752 154.651 235.616 154.651 236.688C154.651 237.824 154.891 238.704 155.371 239.328C155.867 239.952 156.723 240.264 157.939 240.264C158.371 240.264 158.835 240.224 159.331 240.144C159.827 240.064 160.283 239.936 160.699 239.76L161.203 242.688C160.787 242.864 160.267 243.016 159.643 243.144C159.019 243.272 158.331 243.336 157.579 243.336C156.427 243.336 155.435 243.168 154.603 242.832C153.771 242.48 153.083 242.008 152.539 241.416C152.011 240.824 151.619 240.128 151.363 239.328C151.123 238.512 151.003 237.632 151.003 236.688Z" fill="#662D91"/>
<path d="M167.997 240.504C168.349 240.504 168.685 240.496 169.005 240.48C169.325 240.464 169.581 240.44 169.773 240.408V237.696C169.629 237.664 169.413 237.632 169.125 237.6C168.837 237.568 168.573 237.552 168.333 237.552C167.997 237.552 167.677 237.576 167.373 237.624C167.085 237.656 166.829 237.728 166.605 237.84C166.381 237.952 166.205 238.104 166.077 238.296C165.949 238.488 165.885 238.728 165.885 239.016C165.885 239.576 166.069 239.968 166.437 240.192C166.821 240.4 167.341 240.504 167.997 240.504ZM167.709 230.04C168.765 230.04 169.645 230.16 170.349 230.4C171.053 230.64 171.613 230.984 172.029 231.432C172.461 231.88 172.765 232.424 172.941 233.064C173.117 233.704 173.205 234.416 173.205 235.2V242.64C172.693 242.752 171.981 242.88 171.069 243.024C170.157 243.184 169.053 243.264 167.757 243.264C166.941 243.264 166.197 243.192 165.525 243.048C164.869 242.904 164.301 242.672 163.821 242.352C163.341 242.016 162.973 241.584 162.717 241.056C162.461 240.528 162.333 239.88 162.333 239.112C162.333 238.376 162.477 237.752 162.765 237.24C163.069 236.728 163.469 236.32 163.965 236.016C164.461 235.712 165.029 235.496 165.669 235.368C166.309 235.224 166.973 235.152 167.661 235.152C168.125 235.152 168.533 235.176 168.885 235.224C169.253 235.256 169.549 235.304 169.773 235.368V235.032C169.773 234.424 169.589 233.936 169.221 233.568C168.853 233.2 168.213 233.016 167.301 233.016C166.693 233.016 166.093 233.064 165.501 233.16C164.909 233.24 164.397 233.36 163.965 233.52L163.509 230.64C163.717 230.576 163.973 230.512 164.277 230.448C164.597 230.368 164.941 230.304 165.309 230.256C165.677 230.192 166.061 230.144 166.461 230.112C166.877 230.064 167.293 230.04 167.709 230.04Z" fill="#662D91"/>
</svg>
