<svg width="169" height="189" viewBox="0 0 169 189" fill="none" xmlns="http://www.w3.org/2000/svg">
<rect width="169" height="188.554" transform="translate(0 0.0537109)" fill="white"/>
<path d="M94.95 26.8785L96.4816 64.2606L84.9951 75.7628H74.9444V87.265L109.643 94.4539L118.282 110.269H20.252L27.431 93.0161L60.5863 88.7028V75.7628L49.4109 74.2412L39.0491 64.2606L40.2456 24.3744C40.3078 22.3475 41.1559 20.4246 42.61 19.0133C44.064 17.6019 46.0099 16.8131 48.0349 16.8141H87.1727C89.2354 16.8141 91.2136 17.6346 92.6721 19.0951C94.1306 20.5556 94.95 22.5365 94.95 24.602V26.8785Z" fill="#009245"/>
<path d="M145.485 105.15L119.656 134.809C117.629 137.137 114.098 137.38 111.772 135.352L80.7894 108.34C78.4166 106.271 78.2207 102.651 80.3566 100.338L93.6527 85.9409C95.8589 83.5521 99.631 83.5447 101.846 85.925L111.045 95.8071C113.541 98.4895 117.901 98.0824 119.858 94.9841L124.73 87.2702C126.611 84.2913 130.747 83.7764 133.301 86.2031L145.12 97.4304C147.288 99.4908 147.449 102.894 145.485 105.15Z" fill="#DF5056"/>
<path d="M48.9971 169.752V158.137H56.8409V160.333H51.6117V162.612H56.2543V164.758H51.6117V167.557H57.2264V169.752H48.9971Z" fill="#662D91"/>
<path d="M63.9631 165.076C63.9631 164.272 63.857 163.702 63.6447 163.367C63.4436 163.031 63.0916 162.864 62.5888 162.864C62.4324 162.864 62.2703 162.875 62.1027 162.897C61.9351 162.909 61.7731 162.925 61.6167 162.948V169.752H59.1194V161.238C59.3317 161.182 59.5775 161.126 59.8568 161.07C60.1474 161.003 60.449 160.948 60.7619 160.903C61.0859 160.847 61.4156 160.808 61.7508 160.786C62.086 160.752 62.4156 160.735 62.7396 160.735C63.3765 160.735 63.8905 160.819 64.2816 160.987C64.6838 161.143 65.0134 161.333 65.2704 161.557C65.628 161.3 66.0358 161.098 66.4939 160.953C66.9632 160.808 67.3934 160.735 67.7845 160.735C68.4884 160.735 69.0639 160.836 69.5108 161.037C69.9689 161.227 70.3321 161.501 70.6002 161.858C70.8684 162.216 71.0528 162.64 71.1533 163.132C71.2539 163.624 71.3042 164.171 71.3042 164.775V169.752H68.8069V165.076C68.8069 164.272 68.7007 163.702 68.4884 163.367C68.2873 163.031 67.9353 162.864 67.4325 162.864C67.2984 162.864 67.1085 162.897 66.8627 162.964C66.628 163.031 66.4325 163.115 66.2761 163.216C66.3543 163.473 66.4046 163.747 66.4269 164.037C66.4492 164.316 66.4604 164.618 66.4604 164.942V169.752H63.9631V165.076Z" fill="#662D91"/>
<path d="M79.3458 165.411C79.3458 164.64 79.1727 164.026 78.8263 163.568C78.4799 163.098 77.9659 162.864 77.2843 162.864C77.0608 162.864 76.8541 162.875 76.6642 162.897C76.4742 162.909 76.3178 162.925 76.1949 162.948V167.456C76.3513 167.557 76.5524 167.641 76.7983 167.708C77.0553 167.775 77.3123 167.808 77.5692 167.808C78.7536 167.808 79.3458 167.009 79.3458 165.411ZM81.8934 165.344C81.8934 166.026 81.8096 166.646 81.642 167.205C81.4744 167.763 81.2286 168.244 80.9046 168.646C80.5805 169.048 80.1783 169.361 79.6978 169.585C79.2173 169.808 78.6643 169.92 78.0385 169.92C77.6922 169.92 77.3681 169.886 77.0664 169.819C76.7647 169.752 76.4742 169.657 76.1949 169.534V172.853H73.6976V161.238C73.9211 161.171 74.1781 161.11 74.4686 161.054C74.7591 160.987 75.0608 160.931 75.3736 160.886C75.6977 160.841 76.0217 160.808 76.3457 160.786C76.6809 160.752 76.9994 160.735 77.3011 160.735C78.0274 160.735 78.6754 160.847 79.2453 161.07C79.8151 161.283 80.2956 161.59 80.6867 161.992C81.0777 162.383 81.3738 162.864 81.575 163.434C81.7873 164.004 81.8934 164.64 81.8934 165.344Z" fill="#662D91"/>
<path d="M87.3073 168.009C87.5531 168.009 87.7877 168.004 88.0112 167.993C88.2347 167.981 88.4134 167.965 88.5475 167.942V166.048C88.447 166.026 88.2961 166.004 88.095 165.981C87.8939 165.959 87.7095 165.948 87.5419 165.948C87.3073 165.948 87.0838 165.965 86.8715 165.998C86.6704 166.02 86.4916 166.071 86.3352 166.149C86.1787 166.227 86.0558 166.333 85.9664 166.467C85.877 166.601 85.8323 166.769 85.8323 166.97C85.8323 167.361 85.9608 167.635 86.2178 167.791C86.486 167.937 86.8491 168.009 87.3073 168.009ZM87.1061 160.702C87.8436 160.702 88.4581 160.786 88.9498 160.953C89.4414 161.121 89.8325 161.361 90.123 161.674C90.4247 161.987 90.637 162.367 90.7599 162.814C90.8828 163.261 90.9442 163.758 90.9442 164.305V169.501C90.5867 169.579 90.0895 169.669 89.4526 169.769C88.8157 169.881 88.0447 169.937 87.1397 169.937C86.5698 169.937 86.0502 169.886 85.5809 169.786C85.1228 169.685 84.7262 169.523 84.391 169.3C84.0558 169.065 83.7988 168.763 83.62 168.395C83.4412 168.026 83.3518 167.574 83.3518 167.037C83.3518 166.523 83.4524 166.087 83.6535 165.73C83.8658 165.372 84.1451 165.087 84.4915 164.875C84.8379 164.663 85.2346 164.512 85.6815 164.423C86.1284 164.322 86.5922 164.272 87.0726 164.272C87.3966 164.272 87.6816 164.288 87.9274 164.322C88.1844 164.344 88.3911 164.378 88.5475 164.423V164.188C88.5475 163.763 88.419 163.423 88.162 163.166C87.905 162.909 87.4581 162.78 86.8212 162.78C86.3966 162.78 85.9776 162.814 85.5642 162.881C85.1508 162.936 84.7932 163.02 84.4915 163.132L84.1731 161.121C84.3183 161.076 84.4971 161.031 84.7094 160.987C84.9329 160.931 85.1731 160.886 85.4301 160.853C85.6871 160.808 85.9553 160.774 86.2346 160.752C86.5251 160.719 86.8156 160.702 87.1061 160.702ZM89.4191 157.769L86.6536 160.098L85.5139 159.076L87.8939 156.361L89.4191 157.769Z" fill="#662D91"/>
<path d="M93.2443 158.741L95.7416 158.339V160.936H98.7417V163.015H95.7416V166.115C95.7416 166.641 95.831 167.06 96.0098 167.372C96.1997 167.685 96.5741 167.842 97.1327 167.842C97.4009 167.842 97.6747 167.819 97.954 167.775C98.2445 167.719 98.5071 167.646 98.7417 167.557L99.0937 169.501C98.792 169.624 98.4568 169.73 98.0881 169.819C97.7193 169.909 97.2668 169.953 96.7305 169.953C96.0489 169.953 95.4846 169.864 95.0377 169.685C94.5908 169.495 94.2332 169.238 93.965 168.914C93.6969 168.579 93.5069 168.177 93.3952 167.708C93.2946 167.238 93.2443 166.719 93.2443 166.149V158.741Z" fill="#662D91"/>
<path d="M103.398 169.752H100.901V160.936H103.398V169.752ZM103.633 158.389C103.633 158.847 103.482 159.21 103.18 159.478C102.89 159.735 102.544 159.864 102.141 159.864C101.739 159.864 101.387 159.735 101.085 159.478C100.795 159.21 100.65 158.847 100.65 158.389C100.65 157.931 100.795 157.573 101.085 157.316C101.387 157.048 101.739 156.914 102.141 156.914C102.544 156.914 102.89 157.048 103.18 157.316C103.482 157.573 103.633 157.931 103.633 158.389Z" fill="#662D91"/>
<path d="M105.453 165.344C105.453 164.707 105.553 164.11 105.754 163.551C105.967 162.981 106.268 162.49 106.659 162.076C107.05 161.652 107.525 161.316 108.084 161.07C108.643 160.825 109.279 160.702 109.995 160.702C110.464 160.702 110.894 160.746 111.285 160.836C111.676 160.914 112.056 161.031 112.425 161.188L111.905 163.182C111.671 163.093 111.414 163.015 111.134 162.948C110.855 162.881 110.542 162.847 110.196 162.847C109.458 162.847 108.905 163.076 108.536 163.534C108.179 163.992 108 164.596 108 165.344C108 166.138 108.168 166.752 108.503 167.188C108.849 167.624 109.447 167.842 110.296 167.842C110.598 167.842 110.922 167.814 111.268 167.758C111.615 167.702 111.933 167.613 112.224 167.49L112.576 169.534C112.285 169.657 111.922 169.764 111.486 169.853C111.05 169.942 110.57 169.987 110.045 169.987C109.24 169.987 108.548 169.87 107.967 169.635C107.386 169.389 106.905 169.06 106.525 168.646C106.156 168.233 105.883 167.747 105.704 167.188C105.536 166.618 105.453 166.004 105.453 165.344Z" fill="#662D91"/>
<path d="M117.321 168.009C117.567 168.009 117.801 168.004 118.025 167.993C118.248 167.981 118.427 167.965 118.561 167.942V166.048C118.46 166.026 118.31 166.004 118.108 165.981C117.907 165.959 117.723 165.948 117.555 165.948C117.321 165.948 117.097 165.965 116.885 165.998C116.684 166.02 116.505 166.071 116.349 166.149C116.192 166.227 116.069 166.333 115.98 166.467C115.89 166.601 115.846 166.769 115.846 166.97C115.846 167.361 115.974 167.635 116.231 167.791C116.499 167.937 116.863 168.009 117.321 168.009ZM117.12 160.702C117.857 160.702 118.472 160.786 118.963 160.953C119.455 161.121 119.846 161.361 120.136 161.674C120.438 161.987 120.65 162.367 120.773 162.814C120.896 163.261 120.958 163.758 120.958 164.305V169.501C120.6 169.579 120.103 169.669 119.466 169.769C118.829 169.881 118.058 169.937 117.153 169.937C116.583 169.937 116.064 169.886 115.594 169.786C115.136 169.685 114.74 169.523 114.404 169.3C114.069 169.065 113.812 168.763 113.633 168.395C113.455 168.026 113.365 167.574 113.365 167.037C113.365 166.523 113.466 166.087 113.667 165.73C113.879 165.372 114.159 165.087 114.505 164.875C114.851 164.663 115.248 164.512 115.695 164.423C116.142 164.322 116.606 164.272 117.086 164.272C117.41 164.272 117.695 164.288 117.941 164.322C118.198 164.344 118.405 164.378 118.561 164.423V164.188C118.561 163.763 118.432 163.423 118.175 163.166C117.918 162.909 117.472 162.78 116.835 162.78C116.41 162.78 115.991 162.814 115.578 162.881C115.164 162.936 114.807 163.02 114.505 163.132L114.187 161.121C114.332 161.076 114.511 161.031 114.723 160.987C114.946 160.931 115.187 160.886 115.444 160.853C115.701 160.808 115.969 160.774 116.248 160.752C116.539 160.719 116.829 160.702 117.12 160.702Z" fill="#662D91"/>
</svg>
