<svg width="242" height="270" viewBox="0 0 242 270" fill="none" xmlns="http://www.w3.org/2000/svg">
<rect width="242" height="270" fill="white"/>
<path d="M197.032 76.4785L152.118 39.4004L122.352 64.9898L108.768 30L39.3125 48.2772L88.9267 99.4559C88.9267 99.4559 133.317 109.38 134.358 108.856C135.399 108.333 197.032 76.4785 197.032 76.4785Z" fill="#EF98C0"/>
<path fill-rule="evenodd" clip-rule="evenodd" d="M29.5126 44.5647C30.1204 43.1909 31.7268 42.57 33.1005 43.1778L118.61 81.0118L210.333 71.6843C211.828 71.5323 213.163 72.6206 213.315 74.1151C213.467 75.6096 212.378 76.9444 210.884 77.0964L117.727 86.5697L30.8994 48.1526C29.5257 47.5448 28.9048 45.9384 29.5126 44.5647Z" fill="#662D91"/>
<path d="M104.128 123.058L114.703 70.3614L124.312 75.5719L125.836 114.752L154.071 129.403L144.013 164.493L104.356 156.684L104.128 123.058Z" fill="#29ABE2"/>
<path d="M144.134 164.594L146.088 193.93H99.8174L104.383 155.469C104.383 155.469 145.423 149.601 144.134 164.594Z" fill="#29ABE2"/>
<path d="M57.6311 238.266C54.9271 238.266 52.8631 237.514 51.4391 236.01C50.0311 234.506 49.3271 232.37 49.3271 229.602C49.3271 228.226 49.5431 227.002 49.9751 225.93C50.4071 224.842 50.9991 223.93 51.7511 223.194C52.5031 222.442 53.3991 221.874 54.4391 221.49C55.4791 221.106 56.6071 220.914 57.8231 220.914C58.5271 220.914 59.1671 220.97 59.7431 221.082C60.3191 221.178 60.8231 221.298 61.2551 221.442C61.6871 221.57 62.0471 221.706 62.3351 221.85C62.6231 221.994 62.8311 222.106 62.9591 222.186L61.8791 225.21C61.3671 224.938 60.7671 224.706 60.0791 224.514C59.4071 224.322 58.6391 224.226 57.7751 224.226C57.1991 224.226 56.6311 224.322 56.0711 224.514C55.5271 224.706 55.0391 225.018 54.6071 225.45C54.1911 225.866 53.8551 226.41 53.5991 227.082C53.3431 227.754 53.2151 228.57 53.2151 229.53C53.2151 230.298 53.2951 231.018 53.4551 231.69C53.6311 232.346 53.9031 232.914 54.2711 233.394C54.6551 233.874 55.1511 234.258 55.7591 234.546C56.3671 234.818 57.1031 234.954 57.9671 234.954C58.5111 234.954 58.9991 234.922 59.4311 234.858C59.8631 234.794 60.2471 234.722 60.5831 234.642C60.9191 234.546 61.2151 234.442 61.4712 234.33C61.7271 234.218 61.9591 234.114 62.1671 234.018L63.1991 237.018C62.6711 237.338 61.9271 237.626 60.9671 237.882C60.0071 238.138 58.8951 238.266 57.6311 238.266Z" fill="#662D91"/>
<path d="M77.0764 231.594C77.0764 232.586 76.9324 233.498 76.6444 234.33C76.3564 235.146 75.9404 235.85 75.3964 236.442C74.8524 237.018 74.1964 237.466 73.4284 237.786C72.6764 238.106 71.8284 238.266 70.8844 238.266C69.9564 238.266 69.1084 238.106 68.3404 237.786C67.5884 237.466 66.9404 237.018 66.3964 236.442C65.8524 235.85 65.4284 235.146 65.1244 234.33C64.8204 233.498 64.6684 232.586 64.6684 231.594C64.6684 230.602 64.8204 229.698 65.1244 228.882C65.4444 228.066 65.8764 227.37 66.4204 226.794C66.9804 226.218 67.6364 225.77 68.3884 225.45C69.1564 225.13 69.9884 224.97 70.8844 224.97C71.7964 224.97 72.6284 225.13 73.3804 225.45C74.1484 225.77 74.8044 226.218 75.3484 226.794C75.8924 227.37 76.3164 228.066 76.6204 228.882C76.9244 229.698 77.0764 230.602 77.0764 231.594ZM73.4284 231.594C73.4284 230.49 73.2044 229.626 72.7564 229.002C72.3244 228.362 71.7004 228.042 70.8844 228.042C70.0684 228.042 69.4364 228.362 68.9884 229.002C68.5404 229.626 68.3164 230.49 68.3164 231.594C68.3164 232.698 68.5404 233.578 68.9884 234.234C69.4364 234.874 70.0684 235.194 70.8844 235.194C71.7004 235.194 72.3244 234.874 72.7564 234.234C73.2044 233.578 73.4284 232.698 73.4284 231.594Z" fill="#662D91"/>
<path d="M80.0265 225.738C80.6345 225.562 81.4185 225.402 82.3785 225.258C83.3385 225.098 84.3465 225.018 85.4025 225.018C86.4745 225.018 87.3625 225.162 88.0665 225.45C88.7865 225.722 89.3545 226.114 89.7705 226.626C90.1865 227.138 90.4825 227.746 90.6585 228.45C90.8345 229.154 90.9225 229.938 90.9225 230.802V237.93H87.3465V231.234C87.3465 230.082 87.1945 229.266 86.8905 228.786C86.5865 228.306 86.0185 228.066 85.1865 228.066C84.9305 228.066 84.6585 228.082 84.3705 228.114C84.0825 228.13 83.8265 228.154 83.6025 228.186V237.93H80.0265V225.738Z" fill="#662D91"/>
<path d="M99.8113 219.306C100.483 219.306 101.099 219.378 101.659 219.522C102.219 219.65 102.651 219.778 102.955 219.906L102.259 222.762C101.939 222.618 101.587 222.514 101.203 222.45C100.835 222.37 100.491 222.33 100.171 222.33C99.7393 222.33 99.3713 222.394 99.0673 222.522C98.7793 222.634 98.5473 222.794 98.3713 223.002C98.2113 223.21 98.0913 223.458 98.0113 223.746C97.9473 224.034 97.9153 224.346 97.9153 224.682V225.306H102.331V228.282H97.9153V237.93H94.3393V224.634C94.3393 223.002 94.7953 221.706 95.7073 220.746C96.6353 219.786 98.0033 219.306 99.8113 219.306Z" fill="#662D91"/>
<path d="M108.502 237.93H104.926V225.306H108.502V237.93ZM108.838 221.658C108.838 222.314 108.622 222.834 108.19 223.218C107.774 223.586 107.278 223.77 106.702 223.77C106.126 223.77 105.622 223.586 105.19 223.218C104.774 222.834 104.566 222.314 104.566 221.658C104.566 221.002 104.774 220.49 105.19 220.122C105.622 219.738 106.126 219.546 106.702 219.546C107.278 219.546 107.774 219.738 108.19 220.122C108.622 220.49 108.838 221.002 108.838 221.658Z" fill="#662D91"/>
<path d="M115.091 231.522C115.091 232.626 115.339 233.514 115.835 234.186C116.331 234.858 117.067 235.194 118.043 235.194C118.363 235.194 118.659 235.186 118.931 235.17C119.203 235.138 119.427 235.106 119.603 235.074V228.57C119.379 228.426 119.083 228.306 118.715 228.21C118.363 228.114 118.003 228.066 117.635 228.066C115.939 228.066 115.091 229.218 115.091 231.522ZM123.179 237.522C122.859 237.618 122.491 237.714 122.075 237.81C121.659 237.89 121.219 237.962 120.755 238.026C120.307 238.09 119.843 238.138 119.363 238.17C118.899 238.218 118.451 238.242 118.019 238.242C116.979 238.242 116.051 238.09 115.235 237.786C114.419 237.482 113.731 237.05 113.171 236.49C112.611 235.914 112.179 235.226 111.875 234.426C111.587 233.61 111.443 232.698 111.443 231.69C111.443 230.666 111.571 229.746 111.827 228.93C112.083 228.098 112.451 227.394 112.931 226.818C113.411 226.242 113.995 225.802 114.683 225.498C115.387 225.194 116.187 225.042 117.083 225.042C117.579 225.042 118.019 225.09 118.403 225.186C118.803 225.282 119.203 225.418 119.603 225.594V219.882L123.179 219.306V237.522Z" fill="#662D91"/>
<path d="M126.107 231.714C126.107 230.594 126.275 229.618 126.611 228.786C126.963 227.938 127.419 227.234 127.979 226.674C128.539 226.114 129.179 225.69 129.899 225.402C130.635 225.114 131.387 224.97 132.155 224.97C133.947 224.97 135.363 225.522 136.403 226.626C137.443 227.714 137.963 229.322 137.963 231.45C137.963 231.658 137.955 231.89 137.939 232.146C137.923 232.386 137.907 232.602 137.891 232.794H129.779C129.859 233.53 130.203 234.114 130.811 234.546C131.419 234.978 132.235 235.194 133.259 235.194C133.915 235.194 134.555 235.138 135.179 235.026C135.819 234.898 136.339 234.746 136.739 234.57L137.219 237.474C137.027 237.57 136.771 237.666 136.451 237.762C136.131 237.858 135.771 237.938 135.371 238.002C134.987 238.082 134.571 238.146 134.123 238.194C133.675 238.242 133.227 238.266 132.779 238.266C131.643 238.266 130.651 238.098 129.803 237.762C128.971 237.426 128.275 236.97 127.715 236.394C127.171 235.802 126.763 235.106 126.491 234.306C126.235 233.506 126.107 232.642 126.107 231.714ZM134.507 230.346C134.491 230.042 134.435 229.746 134.339 229.458C134.259 229.17 134.123 228.914 133.931 228.69C133.755 228.466 133.523 228.282 133.235 228.138C132.963 227.994 132.619 227.922 132.203 227.922C131.803 227.922 131.459 227.994 131.171 228.138C130.883 228.266 130.643 228.442 130.451 228.666C130.259 228.89 130.107 229.154 129.995 229.458C129.899 229.746 129.827 230.042 129.779 230.346H134.507Z" fill="#662D91"/>
<path d="M140.903 225.738C141.511 225.562 142.295 225.402 143.255 225.258C144.215 225.098 145.223 225.018 146.279 225.018C147.351 225.018 148.239 225.162 148.943 225.45C149.663 225.722 150.231 226.114 150.647 226.626C151.063 227.138 151.359 227.746 151.535 228.45C151.711 229.154 151.799 229.938 151.799 230.802V237.93H148.223V231.234C148.223 230.082 148.071 229.266 147.767 228.786C147.463 228.306 146.895 228.066 146.063 228.066C145.807 228.066 145.535 228.082 145.247 228.114C144.959 228.13 144.703 228.154 144.479 228.186V237.93H140.903V225.738Z" fill="#662D91"/>
<path d="M154.616 231.618C154.616 230.706 154.76 229.85 155.048 229.05C155.352 228.234 155.784 227.53 156.344 226.938C156.904 226.33 157.584 225.85 158.384 225.498C159.184 225.146 160.096 224.97 161.12 224.97C161.792 224.97 162.408 225.034 162.968 225.162C163.528 225.274 164.072 225.442 164.6 225.666L163.856 228.522C163.52 228.394 163.152 228.282 162.752 228.186C162.352 228.09 161.904 228.042 161.408 228.042C160.352 228.042 159.56 228.37 159.032 229.026C158.52 229.682 158.264 230.546 158.264 231.618C158.264 232.754 158.504 233.634 158.984 234.258C159.48 234.882 160.336 235.194 161.552 235.194C161.984 235.194 162.448 235.154 162.944 235.074C163.44 234.994 163.896 234.866 164.312 234.69L164.816 237.618C164.4 237.794 163.88 237.946 163.256 238.074C162.632 238.202 161.944 238.266 161.192 238.266C160.04 238.266 159.048 238.098 158.216 237.762C157.384 237.41 156.696 236.938 156.152 236.346C155.624 235.754 155.232 235.058 154.976 234.258C154.736 233.442 154.616 232.562 154.616 231.618Z" fill="#662D91"/>
<path d="M170.972 237.93H167.396V225.306H170.972V237.93ZM171.308 221.658C171.308 222.314 171.092 222.834 170.66 223.218C170.244 223.586 169.748 223.77 169.172 223.77C168.596 223.77 168.092 223.586 167.66 223.218C167.244 222.834 167.036 222.314 167.036 221.658C167.036 221.002 167.244 220.49 167.66 220.122C168.092 219.738 168.596 219.546 169.172 219.546C169.748 219.546 170.244 219.738 170.66 220.122C171.092 220.49 171.308 221.002 171.308 221.658Z" fill="#662D91"/>
<path d="M179.337 235.434C179.689 235.434 180.025 235.426 180.345 235.41C180.665 235.394 180.921 235.37 181.113 235.338V232.626C180.969 232.594 180.753 232.562 180.465 232.53C180.177 232.498 179.913 232.482 179.673 232.482C179.337 232.482 179.017 232.506 178.713 232.554C178.425 232.586 178.169 232.658 177.945 232.77C177.721 232.882 177.545 233.034 177.417 233.226C177.289 233.418 177.225 233.658 177.225 233.946C177.225 234.506 177.409 234.898 177.777 235.122C178.161 235.33 178.681 235.434 179.337 235.434ZM179.049 224.97C180.105 224.97 180.985 225.09 181.689 225.33C182.393 225.57 182.953 225.914 183.369 226.362C183.801 226.81 184.105 227.354 184.281 227.994C184.457 228.634 184.545 229.346 184.545 230.13V237.57C184.033 237.682 183.321 237.81 182.409 237.954C181.497 238.114 180.393 238.194 179.097 238.194C178.281 238.194 177.537 238.122 176.865 237.978C176.209 237.834 175.641 237.602 175.161 237.282C174.681 236.946 174.313 236.514 174.057 235.986C173.801 235.458 173.673 234.81 173.673 234.042C173.673 233.306 173.817 232.682 174.105 232.17C174.409 231.658 174.809 231.25 175.305 230.946C175.801 230.642 176.369 230.426 177.009 230.298C177.649 230.154 178.313 230.082 179.001 230.082C179.465 230.082 179.873 230.106 180.225 230.154C180.593 230.186 180.889 230.234 181.113 230.298V229.962C181.113 229.354 180.929 228.866 180.561 228.498C180.193 228.13 179.553 227.946 178.641 227.946C178.033 227.946 177.433 227.994 176.841 228.09C176.249 228.17 175.737 228.29 175.305 228.45L174.849 225.57C175.057 225.506 175.313 225.442 175.617 225.378C175.937 225.298 176.281 225.234 176.649 225.186C177.017 225.122 177.401 225.074 177.801 225.042C178.217 224.994 178.633 224.97 179.049 224.97Z" fill="#662D91"/>
<path d="M192.999 238.17C191.959 238.154 191.111 238.042 190.455 237.834C189.815 237.626 189.303 237.338 188.919 236.97C188.551 236.586 188.295 236.13 188.151 235.602C188.023 235.058 187.959 234.45 187.959 233.778V219.882L191.535 219.306V233.058C191.535 233.378 191.559 233.666 191.607 233.922C191.655 234.178 191.743 234.394 191.871 234.57C192.015 234.746 192.215 234.89 192.471 235.002C192.727 235.114 193.071 235.186 193.503 235.218L192.999 238.17Z" fill="#662D91"/>
</svg>
