<svg width="169" height="189" viewBox="0 0 169 189" fill="none" xmlns="http://www.w3.org/2000/svg">
<rect width="169" height="188.554" transform="translate(0 0.446289)" fill="white"/>
<path d="M80.7301 121.099L121.782 76.3148L89.4381 50.1908L50.874 84.1935L80.7301 121.099Z" fill="#FF92E8"/>
<path d="M122.405 81.2907L71.6079 36.092L47.3498 11.6266L14.3838 41.8973L87.5726 128.355L94.2073 120.269L76.1692 92.9014L97.5246 116.537L104.159 109.903L87.5726 86.6814L108.513 105.963L116.185 98.2921L97.5246 76.3147L116.185 92.9014L122.405 81.2907Z" fill="#304F9D"/>
<path d="M124.063 11.6266L154.334 43.3486L119.709 78.8027L93.5852 55.374L74.7178 60.5573L63.3145 49.154L87.9872 43.3486L124.063 11.6266Z" fill="#FF92E8"/>
<path d="M58.131 71.1313L47.3496 87.3034C47.3496 91.1183 69.1888 111.7 80.1083 121.513L98.561 111.354L92.7557 103.475L71.4003 111.354L89.4383 100.987L82.8037 95.1821L64.351 103.475L80.1083 92.072L71.4003 82.5347L56.0576 95.1821L69.1196 79.4247L58.131 71.1313Z" fill="#FF92E8"/>
<path d="M28.041 146.524C29.7841 146.524 31.1193 146.837 32.0467 147.462C32.9741 148.077 33.4378 149.038 33.4378 150.345C33.4378 151.161 33.2479 151.826 32.868 152.34C32.4993 152.842 31.9629 153.239 31.259 153.53C31.4936 153.82 31.7395 154.155 31.9965 154.535C32.2534 154.904 32.5049 155.295 32.7507 155.708C33.0077 156.111 33.2535 156.535 33.4881 156.982C33.7228 157.418 33.9407 157.848 34.1418 158.273H31.2087C30.9964 157.893 30.7785 157.507 30.5551 157.116C30.3428 156.725 30.1193 156.345 29.8847 155.977C29.6612 155.608 29.4377 155.261 29.2142 154.937C28.9908 154.602 28.7673 154.301 28.5438 154.032H27.2533V158.273H24.6387V146.825C25.2085 146.714 25.7951 146.635 26.3985 146.591C27.0131 146.546 27.5606 146.524 28.041 146.524ZM28.1919 148.753C28.0019 148.753 27.8287 148.758 27.6723 148.77C27.527 148.781 27.3874 148.792 27.2533 148.803V151.954H27.9907C28.974 151.954 29.6779 151.831 30.1025 151.585C30.5271 151.34 30.7394 150.921 30.7394 150.328C30.7394 149.758 30.5215 149.356 30.0858 149.122C29.6612 148.876 29.0299 148.753 28.1919 148.753Z" fill="#662D91"/>
<path d="M34.9312 153.932C34.9312 153.15 35.0485 152.468 35.2832 151.887C35.529 151.295 35.8474 150.803 36.2385 150.412C36.6296 150.021 37.0765 149.725 37.5793 149.524C38.0933 149.323 38.6185 149.222 39.1548 149.222C40.4063 149.222 41.3951 149.608 42.1214 150.379C42.8477 151.138 43.2108 152.261 43.2108 153.747C43.2108 153.893 43.2052 154.055 43.1941 154.234C43.1829 154.401 43.1717 154.552 43.1605 154.686H37.4955C37.5514 155.2 37.7916 155.608 38.2162 155.91C38.6408 156.211 39.2107 156.362 39.9258 156.362C40.3839 156.362 40.8309 156.323 41.2666 156.245C41.7136 156.155 42.0767 156.049 42.356 155.926L42.6913 157.954C42.5572 158.021 42.3784 158.088 42.1549 158.155C41.9314 158.222 41.68 158.278 41.4007 158.323C41.1325 158.379 40.842 158.424 40.5292 158.457C40.2163 158.491 39.9034 158.507 39.5906 158.507C38.7973 158.507 38.1045 158.39 37.5123 158.155C36.9313 157.921 36.4452 157.602 36.0542 157.2C35.6743 156.787 35.3893 156.301 35.1994 155.742C35.0206 155.183 34.9312 154.58 34.9312 153.932ZM40.7973 152.976C40.7862 152.764 40.7471 152.557 40.68 152.356C40.6241 152.155 40.5292 151.976 40.3951 151.82C40.2722 151.664 40.1102 151.535 39.909 151.435C39.7191 151.334 39.4789 151.284 39.1883 151.284C38.909 151.284 38.6688 151.334 38.4676 151.435C38.2665 151.524 38.0989 151.647 37.9648 151.803C37.8308 151.96 37.7246 152.144 37.6464 152.356C37.5793 152.557 37.5291 152.764 37.4955 152.976H40.7973Z" fill="#662D91"/>
<path d="M47.7945 156.479C48.2526 156.479 48.5767 156.435 48.7666 156.345C48.9566 156.256 49.0515 156.083 49.0515 155.826C49.0515 155.625 48.9286 155.451 48.6828 155.306C48.437 155.15 48.0627 154.977 47.5599 154.787C47.1688 154.641 46.8112 154.49 46.4872 154.334C46.1743 154.178 45.9062 153.993 45.6827 153.781C45.4592 153.558 45.286 153.295 45.1631 152.993C45.0402 152.692 44.9788 152.328 44.9788 151.904C44.9788 151.077 45.286 150.423 45.9006 149.943C46.5151 149.462 47.3587 149.222 48.4314 149.222C48.9677 149.222 49.4817 149.272 49.9734 149.373C50.465 149.462 50.8561 149.563 51.1466 149.675L50.7108 151.619C50.4203 151.518 50.1018 151.429 49.7555 151.351C49.4203 151.273 49.0404 151.233 48.6158 151.233C47.8336 151.233 47.4425 151.451 47.4425 151.887C47.4425 151.988 47.4593 152.077 47.4928 152.155C47.5263 152.233 47.5934 152.312 47.6939 152.39C47.7945 152.457 47.9286 152.535 48.0962 152.625C48.275 152.703 48.4984 152.792 48.7666 152.893C49.3141 153.094 49.7666 153.295 50.1242 153.496C50.4817 153.686 50.7611 153.898 50.9622 154.133C51.1745 154.356 51.3198 154.608 51.398 154.887C51.4874 155.166 51.5321 155.491 51.5321 155.859C51.5321 156.731 51.2024 157.39 50.5432 157.837C49.8951 158.284 48.9733 158.507 47.7777 158.507C46.9956 158.507 46.3419 158.44 45.8168 158.306C45.3028 158.172 44.9453 158.06 44.7441 157.971L45.1631 155.943C45.5877 156.111 46.0235 156.245 46.4704 156.345C46.9174 156.435 47.3587 156.479 47.7945 156.479Z" fill="#662D91"/>
<path d="M59.1723 153.932C59.1723 153.161 58.9991 152.546 58.6527 152.088C58.3063 151.619 57.7924 151.384 57.1108 151.384C56.8873 151.384 56.6806 151.395 56.4906 151.418C56.3007 151.429 56.1443 151.446 56.0213 151.468V155.977C56.1778 156.077 56.3789 156.161 56.6247 156.228C56.8817 156.295 57.1387 156.329 57.3957 156.329C58.5801 156.329 59.1723 155.53 59.1723 153.932ZM61.7199 153.865C61.7199 154.546 61.6361 155.166 61.4685 155.725C61.3008 156.284 61.055 156.764 60.731 157.167C60.407 157.569 60.0047 157.882 59.5243 158.105C59.0438 158.329 58.4907 158.44 57.865 158.44C57.5186 158.44 57.1946 158.407 56.8929 158.34C56.5912 158.273 56.3007 158.178 56.0213 158.055V161.373H53.5241V149.758C53.7475 149.691 54.0045 149.63 54.295 149.574C54.5855 149.507 54.8872 149.451 55.2001 149.407C55.5241 149.362 55.8482 149.328 56.1722 149.306C56.5074 149.272 56.8258 149.256 57.1275 149.256C57.8538 149.256 58.5019 149.367 59.0717 149.591C59.6416 149.803 60.122 150.11 60.5131 150.513C60.9042 150.904 61.2003 151.384 61.4014 151.954C61.6137 152.524 61.7199 153.161 61.7199 153.865Z" fill="#662D91"/>
<path d="M63.3459 153.932C63.3459 153.15 63.4632 152.468 63.6978 151.887C63.9437 151.295 64.2621 150.803 64.6532 150.412C65.0442 150.021 65.4912 149.725 65.994 149.524C66.508 149.323 67.0331 149.222 67.5695 149.222C68.8209 149.222 69.8098 149.608 70.5361 150.379C71.2623 151.138 71.6255 152.261 71.6255 153.747C71.6255 153.893 71.6199 154.055 71.6087 154.234C71.5975 154.401 71.5864 154.552 71.5752 154.686H65.9102C65.9661 155.2 66.2063 155.608 66.6309 155.91C67.0555 156.211 67.6253 156.362 68.3405 156.362C68.7986 156.362 69.2455 156.323 69.6813 156.245C70.1282 156.155 70.4914 156.049 70.7707 155.926L71.1059 157.954C70.9718 158.021 70.793 158.088 70.5696 158.155C70.3461 158.222 70.0947 158.278 69.8154 158.323C69.5472 158.379 69.2567 158.424 68.9438 158.457C68.631 158.491 68.3181 158.507 68.0052 158.507C67.2119 158.507 66.5192 158.39 65.927 158.155C65.3459 157.921 64.8599 157.602 64.4688 157.2C64.0889 156.787 63.804 156.301 63.614 155.742C63.4353 155.183 63.3459 154.58 63.3459 153.932ZM69.212 152.976C69.2008 152.764 69.1617 152.557 69.0947 152.356C69.0388 152.155 68.9438 151.976 68.8097 151.82C68.6868 151.664 68.5248 151.535 68.3237 151.435C68.1337 151.334 67.8935 151.284 67.603 151.284C67.3237 151.284 67.0834 151.334 66.8823 151.435C66.6812 151.524 66.5136 151.647 66.3795 151.803C66.2454 151.96 66.1393 152.144 66.061 152.356C65.994 152.557 65.9437 152.764 65.9102 152.976H69.212Z" fill="#662D91"/>
<path d="M73.5945 147.261L76.0918 146.859V149.457H79.0919V151.535H76.0918V154.636C76.0918 155.161 76.1812 155.58 76.36 155.893C76.55 156.206 76.9243 156.362 77.4829 156.362C77.7511 156.362 78.0249 156.34 78.3042 156.295C78.5947 156.239 78.8573 156.167 79.0919 156.077L79.4439 158.021C79.1422 158.144 78.807 158.25 78.4383 158.34C78.0696 158.429 77.617 158.474 77.0807 158.474C76.3991 158.474 75.8348 158.384 75.3879 158.206C74.941 158.016 74.5834 157.759 74.3152 157.435C74.0471 157.1 73.8571 156.697 73.7454 156.228C73.6448 155.759 73.5945 155.239 73.5945 154.669V147.261Z" fill="#662D91"/>
<path d="M88.7767 157.971C88.3521 158.094 87.8046 158.206 87.1342 158.306C86.4637 158.418 85.7598 158.474 85.0223 158.474C84.2737 158.474 83.648 158.373 83.1452 158.172C82.6536 157.971 82.2625 157.692 81.972 157.334C81.6815 156.965 81.4747 156.53 81.3518 156.027C81.2289 155.524 81.1675 154.971 81.1675 154.368V149.457H83.6648V154.066C83.6648 154.87 83.7709 155.451 83.9832 155.809C84.1955 156.167 84.5922 156.345 85.1732 156.345C85.352 156.345 85.5419 156.34 85.743 156.329C85.9442 156.306 86.1229 156.284 86.2794 156.261V149.457H88.7767V157.971Z" fill="#662D91"/>
<path d="M99.4927 153.848C99.4927 154.541 99.3921 155.178 99.191 155.759C98.9899 156.329 98.6993 156.82 98.3194 157.234C97.9395 157.636 97.4814 157.949 96.9451 158.172C96.4199 158.396 95.8277 158.507 95.1685 158.507C94.5204 158.507 93.9282 158.396 93.3919 158.172C92.8667 157.949 92.4142 157.636 92.0343 157.234C91.6544 156.82 91.3583 156.329 91.146 155.759C90.9337 155.178 90.8276 154.541 90.8276 153.848C90.8276 153.155 90.9337 152.524 91.146 151.954C91.3695 151.384 91.6712 150.898 92.0511 150.496C92.4422 150.094 92.9003 149.781 93.4254 149.557C93.9618 149.334 94.5428 149.222 95.1685 149.222C95.8054 149.222 96.3864 149.334 96.9116 149.557C97.4479 149.781 97.906 150.094 98.2859 150.496C98.6658 150.898 98.9619 151.384 99.1742 151.954C99.3865 152.524 99.4927 153.155 99.4927 153.848ZM96.9451 153.848C96.9451 153.077 96.7887 152.474 96.4758 152.038C96.1741 151.591 95.7384 151.367 95.1685 151.367C94.5986 151.367 94.1573 151.591 93.8444 152.038C93.5316 152.474 93.3751 153.077 93.3751 153.848C93.3751 154.619 93.5316 155.234 93.8444 155.692C94.1573 156.139 94.5986 156.362 95.1685 156.362C95.7384 156.362 96.1741 156.139 96.4758 155.692C96.7887 155.234 96.9451 154.619 96.9451 153.848Z" fill="#662D91"/>
<path d="M104.084 156.479C104.542 156.479 104.866 156.435 105.056 156.345C105.246 156.256 105.341 156.083 105.341 155.826C105.341 155.625 105.218 155.451 104.972 155.306C104.726 155.15 104.352 154.977 103.849 154.787C103.458 154.641 103.1 154.49 102.776 154.334C102.464 154.178 102.195 153.993 101.972 153.781C101.748 153.558 101.575 153.295 101.452 152.993C101.329 152.692 101.268 152.328 101.268 151.904C101.268 151.077 101.575 150.423 102.19 149.943C102.804 149.462 103.648 149.222 104.721 149.222C105.257 149.222 105.771 149.272 106.263 149.373C106.754 149.462 107.145 149.563 107.436 149.675L107 151.619C106.709 151.518 106.391 151.429 106.045 151.351C105.709 151.273 105.33 151.233 104.905 151.233C104.123 151.233 103.732 151.451 103.732 151.887C103.732 151.988 103.748 152.077 103.782 152.155C103.816 152.233 103.883 152.312 103.983 152.39C104.084 152.457 104.218 152.535 104.385 152.625C104.564 152.703 104.788 152.792 105.056 152.893C105.603 153.094 106.056 153.295 106.413 153.496C106.771 153.686 107.05 153.898 107.251 154.133C107.464 154.356 107.609 154.608 107.687 154.887C107.777 155.166 107.821 155.491 107.821 155.859C107.821 156.731 107.492 157.39 106.832 157.837C106.184 158.284 105.262 158.507 104.067 158.507C103.285 158.507 102.631 158.44 102.106 158.306C101.592 158.172 101.234 158.06 101.033 157.971L101.452 155.943C101.877 156.111 102.313 156.245 102.76 156.345C103.207 156.435 103.648 156.479 104.084 156.479Z" fill="#662D91"/>
<path d="M113.182 156.53C113.428 156.53 113.663 156.524 113.886 156.513C114.109 156.502 114.288 156.485 114.422 156.463V154.569C114.322 154.546 114.171 154.524 113.97 154.502C113.769 154.479 113.584 154.468 113.417 154.468C113.182 154.468 112.959 154.485 112.746 154.518C112.545 154.541 112.366 154.591 112.21 154.669C112.054 154.747 111.931 154.854 111.841 154.988C111.752 155.122 111.707 155.289 111.707 155.491C111.707 155.882 111.836 156.155 112.093 156.312C112.361 156.457 112.724 156.53 113.182 156.53ZM112.981 149.222C113.718 149.222 114.333 149.306 114.825 149.474C115.316 149.641 115.707 149.881 115.998 150.194C116.299 150.507 116.512 150.887 116.635 151.334C116.758 151.781 116.819 152.278 116.819 152.826V158.021C116.461 158.1 115.964 158.189 115.327 158.29C114.69 158.401 113.92 158.457 113.014 158.457C112.445 158.457 111.925 158.407 111.456 158.306C110.998 158.206 110.601 158.044 110.266 157.82C109.931 157.586 109.674 157.284 109.495 156.915C109.316 156.546 109.227 156.094 109.227 155.558C109.227 155.044 109.327 154.608 109.528 154.25C109.741 153.893 110.02 153.608 110.366 153.395C110.713 153.183 111.109 153.032 111.556 152.943C112.003 152.842 112.467 152.792 112.947 152.792C113.271 152.792 113.556 152.809 113.802 152.842C114.059 152.865 114.266 152.898 114.422 152.943V152.708C114.422 152.284 114.294 151.943 114.037 151.686C113.78 151.429 113.333 151.3 112.696 151.3C112.271 151.3 111.852 151.334 111.439 151.401C111.026 151.457 110.668 151.541 110.366 151.652L110.048 149.641C110.193 149.596 110.372 149.552 110.584 149.507C110.808 149.451 111.048 149.407 111.305 149.373C111.562 149.328 111.83 149.295 112.109 149.272C112.4 149.239 112.69 149.222 112.981 149.222Z" fill="#662D91"/>
<path d="M125.484 153.798C125.484 154.569 125.657 155.189 126.003 155.658C126.35 156.127 126.864 156.362 127.545 156.362C127.769 156.362 127.975 156.356 128.165 156.345C128.355 156.323 128.512 156.301 128.635 156.278V151.736C128.478 151.636 128.271 151.552 128.014 151.485C127.769 151.418 127.517 151.384 127.26 151.384C126.076 151.384 125.484 152.189 125.484 153.798ZM131.132 157.988C130.908 158.055 130.651 158.122 130.361 158.189C130.07 158.245 129.763 158.295 129.439 158.34C129.126 158.384 128.802 158.418 128.467 158.44C128.143 158.474 127.83 158.491 127.528 158.491C126.802 158.491 126.154 158.384 125.584 158.172C125.014 157.96 124.534 157.658 124.143 157.267C123.752 156.865 123.45 156.384 123.238 155.826C123.037 155.256 122.936 154.619 122.936 153.915C122.936 153.2 123.025 152.557 123.204 151.988C123.383 151.407 123.64 150.915 123.975 150.513C124.31 150.11 124.718 149.803 125.199 149.591C125.69 149.379 126.249 149.272 126.875 149.272C127.221 149.272 127.528 149.306 127.797 149.373C128.076 149.44 128.355 149.535 128.635 149.658V145.669L131.132 145.267V157.988Z" fill="#662D91"/>
<path d="M133.177 153.932C133.177 153.15 133.294 152.468 133.529 151.887C133.775 151.295 134.093 150.803 134.484 150.412C134.875 150.021 135.322 149.725 135.825 149.524C136.339 149.323 136.864 149.222 137.4 149.222C138.652 149.222 139.641 149.608 140.367 150.379C141.093 151.138 141.456 152.261 141.456 153.747C141.456 153.893 141.451 154.055 141.44 154.234C141.429 154.401 141.417 154.552 141.406 154.686H135.741C135.797 155.2 136.037 155.608 136.462 155.91C136.886 156.211 137.456 156.362 138.171 156.362C138.63 156.362 139.077 156.323 139.512 156.245C139.959 156.155 140.322 156.049 140.602 155.926L140.937 157.954C140.803 158.021 140.624 158.088 140.401 158.155C140.177 158.222 139.926 158.278 139.646 158.323C139.378 158.379 139.088 158.424 138.775 158.457C138.462 158.491 138.149 158.507 137.836 158.507C137.043 158.507 136.35 158.39 135.758 158.155C135.177 157.921 134.691 157.602 134.3 157.2C133.92 156.787 133.635 156.301 133.445 155.742C133.266 155.183 133.177 154.58 133.177 153.932ZM139.043 152.976C139.032 152.764 138.993 152.557 138.926 152.356C138.87 152.155 138.775 151.976 138.641 151.82C138.518 151.664 138.356 151.535 138.155 151.435C137.965 151.334 137.725 151.284 137.434 151.284C137.155 151.284 136.914 151.334 136.713 151.435C136.512 151.524 136.345 151.647 136.21 151.803C136.076 151.96 135.97 152.144 135.892 152.356C135.825 152.557 135.775 152.764 135.741 152.976H139.043Z" fill="#662D91"/>
<path d="M47.6484 175.201C46.9222 175.19 46.33 175.111 45.8718 174.966C45.4249 174.821 45.0674 174.62 44.7992 174.363C44.5422 174.094 44.3634 173.776 44.2629 173.407C44.1735 173.027 44.1288 172.603 44.1288 172.134V162.429L46.6261 162.027V171.631C46.6261 171.854 46.6428 172.055 46.6763 172.234C46.7099 172.413 46.7713 172.564 46.8607 172.687C46.9613 172.81 47.1009 172.91 47.2797 172.988C47.4585 173.067 47.6987 173.117 48.0004 173.139L47.6484 175.201Z" fill="#662D91"/>
<path d="M53.1719 173.29C53.4177 173.29 53.6524 173.284 53.8758 173.273C54.0993 173.262 54.2781 173.245 54.4122 173.223V171.329C54.3116 171.307 54.1608 171.284 53.9596 171.262C53.7585 171.24 53.5741 171.228 53.4065 171.228C53.1719 171.228 52.9484 171.245 52.7361 171.279C52.535 171.301 52.3562 171.351 52.1998 171.43C52.0434 171.508 51.9205 171.614 51.8311 171.748C51.7417 171.882 51.697 172.05 51.697 172.251C51.697 172.642 51.8255 172.916 52.0825 173.072C52.3506 173.217 52.7138 173.29 53.1719 173.29ZM52.9708 165.982C53.7082 165.982 54.3228 166.066 54.8144 166.234C55.306 166.401 55.6971 166.642 55.9876 166.955C56.2893 167.267 56.5016 167.647 56.6245 168.094C56.7474 168.541 56.8089 169.038 56.8089 169.586V174.782C56.4513 174.86 55.9541 174.949 55.3172 175.05C54.6803 175.162 53.9093 175.217 53.0043 175.217C52.4344 175.217 51.9149 175.167 51.4456 175.067C50.9875 174.966 50.5908 174.804 50.2556 174.581C49.9204 174.346 49.6634 174.044 49.4846 173.675C49.3058 173.307 49.2165 172.854 49.2165 172.318C49.2165 171.804 49.317 171.368 49.5181 171.011C49.7304 170.653 50.0098 170.368 50.3562 170.156C50.7025 169.944 51.0992 169.793 51.5461 169.703C51.9931 169.603 52.4568 169.552 52.9372 169.552C53.2613 169.552 53.5462 169.569 53.792 169.603C54.049 169.625 54.2557 169.659 54.4122 169.703V169.469C54.4122 169.044 54.2837 168.703 54.0267 168.446C53.7697 168.189 53.3227 168.061 52.6858 168.061C52.2612 168.061 51.8422 168.094 51.4288 168.161C51.0154 168.217 50.6578 168.301 50.3562 168.413L50.0377 166.401C50.183 166.357 50.3617 166.312 50.574 166.267C50.7975 166.212 51.0377 166.167 51.2947 166.133C51.5517 166.089 51.8199 166.055 52.0992 166.033C52.3897 165.999 52.6803 165.982 52.9708 165.982Z" fill="#662D91"/>
<path d="M61.7236 173.24C62.1817 173.24 62.5057 173.195 62.6957 173.106C62.8856 173.016 62.9806 172.843 62.9806 172.586C62.9806 172.385 62.8577 172.212 62.6119 172.066C62.3661 171.91 61.9918 171.737 61.4889 171.547C61.0979 171.402 60.7403 171.251 60.4163 171.094C60.1034 170.938 59.8353 170.754 59.6118 170.541C59.3883 170.318 59.2151 170.055 59.0922 169.754C58.9693 169.452 58.9079 169.089 58.9079 168.664C58.9079 167.837 59.2151 167.184 59.8297 166.703C60.4442 166.223 61.2878 165.982 62.3605 165.982C62.8968 165.982 63.4108 166.033 63.9024 166.133C64.3941 166.223 64.7851 166.323 65.0757 166.435L64.6399 168.379C64.3494 168.279 64.0309 168.189 63.6845 168.111C63.3493 168.033 62.9694 167.994 62.5448 167.994C61.7627 167.994 61.3716 168.212 61.3716 168.647C61.3716 168.748 61.3884 168.837 61.4219 168.916C61.4554 168.994 61.5225 169.072 61.623 169.15C61.7236 169.217 61.8577 169.295 62.0253 169.385C62.204 169.463 62.4275 169.552 62.6957 169.653C63.2432 169.854 63.6957 170.055 64.0533 170.256C64.4108 170.446 64.6902 170.659 64.8913 170.893C65.1036 171.117 65.2488 171.368 65.3271 171.647C65.4164 171.927 65.4611 172.251 65.4611 172.62C65.4611 173.491 65.1315 174.15 64.4723 174.597C63.8242 175.044 62.9024 175.268 61.7068 175.268C60.9247 175.268 60.271 175.201 59.7459 175.067C59.2319 174.933 58.8743 174.821 58.6732 174.731L59.0922 172.703C59.5168 172.871 59.9526 173.005 60.3995 173.106C60.8465 173.195 61.2878 173.24 61.7236 173.24Z" fill="#662D91"/>
<path d="M77.2535 170.692C77.2535 169.921 77.0803 169.307 76.7339 168.849C76.3875 168.379 75.8735 168.145 75.192 168.145C74.9685 168.145 74.7618 168.156 74.5718 168.178C74.3819 168.189 74.2254 168.206 74.1025 168.228V172.737C74.259 172.837 74.4601 172.921 74.7059 172.988C74.9629 173.055 75.2199 173.089 75.4769 173.089C76.6613 173.089 77.2535 172.29 77.2535 170.692ZM79.801 170.625C79.801 171.307 79.7172 171.927 79.5496 172.486C79.382 173.044 79.1362 173.525 78.8122 173.927C78.4882 174.329 78.0859 174.642 77.6054 174.865C77.125 175.089 76.5719 175.201 75.9462 175.201C75.5998 175.201 75.2758 175.167 74.9741 175.1C74.6724 175.033 74.3819 174.938 74.1025 174.815V178.134H71.6052V166.519C71.8287 166.452 72.0857 166.39 72.3762 166.334C72.6667 166.267 72.9684 166.212 73.2813 166.167C73.6053 166.122 73.9293 166.089 74.2534 166.066C74.5886 166.033 74.907 166.016 75.2087 166.016C75.935 166.016 76.5831 166.128 77.1529 166.351C77.7228 166.564 78.2032 166.871 78.5943 167.273C78.9854 167.664 79.2815 168.145 79.4826 168.714C79.6949 169.284 79.801 169.921 79.801 170.625Z" fill="#662D91"/>
<path d="M85.2149 173.29C85.4607 173.29 85.6954 173.284 85.9188 173.273C86.1423 173.262 86.3211 173.245 86.4552 173.223V171.329C86.3546 171.307 86.2038 171.284 86.0026 171.262C85.8015 171.24 85.6171 171.228 85.4495 171.228C85.2149 171.228 84.9914 171.245 84.7791 171.279C84.578 171.301 84.3992 171.351 84.2428 171.43C84.0864 171.508 83.9635 171.614 83.8741 171.748C83.7847 171.882 83.74 172.05 83.74 172.251C83.74 172.642 83.8685 172.916 84.1255 173.072C84.3936 173.217 84.7568 173.29 85.2149 173.29ZM85.0138 165.982C85.7512 165.982 86.3658 166.066 86.8574 166.234C87.349 166.401 87.7401 166.642 88.0306 166.955C88.3323 167.267 88.5446 167.647 88.6675 168.094C88.7904 168.541 88.8519 169.038 88.8519 169.586V174.782C88.4943 174.86 87.9971 174.949 87.3602 175.05C86.7233 175.162 85.9523 175.217 85.0473 175.217C84.4774 175.217 83.9579 175.167 83.4886 175.067C83.0305 174.966 82.6338 174.804 82.2986 174.581C81.9634 174.346 81.7064 174.044 81.5276 173.675C81.3488 173.307 81.2595 172.854 81.2595 172.318C81.2595 171.804 81.36 171.368 81.5611 171.011C81.7734 170.653 82.0528 170.368 82.3992 170.156C82.7455 169.944 83.1422 169.793 83.5891 169.703C84.0361 169.603 84.4998 169.552 84.9802 169.552C85.3043 169.552 85.5892 169.569 85.835 169.603C86.092 169.625 86.2987 169.659 86.4552 169.703V169.469C86.4552 169.044 86.3267 168.703 86.0697 168.446C85.8127 168.189 85.3657 168.061 84.7288 168.061C84.3042 168.061 83.8852 168.094 83.4718 168.161C83.0584 168.217 82.7008 168.301 82.3992 168.413L82.0807 166.401C82.226 166.357 82.4047 166.312 82.617 166.267C82.8405 166.212 83.0807 166.167 83.3377 166.133C83.5947 166.089 83.8629 166.055 84.1422 166.033C84.4327 165.999 84.7233 165.982 85.0138 165.982Z" fill="#662D91"/>
<path d="M96.5488 168.429C96.3253 168.374 96.0628 168.318 95.7611 168.262C95.4594 168.195 95.1354 168.161 94.789 168.161C94.6325 168.161 94.4426 168.178 94.2191 168.212C94.0068 168.234 93.8448 168.262 93.7331 168.295V175.033H91.2358V166.686C91.6827 166.53 92.2079 166.385 92.8113 166.251C93.4258 166.105 94.1074 166.033 94.856 166.033C94.9901 166.033 95.1521 166.044 95.3421 166.066C95.532 166.077 95.722 166.1 95.9119 166.133C96.1019 166.156 96.2918 166.189 96.4818 166.234C96.6717 166.267 96.8337 166.312 96.9678 166.368L96.5488 168.429Z" fill="#662D91"/>
<path d="M98.3484 164.022L100.846 163.619V166.217H103.846V168.295H100.846V171.396C100.846 171.921 100.935 172.34 101.114 172.653C101.304 172.966 101.678 173.122 102.237 173.122C102.505 173.122 102.779 173.1 103.058 173.055C103.349 172.999 103.611 172.927 103.846 172.837L104.198 174.782C103.896 174.905 103.561 175.011 103.192 175.1C102.823 175.19 102.371 175.234 101.835 175.234C101.153 175.234 100.589 175.145 100.142 174.966C99.6949 174.776 99.3373 174.519 99.0691 174.195C98.801 173.86 98.611 173.458 98.4993 172.988C98.3987 172.519 98.3484 171.999 98.3484 171.43V164.022Z" fill="#662D91"/>
<path d="M105.259 170.692C105.259 169.91 105.376 169.228 105.611 168.647C105.857 168.055 106.175 167.564 106.566 167.172C106.957 166.781 107.404 166.485 107.907 166.284C108.421 166.083 108.946 165.982 109.482 165.982C110.734 165.982 111.723 166.368 112.449 167.139C113.175 167.899 113.538 169.022 113.538 170.508C113.538 170.653 113.533 170.815 113.522 170.994C113.51 171.161 113.499 171.312 113.488 171.446H107.823C107.879 171.96 108.119 172.368 108.544 172.67C108.968 172.972 109.538 173.122 110.253 173.122C110.712 173.122 111.158 173.083 111.594 173.005C112.041 172.916 112.404 172.81 112.684 172.687L113.019 174.715C112.885 174.782 112.706 174.849 112.483 174.916C112.259 174.983 112.008 175.039 111.728 175.083C111.46 175.139 111.17 175.184 110.857 175.217C110.544 175.251 110.231 175.268 109.918 175.268C109.125 175.268 108.432 175.15 107.84 174.916C107.259 174.681 106.773 174.363 106.382 173.96C106.002 173.547 105.717 173.061 105.527 172.502C105.348 171.944 105.259 171.34 105.259 170.692ZM111.125 169.737C111.114 169.525 111.075 169.318 111.008 169.117C110.952 168.916 110.857 168.737 110.723 168.58C110.6 168.424 110.438 168.295 110.237 168.195C110.047 168.094 109.806 168.044 109.516 168.044C109.237 168.044 108.996 168.094 108.795 168.195C108.594 168.284 108.427 168.407 108.292 168.564C108.158 168.72 108.052 168.904 107.974 169.117C107.907 169.318 107.857 169.525 107.823 169.737H111.125Z" fill="#662D91"/>
<path d="M118.122 173.24C118.58 173.24 118.904 173.195 119.094 173.106C119.284 173.016 119.379 172.843 119.379 172.586C119.379 172.385 119.256 172.212 119.01 172.066C118.765 171.91 118.39 171.737 117.887 171.547C117.496 171.402 117.139 171.251 116.815 171.094C116.502 170.938 116.234 170.754 116.01 170.541C115.787 170.318 115.614 170.055 115.491 169.754C115.368 169.452 115.306 169.089 115.306 168.664C115.306 167.837 115.614 167.184 116.228 166.703C116.843 166.223 117.686 165.982 118.759 165.982C119.295 165.982 119.809 166.033 120.301 166.133C120.793 166.223 121.184 166.323 121.474 166.435L121.038 168.379C120.748 168.279 120.429 168.189 120.083 168.111C119.748 168.033 119.368 167.994 118.943 167.994C118.161 167.994 117.77 168.212 117.77 168.647C117.77 168.748 117.787 168.837 117.82 168.916C117.854 168.994 117.921 169.072 118.022 169.15C118.122 169.217 118.256 169.295 118.424 169.385C118.603 169.463 118.826 169.552 119.094 169.653C119.642 169.854 120.094 170.055 120.452 170.256C120.809 170.446 121.089 170.659 121.29 170.893C121.502 171.117 121.647 171.368 121.726 171.647C121.815 171.927 121.86 172.251 121.86 172.62C121.86 173.491 121.53 174.15 120.871 174.597C120.223 175.044 119.301 175.268 118.105 175.268C117.323 175.268 116.67 175.201 116.144 175.067C115.63 174.933 115.273 174.821 115.072 174.731L115.491 172.703C115.915 172.871 116.351 173.005 116.798 173.106C117.245 173.195 117.686 173.24 118.122 173.24Z" fill="#662D91"/>
</svg>
