<svg width="370" height="355" viewBox="0 0 370 355" fill="none" xmlns="http://www.w3.org/2000/svg">
<g filter="url(#filter0_d_93_7762)">
<mask id="mask0_93_7762" style="mask-type:alpha" maskUnits="userSpaceOnUse" x="6" y="0" width="358" height="342">
<rect x="6" width="358" height="342" rx="23" fill="#D9D9D9"/>
</mask>
<g mask="url(#mask0_93_7762)">
<rect x="6" width="358" height="342" rx="23" fill="#FBB03B"/>
<path d="M192.095 19.6406H41.9051C39.7483 19.6406 37.9998 21.3891 37.9998 23.5459V206.528C37.9998 208.685 39.7483 210.433 41.9051 210.433H192.095C194.251 210.433 196 208.685 196 206.528V23.5459C196 21.3891 194.251 19.6406 192.095 19.6406Z" fill="#F15A24"/>
<path d="M177.12 57.4023H59.8615V62.3709H177.12V57.4023Z" fill="#FCF9F5"/>
<path d="M177.12 82.2441H59.8615V87.2127H177.12V82.2441Z" fill="#FCF9F5"/>
<path d="M177.12 106.094H59.8615V111.062H177.12V106.094Z" fill="#FCF9F5"/>
<path d="M122.465 132.924H59.8615V137.892H122.465V132.924Z" fill="#FCF9F5"/>
<path d="M232.874 247.742L284.152 191.802L243.751 159.17L195.581 201.643L232.874 247.742Z" fill="#F15A24"/>
<path d="M284.929 198.018L221.479 141.56L191.178 111L150 148.811L241.421 256.807L249.708 246.706L227.177 212.521L253.852 242.045L262.139 233.757L241.421 204.751L267.578 228.837L277.16 219.254L253.852 191.802L277.16 212.521L284.929 198.018Z" fill="#304F9D"/>
<path d="M287.001 111L324.813 150.624L281.563 194.91L248.931 165.645L225.364 172.12L211.12 157.876L241.939 150.624L287.001 111Z" fill="#F15A24"/>
<path d="M204.645 185.328L191.178 205.529C191.178 210.294 218.458 236.002 232.097 248.261L255.147 235.571L247.895 225.729L221.22 235.571L243.751 222.621L235.464 215.37L212.415 225.729L232.097 211.485L221.22 199.572L202.055 215.37L218.371 195.687L204.645 185.328Z" fill="#F15A24"/>
</g>
<path d="M6 270H364V319C364 331.703 353.703 342 341 342H29C16.2975 342 6 331.703 6 319V270Z" fill="white"/>
<path d="M161.685 311V297H166.715C167.841 297 168.731 297.203 169.385 297.61C170.038 298.017 170.501 298.54 170.775 299.18C171.055 299.82 171.195 300.483 171.195 301.17C171.195 301.65 171.115 302.133 170.955 302.62C170.795 303.107 170.535 303.557 170.175 303.97C169.821 304.377 169.361 304.707 168.795 304.96C168.228 305.207 167.535 305.33 166.715 305.33H163.085V311H161.685ZM163.085 304.01H166.795C167.541 304.01 168.135 303.867 168.575 303.58C169.015 303.287 169.328 302.923 169.515 302.49C169.701 302.05 169.795 301.61 169.795 301.17C169.795 300.743 169.708 300.31 169.535 299.87C169.368 299.43 169.065 299.063 168.625 298.77C168.191 298.47 167.581 298.32 166.795 298.32H163.085V304.01ZM174.317 311V300.78H175.717V302.4C175.971 301.8 176.321 301.34 176.767 301.02C177.221 300.7 177.744 300.54 178.337 300.54C178.951 300.54 179.451 300.703 179.837 301.03L179.627 302.36C179.427 302.22 179.207 302.117 178.967 302.05C178.734 301.983 178.481 301.95 178.207 301.95C177.714 301.95 177.281 302.09 176.907 302.37C176.534 302.65 176.241 303.04 176.027 303.54C175.821 304.033 175.717 304.61 175.717 305.27V311H174.317ZM185.774 311.24C184.427 311.24 183.364 310.763 182.584 309.81C181.804 308.85 181.414 307.547 181.414 305.9C181.414 304.8 181.591 303.85 181.944 303.05C182.297 302.25 182.801 301.633 183.454 301.2C184.107 300.76 184.881 300.54 185.774 300.54C186.674 300.54 187.451 300.757 188.104 301.19C188.757 301.617 189.257 302.23 189.604 303.03C189.957 303.83 190.134 304.78 190.134 305.88C190.134 306.98 189.957 307.933 189.604 308.74C189.251 309.54 188.747 310.157 188.094 310.59C187.441 311.023 186.667 311.24 185.774 311.24ZM185.774 309.92C186.694 309.92 187.411 309.563 187.924 308.85C188.444 308.137 188.704 307.147 188.704 305.88C188.704 304.607 188.444 303.617 187.924 302.91C187.411 302.203 186.694 301.85 185.774 301.85C184.841 301.85 184.117 302.203 183.604 302.91C183.097 303.61 182.844 304.607 182.844 305.9C182.844 307.173 183.101 308.163 183.614 308.87C184.127 309.57 184.847 309.92 185.774 309.92ZM196.064 311.24C195.39 311.24 194.877 311.037 194.524 310.63C194.177 310.217 194.004 309.62 194.004 308.84V302.01H192.314V300.78H194.004V297.24L195.404 296.56V300.78H197.944V302.01H195.404V308.42C195.404 308.953 195.49 309.34 195.664 309.58C195.844 309.813 196.13 309.93 196.524 309.93C197.004 309.93 197.507 309.757 198.034 309.41L197.874 310.79C197.607 310.943 197.32 311.057 197.014 311.13C196.707 311.203 196.39 311.24 196.064 311.24ZM204.84 311.24C203.494 311.24 202.43 310.763 201.65 309.81C200.87 308.85 200.48 307.547 200.48 305.9C200.48 304.8 200.657 303.85 201.01 303.05C201.364 302.25 201.867 301.633 202.52 301.2C203.174 300.76 203.947 300.54 204.84 300.54C205.74 300.54 206.517 300.757 207.17 301.19C207.824 301.617 208.324 302.23 208.67 303.03C209.024 303.83 209.2 304.78 209.2 305.88C209.2 306.98 209.024 307.933 208.67 308.74C208.317 309.54 207.814 310.157 207.16 310.59C206.507 311.023 205.734 311.24 204.84 311.24ZM204.84 309.92C205.76 309.92 206.477 309.563 206.99 308.85C207.51 308.137 207.77 307.147 207.77 305.88C207.77 304.607 207.51 303.617 206.99 302.91C206.477 302.203 205.76 301.85 204.84 301.85C203.907 301.85 203.184 302.203 202.67 302.91C202.164 303.61 201.91 304.607 201.91 305.9C201.91 307.173 202.167 308.163 202.68 308.87C203.194 309.57 203.914 309.92 204.84 309.92ZM216.241 311.24C215.401 311.24 214.678 311.027 214.071 310.6C213.465 310.167 212.998 309.553 212.671 308.76C212.351 307.96 212.191 307.007 212.191 305.9C212.191 304.787 212.358 303.83 212.691 303.03C213.025 302.23 213.501 301.617 214.121 301.19C214.741 300.757 215.481 300.54 216.341 300.54C217.161 300.54 217.861 300.74 218.441 301.14C219.028 301.533 219.455 302.1 219.721 302.84L218.391 303.33C218.218 302.857 217.955 302.493 217.601 302.24C217.248 301.987 216.835 301.86 216.361 301.86C215.475 301.86 214.798 302.203 214.331 302.89C213.871 303.577 213.641 304.58 213.641 305.9C213.641 307.167 213.871 308.153 214.331 308.86C214.791 309.56 215.438 309.91 216.271 309.91C216.818 309.91 217.288 309.763 217.681 309.47C218.075 309.177 218.348 308.777 218.501 308.27L219.821 308.71C219.588 309.51 219.155 310.133 218.521 310.58C217.895 311.02 217.135 311.24 216.241 311.24ZM226.915 311.24C225.568 311.24 224.505 310.763 223.725 309.81C222.945 308.85 222.555 307.547 222.555 305.9C222.555 304.8 222.731 303.85 223.085 303.05C223.438 302.25 223.941 301.633 224.595 301.2C225.248 300.76 226.021 300.54 226.915 300.54C227.815 300.54 228.591 300.757 229.245 301.19C229.898 301.617 230.398 302.23 230.745 303.03C231.098 303.83 231.275 304.78 231.275 305.88C231.275 306.98 231.098 307.933 230.745 308.74C230.391 309.54 229.888 310.157 229.235 310.59C228.581 311.023 227.808 311.24 226.915 311.24ZM226.915 309.92C227.835 309.92 228.551 309.563 229.065 308.85C229.585 308.137 229.845 307.147 229.845 305.88C229.845 304.607 229.585 303.617 229.065 302.91C228.551 302.203 227.835 301.85 226.915 301.85C225.981 301.85 225.258 302.203 224.745 302.91C224.238 303.61 223.985 304.607 223.985 305.9C223.985 307.173 224.241 308.163 224.755 308.87C225.268 309.57 225.988 309.92 226.915 309.92ZM234.79 311V297.23L236.19 296.56V311H234.79ZM244.067 311.24C242.72 311.24 241.657 310.763 240.877 309.81C240.097 308.85 239.707 307.547 239.707 305.9C239.707 304.8 239.884 303.85 240.237 303.05C240.59 302.25 241.094 301.633 241.747 301.2C242.4 300.76 243.174 300.54 244.067 300.54C244.967 300.54 245.744 300.757 246.397 301.19C247.05 301.617 247.55 302.23 247.897 303.03C248.25 303.83 248.427 304.78 248.427 305.88C248.427 306.98 248.25 307.933 247.897 308.74C247.544 309.54 247.04 310.157 246.387 310.59C245.734 311.023 244.96 311.24 244.067 311.24ZM244.067 309.92C244.987 309.92 245.704 309.563 246.217 308.85C246.737 308.137 246.997 307.147 246.997 305.88C246.997 304.607 246.737 303.617 246.217 302.91C245.704 302.203 244.987 301.85 244.067 301.85C243.134 301.85 242.41 302.203 241.897 302.91C241.39 303.61 241.137 304.607 241.137 305.9C241.137 307.173 241.394 308.163 241.907 308.87C242.42 309.57 243.14 309.92 244.067 309.92ZM259.841 311.24C258.761 311.24 257.915 310.94 257.301 310.34C256.688 309.733 256.381 308.9 256.381 307.84C256.381 307.16 256.531 306.57 256.831 306.07C257.138 305.57 257.568 305.187 258.121 304.92C258.681 304.647 259.341 304.51 260.101 304.51C260.601 304.51 261.078 304.573 261.531 304.7C261.991 304.827 262.435 305.017 262.861 305.27V304.29C262.861 303.423 262.671 302.787 262.291 302.38C261.918 301.973 261.335 301.77 260.541 301.77C260.068 301.77 259.565 301.86 259.031 302.04C258.505 302.213 258.005 302.46 257.531 302.78L257.121 301.6C257.661 301.26 258.245 301 258.871 300.82C259.498 300.633 260.111 300.54 260.711 300.54C261.858 300.54 262.725 300.84 263.311 301.44C263.898 302.04 264.191 302.923 264.191 304.09V311H262.861V309.84C262.455 310.287 261.988 310.633 261.461 310.88C260.941 311.12 260.401 311.24 259.841 311.24ZM260.021 310.01C260.535 310.01 261.035 309.877 261.521 309.61C262.008 309.337 262.455 308.947 262.861 308.44V306.53C262.468 306.277 262.041 306.083 261.581 305.95C261.128 305.81 260.688 305.74 260.261 305.74C259.495 305.74 258.881 305.933 258.421 306.32C257.968 306.7 257.741 307.21 257.741 307.85C257.741 308.51 257.945 309.037 258.351 309.43C258.758 309.817 259.315 310.01 260.021 310.01ZM268.185 311V300.78H269.585V301.98C269.878 301.513 270.261 301.157 270.735 300.91C271.208 300.663 271.738 300.54 272.325 300.54C272.971 300.54 273.535 300.7 274.015 301.02C274.501 301.34 274.861 301.79 275.095 302.37C275.381 301.797 275.788 301.35 276.315 301.03C276.848 300.703 277.441 300.54 278.095 300.54C279.155 300.54 279.998 300.87 280.625 301.53C281.251 302.183 281.565 303.07 281.565 304.19V311H280.165V304.73C280.165 303.783 279.975 303.063 279.595 302.57C279.215 302.077 278.665 301.83 277.945 301.83C277.471 301.83 277.055 301.953 276.695 302.2C276.341 302.447 276.065 302.793 275.865 303.24C275.665 303.68 275.565 304.19 275.565 304.77V311H274.165V304.73C274.165 303.777 273.981 303.057 273.615 302.57C273.248 302.077 272.701 301.83 271.975 301.83C271.235 301.83 270.651 302.093 270.225 302.62C269.798 303.14 269.585 303.853 269.585 304.76V311H268.185ZM285.58 311V300.78H286.98V311H285.58ZM286.27 298.73C286.017 298.73 285.8 298.64 285.62 298.46C285.447 298.28 285.36 298.063 285.36 297.81C285.36 297.543 285.447 297.32 285.62 297.14C285.8 296.953 286.017 296.86 286.27 296.86C286.537 296.86 286.757 296.953 286.93 297.14C287.11 297.32 287.2 297.543 287.2 297.81C287.2 298.063 287.11 298.28 286.93 298.46C286.757 298.64 286.537 298.73 286.27 298.73ZM294.019 315.26L293.329 314.14C294.256 314.087 295.012 313.953 295.599 313.74C296.186 313.533 296.619 313.237 296.899 312.85C297.179 312.463 297.319 311.973 297.319 311.38V309.77C296.706 310.75 295.779 311.24 294.539 311.24C293.719 311.24 293.002 311.017 292.389 310.57C291.776 310.123 291.299 309.5 290.959 308.7C290.619 307.893 290.449 306.953 290.449 305.88C290.449 304.793 290.619 303.85 290.959 303.05C291.306 302.25 291.789 301.633 292.409 301.2C293.029 300.76 293.762 300.54 294.609 300.54C295.162 300.54 295.679 300.657 296.159 300.89C296.646 301.117 297.032 301.43 297.319 301.83V300.78H298.719V310.97C298.719 311.65 298.622 312.247 298.429 312.76C298.242 313.28 297.952 313.717 297.559 314.07C297.172 314.423 296.682 314.697 296.089 314.89C295.502 315.09 294.812 315.213 294.019 315.26ZM294.789 309.92C295.289 309.92 295.769 309.767 296.229 309.46C296.689 309.147 297.052 308.737 297.319 308.23V303.41C297.059 302.943 296.696 302.567 296.229 302.28C295.769 301.993 295.296 301.85 294.809 301.85C293.862 301.85 293.136 302.197 292.629 302.89C292.129 303.577 291.879 304.573 291.879 305.88C291.879 306.693 291.999 307.403 292.239 308.01C292.486 308.61 292.826 309.08 293.259 309.42C293.699 309.753 294.209 309.92 294.789 309.92ZM305.728 311.24C304.648 311.24 303.801 310.94 303.188 310.34C302.575 309.733 302.268 308.9 302.268 307.84C302.268 307.16 302.418 306.57 302.718 306.07C303.025 305.57 303.455 305.187 304.008 304.92C304.568 304.647 305.228 304.51 305.988 304.51C306.488 304.51 306.965 304.573 307.418 304.7C307.878 304.827 308.321 305.017 308.748 305.27V304.29C308.748 303.423 308.558 302.787 308.178 302.38C307.805 301.973 307.221 301.77 306.428 301.77C305.955 301.77 305.451 301.86 304.918 302.04C304.391 302.213 303.891 302.46 303.418 302.78L303.008 301.6C303.548 301.26 304.131 301 304.758 300.82C305.385 300.633 305.998 300.54 306.598 300.54C307.745 300.54 308.611 300.84 309.198 301.44C309.785 302.04 310.078 302.923 310.078 304.09V311H308.748V309.84C308.341 310.287 307.875 310.633 307.348 310.88C306.828 311.12 306.288 311.24 305.728 311.24ZM305.908 310.01C306.421 310.01 306.921 309.877 307.408 309.61C307.895 309.337 308.341 308.947 308.748 308.44V306.53C308.355 306.277 307.928 306.083 307.468 305.95C307.015 305.81 306.575 305.74 306.148 305.74C305.381 305.74 304.768 305.933 304.308 306.32C303.855 306.7 303.628 307.21 303.628 307.85C303.628 308.51 303.831 309.037 304.238 309.43C304.645 309.817 305.201 310.01 305.908 310.01ZM318.047 311.24C317.48 311.24 316.974 311.137 316.527 310.93C316.087 310.717 315.657 310.383 315.237 309.93V311H313.837V297.23L315.237 296.56V301.87C315.564 301.45 315.967 301.123 316.447 300.89C316.927 300.657 317.434 300.54 317.967 300.54C318.814 300.54 319.544 300.757 320.157 301.19C320.77 301.623 321.244 302.24 321.577 303.04C321.917 303.84 322.087 304.787 322.087 305.88C322.087 307.58 321.734 308.9 321.027 309.84C320.32 310.773 319.327 311.24 318.047 311.24ZM317.867 309.92C318.754 309.92 319.437 309.57 319.917 308.87C320.397 308.163 320.637 307.167 320.637 305.88C320.637 304.567 320.397 303.567 319.917 302.88C319.444 302.193 318.75 301.85 317.837 301.85C317.344 301.85 316.85 302 316.357 302.3C315.87 302.6 315.497 302.983 315.237 303.45V308.3C315.524 308.793 315.9 309.187 316.367 309.48C316.834 309.773 317.334 309.92 317.867 309.92ZM325.598 311V297.23L326.998 296.56V311H325.598ZM334.905 311.24C333.999 311.24 333.215 311.017 332.555 310.57C331.902 310.117 331.399 309.487 331.045 308.68C330.692 307.873 330.515 306.94 330.515 305.88C330.515 304.753 330.699 303.793 331.065 303C331.439 302.2 331.955 301.59 332.615 301.17C333.275 300.75 334.039 300.54 334.905 300.54C335.659 300.54 336.342 300.717 336.955 301.07C337.569 301.423 338.055 301.97 338.415 302.71C338.775 303.45 338.955 304.4 338.955 305.56C338.955 305.68 338.952 305.817 338.945 305.97C338.939 306.117 338.929 306.27 338.915 306.43H331.965C332.019 307.137 332.162 307.757 332.395 308.29C332.635 308.817 332.965 309.233 333.385 309.54C333.812 309.84 334.335 309.99 334.955 309.99C335.375 309.99 335.779 309.917 336.165 309.77C336.552 309.617 336.912 309.383 337.245 309.07L338.065 310.01C337.692 310.363 337.232 310.657 336.685 310.89C336.145 311.123 335.552 311.24 334.905 311.24ZM331.945 305.2H337.525C337.525 304.567 337.429 303.99 337.235 303.47C337.049 302.95 336.759 302.537 336.365 302.23C335.979 301.923 335.492 301.77 334.905 301.77C334.112 301.77 333.435 302.043 332.875 302.59C332.322 303.137 332.012 304.007 331.945 305.2Z" fill="#009245"/>
</g>
<defs>
<filter id="filter0_d_93_7762" x="0" y="0" width="370" height="355" filterUnits="userSpaceOnUse" color-interpolation-filters="sRGB">
<feFlood flood-opacity="0" result="BackgroundImageFix"/>
<feColorMatrix in="SourceAlpha" type="matrix" values="0 0 0 0 0 0 0 0 0 0 0 0 0 0 0 0 0 0 127 0" result="hardAlpha"/>
<feMorphology radius="3" operator="erode" in="SourceAlpha" result="effect1_dropShadow_93_7762"/>
<feOffset dy="7"/>
<feGaussianBlur stdDeviation="4.5"/>
<feComposite in2="hardAlpha" operator="out"/>
<feColorMatrix type="matrix" values="0 0 0 0 1 0 0 0 0 0.572549 0 0 0 0 0.909804 0 0 0 0.15 0"/>
<feBlend mode="normal" in2="BackgroundImageFix" result="effect1_dropShadow_93_7762"/>
<feBlend mode="normal" in="SourceGraphic" in2="effect1_dropShadow_93_7762" result="shape"/>
</filter>
</defs>
</svg>
