<svg width="456" height="257" viewBox="0 0 456 257" fill="none" xmlns="http://www.w3.org/2000/svg">
<path d="M213.655 149.03L210.647 176.409H239.217L229.443 147.339L213.655 149.03Z" fill="#FDCE34"/>
<path d="M236.477 164.881C236.477 164.881 232.635 175.377 224.716 175.377C216.798 175.377 212.49 166.905 212.49 166.905L156.755 195.621L150 254.851L296.355 255.601L283.596 180.626L236.477 164.881Z" fill="#29ABE2"/>
<path d="M233.703 155.2C233.703 155.2 232.088 159.869 222.885 159.869C213.683 159.869 212.15 154.887 212.15 154.887C212.15 154.887 232.252 151.236 233.703 155.2Z" fill="#63151B"/>
<path d="M165.967 103.372C167.122 97.3392 164.467 91.8795 159.968 86.6537C152.064 77.5291 152.019 73.9246 159.863 65.0338C164.887 59.3404 166.544 53.2699 165.997 45.7818C165.142 33.9802 166.889 31.5445 178.348 28.9127C185.719 27.2235 190.684 23.5586 194.493 17.0206C200.23 7.21743 203.327 6.16924 213.615 10.4374C220.724 13.3935 227.166 13.7931 234.463 10.6561C245.284 6.01088 248.478 7.03645 254.282 17.1111C258.452 24.3504 264.413 27.6081 272.032 29.5235C281.856 31.9894 284.151 35.0812 282.868 45.0956C281.863 52.9758 283.888 59.1292 289.047 65.0564C296.764 73.917 296.741 77.3481 289.25 86.0504C284.188 91.9323 281.834 98.0028 282.936 105.981C284.316 116.033 281.504 119.992 271.582 122.066C263.281 123.8 257.507 127.933 253.69 135.474C249.873 143.015 243.829 145.277 236.262 141.461C228.193 137.427 220.514 137.359 212.408 141.461C205.307 145.103 199.187 143.475 195.55 136.077C191.531 127.91 185.269 123.68 176.398 121.855C166.867 119.909 165.592 116.946 165.967 103.372Z" fill="#F15A24"/>
<path d="M273.623 97.8196C273.623 97.8196 279.256 157.363 227.136 157.363C175.015 157.363 175.023 120.515 176.435 89.3145C177.847 58.114 184.691 33.7943 224.932 26.8233C265.173 19.8522 273.623 60.9566 273.623 97.8196Z" fill="#FDCE34"/>
<path d="M211.65 92.2383C211.65 92.2383 208.827 86.3175 203.19 87.3031C197.552 88.2886 196.613 94.2094 196.613 94.2094" fill="#09231E"/>
<path d="M253.752 94.7109C253.752 94.7109 252.906 87.9158 246.811 86.8339C240.717 85.752 237.713 91.1849 237.713 91.1849" fill="#09231E"/>
<path d="M223.659 91.1946C222.506 91.8993 221.522 92.8524 220.777 93.9854C220.033 95.1184 219.547 96.4032 219.355 97.7476C218.31 104.023 215.339 109.811 210.858 114.299C201.802 123.478 223.196 128.978 226.865 123.771C230.213 119.032 236.034 83.8893 223.659 91.1946Z" fill="#F7931E"/>
<path d="M226.686 138.001C226.686 138.001 214.759 141.484 206.209 137.127C197.659 132.77 195.109 129.295 195.109 129.295" stroke="#110A03" stroke-width="2.37142" stroke-miterlimit="10" stroke-linecap="round"/>
<path d="M200.373 107.241C209.646 107.241 217.164 99.6113 217.164 90.1996C217.164 80.7879 209.646 73.1582 200.373 73.1582C191.1 73.1582 183.582 80.7879 183.582 90.1996C183.582 99.6113 191.1 107.241 200.373 107.241Z" stroke="white" stroke-width="2.07413" stroke-miterlimit="10"/>
<path d="M250.745 107.241C260.156 107.241 267.786 99.6113 267.786 90.1996C267.786 80.7879 260.156 73.1582 250.745 73.1582C241.333 73.1582 233.703 80.7879 233.703 90.1996C233.703 99.6113 241.333 107.241 250.745 107.241Z" stroke="white" stroke-width="2.07413" stroke-miterlimit="10"/>
<path d="M233.703 87.274C233.703 87.274 230.001 82.5506 224.693 82.6844C219.384 82.8183 217.163 88.195 217.163 88.195" stroke="white" stroke-width="2.07413" stroke-miterlimit="10"/>
<path d="M132.302 79.9793C132.302 79.9793 145.441 71.71 145.441 87.0731C145.441 102.436 137.056 103.62 132.302 100.045C127.547 96.4693 132.302 79.9793 132.302 79.9793Z" fill="#C1272D"/>
<path d="M138.409 95.1875C142.225 97.4313 144.897 102.664 144.897 108.773C144.897 116.913 140.141 123.513 134.274 123.513C128.408 123.513 123.652 116.913 123.652 108.773C123.653 107.529 123.768 106.287 123.996 105.063" stroke="#FDCE34" stroke-width="9" stroke-miterlimit="10"/>
<path d="M55.1581 79.9793C55.1581 79.9793 42.4883 71.71 42.4883 87.0731C42.4883 102.436 50.5732 103.62 55.1581 100.045C59.7429 96.4693 55.1581 79.9793 55.1581 79.9793Z" fill="#C1272D"/>
<path d="M48.9759 95.1875C45.1601 97.4313 42.4883 102.664 42.4883 108.773C42.4883 116.913 47.2437 123.513 53.1104 123.513C58.977 123.513 63.7325 116.913 63.7325 108.773C63.7318 107.529 63.6169 106.287 63.3893 105.063" stroke="#FDCE34" stroke-width="9" stroke-miterlimit="10"/>
<path d="M84.0869 145.498L73.5371 171.449H113.302L105.998 142.579L85.4503 145.442L84.0869 145.498Z" fill="#C1272D"/>
<path d="M106.765 145.675C106.765 145.675 105.089 150.749 95.5548 150.749C86.0207 150.749 84.4316 145.335 84.4316 145.335C84.4316 145.335 105.264 141.367 106.765 145.675Z" fill="#63151B"/>
<path d="M113.093 34.5082C105.422 31.3714 96.8821 31.1701 89.0748 33.942C75.4209 38.5702 52.6535 50.945 53.4008 81.9803C54.4567 126.236 58.7048 141.409 91.6253 146.464C124.546 151.519 133.05 114.854 134.106 93.3621C135.016 74.9395 136.746 44.4376 113.093 34.5082Z" fill="#C1272D"/>
<path d="M108.8 156.741C108.8 156.741 103.96 168.149 93.997 168.149C84.0336 168.149 78.616 158.941 78.616 158.941L8.49705 190.149L0 254.521L184.116 255.336L168.067 173.853L108.8 156.741Z" fill="#EF98C0"/>
<path d="M90.459 87.0557C90.7685 86.0841 91.3879 85.2372 92.2248 84.6414C93.0616 84.0456 94.0711 83.7328 95.1028 83.7497C96.1344 83.7665 97.1329 84.1121 97.9493 84.7348C98.7658 85.3576 99.3565 86.2242 99.6334 87.2054C99.6334 87.2803 99.6755 87.3551 99.6923 87.43C101.622 95.0484 106.432 113.138 98.7235 113.138C91.015 113.138 87.1565 114.086 87.1565 104.563C87.1312 98.5997 89.0184 91.5136 90.459 87.0557Z" fill="#EF98C0"/>
<path d="M83.3423 84.1016C83.3423 84.1016 80.5791 78.5765 75.0608 79.4933C69.5424 80.4101 68.6348 85.9273 68.6348 85.9273" fill="#09231E"/>
<path d="M122.563 86.4718C122.563 86.4718 121.825 80.0072 116.436 78.9807C111.048 77.9541 108.4 83.1207 108.4 83.1207" fill="#09231E"/>
<path d="M109.198 124.221C109.198 124.221 97.5301 130.508 87.6254 128.108C77.7206 125.708 74.2783 122.8 74.2783 122.8" stroke="#110A03" stroke-width="2.37142" stroke-miterlimit="10" stroke-linecap="round"/>
<path d="M305.479 99.7207C306.7 93.4128 303.894 87.7043 299.137 82.2401C290.782 72.6995 290.734 68.9306 299.026 59.6344C304.338 53.6814 306.09 47.3341 305.511 39.5045C304.607 27.1649 306.455 24.6181 318.568 21.8663C326.361 20.1001 331.609 16.2681 335.636 9.43197C341.7 -0.818252 344.974 -1.91424 355.851 2.54855C363.366 5.63939 370.176 6.05728 377.889 2.77721C389.329 -2.07982 392.706 -1.00749 398.842 9.52659C403.25 17.096 409.552 20.5022 417.606 22.5049C427.991 25.0833 430.417 28.316 429.062 38.787C427.999 47.0266 430.14 53.4606 435.594 59.6581C443.751 68.9227 443.728 72.5103 435.808 81.6093C430.457 87.7595 427.968 94.1067 429.133 102.449C430.592 112.959 427.619 117.099 417.131 119.267C408.355 121.081 402.251 125.401 398.216 133.286C394.181 141.171 387.791 143.536 379.792 139.547C371.262 135.328 363.144 135.257 354.575 139.547C347.067 143.355 340.598 141.652 336.754 133.917C332.504 125.378 325.885 120.954 316.507 119.046C306.431 117.012 305.083 113.913 305.479 99.7207Z" fill="#0A0C35"/>
<path d="M404.707 86.6317C404.707 86.6317 417.443 78.6166 417.443 93.5075C417.443 108.398 409.316 109.546 404.707 106.08C400.099 102.615 404.707 86.6317 404.707 86.6317Z" fill="#662D91"/>
<path d="M330.39 86.6317C330.39 86.6317 317.654 78.6166 317.654 93.5075C317.654 108.398 325.781 109.546 330.39 106.08C334.998 102.615 330.39 86.6317 330.39 86.6317Z" fill="#662D91"/>
<path d="M358.504 150.137L348.278 175.291H386.821L379.742 147.308L359.825 150.083L358.504 150.137Z" fill="#662D91"/>
<path d="M380.484 150.309C380.484 150.309 378.819 155.227 369.353 155.227C359.886 155.227 358.309 149.979 358.309 149.979C358.309 149.979 378.993 146.133 380.484 150.309Z" fill="#63151B"/>
<path d="M386.089 42.5581C378.654 39.5177 370.376 39.3226 362.809 42.0093C349.575 46.4953 327.507 58.4897 328.231 88.5714C329.255 131.467 333.372 146.173 365.281 151.073C397.19 155.973 405.433 120.435 406.456 99.6034C407.338 81.7469 409.015 52.1823 386.089 42.5581Z" fill="#662D91"/>
<path d="M382.456 161.035C382.456 161.035 377.766 172.092 368.108 172.092C358.451 172.092 353.2 163.168 353.2 163.168L285.236 193.417L277 255.81L455.458 256.6L439.902 177.621L382.456 161.035Z" fill="#EF98C0"/>
<path d="M355.141 92.7391C355.141 92.7391 352.463 87.3837 347.114 88.2724C341.766 89.161 340.886 94.5086 340.886 94.5086" fill="#09231E"/>
<path d="M393.156 95.0373C393.156 95.0373 392.441 88.7713 387.218 87.7763C381.995 86.7813 379.429 91.7892 379.429 91.7892" fill="#09231E"/>
<path d="M378.373 127.509C378.373 127.509 365.61 130.994 356.46 126.634C347.31 122.273 344.582 118.796 344.582 118.796" stroke="#110A03" stroke-width="2.37142" stroke-miterlimit="10" stroke-linecap="round"/>
<path d="M408.888 106.647C409.004 106.054 409.323 105.52 409.792 105.136C410.261 104.751 410.849 104.541 411.457 104.541C412.064 104.541 412.653 104.751 413.122 105.136C413.59 105.52 413.91 106.054 414.025 106.647C415.719 115.659 419.067 129.721 424.633 138.787C433.38 153.016 407.139 163.379 407.528 151.878C407.839 143.175 406.455 119.753 408.888 106.647Z" fill="#FDCE34"/>
<path d="M325.72 106.66C325.612 106.065 325.304 105.527 324.849 105.14C324.393 104.753 323.82 104.541 323.227 104.541C322.635 104.541 322.062 104.753 321.606 105.14C321.151 105.527 320.843 106.065 320.735 106.66C319.08 115.669 315.834 129.728 310.415 138.792C301.912 153.017 327.421 163.377 327.042 151.879C326.748 143.178 328.086 119.763 325.72 106.66Z" fill="#FDCE34"/>
<path d="M369.661 110.876C374.764 110.876 378.9 108.158 378.9 104.804C378.9 101.451 374.764 98.7324 369.661 98.7324C364.558 98.7324 360.421 101.451 360.421 104.804C360.421 108.158 364.558 110.876 369.661 110.876Z" fill="#EF98C0"/>
<path d="M406.87 96.0931C406.87 96.0931 398.044 94.2863 400.413 82.4509C400.413 82.4509 392.518 77.7168 394.886 72.9826C394.886 72.9826 386.463 72.7538 386.731 65.771C386.731 65.771 382.255 71.4046 373.571 65.8814C373.571 65.8814 369.624 71.4046 363.308 69.0375C363.308 69.0375 358.571 79.0344 347.937 73.6454C347.937 73.6454 345.94 85.607 337.256 82.4509C337.256 82.4509 333.585 91.1302 328.319 84.4235C323.054 77.7168 316.73 83.2399 315.941 69.0375C315.941 69.0375 302.52 58.7802 313.572 46.1559C313.572 46.1559 309.333 25.5781 325.272 24.4262C325.272 24.4262 337.548 6.10507 355.169 18.2402C355.169 18.2402 364.95 1.74178 383.471 14.09C383.471 14.09 405.939 3.54864 413.044 23.2742C413.044 23.2742 428.533 35.8986 419.21 47.7339C419.21 47.7339 423.157 64.8557 410.202 67.7356C410.202 67.7356 415.254 72.02 410.202 80.36C410.17 80.3916 412.507 90.0097 406.87 96.0931Z" fill="#0A0C35"/>
</svg>
