<svg width="355" height="341" viewBox="0 0 355 341" fill="none" xmlns="http://www.w3.org/2000/svg">
<g filter="url(#filter0_d_249_17232)">
<mask id="mask0_249_17232" style="mask-type:alpha" maskUnits="userSpaceOnUse" x="5" y="0" width="344" height="329">
<path d="M5.94312 22.5927C5.94312 10.4204 15.8107 0.552734 27.9831 0.552734H326.96C339.132 0.552734 349 10.4204 349 22.5927V306.237C349 318.41 339.132 328.277 326.96 328.277H27.9831C15.8108 328.277 5.94312 318.41 5.94312 306.237V22.5927Z" fill="#D9D9D9"/>
</mask>
<g mask="url(#mask0_249_17232)">
<path d="M5.94312 22.5927C5.94312 10.4204 15.8107 0.552734 27.9831 0.552734H326.96C339.132 0.552734 349 10.4204 349 22.5927V306.237C349 318.41 339.132 328.277 326.96 328.277H27.9831C15.8108 328.277 5.94312 318.41 5.94312 306.237V22.5927Z" fill="#FFDFAE"/>
<g style="mix-blend-mode:multiply">
<path d="M62.4805 123.563L83.0003 198.23H131.054L124.571 233.4L87.8561 249.638L85.1585 258.83H88.9352L90.0142 251.801L124.571 237.734L115.399 249.097L113.771 258.83H116.478L117.017 249.638L127.277 238.816L143.472 250.719L144.357 258.856H148.328L145.091 250.179L128.356 232.859L135.37 198.77H156.969L162.373 187.948L89.4747 191.201L73.2799 117.066L62.4805 123.563Z" fill="#009245"/>
</g>
<path d="M362.416 119.61L341.303 196.465H291.843L298.512 232.664L336.297 249.363L339.074 258.829H335.192L334.077 251.597L298.512 237.114L307.959 248.813L309.621 258.829H306.844L306.287 249.363L295.735 238.23L279.063 250.48L278.152 258.856H274.056L277.391 249.921L294.621 232.106L287.394 197.015H265.167L259.613 185.882L334.634 189.224L351.307 112.927L362.416 119.61Z" fill="#FF7BAC"/>
<path d="M228.762 250.764L215.354 244.045L197.929 201.722L217.388 162.722L163.753 166.755L172.474 143.914H178.506L181.16 137.869L176.463 133.162L183.84 117.04H177.807L171.103 133.88L142.26 131.86L118.795 106.997V92.1865C127.587 81.8427 121.449 57.9467 121.449 57.9467C119.467 36.4615 83.9291 43.8448 86.6179 68.0334C88.2011 82.3214 94.932 91.9117 102.388 95.4394L89.2979 190.979L183.822 184.261L156.332 256.817H158.349L163.037 247.404L165.69 257.482L180.434 258.156L173.058 243.38L189.845 215.833L216.663 257.491L217.335 256.826L213.31 249.434L222.023 253.467L228.762 250.764ZM112.79 167.447L122.174 142.584H165.752L156.359 167.447H112.79Z" fill="#FBB03B"/>
<path d="M340.251 62.4579C343.01 37.5603 306.437 29.9554 304.367 52.0876C304.367 52.0876 297.468 79.0504 308.507 88.7294C310.2 90.2414 312.238 91.3129 314.441 91.8493V91.8493L315.883 110.968L301.024 123.873L284.219 161.579C284.219 161.579 276.303 158.6 273.331 160.586C270.359 162.571 270.359 166.533 270.359 166.533L234.715 163.555L253.528 249.886C250.205 249.969 246.894 250.301 243.621 250.879C237.687 251.871 235.661 258.856 235.661 258.856H240.614C244.568 258.856 254.474 257.863 254.474 257.863V258.82H264.371L259.427 186.379L298.724 187.62L329.725 189.002L333.688 116.924L325.727 105.012L325.913 89.598C332.83 85.308 338.756 75.9039 340.251 62.4579Z" fill="#662D91"/>
<path d="M252.339 49.7657C251.673 51.1104 250.934 52.4168 250.124 53.6788C247.588 57.1521 248.162 60.5327 250.457 63.8901C252.382 66.5277 254.17 69.2636 255.816 72.087C258.329 76.7179 256.826 79.5544 251.685 79.8554C248.059 80.0522 244.398 79.7396 240.761 79.6123C239.203 79.4561 237.636 79.8023 236.286 80.6011C234.935 81.4 233.871 82.6102 233.245 84.058C231.696 87.2418 230.124 90.4372 228.334 93.4821C225.27 98.6919 222.195 98.6109 219.154 93.2968C217.524 90.4719 216.01 87.566 214.564 84.6369C213.891 83.0573 212.719 81.7466 211.231 80.909C209.743 80.0713 208.022 79.7538 206.336 80.0059C203.376 80.249 200.404 80.4922 197.432 80.5269C195.056 80.5269 192.325 80.9321 190.868 78.3966C189.537 76.0811 190.811 73.8699 192.016 71.8786C193.599 69.181 195.355 66.5877 197.042 63.948C198.016 62.5325 198.513 60.8375 198.457 59.1147C198.401 57.392 197.796 55.7333 196.732 54.3851C194.976 51.7917 193.106 49.2678 191.545 46.5587C188.309 40.9552 189.95 37.9798 196.307 37.8756C199.268 37.8177 202.251 38.0493 205.223 38.2461C209.469 38.524 212.544 36.9147 214.403 32.9089C215.688 30.0493 216.996 27.1897 218.546 24.469C221.449 19.3749 224.926 19.4212 227.886 24.55C229.584 27.5023 231.065 30.5703 232.671 33.5804C233.332 35.0172 234.425 36.207 235.795 36.9803C237.166 37.7536 238.743 38.0709 240.302 37.8872C243.744 37.6557 247.061 37.4357 250.446 37.3778C256.367 37.2505 258.122 40.1564 255.357 45.3431C254.519 46.906 253.636 48.4343 252.775 49.9741L252.339 49.7657Z" fill="#FF92E8"/>
</g>
<path d="M5.94312 259.283H349V306.238C349 318.41 339.132 328.278 326.96 328.278H27.9831C15.8108 328.278 5.94312 318.41 5.94312 306.238V259.283Z" fill="white"/>
<path d="M78.4174 302.532C77.5678 302.532 76.8491 302.369 76.2614 302.043C75.68 301.724 75.236 301.289 74.9294 300.74C74.6291 300.197 74.479 299.583 74.479 298.9C74.479 298.376 74.5652 297.929 74.7377 297.558C74.9102 297.181 75.1306 296.849 75.3989 296.562C75.6672 296.274 75.9483 295.999 76.2422 295.738C76.5425 295.476 76.8235 295.204 77.0855 294.923C77.3474 294.642 77.5614 294.319 77.7275 293.955C77.9 293.591 77.9862 293.157 77.9862 292.652V292.182H79.347V292.671C79.347 293.31 79.2479 293.85 79.0499 294.291C78.8582 294.725 78.6123 295.099 78.312 295.412C78.0118 295.725 77.7051 296.019 77.3921 296.293C76.9833 296.638 76.6223 297.002 76.3093 297.386C75.9962 297.769 75.8397 298.274 75.8397 298.9C75.8397 299.577 76.0601 300.142 76.5009 300.596C76.9481 301.05 77.587 301.276 78.4174 301.276C79.3374 301.276 80.0497 301.014 80.5544 300.491C81.0591 299.973 81.3114 299.283 81.3114 298.421H82.6625C82.6625 299.238 82.4837 299.954 82.1259 300.567C81.7746 301.187 81.2795 301.669 80.6406 302.014C80.0018 302.359 79.2607 302.532 78.4174 302.532ZM78.6953 290.793C78.3823 290.793 78.1236 290.691 77.9192 290.486C77.7211 290.275 77.6221 290.026 77.6221 289.739C77.6221 289.458 77.7211 289.212 77.9192 289.001C78.1236 288.784 78.3823 288.675 78.6953 288.675C78.9892 288.675 79.2447 288.784 79.462 289.001C79.6792 289.212 79.7878 289.458 79.7878 289.739C79.7878 290.026 79.6792 290.275 79.462 290.486C79.2447 290.691 78.9892 290.793 78.6953 290.793Z" fill="#009245"/>
<path d="M85.8651 298.699V285.283H90.4072C91.4358 285.283 92.2439 285.452 92.8316 285.791C93.4194 286.123 93.8378 286.557 94.0869 287.094C94.3361 287.624 94.4607 288.18 94.4607 288.761C94.4607 289.413 94.269 290.001 93.8857 290.525C93.5024 291.042 92.9658 291.419 92.2758 291.655C92.8252 291.777 93.298 291.991 93.6941 292.297C94.0901 292.598 94.3968 292.975 94.614 293.428C94.8312 293.875 94.9398 294.377 94.9398 294.933C94.9398 295.38 94.8663 295.827 94.7194 296.274C94.5788 296.715 94.3457 297.121 94.0199 297.491C93.7004 297.855 93.2692 298.149 92.7262 298.373C92.1832 298.59 91.5124 298.699 90.7139 298.699H85.8651ZM87.2066 297.472H90.8959C91.605 297.472 92.1545 297.354 92.5441 297.117C92.9402 296.881 93.2149 296.578 93.3682 296.207C93.528 295.837 93.6078 295.45 93.6078 295.048C93.6078 294.581 93.5152 294.14 93.3299 293.725C93.1447 293.31 92.8125 292.978 92.3333 292.729C91.8542 292.473 91.1706 292.345 90.2826 292.345H87.2066V297.472ZM87.2066 291.128H90.0718C91.0876 291.128 91.851 290.911 92.3621 290.477C92.8731 290.042 93.1287 289.471 93.1287 288.761C93.1287 288.397 93.0584 288.043 92.9179 287.698C92.7837 287.346 92.525 287.059 92.1417 286.835C91.7648 286.612 91.2154 286.5 90.4935 286.5H87.2066V291.128Z" fill="#009245"/>
<path d="M101.867 298.929C100.711 298.929 99.8481 298.577 99.2795 297.874C98.7173 297.172 98.4362 296.102 98.4362 294.664V288.905H99.7778V294.885C99.7778 295.805 99.9695 296.501 100.353 296.974C100.736 297.446 101.292 297.683 102.02 297.683C102.831 297.683 103.442 297.437 103.85 296.945C104.266 296.447 104.473 295.718 104.473 294.76V288.905H105.815V298.699H104.473V297.52C104.179 297.993 103.815 298.347 103.381 298.584C102.953 298.814 102.448 298.929 101.867 298.929Z" fill="#009245"/>
<path d="M112.514 298.929C111.863 298.929 111.237 298.788 110.636 298.507C110.036 298.226 109.531 297.836 109.122 297.338L110.1 296.504C110.451 296.887 110.841 297.185 111.269 297.395C111.697 297.606 112.118 297.712 112.534 297.712C113.16 297.712 113.642 297.584 113.981 297.328C114.326 297.073 114.498 296.715 114.498 296.255C114.498 295.968 114.418 295.706 114.258 295.469C114.105 295.233 113.853 295.012 113.501 294.808C113.15 294.597 112.687 294.383 112.112 294.166C111.077 293.783 110.333 293.364 109.879 292.911C109.426 292.451 109.199 291.882 109.199 291.205C109.199 290.451 109.49 289.841 110.071 289.375C110.659 288.908 111.422 288.675 112.361 288.675C112.981 288.675 113.562 288.797 114.105 289.039C114.648 289.276 115.111 289.617 115.495 290.065L114.556 290.85C113.929 290.212 113.192 289.892 112.342 289.892C111.786 289.892 111.345 290.01 111.02 290.247C110.7 290.477 110.54 290.796 110.54 291.205C110.54 291.582 110.706 291.908 111.039 292.182C111.371 292.451 111.978 292.748 112.859 293.074C113.575 293.342 114.15 293.626 114.584 293.926C115.019 294.22 115.332 294.556 115.523 294.933C115.721 295.31 115.82 295.744 115.82 296.236C115.82 297.073 115.527 297.731 114.939 298.21C114.351 298.689 113.543 298.929 112.514 298.929Z" fill="#009245"/>
<path d="M122.214 298.929C121.409 298.929 120.715 298.724 120.134 298.315C119.553 297.9 119.106 297.312 118.793 296.552C118.486 295.785 118.333 294.872 118.333 293.811C118.333 292.745 118.492 291.828 118.812 291.061C119.131 290.295 119.588 289.707 120.182 289.298C120.776 288.883 121.485 288.675 122.309 288.675C123.095 288.675 123.766 288.867 124.322 289.25C124.884 289.627 125.293 290.17 125.548 290.879L124.274 291.349C124.108 290.895 123.855 290.547 123.517 290.304C123.178 290.061 122.782 289.94 122.328 289.94C121.479 289.94 120.83 290.269 120.383 290.927C119.942 291.585 119.722 292.547 119.722 293.811C119.722 295.025 119.942 295.971 120.383 296.648C120.824 297.319 121.444 297.654 122.242 297.654C122.766 297.654 123.216 297.514 123.593 297.232C123.97 296.951 124.232 296.568 124.379 296.083L125.644 296.504C125.42 297.271 125.005 297.868 124.398 298.296C123.798 298.718 123.07 298.929 122.214 298.929Z" fill="#009245"/>
<path d="M131.383 298.929C130.348 298.929 129.537 298.641 128.949 298.066C128.361 297.485 128.067 296.686 128.067 295.67C128.067 295.019 128.211 294.454 128.499 293.974C128.793 293.495 129.205 293.128 129.735 292.872C130.271 292.61 130.904 292.479 131.632 292.479C132.111 292.479 132.568 292.54 133.002 292.662C133.443 292.783 133.868 292.965 134.277 293.208V292.269C134.277 291.438 134.095 290.828 133.731 290.438C133.373 290.049 132.814 289.854 132.054 289.854C131.6 289.854 131.118 289.94 130.607 290.113C130.102 290.279 129.623 290.515 129.169 290.822L128.777 289.691C129.294 289.365 129.853 289.116 130.453 288.944C131.054 288.765 131.642 288.675 132.217 288.675C133.315 288.675 134.146 288.963 134.708 289.538C135.27 290.113 135.551 290.959 135.551 292.077V298.699H134.277V297.587C133.887 298.015 133.44 298.347 132.935 298.584C132.437 298.814 131.92 298.929 131.383 298.929ZM131.555 297.75C132.047 297.75 132.527 297.622 132.993 297.367C133.459 297.105 133.887 296.731 134.277 296.245V294.415C133.9 294.172 133.491 293.987 133.05 293.859C132.616 293.725 132.194 293.658 131.785 293.658C131.051 293.658 130.463 293.843 130.022 294.214C129.588 294.578 129.371 295.067 129.371 295.68C129.371 296.313 129.565 296.817 129.955 297.194C130.345 297.565 130.878 297.75 131.555 297.75Z" fill="#009245"/>
<path d="M141.932 298.929C141.281 298.929 140.655 298.788 140.054 298.507C139.454 298.226 138.949 297.836 138.54 297.338L139.517 296.504C139.869 296.887 140.258 297.185 140.686 297.395C141.115 297.606 141.536 297.712 141.951 297.712C142.577 297.712 143.06 297.584 143.398 297.328C143.743 297.073 143.916 296.715 143.916 296.255C143.916 295.968 143.836 295.706 143.676 295.469C143.523 295.233 143.271 295.012 142.919 294.808C142.568 294.597 142.105 294.383 141.53 294.166C140.495 293.783 139.751 293.364 139.297 292.911C138.843 292.451 138.617 291.882 138.617 291.205C138.617 290.451 138.907 289.841 139.489 289.375C140.076 288.908 140.84 288.675 141.779 288.675C142.399 288.675 142.98 288.797 143.523 289.039C144.066 289.276 144.529 289.617 144.912 290.065L143.973 290.85C143.347 290.212 142.609 289.892 141.76 289.892C141.204 289.892 140.763 290.01 140.437 290.247C140.118 290.477 139.958 290.796 139.958 291.205C139.958 291.582 140.124 291.908 140.457 292.182C140.789 292.451 141.396 292.748 142.277 293.074C142.993 293.342 143.568 293.626 144.002 293.926C144.436 294.22 144.75 294.556 144.941 294.933C145.139 295.31 145.238 295.744 145.238 296.236C145.238 297.073 144.944 297.731 144.357 298.21C143.769 298.689 142.961 298.929 141.932 298.929Z" fill="#009245"/>
<path d="M156.178 298.929C155.143 298.929 154.332 298.641 153.744 298.066C153.156 297.485 152.862 296.686 152.862 295.67C152.862 295.019 153.006 294.454 153.294 293.974C153.587 293.495 154 293.128 154.53 292.872C155.066 292.61 155.699 292.479 156.427 292.479C156.906 292.479 157.363 292.54 157.797 292.662C158.238 292.783 158.663 292.965 159.072 293.208V292.269C159.072 291.438 158.89 290.828 158.526 290.438C158.168 290.049 157.609 289.854 156.849 289.854C156.395 289.854 155.913 289.94 155.402 290.113C154.897 290.279 154.418 290.515 153.964 290.822L153.571 289.691C154.089 289.365 154.648 289.116 155.248 288.944C155.849 288.765 156.437 288.675 157.012 288.675C158.11 288.675 158.941 288.963 159.503 289.538C160.065 290.113 160.346 290.959 160.346 292.077V298.699H159.072V297.587C158.682 298.015 158.235 298.347 157.73 298.584C157.232 298.814 156.715 298.929 156.178 298.929ZM156.35 297.75C156.842 297.75 157.321 297.622 157.788 297.367C158.254 297.105 158.682 296.731 159.072 296.245V294.415C158.695 294.172 158.286 293.987 157.845 293.859C157.411 293.725 156.989 293.658 156.58 293.658C155.846 293.658 155.258 293.843 154.817 294.214C154.383 294.578 154.166 295.067 154.166 295.68C154.166 296.313 154.36 296.817 154.75 297.194C155.14 297.565 155.673 297.75 156.35 297.75Z" fill="#009245"/>
<path d="M164.948 302.417L166.424 298.459L162.84 288.905H164.182L166.75 295.929C166.814 296.095 166.868 296.252 166.913 296.399C166.964 296.546 167.015 296.705 167.066 296.878C167.117 296.705 167.168 296.546 167.219 296.399C167.271 296.252 167.325 296.095 167.382 295.929L169.979 288.905H171.35L166.3 302.417H164.948Z" fill="#009245"/>
<path d="M177.625 298.929C176.469 298.929 175.607 298.577 175.038 297.874C174.476 297.172 174.195 296.102 174.195 294.664V288.905H175.536V294.885C175.536 295.805 175.728 296.501 176.111 296.974C176.495 297.446 177.05 297.683 177.779 297.683C178.59 297.683 179.2 297.437 179.609 296.945C180.024 296.447 180.232 295.718 180.232 294.76V288.905H181.573V298.699H180.232V297.52C179.938 297.993 179.574 298.347 179.139 298.584C178.711 298.814 178.207 298.929 177.625 298.929Z" fill="#009245"/>
<path d="M188.754 298.929C187.54 298.929 186.579 298.469 185.87 297.549C185.167 296.622 184.816 295.37 184.816 293.792C184.816 292.732 184.975 291.821 185.295 291.061C185.614 290.295 186.071 289.707 186.665 289.298C187.265 288.883 187.978 288.675 188.802 288.675C189.818 288.675 190.677 289.065 191.38 289.844V285.503L192.721 284.861V298.699H191.38V297.721C190.696 298.526 189.821 298.929 188.754 298.929ZM188.955 297.664C189.434 297.664 189.891 297.526 190.326 297.252C190.76 296.971 191.111 296.59 191.38 296.111V291.416C191.092 290.956 190.731 290.595 190.297 290.333C189.869 290.065 189.422 289.931 188.955 289.931C188.074 289.931 187.39 290.266 186.905 290.937C186.425 291.601 186.186 292.553 186.186 293.792C186.186 294.553 186.304 295.223 186.54 295.805C186.777 296.386 187.103 296.843 187.518 297.175C187.933 297.501 188.412 297.664 188.955 297.664Z" fill="#009245"/>
<path d="M199.363 298.929C198.328 298.929 197.517 298.641 196.929 298.066C196.342 297.485 196.048 296.686 196.048 295.67C196.048 295.019 196.191 294.454 196.479 293.974C196.773 293.495 197.185 293.128 197.715 292.872C198.252 292.61 198.884 292.479 199.612 292.479C200.092 292.479 200.548 292.54 200.983 292.662C201.424 292.783 201.848 292.965 202.257 293.208V292.269C202.257 291.438 202.075 290.828 201.711 290.438C201.353 290.049 200.794 289.854 200.034 289.854C199.58 289.854 199.098 289.94 198.587 290.113C198.082 290.279 197.603 290.515 197.15 290.822L196.757 289.691C197.274 289.365 197.833 289.116 198.434 288.944C199.034 288.765 199.622 288.675 200.197 288.675C201.296 288.675 202.126 288.963 202.688 289.538C203.251 290.113 203.532 290.959 203.532 292.077V298.699H202.257V297.587C201.868 298.015 201.42 298.347 200.916 298.584C200.417 298.814 199.9 298.929 199.363 298.929ZM199.536 297.75C200.028 297.75 200.507 297.622 200.973 297.367C201.439 297.105 201.868 296.731 202.257 296.245V294.415C201.88 294.172 201.471 293.987 201.031 293.859C200.596 293.725 200.175 293.658 199.766 293.658C199.031 293.658 198.443 293.843 198.003 294.214C197.568 294.578 197.351 295.067 197.351 295.68C197.351 296.313 197.546 296.817 197.935 297.194C198.325 297.565 198.859 297.75 199.536 297.75Z" fill="#009245"/>
<path d="M215.604 298.929C214.314 298.929 213.295 298.472 212.547 297.558C211.8 296.638 211.426 295.389 211.426 293.811C211.426 292.757 211.595 291.847 211.934 291.08C212.272 290.314 212.755 289.723 213.381 289.308C214.007 288.886 214.748 288.675 215.604 288.675C216.466 288.675 217.211 288.883 217.837 289.298C218.463 289.707 218.942 290.295 219.274 291.061C219.613 291.828 219.782 292.738 219.782 293.792C219.782 294.846 219.613 295.76 219.274 296.533C218.936 297.3 218.453 297.89 217.827 298.306C217.201 298.721 216.46 298.929 215.604 298.929ZM215.604 297.664C216.486 297.664 217.172 297.322 217.664 296.638C218.163 295.955 218.412 295.006 218.412 293.792C218.412 292.572 218.163 291.623 217.664 290.946C217.172 290.269 216.486 289.931 215.604 289.931C214.71 289.931 214.016 290.269 213.525 290.946C213.039 291.617 212.796 292.572 212.796 293.811C212.796 295.032 213.042 295.98 213.534 296.658C214.026 297.328 214.716 297.664 215.604 297.664Z" fill="#009245"/>
<path d="M230.72 298.929C229.685 298.929 228.874 298.641 228.286 298.066C227.698 297.485 227.404 296.686 227.404 295.67C227.404 295.019 227.548 294.454 227.836 293.974C228.13 293.495 228.542 293.128 229.072 292.872C229.608 292.61 230.241 292.479 230.969 292.479C231.448 292.479 231.905 292.54 232.34 292.662C232.78 292.783 233.205 292.965 233.614 293.208V292.269C233.614 291.438 233.432 290.828 233.068 290.438C232.71 290.049 232.151 289.854 231.391 289.854C230.937 289.854 230.455 289.94 229.944 290.113C229.439 290.279 228.96 290.515 228.506 290.822L228.114 289.691C228.631 289.365 229.19 289.116 229.791 288.944C230.391 288.765 230.979 288.675 231.554 288.675C232.653 288.675 233.483 288.963 234.045 289.538C234.607 290.113 234.888 290.959 234.888 292.077V298.699H233.614V297.587C233.224 298.015 232.777 298.347 232.272 298.584C231.774 298.814 231.257 298.929 230.72 298.929ZM230.893 297.75C231.384 297.75 231.864 297.622 232.33 297.367C232.796 297.105 233.224 296.731 233.614 296.245V294.415C233.237 294.172 232.828 293.987 232.387 293.859C231.953 293.725 231.531 293.658 231.123 293.658C230.388 293.658 229.8 293.843 229.359 294.214C228.925 294.578 228.708 295.067 228.708 295.68C228.708 296.313 228.903 296.817 229.292 297.194C229.682 297.565 230.215 297.75 230.893 297.75Z" fill="#009245"/>
<path d="M241.269 298.929C240.618 298.929 239.992 298.788 239.391 298.507C238.791 298.226 238.286 297.836 237.877 297.338L238.854 296.504C239.206 296.887 239.596 297.185 240.024 297.395C240.452 297.606 240.873 297.712 241.288 297.712C241.915 297.712 242.397 297.584 242.735 297.328C243.08 297.073 243.253 296.715 243.253 296.255C243.253 295.968 243.173 295.706 243.013 295.469C242.86 295.233 242.608 295.012 242.256 294.808C241.905 294.597 241.442 294.383 240.867 294.166C239.832 293.783 239.088 293.364 238.634 292.911C238.181 292.451 237.954 291.882 237.954 291.205C237.954 290.451 238.244 289.841 238.826 289.375C239.413 288.908 240.177 288.675 241.116 288.675C241.736 288.675 242.317 288.797 242.86 289.039C243.403 289.276 243.866 289.617 244.249 290.065L243.31 290.85C242.684 290.212 241.946 289.892 241.097 289.892C240.541 289.892 240.1 290.01 239.774 290.247C239.455 290.477 239.295 290.796 239.295 291.205C239.295 291.582 239.461 291.908 239.794 292.182C240.126 292.451 240.733 292.748 241.614 293.074C242.33 293.342 242.905 293.626 243.339 293.926C243.774 294.22 244.087 294.556 244.278 294.933C244.476 295.31 244.575 295.744 244.575 296.236C244.575 297.073 244.281 297.731 243.694 298.21C243.106 298.689 242.298 298.929 241.269 298.929Z" fill="#009245"/>
<path d="M247.917 298.699V288.905H249.258V298.699H247.917ZM248.578 286.941C248.335 286.941 248.127 286.855 247.955 286.682C247.789 286.51 247.706 286.302 247.706 286.059C247.706 285.804 247.789 285.59 247.955 285.417C248.127 285.238 248.335 285.149 248.578 285.149C248.833 285.149 249.044 285.238 249.21 285.417C249.383 285.59 249.469 285.804 249.469 286.059C249.469 286.302 249.383 286.51 249.21 286.682C249.044 286.855 248.833 286.941 248.578 286.941Z" fill="#009245"/>
<path d="M255.965 298.929C255.313 298.929 254.687 298.788 254.087 298.507C253.486 298.226 252.982 297.836 252.573 297.338L253.55 296.504C253.902 296.887 254.291 297.185 254.719 297.395C255.147 297.606 255.569 297.712 255.984 297.712C256.61 297.712 257.093 297.584 257.431 297.328C257.776 297.073 257.949 296.715 257.949 296.255C257.949 295.968 257.869 295.706 257.709 295.469C257.556 295.233 257.303 295.012 256.952 294.808C256.601 294.597 256.138 294.383 255.563 294.166C254.528 293.783 253.783 293.364 253.33 292.911C252.876 292.451 252.65 291.882 252.65 291.205C252.65 290.451 252.94 289.841 253.522 289.375C254.109 288.908 254.873 288.675 255.812 288.675C256.431 288.675 257.013 288.797 257.556 289.039C258.099 289.276 258.562 289.617 258.945 290.065L258.006 290.85C257.38 290.212 256.642 289.892 255.793 289.892C255.237 289.892 254.796 290.01 254.47 290.247C254.151 290.477 253.991 290.796 253.991 291.205C253.991 291.582 254.157 291.908 254.489 292.182C254.822 292.451 255.428 292.748 256.31 293.074C257.026 293.342 257.601 293.626 258.035 293.926C258.469 294.22 258.782 294.556 258.974 294.933C259.172 295.31 259.271 295.744 259.271 296.236C259.271 297.073 258.977 297.731 258.389 298.21C257.802 298.689 256.994 298.929 255.965 298.929Z" fill="#009245"/>
<path d="M264.955 298.929C264.31 298.929 263.818 298.734 263.479 298.344C263.147 297.948 262.981 297.376 262.981 296.629V290.084H261.362V288.905H262.981V285.513L264.323 284.861V288.905H266.757V290.084H264.323V296.226C264.323 296.737 264.406 297.108 264.572 297.338C264.744 297.561 265.019 297.673 265.396 297.673C265.856 297.673 266.338 297.507 266.843 297.175L266.69 298.497C266.434 298.644 266.159 298.753 265.865 298.823C265.572 298.893 265.268 298.929 264.955 298.929Z" fill="#009245"/>
<path d="M273.394 298.929C272.525 298.929 271.775 298.715 271.142 298.287C270.516 297.852 270.034 297.248 269.695 296.475C269.357 295.702 269.187 294.808 269.187 293.792C269.187 292.713 269.363 291.793 269.714 291.033C270.072 290.266 270.567 289.681 271.2 289.279C271.832 288.876 272.564 288.675 273.394 288.675C274.116 288.675 274.771 288.844 275.358 289.183C275.946 289.522 276.413 290.046 276.758 290.755C277.103 291.464 277.275 292.374 277.275 293.486C277.275 293.601 277.272 293.732 277.265 293.879C277.259 294.019 277.249 294.166 277.237 294.319H270.577C270.628 294.997 270.765 295.591 270.989 296.102C271.219 296.606 271.535 297.006 271.938 297.3C272.346 297.587 272.848 297.731 273.442 297.731C273.844 297.731 274.231 297.66 274.601 297.52C274.972 297.373 275.317 297.149 275.636 296.849L276.422 297.75C276.064 298.089 275.624 298.37 275.1 298.593C274.582 298.817 274.014 298.929 273.394 298.929ZM270.558 293.141H275.905C275.905 292.534 275.812 291.981 275.627 291.483C275.448 290.985 275.17 290.589 274.793 290.295C274.423 290.001 273.956 289.854 273.394 289.854C272.634 289.854 271.985 290.116 271.449 290.64C270.919 291.163 270.621 291.997 270.558 293.141Z" fill="#009245"/>
<path d="M280.62 298.699V288.905H281.962V290.161C282.236 289.681 282.6 289.314 283.054 289.059C283.514 288.803 284.035 288.675 284.616 288.675C285.76 288.675 286.609 289.03 287.165 289.739C287.721 290.442 287.999 291.512 287.999 292.949V298.699H286.657V292.709C286.657 291.796 286.465 291.103 286.082 290.63C285.699 290.151 285.143 289.911 284.415 289.911C283.61 289.911 283 290.157 282.585 290.649C282.169 291.141 281.962 291.866 281.962 292.824V298.699H280.62Z" fill="#009245"/>
<path d="M295.381 298.929C294.577 298.929 293.883 298.724 293.302 298.315C292.721 297.9 292.274 297.312 291.96 296.552C291.654 295.785 291.501 294.872 291.501 293.811C291.501 292.745 291.66 291.828 291.98 291.061C292.299 290.295 292.756 289.707 293.35 289.298C293.944 288.883 294.653 288.675 295.477 288.675C296.263 288.675 296.934 288.867 297.49 289.25C298.052 289.627 298.461 290.17 298.716 290.879L297.442 291.349C297.276 290.895 297.023 290.547 296.685 290.304C296.346 290.061 295.95 289.94 295.496 289.94C294.647 289.94 293.998 290.269 293.551 290.927C293.11 291.585 292.89 292.547 292.89 293.811C292.89 295.025 293.11 295.971 293.551 296.648C293.992 297.319 294.612 297.654 295.41 297.654C295.934 297.654 296.384 297.514 296.761 297.232C297.138 296.951 297.4 296.568 297.547 296.083L298.812 296.504C298.588 297.271 298.173 297.868 297.566 298.296C296.966 298.718 296.238 298.929 295.381 298.929Z" fill="#009245"/>
<path d="M302.036 298.699V288.905H303.377V298.699H302.036ZM302.697 286.941C302.454 286.941 302.247 286.855 302.074 286.682C301.908 286.51 301.825 286.302 301.825 286.059C301.825 285.804 301.908 285.59 302.074 285.417C302.247 285.238 302.454 285.149 302.697 285.149C302.953 285.149 303.163 285.238 303.329 285.417C303.502 285.59 303.588 285.804 303.588 286.059C303.588 286.302 303.502 286.51 303.329 286.682C303.163 286.855 302.953 286.941 302.697 286.941Z" fill="#009245"/>
<path d="M310.046 298.929C309.011 298.929 308.2 298.641 307.612 298.066C307.024 297.485 306.73 296.686 306.73 295.67C306.73 295.019 306.874 294.454 307.162 293.974C307.455 293.495 307.868 293.128 308.398 292.872C308.934 292.61 309.567 292.479 310.295 292.479C310.774 292.479 311.231 292.54 311.665 292.662C312.106 292.783 312.531 292.965 312.94 293.208V292.269C312.94 291.438 312.758 290.828 312.394 290.438C312.036 290.049 311.477 289.854 310.717 289.854C310.263 289.854 309.781 289.94 309.27 290.113C308.765 290.279 308.286 290.515 307.832 290.822L307.44 289.691C307.957 289.365 308.516 289.116 309.116 288.944C309.717 288.765 310.305 288.675 310.88 288.675C311.978 288.675 312.809 288.963 313.371 289.538C313.933 290.113 314.214 290.959 314.214 292.077V298.699H312.94V297.587C312.55 298.015 312.103 298.347 311.598 298.584C311.1 298.814 310.583 298.929 310.046 298.929ZM310.218 297.75C310.71 297.75 311.19 297.622 311.656 297.367C312.122 297.105 312.55 296.731 312.94 296.245V294.415C312.563 294.172 312.154 293.987 311.713 293.859C311.279 293.725 310.857 293.658 310.448 293.658C309.714 293.658 309.126 293.843 308.685 294.214C308.251 294.578 308.034 295.067 308.034 295.68C308.034 296.313 308.229 296.817 308.618 297.194C309.008 297.565 309.541 297.75 310.218 297.75Z" fill="#009245"/>
<path d="M320.174 295.402V294.904C320.174 294.259 320.269 293.716 320.461 293.275C320.659 292.834 320.908 292.454 321.208 292.135C321.509 291.809 321.815 291.508 322.128 291.234C322.537 290.876 322.895 290.505 323.202 290.122C323.515 289.732 323.671 289.234 323.671 288.627C323.671 287.982 323.448 287.436 323 286.989C322.56 286.541 321.924 286.318 321.094 286.318C320.18 286.318 319.471 286.57 318.966 287.075C318.468 287.58 318.219 288.228 318.219 289.02H316.906C316.906 288.254 317.078 287.57 317.423 286.969C317.768 286.369 318.254 285.899 318.88 285.561C319.506 285.222 320.244 285.053 321.094 285.053C321.943 285.053 322.659 285.216 323.24 285.542C323.828 285.861 324.275 286.292 324.582 286.835C324.888 287.372 325.042 287.976 325.042 288.646C325.042 289.189 324.952 289.653 324.773 290.036C324.601 290.419 324.377 290.758 324.102 291.052C323.828 291.339 323.543 291.617 323.25 291.885C322.962 292.141 322.687 292.409 322.426 292.69C322.164 292.965 321.95 293.281 321.783 293.639C321.617 293.997 321.534 294.422 321.534 294.913V295.402H320.174ZM320.825 298.957C320.531 298.957 320.279 298.852 320.068 298.641C319.864 298.43 319.762 298.184 319.762 297.903C319.762 297.616 319.864 297.363 320.068 297.146C320.279 296.929 320.531 296.82 320.825 296.82C321.132 296.82 321.387 296.929 321.592 297.146C321.803 297.363 321.908 297.616 321.908 297.903C321.908 298.184 321.803 298.43 321.592 298.641C321.387 298.852 321.132 298.957 320.825 298.957Z" fill="#009245"/>
</g>
<defs>
<filter id="filter0_d_249_17232" x="0.193559" y="0.552734" width="354.556" height="340.183" filterUnits="userSpaceOnUse" color-interpolation-filters="sRGB">
<feFlood flood-opacity="0" result="BackgroundImageFix"/>
<feColorMatrix in="SourceAlpha" type="matrix" values="0 0 0 0 0 0 0 0 0 0 0 0 0 0 0 0 0 0 127 0" result="hardAlpha"/>
<feMorphology radius="2.87478" operator="erode" in="SourceAlpha" result="effect1_dropShadow_249_17232"/>
<feOffset dy="6.70782"/>
<feGaussianBlur stdDeviation="4.31217"/>
<feComposite in2="hardAlpha" operator="out"/>
<feColorMatrix type="matrix" values="0 0 0 0 1 0 0 0 0 0.572549 0 0 0 0 0.909804 0 0 0 0.15 0"/>
<feBlend mode="normal" in2="BackgroundImageFix" result="effect1_dropShadow_249_17232"/>
<feBlend mode="normal" in="SourceGraphic" in2="effect1_dropShadow_249_17232" result="shape"/>
</filter>
</defs>
</svg>
