<svg width="349" height="56" viewBox="0 0 349 56" fill="none" xmlns="http://www.w3.org/2000/svg">
<g clip-path="url(#clip0_104_11395)">
<path fill-rule="evenodd" clip-rule="evenodd" d="M24.0008 11.685C23.2333 11.6032 22.4616 11.5676 21.6899 11.5782C20.9203 11.5533 20.15 11.589 19.3861 11.685V11.685L19.3077 10.5674L20.3561 10.4535L19.9852 4.75836H18.4375V3.24204C18.4375 3.24204 18.7014 3 21.6899 3C24.6784 3 24.9637 3.24204 24.9637 3.24204V4.78684H23.3945L23.0308 10.4819L24.0792 10.5958L24.0008 11.7135V11.685Z" fill="#662D91"/>
<path fill-rule="evenodd" clip-rule="evenodd" d="M18.7511 11.8491C18.7511 11.8491 17.995 12.0627 16.6113 12.6251C15.8734 12.9074 15.1581 13.2453 14.4716 13.636V13.636L13.9795 12.6251L14.8924 12.141L12.4603 7.03677L11.0338 7.649L10.4561 6.22522C10.4561 6.22522 10.6344 5.89776 13.3875 4.72314C16.1406 3.54853 16.4687 3.66955 16.4687 3.66955L17.0464 5.09332L15.6199 5.67707L17.4316 11.0803L18.423 10.7315L18.7653 11.8278L18.7511 11.8491Z" fill="#662D91"/>
<path fill-rule="evenodd" clip-rule="evenodd" d="M13.9795 14.042C13.3815 14.5233 12.8123 15.0391 12.2749 15.5868C11.7066 16.1358 11.1798 16.7259 10.6986 17.3523V17.3523L9.85699 16.6048L10.5702 15.779L6.37637 12.0345L5.27084 13.1593L4.19385 12.063C4.19385 12.063 4.19385 11.6857 6.33357 9.55003C8.4733 7.41437 8.80139 7.35742 8.80139 7.35742L9.87126 8.45373L8.78713 9.57851L12.4603 13.8498L13.2734 13.1379L13.9867 14.0207L13.9795 14.042Z" fill="#662D91"/>
<path fill-rule="evenodd" clip-rule="evenodd" d="M10.4133 17.8854C10.0308 18.5731 9.69714 19.2867 9.41477 20.021C9.09702 20.7331 8.83472 21.4685 8.63021 22.2208V22.2208L7.58174 21.8719L7.89557 20.797L2.62471 19.0102L2.01845 20.4838L0.591967 19.8929C0.591967 19.8929 0.484981 19.5441 1.64043 16.7108C2.79589 13.8774 3.06692 13.7422 3.06692 13.7422L4.4934 14.3331L3.93707 15.8138L8.92977 18.3267L9.42904 17.3657L10.4276 17.8996L10.4133 17.8854Z" fill="#662D91"/>
<path fill-rule="evenodd" clip-rule="evenodd" d="M8.55891 22.8333C8.47469 23.6135 8.43184 24.3977 8.43052 25.1825C8.41762 25.97 8.46052 26.7574 8.55891 27.5388V27.5388L7.46051 27.6172L7.35353 26.5493L1.79737 26.9195V28.4999H0.23537C0.23537 28.4999 0 28.2294 0 25.1825C0 22.1356 0.23537 21.8438 0.23537 21.8438H1.76171V23.4455L7.31787 23.8228L7.42485 22.755L8.52324 22.8333H8.55891Z" fill="#662D91"/>
<path fill-rule="evenodd" clip-rule="evenodd" d="M8.65883 28.1504C8.85737 28.88 9.11008 29.5939 9.41487 30.2861C9.68029 31.0274 10.0146 31.7424 10.4134 32.4217V32.4217L9.41487 32.9272L8.9156 31.9875L3.9229 34.5004L4.50063 35.9242L3.07414 36.5435C3.07414 36.5435 2.78171 36.3513 1.64766 33.5465C0.513602 30.7417 0.606324 30.4498 0.606324 30.4498L2.03281 29.8589L2.63906 31.3325L7.90992 29.5172L7.5961 28.4992L8.67309 28.1504H8.65883Z" fill="#662D91"/>
<path fill-rule="evenodd" clip-rule="evenodd" d="M10.7557 32.9922C11.231 33.6066 11.7381 34.1959 12.2749 34.7577C12.8091 35.3193 13.3888 35.8359 14.008 36.3025V36.3025L13.2948 37.1852L12.4817 36.4733L8.80851 40.7446L9.9069 41.8694L8.83704 42.9657C8.83704 42.9657 8.46615 42.9657 6.36922 40.7731C4.27229 38.5805 4.22949 38.2602 4.22949 38.2602L5.27083 37.171L6.37635 38.31L10.5702 34.5655L9.85697 33.7397L10.7271 33.0278L10.7557 32.9922Z" fill="#662D91"/>
<path fill-rule="evenodd" clip-rule="evenodd" d="M14.529 36.707C15.1893 37.0804 15.8731 37.4109 16.576 37.6966C17.2885 38.0196 18.0254 38.2862 18.7799 38.4939L18.409 39.5617L17.4176 39.2414L15.6345 44.6161L17.061 45.2283L16.4547 46.6521C16.4547 46.6521 16.1124 46.7589 13.3592 45.5843C10.6061 44.4097 10.4492 44.1107 10.4492 44.1107L11.0269 42.6869L12.4534 43.2991L14.9783 38.202L14.0368 37.6966L14.5575 36.707H14.529Z" fill="#662D91"/>
<path fill-rule="evenodd" clip-rule="evenodd" d="M19.4073 38.63C20.1651 38.7159 20.927 38.761 21.6897 38.7653C22.4625 38.7927 23.2363 38.7474 24.0006 38.63V38.63L24.1005 39.7762L23.0306 39.8616L23.3943 45.5567H24.9635V47.1371C24.9635 47.1371 24.671 47.3507 21.6826 47.3507C18.6941 47.3507 18.4302 47.1371 18.4302 47.1371V45.5282H19.9708L20.3417 39.8331L19.2932 39.7477L19.3931 38.6016L19.4073 38.63Z" fill="#662D91"/>
<path fill-rule="evenodd" clip-rule="evenodd" d="M24.6569 38.5225C25.387 38.3125 26.1019 38.0532 26.7967 37.7465C27.5134 37.4654 28.2053 37.1249 28.8651 36.7285V36.7285L29.3929 37.7465L28.4514 38.2306L30.9121 43.3348L32.3386 42.7155L32.9092 44.1393C32.9092 44.1393 32.7522 44.4596 29.9777 45.6342C27.2032 46.8088 26.8823 46.6807 26.8823 46.6807L26.3045 45.2569L27.731 44.6732L26.0192 39.3055L24.9636 39.6188L24.6284 38.5225H24.6569Z" fill="#662D91"/>
<path fill-rule="evenodd" clip-rule="evenodd" d="M29.4785 36.3584C30.0771 35.8753 30.6463 35.3571 31.1832 34.8065C31.7416 34.2565 32.2589 33.6664 32.7309 33.041V33.041L33.5725 33.7529L32.8593 34.5858L37.0888 38.3588L38.1872 37.2411L39.2642 38.3375C39.2642 38.3375 39.2642 38.7076 37.1245 40.8504C34.9847 42.9932 34.6638 43.0359 34.6638 43.0359L33.5868 41.9467L34.6852 40.8219L31.0191 36.5506L30.206 37.2625L29.4928 36.3798L29.4785 36.3584Z" fill="#662D91"/>
<path fill-rule="evenodd" clip-rule="evenodd" d="M33.1015 32.4787C33.4702 31.784 33.8035 31.0712 34.1 30.343C34.4208 29.6376 34.674 28.9035 34.856 28.1504V28.1504L35.933 28.4992L35.6192 29.5101L40.8901 31.3325L41.4963 29.8589L42.88 30.4498C42.88 30.4498 42.987 30.7986 41.8601 33.6034C40.7332 36.4083 40.3908 36.5934 40.3908 36.5934L38.9643 36.0096L39.5635 34.536L34.5708 32.0231L34.0786 32.9841L33.0801 32.4502L33.1015 32.4787Z" fill="#662D91"/>
<path fill-rule="evenodd" clip-rule="evenodd" d="M34.9917 27.5104C34.9917 27.5104 35.0916 26.7059 35.1201 25.1611C35.133 24.3737 35.0901 23.5862 34.9917 22.8048V22.8048L36.0901 22.7265L36.1971 23.7943L41.7532 23.4241V21.8438H43.2724C43.2724 21.8438 43.5149 22.1071 43.5149 25.1611C43.5149 28.2151 43.2724 28.4714 43.2724 28.4714H41.7532V26.8981L36.1971 26.4924L36.0901 27.5602L34.9917 27.4819V27.5104Z" fill="#662D91"/>
<path fill-rule="evenodd" clip-rule="evenodd" d="M34.8561 22.1355C34.8561 22.1355 34.6493 21.3596 34.1001 19.9429C33.819 19.2081 33.4852 18.4943 33.1016 17.8072L34.1001 17.3018L34.5708 18.2629L39.5635 15.7499L38.9644 14.2763L40.3909 13.6641C40.3909 13.6641 40.7047 13.8492 41.8174 16.6611C42.93 19.4731 42.8658 19.8148 42.8658 19.8148L41.4394 20.3985L40.8331 18.932L35.5908 20.7972L35.9046 21.8152L34.8561 22.1569V22.1355Z" fill="#662D91"/>
<path fill-rule="evenodd" clip-rule="evenodd" d="M32.6807 17.2735C32.2053 16.6591 31.6982 16.0698 31.1615 15.508C30.6315 14.9478 30.0592 14.429 29.4497 13.9561V13.9561L30.1629 13.0734L30.976 13.7853L34.6492 9.51393L33.5223 8.37491L34.6207 7.27148C34.6207 7.27148 34.9916 7.27148 37.0885 9.47122C39.1855 11.6709 39.2283 11.9842 39.2283 11.9842L38.1584 13.0734L37.0885 11.9557L32.8947 15.6931L33.5223 16.526L32.6593 17.2735H32.6807Z" fill="#662D91"/>
<path fill-rule="evenodd" clip-rule="evenodd" d="M28.8793 13.5856C28.8793 13.5856 28.1661 13.1869 26.8038 12.5676C26.116 12.2437 25.3997 11.9839 24.6641 11.7916V11.7916L25.0064 10.7238L26.0264 11.0441L27.8095 5.66938L26.383 5.05716L26.9607 3.63339C26.9607 3.63339 27.3031 3.5266 30.0562 4.70122C32.8093 5.87583 32.9947 6.17482 32.9947 6.17482L32.417 7.5986L30.9905 6.97926L28.4585 12.0906L29.3786 12.5676L28.8793 13.5856V13.5856Z" fill="#662D91"/>
<path fill-rule="evenodd" clip-rule="evenodd" d="M15.7912 19.4668C15.4956 19.8309 15.224 20.2138 14.9781 20.613C14.7031 21.0009 14.4644 21.4131 14.2649 21.8445V21.8445L13.6372 21.51L13.951 20.9476L10.9911 19.2106L10.4633 20.015L9.67871 19.4811C9.92995 18.8414 10.2736 18.2418 10.6986 17.7014C11.7186 16.1494 11.9326 16.0996 11.9326 16.0996L12.6886 16.6335L12.1251 17.438L14.8283 19.5736L15.2491 19.0682L15.7769 19.4953L15.7912 19.4668Z" fill="#662D91"/>
<path fill-rule="evenodd" clip-rule="evenodd" d="M14.0866 22.2213C13.942 22.688 13.8276 23.1636 13.7442 23.645C13.6407 24.1133 13.5787 24.5897 13.5588 25.0688L12.8455 24.9834L12.8955 24.3427L9.53609 23.8942L9.35778 24.8553L8.4377 24.663C8.4377 24.663 8.33072 24.4495 8.67307 22.6342C9.01543 20.8189 9.19374 20.6836 9.19374 20.6836L10.1138 20.8473L9.98544 21.7657L13.2949 22.6698L13.4518 22.0291L14.108 22.2213H14.0866Z" fill="#662D91"/>
<path fill-rule="evenodd" clip-rule="evenodd" d="M13.5517 25.4238C13.5937 25.9023 13.6651 26.3778 13.7656 26.8476C13.8331 27.3199 13.9453 27.7847 14.1009 28.2358V28.2358L13.4518 28.428L13.2664 27.8086L9.98545 28.6843L10.1709 29.624L9.27221 29.8091C9.27221 29.8091 9.11529 29.6738 8.75154 27.887C8.38779 26.1001 8.48764 25.851 8.48764 25.851L9.40772 25.6659L9.58603 26.6269L12.9739 26.1713L12.8955 25.5021L13.6087 25.4238H13.5517Z" fill="#662D91"/>
<path fill-rule="evenodd" clip-rule="evenodd" d="M14.2648 28.6289C14.2648 28.6289 14.4787 29.056 14.978 29.832C15.2387 30.2336 15.527 30.6166 15.841 30.9781L15.2918 31.4053L14.8996 30.8998L12.1964 33.0355L12.7242 33.8328L11.961 34.324C11.961 34.324 11.747 34.2671 10.7271 32.7151C9.70715 31.1632 9.72855 30.9497 9.72855 30.9497L10.5202 30.4157L11.0409 31.2202L13.9795 29.5116L13.6656 28.9208L14.2648 28.6289Z" fill="#662D91"/>
<path fill-rule="evenodd" clip-rule="evenodd" d="M16.1049 31.2266C16.1049 31.2266 16.4686 31.5469 17.2318 32.0808C17.6099 32.3559 18.0135 32.5943 18.4372 32.7927V32.7927L18.1233 33.4121L17.5456 33.0917L15.841 36.1101L16.6541 36.644L16.1263 37.4485C16.1263 37.4485 15.9194 37.4485 14.4002 36.4305C12.881 35.4125 12.7954 35.1775 12.7954 35.1775L13.3232 34.4016L14.1078 34.9355L16.1833 32.1876L15.684 31.7605L16.1049 31.2266V31.2266Z" fill="#662D91"/>
<path fill-rule="evenodd" clip-rule="evenodd" d="M18.8082 32.9628C19.2549 33.1061 19.7098 33.2226 20.1705 33.3116C20.6252 33.4316 21.0914 33.5032 21.5613 33.5252V33.5252L21.4829 34.237L20.8267 34.1587L20.4059 37.6114L21.3259 37.7965L21.1405 38.729C21.1405 38.729 20.9551 38.8358 19.172 38.4656C17.3888 38.0955 17.2319 37.8819 17.2319 37.8819L17.4174 36.9422L18.3589 37.1273L19.2575 33.817L18.6228 33.6106L18.8082 32.9414V32.9628Z" fill="#662D91"/>
<path fill-rule="evenodd" clip-rule="evenodd" d="M21.9536 33.5253C22.4202 33.4851 22.8844 33.421 23.3444 33.3331C23.8086 33.2501 24.2645 33.1262 24.7067 32.9629L24.8922 33.6321L24.2645 33.8172L25.1561 37.1701L26.0976 36.9851L26.283 37.882C26.283 37.882 26.1261 38.0671 24.343 38.4159C22.5599 38.7648 22.3744 38.6793 22.3744 38.6793L22.189 37.7468L23.1091 37.5617L22.6597 34.109L22.0321 34.1873L21.9536 33.4755V33.5253Z" fill="#662D91"/>
<path fill-rule="evenodd" clip-rule="evenodd" d="M25.0703 32.829C25.0703 32.829 25.4911 32.6154 26.2828 32.1171C26.6838 31.8565 27.0609 31.5611 27.4097 31.2344L27.8306 31.7968L27.3313 32.1954L29.3997 34.9504L30.1914 34.4165L30.7121 35.1925C30.7121 35.1925 30.6621 35.406 29.1429 36.4454C27.6237 37.4847 27.4097 37.4634 27.4097 37.4634L26.8819 36.659L27.6736 36.125L25.9619 33.128L25.3913 33.4555L25.0703 32.8361V32.829Z" fill="#662D91"/>
<path fill-rule="evenodd" clip-rule="evenodd" d="M27.6953 30.9568C27.6953 30.9568 28.0091 30.5866 28.5369 29.8106C28.8106 29.4408 29.0471 29.045 29.243 28.6289L29.8493 28.9493L29.5355 29.5401L32.4954 31.2487L33.0232 30.4442L33.8078 30.9568C33.5673 31.584 33.2304 32.17 32.8093 32.6938C31.7893 34.2457 31.5753 34.3311 31.5753 34.3311L30.8193 33.7901L31.34 32.9928L28.6439 30.8571L28.2231 31.3626L27.6953 30.9354V30.9568Z" fill="#662D91"/>
<path fill-rule="evenodd" clip-rule="evenodd" d="M29.4281 28.2299C29.5665 27.7735 29.6807 27.3101 29.7705 26.8417C29.8673 26.3716 29.9364 25.8962 29.9773 25.418V25.418L30.6335 25.5034L30.5836 26.1726L33.9644 26.6211L34.1498 25.66L35.0699 25.8522C35.0774 26.5375 34.9886 27.2205 34.806 27.8811C34.4351 29.6679 34.2782 29.8032 34.2782 29.8032L33.3581 29.6181L33.5221 28.6855L30.2484 27.7814L30.0629 28.4221L29.4067 28.2299H29.4281Z" fill="#662D91"/>
<path fill-rule="evenodd" clip-rule="evenodd" d="M29.956 24.9966C29.9148 24.5184 29.8457 24.043 29.7492 23.5728C29.6856 23.1127 29.5781 22.6598 29.4282 22.2202V22.2202L30.0844 22.028L30.2698 22.6473L33.5222 21.7361L33.3582 20.7964L34.2783 20.6113C34.2783 20.6113 34.4352 20.7395 34.8061 22.5619C35.177 24.3843 35.07 24.5908 35.07 24.5908L34.1499 24.7759L33.9644 23.8148L30.5837 24.2704L30.6621 24.9396L29.9489 25.0179L29.956 24.9966Z" fill="#662D91"/>
<path fill-rule="evenodd" clip-rule="evenodd" d="M29.2431 21.7929C29.2431 21.7929 29.0291 21.3587 28.5298 20.5614C28.2739 20.1524 27.9828 19.7666 27.6597 19.4081L28.216 18.981L28.6083 19.4935L31.3043 17.3579L30.7837 16.5534L31.5682 16.0195C31.5682 16.0195 31.7822 16.0765 32.7736 17.6213C33.765 19.1661 33.7722 19.3868 33.7722 19.3868L33.009 19.9207L32.4598 19.1234L29.5212 20.8604L29.8351 21.4228L29.2431 21.7929Z" fill="#662D91"/>
<path fill-rule="evenodd" clip-rule="evenodd" d="M27.4097 19.1163C27.4097 19.1163 27.0389 18.7959 26.2828 18.262C25.903 17.9857 25.4969 17.7472 25.0703 17.5501V17.5501L25.4127 16.9308L25.9619 17.2512L27.6736 14.2328L26.8819 13.6775L27.4097 12.873C28.0342 13.1261 28.6181 13.4691 29.1429 13.891C30.6621 14.9304 30.7121 15.144 30.7121 15.144L30.1914 15.9199L29.3997 15.386L27.3313 18.141L27.8306 18.5681L27.4097 19.1021V19.1163Z" fill="#662D91"/>
<path fill-rule="evenodd" clip-rule="evenodd" d="M24.6782 17.3802C24.2407 17.2308 23.7955 17.1049 23.3445 17.0029C22.8755 16.8988 22.3981 16.8368 21.918 16.8178V16.8178L21.9964 16.1059L22.6526 16.1842L23.102 12.7316L22.1533 12.5465L22.3388 11.6139C22.3388 11.6139 22.5242 11.5071 24.3073 11.8773C26.0904 12.2475 26.2473 12.3899 26.2473 12.3899L26.0619 13.3224L25.1204 13.1373L24.2503 16.5259L24.8494 16.711L24.664 17.3802H24.6782Z" fill="#662D91"/>
<path fill-rule="evenodd" clip-rule="evenodd" d="M21.5329 16.8461C21.0544 16.8821 20.5782 16.9439 20.1064 17.0311C19.6414 17.1137 19.1853 17.24 18.7441 17.4084V17.4084L18.5444 16.7393L19.1792 16.5542L18.2877 13.187L17.3676 13.372L17.1821 12.4324C17.1821 12.4324 17.3176 12.2757 19.1008 11.8984C20.8839 11.5211 21.0907 11.6564 21.0907 11.6564L21.2761 12.5961L20.3347 12.7812L20.7769 16.2054L21.4331 16.1484L21.5115 16.8603L21.5329 16.8461Z" fill="#662D91"/>
<path fill-rule="evenodd" clip-rule="evenodd" d="M18.3874 17.566C18.3874 17.566 17.9665 17.7795 17.182 18.2779C16.7879 18.5453 16.4115 18.8378 16.055 19.1535V19.1535L15.6342 18.5982L16.1264 18.1924L14.058 15.4446L13.2734 15.9785L12.7456 15.174C13.2121 14.6935 13.7425 14.2791 14.3219 13.9425C15.8411 12.9174 16.0764 12.9672 16.0764 12.9672L16.5757 13.7645L15.7911 14.2984L17.4958 17.2955L18.0735 16.9751L18.3874 17.5873V17.566Z" fill="#662D91"/>
<path fill-rule="evenodd" clip-rule="evenodd" d="M17.4671 22.4837C17.3273 22.7312 17.2103 22.9909 17.1177 23.2596C16.9931 23.5246 16.8951 23.8012 16.8252 24.0854V24.0854L16.4044 23.9573L16.5114 23.58L14.5571 22.9322L14.3217 23.4661L13.7939 23.2525C13.8689 22.8446 14.001 22.4492 14.1862 22.0779C14.607 21.0101 14.7426 20.9531 14.7426 20.9531L15.2632 21.1667L15.0279 21.7291L16.9179 22.6688L17.1034 22.2915L17.4671 22.505V22.4837Z" fill="#662D91"/>
<path fill-rule="evenodd" clip-rule="evenodd" d="M16.7612 24.3566C16.7612 24.3566 16.7612 24.6485 16.7612 25.2109C16.7359 25.5063 16.7551 25.8039 16.8182 26.0936L16.3974 26.1506L16.3404 25.7163L14.272 25.8801V26.4923H13.6942C13.6007 26.0913 13.5742 25.6775 13.6158 25.2679C13.5748 24.8463 13.6013 24.421 13.6942 24.0078H14.2648V24.5987L16.3332 24.7339V24.3282L16.754 24.3851L16.7612 24.3566Z" fill="#662D91"/>
<path fill-rule="evenodd" clip-rule="evenodd" d="M16.8398 26.3359C16.9043 26.6208 17 26.8977 17.1251 27.1617C17.2312 27.4376 17.3551 27.7063 17.496 27.9662V27.9662L17.1251 28.1513L16.9468 27.8024L15.0567 28.7421L15.292 29.276L14.7642 29.5181C14.519 29.1767 14.3333 28.7964 14.215 28.3933C14.0239 28.0195 13.8916 27.6185 13.8228 27.2044V27.2044L14.3506 26.9624L14.5788 27.5248L16.5545 26.8129L16.4047 26.4926L16.8255 26.3644L16.8398 26.3359Z" fill="#662D91"/>
<path fill-rule="evenodd" clip-rule="evenodd" d="M17.6241 28.1504C17.8047 28.3744 17.9975 28.5883 18.2018 28.7911C18.3955 29.0141 18.6159 29.2125 18.858 29.382L18.5656 29.7023L18.2803 29.4603L16.8894 31.0407L17.3103 31.4393L16.918 31.8664C16.918 31.8664 16.7896 31.8664 15.9694 31.0407C15.1491 30.2149 15.1848 30.101 15.1848 30.101L15.5771 29.7023L15.9979 30.101L17.5742 28.7413L17.3103 28.4209L17.6241 28.1504Z" fill="#662D91"/>
<path fill-rule="evenodd" clip-rule="evenodd" d="M19.0436 29.5176C19.0436 29.5176 19.3075 29.6457 19.8282 29.8593C20.0881 29.9868 20.3606 30.087 20.6413 30.1583L20.5129 30.5569L20.1135 30.4502L19.4644 32.4577L20.0136 32.6926L19.7783 33.2336C19.3753 33.1554 18.986 33.0187 18.6228 32.8279C17.5957 32.4007 17.5244 32.2655 17.5244 32.2655L17.7598 31.7315L18.2805 31.9736L19.2005 30.0515L18.8582 29.8593L19.0436 29.5176V29.5176Z" fill="#662D91"/>
<path fill-rule="evenodd" clip-rule="evenodd" d="M20.8481 30.209C21.1362 30.2509 21.4272 30.27 21.7183 30.2659C22.0071 30.2723 22.2959 30.2532 22.5813 30.209V30.6361H22.189L22.3459 32.7718H22.9237V33.3555C22.9237 33.3555 22.8167 33.4623 21.6898 33.4623C20.5628 33.4623 20.4844 33.3555 20.4844 33.3555V32.7931H21.0621L21.1905 30.6575H20.7982V30.2303L20.8481 30.209Z" fill="#662D91"/>
<path fill-rule="evenodd" clip-rule="evenodd" d="M22.8239 30.1583C23.105 30.0884 23.3776 29.9881 23.6369 29.8593C24.1647 29.6457 24.4286 29.5176 24.4286 29.5176L24.607 29.8593L24.2503 30.0515L25.1633 31.9736L25.6911 31.7315L25.9265 32.2655C25.9265 32.2655 25.848 32.4007 24.8209 32.8279C24.4595 33.0171 24.0728 33.1537 23.6726 33.2336V33.2336L23.4301 32.6926L23.9864 32.4577L23.2732 30.4502L22.9094 30.5854L22.7739 30.1583H22.8239Z" fill="#662D91"/>
<path fill-rule="evenodd" clip-rule="evenodd" d="M24.5996 29.382C24.5996 29.382 24.835 29.1969 25.2558 28.7911C25.4601 28.5883 25.653 28.3744 25.8335 28.1504V28.1504L26.1474 28.4209L25.8906 28.7413L27.4597 30.101L27.8805 29.6738L28.2728 30.101C28.2728 30.101 28.2728 30.2362 27.4883 31.0407C26.7037 31.8451 26.5682 31.8664 26.5682 31.8664L26.1474 31.4393L26.5682 31.0122L25.1417 29.4603L24.8564 29.6738L24.564 29.382H24.5996Z" fill="#662D91"/>
<path fill-rule="evenodd" clip-rule="evenodd" d="M25.9619 27.9154C26.1037 27.6658 26.2276 27.4065 26.3328 27.1394C26.461 26.8668 26.5568 26.5801 26.6181 26.2852V26.2852L27.0175 26.4204L26.9105 26.8191L28.8791 27.4882L29.1144 26.9543L29.6351 27.1679C29.5685 27.5847 29.4361 27.9884 29.2428 28.3639C28.822 29.4317 28.6936 29.4886 28.6936 29.4886L28.1658 29.2751L28.4012 28.7127L26.5182 27.7801L26.3328 28.1218L25.9619 27.9154Z" fill="#662D91"/>
<path fill-rule="evenodd" clip-rule="evenodd" d="M26.6753 26.0642C26.7134 25.7811 26.7301 25.4956 26.7252 25.21C26.7294 24.9244 26.7127 24.6389 26.6753 24.3557V24.3557L27.0961 24.3059V24.7045L29.243 24.5408V23.957H29.8136C29.906 24.3582 29.9325 24.7718 29.892 25.1815C29.933 25.603 29.9065 26.0283 29.8136 26.4415H29.243V25.8506L27.1032 25.694V26.0927H26.6824L26.6753 26.0642Z" fill="#662D91"/>
<path fill-rule="evenodd" clip-rule="evenodd" d="M26.6466 24.0648C26.5656 23.7826 26.4704 23.5046 26.3613 23.2319C26.2492 22.963 26.1157 22.7035 25.9619 22.456V22.456L26.3899 22.221L26.5682 22.5983L28.4297 21.6373L28.1944 21.1034L28.7222 20.8613C28.7222 20.8613 28.8505 20.9396 29.2714 21.979C29.6922 23.0183 29.6636 23.1607 29.6636 23.1607L29.143 23.4028L28.9076 22.8404L26.9391 23.5523L27.0674 23.9296L26.6752 24.0648H26.6466Z" fill="#662D91"/>
<path fill-rule="evenodd" clip-rule="evenodd" d="M25.8338 22.2219C25.8338 22.2219 25.6484 22.0012 25.2561 21.5741C25.0581 21.3678 24.8486 21.1729 24.6284 20.9903V20.9903L24.8923 20.67L25.1776 20.9334L26.6041 19.3316L26.1833 18.9045L26.5756 18.5059C26.5756 18.5059 26.7111 18.5059 27.5242 19.3032C28.3373 20.1005 28.3087 20.2429 28.3087 20.2429L27.9165 20.67L27.4957 20.2429L25.9265 21.6666L26.1833 21.9585L25.8695 22.229L25.8338 22.2219Z" fill="#662D91"/>
<path fill-rule="evenodd" clip-rule="evenodd" d="M24.3929 20.8539C24.1502 20.7078 23.8947 20.5839 23.6297 20.4837C23.3726 20.3553 23.1024 20.2551 22.8237 20.1847V20.1847L22.9592 19.7861L23.323 19.8929L23.9792 17.8853L23.4514 17.6433L23.6654 17.1094C24.068 17.1886 24.4571 17.3253 24.8208 17.5152C25.8693 17.9423 25.9192 18.0704 25.9192 18.0704L25.7124 18.6115L25.1632 18.3694L24.2502 20.2915L24.614 20.4837L24.4071 20.8539H24.3929Z" fill="#662D91"/>
<path fill-rule="evenodd" clip-rule="evenodd" d="M22.5528 20.1344C22.5528 20.1344 22.2675 20.1344 21.7183 20.0775C21.4271 20.0715 21.136 20.0906 20.8481 20.1344V20.1344L20.7982 19.7073H21.1905L21.0621 17.5716H20.4844V16.9879C20.8778 16.8879 21.2861 16.8589 21.6898 16.9025C22.8167 16.9025 22.9237 16.9879 22.9237 16.9879V17.5503H22.3459L22.189 19.6859H22.6098L22.5528 20.1131V20.1344Z" fill="#662D91"/>
<path fill-rule="evenodd" clip-rule="evenodd" d="M20.5911 20.1857C20.3141 20.2684 20.0425 20.3682 19.778 20.4847C19.5128 20.596 19.2575 20.7293 19.0148 20.8834V20.8834L18.808 20.5061L19.1717 20.321L18.2302 18.3989L17.7024 18.6338L17.4956 18.0999C17.4956 18.0999 17.5455 17.9718 18.5655 17.5446C19.5854 17.1175 19.7209 17.1388 19.7209 17.1388L19.9634 17.6728L19.4071 17.9148L20.1203 19.9223L20.4841 19.7871L20.6196 20.1857H20.5911Z" fill="#662D91"/>
<path fill-rule="evenodd" clip-rule="evenodd" d="M18.808 21.017C18.5842 21.198 18.3722 21.3929 18.1732 21.6007C17.9552 21.8006 17.7613 22.0252 17.5955 22.2699V22.2699L17.2602 21.978L17.5241 21.6791L15.9479 20.2909L15.5556 20.6966L15.1348 20.2909C15.1348 20.2909 15.1348 20.1627 15.9479 19.3583C16.761 18.5539 16.8679 18.5254 16.8679 18.5254L17.2602 18.9312L16.8679 19.3583L18.2302 20.96L18.5441 20.6966L18.808 21.017V21.017Z" fill="#662D91"/>
<path d="M165.993 52.8457H0.36377V55.9994H165.993V52.8457Z" fill="#662D91"/>
<path fill-rule="evenodd" clip-rule="evenodd" d="M146.85 19.4093H146.015C145.801 20.0287 145.701 20.1212 145.223 20.1212C144.047 20.1212 142.52 19.1602 139.296 19.1602C134.368 19.1602 131.037 21.8084 131.037 25.681C131.025 26.698 131.251 27.7037 131.696 28.6183C132.142 29.5328 132.796 30.3309 133.605 30.949C137.014 33.7966 145.173 35.8112 145.173 40.1679C145.173 42.8945 142.734 44.66 139.061 44.66C136.415 44.66 131.822 43.1365 131.772 38.4594H130.852V45.2722H131.772C132.036 44.6315 132.399 44.3111 132.927 44.3111C133.947 44.3111 136.65 45.6495 139.874 45.6495C144.624 45.6495 148.504 42.4104 148.504 38.4594C148.504 36.7722 147.977 35.199 145.851 33.4335C141.5 29.7958 133.79 28.5927 133.79 23.9156C133.79 21.5877 136.044 20.1212 139.218 20.1212C142.392 20.1212 145.487 21.5877 145.958 25.3322H146.85V19.4236V19.4093Z" fill="#662D91"/>
<path fill-rule="evenodd" clip-rule="evenodd" d="M61.4814 24.6197C61.4814 21.5515 62.3444 20.5904 64.7552 20.5904V19.8145H54.3989V20.5904C56.8596 20.5904 57.6727 21.4162 57.6727 24.6197V40.4449C57.6727 43.7054 56.7598 44.5098 54.3989 44.5098V45.2217H64.7552V44.5098C62.3444 44.5098 61.4814 43.5772 61.4814 40.4449V24.6197Z" fill="#662D91"/>
<path fill-rule="evenodd" clip-rule="evenodd" d="M95.2606 26.6554V20.7183H94.2906C94.1883 20.8088 94.0683 20.8771 93.9381 20.9187C93.808 20.9604 93.6705 20.9746 93.5346 20.9603C92.2222 20.9603 89.9684 19.3301 84.6404 19.3301C75.8818 19.3301 69.5625 25.0252 69.5625 32.9627C69.5625 40.5514 75.6964 46.033 84.2196 46.033C89.1767 46.033 92.2721 44.4811 94.9183 44.8584C94.9753 44.8584 96.3447 39.028 96.3875 38.9497H95.5744C92.7215 43.9329 88.6203 45.015 85.2895 45.015C78.9488 45.0007 73.4639 39.5619 73.4639 32.1868C73.4639 25.317 77.8432 20.3766 84.8758 20.3766C89.462 20.3766 93.0852 22.861 94.4761 26.6839H95.2606V26.6554Z" fill="#662D91"/>
<path fill-rule="evenodd" clip-rule="evenodd" d="M121.151 29.3389H120.281C119.889 31.4745 119.133 31.802 117.157 31.802H109.126V20.96H117.414C120.588 20.96 121.586 21.1735 122.242 23.9784H122.792V19.707H102.058V20.483C104.518 20.483 105.31 21.3586 105.31 24.5123V40.3945C105.31 43.7617 104.311 44.4024 102.058 44.4024V45.1499H122.799L124.104 40.3945H123.248C121.543 43.7332 120.495 43.897 116.265 43.897H111.273C109.668 43.897 109.133 43.4129 109.133 42.1813V33.0692H116.265C119.232 33.0692 119.682 33.3326 120.281 35.5038H121.151V29.3389Z" fill="#662D91"/>
<path fill-rule="evenodd" clip-rule="evenodd" d="M162.298 24.5123C162.298 21.444 163.161 20.483 165.579 20.483V19.707H155.216V20.483C157.684 20.483 158.497 21.3088 158.497 24.5123V40.3375C158.497 43.598 157.577 44.4024 155.216 44.4024V45.1499H165.579V44.4024C163.161 44.4024 162.298 43.4698 162.298 40.3375V24.5123Z" fill="#662D91"/>
<path fill-rule="evenodd" clip-rule="evenodd" d="M54.1634 5.27148H55.1834V9.27941C55.1737 9.5946 55.2001 9.90985 55.2618 10.2191C55.3061 10.3986 55.3971 10.5631 55.5257 10.6961C55.73 10.9365 55.9928 11.1203 56.2889 11.23C56.6013 11.3658 56.9397 11.4314 57.2803 11.4222C57.8255 11.4424 58.3621 11.2822 58.8066 10.9666C58.9955 10.8171 59.1458 10.6248 59.245 10.4056C59.3443 10.1864 59.3896 9.94675 59.3772 9.70654V9.70654V5.27148H60.4043V9.76349C60.4138 10.1214 60.3402 10.4767 60.1892 10.8015C60.0383 11.1263 59.8141 11.4118 59.5341 11.6358C58.8932 12.136 58.0929 12.3888 57.2803 12.3476C56.7708 12.3597 56.264 12.2702 55.7896 12.0842C55.3534 11.9098 54.9717 11.6223 54.6841 11.2513C54.4883 11.0515 54.3439 10.8072 54.2633 10.5394C54.1778 10.1348 54.1443 9.72097 54.1634 9.30788V9.30788V5.27148Z" fill="#662D91"/>
<path fill-rule="evenodd" clip-rule="evenodd" d="M66.2817 12.2195V5.27148H67.1947L71.9734 10.6747V5.27148H72.9933V12.2195H72.0733L67.3302 6.8234V12.2195H66.2817Z" fill="#662D91"/>
<path fill-rule="evenodd" clip-rule="evenodd" d="M79.2627 12.2195V5.27148H80.2826V12.2195H79.2627Z" fill="#662D91"/>
<path fill-rule="evenodd" clip-rule="evenodd" d="M88.6275 12.2765L85.4536 5.27148H86.5235L88.7845 10.2476L91.0882 5.27148H92.1652L88.9128 12.2765H88.6275Z" fill="#662D91"/>
<path fill-rule="evenodd" clip-rule="evenodd" d="M97.4644 12.2195V5.27148H101.815V6.15422H98.4843V8.26853H101.737V9.17263H98.4843V11.3368H101.922V12.2195H97.4644Z" fill="#662D91"/>
<path fill-rule="evenodd" clip-rule="evenodd" d="M107.957 12.2554V5.27182H110.096C110.707 5.22906 111.313 5.40862 111.801 5.77726C112.007 5.95023 112.168 6.16952 112.272 6.41706C112.377 6.66461 112.42 6.93331 112.4 7.20104C112.423 7.60241 112.302 7.99876 112.058 8.3187C111.793 8.62854 111.435 8.84558 111.038 8.93804C111.165 9.0074 111.281 9.09628 111.38 9.20144C111.536 9.35921 111.676 9.53077 111.801 9.714V9.714L113.541 12.2554H112.286L111.052 10.4045C110.807 10.008 110.496 9.65646 110.132 9.36518C109.893 9.20061 109.609 9.11586 109.319 9.12313H109.005V12.2554H107.957ZM109.005 8.32582H109.84C110.216 8.34244 110.59 8.25104 110.916 8.06242C111.038 7.96192 111.135 7.83412 111.198 7.6894C111.261 7.54468 111.29 7.38712 111.28 7.22951C111.295 7.07514 111.272 6.91955 111.213 6.77584C111.155 6.63214 111.063 6.50452 110.945 6.40373C110.611 6.20783 110.227 6.11149 109.84 6.12609H108.976V8.26175L109.005 8.32582Z" fill="#662D91"/>
<path fill-rule="evenodd" clip-rule="evenodd" d="M118.577 11.6846V10.3747C118.846 10.6861 119.167 10.9486 119.525 11.1507C119.823 11.3104 120.157 11.3936 120.495 11.3927C120.793 11.4073 121.086 11.3221 121.33 11.1507C121.434 11.0808 121.518 10.9849 121.573 10.8724C121.628 10.7599 121.652 10.6349 121.644 10.51C121.643 10.289 121.57 10.0742 121.437 9.89774C121.139 9.61528 120.803 9.37568 120.438 9.18585C119.867 8.86138 119.346 8.45616 118.89 7.98276C118.678 7.68638 118.568 7.32909 118.577 6.96476C118.574 6.71527 118.628 6.46838 118.732 6.24188C118.837 6.01538 118.991 5.8149 119.183 5.65489C119.616 5.29466 120.168 5.10925 120.731 5.13521C121.007 5.1426 121.28 5.18811 121.544 5.27047C121.84 5.33738 122.123 5.45543 122.378 5.6193V5.6193V6.74408C122.103 6.53238 121.804 6.35322 121.487 6.21016C121.23 6.10077 120.953 6.04505 120.674 6.04643C120.392 6.03476 120.115 6.12023 119.889 6.28847C119.793 6.35309 119.715 6.44 119.66 6.54169C119.605 6.64338 119.576 6.75681 119.575 6.87222C119.575 7.22104 119.996 7.64817 120.859 8.15361L121.016 8.23904C121.532 8.52082 121.993 8.89206 122.378 9.33535C122.597 9.6871 122.707 10.096 122.692 10.51C122.696 10.7631 122.644 11.0141 122.541 11.2453C122.437 11.4765 122.285 11.6823 122.093 11.8483C121.658 12.2034 121.106 12.3837 120.545 12.3537C120.189 12.3599 119.835 12.307 119.497 12.1971C119.161 12.0839 118.849 11.9102 118.577 11.6846V11.6846Z" fill="#662D91"/>
<path fill-rule="evenodd" clip-rule="evenodd" d="M128.412 12.2195V5.27148H129.439V12.2195H128.412Z" fill="#662D91"/>
<path fill-rule="evenodd" clip-rule="evenodd" d="M138.369 6.21009H136.728V11.2858H138.369C139.141 11.3389 139.905 11.1 140.509 10.6167C140.76 10.3773 140.954 10.0849 141.077 9.76102C141.201 9.43711 141.25 9.08979 141.222 8.74441C141.247 8.40353 141.196 8.06127 141.073 7.7424C140.95 7.42352 140.757 7.136 140.509 6.90062C139.911 6.40256 139.146 6.14829 138.369 6.18873V6.21009ZM138.369 5.2704C138.848 5.26256 139.326 5.30793 139.795 5.40566C140.17 5.51047 140.53 5.66363 140.865 5.86126C141.312 6.18163 141.678 6.6007 141.935 7.08571C142.194 7.60027 142.329 8.16846 142.327 8.74441C142.333 9.32085 142.198 9.89007 141.935 10.4031C141.667 10.9027 141.277 11.3264 140.801 11.6347C140.472 11.8448 140.111 11.9987 139.731 12.0903C139.263 12.1964 138.784 12.2395 138.305 12.2184H135.651V5.2704H138.369Z" fill="#662D91"/>
<path fill-rule="evenodd" clip-rule="evenodd" d="M149.067 9.27897H151.321L150.209 6.76601L149.067 9.27897ZM146.692 12.2547L149.838 5.30664H150.601L153.775 12.2547H152.698L151.785 10.2258H148.689L147.741 12.2547H146.692Z" fill="#662D91"/>
<path fill-rule="evenodd" clip-rule="evenodd" d="M161.828 6.20971H160.173V11.2855H161.828C162.586 11.3354 163.336 11.0963 163.924 10.6163C164.188 10.3836 164.396 10.0942 164.532 9.76999C164.668 9.44573 164.728 9.09498 164.709 8.74403C164.726 8.3976 164.664 8.05191 164.528 7.73269C164.392 7.41347 164.186 7.12893 163.924 6.90024C163.342 6.40555 162.592 6.151 161.828 6.18836V6.20971ZM161.828 5.27002C162.285 5.26423 162.742 5.3096 163.19 5.40528C163.569 5.50473 163.932 5.65817 164.267 5.86089C164.739 6.16813 165.127 6.58923 165.394 7.08534C165.678 7.59149 165.823 8.16376 165.815 8.74403C165.828 9.32483 165.682 9.89827 165.394 10.4027C165.135 10.9064 164.746 11.3316 164.267 11.6343C163.944 11.8405 163.59 11.9943 163.218 12.0899C162.751 12.1949 162.271 12.238 161.792 12.218H159.117V5.27002H161.828Z" fill="#662D91"/>
</g>
<g clip-path="url(#clip1_104_11395)">
<path d="M271.167 15.6306V15.1973L271.7 15.1475C271.814 15.1475 271.835 15.1049 271.835 14.9841V10.3235C271.835 10.2099 271.835 10.1743 271.7 10.1672L271.167 10.1033V9.66992H273.75C275.323 9.66992 275.778 10.4798 275.778 11.4461C275.778 12.803 274.888 13.3501 273.465 13.3501H272.547V14.9202C272.547 15.0552 272.547 15.0765 272.689 15.0836L273.885 15.1475V15.6306H271.167ZM273.415 12.7888C274.17 12.7888 275.024 12.668 275.024 11.4816C275.024 10.4372 274.312 10.2525 273.529 10.2525H272.547V12.7888H273.415Z" fill="#662D91"/>
<path d="M280.945 15.6306V15.1973L281.514 15.1546L280.803 13.414C280.755 13.3066 280.674 13.2178 280.571 13.1613C280.468 13.1047 280.349 13.0837 280.233 13.1014H279.251V14.9202C279.251 15.0552 279.251 15.0623 279.394 15.0836L279.942 15.1475V15.6306H277.871V15.1973L278.397 15.1475C278.497 15.1475 278.54 15.1049 278.54 14.9841V10.3235C278.54 10.1957 278.54 10.1672 278.397 10.1672L277.871 10.1033V9.66992H280.418C281.934 9.66992 282.311 10.4869 282.311 11.2613C282.331 11.6231 282.225 11.9807 282.011 12.2733C281.797 12.566 281.488 12.7757 281.137 12.867C281.415 12.9877 281.514 13.2861 281.699 13.7195L282.197 14.9273C282.247 15.0481 282.326 15.0694 282.454 15.0765L282.959 15.1617V15.6306H280.945ZM280.055 12.5259C280.881 12.5259 281.557 12.2773 281.557 11.3324C281.557 10.3875 280.988 10.2738 279.927 10.2738H279.216V12.5259H280.055Z" fill="#662D91"/>
<path d="M284.667 12.5961C284.667 10.8626 285.677 9.5625 287.584 9.5625C289.491 9.5625 290.353 10.8626 290.353 12.5109C290.353 14.4433 289.392 15.6937 287.506 15.6937C285.62 15.6937 284.702 14.4078 284.702 12.5961M289.641 12.5961C289.641 11.0118 288.851 10.1735 287.613 10.1735C286.374 10.1735 285.478 11.0189 285.478 12.6032C285.478 14.1876 286.31 15.0969 287.57 15.0969C288.83 15.0969 289.662 14.2941 289.662 12.5961" fill="#662D91"/>
<path d="M297.633 13.3072C297.534 13.3072 297.505 13.3427 297.505 13.4279V15.3604C296.864 15.601 296.183 15.7145 295.498 15.6943C293.221 15.6943 292.381 14.3799 292.381 12.5896C292.343 12.1845 292.395 11.7761 292.532 11.3931C292.67 11.0101 292.89 10.662 293.177 10.3733C293.464 10.0846 293.811 9.86241 294.194 9.7224C294.577 9.5824 294.986 9.52801 295.392 9.56307C296.044 9.54063 296.69 9.69271 297.263 10.0036V11.2824H296.729L296.587 10.5719C296.587 10.444 296.544 10.3872 296.438 10.3446C296.084 10.231 295.714 10.1759 295.342 10.1812C293.997 10.1812 293.136 11.0692 293.136 12.618C293.136 14.1668 294.011 15.1259 295.541 15.1259C295.922 15.1339 296.303 15.0909 296.673 14.998C296.758 14.9625 296.779 14.9128 296.779 14.8062V13.3853H295.612L295.712 12.8596H297.989V13.3001L297.633 13.3072Z" fill="#662D91"/>
<path d="M303.034 15.6306V15.1973L303.611 15.1546L302.899 13.414C302.851 13.3061 302.768 13.217 302.664 13.1605C302.56 13.104 302.44 13.0833 302.323 13.1014H301.341V14.9202C301.341 15.0552 301.341 15.0623 301.483 15.0836L302.031 15.1475V15.6306H299.96V15.1973L300.487 15.1475C300.586 15.1475 300.629 15.1049 300.629 14.9841V10.3235C300.629 10.1957 300.629 10.1672 300.487 10.1672L299.96 10.1033V9.66992H302.508C304.031 9.66992 304.408 10.4869 304.408 11.2613C304.428 11.6231 304.322 11.9807 304.108 12.2733C303.894 12.566 303.585 12.7757 303.234 12.867C303.511 12.9877 303.611 13.2861 303.789 13.7195L304.287 14.9273C304.344 15.0481 304.415 15.0694 304.55 15.0765L305.055 15.1617V15.6306H303.034ZM302.152 12.5259C302.97 12.5259 303.653 12.2773 303.653 11.3324C303.653 10.3875 303.077 10.2738 302.024 10.2738H301.312V12.5259H302.152Z" fill="#662D91"/>
<path d="M310.322 15.6303V15.1969L311.034 15.1258L310.557 13.8115H308.166L307.703 15.1258L308.379 15.1969V15.6303H306.515V15.1969L306.806 15.1329C306.991 15.0903 307.056 15.0264 307.098 14.9056L308.927 9.70508H309.845L311.752 14.9198C311.788 15.0193 311.859 15.0406 311.959 15.0619L312.336 15.1472V15.6303H310.322ZM309.368 10.3516L308.358 13.2573H310.407L309.368 10.3516Z" fill="#662D91"/>
<path d="M318.862 15.6298V15.1964L319.573 15.1466C319.68 15.1466 319.701 15.0898 319.701 14.9832V10.8342L317.915 14.2088H317.204L315.432 10.8484V14.9193C315.432 15.0543 315.432 15.0756 315.56 15.0827L316.271 15.1466V15.6298H314.072V15.1964L314.599 15.1466C314.713 15.1466 314.741 15.104 314.741 14.9903V10.3227C314.741 10.1948 314.741 10.1735 314.599 10.1664L314.072 10.1024V9.66904H315.581L317.588 13.4984L319.595 9.64062H321.111V10.074L320.548 10.1379C320.427 10.1379 320.406 10.1877 320.406 10.3298V14.9193C320.406 15.0259 320.406 15.0614 320.548 15.0685L321.111 15.1324V15.6298H318.862Z" fill="#662D91"/>
<path d="M326.654 15.6303V15.1969L327.366 15.1258L326.896 13.8115H324.498L324.035 15.1258L324.711 15.1969V15.6303H322.847V15.1969L323.138 15.1329C323.323 15.0903 323.388 15.0264 323.43 14.9056L325.266 9.70508H326.184L328.084 14.9198C328.084 15.0193 328.198 15.0406 328.291 15.0619L328.668 15.1472V15.6303H326.654ZM325.7 10.3516L324.69 13.2573H326.739L325.7 10.3516Z" fill="#662D91"/>
<path d="M334.105 15.6306V15.1973L334.632 15.1475C334.753 15.1475 334.774 15.112 334.774 14.9912V10.3235C334.774 10.1957 334.774 10.1743 334.632 10.1672L334.105 10.1033V9.66992H336.61C338.745 9.66992 339.627 10.7711 339.627 12.5473C339.627 14.3234 338.674 15.6306 336.461 15.6306H334.105ZM336.468 15.0481C338.09 15.0481 338.873 14.1671 338.873 12.6894C338.873 10.8351 338.012 10.2738 336.51 10.2738H335.5V15.0481H336.468Z" fill="#662D91"/>
<path d="M341.755 15.6306V15.1973L342.282 15.1475C342.403 15.1475 342.424 15.1049 342.424 14.9841V10.3235C342.424 10.1957 342.424 10.1743 342.282 10.1672L341.755 10.1033V9.66992H345.961V10.9914H345.42L345.307 10.3591C345.307 10.2738 345.25 10.2525 345.164 10.2525H343.143V12.3412H345.42V12.9096H343.143V15.041H345.349C345.435 15.041 345.463 15.041 345.477 14.9557L345.62 14.2452H346.146V15.6306H341.755Z" fill="#662D91"/>
<path d="M295.754 45.0149C295.569 45.0149 295.512 45.0718 295.512 45.2139V48.2191C294.259 48.7266 292.914 48.9685 291.562 48.9295C287.499 48.9295 286.175 46.6206 286.175 43.6225C286.175 40.6243 288.033 38.3154 291.797 38.3154C292.979 38.2961 294.146 38.5825 295.185 39.1466V41.9884L293.256 41.825L293.114 40.6954C293.071 40.4822 293.021 40.3899 292.858 40.3331C292.501 40.2338 292.132 40.1906 291.762 40.2052C289.961 40.2052 289.029 41.6261 289.029 43.5514C289.029 45.6828 289.855 47.0255 291.691 47.0255C292.045 47.0362 292.4 46.9979 292.744 46.9119C292.893 46.9119 292.929 46.8266 292.929 46.585V45.1073H291.363L291.584 43.6864H296.352V44.9368L295.754 45.0149Z" fill="#662D91"/>
<path d="M297.135 48.7221V47.4149L298.06 47.3012C298.259 47.3012 298.295 47.2301 298.295 47.0312V40.2322C298.295 40.0332 298.259 39.9764 298.06 39.9622L297.135 39.8485V38.5413H305.226V41.5394L303.333 41.4684L303.091 40.495C303.088 40.4679 303.079 40.4417 303.065 40.418C303.051 40.3943 303.033 40.3736 303.011 40.357C302.989 40.3405 302.964 40.3285 302.938 40.3217C302.911 40.3149 302.884 40.3134 302.856 40.3174H301.027V42.7543H304.237V44.5517H301.027V47.0028H303.162C303.326 47.0028 303.362 46.9673 303.397 46.8394L303.618 45.6956H305.497V48.7505L297.135 48.7221ZM300.174 37.8308L299.156 36.9428L301.938 33.7812L303.433 35.2022L300.174 37.8308Z" fill="#662D91"/>
<path d="M314.086 48.7238L309.731 42.0526V47.0258C309.731 47.2389 309.731 47.2744 309.966 47.3171L310.948 47.4236V48.7309H306.6V47.4165L307.525 47.31C307.724 47.31 307.767 47.2318 307.767 47.0329V40.2338C307.767 40.0207 307.724 39.9639 307.525 39.9426L306.6 39.8573V38.543H310.62L314.954 45.2354V40.2623C314.954 40.0491 314.954 39.9923 314.698 39.971L313.766 39.8928V38.543H318.1V39.8928L317.096 39.9994C316.897 39.9994 316.876 40.0562 316.876 40.2694V48.7238H314.086Z" fill="#662D91"/>
<path d="M318.976 48.7238V47.4165L319.908 47.31C320.107 47.31 320.143 47.2318 320.143 47.0329V40.2338C320.143 40.0349 320.107 39.9781 319.908 39.9639L318.976 39.8573V38.543H327.046V41.5411L325.153 41.47L324.953 40.4754C324.95 40.4473 324.941 40.4202 324.927 40.3956C324.913 40.3711 324.894 40.3496 324.871 40.3324C324.849 40.3152 324.823 40.3026 324.796 40.2955C324.768 40.2883 324.74 40.2867 324.711 40.2907H322.875V42.7275H326.078V44.525H322.875V46.9832H325.01C325.174 46.9832 325.21 46.9405 325.245 46.8127L325.466 45.6688H327.337V48.7238H318.976Z" fill="#662D91"/>
<path d="M334.931 48.7238L333.507 45.1715C333.308 44.6955 333.13 44.4611 332.675 44.4611H332.347V47.0258C332.347 47.246 332.347 47.2602 332.582 47.2958L333.379 47.4236V48.7522H328.426V47.3952L329.359 47.2887C329.536 47.2887 329.608 47.2318 329.608 47.0684V40.2338C329.608 40.0349 329.558 39.9994 329.359 39.9639L328.426 39.8502V38.543H333.764C336.454 38.543 337.322 39.836 337.322 41.3848C337.322 42.8057 336.539 43.5161 335.393 44.0561C335.61 44.1745 335.801 44.3357 335.954 44.5299C336.107 44.724 336.219 44.9471 336.283 45.1857L336.995 46.8553C337.025 46.9507 337.082 47.0354 337.159 47.0996C337.236 47.1638 337.329 47.2047 337.429 47.2176L338.411 47.381V48.7096L334.931 48.7238ZM332.725 42.9265C333.614 42.9265 334.468 42.7773 334.468 41.5056C334.468 40.582 333.984 40.2694 332.888 40.2694H332.326V42.8909L332.725 42.9265Z" fill="#662D91"/>
<path d="M338.603 43.7063C338.603 40.6868 340.353 38.3281 343.919 38.3281C347.484 38.3281 349 40.6158 349 43.4505C349 46.7399 347.306 48.9423 343.719 48.9423C340.133 48.9423 338.603 46.7257 338.603 43.7063ZM346.182 43.5571C346.182 41.3618 345.321 40.3813 343.904 40.3813C342.488 40.3813 341.406 41.3618 341.406 43.6352C341.406 45.9087 342.374 46.8891 343.826 46.8891C345.278 46.8891 346.182 46.0508 346.182 43.5784" fill="#662D91"/>
<path d="M271.167 45.2201V44.7583L271.7 44.7086C271.814 44.7086 271.835 44.7086 271.835 44.5523V39.9485C271.835 39.8207 271.835 39.7993 271.7 39.7922L271.167 39.7212V39.2949H273.672C275.806 39.2949 276.696 40.389 276.696 42.1367C276.696 43.8845 275.7 45.1846 273.522 45.1846L271.167 45.2201ZM273.529 44.6375C275.152 44.6375 275.935 43.7566 275.935 42.2788C275.935 40.4245 275.073 39.8633 273.572 39.8633H272.561V44.6375H273.529Z" fill="#662D91"/>
<path d="M278.184 45.2201V44.7583L278.71 44.7015C278.831 44.7015 278.853 44.6588 278.853 44.5452V39.9485C278.853 39.8207 278.853 39.7993 278.71 39.7922L278.184 39.7212V39.2949H282.389V40.6164H281.849L281.742 39.9627C281.742 39.8775 281.692 39.8562 281.607 39.8562H279.607V41.9165H281.884V42.4849H279.607V44.6162H281.813C281.898 44.6162 281.927 44.6162 281.941 44.531L282.076 43.8205H282.61V45.1917L278.184 45.2201Z" fill="#662D91"/>
<path d="M271.188 32.1203V30.813L272.113 30.6993C272.32 30.6993 272.355 30.6283 272.355 30.4294V23.6303C272.355 23.4314 272.355 23.3746 272.113 23.3604L271.188 23.2467V21.9395H279.251V24.9376L277.358 24.8665L277.159 23.8648C277.155 23.8376 277.146 23.8114 277.133 23.7877C277.119 23.764 277.101 23.7433 277.079 23.7268C277.057 23.7102 277.032 23.6982 277.005 23.6914C276.979 23.6846 276.951 23.6832 276.924 23.6872H275.081V26.124H278.29V27.9215H275.081V30.3725H277.216C277.379 30.3725 277.422 30.3725 277.458 30.2091L277.671 29.0653H279.55V32.1203H271.188Z" fill="#662D91"/>
<path d="M286.332 24.9584L286.211 24.0135C286.211 23.8501 286.154 23.7933 286.005 23.7364C285.672 23.6261 285.322 23.5779 284.973 23.5943C283.948 23.5943 283.514 24.0135 283.514 24.5961C283.514 26.3935 288.609 25.1573 288.609 28.937C288.609 31.317 286.666 32.34 284.297 32.34C283.069 32.3363 281.85 32.1324 280.688 31.7361V28.8943H282.603L282.823 29.9245C282.873 30.2016 282.895 30.2371 283.129 30.3081C283.523 30.4035 283.927 30.4465 284.332 30.436C285.499 30.436 285.969 29.9671 285.969 29.349C285.969 27.4734 280.852 28.8162 280.852 25.0863C280.852 22.8484 282.638 21.7188 285.008 21.7188C286.13 21.7208 287.242 21.9378 288.282 22.3582V25.1005L286.332 24.9584Z" fill="#662D91"/>
<path d="M291.178 32.1203V30.7917L292.673 30.6851C292.886 30.6851 292.908 30.6141 292.908 30.3939V23.7227H291.797C291.634 23.7227 291.577 23.7227 291.563 23.8861L291.321 25.1223H289.392V21.9395H299.17V25.1223H297.256L297.021 23.8861C297.021 23.7369 296.95 23.7227 296.786 23.7227H295.655V30.3939C295.655 30.5928 295.655 30.6496 295.897 30.6638L297.512 30.7917V32.1203H291.178Z" fill="#662D91"/>
<path d="M307.511 23.6516C307.511 23.4314 307.511 23.3746 307.269 23.3604L306.358 23.268V21.9395H311.04V23.268L310.058 23.3746C309.838 23.3746 309.823 23.4314 309.823 23.6516V28.3762C309.823 31.218 308.179 32.3405 305.411 32.3405C302.429 32.3405 301.141 31.0475 301.141 28.3051V23.6516C301.141 23.4314 301.141 23.3746 300.885 23.3604L299.974 23.268V21.9395H305.091V23.268L304.109 23.3746C303.888 23.3746 303.867 23.4314 303.867 23.6516V27.9144C303.867 29.4561 304.159 30.202 305.674 30.202C307.041 30.202 307.496 29.4916 307.496 27.9286L307.511 23.6516Z" fill="#662D91"/>
<path d="M311.802 32.1203V30.7775L312.734 30.6851C312.912 30.6851 312.969 30.6283 312.969 30.4862V23.6303C312.969 23.4314 312.969 23.3959 312.734 23.3604L311.802 23.2467V21.9395H316.783C320.455 21.9395 322.042 23.8293 322.042 26.8629C322.042 29.8965 320.334 32.1203 316.527 32.1203H311.802ZM316.285 30.3583C318.669 30.3583 319.267 28.9374 319.267 26.9553C319.267 24.6463 318.47 23.7227 316.42 23.7227H315.709V30.3583H316.285Z" fill="#662D91"/>
<path d="M323.089 32.1203V30.813L324.163 30.6993C324.363 30.6993 324.398 30.6283 324.398 30.4294V23.6659C324.398 23.4456 324.363 23.3959 324.163 23.3746L323.089 23.2822V21.9395H328.497V23.2822L327.366 23.3959C327.152 23.3959 327.131 23.4456 327.131 23.6659V30.4152C327.131 30.6283 327.131 30.6851 327.366 30.6993L328.497 30.813V32.1203H323.089Z" fill="#662D91"/>
<path d="M329.458 27.104C329.458 24.0846 331.209 21.7188 334.781 21.7188C338.354 21.7188 339.855 24.0135 339.855 26.8482C339.855 30.1376 338.162 32.34 334.575 32.34C330.988 32.34 329.458 30.1234 329.458 27.104ZM337.037 26.9548C337.037 24.7595 336.183 23.772 334.76 23.772C333.337 23.772 332.269 24.7595 332.269 27.0329C332.269 29.3064 333.237 30.2655 334.696 30.2655C336.155 30.2655 337.044 29.4272 337.044 26.9548" fill="#662D91"/>
<path d="M346.651 24.9584L346.502 24.0135C346.502 23.8501 346.445 23.7933 346.296 23.7364C345.963 23.6261 345.613 23.5779 345.264 23.5943C344.239 23.5943 343.84 24.0135 343.84 24.5961C343.84 26.3935 348.936 25.1573 348.936 28.937C348.936 31.317 346.993 32.34 344.623 32.34C343.396 32.3363 342.177 32.1324 341.015 31.7361V28.8943H342.944L343.164 29.9245C343.214 30.2016 343.235 30.2371 343.47 30.3081C343.864 30.4035 344.268 30.4465 344.673 30.436C345.84 30.436 346.31 29.9671 346.31 29.349C346.31 27.4734 341.193 28.8162 341.193 25.0863C341.193 22.8484 342.979 21.7188 345.349 21.7188C346.471 21.7208 347.583 21.9378 348.623 22.3582V25.1005L346.651 24.9584Z" fill="#662D91"/>
<path d="M256.058 42.2656C256.725 42.2656 257.378 42.4631 257.932 42.8332C258.487 43.2032 258.919 43.7291 259.175 44.3445C259.43 44.9598 259.497 45.6369 259.367 46.2902C259.237 46.9434 258.915 47.5434 258.444 48.0144C257.972 48.4854 257.371 48.8061 256.716 48.936C256.062 49.066 255.384 48.9993 254.767 48.7444C254.151 48.4895 253.624 48.0579 253.254 47.5041C252.883 46.9503 252.685 46.2992 252.685 45.6332C252.685 44.74 253.04 43.8835 253.673 43.252C254.306 42.6204 255.164 42.2656 256.058 42.2656" fill="#662D91"/>
<path d="M235.869 0C237.054 8.34624e-07 238.213 0.35102 239.198 1.00865C240.184 1.66628 240.952 2.60096 241.405 3.69444C241.859 4.78793 241.977 5.99108 241.745 7.15167C241.513 8.31226 240.942 9.37814 240.103 10.2145C239.264 11.0508 238.196 11.6199 237.033 11.85C235.87 12.08 234.665 11.9605 233.571 11.5066C232.476 11.0528 231.54 10.285 230.883 9.30028C230.225 8.31561 229.875 7.15835 229.876 5.97492C229.878 4.38962 230.51 2.86989 231.634 1.74958C232.758 0.62927 234.281 -1.11804e-06 235.869 0" fill="#662D91"/>
<path d="M229.35 20.6029C230.046 21.2989 230.519 22.185 230.71 23.1494C230.902 24.1138 230.803 25.1132 230.425 26.0213C230.048 26.9295 229.409 27.7055 228.59 28.2515C227.771 28.7975 226.809 29.0889 225.824 29.0889C224.839 29.0889 223.876 28.7975 223.057 28.2515C222.238 27.7055 221.6 26.9295 221.222 26.0213C220.845 25.1132 220.746 24.1138 220.937 23.1494C221.129 22.185 221.602 21.2989 222.298 20.6029C222.76 20.14 223.31 19.7727 223.915 19.5222C224.52 19.2716 225.169 19.1426 225.824 19.1426C226.479 19.1426 227.128 19.2716 227.733 19.5222C228.338 19.7727 228.887 20.14 229.35 20.6029Z" fill="#662D91"/>
<path d="M219.828 8.98047C220.261 8.98047 220.683 9.10857 221.043 9.34855C221.402 9.58853 221.682 9.92959 221.847 10.3285C222.013 10.7275 222.055 11.1664 221.971 11.5897C221.886 12.013 221.677 12.4016 221.371 12.7063C221.064 13.0111 220.674 13.2183 220.25 13.3016C219.826 13.385 219.386 13.3408 218.987 13.1746C218.588 13.0084 218.248 12.7278 218.008 12.3681C217.769 12.0085 217.642 11.5861 217.644 11.1545C217.645 10.5772 217.876 10.0243 218.286 9.61678C218.696 9.20928 219.25 8.98047 219.828 8.98047" fill="#662D91"/>
<path d="M215.444 32.3262C216.126 32.3262 216.792 32.5278 217.358 32.9057C217.924 33.2835 218.366 33.8206 218.627 34.4489C218.887 35.0772 218.956 35.7686 218.823 36.4356C218.69 37.1026 218.362 37.7153 217.88 38.1962C217.398 38.6771 216.785 39.0046 216.116 39.1373C215.448 39.27 214.756 39.2019 214.126 38.9416C213.497 38.6814 212.959 38.2406 212.58 37.6752C212.202 37.1097 212 36.4449 212 35.7648C211.999 35.313 212.088 34.8654 212.26 34.4478C212.433 34.0302 212.687 33.6507 213.007 33.3312C213.327 33.0117 213.707 32.7585 214.125 32.586C214.543 32.4135 214.992 32.3252 215.444 32.3262" fill="#662D91"/>
<path d="M243.605 22.9548C245.047 22.9554 246.473 23.2625 247.787 23.8557C249.101 24.4489 250.274 25.3146 251.227 26.3952C252.18 27.4759 252.892 28.7467 253.315 30.1232C253.739 31.4997 253.863 32.9504 253.682 34.3788C255.808 33.7834 257.725 32.607 259.218 30.9822C260.71 29.3574 261.718 27.3487 262.129 25.1826C262.539 23.0165 262.335 20.779 261.541 18.7223C260.746 16.6655 259.391 14.8712 257.63 13.5416C255.869 12.212 253.77 11.3999 251.571 11.1968C249.373 10.9937 247.161 11.4077 245.185 12.3922C243.209 13.3766 241.548 14.8923 240.388 16.7686C239.229 18.6449 238.618 20.8071 238.623 23.0116C238.625 23.4199 238.649 23.8278 238.694 24.2336C240.198 23.4048 241.887 22.9698 243.605 22.969V22.969" fill="#662D91"/>
<path d="M250.479 35.4448C247.557 35.4564 244.725 34.4379 242.482 32.5689C240.239 30.6999 238.728 28.1004 238.217 25.2285C237.727 25.5671 237.268 25.9475 236.844 26.3652C235.798 27.4114 235.011 28.6859 234.543 30.088C234.076 31.4902 233.941 32.9816 234.15 34.4445C234.359 35.9075 234.906 37.3019 235.747 38.5178C236.589 39.7336 237.702 40.7376 238.998 41.4504C240.295 42.1632 241.74 42.5654 243.219 42.6252C244.698 42.685 246.17 42.4007 247.52 41.7949C248.871 41.1891 250.061 40.2782 250.998 39.1343C251.935 37.9903 252.593 36.6446 252.92 35.2033C252.116 35.3631 251.298 35.444 250.479 35.4448" fill="#662D91"/>
<path d="M250.358 26.3649C251.42 27.421 252.217 28.7132 252.684 30.1356C253.15 31.5581 253.272 33.0706 253.041 34.5494C252.2 34.7361 251.341 34.8291 250.479 34.8264C247.66 34.828 244.932 33.8259 242.787 32.0003C240.641 30.1746 239.218 27.645 238.772 24.8659C240.597 23.8018 242.724 23.3711 244.82 23.641C246.916 23.9109 248.863 24.8662 250.358 26.3578" fill="#662D91"/>
</g>
<defs>
<clipPath id="clip0_104_11395">
<rect width="166" height="53" fill="white" transform="translate(0 3)"/>
</clipPath>
<clipPath id="clip1_104_11395">
<rect width="137" height="49" fill="white" transform="translate(212)"/>
</clipPath>
</defs>
</svg>
