<svg width="102" height="79" viewBox="0 0 102 79" fill="none" xmlns="http://www.w3.org/2000/svg">
<path d="M101.702 70.9464C101.277 69.7098 100.413 68.6754 99.2768 68.0431C98.1402 67.4107 96.8115 67.2251 95.5471 67.5221C94.0777 67.8743 92.5863 68.1264 91.0833 68.2766C80.5252 69.3213 71.946 64.5009 67.4973 58.8863C64.5062 55.1106 62.9183 49.7862 62.9516 45.5493C63.0819 31.8029 68.7094 18.1605 68.7094 14.1832C68.7094 7.59715 65.0487 5.57185 62.6091 4.408C60.1696 3.24414 59.3757 1.58541 55.9422 1.58541C52.5087 1.58541 50.2722 9.03899 45.678 19.0983C41.0838 29.1575 36.5594 37.1213 36.5594 37.1213C36.5594 37.1213 38.5716 14.5436 38.5716 8.89847C38.5534 4.18805 33.0319 1.01112 29.0742 1.01112C29.0742 1.01112 27.5589 0 24.2648 0C20.9707 0 10.7702 36.9074 2.65771 48.1947C1.72433 49.4991 0 50.5835 0 51.7413C0 54.4203 5.66998 57.6033 8.75801 57.6033C11.846 57.6033 16.3644 45.6623 20.0283 35.7497C23.5466 26.28 24.8406 20.9128 24.9831 20.476C24.9103 21.1999 23.8345 41.8256 23.8345 47.6876C23.8345 53.6932 29.4348 54.4875 29.4348 54.4875C29.4348 54.4875 32.5198 55.7094 34.9623 55.7094C37.4049 55.7094 43.1446 44.9261 47.3114 34.5064C49.5934 28.7654 52.1666 23.1464 55.0209 17.6717C54.1269 20.476 52.2359 30.5872 51.7692 40.1577C51.5645 42.8207 51.5706 45.496 51.7874 48.1581C52.5117 57.5911 55.9088 63.1966 59.312 66.792C67.3336 75.2384 76.428 78.4 87.7104 78.9896C89.2088 79.0292 90.708 78.9557 92.1955 78.7696C94.0941 78.5833 95.9809 78.2906 97.8473 77.8929C98.5774 77.7336 99.2655 77.4196 99.866 76.9717C100.467 76.5237 100.966 75.9522 101.33 75.2949C101.695 74.6376 101.916 73.9097 101.981 73.1595C102.045 72.4092 101.95 71.6538 101.702 70.9434V70.9464Z" fill="#FF92E8"/>
</svg>
