<svg width="370" height="355" viewBox="0 0 370 355" fill="none" xmlns="http://www.w3.org/2000/svg">
<g filter="url(#filter0_d_93_7673)">
<mask id="mask0_93_7673" style="mask-type:alpha" maskUnits="userSpaceOnUse" x="6" y="0" width="358" height="342">
<rect x="6" width="358" height="342" rx="23" fill="#D9D9D9"/>
</mask>
<g mask="url(#mask0_93_7673)">
<rect x="6" width="358" height="342" rx="23" fill="#29ABE2"/>
<path d="M232.538 119.531C232.538 119.531 244.013 112.309 244.013 125.726C244.013 139.142 236.691 140.176 232.538 137.054C228.386 133.931 232.538 119.531 232.538 119.531Z" fill="#C1272D"/>
<path fill-rule="evenodd" clip-rule="evenodd" d="M241.593 144.676C241.593 139.82 239.463 136.003 236.886 134.487L238.856 131.137C242.944 133.54 245.48 138.863 245.48 144.676C245.48 148.592 244.339 152.218 242.397 154.914C240.456 157.607 237.605 159.492 234.261 159.492C230.916 159.492 228.065 157.607 226.125 154.914C224.182 152.218 223.041 148.592 223.041 144.676L223.041 144.675C223.042 143.469 223.153 142.266 223.374 141.081L227.195 141.792C227.018 142.743 226.928 143.709 226.928 144.676M226.928 144.677C226.928 147.869 227.863 150.678 229.278 152.642C230.695 154.608 232.482 155.605 234.261 155.605C236.039 155.605 237.826 154.608 239.243 152.642C240.658 150.678 241.593 147.868 241.593 144.676" fill="#FDCE34"/>
<path d="M165.169 119.531C165.169 119.531 154.104 112.309 154.104 125.726C154.104 139.142 161.165 140.176 165.169 137.054C169.173 133.931 165.169 119.531 165.169 119.531Z" fill="#C1272D"/>
<path fill-rule="evenodd" clip-rule="evenodd" d="M152.161 144.676C152.161 138.863 154.698 133.54 158.785 131.137L160.755 134.487C158.178 136.003 156.048 139.82 156.048 144.676C156.048 147.868 156.983 150.678 158.398 152.642C159.815 154.608 161.602 155.605 163.381 155.605C165.159 155.605 166.946 154.608 168.363 152.642C169.778 150.678 170.713 147.869 170.714 144.677C170.713 143.709 170.624 142.743 170.447 141.792L174.268 141.081C174.488 142.266 174.6 143.469 174.6 144.675V144.676C174.6 148.592 173.459 152.218 171.517 154.914C169.576 157.607 166.725 159.492 163.381 159.492C160.036 159.492 157.185 157.607 155.245 154.914C153.302 152.218 152.161 148.592 152.161 144.676Z" fill="#FDCE34"/>
<path d="M190.433 176.747L181.22 199.409H215.946L209.568 174.197L191.623 176.697L190.433 176.747Z" fill="#C1272D"/>
<path d="M210.238 176.901C210.238 176.901 208.774 181.333 200.448 181.333C192.122 181.333 190.734 176.604 190.734 176.604C190.734 176.604 208.926 173.139 210.238 176.901Z" fill="#63151B"/>
<path d="M215.763 79.8193C209.064 77.08 201.606 76.9042 194.788 79.3248C182.864 83.3666 162.982 94.1734 163.634 121.276C164.556 159.924 168.266 173.175 197.016 177.589C225.765 182.004 233.191 149.985 234.114 131.216C234.908 115.128 236.419 88.4905 215.763 79.8193Z" fill="#C1272D"/>
<path d="M212.014 186.566C212.014 186.566 207.788 196.529 199.087 196.529C190.386 196.529 185.655 188.488 185.655 188.488L124.42 215.742L117 271.957L277.787 272.669L263.772 201.51L212.014 186.566Z" fill="#EF98C0"/>
<path d="M195.997 125.708C196.267 124.859 196.808 124.12 197.539 123.6C198.269 123.079 199.151 122.806 200.052 122.821C200.953 122.836 201.825 123.137 202.538 123.681C203.251 124.225 203.767 124.982 204.009 125.839C204.009 125.904 204.045 125.97 204.06 126.035C205.745 132.688 209.946 148.485 203.214 148.485C196.482 148.485 193.113 149.313 193.113 140.997C193.09 135.789 194.738 129.601 195.997 125.708Z" fill="#EF98C0"/>
<path d="M189.782 123.13C189.782 123.13 187.369 118.305 182.55 119.105C177.731 119.906 176.938 124.724 176.938 124.724" fill="#09231E"/>
<path d="M224.033 125.199C224.033 125.199 223.388 119.553 218.682 118.657C213.976 117.76 211.665 122.272 211.665 122.272" fill="#09231E"/>
<path fill-rule="evenodd" clip-rule="evenodd" d="M177.182 148.203C177.351 148.075 177.592 148.108 177.72 148.277L177.414 148.509C177.72 148.277 177.72 148.277 177.72 148.276L177.72 148.276L177.72 148.276C177.72 148.276 177.72 148.276 177.72 148.277L177.723 148.281C177.727 148.285 177.733 148.293 177.741 148.303C177.758 148.324 177.785 148.357 177.823 148.4C177.898 148.487 178.017 148.619 178.185 148.791C178.522 149.135 179.058 149.639 179.843 150.267C181.413 151.522 183.981 153.273 187.951 155.226C191.853 157.145 196.553 157.347 200.31 157.055C202.183 156.91 203.81 156.642 204.967 156.412C205.546 156.296 206.007 156.19 206.323 156.113C206.48 156.075 206.601 156.044 206.683 156.022C206.724 156.011 206.754 156.003 206.775 155.997L206.797 155.991L206.802 155.99L206.804 155.989L206.804 155.989C206.804 155.989 206.804 155.989 206.804 155.989M177.182 148.203C177.013 148.332 176.98 148.573 177.109 148.741L177.182 148.203ZM177.109 148.741L177.414 148.509L177.109 148.741Z" fill="#110A03"/>
<path d="M283.308 172.444L280.454 197.982H307.569L298.292 170.867L283.308 172.444Z" fill="#EF98C0"/>
<path d="M304.299 187.992C304.299 187.992 300.639 197.954 293.098 197.954C285.557 197.954 281.454 189.906 281.454 189.906L228.375 217.167L221.942 273.383L361.323 274.094L349.172 202.936L304.299 187.992Z" fill="#85C6AB"/>
<path d="M267.134 68.321C267.134 68.321 286.693 28.9536 331.615 58.9016C376.537 88.8496 326.624 192.242 363.702 180.12C363.702 180.12 322.345 200.798 315.215 175.128C308.084 149.459 312.363 121.65 312.363 121.65L267.134 68.321Z" fill="#1E5884"/>
<path d="M301.385 170.718C301.385 170.718 299.885 175.149 291.356 175.149C282.827 175.149 281.405 170.421 281.405 170.421C281.405 170.421 300.041 166.955 301.385 170.718Z" fill="#63151B"/>
<path d="M324.995 80.8565L328.88 126.657C329.149 129.801 328.851 132.968 328 136.007L324.086 149.959C323.026 153.732 321.141 157.224 318.566 160.187C315.991 163.149 312.789 165.508 309.191 167.094L300.348 170.983C297.05 172.434 293.49 173.204 289.885 173.245C286.279 173.287 282.702 172.599 279.371 171.225L272.932 168.554C269.105 166.976 265.7 164.531 262.989 161.412C260.278 158.294 258.335 154.59 257.314 150.593L252.249 130.78C251.165 126.522 251.165 122.062 252.249 117.804L260.269 85.8631C261.521 80.7791 264.266 76.1815 268.154 72.6566C272.041 69.1317 276.895 66.8393 282.097 66.0717C284.703 65.6945 287.347 65.6371 289.967 65.9008C303.532 67.3251 323.564 66.6129 324.995 80.8565Z" fill="#EF98C0"/>
<path d="M294.443 78.7498C294.443 78.7498 296.592 109.293 245.728 115.686C245.728 115.686 247.877 54.5993 291.577 63.8333C294.259 68.3214 295.273 73.5984 294.443 78.7498Z" fill="#1B6AB2"/>
<path d="M283.628 80.222C283.628 80.222 281.084 112.693 341.344 119.492C341.344 119.492 338.799 54.5511 287.026 64.3704C283.885 69.0272 282.669 74.7018 283.628 80.222Z" fill="#1B6AB2"/>
<path d="M293.564 132.811H288.751C286.796 132.811 285.211 134.476 285.211 136.531V137.177C285.211 139.232 286.796 140.897 288.751 140.897H293.564C295.519 140.897 297.103 139.232 297.103 137.177V136.531C297.103 134.476 295.519 132.811 293.564 132.811Z" fill="#FDCE34"/>
<path d="M279.502 122.854C279.502 122.854 276.645 117.234 270.937 118.169C265.23 119.105 264.28 124.724 264.28 124.724" fill="#09231E"/>
<path d="M318.51 125.201C318.51 125.201 317.732 118.752 312.129 117.725C306.526 116.698 303.763 121.855 303.763 121.855" fill="#09231E"/>
<path d="M271.997 144.703C271.997 144.703 289.364 153.929 302.812 148.268C302.812 148.268 299.835 162.176 284.845 160.778C269.855 159.38 271.997 144.703 271.997 144.703Z" fill="#09231E"/>
<path fill-rule="evenodd" clip-rule="evenodd" d="M296.815 138.409C296.48 138.342 296.128 138.355 295.803 138.446L295.628 137.822C296.052 137.703 296.508 137.687 296.943 137.774C297.373 137.861 297.771 138.047 298.087 138.318C298.317 138.49 298.507 138.703 298.641 138.945C298.776 139.191 298.85 139.461 298.854 139.738C298.858 140.014 298.793 140.286 298.664 140.535C298.536 140.784 298.348 141.004 298.119 141.183C297.889 141.362 297.62 141.498 297.329 141.584C297.039 141.671 296.732 141.708 296.425 141.693C296.119 141.679 295.818 141.612 295.54 141.498C295.267 141.385 295.021 141.226 294.818 141.029C294.678 140.91 294.556 140.775 294.456 140.627L294.994 140.266C295.06 140.364 295.143 140.456 295.243 140.54L295.254 140.548L295.263 140.558C295.404 140.697 295.582 140.814 295.788 140.899C295.994 140.984 296.222 141.035 296.456 141.046C296.691 141.058 296.925 141.029 297.144 140.964C297.362 140.898 297.558 140.798 297.721 140.672C297.883 140.545 298.006 140.397 298.088 140.238C298.17 140.08 298.209 139.913 298.207 139.747C298.204 139.582 298.16 139.415 298.073 139.258C297.986 139.1 297.858 138.954 297.691 138.831L297.682 138.823L297.672 138.815C297.447 138.62 297.15 138.477 296.815 138.409Z" fill="#0071BC"/>
<path d="M230.136 42.4102L226.915 38.1384C226.304 37.3266 225.473 36.7048 224.519 36.3458C223.566 35.9867 222.529 35.9053 221.53 36.1109L211.012 38.2635C210.069 38.4565 209.196 38.8978 208.483 39.5411C207.77 40.1845 207.244 41.0063 206.959 41.921C206.675 42.8356 206.643 43.8095 206.866 44.7409C207.089 45.6723 207.559 46.5271 208.227 47.2159L236.335 76.1507C236.875 76.7074 237.53 77.1407 238.255 77.4207C238.98 77.7006 239.758 77.8206 240.534 77.7722C241.31 77.7238 242.066 77.5082 242.751 77.1403C243.435 76.7725 244.03 76.2612 244.496 75.6418L266.212 46.8405C266.775 46.0941 267.132 45.2142 267.247 44.2882C267.362 43.3623 267.232 42.4224 266.869 41.5621C266.506 40.7017 265.923 39.9508 265.178 39.3838C264.433 38.8169 263.552 38.4537 262.622 38.3303L245.671 36.0859C244.33 35.9026 242.968 36.2308 241.861 37.0046C240.753 37.7784 239.98 38.9406 239.698 40.2576C239.492 41.2668 238.997 42.1952 238.273 42.9313C237.549 43.6674 236.626 44.1799 235.617 44.4072C234.607 44.6346 233.552 44.567 232.58 44.2128C231.608 43.8585 230.76 43.2326 230.136 42.4102Z" fill="white"/>
<path d="M68.4325 174.89L65.5774 200.884H92.7007L83.4217 173.285L68.4325 174.89Z" fill="#FDCE34"/>
<path d="M90.1001 189.941C90.1001 189.941 86.4518 199.907 78.9344 199.907C71.417 199.907 67.327 191.863 67.327 191.863L14.413 219.125L8 275.358L146.947 276.07L134.834 204.889L90.1001 189.941Z" fill="#4D71CD"/>
<path d="M87.4664 180.75C87.4664 180.75 85.9334 185.182 77.1967 185.182C68.4599 185.182 67.005 180.452 67.005 180.452C67.005 180.452 86.0896 176.986 87.4664 180.75Z" fill="#63151B"/>
<path d="M23.1586 131.544C24.255 125.817 21.7347 120.634 17.4631 115.672C9.95924 107.01 9.91651 103.588 17.3634 95.1469C22.1334 89.7417 23.7068 83.9785 23.1871 76.8694C22.3755 65.6652 24.0343 63.3527 34.9127 60.8542C41.911 59.2505 46.6241 55.7711 50.2407 49.564C55.6871 40.257 58.6274 39.2619 68.3952 43.314C75.1443 46.1205 81.2599 46.4999 88.187 43.5217C98.4603 39.1116 101.493 40.0852 107.004 49.65C110.962 56.5228 116.622 59.6156 123.855 61.4341C133.182 63.7751 135.36 66.7104 134.143 76.2179C133.189 83.6993 135.111 89.5412 140.009 95.1684C147.335 103.58 147.314 106.838 140.201 115.1C135.396 120.684 133.16 126.447 134.207 134.022C135.517 143.565 132.847 147.323 123.428 149.292C115.547 150.939 110.065 154.862 106.441 162.021C102.817 169.181 97.0791 171.328 89.8957 167.706C82.2352 163.876 74.945 163.811 67.2489 167.706C60.5069 171.164 54.6975 169.617 51.2446 162.594C47.4286 154.841 41.4839 150.824 33.0617 149.092C24.0129 147.245 22.8026 144.431 23.1586 131.544Z" fill="#F15A24"/>
<path d="M125.365 126.273C125.365 126.273 130.713 182.803 81.231 182.803C31.7486 182.803 31.7557 147.82 33.0963 118.199C34.437 88.5776 40.9343 65.4889 79.1385 58.8707C117.343 52.2526 125.365 91.2763 125.365 126.273Z" fill="#FDCE34"/>
<path d="M66.5292 120.974C66.5292 120.974 63.8496 115.353 58.4972 116.289C53.1447 117.224 52.2538 122.845 52.2538 122.845" fill="#09231E"/>
<path d="M106.5 123.323C106.5 123.323 105.697 116.871 99.911 115.844C94.1253 114.817 91.273 119.975 91.273 119.975" fill="#09231E"/>
<path d="M77.9304 119.984C76.8354 120.653 75.9011 121.558 75.1946 122.634C74.4881 123.709 74.0268 124.929 73.844 126.205C72.8522 132.163 70.0313 137.659 65.7777 141.919C57.1792 150.633 77.4905 155.855 80.9739 150.912C84.1522 146.412 89.6788 113.049 77.9304 119.984Z" fill="#F7931E"/>
<path d="M80.8045 164.422C80.8045 164.422 69.4812 167.728 61.3639 163.592C53.2465 159.455 50.8262 156.156 50.8262 156.156" stroke="#110A03" stroke-width="2.37142" stroke-miterlimit="10" stroke-linecap="round"/>
<path d="M55.8223 135.217C64.6263 135.217 71.7632 127.973 71.7632 119.038C71.7632 110.103 64.6263 102.859 55.8223 102.859C47.0184 102.859 39.8815 110.103 39.8815 119.038C39.8815 127.973 47.0184 135.217 55.8223 135.217Z" stroke="white" stroke-width="2.07413" stroke-miterlimit="10"/>
<path d="M103.645 135.217C112.581 135.217 119.824 127.973 119.824 119.038C119.824 110.103 112.581 102.859 103.645 102.859C94.7099 102.859 87.4664 110.103 87.4664 119.038C87.4664 127.973 94.7099 135.217 103.645 135.217Z" stroke="white" stroke-width="2.07413" stroke-miterlimit="10"/>
<path d="M87.4663 116.26C87.4663 116.26 83.9517 111.776 78.9119 111.903C73.872 112.03 71.7633 117.135 71.7633 117.135" stroke="white" stroke-width="2.07413" stroke-miterlimit="10"/>
</g>
<path d="M6 270H364V319C364 331.703 353.703 342 341 342H29C16.2975 342 6 331.703 6 319V270Z" fill="white"/>
<path d="M61.0766 303C60.1899 303 59.4399 302.83 58.8266 302.49C58.2199 302.157 57.7566 301.703 57.4366 301.13C57.1232 300.563 56.9666 299.923 56.9666 299.21C56.9666 298.663 57.0566 298.197 57.2366 297.81C57.4166 297.417 57.6466 297.07 57.9266 296.77C58.2066 296.47 58.4999 296.183 58.8066 295.91C59.1199 295.637 59.4132 295.353 59.6866 295.06C59.9599 294.767 60.1832 294.43 60.3566 294.05C60.5366 293.67 60.6266 293.217 60.6266 292.69V292.2H62.0466V292.71C62.0466 293.377 61.9432 293.94 61.7366 294.4C61.5366 294.853 61.2799 295.243 60.9666 295.57C60.6532 295.897 60.3332 296.203 60.0066 296.49C59.5799 296.85 59.2032 297.23 58.8766 297.63C58.5499 298.03 58.3866 298.557 58.3866 299.21C58.3866 299.917 58.6166 300.507 59.0766 300.98C59.5432 301.453 60.2099 301.69 61.0766 301.69C62.0366 301.69 62.7799 301.417 63.3066 300.87C63.8332 300.33 64.0966 299.61 64.0966 298.71H65.5066C65.5066 299.563 65.3199 300.31 64.9466 300.95C64.5799 301.597 64.0632 302.1 63.3966 302.46C62.7299 302.82 61.9566 303 61.0766 303ZM61.3666 290.75C61.0399 290.75 60.7699 290.643 60.5566 290.43C60.3499 290.21 60.2466 289.95 60.2466 289.65C60.2466 289.357 60.3499 289.1 60.5566 288.88C60.7699 288.653 61.0399 288.54 61.3666 288.54C61.6732 288.54 61.9399 288.653 62.1666 288.88C62.3932 289.1 62.5066 289.357 62.5066 289.65C62.5066 289.95 62.3932 290.21 62.1666 290.43C61.9399 290.643 61.6732 290.75 61.3666 290.75ZM77.0378 300.26L75.9178 298.59C75.5445 298.797 75.1378 298.957 74.6978 299.07C74.2645 299.183 73.7845 299.24 73.2578 299.24C72.1911 299.24 71.2878 299.03 70.5478 298.61C69.8145 298.183 69.2211 297.62 68.7678 296.92C68.3211 296.213 67.9945 295.433 67.7878 294.58C67.5811 293.727 67.4778 292.867 67.4778 292C67.4778 291.133 67.5811 290.273 67.7878 289.42C67.9945 288.567 68.3211 287.79 68.7678 287.09C69.2211 286.383 69.8145 285.82 70.5478 285.4C71.2878 284.973 72.1911 284.76 73.2578 284.76C74.3311 284.76 75.2378 284.973 75.9778 285.4C76.7178 285.82 77.3111 286.383 77.7578 287.09C78.2045 287.79 78.5278 288.567 78.7278 289.42C78.9345 290.273 79.0378 291.133 79.0378 292C79.0378 292.727 78.9678 293.453 78.8278 294.18C78.6945 294.9 78.4745 295.58 78.1678 296.22C77.8611 296.853 77.4545 297.407 76.9478 297.88L78.0678 299.53L77.0378 300.26ZM73.2578 297.91C73.6245 297.91 73.9611 297.87 74.2678 297.79C74.5811 297.703 74.8645 297.583 75.1178 297.43L74.0478 295.82L75.1078 295.09L76.1378 296.64C76.6578 296.053 77.0278 295.34 77.2478 294.5C77.4678 293.653 77.5778 292.82 77.5778 292C77.5778 291.267 77.5011 290.55 77.3478 289.85C77.2011 289.143 76.9578 288.507 76.6178 287.94C76.2845 287.373 75.8411 286.923 75.2878 286.59C74.7411 286.25 74.0645 286.08 73.2578 286.08C72.4578 286.08 71.7811 286.26 71.2278 286.62C70.6811 286.973 70.2378 287.443 69.8978 288.03C69.5645 288.61 69.3211 289.25 69.1678 289.95C69.0145 290.643 68.9378 291.327 68.9378 292C68.9378 292.733 69.0145 293.453 69.1678 294.16C69.3211 294.86 69.5645 295.493 69.8978 296.06C70.2378 296.62 70.6811 297.07 71.2278 297.41C71.7811 297.743 72.4578 297.91 73.2578 297.91ZM86.2895 299.24C85.0829 299.24 84.1829 298.873 83.5895 298.14C83.0029 297.407 82.7095 296.29 82.7095 294.79V288.78H84.1095V295.02C84.1095 295.98 84.3095 296.707 84.7095 297.2C85.1095 297.693 85.6895 297.94 86.4495 297.94C87.2962 297.94 87.9329 297.683 88.3595 297.17C88.7929 296.65 89.0095 295.89 89.0095 294.89V288.78H90.4095V299H89.0095V297.77C88.7029 298.263 88.3229 298.633 87.8695 298.88C87.4229 299.12 86.8962 299.24 86.2895 299.24ZM98.1828 299.24C97.2761 299.24 96.4928 299.017 95.8328 298.57C95.1795 298.117 94.6761 297.487 94.3228 296.68C93.9695 295.873 93.7928 294.94 93.7928 293.88C93.7928 292.753 93.9761 291.793 94.3428 291C94.7161 290.2 95.2328 289.59 95.8928 289.17C96.5528 288.75 97.3161 288.54 98.1828 288.54C98.9361 288.54 99.6195 288.717 100.233 289.07C100.846 289.423 101.333 289.97 101.693 290.71C102.053 291.45 102.233 292.4 102.233 293.56C102.233 293.68 102.229 293.817 102.223 293.97C102.216 294.117 102.206 294.27 102.193 294.43H95.2428C95.2961 295.137 95.4395 295.757 95.6728 296.29C95.9128 296.817 96.2428 297.233 96.6628 297.54C97.0895 297.84 97.6128 297.99 98.2328 297.99C98.6528 297.99 99.0561 297.917 99.4428 297.77C99.8295 297.617 100.189 297.383 100.523 297.07L101.343 298.01C100.969 298.363 100.509 298.657 99.9628 298.89C99.4228 299.123 98.8295 299.24 98.1828 299.24ZM95.2228 293.2H100.803C100.803 292.567 100.706 291.99 100.513 291.47C100.326 290.95 100.036 290.537 99.6428 290.23C99.2561 289.923 98.7695 289.77 98.1828 289.77C97.3895 289.77 96.7128 290.043 96.1528 290.59C95.5995 291.137 95.2895 292.007 95.2228 293.2ZM97.1628 287.48L100.063 284.36H102.083L98.5828 287.48H97.1628ZM114.437 299.24C113.53 299.24 112.747 299.017 112.087 298.57C111.433 298.117 110.93 297.487 110.577 296.68C110.223 295.873 110.047 294.94 110.047 293.88C110.047 292.753 110.23 291.793 110.597 291C110.97 290.2 111.487 289.59 112.147 289.17C112.807 288.75 113.57 288.54 114.437 288.54C115.19 288.54 115.873 288.717 116.487 289.07C117.1 289.423 117.587 289.97 117.947 290.71C118.307 291.45 118.487 292.4 118.487 293.56C118.487 293.68 118.483 293.817 118.477 293.97C118.47 294.117 118.46 294.27 118.447 294.43H111.497C111.55 295.137 111.693 295.757 111.927 296.29C112.167 296.817 112.497 297.233 112.917 297.54C113.343 297.84 113.867 297.99 114.487 297.99C114.907 297.99 115.31 297.917 115.697 297.77C116.083 297.617 116.443 297.383 116.777 297.07L117.597 298.01C117.223 298.363 116.763 298.657 116.217 298.89C115.677 299.123 115.083 299.24 114.437 299.24ZM111.477 293.2H117.057C117.057 292.567 116.96 291.99 116.767 291.47C116.58 290.95 116.29 290.537 115.897 290.23C115.51 289.923 115.023 289.77 114.437 289.77C113.643 289.77 112.967 290.043 112.407 290.59C111.853 291.137 111.543 292.007 111.477 293.2ZM124.526 299.24C123.846 299.24 123.193 299.093 122.566 298.8C121.939 298.507 121.413 298.1 120.986 297.58L122.006 296.71C122.373 297.11 122.779 297.42 123.226 297.64C123.673 297.86 124.113 297.97 124.546 297.97C125.199 297.97 125.703 297.837 126.056 297.57C126.416 297.303 126.596 296.93 126.596 296.45C126.596 296.15 126.513 295.877 126.346 295.63C126.186 295.383 125.923 295.153 125.556 294.94C125.189 294.72 124.706 294.497 124.106 294.27C123.026 293.87 122.249 293.433 121.776 292.96C121.303 292.48 121.066 291.887 121.066 291.18C121.066 290.393 121.369 289.757 121.976 289.27C122.589 288.783 123.386 288.54 124.366 288.54C125.013 288.54 125.619 288.667 126.186 288.92C126.753 289.167 127.236 289.523 127.636 289.99L126.656 290.81C126.003 290.143 125.233 289.81 124.346 289.81C123.766 289.81 123.306 289.933 122.966 290.18C122.633 290.42 122.466 290.753 122.466 291.18C122.466 291.573 122.639 291.913 122.986 292.2C123.333 292.48 123.966 292.79 124.886 293.13C125.633 293.41 126.233 293.707 126.686 294.02C127.139 294.327 127.466 294.677 127.666 295.07C127.873 295.463 127.976 295.917 127.976 296.43C127.976 297.303 127.669 297.99 127.056 298.49C126.443 298.99 125.599 299.24 124.526 299.24ZM136.602 299V285.23L138.002 284.56V299H136.602ZM145.009 299.24C143.929 299.24 143.083 298.94 142.469 298.34C141.856 297.733 141.549 296.9 141.549 295.84C141.549 295.16 141.699 294.57 141.999 294.07C142.306 293.57 142.736 293.187 143.289 292.92C143.849 292.647 144.509 292.51 145.269 292.51C145.769 292.51 146.246 292.573 146.699 292.7C147.159 292.827 147.603 293.017 148.029 293.27V292.29C148.029 291.423 147.839 290.787 147.459 290.38C147.086 289.973 146.503 289.77 145.709 289.77C145.236 289.77 144.733 289.86 144.199 290.04C143.673 290.213 143.173 290.46 142.699 290.78L142.289 289.6C142.829 289.26 143.413 289 144.039 288.82C144.666 288.633 145.279 288.54 145.879 288.54C147.026 288.54 147.893 288.84 148.479 289.44C149.066 290.04 149.359 290.923 149.359 292.09V299H148.029V297.84C147.623 298.287 147.156 298.633 146.629 298.88C146.109 299.12 145.569 299.24 145.009 299.24ZM145.189 298.01C145.703 298.01 146.203 297.877 146.689 297.61C147.176 297.337 147.623 296.947 148.029 296.44V294.53C147.636 294.277 147.209 294.083 146.749 293.95C146.296 293.81 145.856 293.74 145.429 293.74C144.663 293.74 144.049 293.933 143.589 294.32C143.136 294.7 142.909 295.21 142.909 295.85C142.909 296.51 143.113 297.037 143.519 297.43C143.926 297.817 144.483 298.01 145.189 298.01ZM158.268 299V288.78H159.668V299H158.268ZM158.958 286.73C158.704 286.73 158.488 286.64 158.308 286.46C158.134 286.28 158.048 286.063 158.048 285.81C158.048 285.543 158.134 285.32 158.308 285.14C158.488 284.953 158.704 284.86 158.958 284.86C159.224 284.86 159.444 284.953 159.618 285.14C159.798 285.32 159.888 285.543 159.888 285.81C159.888 286.063 159.798 286.28 159.618 286.46C159.444 286.64 159.224 286.73 158.958 286.73ZM163.767 299V288.78H165.167V290.09C165.453 289.59 165.833 289.207 166.307 288.94C166.787 288.673 167.33 288.54 167.937 288.54C169.13 288.54 170.017 288.91 170.597 289.65C171.177 290.383 171.467 291.5 171.467 293V299H170.067V292.75C170.067 291.797 169.867 291.073 169.467 290.58C169.067 290.08 168.487 289.83 167.727 289.83C166.887 289.83 166.25 290.087 165.817 290.6C165.383 291.113 165.167 291.87 165.167 292.87V299H163.767ZM179.171 299.24C178.331 299.24 177.608 299.027 177.001 298.6C176.394 298.167 175.928 297.553 175.601 296.76C175.281 295.96 175.121 295.007 175.121 293.9C175.121 292.787 175.288 291.83 175.621 291.03C175.954 290.23 176.431 289.617 177.051 289.19C177.671 288.757 178.411 288.54 179.271 288.54C180.091 288.54 180.791 288.74 181.371 289.14C181.958 289.533 182.384 290.1 182.651 290.84L181.321 291.33C181.148 290.857 180.884 290.493 180.531 290.24C180.178 289.987 179.764 289.86 179.291 289.86C178.404 289.86 177.728 290.203 177.261 290.89C176.801 291.577 176.571 292.58 176.571 293.9C176.571 295.167 176.801 296.153 177.261 296.86C177.721 297.56 178.368 297.91 179.201 297.91C179.748 297.91 180.218 297.763 180.611 297.47C181.004 297.177 181.278 296.777 181.431 296.27L182.751 296.71C182.518 297.51 182.084 298.133 181.451 298.58C180.824 299.02 180.064 299.24 179.171 299.24ZM186.145 299V285.23L187.545 284.56V299H186.145ZM195.172 299.24C193.966 299.24 193.066 298.873 192.472 298.14C191.886 297.407 191.592 296.29 191.592 294.79V288.78H192.992V295.02C192.992 295.98 193.192 296.707 193.592 297.2C193.992 297.693 194.572 297.94 195.332 297.94C196.179 297.94 196.816 297.683 197.242 297.17C197.676 296.65 197.892 295.89 197.892 294.89V288.78H199.292V299H197.892V297.77C197.586 298.263 197.206 298.633 196.752 298.88C196.306 299.12 195.779 299.24 195.172 299.24ZM206.284 299.24C205.604 299.24 204.95 299.093 204.324 298.8C203.697 298.507 203.17 298.1 202.744 297.58L203.764 296.71C204.13 297.11 204.537 297.42 204.984 297.64C205.43 297.86 205.87 297.97 206.304 297.97C206.957 297.97 207.46 297.837 207.814 297.57C208.174 297.303 208.354 296.93 208.354 296.45C208.354 296.15 208.27 295.877 208.104 295.63C207.944 295.383 207.68 295.153 207.314 294.94C206.947 294.72 206.464 294.497 205.864 294.27C204.784 293.87 204.007 293.433 203.534 292.96C203.06 292.48 202.824 291.887 202.824 291.18C202.824 290.393 203.127 289.757 203.734 289.27C204.347 288.783 205.144 288.54 206.124 288.54C206.77 288.54 207.377 288.667 207.944 288.92C208.51 289.167 208.994 289.523 209.394 289.99L208.414 290.81C207.76 290.143 206.99 289.81 206.104 289.81C205.524 289.81 205.064 289.933 204.724 290.18C204.39 290.42 204.224 290.753 204.224 291.18C204.224 291.573 204.397 291.913 204.744 292.2C205.09 292.48 205.724 292.79 206.644 293.13C207.39 293.41 207.99 293.707 208.444 294.02C208.897 294.327 209.224 294.677 209.424 295.07C209.63 295.463 209.734 295.917 209.734 296.43C209.734 297.303 209.427 297.99 208.814 298.49C208.2 298.99 207.357 299.24 206.284 299.24ZM213.221 299V288.78H214.621V299H213.221ZM213.911 286.73C213.657 286.73 213.441 286.64 213.261 286.46C213.087 286.28 213.001 286.063 213.001 285.81C213.001 285.543 213.087 285.32 213.261 285.14C213.441 284.953 213.657 284.86 213.911 284.86C214.177 284.86 214.397 284.953 214.571 285.14C214.751 285.32 214.841 285.543 214.841 285.81C214.841 286.063 214.751 286.28 214.571 286.46C214.397 286.64 214.177 286.73 213.911 286.73ZM221.42 299L217.72 288.78H219.13L221.73 296.07C221.783 296.217 221.833 296.36 221.88 296.5C221.926 296.64 221.973 296.793 222.02 296.96C222.066 296.793 222.11 296.64 222.15 296.5C222.196 296.36 222.246 296.217 222.3 296.07L224.88 288.78H226.28L222.57 299H221.42ZM229.396 299V288.78H230.796V299H229.396ZM230.086 286.73C229.833 286.73 229.616 286.64 229.436 286.46C229.263 286.28 229.176 286.063 229.176 285.81C229.176 285.543 229.263 285.32 229.436 285.14C229.616 284.953 229.833 284.86 230.086 284.86C230.353 284.86 230.573 284.953 230.746 285.14C230.926 285.32 231.016 285.543 231.016 285.81C231.016 286.063 230.926 286.28 230.746 286.46C230.573 286.64 230.353 286.73 230.086 286.73ZM238.375 299.24C237.109 299.24 236.105 298.76 235.365 297.8C234.632 296.833 234.265 295.527 234.265 293.88C234.265 292.773 234.432 291.823 234.765 291.03C235.099 290.23 235.575 289.617 236.195 289.19C236.822 288.757 237.565 288.54 238.425 288.54C239.485 288.54 240.382 288.947 241.115 289.76V285.23L242.515 284.56V299H241.115V297.98C240.402 298.82 239.489 299.24 238.375 299.24ZM238.585 297.92C239.085 297.92 239.562 297.777 240.015 297.49C240.469 297.197 240.835 296.8 241.115 296.3V291.4C240.815 290.92 240.439 290.543 239.985 290.27C239.539 289.99 239.072 289.85 238.585 289.85C237.665 289.85 236.952 290.2 236.445 290.9C235.945 291.593 235.695 292.587 235.695 293.88C235.695 294.673 235.819 295.373 236.065 295.98C236.312 296.587 236.652 297.063 237.085 297.41C237.519 297.75 238.019 297.92 238.585 297.92ZM249.447 299.24C248.367 299.24 247.52 298.94 246.907 298.34C246.294 297.733 245.987 296.9 245.987 295.84C245.987 295.16 246.137 294.57 246.437 294.07C246.744 293.57 247.174 293.187 247.727 292.92C248.287 292.647 248.947 292.51 249.707 292.51C250.207 292.51 250.684 292.573 251.137 292.7C251.597 292.827 252.04 293.017 252.467 293.27V292.29C252.467 291.423 252.277 290.787 251.897 290.38C251.524 289.973 250.94 289.77 250.147 289.77C249.674 289.77 249.17 289.86 248.637 290.04C248.11 290.213 247.61 290.46 247.137 290.78L246.727 289.6C247.267 289.26 247.85 289 248.477 288.82C249.104 288.633 249.717 288.54 250.317 288.54C251.464 288.54 252.33 288.84 252.917 289.44C253.504 290.04 253.797 290.923 253.797 292.09V299H252.467V297.84C252.06 298.287 251.594 298.633 251.067 298.88C250.547 299.12 250.007 299.24 249.447 299.24ZM249.627 298.01C250.14 298.01 250.64 297.877 251.127 297.61C251.614 297.337 252.06 296.947 252.467 296.44V294.53C252.074 294.277 251.647 294.083 251.187 293.95C250.734 293.81 250.294 293.74 249.867 293.74C249.1 293.74 248.487 293.933 248.027 294.32C247.574 294.7 247.347 295.21 247.347 295.85C247.347 296.51 247.55 297.037 247.957 297.43C248.364 297.817 248.92 298.01 249.627 298.01ZM261.329 299.24C260.062 299.24 259.059 298.76 258.319 297.8C257.585 296.833 257.219 295.527 257.219 293.88C257.219 292.773 257.385 291.823 257.719 291.03C258.052 290.23 258.529 289.617 259.149 289.19C259.775 288.757 260.519 288.54 261.379 288.54C262.439 288.54 263.335 288.947 264.069 289.76V285.23L265.469 284.56V299H264.069V297.98C263.355 298.82 262.442 299.24 261.329 299.24ZM261.539 297.92C262.039 297.92 262.515 297.777 262.969 297.49C263.422 297.197 263.789 296.8 264.069 296.3V291.4C263.769 290.92 263.392 290.543 262.939 290.27C262.492 289.99 262.025 289.85 261.539 289.85C260.619 289.85 259.905 290.2 259.399 290.9C258.899 291.593 258.649 292.587 258.649 293.88C258.649 294.673 258.772 295.373 259.019 295.98C259.265 296.587 259.605 297.063 260.039 297.41C260.472 297.75 260.972 297.92 261.539 297.92ZM275.849 302.88L277.389 298.75L273.649 288.78H275.049L277.729 296.11C277.796 296.283 277.853 296.447 277.899 296.6C277.953 296.753 278.006 296.92 278.059 297.1C278.113 296.92 278.166 296.753 278.219 296.6C278.273 296.447 278.329 296.283 278.389 296.11L281.099 288.78H282.529L277.259 302.88H275.849ZM294.128 299.24C293.288 299.24 292.565 299.027 291.958 298.6C291.351 298.167 290.885 297.553 290.558 296.76C290.238 295.96 290.078 295.007 290.078 293.9C290.078 292.787 290.245 291.83 290.578 291.03C290.911 290.23 291.388 289.617 292.008 289.19C292.628 288.757 293.368 288.54 294.228 288.54C295.048 288.54 295.748 288.74 296.328 289.14C296.915 289.533 297.341 290.1 297.608 290.84L296.278 291.33C296.105 290.857 295.841 290.493 295.488 290.24C295.135 289.987 294.721 289.86 294.248 289.86C293.361 289.86 292.685 290.203 292.218 290.89C291.758 291.577 291.528 292.58 291.528 293.9C291.528 295.167 291.758 296.153 292.218 296.86C292.678 297.56 293.325 297.91 294.158 297.91C294.705 297.91 295.175 297.763 295.568 297.47C295.961 297.177 296.235 296.777 296.388 296.27L297.708 296.71C297.475 297.51 297.041 298.133 296.408 298.58C295.781 299.02 295.021 299.24 294.128 299.24ZM304.801 299.24C303.455 299.24 302.391 298.763 301.611 297.81C300.831 296.85 300.441 295.547 300.441 293.9C300.441 292.8 300.618 291.85 300.971 291.05C301.325 290.25 301.828 289.633 302.481 289.2C303.135 288.76 303.908 288.54 304.801 288.54C305.701 288.54 306.478 288.757 307.131 289.19C307.785 289.617 308.285 290.23 308.631 291.03C308.985 291.83 309.161 292.78 309.161 293.88C309.161 294.98 308.985 295.933 308.631 296.74C308.278 297.54 307.775 298.157 307.121 298.59C306.468 299.023 305.695 299.24 304.801 299.24ZM304.801 297.92C305.721 297.92 306.438 297.563 306.951 296.85C307.471 296.137 307.731 295.147 307.731 293.88C307.731 292.607 307.471 291.617 306.951 290.91C306.438 290.203 305.721 289.85 304.801 289.85C303.868 289.85 303.145 290.203 302.631 290.91C302.125 291.61 301.871 292.607 301.871 293.9C301.871 295.173 302.128 296.163 302.641 296.87C303.155 297.57 303.875 297.92 304.801 297.92ZM303.781 287.48L306.681 284.36H308.701L305.201 287.48H303.781ZM312.606 299V288.78H314.006V289.98C314.3 289.513 314.683 289.157 315.156 288.91C315.63 288.663 316.16 288.54 316.746 288.54C317.393 288.54 317.956 288.7 318.436 289.02C318.923 289.34 319.283 289.79 319.516 290.37C319.803 289.797 320.21 289.35 320.736 289.03C321.27 288.703 321.863 288.54 322.516 288.54C323.576 288.54 324.42 288.87 325.046 289.53C325.673 290.183 325.986 291.07 325.986 292.19V299H324.586V292.73C324.586 291.783 324.396 291.063 324.016 290.57C323.636 290.077 323.086 289.83 322.366 289.83C321.893 289.83 321.476 289.953 321.116 290.2C320.763 290.447 320.486 290.793 320.286 291.24C320.086 291.68 319.986 292.19 319.986 292.77V299H318.586V292.73C318.586 291.777 318.403 291.057 318.036 290.57C317.67 290.077 317.123 289.83 316.396 289.83C315.656 289.83 315.073 290.093 314.646 290.62C314.22 291.14 314.006 291.853 314.006 292.76V299H312.606ZM333.985 299.24C332.638 299.24 331.575 298.763 330.795 297.81C330.015 296.85 329.625 295.547 329.625 293.9C329.625 292.8 329.802 291.85 330.155 291.05C330.508 290.25 331.012 289.633 331.665 289.2C332.318 288.76 333.092 288.54 333.985 288.54C334.885 288.54 335.662 288.757 336.315 289.19C336.968 289.617 337.468 290.23 337.815 291.03C338.168 291.83 338.345 292.78 338.345 293.88C338.345 294.98 338.168 295.933 337.815 296.74C337.462 297.54 336.958 298.157 336.305 298.59C335.652 299.023 334.878 299.24 333.985 299.24ZM333.985 297.92C334.905 297.92 335.622 297.563 336.135 296.85C336.655 296.137 336.915 295.147 336.915 293.88C336.915 292.607 336.655 291.617 336.135 290.91C335.622 290.203 334.905 289.85 333.985 289.85C333.052 289.85 332.328 290.203 331.815 290.91C331.308 291.61 331.055 292.607 331.055 293.9C331.055 295.173 331.312 296.163 331.825 296.87C332.338 297.57 333.058 297.92 333.985 297.92ZM258.661 324V310.23L260.061 309.56V324H258.661ZM267.938 324.24C266.591 324.24 265.528 323.763 264.748 322.81C263.968 321.85 263.578 320.547 263.578 318.9C263.578 317.8 263.755 316.85 264.108 316.05C264.461 315.25 264.965 314.633 265.618 314.2C266.271 313.76 267.045 313.54 267.938 313.54C268.838 313.54 269.615 313.757 270.268 314.19C270.921 314.617 271.421 315.23 271.768 316.03C272.121 316.83 272.298 317.78 272.298 318.88C272.298 319.98 272.121 320.933 271.768 321.74C271.415 322.54 270.911 323.157 270.258 323.59C269.605 324.023 268.831 324.24 267.938 324.24ZM267.938 322.92C268.858 322.92 269.575 322.563 270.088 321.85C270.608 321.137 270.868 320.147 270.868 318.88C270.868 317.607 270.608 316.617 270.088 315.91C269.575 315.203 268.858 314.85 267.938 314.85C267.005 314.85 266.281 315.203 265.768 315.91C265.261 316.61 265.008 317.607 265.008 318.9C265.008 320.173 265.265 321.163 265.778 321.87C266.291 322.57 267.011 322.92 267.938 322.92ZM278.859 328.26L278.169 327.14C279.096 327.087 279.852 326.953 280.439 326.74C281.026 326.533 281.459 326.237 281.739 325.85C282.019 325.463 282.159 324.973 282.159 324.38V322.77C281.546 323.75 280.619 324.24 279.379 324.24C278.559 324.24 277.842 324.017 277.229 323.57C276.616 323.123 276.139 322.5 275.799 321.7C275.459 320.893 275.289 319.953 275.289 318.88C275.289 317.793 275.459 316.85 275.799 316.05C276.146 315.25 276.629 314.633 277.249 314.2C277.869 313.76 278.602 313.54 279.449 313.54C280.002 313.54 280.519 313.657 280.999 313.89C281.486 314.117 281.872 314.43 282.159 314.83V313.78H283.559V323.97C283.559 324.65 283.462 325.247 283.269 325.76C283.082 326.28 282.792 326.717 282.399 327.07C282.012 327.423 281.522 327.697 280.929 327.89C280.342 328.09 279.652 328.213 278.859 328.26ZM279.629 322.92C280.129 322.92 280.609 322.767 281.069 322.46C281.529 322.147 281.892 321.737 282.159 321.23V316.41C281.899 315.943 281.536 315.567 281.069 315.28C280.609 314.993 280.136 314.85 279.649 314.85C278.702 314.85 277.976 315.197 277.469 315.89C276.969 316.577 276.719 317.573 276.719 318.88C276.719 319.693 276.839 320.403 277.079 321.01C277.326 321.61 277.666 322.08 278.099 322.42C278.539 322.753 279.049 322.92 279.629 322.92ZM287.728 324V313.78H289.128V315.4C289.381 314.8 289.731 314.34 290.178 314.02C290.631 313.7 291.154 313.54 291.748 313.54C292.361 313.54 292.861 313.703 293.248 314.03L293.038 315.36C292.838 315.22 292.618 315.117 292.378 315.05C292.144 314.983 291.891 314.95 291.618 314.95C291.124 314.95 290.691 315.09 290.318 315.37C289.944 315.65 289.651 316.04 289.438 316.54C289.231 317.033 289.128 317.61 289.128 318.27V324H287.728ZM298.431 324.24C297.351 324.24 296.505 323.94 295.891 323.34C295.278 322.733 294.971 321.9 294.971 320.84C294.971 320.16 295.121 319.57 295.421 319.07C295.728 318.57 296.158 318.187 296.711 317.92C297.271 317.647 297.931 317.51 298.691 317.51C299.191 317.51 299.668 317.573 300.121 317.7C300.581 317.827 301.025 318.017 301.451 318.27V317.29C301.451 316.423 301.261 315.787 300.881 315.38C300.508 314.973 299.925 314.77 299.131 314.77C298.658 314.77 298.155 314.86 297.621 315.04C297.095 315.213 296.595 315.46 296.121 315.78L295.711 314.6C296.251 314.26 296.835 314 297.461 313.82C298.088 313.633 298.701 313.54 299.301 313.54C300.448 313.54 301.315 313.84 301.901 314.44C302.488 315.04 302.781 315.923 302.781 317.09V324H301.451V322.84C301.045 323.287 300.578 323.633 300.051 323.88C299.531 324.12 298.991 324.24 298.431 324.24ZM298.611 323.01C299.125 323.01 299.625 322.877 300.111 322.61C300.598 322.337 301.045 321.947 301.451 321.44V319.53C301.058 319.277 300.631 319.083 300.171 318.95C299.718 318.81 299.278 318.74 298.851 318.74C298.085 318.74 297.471 318.933 297.011 319.32C296.558 319.7 296.331 320.21 296.331 320.85C296.331 321.51 296.535 322.037 296.941 322.43C297.348 322.817 297.905 323.01 298.611 323.01ZM306.774 324V313.78H308.174V315.4C308.428 314.8 308.778 314.34 309.224 314.02C309.678 313.7 310.201 313.54 310.794 313.54C311.408 313.54 311.908 313.703 312.294 314.03L312.084 315.36C311.884 315.22 311.664 315.117 311.424 315.05C311.191 314.983 310.938 314.95 310.664 314.95C310.171 314.95 309.738 315.09 309.364 315.37C308.991 315.65 308.698 316.04 308.484 316.54C308.278 317.033 308.174 317.61 308.174 318.27V324H306.774ZM314.942 324V310.23L316.342 309.56V324H314.942ZM323.349 324.24C322.269 324.24 321.423 323.94 320.809 323.34C320.196 322.733 319.889 321.9 319.889 320.84C319.889 320.16 320.039 319.57 320.339 319.07C320.646 318.57 321.076 318.187 321.629 317.92C322.189 317.647 322.849 317.51 323.609 317.51C324.109 317.51 324.586 317.573 325.039 317.7C325.499 317.827 325.943 318.017 326.369 318.27V317.29C326.369 316.423 326.179 315.787 325.799 315.38C325.426 314.973 324.843 314.77 324.049 314.77C323.576 314.77 323.073 314.86 322.539 315.04C322.013 315.213 321.513 315.46 321.039 315.78L320.629 314.6C321.169 314.26 321.753 314 322.379 313.82C323.006 313.633 323.619 313.54 324.219 313.54C325.366 313.54 326.233 313.84 326.819 314.44C327.406 315.04 327.699 315.923 327.699 317.09V324H326.369V322.84C325.963 323.287 325.496 323.633 324.969 323.88C324.449 324.12 323.909 324.24 323.349 324.24ZM323.529 323.01C324.043 323.01 324.543 322.877 325.029 322.61C325.516 322.337 325.963 321.947 326.369 321.44V319.53C325.976 319.277 325.549 319.083 325.089 318.95C324.636 318.81 324.196 318.74 323.769 318.74C323.003 318.74 322.389 318.933 321.929 319.32C321.476 319.7 321.249 320.21 321.249 320.85C321.249 321.51 321.453 322.037 321.859 322.43C322.266 322.817 322.823 323.01 323.529 323.01ZM333.918 320.56V320.04C333.918 319.367 334.018 318.8 334.218 318.34C334.425 317.88 334.685 317.483 334.998 317.15C335.311 316.81 335.631 316.497 335.958 316.21C336.385 315.837 336.758 315.45 337.078 315.05C337.405 314.643 337.568 314.123 337.568 313.49C337.568 312.817 337.335 312.247 336.868 311.78C336.408 311.313 335.745 311.08 334.878 311.08C333.925 311.08 333.185 311.343 332.658 311.87C332.138 312.397 331.878 313.073 331.878 313.9H330.508C330.508 313.1 330.688 312.387 331.048 311.76C331.408 311.133 331.915 310.643 332.568 310.29C333.221 309.937 333.991 309.76 334.878 309.76C335.765 309.76 336.511 309.93 337.118 310.27C337.731 310.603 338.198 311.053 338.518 311.62C338.838 312.18 338.998 312.81 338.998 313.51C338.998 314.077 338.905 314.56 338.718 314.96C338.538 315.36 338.305 315.713 338.018 316.02C337.731 316.32 337.435 316.61 337.128 316.89C336.828 317.157 336.541 317.437 336.268 317.73C335.995 318.017 335.771 318.347 335.598 318.72C335.425 319.093 335.338 319.537 335.338 320.05V320.56H333.918ZM334.598 324.27C334.291 324.27 334.028 324.16 333.808 323.94C333.595 323.72 333.488 323.463 333.488 323.17C333.488 322.87 333.595 322.607 333.808 322.38C334.028 322.153 334.291 322.04 334.598 322.04C334.918 322.04 335.185 322.153 335.398 322.38C335.618 322.607 335.728 322.87 335.728 323.17C335.728 323.463 335.618 323.72 335.398 323.94C335.185 324.16 334.918 324.27 334.598 324.27Z" fill="#009245"/>
</g>
<defs>
<filter id="filter0_d_93_7673" x="0" y="0" width="370" height="355" filterUnits="userSpaceOnUse" color-interpolation-filters="sRGB">
<feFlood flood-opacity="0" result="BackgroundImageFix"/>
<feColorMatrix in="SourceAlpha" type="matrix" values="0 0 0 0 0 0 0 0 0 0 0 0 0 0 0 0 0 0 127 0" result="hardAlpha"/>
<feMorphology radius="3" operator="erode" in="SourceAlpha" result="effect1_dropShadow_93_7673"/>
<feOffset dy="7"/>
<feGaussianBlur stdDeviation="4.5"/>
<feComposite in2="hardAlpha" operator="out"/>
<feColorMatrix type="matrix" values="0 0 0 0 1 0 0 0 0 0.572549 0 0 0 0 0.909804 0 0 0 0.15 0"/>
<feBlend mode="normal" in2="BackgroundImageFix" result="effect1_dropShadow_93_7673"/>
<feBlend mode="normal" in="SourceGraphic" in2="effect1_dropShadow_93_7673" result="shape"/>
</filter>
</defs>
</svg>
