<svg width="39" height="39" viewBox="0 0 39 39" fill="none" xmlns="http://www.w3.org/2000/svg">
<circle cx="19.1104" cy="19.1104" r="19.1104" fill="#304F9D"/>
<path d="M19.3978 13.2177C15.9761 13.2177 13.2146 15.9792 13.2146 19.4009C13.2146 22.8226 15.9761 25.584 19.3978 25.584C22.8195 25.584 25.581 22.8226 25.581 19.4009C25.581 15.9792 22.8195 13.2177 19.3978 13.2177ZM19.3978 23.4195C17.185 23.4195 15.3792 21.6137 15.3792 19.4009C15.3792 17.1881 17.185 15.3823 19.3978 15.3823C21.6106 15.3823 23.4164 17.1881 23.4164 19.4009C23.4164 21.6137 21.6106 23.4195 19.3978 23.4195ZM25.8342 11.5234C25.0353 11.5234 24.3902 12.1686 24.3902 12.9675C24.3902 13.7664 25.0353 14.4115 25.8342 14.4115C26.6331 14.4115 27.2783 13.7694 27.2783 12.9675C27.2785 12.7778 27.2413 12.5899 27.1688 12.4146C27.0963 12.2393 26.99 12.08 26.8558 11.9458C26.7217 11.8117 26.5624 11.7053 26.3871 11.6329C26.2118 11.5604 26.0239 11.5232 25.8342 11.5234ZM31.4506 19.4009C31.4506 17.7367 31.4657 16.0877 31.3722 14.4266C31.2788 12.4972 30.8386 10.7848 29.4277 9.37393C28.0138 7.96003 26.3045 7.52289 24.3751 7.42944C22.711 7.33598 21.0619 7.35106 19.4008 7.35106C17.7367 7.35106 16.0876 7.33598 14.4265 7.42944C12.4971 7.52289 10.7848 7.96304 9.37387 9.37393C7.95997 10.7878 7.52283 12.4972 7.42938 14.4266C7.33592 16.0907 7.35099 17.7398 7.35099 19.4009C7.35099 21.062 7.33592 22.714 7.42938 24.3751C7.52283 26.3046 7.96298 28.0169 9.37387 29.4278C10.7878 30.8417 12.4971 31.2788 14.4265 31.3723C16.0906 31.4657 17.7397 31.4507 19.4008 31.4507C21.0649 31.4507 22.714 31.4657 24.3751 31.3723C26.3045 31.2788 28.0169 30.8387 29.4277 29.4278C30.8416 28.0139 31.2788 26.3046 31.3722 24.3751C31.4687 22.714 31.4506 21.065 31.4506 19.4009ZM28.7977 26.5096C28.5776 27.0582 28.3123 27.4682 27.8872 27.8903C27.4621 28.3154 27.0552 28.5807 26.5065 28.8007C24.9207 29.4308 21.1554 29.2891 19.3978 29.2891C17.6402 29.2891 13.8718 29.4308 12.2861 28.8038C11.7374 28.5837 11.3274 28.3184 10.9053 27.8933C10.4803 27.4682 10.215 27.0613 9.9949 26.5126C9.36784 24.9238 9.50953 21.1584 9.50953 19.4009C9.50953 17.6433 9.36784 13.8749 9.9949 12.2892C10.215 11.7405 10.4803 11.3305 10.9053 10.9084C11.3304 10.4864 11.7374 10.218 12.2861 9.99797C13.8718 9.37091 17.6402 9.5126 19.3978 9.5126C21.1554 9.5126 24.9238 9.37091 26.5095 9.99797C27.0582 10.218 27.4682 10.4833 27.8902 10.9084C28.3153 11.3335 28.5806 11.7405 28.8007 12.2892C29.4277 13.8749 29.286 17.6433 29.286 19.4009C29.286 21.1584 29.4277 24.9238 28.7977 26.5096Z" fill="#FCF9F5"/>
</svg>
