<svg width="370" height="355" viewBox="0 0 370 355" fill="none" xmlns="http://www.w3.org/2000/svg">
<g filter="url(#filter0_d_250_17254)">
<mask id="mask0_250_17254" style="mask-type:alpha" maskUnits="userSpaceOnUse" x="6" y="0" width="358" height="342">
<rect x="6" width="358" height="342" rx="23" fill="#D9D9D9"/>
</mask>
<g mask="url(#mask0_250_17254)">
<rect x="6" width="358" height="342" rx="23" fill="#FFDAF7"/>
<path d="M346.083 270.001H195.228C194.189 270.001 193.193 269.588 192.459 268.855C191.724 268.121 191.311 267.125 191.311 266.087V82.439C191.311 81.4011 191.724 80.4056 192.459 79.6717C193.193 78.9377 194.189 78.5254 195.228 78.5254H328.772C329.811 78.5254 330.807 78.9377 331.542 79.6717C332.276 80.4056 332.689 81.4011 332.689 82.439L350 266.087C350 267.125 349.587 268.121 348.853 268.855C348.118 269.588 347.122 270.001 346.083 270.001Z" fill="#FBB03B"/>
<path d="M331.639 116.559H213.607V121.804H331.639V116.559Z" fill="#FCF9F5"/>
<path d="M331.639 141.477H213.607V146.722H331.639V141.477Z" fill="#FCF9F5"/>
<path d="M331.639 165.082H213.607V170.328H331.639V165.082Z" fill="#FCF9F5"/>
<path d="M276.557 192.625H213.607V196.559H276.557V192.625Z" fill="#FCF9F5"/>
<path d="M283.736 241.147H154.583C153.543 241.147 152.546 240.735 151.81 240.001C151.074 239.268 150.659 238.272 150.656 237.233V53.5855C150.659 52.5465 151.074 51.5511 151.81 50.8175C152.546 50.0839 153.543 49.6719 154.583 49.6719H305.428C306.467 49.6719 307.463 50.0842 308.197 50.8181C308.932 51.5521 309.344 52.5475 309.344 53.5855L287.707 237.233C287.707 237.752 287.604 238.265 287.404 238.744C287.203 239.222 286.91 239.656 286.541 240.02C286.171 240.384 285.733 240.671 285.252 240.865C284.77 241.058 284.255 241.154 283.736 241.147Z" fill="#662D91"/>
<path d="M290.984 87.7051H172.951V92.951H290.984V87.7051Z" fill="#FCF9F5"/>
<path d="M290.984 112.625H172.951V117.871H290.984V112.625Z" fill="#FCF9F5"/>
<path d="M290.984 136.23H172.951V141.476H290.984V136.23Z" fill="#FCF9F5"/>
<path d="M235.902 163.771H172.951V167.706H235.902V163.771Z" fill="#FCF9F5"/>
<path d="M264.761 212.296H129.063C128.024 212.296 127.028 211.883 126.293 211.15C125.559 210.416 125.146 209.42 125.146 208.382L110 24.7445C110 23.7056 110.412 22.7091 111.146 21.9735C111.881 21.2379 112.877 20.8232 113.916 20.8203H264.761C265.802 20.8232 266.799 21.2375 267.535 21.9728C268.271 22.7082 268.686 23.7046 268.689 24.7445V208.393C268.683 209.43 268.266 210.423 267.531 211.154C266.795 211.885 265.799 212.296 264.761 212.296Z" fill="#C1272D"/>
<path d="M249.016 58.8535H132.295V64.0994H249.016V58.8535Z" fill="#FCF9F5"/>
<path d="M249.016 83.7715H132.295V89.0174H249.016V83.7715Z" fill="#FCF9F5"/>
<path d="M249.016 107.377H132.295V112.623H249.016V107.377Z" fill="#FCF9F5"/>
<path d="M195.246 134.918H132.295V138.852H195.246V134.918Z" fill="#FCF9F5"/>
</g>
<path d="M6 270H364V319C364 331.703 353.703 342 341 342H29C16.2975 342 6 331.703 6 319V270Z" fill="white"/>
<path d="M95.165 311V297H96.565V309.66H103.465V311H95.165ZM110.191 311.24C109.284 311.24 108.501 311.017 107.841 310.57C107.187 310.117 106.684 309.487 106.331 308.68C105.977 307.873 105.801 306.94 105.801 305.88C105.801 304.753 105.984 303.793 106.351 303C106.724 302.2 107.241 301.59 107.901 301.17C108.561 300.75 109.324 300.54 110.191 300.54C110.944 300.54 111.627 300.717 112.241 301.07C112.854 301.423 113.341 301.97 113.701 302.71C114.061 303.45 114.241 304.4 114.241 305.56C114.241 305.68 114.237 305.817 114.231 305.97C114.224 306.117 114.214 306.27 114.201 306.43H107.251C107.304 307.137 107.447 307.757 107.681 308.29C107.921 308.817 108.251 309.233 108.671 309.54C109.097 309.84 109.621 309.99 110.241 309.99C110.661 309.99 111.064 309.917 111.451 309.77C111.837 309.617 112.197 309.383 112.531 309.07L113.351 310.01C112.977 310.363 112.517 310.657 111.971 310.89C111.431 311.123 110.837 311.24 110.191 311.24ZM107.231 305.2H112.811C112.811 304.567 112.714 303.99 112.521 303.47C112.334 302.95 112.044 302.537 111.651 302.23C111.264 301.923 110.777 301.77 110.191 301.77C109.397 301.77 108.721 302.043 108.161 302.59C107.607 303.137 107.297 304.007 107.231 305.2ZM120.73 315.26L120.04 314.14C120.967 314.087 121.723 313.953 122.31 313.74C122.897 313.533 123.33 313.237 123.61 312.85C123.89 312.463 124.03 311.973 124.03 311.38V309.77C123.417 310.75 122.49 311.24 121.25 311.24C120.43 311.24 119.713 311.017 119.1 310.57C118.487 310.123 118.01 309.5 117.67 308.7C117.33 307.893 117.16 306.953 117.16 305.88C117.16 304.793 117.33 303.85 117.67 303.05C118.017 302.25 118.5 301.633 119.12 301.2C119.74 300.76 120.473 300.54 121.32 300.54C121.873 300.54 122.39 300.657 122.87 300.89C123.357 301.117 123.743 301.43 124.03 301.83V300.78H125.43V310.97C125.43 311.65 125.333 312.247 125.14 312.76C124.953 313.28 124.663 313.717 124.27 314.07C123.883 314.423 123.393 314.697 122.8 314.89C122.213 315.09 121.523 315.213 120.73 315.26ZM121.5 309.92C122 309.92 122.48 309.767 122.94 309.46C123.4 309.147 123.763 308.737 124.03 308.23V303.41C123.77 302.943 123.407 302.567 122.94 302.28C122.48 301.993 122.007 301.85 121.52 301.85C120.573 301.85 119.847 302.197 119.34 302.89C118.84 303.577 118.59 304.573 118.59 305.88C118.59 306.693 118.71 307.403 118.95 308.01C119.197 308.61 119.537 309.08 119.97 309.42C120.41 309.753 120.92 309.92 121.5 309.92ZM129.541 311V300.78H130.941V311H129.541ZM130.231 298.73C129.978 298.73 129.761 298.64 129.581 298.46C129.408 298.28 129.321 298.063 129.321 297.81C129.321 297.543 129.408 297.32 129.581 297.14C129.761 296.953 129.978 296.86 130.231 296.86C130.498 296.86 130.718 296.953 130.891 297.14C131.071 297.32 131.161 297.543 131.161 297.81C131.161 298.063 131.071 298.28 130.891 298.46C130.718 298.64 130.498 298.73 130.231 298.73ZM137.94 311.24C137.26 311.24 136.607 311.093 135.98 310.8C135.353 310.507 134.827 310.1 134.4 309.58L135.42 308.71C135.787 309.11 136.193 309.42 136.64 309.64C137.087 309.86 137.527 309.97 137.96 309.97C138.613 309.97 139.117 309.837 139.47 309.57C139.83 309.303 140.01 308.93 140.01 308.45C140.01 308.15 139.927 307.877 139.76 307.63C139.6 307.383 139.337 307.153 138.97 306.94C138.603 306.72 138.12 306.497 137.52 306.27C136.44 305.87 135.663 305.433 135.19 304.96C134.717 304.48 134.48 303.887 134.48 303.18C134.48 302.393 134.783 301.757 135.39 301.27C136.003 300.783 136.8 300.54 137.78 300.54C138.427 300.54 139.033 300.667 139.6 300.92C140.167 301.167 140.65 301.523 141.05 301.99L140.07 302.81C139.417 302.143 138.647 301.81 137.76 301.81C137.18 301.81 136.72 301.933 136.38 302.18C136.047 302.42 135.88 302.753 135.88 303.18C135.88 303.573 136.053 303.913 136.4 304.2C136.747 304.48 137.38 304.79 138.3 305.13C139.047 305.41 139.647 305.707 140.1 306.02C140.553 306.327 140.88 306.677 141.08 307.07C141.287 307.463 141.39 307.917 141.39 308.43C141.39 309.303 141.083 309.99 140.47 310.49C139.857 310.99 139.013 311.24 137.94 311.24ZM144.907 311V297.23L146.307 296.56V311H144.907ZM153.314 311.24C152.234 311.24 151.387 310.94 150.774 310.34C150.161 309.733 149.854 308.9 149.854 307.84C149.854 307.16 150.004 306.57 150.304 306.07C150.611 305.57 151.041 305.187 151.594 304.92C152.154 304.647 152.814 304.51 153.574 304.51C154.074 304.51 154.551 304.573 155.004 304.7C155.464 304.827 155.907 305.017 156.334 305.27V304.29C156.334 303.423 156.144 302.787 155.764 302.38C155.391 301.973 154.807 301.77 154.014 301.77C153.541 301.77 153.037 301.86 152.504 302.04C151.977 302.213 151.477 302.46 151.004 302.78L150.594 301.6C151.134 301.26 151.717 301 152.344 300.82C152.971 300.633 153.584 300.54 154.184 300.54C155.331 300.54 156.197 300.84 156.784 301.44C157.371 302.04 157.664 302.923 157.664 304.09V311H156.334V309.84C155.927 310.287 155.461 310.633 154.934 310.88C154.414 311.12 153.874 311.24 153.314 311.24ZM153.494 310.01C154.007 310.01 154.507 309.877 154.994 309.61C155.481 309.337 155.927 308.947 156.334 308.44V306.53C155.941 306.277 155.514 306.083 155.054 305.95C154.601 305.81 154.161 305.74 153.734 305.74C152.967 305.74 152.354 305.933 151.894 306.32C151.441 306.7 151.214 307.21 151.214 307.85C151.214 308.51 151.417 309.037 151.824 309.43C152.231 309.817 152.787 310.01 153.494 310.01ZM165.136 311.24C164.296 311.24 163.572 311.027 162.966 310.6C162.359 310.167 161.892 309.553 161.566 308.76C161.246 307.96 161.086 307.007 161.086 305.9C161.086 304.787 161.252 303.83 161.586 303.03C161.919 302.23 162.396 301.617 163.016 301.19C163.636 300.757 164.376 300.54 165.236 300.54C166.056 300.54 166.756 300.74 167.336 301.14C167.922 301.533 168.349 302.1 168.616 302.84L167.286 303.33C167.112 302.857 166.849 302.493 166.496 302.24C166.142 301.987 165.729 301.86 165.256 301.86C164.369 301.86 163.692 302.203 163.226 302.89C162.766 303.577 162.536 304.58 162.536 305.9C162.536 307.167 162.766 308.153 163.226 308.86C163.686 309.56 164.332 309.91 165.166 309.91C165.712 309.91 166.182 309.763 166.576 309.47C166.969 309.177 167.242 308.777 167.396 308.27L168.716 308.71C168.482 309.51 168.049 310.133 167.416 310.58C166.789 311.02 166.029 311.24 165.136 311.24ZM172.08 311V300.78H173.48V311H172.08ZM172.77 298.73C172.517 298.73 172.3 298.64 172.12 298.46C171.947 298.28 171.86 298.063 171.86 297.81C171.86 297.543 171.947 297.32 172.12 297.14C172.3 296.953 172.517 296.86 172.77 296.86C173.037 296.86 173.257 296.953 173.43 297.14C173.61 297.32 173.7 297.543 173.7 297.81C173.7 298.063 173.61 298.28 173.43 298.46C173.257 298.64 173.037 298.73 172.77 298.73ZM181.309 311.24C179.962 311.24 178.899 310.763 178.119 309.81C177.339 308.85 176.949 307.547 176.949 305.9C176.949 304.8 177.126 303.85 177.479 303.05C177.832 302.25 178.336 301.633 178.989 301.2C179.642 300.76 180.416 300.54 181.309 300.54C182.209 300.54 182.986 300.757 183.639 301.19C184.292 301.617 184.792 302.23 185.139 303.03C185.492 303.83 185.669 304.78 185.669 305.88C185.669 306.98 185.492 307.933 185.139 308.74C184.786 309.54 184.282 310.157 183.629 310.59C182.976 311.023 182.202 311.24 181.309 311.24ZM181.309 309.92C182.229 309.92 182.946 309.563 183.459 308.85C183.979 308.137 184.239 307.147 184.239 305.88C184.239 304.607 183.979 303.617 183.459 302.91C182.946 302.203 182.229 301.85 181.309 301.85C180.376 301.85 179.652 302.203 179.139 302.91C178.632 303.61 178.379 304.607 178.379 305.9C178.379 307.173 178.636 308.163 179.149 308.87C179.662 309.57 180.382 309.92 181.309 309.92ZM180.289 299.48L183.189 296.36H185.209L181.709 299.48H180.289ZM189.114 311V300.78H190.514V302.09C190.801 301.59 191.181 301.207 191.654 300.94C192.134 300.673 192.678 300.54 193.284 300.54C194.478 300.54 195.364 300.91 195.944 301.65C196.524 302.383 196.814 303.5 196.814 305V311H195.414V304.75C195.414 303.797 195.214 303.073 194.814 302.58C194.414 302.08 193.834 301.83 193.074 301.83C192.234 301.83 191.598 302.087 191.164 302.6C190.731 303.113 190.514 303.87 190.514 304.87V311H189.114ZM209.395 311.24C208.128 311.24 207.125 310.76 206.385 309.8C205.652 308.833 205.285 307.527 205.285 305.88C205.285 304.773 205.452 303.823 205.785 303.03C206.118 302.23 206.595 301.617 207.215 301.19C207.842 300.757 208.585 300.54 209.445 300.54C210.505 300.54 211.402 300.947 212.135 301.76V297.23L213.535 296.56V311H212.135V309.98C211.422 310.82 210.508 311.24 209.395 311.24ZM209.605 309.92C210.105 309.92 210.582 309.777 211.035 309.49C211.488 309.197 211.855 308.8 212.135 308.3V303.4C211.835 302.92 211.458 302.543 211.005 302.27C210.558 301.99 210.092 301.85 209.605 301.85C208.685 301.85 207.972 302.2 207.465 302.9C206.965 303.593 206.715 304.587 206.715 305.88C206.715 306.673 206.838 307.373 207.085 307.98C207.332 308.587 207.672 309.063 208.105 309.41C208.538 309.75 209.038 309.92 209.605 309.92ZM221.366 311.24C220.46 311.24 219.676 311.017 219.016 310.57C218.363 310.117 217.86 309.487 217.506 308.68C217.153 307.873 216.976 306.94 216.976 305.88C216.976 304.753 217.16 303.793 217.526 303C217.9 302.2 218.416 301.59 219.076 301.17C219.736 300.75 220.5 300.54 221.366 300.54C222.12 300.54 222.803 300.717 223.416 301.07C224.03 301.423 224.516 301.97 224.876 302.71C225.236 303.45 225.416 304.4 225.416 305.56C225.416 305.68 225.413 305.817 225.406 305.97C225.4 306.117 225.39 306.27 225.376 306.43H218.426C218.48 307.137 218.623 307.757 218.856 308.29C219.096 308.817 219.426 309.233 219.846 309.54C220.273 309.84 220.796 309.99 221.416 309.99C221.836 309.99 222.24 309.917 222.626 309.77C223.013 309.617 223.373 309.383 223.706 309.07L224.526 310.01C224.153 310.363 223.693 310.657 223.146 310.89C222.606 311.123 222.013 311.24 221.366 311.24ZM218.406 305.2H223.986C223.986 304.567 223.89 303.99 223.696 303.47C223.51 302.95 223.22 302.537 222.826 302.23C222.44 301.923 221.953 301.77 221.366 301.77C220.573 301.77 219.896 302.043 219.336 302.59C218.783 303.137 218.473 304.007 218.406 305.2ZM237.061 311L232.271 297H233.771L237.331 307.64C237.391 307.813 237.451 308.007 237.511 308.22C237.578 308.427 237.641 308.643 237.701 308.87C237.761 308.643 237.821 308.43 237.881 308.23C237.941 308.023 238.001 307.827 238.061 307.64L241.561 297H243.061L238.281 311H237.061ZM246.329 311V297H251.069C252.142 297 252.986 297.177 253.599 297.53C254.212 297.877 254.649 298.33 254.909 298.89C255.169 299.443 255.299 300.023 255.299 300.63C255.299 301.31 255.099 301.923 254.699 302.47C254.299 303.01 253.739 303.403 253.019 303.65C253.592 303.777 254.086 304 254.499 304.32C254.912 304.633 255.232 305.027 255.459 305.5C255.686 305.967 255.799 306.49 255.799 307.07C255.799 307.537 255.722 308.003 255.569 308.47C255.422 308.93 255.179 309.353 254.839 309.74C254.506 310.12 254.056 310.427 253.489 310.66C252.922 310.887 252.222 311 251.389 311H246.329ZM247.729 309.72H251.579C252.319 309.72 252.892 309.597 253.299 309.35C253.712 309.103 253.999 308.787 254.159 308.4C254.326 308.013 254.409 307.61 254.409 307.19C254.409 306.703 254.312 306.243 254.119 305.81C253.926 305.377 253.579 305.03 253.079 304.77C252.579 304.503 251.866 304.37 250.939 304.37H247.729V309.72ZM247.729 303.1H250.719C251.779 303.1 252.576 302.873 253.109 302.42C253.642 301.967 253.909 301.37 253.909 300.63C253.909 300.25 253.836 299.88 253.689 299.52C253.549 299.153 253.279 298.853 252.879 298.62C252.486 298.387 251.912 298.27 251.159 298.27H247.729V303.1ZM264.813 311.24C263.779 311.24 262.896 311.04 262.163 310.64C261.429 310.233 260.833 309.687 260.373 309C259.913 308.307 259.573 307.53 259.353 306.67C259.139 305.803 259.032 304.913 259.032 304C259.032 303.08 259.146 302.19 259.373 301.33C259.606 300.463 259.956 299.687 260.423 299C260.896 298.313 261.496 297.77 262.223 297.37C262.949 296.963 263.813 296.76 264.813 296.76C265.613 296.76 266.286 296.87 266.833 297.09C267.379 297.31 267.833 297.597 268.193 297.95C268.559 298.297 268.866 298.66 269.113 299.04L267.863 299.78C267.549 299.327 267.159 298.933 266.693 298.6C266.226 298.26 265.599 298.09 264.813 298.09C264.006 298.09 263.326 298.267 262.773 298.62C262.219 298.973 261.776 299.443 261.443 300.03C261.109 300.61 260.866 301.247 260.713 301.94C260.566 302.633 260.493 303.32 260.493 304C260.493 304.76 260.576 305.493 260.743 306.2C260.909 306.907 261.166 307.537 261.513 308.09C261.866 308.643 262.313 309.083 262.853 309.41C263.399 309.73 264.053 309.89 264.813 309.89C265.486 309.89 266.069 309.74 266.563 309.44C267.063 309.14 267.449 308.71 267.723 308.15C267.996 307.583 268.133 306.903 268.133 306.11V305.66H265.463V304.37H269.603V305.71C269.603 306.95 269.393 307.98 268.973 308.8C268.553 309.613 267.979 310.223 267.253 310.63C266.533 311.037 265.719 311.24 264.813 311.24ZM282.433 311.24C281.526 311.24 280.743 311.017 280.083 310.57C279.429 310.117 278.926 309.487 278.573 308.68C278.219 307.873 278.043 306.94 278.043 305.88C278.043 304.753 278.226 303.793 278.593 303C278.966 302.2 279.483 301.59 280.143 301.17C280.803 300.75 281.566 300.54 282.433 300.54C283.186 300.54 283.869 300.717 284.483 301.07C285.096 301.423 285.583 301.97 285.943 302.71C286.303 303.45 286.483 304.4 286.483 305.56C286.483 305.68 286.479 305.817 286.473 305.97C286.466 306.117 286.456 306.27 286.443 306.43H279.493C279.546 307.137 279.689 307.757 279.923 308.29C280.163 308.817 280.493 309.233 280.913 309.54C281.339 309.84 281.863 309.99 282.483 309.99C282.903 309.99 283.306 309.917 283.693 309.77C284.079 309.617 284.439 309.383 284.773 309.07L285.593 310.01C285.219 310.363 284.759 310.657 284.213 310.89C283.673 311.123 283.079 311.24 282.433 311.24ZM279.473 305.2H285.053C285.053 304.567 284.956 303.99 284.763 303.47C284.576 302.95 284.286 302.537 283.893 302.23C283.506 301.923 283.019 301.77 282.433 301.77C281.639 301.77 280.963 302.043 280.403 302.59C279.849 303.137 279.539 304.007 279.473 305.2ZM289.974 311V300.78H291.374V302.09C291.66 301.59 292.04 301.207 292.514 300.94C292.994 300.673 293.537 300.54 294.144 300.54C295.337 300.54 296.224 300.91 296.804 301.65C297.384 302.383 297.674 303.5 297.674 305V311H296.274V304.75C296.274 303.797 296.074 303.073 295.674 302.58C295.274 302.08 294.694 301.83 293.934 301.83C293.094 301.83 292.457 302.087 292.024 302.6C291.59 303.113 291.374 303.87 291.374 304.87V311H289.974ZM312.134 311.24C311.101 311.24 310.221 311.037 309.494 310.63C308.774 310.217 308.191 309.663 307.744 308.97C307.304 308.277 306.978 307.5 306.764 306.64C306.558 305.773 306.454 304.893 306.454 304C306.454 303.1 306.561 302.223 306.774 301.37C306.994 300.51 307.331 299.733 307.784 299.04C308.244 298.34 308.831 297.787 309.544 297.38C310.264 296.967 311.124 296.76 312.124 296.76C312.958 296.76 313.658 296.88 314.224 297.12C314.798 297.353 315.261 297.657 315.614 298.03C315.974 298.397 316.261 298.783 316.474 299.19L315.224 299.85C315.018 299.523 314.781 299.227 314.514 298.96C314.254 298.693 313.931 298.48 313.544 298.32C313.164 298.16 312.691 298.08 312.124 298.08C311.364 298.08 310.714 298.253 310.174 298.6C309.641 298.947 309.208 299.407 308.874 299.98C308.541 300.553 308.298 301.19 308.144 301.89C307.991 302.59 307.914 303.293 307.914 304C307.914 304.74 307.994 305.463 308.154 306.17C308.314 306.87 308.564 307.503 308.904 308.07C309.244 308.63 309.681 309.077 310.214 309.41C310.748 309.743 311.388 309.91 312.134 309.91C312.961 309.91 313.624 309.727 314.124 309.36C314.631 308.993 315.034 308.547 315.334 308.02L316.614 308.51C316.388 308.997 316.074 309.447 315.674 309.86C315.281 310.273 314.791 310.607 314.204 310.86C313.618 311.113 312.928 311.24 312.134 311.24ZM323.025 311.24C321.945 311.24 321.098 310.94 320.485 310.34C319.872 309.733 319.565 308.9 319.565 307.84C319.565 307.16 319.715 306.57 320.015 306.07C320.322 305.57 320.752 305.187 321.305 304.92C321.865 304.647 322.525 304.51 323.285 304.51C323.785 304.51 324.262 304.573 324.715 304.7C325.175 304.827 325.618 305.017 326.045 305.27V304.29C326.045 303.423 325.855 302.787 325.475 302.38C325.102 301.973 324.518 301.77 323.725 301.77C323.252 301.77 322.748 301.86 322.215 302.04C321.688 302.213 321.188 302.46 320.715 302.78L320.305 301.6C320.845 301.26 321.428 301 322.055 300.82C322.682 300.633 323.295 300.54 323.895 300.54C325.042 300.54 325.908 300.84 326.495 301.44C327.082 302.04 327.375 302.923 327.375 304.09V311H326.045V309.84C325.638 310.287 325.172 310.633 324.645 310.88C324.125 311.12 323.585 311.24 323.025 311.24ZM323.205 310.01C323.718 310.01 324.218 309.877 324.705 309.61C325.192 309.337 325.638 308.947 326.045 308.44V306.53C325.652 306.277 325.225 306.083 324.765 305.95C324.312 305.81 323.872 305.74 323.445 305.74C322.678 305.74 322.065 305.933 321.605 306.32C321.152 306.7 320.925 307.21 320.925 307.85C320.925 308.51 321.128 309.037 321.535 309.43C321.942 309.817 322.498 310.01 323.205 310.01ZM331.204 311V297.23L332.604 296.56V311H331.204ZM336.791 311V300.78H338.191V311H336.791ZM337.481 298.73C337.228 298.73 337.011 298.64 336.831 298.46C336.658 298.28 336.571 298.063 336.571 297.81C336.571 297.543 336.658 297.32 336.831 297.14C337.011 296.953 337.228 296.86 337.481 296.86C337.748 296.86 337.968 296.953 338.141 297.14C338.321 297.32 338.411 297.543 338.411 297.81C338.411 298.063 338.321 298.28 338.141 298.46C337.968 298.64 337.748 298.73 337.481 298.73Z" fill="#009245"/>
</g>
<defs>
<filter id="filter0_d_250_17254" x="0" y="0" width="370" height="355" filterUnits="userSpaceOnUse" color-interpolation-filters="sRGB">
<feFlood flood-opacity="0" result="BackgroundImageFix"/>
<feColorMatrix in="SourceAlpha" type="matrix" values="0 0 0 0 0 0 0 0 0 0 0 0 0 0 0 0 0 0 127 0" result="hardAlpha"/>
<feMorphology radius="3" operator="erode" in="SourceAlpha" result="effect1_dropShadow_250_17254"/>
<feOffset dy="7"/>
<feGaussianBlur stdDeviation="4.5"/>
<feComposite in2="hardAlpha" operator="out"/>
<feColorMatrix type="matrix" values="0 0 0 0 1 0 0 0 0 0.572549 0 0 0 0 0.909804 0 0 0 0.15 0"/>
<feBlend mode="normal" in2="BackgroundImageFix" result="effect1_dropShadow_250_17254"/>
<feBlend mode="normal" in="SourceGraphic" in2="effect1_dropShadow_250_17254" result="shape"/>
</filter>
</defs>
</svg>
