<svg width="552" height="416" viewBox="0 0 552 416" fill="none" xmlns="http://www.w3.org/2000/svg">
<path d="M451.439 165.551L425.944 193.85L411.781 155.646L197.911 145.742L171 0L552 42.449L522.257 208L451.439 165.551Z" fill="#C1272D"/>
<path d="M100.561 373.551L126.056 401.85L140.219 363.646L354.089 353.742L381 208L0 250.449L29.7435 416L100.561 373.551Z" fill="#009245"/>
<path d="M386.5 357.082C375.23 357.082 366.083 366.229 366.083 377.499C366.083 388.769 375.23 397.915 386.5 397.915C397.77 397.915 406.917 388.769 406.917 377.499C406.917 366.229 397.77 357.082 386.5 357.082ZM380.967 386.257L373.638 378.928C372.841 378.132 372.841 376.845 373.638 376.049C374.434 375.253 375.72 375.253 376.516 376.049L382.417 381.929L396.463 367.882C397.26 367.086 398.546 367.086 399.342 367.882C400.138 368.679 400.138 369.965 399.342 370.761L383.846 386.257C383.07 387.054 381.763 387.054 380.967 386.257Z" fill="#009245"/>
<path d="M148 147.219L171.852 123.367L177.151 128.666L153.3 152.518L148 147.219Z" fill="#C1272D"/>
<path d="M153.165 123.5L177.016 147.352L171.987 152.381L148.135 128.53L153.165 123.5Z" fill="#C1272D"/>
<path d="M225.04 49.497L240.476 50.7182L240.153 54.7935L229.826 53.9764L229.536 57.633L238.859 58.3706L238.539 62.4179L229.214 61.7082L228.922 65.3927L239.529 66.2319L239.207 70.3072L223.492 69.0639L225.04 49.497Z" fill="white"/>
<path d="M253.503 56.0463C255.159 56.1773 256.439 56.8029 257.342 57.923C258.265 59.0446 258.656 60.4893 258.516 62.2571L257.763 71.7753L252.823 71.3845L253.463 63.2897C253.531 62.4338 253.351 61.7454 252.924 61.2248C252.499 60.6856 251.895 60.385 251.114 60.3232C250.294 60.277 249.593 60.4931 249.012 60.9715C248.45 61.4513 248.088 62.1155 247.928 62.9641L247.296 70.9472L242.327 70.5541L243.522 55.4533L248.491 55.8464L248.296 58.3027C248.905 57.4708 249.646 56.8647 250.519 56.4843C251.41 56.1054 252.405 55.9594 253.503 56.0463Z" fill="white"/>
<path d="M269.102 51.8315L274.07 52.2246L272.432 72.9359L267.463 72.5428L269.102 51.8315Z" fill="white"/>
<path d="M284.394 58.4904C286.479 58.6553 288.059 59.2672 289.136 60.3261C290.215 61.3664 290.695 62.7526 290.577 64.4847L289.799 74.31L284.915 73.9235L285.049 72.2208C283.943 73.4253 282.376 73.9473 280.347 73.7868C278.747 73.6602 277.515 73.1321 276.653 72.2025C275.81 71.2558 275.445 70.0753 275.557 68.661C275.67 67.2282 276.251 66.1507 277.301 65.4285C278.369 64.7079 279.834 64.4119 281.697 64.5405L285.632 64.8519L285.646 64.6844C285.703 63.9586 285.496 63.3805 285.025 62.95C284.572 62.5209 283.88 62.2696 282.95 62.196C282.317 62.1459 281.592 62.1916 280.776 62.333C279.978 62.4758 279.164 62.711 278.333 63.0385L277.23 59.5807C278.502 59.1196 279.707 58.803 280.844 58.6308C282.001 58.4415 283.185 58.3947 284.394 58.4904ZM282.15 70.5309C282.894 70.5898 283.559 70.4645 284.146 70.1551C284.733 69.8271 285.124 69.3806 285.319 68.8155L285.423 67.5036L282.464 67.2695C281.068 67.1591 280.329 67.6249 280.247 68.667C280.206 69.188 280.349 69.6207 280.678 69.965C281.026 70.2922 281.517 70.4808 282.15 70.5309Z" fill="white"/>
<path d="M301.103 54.3634L306.072 54.7565L304.433 75.4678L299.465 75.0747L301.103 54.3634Z" fill="white"/>
<path d="M309.57 60.6788L314.51 61.0697L313.316 76.1705L308.375 75.7796L309.57 60.6788ZM312.548 53.9207C313.311 53.981 313.915 54.2816 314.359 54.8223C314.823 55.3459 315.024 55.9984 314.962 56.78C314.902 57.5429 314.6 58.1557 314.058 58.6184C313.535 59.0826 312.891 59.2845 312.128 59.2241C311.366 59.1637 310.753 58.8625 310.29 58.3203C309.846 57.7796 309.654 57.1277 309.714 56.3648C309.776 55.5832 310.068 54.9697 310.59 54.5241C311.133 54.0615 311.785 53.8603 312.548 53.9207Z" fill="white"/>
<path d="M328.019 66.9414C326.146 65.7634 324.586 65.125 323.339 65.0264C322.911 64.9925 322.56 65.049 322.286 65.1959C322.014 65.3241 321.865 65.5464 321.84 65.8628C321.814 66.1977 321.997 66.4838 322.39 66.7208C322.784 66.9579 323.417 67.2328 324.291 67.5453C325.346 67.9471 326.214 68.3341 326.896 68.7064C327.598 69.0615 328.185 69.5761 328.656 70.25C329.128 70.9053 329.325 71.7354 329.245 72.7402C329.124 74.2661 328.434 75.4193 327.174 76.1996C325.934 76.9629 324.365 77.2694 322.467 77.1192C321.183 77.0176 319.968 76.7437 318.824 76.2974C317.681 75.8325 316.682 75.2104 315.826 74.4311L317.643 71.3448C318.452 72.008 319.308 72.5439 320.212 72.9524C321.136 73.3439 322.017 73.5727 322.854 73.639C323.338 73.6772 323.725 73.633 324.016 73.5062C324.327 73.3623 324.495 73.1415 324.518 72.8437C324.548 72.4716 324.356 72.1662 323.945 71.9276C323.551 71.6906 322.918 71.4157 322.044 71.1031C321.008 70.7029 320.158 70.3266 319.493 69.9744C318.829 69.6036 318.261 69.0906 317.789 68.4352C317.335 67.7814 317.147 66.9614 317.225 65.9751C317.346 64.4492 318.017 63.3039 319.238 62.5392C320.461 61.7559 321.985 61.4364 323.808 61.5807C324.906 61.6675 325.974 61.9018 327.011 62.2834C328.067 62.6666 329.046 63.1841 329.95 63.836L328.019 66.9414Z" fill="white"/>
<path d="M341.432 77.6086C340.849 77.8808 340.187 78.0812 339.446 78.2098C338.707 78.3199 337.966 78.3455 337.221 78.2866C335.733 78.1688 334.557 77.6451 333.694 76.7155C332.85 75.7874 332.488 74.5697 332.607 73.0624L333.119 66.5866L331.026 66.421L331.286 63.1273L333.38 63.2929L333.711 59.106L338.652 59.4969L338.32 63.6838L342.228 63.993L341.968 67.2867L338.06 66.9775L337.609 72.6717C337.525 73.7324 337.921 74.2973 338.795 74.3665C339.335 74.4092 339.99 74.2925 340.761 74.0165L341.432 77.6086Z" fill="white"/>
<path d="M351.75 63.8195C353.834 63.9843 355.415 64.5963 356.492 65.6552C357.571 66.6955 358.051 68.0817 357.933 69.8137L357.155 79.639L352.271 79.2526L352.405 77.5499C351.299 78.7544 349.732 79.2764 347.703 79.1159C346.103 78.9893 344.871 78.4612 344.009 77.5316C343.166 76.5848 342.801 75.4043 342.913 73.9901C343.026 72.5572 343.607 71.4797 344.657 70.7576C345.725 70.0369 347.19 69.7409 349.053 69.8695L352.988 70.1809L353.002 70.0134C353.059 69.2877 352.852 68.7096 352.381 68.279C351.928 67.85 351.236 67.5987 350.306 67.525C349.673 67.475 348.948 67.5206 348.132 67.662C347.334 67.8049 346.52 68.0401 345.689 68.3675L344.586 64.9098C345.858 64.4487 347.063 64.1321 348.2 63.9599C349.357 63.7706 350.541 63.7238 351.75 63.8195ZM349.506 75.8599C350.25 75.9188 350.915 75.7936 351.502 75.4842C352.089 75.1562 352.48 74.7096 352.675 74.1445L352.779 72.8326L349.82 72.5985C348.424 72.4881 347.685 72.954 347.603 73.996C347.562 74.5171 347.705 74.9497 348.034 75.2941C348.382 75.6212 348.873 75.8099 349.506 75.8599Z" fill="white"/>
<path d="M383.56 60.8872L381.921 81.5985L376.953 81.2054L377.108 79.2515C376.531 79.9174 375.846 80.4062 375.054 80.7181C374.281 81.0127 373.421 81.1225 372.471 81.0474C371.076 80.937 369.873 80.5142 368.864 79.779C367.855 79.0438 367.099 78.0664 366.596 76.847C366.114 75.6104 365.934 74.2198 366.056 72.6753C366.177 71.1494 366.571 69.8324 367.239 68.7244C367.907 67.6163 368.787 66.7871 369.88 66.2369C370.972 65.6866 372.206 65.466 373.583 65.5749C374.551 65.6515 375.402 65.906 376.135 66.3386C376.887 66.7726 377.506 67.3552 377.991 68.0864L378.592 60.4941L383.56 60.8872ZM374.009 77.2368C374.976 77.3134 375.785 77.0309 376.435 76.3895C377.087 75.7295 377.457 74.8413 377.545 73.7248C377.635 72.5896 377.409 71.6543 376.868 70.9186C376.327 70.183 375.573 69.7769 374.605 69.7004C373.637 69.6238 372.819 69.9148 372.149 70.5733C371.499 71.2147 371.13 72.0937 371.041 73.2102C370.953 74.3267 371.178 75.2621 371.718 76.0163C372.278 76.7534 373.041 77.1603 374.009 77.2368Z" fill="white"/>
<path d="M387.039 66.808L391.979 67.1989L390.784 82.2997L385.844 81.9088L387.039 66.808ZM390.017 60.0498C390.78 60.1102 391.383 60.4107 391.827 60.9515C392.292 61.475 392.493 62.1276 392.431 62.9092C392.371 63.6721 392.069 64.2849 391.527 64.7476C391.004 65.2117 390.36 65.4136 389.597 65.3533C388.834 65.2929 388.222 64.9916 387.759 64.4495C387.315 63.9088 387.123 63.2569 387.183 62.494C387.245 61.7124 387.537 61.0989 388.059 60.6533C388.601 60.1906 389.254 59.9895 390.017 60.0498Z" fill="white"/>
<path d="M405.095 73.7698C404.47 72.6718 403.525 72.0727 402.26 71.9726C401.367 71.902 400.614 72.1888 400.001 72.8331C399.39 73.4589 399.042 74.3114 398.956 75.3907C398.869 76.4886 399.078 77.3946 399.584 78.1087C400.089 78.8227 400.788 79.2151 401.681 79.2858C403.058 79.3947 404.09 78.9052 404.775 77.8172L408.266 80.1999C407.579 81.3066 406.615 82.1291 405.374 82.6676C404.133 83.206 402.713 83.412 401.112 83.2853C399.568 83.1631 398.234 82.7393 397.112 82.0139C395.99 81.2884 395.149 80.3231 394.589 79.1178C394.047 77.914 393.837 76.5492 393.958 75.0233C394.08 73.4788 394.513 72.1461 395.257 71.0253C396.002 69.8859 396.986 69.0462 398.209 68.5063C399.451 67.9492 400.845 67.7318 402.389 67.854C403.897 67.9732 405.211 68.3956 406.334 69.121C407.457 69.8279 408.3 70.7746 408.861 71.9613L405.095 73.7698Z" fill="white"/>
<path d="M417.71 69.0661C420.166 69.2605 421.998 70.1356 423.204 71.6916C424.41 73.2476 424.913 75.291 424.713 77.8218C424.682 78.2125 424.649 78.5095 424.615 78.7128L414.119 77.8824C414.294 78.7575 414.66 79.4513 415.219 79.9636C415.779 80.4573 416.487 80.738 417.343 80.8057C417.994 80.8573 418.628 80.7763 419.244 80.5629C419.879 80.351 420.467 80.0137 421.009 79.551L423.4 82.3523C422.549 83.165 421.547 83.7599 420.394 84.1367C419.26 84.4965 417.996 84.6211 416.6 84.5107C414.981 84.3826 413.592 83.9544 412.433 83.226C411.273 82.4976 410.413 81.5308 409.853 80.3255C409.312 79.1218 409.102 77.7569 409.222 76.231C409.345 74.6865 409.778 73.3539 410.522 72.233C411.267 71.0936 412.261 70.2547 413.502 69.7162C414.744 69.1592 416.147 68.9425 417.71 69.0661ZM420.023 75.6812C420.093 74.8066 419.887 74.0882 419.407 73.5259C418.948 72.9465 418.299 72.6237 417.462 72.5574C416.68 72.4956 415.999 72.7038 415.418 73.1822C414.856 73.662 414.456 74.3419 414.218 75.2219L420.023 75.6812Z" fill="white"/>
<path d="M449.3 71.734L447.677 92.2499L442.708 91.8568L443.291 84.4878C442.714 85.1537 442.03 85.6426 441.237 85.9544C440.465 86.249 439.604 86.3588 438.655 86.2838C437.26 86.1733 436.057 85.7505 435.048 85.0153C434.039 84.2801 433.283 83.3027 432.78 82.0833C432.298 80.8467 432.117 79.4562 432.24 77.9117C432.36 76.3858 432.755 75.0688 433.423 73.9607C434.091 72.8526 434.971 72.0234 436.063 71.4732C437.155 70.9229 438.39 70.7023 439.767 70.8112C440.735 70.8878 441.585 71.1423 442.319 71.5749C443.071 72.0089 443.69 72.5915 444.175 73.3227L444.332 71.3409L449.3 71.734ZM440.193 82.4731C441.16 82.5497 441.969 82.2673 442.619 81.6259C443.27 80.9659 443.64 80.0776 443.729 78.9611C443.818 77.826 443.593 76.8906 443.052 76.155C442.511 75.4193 441.757 75.0132 440.789 74.9367C439.821 74.8601 439.002 75.1511 438.332 75.8097C437.682 76.4511 437.313 77.33 437.225 78.4465C437.137 79.563 437.362 80.4984 437.902 81.2526C438.461 81.9897 439.225 82.3966 440.193 82.4731Z" fill="white"/>
<path d="M467.96 73.2104L466.766 88.3112L461.797 87.9181L461.991 85.4618C460.83 87.13 459.149 87.8958 456.951 87.7593C455.313 87.6298 454.042 87.0049 453.139 85.8848C452.255 84.7476 451.882 83.3044 452.021 81.5552L452.776 72.009L457.744 72.4021L457.102 80.5247C457.034 81.3807 457.195 82.0675 457.585 82.5852C457.993 83.1044 458.569 83.3934 459.314 83.4523C460.19 83.5029 460.903 83.241 461.454 82.6667C462.007 82.0737 462.323 81.2748 462.402 80.27L462.992 72.8173L467.96 73.2104Z" fill="white"/>
<path d="M478.415 73.869C480.871 74.0633 482.702 74.9385 483.909 76.4945C485.115 78.0505 485.618 80.0938 485.418 82.6246C485.387 83.0154 485.354 83.3124 485.319 83.5156L474.824 82.6852C474.998 83.5604 475.365 84.2541 475.923 84.7664C476.484 85.2601 477.192 85.5409 478.048 85.6086C478.699 85.6601 479.333 85.5792 479.949 85.3658C480.583 85.1538 481.172 84.8165 481.714 84.3538L484.105 87.1551C483.254 87.9679 482.252 88.5627 481.098 88.9396C479.965 89.2993 478.701 89.424 477.305 89.3136C475.686 89.1855 474.297 88.7572 473.137 88.0289C471.978 87.3005 471.118 86.3336 470.558 85.1284C470.017 83.9246 469.806 82.5598 469.927 81.0339C470.049 79.4894 470.483 78.1567 471.227 77.0359C471.972 75.8965 472.965 75.0575 474.206 74.5191C475.449 73.962 476.852 73.7453 478.415 73.869ZM480.728 80.484C480.797 79.6094 480.592 78.891 480.112 78.3287C479.653 77.7493 479.004 77.4265 478.167 77.3603C477.385 77.2984 476.704 77.5067 476.123 77.985C475.561 78.4648 475.16 79.1447 474.922 80.0247L480.728 80.484Z" fill="white"/>
<path d="M230.54 104.948C229.956 105.22 229.294 105.42 228.554 105.549C227.815 105.659 227.073 105.684 226.329 105.626C224.84 105.508 223.665 104.984 222.802 104.054C221.958 103.126 221.595 101.909 221.715 100.401L222.227 93.9255L220.134 93.7599L220.394 90.4662L222.488 90.6318L222.819 86.4449L227.759 86.8358L227.428 91.0227L231.336 91.3319L231.075 94.6256L227.168 94.3164L226.717 100.011C226.633 101.071 227.028 101.636 227.903 101.705C228.443 101.748 229.098 101.631 229.869 101.355L230.54 104.948Z" fill="white"/>
<path d="M240.606 91.1666C243.063 91.3609 244.894 92.2361 246.101 93.7921C247.307 95.3481 247.81 97.3914 247.61 99.9222C247.579 100.313 247.546 100.61 247.511 100.813L237.016 99.9828C237.19 100.858 237.557 101.552 238.115 102.064C238.675 102.558 239.383 102.838 240.239 102.906C240.891 102.958 241.524 102.877 242.141 102.663C242.775 102.451 243.364 102.114 243.906 101.651L246.296 104.453C245.446 105.265 244.444 105.86 243.29 106.237C242.157 106.597 240.893 106.722 239.497 106.611C237.878 106.483 236.489 106.055 235.329 105.326C234.17 104.598 233.31 103.631 232.75 102.426C232.209 101.222 231.998 99.8574 232.119 98.3315C232.241 96.787 232.674 95.4543 233.418 94.3335C234.164 93.1941 235.157 92.3551 236.398 91.8167C237.641 91.2596 239.043 91.0429 240.606 91.1666ZM242.92 97.7816C242.989 96.907 242.784 96.1886 242.304 95.6263C241.844 95.047 241.196 94.7241 240.358 94.6579C239.577 94.596 238.896 94.8043 238.315 95.2826C237.752 95.7624 237.352 96.4423 237.114 97.3223L242.92 97.7816Z" fill="white"/>
<path d="M257.54 87.0292L262.508 87.4223L260.87 108.134L255.901 107.741L257.54 87.0292Z" fill="white"/>
<path d="M266.59 87.7452L271.558 88.1383L269.919 108.85L264.951 108.457L266.59 87.7452Z" fill="white"/>
<path d="M281.882 94.4041C283.966 94.569 285.547 95.1809 286.624 96.2399C287.703 97.2802 288.183 98.6664 288.065 100.398L287.287 110.224L282.402 109.837L282.537 108.135C281.431 109.339 279.863 109.861 277.835 109.701C276.235 109.574 275.003 109.046 274.14 108.116C273.298 107.17 272.933 105.989 273.044 104.575C273.158 103.142 273.739 102.064 274.789 101.342C275.857 100.622 277.322 100.326 279.185 100.454L283.12 100.766L283.133 100.598C283.191 99.8724 282.984 99.2943 282.512 98.8637C282.059 98.4347 281.368 98.1833 280.437 98.1097C279.805 98.0597 279.08 98.1053 278.264 98.2467C277.466 98.3896 276.652 98.6247 275.821 98.9522L274.718 95.4945C275.99 95.0334 277.195 94.7167 278.332 94.5446C279.489 94.3552 280.673 94.3084 281.882 94.4041ZM279.637 106.445C280.382 106.503 281.047 106.378 281.633 106.069C282.221 105.741 282.612 105.294 282.807 104.729L282.91 103.417L279.952 103.183C278.556 103.073 277.817 103.539 277.735 104.581C277.693 105.102 277.837 105.534 278.165 105.879C278.514 106.206 279.005 106.395 279.637 106.445Z" fill="white"/>
<path d="M311.988 96.7861C313.626 96.9156 314.897 97.5405 315.8 98.6606C316.704 99.7807 317.086 101.225 316.946 102.992L316.193 112.511L311.225 112.118L311.865 104.023C311.933 103.167 311.763 102.479 311.354 101.96C310.948 101.422 310.363 101.123 309.6 101.063C308.724 101.012 308 101.283 307.429 101.874C306.878 102.449 306.563 103.238 306.483 104.243L305.893 111.696L300.925 111.303L301.565 103.208C301.633 102.352 301.463 101.664 301.055 101.145C300.648 100.608 300.063 100.308 299.3 100.248C298.424 100.197 297.7 100.468 297.129 101.059C296.559 101.632 296.235 102.421 296.155 103.426L295.566 110.879L290.625 110.488L291.82 95.387L296.761 95.7779L296.564 98.2621C297.154 97.4287 297.876 96.8211 298.73 96.4393C299.605 96.0404 300.591 95.8843 301.689 95.9712C302.917 96.0683 303.945 96.4493 304.772 97.1139C305.6 97.7786 306.157 98.656 306.446 99.7461C307.018 98.6679 307.773 97.885 308.71 97.3974C309.667 96.8927 310.76 96.6889 311.988 96.7861Z" fill="white"/>
<path d="M327.595 98.0208C329.679 98.1857 331.26 98.7976 332.337 99.8565C333.415 100.897 333.896 102.283 333.777 104.015L333 113.84L328.115 113.454L328.25 111.751C327.143 112.956 325.576 113.478 323.548 113.317C321.947 113.191 320.716 112.663 319.853 111.733C319.01 110.786 318.645 109.606 318.757 108.191C318.87 106.759 319.452 105.681 320.501 104.959C321.57 104.238 323.035 103.942 324.897 104.071L328.833 104.382L328.846 104.215C328.904 103.489 328.696 102.911 328.225 102.48C327.772 102.051 327.08 101.8 326.15 101.726C325.517 101.676 324.793 101.722 323.976 101.863C323.179 102.006 322.364 102.241 321.533 102.569L320.43 99.1111C321.703 98.6501 322.907 98.3334 324.045 98.1612C325.202 97.9719 326.385 97.9251 327.595 98.0208ZM325.35 110.061C326.094 110.12 326.76 109.995 327.346 109.686C327.934 109.358 328.325 108.911 328.519 108.346L328.623 107.034L325.664 106.8C324.269 106.689 323.53 107.155 323.447 108.197C323.406 108.718 323.55 109.151 323.878 109.495C324.227 109.823 324.717 110.011 325.35 110.061Z" fill="white"/>
<path d="M347.231 104.574C345.359 103.396 343.799 102.758 342.552 102.659C342.124 102.625 341.773 102.682 341.499 102.828C341.227 102.957 341.078 103.179 341.053 103.495C341.027 103.83 341.21 104.116 341.603 104.353C341.997 104.591 342.63 104.865 343.504 105.178C344.558 105.58 345.427 105.967 346.109 106.339C346.811 106.694 347.397 107.209 347.868 107.883C348.341 108.538 348.537 109.368 348.458 110.373C348.337 111.899 347.647 113.052 346.387 113.832C345.147 114.595 343.577 114.902 341.679 114.752C340.395 114.65 339.181 114.376 338.037 113.93C336.894 113.465 335.895 112.843 335.039 112.064L336.856 108.977C337.665 109.641 338.521 110.176 339.425 110.585C340.349 110.976 341.23 111.205 342.067 111.272C342.551 111.31 342.938 111.266 343.229 111.139C343.54 110.995 343.707 110.774 343.731 110.476C343.76 110.104 343.569 109.799 343.157 109.56C342.764 109.323 342.131 109.048 341.257 108.736C340.221 108.335 339.371 107.959 338.706 107.607C338.042 107.236 337.474 106.723 337.002 106.068C336.548 105.414 336.36 104.594 336.438 103.608C336.559 102.082 337.23 100.936 338.451 100.172C339.674 99.3885 341.198 99.0689 343.021 99.2132C344.119 99.3001 345.187 99.5343 346.224 99.916C347.279 100.299 348.259 100.817 349.162 101.469L347.231 104.574Z" fill="white"/>
<path d="M371.32 116.872L370.254 113.305L361.797 112.636L360.155 115.989L354.908 115.574L364.857 96.6716L370.105 97.0868L376.763 117.303L371.32 116.872ZM363.641 108.85L369.056 109.278L366.929 102.088L363.641 108.85Z" fill="white"/>
<path d="M389.709 102.935C391.365 103.066 392.645 103.692 393.549 104.812C394.472 105.933 394.863 107.378 394.723 109.146L393.97 118.664L389.029 118.273L389.67 110.179C389.737 109.323 389.558 108.634 389.131 108.114C388.705 107.574 388.102 107.274 387.32 107.212C386.5 107.166 385.8 107.382 385.219 107.86C384.656 108.34 384.295 109.004 384.134 109.853L383.503 117.836L378.534 117.443L379.729 102.342L384.697 102.735L384.503 105.192C385.112 104.36 385.853 103.754 386.725 103.373C387.617 102.994 388.611 102.848 389.709 102.935Z" fill="white"/>
<path d="M414.222 99.4256L412.583 120.137L407.614 119.744L407.769 117.79C407.192 118.456 406.507 118.945 405.715 119.256C404.943 119.551 404.082 119.661 403.133 119.586C401.737 119.475 400.535 119.053 399.526 118.317C398.517 117.582 397.761 116.605 397.258 115.385C396.775 114.149 396.595 112.758 396.717 111.214C396.838 109.688 397.232 108.371 397.901 107.263C398.569 106.155 399.449 105.325 400.541 104.775C401.633 104.225 402.868 104.004 404.245 104.113C405.212 104.19 406.063 104.444 406.796 104.877C407.549 105.311 408.167 105.894 408.652 106.625L409.253 99.0325L414.222 99.4256ZM404.67 115.775C405.638 115.852 406.447 115.569 407.097 114.928C407.748 114.268 408.118 113.38 408.206 112.263C408.296 111.128 408.07 110.193 407.529 109.457C406.988 108.721 406.234 108.315 405.267 108.239C404.299 108.162 403.48 108.453 402.81 109.112C402.16 109.753 401.791 110.632 401.703 111.749C401.614 112.865 401.84 113.8 402.379 114.555C402.939 115.292 403.703 115.699 404.67 115.775Z" fill="white"/>
<path d="M422.47 108.252C423.06 107.418 423.783 106.801 424.638 106.401C425.513 106.002 426.48 105.844 427.541 105.928L427.181 110.478C427.015 110.446 426.764 110.417 426.429 110.391C425.257 110.298 424.286 110.502 423.516 111.003C422.748 111.485 422.27 112.196 422.083 113.136L421.474 120.84L416.505 120.447L417.7 105.346L422.668 105.739L422.47 108.252Z" fill="white"/>
<path d="M436.35 106.653C438.807 106.848 440.638 107.723 441.844 109.279C443.051 110.835 443.554 112.878 443.354 115.409C443.323 115.8 443.29 116.097 443.255 116.3L432.76 115.47C432.934 116.345 433.3 117.039 433.859 117.551C434.419 118.045 435.127 118.325 435.983 118.393C436.635 118.445 437.268 118.364 437.884 118.15C438.519 117.938 439.107 117.601 439.65 117.138L442.04 119.94C441.189 120.752 440.187 121.347 439.034 121.724C437.901 122.084 436.636 122.208 435.241 122.098C433.622 121.97 432.233 121.542 431.073 120.813C429.914 120.085 429.054 119.118 428.494 117.913C427.952 116.709 427.742 115.344 427.863 113.818C427.985 112.274 428.418 110.941 429.162 109.82C429.908 108.681 430.901 107.842 432.142 107.304C433.384 106.746 434.787 106.53 436.35 106.653ZM438.664 113.268C438.733 112.394 438.528 111.675 438.048 111.113C437.588 110.534 436.94 110.211 436.102 110.145C435.321 110.083 434.639 110.291 434.059 110.769C433.496 111.249 433.096 111.929 432.858 112.809L438.664 113.268Z" fill="white"/>
<path d="M456.211 113.196C454.338 112.018 452.778 111.38 451.532 111.281C451.104 111.247 450.753 111.304 450.479 111.451C450.207 111.579 450.058 111.801 450.033 112.118C450.007 112.453 450.19 112.739 450.583 112.976C450.976 113.213 451.61 113.488 452.484 113.8C453.538 114.202 454.406 114.589 455.088 114.961C455.791 115.316 456.377 115.831 456.848 116.505C457.321 117.16 457.517 117.99 457.438 118.995C457.317 120.521 456.627 121.674 455.366 122.454C454.126 123.218 452.557 123.524 450.659 123.374C449.375 123.272 448.161 122.999 447.017 122.552C445.874 122.087 444.874 121.465 444.018 120.686L445.836 117.6C446.644 118.263 447.501 118.799 448.405 119.207C449.329 119.599 450.209 119.828 451.047 119.894C451.531 119.932 451.918 119.888 452.209 119.761C452.52 119.617 452.687 119.396 452.711 119.099C452.74 118.726 452.549 118.421 452.137 118.182C451.744 117.945 451.11 117.671 450.236 117.358C449.201 116.958 448.35 116.581 447.685 116.229C447.022 115.858 446.454 115.345 445.982 114.69C445.528 114.036 445.34 113.216 445.418 112.23C445.539 110.704 446.21 109.559 447.431 108.794C448.654 108.011 450.177 107.691 452.001 107.835C453.099 107.922 454.166 108.157 455.203 108.538C456.259 108.921 457.239 109.439 458.142 110.091L456.211 113.196Z" fill="white"/>
<path d="M50.8631 284.041L57.0593 283.475L57.944 293.158L67.5261 292.283L66.6414 282.599L72.8376 282.033L75.006 305.768L68.8098 306.334L67.9777 297.226L58.3956 298.102L59.2277 307.21L53.0315 307.776L50.8631 284.041Z" fill="white"/>
<path d="M86.4227 286.05C88.4091 285.868 90.1946 286.104 91.7791 286.755C93.3616 287.385 94.6354 288.372 95.6005 289.718C96.5635 291.041 97.1296 292.628 97.2987 294.479C97.4699 296.353 97.2028 298.039 96.4975 299.537C95.7902 301.013 94.7164 302.215 93.2762 303.143C91.834 304.049 90.1197 304.592 88.1333 304.774C86.1469 304.955 84.3624 304.731 82.7799 304.102C81.1954 303.45 79.9216 302.463 78.9586 301.139C78.016 299.792 77.4592 298.181 77.288 296.307C77.1189 294.456 77.3768 292.794 78.0615 291.32C78.7668 289.822 79.8406 288.62 81.2828 287.714C82.723 286.786 84.4363 286.231 86.4227 286.05ZM86.8681 290.926C85.6944 291.033 84.7845 291.537 84.1384 292.438C83.4924 293.339 83.2313 294.467 83.355 295.821C83.4808 297.198 83.943 298.271 84.7416 299.041C85.5402 299.81 86.5264 300.141 87.7002 300.034C88.8966 299.924 89.8177 299.419 90.4638 298.518C91.1098 297.617 91.3699 296.478 91.2441 295.101C91.1204 293.746 90.6479 292.686 89.8267 291.918C89.0281 291.149 88.0419 290.818 86.8681 290.926Z" fill="white"/>
<path d="M99.082 278.236L105.109 277.685L107.404 302.809L101.377 303.359L99.082 278.236Z" fill="white"/>
<path d="M118.752 283.062C121.28 282.831 123.298 283.239 124.804 284.285C126.309 285.308 127.169 286.868 127.383 288.966L128.472 300.884L122.546 301.425L122.358 299.36C121.281 301.029 119.513 301.975 117.052 302.2C115.111 302.378 113.528 301.999 112.305 301.063C111.102 300.104 110.422 298.766 110.265 297.05C110.107 295.312 110.581 293.903 111.689 292.823C112.819 291.741 114.512 291.086 116.767 290.857L121.541 290.421L121.523 290.218C121.442 289.338 121.076 288.688 120.423 288.27C119.793 287.849 118.913 287.691 117.785 287.794C117.017 287.864 116.159 288.068 115.211 288.404C114.286 288.739 113.36 289.188 112.432 289.751L110.402 285.839C111.83 285.026 113.207 284.4 114.532 283.96C115.878 283.495 117.285 283.196 118.752 283.062ZM118.54 297.933C119.443 297.851 120.213 297.564 120.851 297.073C121.487 296.56 121.864 295.945 121.98 295.229L121.835 293.638L118.246 293.965C116.553 294.12 115.764 294.83 115.88 296.094C115.937 296.726 116.198 297.214 116.662 297.558C117.147 297.878 117.773 298.003 118.54 297.933Z" fill="white"/>
<path d="M133.876 294.791C134.688 294.717 135.389 294.914 135.978 295.384C136.588 295.829 136.934 296.503 137.017 297.406C137.079 298.083 136.889 298.874 136.448 299.78L134.151 304.53L131.273 304.793L132.622 300.129C131.805 299.658 131.351 298.925 131.261 297.932C131.184 297.097 131.392 296.384 131.885 295.792C132.377 295.201 133.041 294.867 133.876 294.791Z" fill="white"/>
<path d="M165.697 297.483L163.689 293.433L153.429 294.37L152.154 298.72L145.788 299.302L153.811 274.636L160.177 274.054L172.3 296.88L165.697 297.483ZM154.858 289.46L161.427 288.86L157.403 280.692L154.858 289.46Z" fill="white"/>
<path d="M184.84 277.025C186.849 276.841 188.51 277.327 189.822 278.482C191.156 279.634 191.921 281.283 192.117 283.427L193.172 294.973L187.179 295.521L186.282 285.702C186.187 284.663 185.83 283.876 185.213 283.341C184.593 282.783 183.809 282.547 182.86 282.634C181.869 282.747 181.075 283.15 180.478 283.842C179.904 284.532 179.608 285.401 179.59 286.449L180.475 296.133L174.448 296.684L172.774 278.366L178.801 277.815L179.073 280.795C179.631 279.674 180.393 278.797 181.359 278.162C182.348 277.526 183.509 277.146 184.84 277.025Z" fill="white"/>
<path d="M213.455 267.787L215.75 292.911L209.723 293.461L209.506 291.091C208.953 292.007 208.234 292.732 207.35 293.268C206.486 293.78 205.478 294.088 204.327 294.193C202.634 294.348 201.108 294.089 199.75 293.416C198.391 292.744 197.285 291.73 196.433 290.373C195.601 288.993 195.1 287.366 194.929 285.492C194.76 283.641 194.961 281.984 195.533 280.52C196.105 279.057 196.988 277.884 198.182 277.001C199.376 276.118 200.808 275.6 202.478 275.448C203.652 275.34 204.722 275.47 205.689 275.837C206.678 276.202 207.538 276.772 208.269 277.547L207.428 268.338L213.455 267.787ZM205.384 289.317C206.558 289.209 207.468 288.705 208.114 287.804C208.758 286.88 209.018 285.741 208.894 284.387C208.768 283.01 208.306 281.937 207.507 281.168C206.709 280.399 205.723 280.068 204.549 280.175C203.375 280.282 202.455 280.799 201.788 281.724C201.142 282.626 200.881 283.753 201.005 285.108C201.129 286.462 201.591 287.535 202.392 288.327C203.213 289.094 204.21 289.424 205.384 289.317Z" fill="white"/>
<path d="M225.14 276.655C225.675 275.536 226.413 274.649 227.355 273.994C228.319 273.337 229.445 272.95 230.731 272.832L231.235 278.351C231.03 278.347 230.724 278.364 230.318 278.401C228.896 278.531 227.776 278.975 226.957 279.732C226.137 280.467 225.711 281.417 225.681 282.58L226.535 291.925L220.508 292.476L218.834 274.158L224.861 273.608L225.14 276.655Z" fill="white"/>
<path d="M241.423 271.89C244.403 271.618 246.774 272.289 248.538 273.903C250.301 275.517 251.323 277.859 251.604 280.929C251.647 281.403 251.669 281.765 251.669 282.016L238.938 283.179C239.326 284.19 239.907 284.945 240.681 285.443C241.453 285.919 242.358 286.11 243.396 286.015C244.186 285.943 244.928 285.716 245.622 285.334C246.338 284.949 246.973 284.425 247.526 283.76L250.963 286.621C250.112 287.768 249.035 288.686 247.732 289.374C246.45 290.038 244.962 290.447 243.269 290.601C241.305 290.781 239.555 290.554 238.017 289.92C236.48 289.287 235.252 288.307 234.335 286.979C233.439 285.65 232.907 284.06 232.738 282.209C232.567 280.335 232.811 278.651 233.471 277.157C234.129 275.64 235.146 274.432 236.52 273.533C237.893 272.611 239.527 272.063 241.423 271.89ZM245.551 279.331C245.454 278.27 245.061 277.453 244.371 276.878C243.702 276.279 242.859 276.026 241.844 276.119C240.896 276.206 240.123 276.595 239.526 277.287C238.952 277.976 238.613 278.872 238.509 279.974L245.551 279.331Z" fill="white"/>
<path d="M262.025 269.974C264.553 269.743 266.57 270.15 268.077 271.196C269.582 272.219 270.441 273.78 270.655 275.877L271.744 287.795L265.819 288.336L265.63 286.271C264.554 287.94 262.785 288.887 260.325 289.112C258.383 289.289 256.801 288.91 255.578 287.975C254.375 287.015 253.695 285.677 253.538 283.962C253.379 282.224 253.854 280.815 254.961 279.735C256.092 278.653 257.784 277.997 260.04 277.768L264.814 277.332L264.795 277.129C264.715 276.249 264.348 275.599 263.695 275.181C263.065 274.761 262.186 274.602 261.057 274.705C260.29 274.775 259.432 274.979 258.484 275.316C257.559 275.651 256.632 276.1 255.705 276.662L253.675 272.751C255.103 271.937 256.479 271.311 257.805 270.871C259.151 270.407 260.557 270.108 262.025 269.974ZM261.813 284.844C262.716 284.762 263.486 284.475 264.124 283.985C264.76 283.471 265.136 282.857 265.253 282.14L265.107 280.549L261.518 280.877C259.825 281.031 259.037 281.741 259.152 283.005C259.21 283.637 259.471 284.125 259.935 284.47C260.419 284.79 261.045 284.915 261.813 284.844Z" fill="white"/>
<path d="M59.6686 338.631C58.4139 338.746 57.3808 338.576 56.5694 338.121C55.7646 337.666 55.1852 336.965 54.8311 336.02C54.4764 335.069 54.3572 333.911 54.4737 332.548L55.1565 324.744L57.6561 324.516L56.9636 332.873C56.9024 333.669 56.9591 334.326 57.1338 334.846C57.3151 335.365 57.614 335.743 58.0306 335.979C58.4465 336.209 58.9765 336.294 59.6205 336.235C60.1251 336.189 60.5916 336.056 61.02 335.836C61.4485 335.617 61.8044 335.263 62.0879 334.775C62.378 334.287 62.5575 333.614 62.6266 332.758L63.3624 323.994L65.852 323.767L65.1054 332.742C65.0208 333.794 64.8241 334.682 64.5154 335.407C64.2067 336.131 63.8086 336.72 63.3211 337.173C62.8397 337.618 62.2882 337.957 61.6666 338.187C61.045 338.418 60.379 338.566 59.6686 338.631Z" fill="white"/>
<path d="M70.5988 337.633C69.7888 337.706 69.1815 337.508 68.7769 337.036C68.3783 336.557 68.2181 335.828 68.2961 334.85L68.7446 329.427L67.1512 329.573L67.3368 327.427L68.9202 327.282L69.2084 323.842L71.6433 322.796L71.2903 327.066L73.4911 326.865L73.3155 329.01L71.1147 329.211L70.6833 334.381C70.6419 334.807 70.6752 335.098 70.7833 335.256C70.8974 335.406 71.1172 335.466 71.4425 335.437C71.6815 335.415 71.9078 335.364 72.1214 335.284C72.3417 335.204 72.6105 335.069 72.9279 334.879L72.65 337.003C72.0991 337.348 71.4154 337.558 70.5988 337.633Z" fill="white"/>
<path d="M74.5843 337.027L75.4471 326.686L77.8371 326.468L76.9743 336.809L74.5843 337.027ZM76.7356 325.183C76.4236 325.211 76.148 325.126 75.9089 324.927C75.6764 324.727 75.5454 324.465 75.5156 324.139C75.4762 323.708 75.598 323.318 75.8809 322.971C76.1698 322.617 76.5268 322.42 76.9517 322.381C77.2836 322.351 77.5658 322.436 77.7983 322.635C78.0307 322.835 78.1618 323.098 78.1916 323.423C78.2316 323.861 78.1068 324.254 77.8173 324.602C77.5277 324.95 77.1672 325.143 76.7356 325.183Z" fill="white"/>
<path d="M79.8885 336.543L81.0294 322.762L83.4843 321.714L82.2586 336.326L79.8885 336.543Z" fill="white"/>
<path d="M85.3084 336.048L86.1711 325.706L88.5612 325.488L87.6984 335.829L85.3084 336.048ZM87.4597 324.203C87.1477 324.231 86.8721 324.146 86.633 323.947C86.4005 323.747 86.2695 323.485 86.2397 323.16C86.2003 322.728 86.3221 322.339 86.605 321.991C86.8939 321.637 87.2509 321.44 87.6758 321.402C88.0077 321.371 88.2899 321.456 88.5224 321.656C88.7548 321.855 88.8859 322.118 88.9157 322.443C88.9557 322.881 88.8309 323.274 88.5414 323.622C88.2518 323.97 87.8913 324.163 87.4597 324.203Z" fill="white"/>
<path d="M90.1744 335.603L90.3229 333.712L95.6951 327.005L91.2137 327.415L91.3857 325.23L99.0239 324.532L98.8789 326.353L93.4824 333.122L98.3222 332.68L98.1412 334.875L90.1744 335.603Z" fill="white"/>
<path d="M103.729 334.606C102.753 334.695 101.965 334.496 101.365 334.008C100.771 333.514 100.433 332.825 100.353 331.942C100.285 331.198 100.408 330.531 100.722 329.94C101.042 329.342 101.517 328.86 102.146 328.495C102.782 328.122 103.541 327.895 104.424 327.814C104.855 327.775 105.285 327.786 105.712 327.847C106.146 327.902 106.506 328.002 106.794 328.15L106.842 327.574C106.913 326.958 106.805 326.506 106.517 326.217C106.236 325.922 105.8 325.801 105.209 325.855C104.711 325.9 104.188 326.039 103.64 326.269C103.098 326.493 102.58 326.795 102.086 327.175L101.569 325.254C102.157 324.798 102.77 324.444 103.41 324.192C104.049 323.932 104.707 323.772 105.385 323.71C106.201 323.635 106.903 323.735 107.491 324.01C108.085 324.283 108.531 324.705 108.831 325.273C109.131 325.841 109.25 326.523 109.189 327.319L108.647 333.916L106.286 334.131L106.351 333.302C106.082 333.648 105.707 333.94 105.226 334.178C104.746 334.416 104.247 334.559 103.729 334.606ZM104.172 332.427C104.591 332.388 105.008 332.27 105.425 332.071C105.842 331.872 106.21 331.608 106.528 331.277L106.619 330.074C106.36 329.957 106.061 329.871 105.721 329.815C105.381 329.759 105.026 329.748 104.654 329.782C104.216 329.822 103.843 329.919 103.536 330.075C103.235 330.223 103.008 330.417 102.856 330.659C102.71 330.893 102.651 331.16 102.678 331.458C102.71 331.804 102.86 332.061 103.13 332.23C103.4 332.4 103.748 332.465 104.172 332.427Z" fill="white"/>
<path d="M111.46 333.659L112.323 323.317L114.703 323.1L114.607 324.143C114.811 323.736 115.105 323.398 115.489 323.128C115.878 322.852 116.286 322.694 116.711 322.655C117.355 322.596 117.938 322.791 118.461 323.238L117.957 325.524C117.727 325.351 117.471 325.227 117.19 325.152C116.914 325.07 116.641 325.042 116.368 325.066C115.99 325.101 115.654 325.232 115.36 325.46C115.072 325.68 114.835 325.98 114.649 326.358C114.469 326.73 114.358 327.165 114.316 327.664L113.84 333.441L111.46 333.659Z" fill="white"/>
<path d="M128.911 332.305C128.081 332.381 127.342 332.281 126.695 332.006C126.046 331.724 125.52 331.276 125.116 330.664C124.712 330.051 124.467 329.28 124.383 328.351C124.309 327.541 124.36 326.75 124.537 325.977C124.714 325.198 125.01 324.488 125.427 323.847C125.851 323.206 126.385 322.679 127.03 322.265C127.675 321.851 128.426 321.605 129.282 321.527C130.099 321.452 130.808 321.558 131.41 321.845C132.018 322.13 132.5 322.565 132.854 323.149C133.208 323.726 133.422 324.412 133.494 325.209C133.53 325.594 133.531 325.975 133.499 326.353C133.472 326.724 133.412 327.094 133.319 327.464L126.796 328.06C126.841 328.551 126.959 328.959 127.149 329.283C127.345 329.6 127.601 329.834 127.916 329.986C128.237 330.131 128.604 330.185 129.015 330.147C129.413 330.111 129.81 329.981 130.205 329.757C130.606 329.533 130.942 329.255 131.213 328.922L132.572 330.384C132.131 330.913 131.615 331.349 131.024 331.691C130.439 332.025 129.734 332.23 128.911 332.305ZM126.968 325.986L131.2 325.599C131.176 325.18 131.086 324.82 130.931 324.519C130.776 324.212 130.554 323.985 130.266 323.837C129.984 323.682 129.644 323.623 129.246 323.659C128.834 323.697 128.47 323.817 128.154 324.02C127.837 324.216 127.577 324.484 127.374 324.824C127.17 325.157 127.035 325.545 126.968 325.986Z" fill="white"/>
<path d="M135.298 331.481L136.439 317.7L138.893 316.652L137.668 331.264L135.298 331.481Z" fill="white"/>
<path d="M145.661 330.534L146.524 320.193L148.924 319.974L148.828 321.017C149.109 320.576 149.463 320.229 149.888 319.976C150.32 319.716 150.781 319.563 151.272 319.518C152.009 319.451 152.633 319.574 153.144 319.889C153.654 320.204 154.03 320.685 154.27 321.333C154.509 321.974 154.59 322.753 154.513 323.67L153.996 329.773L151.606 329.991L152.097 324.152C152.169 323.329 152.081 322.728 151.832 322.349C151.589 321.963 151.186 321.795 150.621 321.847C150.057 321.898 149.585 322.149 149.204 322.599C148.823 323.042 148.6 323.615 148.537 324.317L148.031 330.318L145.661 330.534Z" fill="white"/>
<path d="M161.18 329.357C159.926 329.472 158.914 329.176 158.147 328.47C157.386 327.763 156.942 326.709 156.814 325.308C156.702 324.08 156.828 322.977 157.194 322C157.56 321.022 158.121 320.231 158.875 319.627C159.63 319.022 160.532 318.672 161.581 318.576C162.756 318.469 163.728 318.775 164.497 319.495C165.265 320.208 165.709 321.218 165.828 322.526C165.942 323.774 165.82 324.897 165.463 325.893C165.105 326.89 164.556 327.693 163.815 328.303C163.081 328.913 162.203 329.264 161.18 329.357ZM161.147 327.011C161.665 326.963 162.108 326.762 162.477 326.407C162.853 326.045 163.127 325.571 163.301 324.986C163.475 324.395 163.528 323.734 163.462 323.004C163.396 322.286 163.189 321.743 162.841 321.373C162.499 321.003 162.043 320.844 161.472 320.896C160.967 320.942 160.527 321.146 160.152 321.508C159.783 321.87 159.509 322.344 159.328 322.929C159.154 323.514 159.099 324.165 159.165 324.882C159.232 325.619 159.437 326.173 159.778 326.543C160.126 326.906 160.582 327.062 161.147 327.011Z" fill="white"/>
<path d="M167.647 328.526L168.51 318.184L170.84 317.971L170.766 318.922C171.077 318.512 171.452 318.187 171.892 317.946C172.338 317.697 172.813 317.55 173.318 317.504C173.822 317.458 174.29 317.552 174.719 317.788C175.149 318.016 175.477 318.351 175.705 318.792C176.078 318.256 176.518 317.841 177.027 317.547C177.542 317.245 178.128 317.065 178.785 317.005C179.489 316.94 180.099 317.059 180.615 317.36C181.13 317.654 181.518 318.09 181.779 318.669C182.045 319.241 182.144 319.918 182.075 320.701L181.519 327.258L179.089 327.48L179.592 321.329C179.651 320.654 179.554 320.144 179.301 319.799C179.056 319.453 178.68 319.304 178.176 319.35C177.685 319.395 177.263 319.614 176.91 320.008C176.565 320.401 176.362 320.935 176.304 321.609L175.793 327.781L173.343 328.005L173.866 321.852C173.918 321.185 173.819 320.678 173.566 320.333C173.32 319.981 172.944 319.828 172.44 319.874C171.942 319.919 171.51 320.143 171.145 320.544C170.786 320.939 170.58 321.47 170.528 322.137L170.017 328.309L167.647 328.526Z" fill="white"/>
<path d="M189.12 326.805C188.642 326.849 188.188 326.786 187.757 326.618C187.326 326.443 187.002 326.195 186.786 325.873L186.708 326.784L184.378 326.997L185.519 313.216L187.984 312.168L187.56 317.197C187.83 316.858 188.159 316.583 188.549 316.374C188.938 316.164 189.352 316.039 189.79 315.999C190.44 315.94 191.031 316.07 191.563 316.39C192.101 316.709 192.539 317.184 192.878 317.816C193.216 318.441 193.424 319.182 193.503 320.038C193.616 321.28 193.504 322.395 193.165 323.383C192.834 324.37 192.321 325.167 191.627 325.773C190.931 326.372 190.096 326.716 189.12 326.805ZM188.71 324.513C189.248 324.464 189.708 324.261 190.09 323.905C190.472 323.542 190.753 323.068 190.934 322.482C191.121 321.889 191.181 321.221 191.113 320.477C191.048 319.767 190.838 319.227 190.483 318.858C190.134 318.482 189.68 318.319 189.123 318.37C188.797 318.399 188.467 318.52 188.131 318.731C187.796 318.943 187.541 319.19 187.366 319.474L187.005 323.765C187.19 324.036 187.426 324.238 187.713 324.373C188.006 324.5 188.338 324.547 188.71 324.513Z" fill="white"/>
<path d="M195.215 326.007L196.078 315.666L198.458 315.448L198.362 316.491C198.566 316.084 198.86 315.746 199.244 315.477C199.633 315.2 200.041 315.043 200.466 315.004C201.11 314.945 201.693 315.139 202.216 315.587L201.712 317.872C201.482 317.699 201.226 317.575 200.945 317.501C200.67 317.419 200.396 317.39 200.124 317.415C199.745 317.45 199.409 317.581 199.115 317.808C198.827 318.029 198.59 318.328 198.404 318.707C198.224 319.078 198.113 319.513 198.071 320.012L197.595 325.79L195.215 326.007Z" fill="white"/>
<path d="M207.207 325.153C206.377 325.228 205.638 325.129 204.99 324.853C204.342 324.571 203.816 324.124 203.412 323.511C203.008 322.899 202.763 322.128 202.678 321.198C202.604 320.388 202.656 319.597 202.833 318.824C203.01 318.045 203.306 317.335 203.723 316.695C204.146 316.053 204.681 315.526 205.326 315.112C205.971 314.698 206.721 314.452 207.578 314.374C208.394 314.3 209.104 314.406 209.706 314.692C210.314 314.978 210.796 315.412 211.15 315.996C211.504 316.573 211.718 317.26 211.79 318.056C211.826 318.441 211.827 318.823 211.794 319.201C211.768 319.571 211.708 319.942 211.615 320.312L205.092 320.907C205.137 321.399 205.254 321.806 205.445 322.13C205.641 322.447 205.897 322.682 206.212 322.834C206.533 322.978 206.899 323.032 207.311 322.994C207.709 322.958 208.106 322.828 208.5 322.604C208.902 322.38 209.238 322.102 209.509 321.769L210.867 323.232C210.427 323.761 209.911 324.196 209.32 324.538C208.734 324.873 208.03 325.077 207.207 325.153ZM205.264 318.833L209.496 318.447C209.471 318.027 209.382 317.667 209.227 317.367C209.072 317.059 208.85 316.832 208.562 316.684C208.28 316.529 207.94 316.47 207.542 316.506C207.13 316.544 206.766 316.664 206.45 316.867C206.133 317.063 205.873 317.332 205.67 317.671C205.466 318.005 205.331 318.392 205.264 318.833Z" fill="white"/>
<path d="M223.88 327.405L224.301 322.557C224 322.926 223.655 323.215 223.266 323.425C222.876 323.634 222.436 323.761 221.945 323.806C221.327 323.863 220.764 323.74 220.254 323.439C219.745 323.137 219.322 322.684 218.985 322.078C218.655 321.466 218.451 320.735 218.373 319.885C218.264 318.69 218.368 317.589 218.684 316.583C219.007 315.569 219.513 314.74 220.204 314.094C220.895 313.449 221.751 313.079 222.774 312.986C223.272 312.94 223.719 312.997 224.115 313.155C224.51 313.306 224.82 313.549 225.045 313.883L225.096 313.015L227.476 312.797L226.365 326.355L223.88 327.405ZM222.65 321.412C223.008 321.379 223.353 321.264 223.683 321.067C224.012 320.863 224.279 320.601 224.485 320.281L224.834 316.081C224.722 315.81 224.515 315.598 224.214 315.445C223.911 315.285 223.584 315.222 223.232 315.254C222.688 315.303 222.215 315.521 221.815 315.905C221.421 316.283 221.129 316.778 220.937 317.391C220.745 317.998 220.682 318.67 220.75 319.407C220.813 320.097 221.011 320.618 221.344 320.969C221.684 321.313 222.119 321.461 222.65 321.412Z" fill="white"/>
<path d="M232.809 322.814C232.118 322.877 231.524 322.75 231.027 322.434C230.53 322.118 230.159 321.65 229.915 321.03C229.677 320.402 229.592 319.66 229.661 318.804L230.184 312.55L232.564 312.333L232.073 318.161C232.001 318.985 232.089 319.589 232.339 319.975C232.588 320.36 232.988 320.528 233.539 320.478C234.15 320.422 234.644 320.183 235.02 319.76C235.397 319.337 235.61 318.782 235.661 318.095L236.169 312.003L238.539 311.787L237.677 322.128L235.307 322.345L235.378 321.364C235.037 321.817 234.664 322.159 234.256 322.39C233.856 322.621 233.373 322.762 232.809 322.814Z" fill="white"/>
<path d="M245.071 321.694C244.241 321.769 243.502 321.67 242.855 321.394C242.206 321.112 241.68 320.664 241.276 320.052C240.872 319.44 240.627 318.669 240.543 317.739C240.469 316.929 240.52 316.138 240.697 315.365C240.874 314.586 241.17 313.876 241.587 313.235C242.011 312.594 242.545 312.067 243.19 311.653C243.835 311.239 244.586 310.993 245.442 310.915C246.259 310.841 246.968 310.946 247.57 311.233C248.178 311.519 248.66 311.953 249.014 312.537C249.368 313.114 249.582 313.8 249.655 314.597C249.69 314.982 249.691 315.364 249.659 315.742C249.632 316.112 249.572 316.482 249.479 316.852L242.956 317.448C243.001 317.94 243.119 318.347 243.309 318.671C243.505 318.988 243.761 319.223 244.076 319.374C244.397 319.519 244.764 319.573 245.175 319.535C245.574 319.499 245.97 319.369 246.365 319.145C246.766 318.921 247.102 318.643 247.373 318.31L248.732 319.773C248.291 320.302 247.775 320.737 247.184 321.079C246.599 321.413 245.894 321.618 245.071 321.694ZM243.128 315.374L247.361 314.987C247.336 314.568 247.246 314.208 247.091 313.907C246.936 313.6 246.714 313.373 246.426 313.225C246.144 313.07 245.804 313.011 245.406 313.047C244.994 313.085 244.63 313.205 244.314 313.408C243.997 313.604 243.737 313.872 243.534 314.212C243.33 314.546 243.195 314.933 243.128 315.374Z" fill="white"/>
<path d="M256.411 320.417L257.552 306.636L260.007 305.588L258.781 320.2L256.411 320.417Z" fill="white"/>
<path d="M264.821 319.889C263.845 319.978 263.057 319.779 262.456 319.292C261.862 318.797 261.525 318.108 261.444 317.225C261.376 316.482 261.499 315.815 261.814 315.224C262.134 314.625 262.609 314.143 263.238 313.778C263.873 313.405 264.633 313.179 265.516 313.098C265.947 313.059 266.377 313.069 266.804 313.131C267.237 313.185 267.598 313.286 267.886 313.434L267.934 312.857C268.005 312.241 267.896 311.789 267.609 311.501C267.328 311.205 266.891 311.084 266.301 311.138C265.803 311.184 265.28 311.322 264.732 311.553C264.19 311.776 263.672 312.078 263.178 312.458L262.661 310.537C263.248 310.082 263.862 309.728 264.502 309.475C265.141 309.216 265.799 309.055 266.476 308.994C267.293 308.919 267.995 309.019 268.582 309.293C269.176 309.567 269.623 309.988 269.923 310.556C270.222 311.125 270.342 311.807 270.28 312.602L269.738 319.199L267.378 319.415L267.443 318.585C267.173 318.931 266.798 319.223 266.318 319.461C265.838 319.699 265.338 319.842 264.821 319.889ZM265.264 317.71C265.682 317.672 266.1 317.553 266.517 317.354C266.934 317.156 267.301 316.891 267.619 316.561L267.71 315.358C267.452 315.241 267.153 315.154 266.813 315.098C266.473 315.042 266.117 315.031 265.746 315.065C265.307 315.105 264.935 315.203 264.628 315.358C264.326 315.506 264.1 315.701 263.948 315.942C263.802 316.177 263.743 316.443 263.77 316.742C263.801 317.087 263.952 317.344 264.222 317.514C264.492 317.683 264.839 317.749 265.264 317.71Z" fill="white"/>
<path d="M277.021 322.611L278.232 308.161L280.632 307.941L280.548 308.782C281.12 308.014 281.891 307.585 282.86 307.497C283.498 307.439 284.072 307.567 284.583 307.882C285.1 308.196 285.524 308.659 285.854 309.272C286.191 309.884 286.398 310.608 286.475 311.444C286.587 312.679 286.472 313.801 286.129 314.81C285.792 315.811 285.274 316.625 284.575 317.251C283.882 317.87 283.06 318.223 282.111 318.31C281.626 318.354 281.19 318.307 280.803 318.168C280.422 318.029 280.096 317.798 279.826 317.474L279.496 321.561L277.021 322.611ZM281.781 316.01C282.318 315.961 282.772 315.759 283.141 315.404C283.516 315.042 283.787 314.565 283.954 313.974C284.127 313.376 284.179 312.695 284.109 311.932C284.044 311.221 283.845 310.687 283.511 310.329C283.184 309.971 282.748 309.817 282.203 309.866C281.832 309.9 281.469 310.031 281.114 310.257C280.767 310.483 280.507 310.758 280.336 311.081L280.011 315.218C280.178 315.504 280.418 315.716 280.732 315.855C281.046 315.994 281.395 316.045 281.781 316.01Z" fill="white"/>
<path d="M292.959 317.319C292.129 317.395 291.391 317.295 290.743 317.019C290.094 316.737 289.568 316.29 289.164 315.677C288.76 315.065 288.516 314.294 288.431 313.364C288.357 312.554 288.408 311.763 288.585 310.99C288.762 310.211 289.058 309.501 289.475 308.861C289.899 308.219 290.433 307.692 291.078 307.278C291.723 306.865 292.474 306.619 293.33 306.54C294.147 306.466 294.856 306.572 295.458 306.858C296.066 307.144 296.548 307.579 296.903 308.162C297.256 308.739 297.47 309.426 297.543 310.222C297.578 310.607 297.579 310.989 297.547 311.367C297.52 311.737 297.46 312.108 297.367 312.478L290.844 313.074C290.889 313.565 291.007 313.972 291.197 314.297C291.393 314.613 291.649 314.848 291.964 315C292.285 315.144 292.652 315.198 293.063 315.16C293.462 315.124 293.858 314.994 294.253 314.77C294.654 314.546 294.99 314.268 295.261 313.935L296.62 315.398C296.179 315.927 295.663 316.362 295.072 316.704C294.487 317.039 293.782 317.244 292.959 317.319ZM291.016 310.999L295.249 310.613C295.224 310.193 295.134 309.833 294.979 309.533C294.824 309.226 294.602 308.998 294.314 308.85C294.032 308.695 293.692 308.636 293.294 308.672C292.882 308.71 292.518 308.83 292.202 309.033C291.886 309.23 291.625 309.498 291.422 309.838C291.218 310.171 291.083 310.558 291.016 310.999Z" fill="white"/>
<path d="M299.452 316.485L300.315 306.143L302.695 305.926L302.599 306.969C302.803 306.562 303.097 306.224 303.481 305.954C303.87 305.678 304.278 305.52 304.703 305.481C305.347 305.422 305.93 305.617 306.453 306.064L305.949 308.35C305.719 308.177 305.463 308.053 305.182 307.978C304.907 307.896 304.633 307.868 304.361 307.892C303.982 307.927 303.646 308.058 303.352 308.286C303.064 308.506 302.827 308.806 302.641 309.184C302.461 309.555 302.35 309.991 302.308 310.49L301.832 316.267L299.452 316.485Z" fill="white"/>
<path d="M310.819 315.687C310.275 315.737 309.746 315.705 309.234 315.591C308.722 315.484 308.264 315.308 307.86 315.064C307.456 314.819 307.138 314.521 306.905 314.167L308.515 312.674C308.849 313.025 309.217 313.28 309.619 313.437C310.029 313.594 310.442 313.653 310.861 313.615C311.332 313.572 311.702 313.444 311.97 313.232C312.238 313.014 312.358 312.748 312.33 312.436C312.308 312.204 312.172 311.999 311.922 311.821C311.677 311.636 311.241 311.438 310.612 311.227C309.57 310.881 308.814 310.481 308.344 310.029C307.874 309.576 307.611 309.035 307.553 308.404C307.496 307.78 307.609 307.217 307.891 306.716C308.18 306.215 308.604 305.808 309.165 305.495C309.725 305.176 310.393 304.981 311.17 304.911C311.894 304.844 312.578 304.933 313.223 305.175C313.874 305.417 314.372 305.773 314.716 306.243L313.1 307.676C312.579 307.108 311.934 306.859 311.164 306.929C310.759 306.966 310.432 307.087 310.182 307.29C309.933 307.487 309.82 307.722 309.845 307.994C309.865 308.213 309.983 308.4 310.198 308.554C310.412 308.709 310.827 308.888 311.442 309.093C312.533 309.455 313.327 309.875 313.826 310.351C314.331 310.821 314.614 311.391 314.675 312.061C314.766 313.051 314.463 313.875 313.766 314.534C313.07 315.187 312.087 315.571 310.819 315.687Z" fill="white"/>
<path d="M320.781 314.777C319.526 314.892 318.515 314.596 317.747 313.889C316.986 313.182 316.542 312.128 316.414 310.728C316.302 309.499 316.429 308.397 316.795 307.419C317.161 306.442 317.721 305.651 318.476 305.046C319.231 304.442 320.132 304.092 321.181 303.996C322.356 303.889 323.328 304.195 324.097 304.914C324.865 305.628 325.309 306.638 325.428 307.946C325.542 309.194 325.421 310.316 325.063 311.313C324.706 312.31 324.156 313.113 323.416 313.723C322.681 314.332 321.803 314.684 320.781 314.777ZM320.747 312.43C321.265 312.383 321.708 312.182 322.078 311.827C322.453 311.465 322.728 310.991 322.902 310.406C323.075 309.814 323.129 309.153 323.062 308.423C322.996 307.706 322.789 307.163 322.441 306.793C322.099 306.422 321.643 306.263 321.072 306.316C320.567 306.362 320.127 306.566 319.752 306.928C319.384 307.29 319.109 307.763 318.928 308.349C318.754 308.934 318.7 309.585 318.765 310.302C318.832 311.039 319.037 311.593 319.379 311.963C319.726 312.326 320.183 312.482 320.747 312.43Z" fill="white"/>
<path d="M327.247 313.945L328.11 303.604L330.51 303.385L330.414 304.428C330.695 303.987 331.049 303.64 331.474 303.387C331.906 303.127 332.367 302.974 332.858 302.929C333.595 302.862 334.219 302.986 334.73 303.3C335.241 303.615 335.616 304.096 335.856 304.744C336.095 305.385 336.176 306.164 336.099 307.082L335.582 313.184L333.192 313.402L333.683 307.563C333.755 306.74 333.667 306.139 333.418 305.76C333.175 305.374 332.772 305.207 332.207 305.258C331.643 305.31 331.171 305.56 330.79 306.01C330.409 306.453 330.187 307.026 330.123 307.728L329.617 313.729L327.247 313.945Z" fill="white"/>
<path d="M341.444 312.889C340.468 312.979 339.68 312.779 339.08 312.292C338.485 311.797 338.148 311.109 338.067 310.226C337.999 309.482 338.123 308.815 338.437 308.224C338.757 307.625 339.232 307.143 339.861 306.778C340.497 306.405 341.256 306.179 342.139 306.098C342.57 306.059 343 306.07 343.427 306.131C343.86 306.185 344.221 306.286 344.509 306.434L344.557 305.857C344.628 305.241 344.52 304.789 344.232 304.501C343.951 304.205 343.515 304.085 342.924 304.138C342.426 304.184 341.903 304.322 341.355 304.553C340.813 304.776 340.295 305.078 339.801 305.458L339.284 303.537C339.872 303.082 340.485 302.728 341.125 302.475C341.764 302.216 342.422 302.055 343.099 301.994C343.916 301.919 344.618 302.019 345.205 302.293C345.799 302.567 346.246 302.988 346.546 303.557C346.845 304.125 346.965 304.807 346.903 305.602L346.361 312.199L344.001 312.415L344.066 311.585C343.796 311.931 343.421 312.223 342.941 312.461C342.461 312.699 341.962 312.842 341.444 312.889ZM341.887 310.71C342.306 310.672 342.723 310.553 343.14 310.355C343.557 310.156 343.925 309.891 344.242 309.561L344.333 308.358C344.075 308.241 343.776 308.154 343.436 308.098C343.096 308.042 342.74 308.031 342.369 308.065C341.93 308.105 341.558 308.203 341.251 308.358C340.95 308.506 340.723 308.701 340.571 308.942C340.425 309.177 340.366 309.443 340.393 309.742C340.425 310.087 340.575 310.345 340.845 310.514C341.115 310.684 341.462 310.749 341.887 310.71Z" fill="white"/>
<path d="M55.7664 366.923L56.9768 352.473L59.3768 352.254L59.293 353.095C59.8654 352.327 60.6363 351.898 61.6056 351.809C62.2429 351.751 62.817 351.88 63.3278 352.194C63.8452 352.509 64.2691 352.972 64.5995 353.584C64.9366 354.196 65.1433 354.921 65.2197 355.757C65.3325 356.992 65.2174 358.114 64.8745 359.122C64.5375 360.124 64.0194 360.938 63.3201 361.564C62.6269 362.183 61.8056 362.536 60.8562 362.622C60.3716 362.667 59.9355 362.62 59.5479 362.481C59.167 362.342 58.8413 362.11 58.5707 361.787L58.2412 365.874L55.7664 366.923ZM60.5257 360.323C61.0634 360.274 61.5169 360.072 61.8861 359.717C62.2614 359.354 62.5325 358.878 62.6994 358.287C62.8724 357.689 62.924 357.008 62.8542 356.244C62.7893 355.534 62.5899 355 62.256 354.642C61.9287 354.284 61.4929 354.129 60.9485 354.179C60.5767 354.213 60.2137 354.343 59.8595 354.57C59.5119 354.796 59.2525 355.07 59.0812 355.394L58.7562 359.531C58.9229 359.817 59.1633 360.029 59.4772 360.168C59.7911 360.306 60.1406 360.358 60.5257 360.323Z" fill="white"/>
<path d="M67.0389 361.817L67.9016 351.475L70.2817 351.258L70.1862 352.301C70.39 351.894 70.6838 351.556 71.0676 351.286C71.4574 351.01 71.8647 350.852 72.2896 350.813C72.9336 350.755 73.517 350.949 74.0399 351.397L73.5357 353.682C73.3057 353.509 73.05 353.385 72.7687 353.31C72.4935 353.228 72.2197 353.2 71.9475 353.224C71.5691 353.259 71.233 353.39 70.9391 353.618C70.6513 353.838 70.4143 354.138 70.2279 354.516C70.0476 354.888 69.9368 355.323 69.8953 355.822L69.419 361.599L67.0389 361.817Z" fill="white"/>
<path d="M79.0309 360.962C78.201 361.038 77.4622 360.938 76.8144 360.663C76.166 360.38 75.6398 359.933 75.2358 359.321C74.8317 358.708 74.5872 357.937 74.5023 357.008C74.4283 356.198 74.4799 355.406 74.657 354.634C74.8335 353.855 75.1301 353.145 75.5469 352.504C75.9703 351.863 76.5046 351.335 77.1496 350.922C77.7946 350.508 78.5454 350.262 79.4018 350.184C80.2184 350.109 80.9277 350.215 81.5295 350.501C82.1381 350.787 82.6196 351.222 82.9742 351.805C83.3281 352.382 83.5415 353.069 83.6143 353.866C83.6494 354.251 83.6508 354.632 83.6184 355.01C83.592 355.381 83.5321 355.751 83.4387 356.121L76.9159 356.717C76.9608 357.208 77.0783 357.616 77.2686 357.94C77.4649 358.257 77.7206 358.491 78.0357 358.643C78.3569 358.788 78.7233 358.841 79.1349 358.804C79.5333 358.767 79.9298 358.637 80.3244 358.414C80.7257 358.19 81.0617 357.911 81.3326 357.579L82.6913 359.041C82.2509 359.57 81.735 360.005 81.1437 360.347C80.5584 360.682 79.8541 360.887 79.0309 360.962ZM77.0879 354.643L81.3203 354.256C81.2953 353.837 81.2055 353.477 81.0509 353.176C80.8956 352.869 80.674 352.641 80.386 352.494C80.1041 352.339 79.764 352.279 79.3656 352.316C78.954 352.353 78.5901 352.474 78.2739 352.677C77.9571 352.873 77.6971 353.141 77.4939 353.481C77.29 353.814 77.1547 354.201 77.0879 354.643Z" fill="white"/>
<path d="M85.6724 360.114L86.3496 351.919L84.9853 352.043L85.1509 349.899L86.5351 349.773L86.6675 348.144C86.7359 347.355 86.9997 346.725 87.4588 346.254C87.918 345.784 88.5226 345.515 89.2728 345.446C89.5981 345.416 89.9377 345.432 90.2914 345.494C90.6445 345.548 90.9883 345.647 91.3227 345.791L91.1443 347.795C90.8745 347.7 90.6309 347.635 90.4136 347.601C90.1963 347.567 89.9848 347.56 89.779 347.579C89.5466 347.6 89.3665 347.68 89.2386 347.819C89.1107 347.958 89.0323 348.162 89.0034 348.433L88.9053 349.556L90.9368 349.371L90.7512 351.517L88.7297 351.701L88.0425 359.898L85.6724 360.114Z" fill="white"/>
<path d="M91.9459 359.541L92.8087 349.2L95.1987 348.982L94.336 359.323L91.9459 359.541ZM94.0972 347.696C93.7852 347.725 93.5096 347.64 93.2705 347.441C93.0381 347.241 92.907 346.978 92.8773 346.653C92.8378 346.222 92.9596 345.832 93.2425 345.485C93.5315 345.131 93.8884 344.934 94.3133 344.895C94.6452 344.865 94.9275 344.95 95.1599 345.149C95.3924 345.349 95.5235 345.611 95.5532 345.937C95.5932 346.375 95.4685 346.768 95.1789 347.116C94.8893 347.463 94.5288 347.657 94.0972 347.696Z" fill="white"/>
<path d="M101.594 358.901C100.764 358.977 100.025 358.877 99.3775 358.601C98.7291 358.319 98.2029 357.872 97.7989 357.259C97.3948 356.647 97.1503 355.876 97.0654 354.946C96.9914 354.137 97.043 353.345 97.2201 352.573C97.3966 351.793 97.6932 351.083 98.11 350.443C98.5334 349.802 99.0676 349.274 99.7127 348.86C100.358 348.447 101.108 348.201 101.965 348.122C102.781 348.048 103.491 348.154 104.093 348.44C104.701 348.726 105.183 349.161 105.537 349.744C105.891 350.321 106.105 351.008 106.177 351.804C106.213 352.19 106.214 352.571 106.181 352.949C106.155 353.319 106.095 353.69 106.002 354.06L99.4789 354.656C99.5238 355.147 99.6414 355.555 99.8317 355.879C100.028 356.195 100.284 356.43 100.599 356.582C100.92 356.727 101.286 356.78 101.698 356.742C102.096 356.706 102.493 356.576 102.887 356.353C103.289 356.129 103.625 355.85 103.896 355.517L105.254 356.98C104.814 357.509 104.298 357.944 103.707 358.286C103.121 358.621 102.417 358.826 101.594 358.901ZM99.651 352.581L103.883 352.195C103.858 351.775 103.769 351.415 103.614 351.115C103.459 350.808 103.237 350.58 102.949 350.432C102.667 350.277 102.327 350.218 101.929 350.255C101.517 350.292 101.153 350.412 100.837 350.615C100.52 350.812 100.26 351.08 100.057 351.42C99.8531 351.753 99.7178 352.14 99.651 352.581Z" fill="white"/>
<path d="M108.087 358.067L108.949 347.725L111.33 347.508L111.234 348.551C111.438 348.144 111.732 347.806 112.115 347.537C112.505 347.26 112.913 347.102 113.337 347.063C113.981 347.005 114.565 347.199 115.088 347.647L114.584 349.932C114.354 349.759 114.098 349.635 113.817 349.56C113.541 349.478 113.268 349.45 112.995 349.475C112.617 349.509 112.281 349.64 111.987 349.868C111.699 350.088 111.462 350.388 111.276 350.766C111.095 351.138 110.985 351.573 110.943 352.072L110.467 357.849L108.087 358.067Z" fill="white"/>
<path d="M118.802 357.329C117.826 357.418 117.038 357.219 116.437 356.731C115.843 356.237 115.506 355.548 115.425 354.665C115.357 353.921 115.481 353.254 115.795 352.663C116.115 352.065 116.59 351.583 117.219 351.217C117.854 350.845 118.614 350.618 119.497 350.537C119.928 350.498 120.358 350.509 120.785 350.57C121.218 350.625 121.579 350.725 121.867 350.873L121.915 350.296C121.986 349.681 121.877 349.229 121.59 348.94C121.309 348.645 120.873 348.524 120.282 348.578C119.784 348.623 119.261 348.762 118.713 348.992C118.171 349.216 117.653 349.518 117.159 349.898L116.642 347.977C117.23 347.521 117.843 347.167 118.483 346.915C119.122 346.655 119.78 346.495 120.457 346.433C121.274 346.358 121.976 346.458 122.563 346.733C123.157 347.006 123.604 347.428 123.904 347.996C124.203 348.564 124.323 349.246 124.261 350.042L123.719 356.639L121.359 356.854L121.424 356.025C121.154 356.371 120.779 356.663 120.299 356.901C119.819 357.139 119.319 357.282 118.802 357.329ZM119.245 355.149C119.663 355.111 120.081 354.993 120.498 354.794C120.915 354.595 121.283 354.331 121.6 354L121.691 352.797C121.433 352.68 121.134 352.594 120.794 352.538C120.454 352.482 120.098 352.471 119.727 352.505C119.288 352.545 118.916 352.642 118.609 352.798C118.307 352.946 118.081 353.14 117.929 353.382C117.783 353.616 117.724 353.883 117.751 354.181C117.782 354.527 117.933 354.784 118.203 354.953C118.473 355.123 118.82 355.188 119.245 355.149Z" fill="white"/>
</svg>
