<svg width="355" height="341" viewBox="0 0 355 341" fill="none" xmlns="http://www.w3.org/2000/svg">
<g filter="url(#filter0_d_249_17231)">
<mask id="mask0_249_17231" style="mask-type:alpha" maskUnits="userSpaceOnUse" x="5" y="0" width="345" height="329">
<path d="M5.97156 22.5927C5.97156 10.4204 15.8392 0.552734 28.0115 0.552734H326.988C339.161 0.552734 349.028 10.4204 349.028 22.5927V306.237C349.028 318.41 339.161 328.277 326.988 328.277H28.0115C15.8392 328.277 5.97156 318.41 5.97156 306.237V22.5927Z" fill="#D9D9D9"/>
</mask>
<g mask="url(#mask0_249_17231)">
<path d="M5.97156 22.5927C5.97156 10.4204 15.8392 0.552734 28.0115 0.552734H326.988C339.161 0.552734 349.028 10.4204 349.028 22.5927V306.237C349.028 318.41 339.161 328.277 326.988 328.277H28.0115C15.8392 328.277 5.97156 318.41 5.97156 306.237V22.5927Z" fill="#FCF9F5"/>
<path d="M97.7578 173.159C97.7578 173.159 101.089 174.843 103.501 174.843C118.465 174.843 128.811 149.322 128.811 138.442C128.811 127.983 119.877 124.775 119.877 124.775C118.729 123.3 117.247 122.109 115.549 121.296C113.85 120.483 111.983 120.07 110.094 120.092C96.9079 120.092 84.6555 143.803 84.6555 156.702C84.6555 167.79 94.8638 173.159 97.7728 173.159M114.293 130.412C116.702 130.412 118.617 133.356 118.617 135.502C118.617 145.195 106.563 167.372 100.679 167.372C98.8352 167.372 96.9228 165.35 96.9228 162.421C96.9228 151.889 107.272 130.412 114.281 130.412" fill="#FF92E8"/>
<path d="M113.802 188.235C113.387 187.037 112.545 186.035 111.436 185.422C110.327 184.81 109.031 184.63 107.798 184.918C106.364 185.259 104.91 185.503 103.443 185.649C93.1445 186.661 84.7759 181.991 80.4364 176.551C77.5188 172.893 75.9698 167.735 76.0023 163.63C76.1294 150.313 81.6188 137.096 81.6188 133.243C81.6188 126.862 78.0479 124.9 75.6683 123.772C73.2886 122.645 72.5142 121.038 69.1649 121.038C65.8157 121.038 63.6341 128.259 59.1527 138.004C54.6713 147.75 50.2579 155.465 50.2579 155.465C50.2579 155.465 52.2208 133.592 52.2208 128.123C52.203 123.559 46.8171 120.482 42.9564 120.482C42.9564 120.482 41.4784 119.502 38.2652 119.502C35.0519 119.502 25.1018 155.258 17.1884 166.193C16.2779 167.457 14.5959 168.508 14.5959 169.629C14.5959 172.225 20.1267 175.308 23.139 175.308C26.1512 175.308 30.5587 163.74 34.1326 154.136C37.5646 144.962 38.8268 139.762 38.9658 139.339C38.8948 140.041 37.8454 160.023 37.8454 165.702C37.8454 171.52 43.3082 172.29 43.3082 172.29C43.3082 172.29 46.3175 173.473 48.7001 173.473C51.0827 173.473 56.6815 163.027 60.7461 152.932C62.972 147.37 65.482 141.926 68.2663 136.622C67.3942 139.339 65.5497 149.135 65.0944 158.407C64.8948 160.987 64.9007 163.579 65.1122 166.158C65.8187 175.297 69.1324 180.727 72.4521 184.21C80.2768 192.393 89.1479 195.456 100.153 196.027C101.615 196.066 103.077 195.995 104.528 195.814C106.38 195.634 108.221 195.35 110.041 194.965C110.754 194.811 111.425 194.506 112.011 194.073C112.596 193.639 113.083 193.085 113.439 192.448C113.795 191.811 114.011 191.106 114.073 190.379C114.136 189.652 114.043 188.921 113.802 188.232V188.235Z" fill="#FF92E8"/>
<path d="M141.15 120.423C141.15 119.573 141.86 119.502 142.997 119.502C146.907 119.502 152.949 122.824 152.949 126.993C152.949 131.162 145.059 145.924 142.997 155.532C140.936 165.14 140.369 170.085 140.369 171.358C140.369 172.63 139.373 174.254 136.893 174.254C134.413 174.254 128.222 171.993 128.222 168.107C128.213 157.369 141.646 125.72 141.646 122.611C141.646 121.409 141.15 121.271 141.15 120.423" fill="#FF92E8"/>
<path d="M159.077 123.432C159.706 123.432 160.12 123.987 161.513 123.987C162.905 123.987 169.992 120.091 177.639 120.091C189.943 120.091 197.104 127.465 197.104 135.189C197.104 147.85 181.464 154.043 175.832 155.087C175.832 155.852 181.6 167.051 187.439 167.051C188.553 167.051 189.513 166.772 190.082 166.772C191.196 166.772 191.821 167.54 191.821 168.305C191.821 169.764 188.414 174.564 181.393 174.564C169.435 174.564 165.127 157.175 165.127 157.175C165.127 157.175 160.609 169.628 160.609 172.409C160.609 174.078 159.288 174.843 157.966 174.843C156.645 174.843 149.416 171.582 149.416 168.32C149.416 165.059 153.3 153.495 153.3 152.442C153.3 151.39 151.493 150.147 151.493 148.617C151.493 147.781 152.536 147.574 153.439 147.574C153.906 147.575 154.371 147.62 154.829 147.71C154.829 147.71 161.365 132.408 161.365 130.809C161.365 129.211 158.304 125.87 158.304 124.34C158.304 123.782 158.583 123.45 159.069 123.45M169.358 145.919C169.358 146.548 169.637 146.687 170.608 146.687C173.867 146.687 187.155 138.545 187.155 131.589C187.155 129.641 186.112 128.737 183.896 128.737C180.907 128.737 178.614 130.127 176.667 130.753C175.135 131.242 174.297 132.076 173.817 133.33C173.817 133.33 169.373 145.294 169.373 145.919" fill="#FF92E8"/>
<path d="M217.645 119.506C218.615 119.506 220.626 121.378 224.928 123.67C229.092 125.959 234.574 127.902 234.574 132.204C234.574 136.575 232.143 150.036 232.075 152.464C233.601 153.715 235.96 154.268 235.96 156.628C235.96 160.028 230.342 159.055 229.783 161.622C229.274 164.212 228.928 166.832 228.746 169.465C228.746 171.615 229.021 171.893 229.021 173.073C229.021 174.391 227.838 175.083 226.037 175.083C223.263 175.083 217.166 170.852 217.166 167.661C217.166 164.816 218.139 160.374 218.139 160.374C218.139 160.374 210.714 161.205 206.829 161.622C206.551 161.761 204.886 165.094 203.916 167.729C203.23 169.716 202.878 171.804 202.876 173.906C202.876 175.222 201.208 176.609 199.682 176.609C196.631 176.609 191.217 171.961 191.217 168.075C191.217 165.508 193.854 160.72 193.854 160.028C193.854 158.916 191.426 156.004 191.426 150.799C191.426 150.243 191.565 149.69 192.257 149.69C192.949 149.69 195.38 151.633 198.78 151.633C198.851 151.633 203.916 143.028 208.355 136.019C212.713 129.013 216.812 122.212 216.88 121.171C216.88 120.686 216.741 120.686 216.741 120.337C216.739 120.221 216.761 120.106 216.807 119.999C216.853 119.893 216.921 119.797 217.006 119.719C217.092 119.64 217.193 119.581 217.303 119.544C217.413 119.507 217.53 119.494 217.645 119.506M211.19 151.148C211.19 151.982 212.855 151.982 214.739 151.982C217.929 151.982 219.872 151.843 220.082 150.87C221.052 147.54 222.577 138.867 222.577 136.3C222.577 135.815 222.439 135.605 222.3 135.605C220.913 135.605 211.199 150.095 211.199 151.148" fill="#FF92E8"/>
<path d="M154.593 117.004C154.593 117.004 156.467 113.947 157.003 111.576C157.831 107.912 150.739 105.511 148.017 106.032C146.864 106.255 146.576 106.967 146.288 107.932C145.538 110.507 145.674 111.129 145.383 112.43C144.316 117.219 153.354 120.181 154.593 117.004Z" fill="#FF92E8"/>
<path d="M352.763 135.54C354.919 154.093 359.87 172.223 356.132 191.431C350.774 218.961 336.876 236.433 313.519 241.492C289.435 246.716 260.679 235.523 246.714 215.504C233.718 196.877 234.916 171.826 249.43 149.308C262.671 128.745 281.456 113.916 300.025 97.2832C290.442 99.7203 280.932 102.56 271.254 104.481C260.867 106.543 250.314 108.931 239.813 109.091C208.002 109.616 185.87 95.5406 178.862 71.5873C170.855 44.2625 184.291 8.51389 208.132 -6.4408C229.118 -19.6099 248.931 -13.7338 268.208 -2.49776C283.485 6.41482 294.017 20.3338 305.161 33.5521C307.951 37.3814 314.399 37.907 314.513 43.2145C313.494 40.0368 313.165 35.9954 313.753 31.8864C309.716 7.25076 303.591 -17.142 312.887 -42.1802C325.014 -74.8249 357.847 -88.7254 390.797 -74.2041C424.908 -59.1664 437.136 -25.6797 420.88 5.80016C410.062 26.7416 391.416 40.3195 375.739 56.7186C376.305 58.4182 371.969 59.9979 374.92 61.0459C377.192 61.8511 380.305 60.4773 383.068 60.2191C399.58 57.49 415.845 53.1997 432.871 54.1309C460.401 55.6368 479.247 68.8521 486.306 92.2399C494.294 118.741 483.565 150.832 461.276 167.149C442.571 180.846 419.722 179.869 396.876 165.406C382.489 156.309 372.816 142.461 360.314 131.498C358.94 126.541 351.765 126.415 351.457 121.255C354.605 125.352 351.439 130.675 352.763 135.54Z" fill="#29ABE2"/>
<path d="M317.482 -62.2421V171.289C317.483 171.852 317.605 172.408 317.842 172.919C318.079 173.43 318.423 173.884 318.853 174.249L328.202 182.178C329.486 183.267 330.518 184.622 331.225 186.149C331.932 187.676 332.298 189.338 332.298 191.02V256.629L329.335 189.351L278.962 259.588H242.662L270.069 247.018L276.369 -65.5674L317.482 -62.2421Z" fill="#FF92E8"/>
<path d="M290.085 27.3086C287.55 28.2613 284.954 29.1157 283.03 31.1164C281.105 33.1171 280.394 35.6895 279.279 38.3018C277.89 32.4625 274.383 28.7284 268.433 27.3977L268.6 27.1242C269.647 26.697 270.684 26.2483 271.738 25.8426C275.029 24.5764 277.013 22.0963 278.204 18.8939C278.386 18.4022 278.54 17.8981 278.756 17.4187C278.906 17.0776 278.842 16.4598 279.347 16.4967C279.787 16.5244 279.827 17.1114 279.935 17.4771C280.341 18.829 280.897 20.1311 281.595 21.3587C283.135 24.1246 285.737 25.4492 288.533 26.5218C288.989 26.6939 289.457 26.8507 289.9 27.0258C289.965 27.0443 289.986 27.1518 290.085 27.3086Z" fill="#304F9D"/>
<path d="M307.431 63.001C306.036 63.5265 304.61 63.9967 303.554 65.0939C302.498 66.1911 302.104 67.6079 301.491 69.0431C300.73 65.8284 298.799 63.7816 295.532 63.0502L295.625 62.8996C296.197 62.666 296.77 62.4201 297.349 62.1989C299.157 61.5012 300.247 60.1397 300.909 58.3787C301.007 58.1083 301.094 57.8317 301.217 57.5674C301.3 57.3799 301.266 57.0419 301.543 57.0603C301.82 57.0787 301.805 57.3984 301.851 57.5981C302.078 58.3414 302.388 59.0568 302.775 59.731C303.619 61.2523 305.051 61.9806 306.587 62.5676C306.837 62.6629 307.089 62.749 307.339 62.8443C307.363 62.8565 307.376 62.9119 307.431 63.001Z" fill="white"/>
<path d="M314.89 193.417L317.482 173.084L329.341 183.143C330.268 183.93 331.012 184.908 331.522 186.01C332.033 187.112 332.297 188.312 332.298 189.526L332.273 259.597H330.117L325.806 201.819L278.962 259.597H242.662L270.069 247.028L314.89 193.417Z" fill="black"/>
</g>
<path d="M5.97156 259.283H349.028V306.238C349.028 318.41 339.161 328.278 326.988 328.278H28.0115C15.8392 328.278 5.97156 318.41 5.97156 306.238V259.283Z" fill="white"/>
<path d="M184.038 302.532C183.188 302.532 182.469 302.369 181.882 302.043C181.3 301.724 180.856 301.289 180.55 300.74C180.249 300.197 180.099 299.584 180.099 298.9C180.099 298.376 180.186 297.929 180.358 297.559C180.531 297.182 180.751 296.849 181.019 296.562C181.288 296.274 181.569 296 181.863 295.738C182.163 295.476 182.444 295.204 182.706 294.923C182.968 294.642 183.182 294.32 183.348 293.955C183.52 293.591 183.607 293.157 183.607 292.652V292.183H184.967V292.671C184.967 293.31 184.868 293.85 184.67 294.291C184.479 294.725 184.233 295.099 183.932 295.412C183.632 295.725 183.326 296.019 183.012 296.294C182.604 296.639 182.243 297.003 181.93 297.386C181.617 297.769 181.46 298.274 181.46 298.9C181.46 299.577 181.68 300.143 182.121 300.596C182.568 301.05 183.207 301.277 184.038 301.277C184.958 301.277 185.67 301.015 186.175 300.491C186.679 299.973 186.932 299.283 186.932 298.421H188.283C188.283 299.239 188.104 299.954 187.746 300.567C187.395 301.187 186.9 301.669 186.261 302.014C185.622 302.359 184.881 302.532 184.038 302.532ZM184.316 290.793C184.003 290.793 183.744 290.691 183.54 290.487C183.341 290.276 183.242 290.027 183.242 289.739C183.242 289.458 183.341 289.212 183.54 289.001C183.744 288.784 184.003 288.675 184.316 288.675C184.61 288.675 184.865 288.784 185.082 289.001C185.3 289.212 185.408 289.458 185.408 289.739C185.408 290.027 185.3 290.276 185.082 290.487C184.865 290.691 184.61 290.793 184.316 290.793Z" fill="#009245"/>
<path d="M199.333 299.906L198.26 298.306C197.902 298.504 197.512 298.657 197.09 298.766C196.675 298.875 196.215 298.929 195.711 298.929C194.688 298.929 193.823 298.728 193.114 298.325C192.411 297.916 191.842 297.376 191.408 296.706C190.98 296.028 190.667 295.281 190.469 294.463C190.271 293.646 190.172 292.822 190.172 291.991C190.172 291.161 190.271 290.336 190.469 289.519C190.667 288.701 190.98 287.957 191.408 287.286C191.842 286.609 192.411 286.069 193.114 285.667C193.823 285.258 194.688 285.053 195.711 285.053C196.739 285.053 197.608 285.258 198.317 285.667C199.026 286.069 199.595 286.609 200.023 287.286C200.451 287.957 200.761 288.701 200.952 289.519C201.15 290.336 201.249 291.161 201.249 291.991C201.249 292.687 201.182 293.384 201.048 294.08C200.92 294.77 200.71 295.422 200.416 296.035C200.122 296.642 199.732 297.172 199.247 297.626L200.32 299.207L199.333 299.906ZM195.711 297.654C196.062 297.654 196.385 297.616 196.678 297.539C196.979 297.456 197.25 297.341 197.493 297.194L196.468 295.652L197.483 294.952L198.47 296.437C198.969 295.875 199.323 295.192 199.534 294.387C199.745 293.575 199.85 292.777 199.85 291.991C199.85 291.288 199.777 290.602 199.63 289.931C199.489 289.254 199.256 288.644 198.93 288.1C198.611 287.557 198.186 287.126 197.656 286.807C197.132 286.481 196.484 286.318 195.711 286.318C194.944 286.318 194.296 286.491 193.765 286.836C193.241 287.174 192.817 287.625 192.491 288.187C192.171 288.743 191.938 289.356 191.791 290.027C191.644 290.691 191.571 291.346 191.571 291.991C191.571 292.694 191.644 293.384 191.791 294.061C191.938 294.732 192.171 295.339 192.491 295.882C192.817 296.418 193.241 296.849 193.765 297.175C194.296 297.495 194.944 297.654 195.711 297.654Z" fill="#009245"/>
<path d="M208.198 298.929C207.042 298.929 206.18 298.577 205.611 297.875C205.049 297.172 204.768 296.102 204.768 294.665V288.905H206.109V294.885C206.109 295.805 206.301 296.501 206.684 296.974C207.068 297.447 207.623 297.683 208.352 297.683C209.163 297.683 209.773 297.437 210.182 296.945C210.597 296.447 210.805 295.719 210.805 294.76V288.905H212.146V298.699H210.805V297.52C210.511 297.993 210.147 298.347 209.712 298.584C209.284 298.814 208.78 298.929 208.198 298.929Z" fill="#009245"/>
<path d="M219.595 298.929C218.726 298.929 217.976 298.715 217.343 298.287C216.717 297.852 216.235 297.249 215.896 296.476C215.558 295.703 215.388 294.808 215.388 293.793C215.388 292.713 215.564 291.793 215.916 291.033C216.273 290.266 216.768 289.682 217.401 289.279C218.033 288.877 218.765 288.675 219.595 288.675C220.317 288.675 220.972 288.845 221.56 289.183C222.147 289.522 222.614 290.046 222.959 290.755C223.304 291.464 223.476 292.374 223.476 293.486C223.476 293.601 223.473 293.732 223.467 293.879C223.46 294.019 223.451 294.166 223.438 294.32H216.778C216.829 294.997 216.966 295.591 217.19 296.102C217.42 296.607 217.736 297.006 218.139 297.3C218.548 297.587 219.049 297.731 219.643 297.731C220.046 297.731 220.432 297.661 220.803 297.52C221.173 297.373 221.518 297.15 221.838 296.849L222.623 297.75C222.266 298.089 221.825 298.37 221.301 298.593C220.783 298.817 220.215 298.929 219.595 298.929ZM216.759 293.141H222.106C222.106 292.534 222.013 291.981 221.828 291.483C221.649 290.985 221.371 290.589 220.994 290.295C220.624 290.001 220.157 289.854 219.595 289.854C218.835 289.854 218.187 290.116 217.65 290.64C217.12 291.164 216.823 291.997 216.759 293.141ZM218.618 287.66L221.397 284.67H223.332L219.979 287.66H218.618Z" fill="#009245"/>
<path d="M235.171 298.929C234.302 298.929 233.551 298.715 232.919 298.287C232.293 297.852 231.81 297.249 231.472 296.476C231.133 295.703 230.964 294.808 230.964 293.793C230.964 292.713 231.14 291.793 231.491 291.033C231.849 290.266 232.344 289.682 232.976 289.279C233.609 288.877 234.34 288.675 235.171 288.675C235.893 288.675 236.547 288.845 237.135 289.183C237.723 289.522 238.189 290.046 238.534 290.755C238.879 291.464 239.052 292.374 239.052 293.486C239.052 293.601 239.048 293.732 239.042 293.879C239.036 294.019 239.026 294.166 239.013 294.32H232.353C232.405 294.997 232.542 295.591 232.765 296.102C232.995 296.607 233.312 297.006 233.714 297.3C234.123 297.587 234.624 297.731 235.219 297.731C235.621 297.731 236.008 297.661 236.378 297.52C236.749 297.373 237.094 297.15 237.413 296.849L238.199 297.75C237.841 298.089 237.4 298.37 236.876 298.593C236.359 298.817 235.79 298.929 235.171 298.929ZM232.334 293.141H237.681C237.681 292.534 237.589 291.981 237.403 291.483C237.225 290.985 236.947 290.589 236.57 290.295C236.199 290.001 235.733 289.854 235.171 289.854C234.41 289.854 233.762 290.116 233.225 290.64C232.695 291.164 232.398 291.997 232.334 293.141Z" fill="#009245"/>
<path d="M244.839 298.929C244.187 298.929 243.561 298.788 242.961 298.507C242.36 298.226 241.855 297.836 241.447 297.338L242.424 296.504C242.775 296.888 243.165 297.185 243.593 297.396C244.021 297.606 244.443 297.712 244.858 297.712C245.484 297.712 245.966 297.584 246.305 297.329C246.65 297.073 246.822 296.715 246.822 296.255C246.822 295.968 246.743 295.706 246.583 295.47C246.429 295.233 246.177 295.013 245.826 294.808C245.474 294.597 245.011 294.383 244.436 294.166C243.401 293.783 242.657 293.365 242.204 292.911C241.75 292.451 241.523 291.882 241.523 291.205C241.523 290.451 241.814 289.841 242.395 289.375C242.983 288.909 243.746 288.675 244.685 288.675C245.305 288.675 245.886 288.797 246.429 289.04C246.972 289.276 247.436 289.618 247.819 290.065L246.88 290.851C246.254 290.212 245.516 289.892 244.666 289.892C244.11 289.892 243.67 290.011 243.344 290.247C243.024 290.477 242.865 290.796 242.865 291.205C242.865 291.582 243.031 291.908 243.363 292.183C243.695 292.451 244.302 292.748 245.184 293.074C245.899 293.342 246.474 293.626 246.909 293.927C247.343 294.221 247.656 294.556 247.848 294.933C248.046 295.31 248.145 295.744 248.145 296.236C248.145 297.073 247.851 297.731 247.263 298.21C246.675 298.689 245.867 298.929 244.839 298.929Z" fill="#009245"/>
<path d="M262.314 298.929L258.385 289.682C258.302 289.484 258.216 289.273 258.126 289.049C258.037 288.826 257.957 288.618 257.887 288.426C257.899 288.586 257.909 288.784 257.915 289.02C257.922 289.257 257.925 289.477 257.925 289.682V298.699H256.583V285.283H257.839L261.95 294.933C262.014 295.08 262.074 295.233 262.132 295.393C262.196 295.546 262.256 295.699 262.314 295.853C262.371 295.699 262.429 295.546 262.486 295.393C262.55 295.24 262.614 295.086 262.678 294.933L266.779 285.283H268.044V298.699H266.703V289.682C266.703 289.477 266.706 289.257 266.712 289.02C266.719 288.778 266.725 288.576 266.731 288.417C266.661 288.602 266.578 288.813 266.482 289.049C266.386 289.286 266.297 289.503 266.214 289.701L262.314 298.929Z" fill="#009245"/>
<path d="M277.346 298.929C276.324 298.929 275.458 298.728 274.749 298.325C274.046 297.916 273.478 297.376 273.043 296.706C272.615 296.028 272.302 295.281 272.104 294.463C271.906 293.646 271.807 292.822 271.807 291.991C271.807 291.161 271.906 290.336 272.104 289.519C272.302 288.701 272.615 287.957 273.043 287.286C273.478 286.609 274.046 286.069 274.749 285.667C275.458 285.258 276.324 285.053 277.346 285.053C278.375 285.053 279.243 285.258 279.953 285.667C280.662 286.069 281.23 286.609 281.658 287.286C282.086 287.957 282.396 288.701 282.588 289.519C282.786 290.336 282.885 291.161 282.885 291.991C282.885 292.822 282.786 293.646 282.588 294.463C282.396 295.281 282.086 296.028 281.658 296.706C281.23 297.376 280.662 297.916 279.953 298.325C279.243 298.728 278.375 298.929 277.346 298.929ZM277.346 297.654C278.119 297.654 278.767 297.485 279.291 297.146C279.822 296.801 280.246 296.351 280.566 295.795C280.892 295.233 281.125 294.62 281.265 293.955C281.412 293.291 281.486 292.636 281.486 291.991C281.486 291.288 281.412 290.602 281.265 289.931C281.125 289.254 280.892 288.644 280.566 288.1C280.246 287.557 279.822 287.126 279.291 286.807C278.767 286.481 278.119 286.318 277.346 286.318C276.579 286.318 275.931 286.491 275.401 286.836C274.877 287.174 274.452 287.625 274.126 288.187C273.807 288.743 273.574 289.356 273.427 290.027C273.28 290.691 273.206 291.346 273.206 291.991C273.206 292.694 273.28 293.384 273.427 294.061C273.574 294.732 273.807 295.339 274.126 295.882C274.452 296.418 274.877 296.849 275.401 297.175C275.931 297.495 276.579 297.654 277.346 297.654Z" fill="#009245"/>
<path d="M286.645 298.699V285.283H287.987V298.699H286.645Z" fill="#009245"/>
<path d="M292.327 298.699V285.283H297.387C298.428 285.283 299.246 285.465 299.84 285.829C300.441 286.187 300.865 286.65 301.114 287.219C301.37 287.787 301.498 288.378 301.498 288.992C301.498 289.547 301.386 290.084 301.162 290.602C300.945 291.119 300.597 291.566 300.118 291.943C299.639 292.314 299.013 292.563 298.24 292.691L301.191 298.699H299.677L296.821 292.767H293.669V298.699H292.327ZM293.669 291.521H297.416C298.099 291.521 298.639 291.397 299.035 291.148C299.431 290.899 299.712 290.582 299.878 290.199C300.051 289.816 300.137 289.423 300.137 289.02C300.137 288.663 300.057 288.292 299.898 287.909C299.744 287.519 299.469 287.193 299.073 286.931C298.684 286.663 298.131 286.529 297.416 286.529H293.669V291.521Z" fill="#009245"/>
<path d="M303.987 298.699L308.692 285.283H309.89L314.595 298.699H313.205L312.008 295.259H306.593L305.405 298.699H303.987ZM306.977 294.08H311.605L309.804 288.858C309.765 288.743 309.711 288.586 309.641 288.388C309.577 288.184 309.51 287.976 309.44 287.765C309.376 287.554 309.328 287.382 309.296 287.248C309.264 287.382 309.213 287.554 309.142 287.765C309.079 287.976 309.011 288.184 308.941 288.388C308.877 288.586 308.826 288.743 308.788 288.858L306.977 294.08Z" fill="#009245"/>
<path d="M320.202 295.402V294.904C320.202 294.259 320.298 293.716 320.489 293.275C320.687 292.834 320.937 292.454 321.237 292.135C321.537 291.809 321.844 291.509 322.157 291.234C322.566 290.876 322.923 290.506 323.23 290.122C323.543 289.733 323.7 289.234 323.7 288.628C323.7 287.982 323.476 287.436 323.029 286.989C322.588 286.542 321.952 286.318 321.122 286.318C320.208 286.318 319.499 286.57 318.995 287.075C318.496 287.58 318.247 288.228 318.247 289.02H316.934C316.934 288.254 317.107 287.57 317.452 286.97C317.797 286.369 318.282 285.9 318.908 285.561C319.534 285.223 320.272 285.053 321.122 285.053C321.972 285.053 322.687 285.216 323.268 285.542C323.856 285.861 324.303 286.293 324.61 286.836C324.917 287.372 325.07 287.976 325.07 288.647C325.07 289.19 324.98 289.653 324.802 290.036C324.629 290.419 324.406 290.758 324.131 291.052C323.856 291.339 323.572 291.617 323.278 291.886C322.991 292.141 322.716 292.409 322.454 292.691C322.192 292.965 321.978 293.281 321.812 293.639C321.646 293.997 321.563 294.422 321.563 294.914V295.402H320.202ZM320.854 298.958C320.56 298.958 320.307 298.852 320.097 298.641C319.892 298.431 319.79 298.185 319.79 297.903C319.79 297.616 319.892 297.364 320.097 297.146C320.307 296.929 320.56 296.821 320.854 296.821C321.16 296.821 321.416 296.929 321.62 297.146C321.831 297.364 321.936 297.616 321.936 297.903C321.936 298.185 321.831 298.431 321.62 298.641C321.416 298.852 321.16 298.958 320.854 298.958Z" fill="#009245"/>
</g>
<defs>
<filter id="filter0_d_249_17231" x="0.222001" y="0.552734" width="354.556" height="340.183" filterUnits="userSpaceOnUse" color-interpolation-filters="sRGB">
<feFlood flood-opacity="0" result="BackgroundImageFix"/>
<feColorMatrix in="SourceAlpha" type="matrix" values="0 0 0 0 0 0 0 0 0 0 0 0 0 0 0 0 0 0 127 0" result="hardAlpha"/>
<feMorphology radius="2.87478" operator="erode" in="SourceAlpha" result="effect1_dropShadow_249_17231"/>
<feOffset dy="6.70782"/>
<feGaussianBlur stdDeviation="4.31217"/>
<feComposite in2="hardAlpha" operator="out"/>
<feColorMatrix type="matrix" values="0 0 0 0 1 0 0 0 0 0.572549 0 0 0 0 0.909804 0 0 0 0.15 0"/>
<feBlend mode="normal" in2="BackgroundImageFix" result="effect1_dropShadow_249_17231"/>
<feBlend mode="normal" in="SourceGraphic" in2="effect1_dropShadow_249_17231" result="shape"/>
</filter>
</defs>
</svg>
