<svg width="552" height="772" viewBox="0 0 552 772" fill="none" xmlns="http://www.w3.org/2000/svg">
<mask id="mask0_174_15324" style="mask-type:alpha" maskUnits="userSpaceOnUse" x="0" y="69" width="552" height="703">
<rect y="69" width="552" height="703" rx="14" fill="#29ABE2"/>
</mask>
<g mask="url(#mask0_174_15324)">
<rect y="69" width="552" height="703" rx="14" fill="#29ABE2"/>
<path d="M68.2179 471.847C70.5849 459.617 65.1439 448.549 55.9218 437.955C39.7217 419.458 39.6295 412.15 55.7066 394.127C66.0046 382.585 69.4015 370.279 68.2794 355.098C66.5272 331.174 70.1084 326.236 93.594 320.901C108.703 317.476 118.878 310.047 126.686 296.793C138.444 276.919 144.792 274.794 165.88 283.447C180.451 289.44 193.653 290.25 208.608 283.89C230.788 274.473 237.335 276.553 249.232 296.976C257.778 311.652 269.997 318.256 285.613 322.139C305.748 327.138 310.451 333.406 307.823 353.707C305.763 369.682 309.913 382.157 320.488 394.173C336.303 412.135 336.257 419.091 320.903 436.732C310.528 448.656 305.702 460.963 307.961 477.137C310.789 497.515 305.025 505.54 284.691 509.744C267.676 513.26 255.841 521.638 248.018 536.925C240.194 552.212 227.806 556.798 212.297 549.063C195.759 540.884 180.02 540.747 163.405 549.063C148.85 556.447 136.308 553.145 128.853 538.148C120.615 521.592 107.781 513.016 89.5978 509.316C70.0624 505.372 67.4494 499.364 68.2179 471.847Z" fill="#0A0C35"/>
<path d="M260.604 446.47C260.604 446.47 285.296 430.93 285.296 459.801C285.296 488.671 269.539 490.896 260.604 484.177C251.669 477.458 260.604 446.47 260.604 446.47Z" fill="#662D91"/>
<path d="M116.514 446.47C116.514 446.47 91.8223 430.93 91.8223 459.801C91.8223 488.671 107.579 490.896 116.514 484.177C125.449 477.458 116.514 446.47 116.514 446.47Z" fill="#662D91"/>
<path d="M171.021 569.595L151.195 618.364H225.923L212.198 564.109L173.583 569.49L171.021 569.595Z" fill="#662D91"/>
<path d="M213.639 569.928C213.639 569.928 210.411 579.464 192.057 579.464C173.704 579.464 170.645 569.289 170.645 569.289C170.645 569.289 210.748 561.832 213.639 569.928Z" fill="#63151B"/>
<path d="M224.505 361.018C210.09 355.123 194.041 354.745 179.369 359.954C153.71 368.652 110.924 391.907 112.329 450.23C114.313 533.397 122.296 561.911 184.162 571.41C246.028 580.91 262.009 512.007 263.994 471.619C265.703 436.999 268.955 379.678 224.505 361.018Z" fill="#662D91"/>
<path d="M217.461 590.725C217.461 590.725 208.368 612.163 189.644 612.163C170.92 612.163 160.739 594.859 160.739 594.859L28.9679 653.507L13 774.477L359 776.009L328.84 622.881L217.461 590.725Z" fill="#EF98C0"/>
<path d="M164.502 458.312C164.502 458.312 159.31 447.929 148.939 449.652C138.569 451.375 136.863 461.743 136.863 461.743" fill="#09231E"/>
<path d="M238.206 462.765C238.206 462.765 236.819 450.616 226.692 448.687C216.566 446.758 211.591 456.467 211.591 456.467" fill="#09231E"/>
<path d="M209.544 525.725C209.544 525.725 184.798 532.482 167.058 524.028C149.319 515.574 144.029 508.832 144.029 508.832" stroke="#110A03" stroke-width="2.37142" stroke-miterlimit="10" stroke-linecap="round"/>
<path d="M268.708 485.275C268.932 484.125 269.551 483.089 270.46 482.344C271.368 481.599 272.51 481.191 273.687 481.191C274.865 481.191 276.007 481.599 276.915 482.344C277.824 483.089 278.443 484.125 278.667 485.275C281.951 502.746 288.442 530.011 299.234 547.589C316.194 575.176 265.316 595.268 266.071 572.969C266.673 556.095 263.99 510.685 268.708 485.275Z" fill="#FDCE34"/>
<path d="M107.461 485.3C107.251 484.146 106.653 483.103 105.771 482.353C104.888 481.602 103.776 481.191 102.627 481.191C101.479 481.191 100.367 481.602 99.4843 482.353C98.6014 483.103 98.0034 484.146 97.7941 485.3C94.5868 502.767 88.2924 530.025 77.7865 547.599C61.3008 575.178 110.758 595.265 110.023 572.971C109.454 556.102 112.047 510.704 107.461 485.3Z" fill="#FDCE34"/>
<path d="M192.653 493.476C202.547 493.476 210.568 488.206 210.568 481.704C210.568 475.202 202.547 469.932 192.653 469.932C182.76 469.932 174.739 475.202 174.739 481.704C174.739 488.206 182.76 493.476 192.653 493.476Z" fill="#EF98C0"/>
<path d="M264.796 464.813C264.796 464.813 247.683 461.31 252.275 438.363C252.275 438.363 236.969 429.185 241.561 420.006C241.561 420.006 225.229 419.562 225.75 406.024C225.75 406.024 217.071 416.946 200.234 406.238C200.234 406.238 192.581 416.946 180.336 412.357C180.336 412.357 171.152 431.739 150.535 421.291C150.535 421.291 146.662 444.483 129.826 438.363C129.826 438.363 122.708 455.191 112.499 442.188C102.29 429.185 90.0294 439.893 88.4988 412.357C88.4988 412.357 62.4783 392.47 83.9069 367.994C83.9069 367.994 75.6876 328.097 106.591 325.863C106.591 325.863 130.392 290.342 164.555 313.87C164.555 313.87 183.52 281.882 219.428 305.823C219.428 305.823 262.99 285.385 276.765 323.63C276.765 323.63 306.796 348.106 288.719 371.053C288.719 371.053 296.372 404.249 271.255 409.833C271.255 409.833 281.051 418.14 271.255 434.309C271.194 434.371 275.724 453.019 264.796 464.813Z" fill="#0A0C35"/>
<path d="M479.688 519.968L482 569.488L427 566.069L442.476 516.488L479.688 519.968Z" fill="#84C7AC"/>
<path d="M480 522.06C480 522.06 474.409 532.488 465.727 532.488C457.046 532.488 441 520.279 441 520.279L443.182 513.488L479.546 518.665L480 522.06Z" fill="#09231E"/>
<path d="M542.568 424.625C540.521 423.327 538.166 422.598 535.744 422.514L536.971 377.908C537.043 375.345 536.575 372.795 535.598 370.424C534.621 368.053 533.156 365.915 531.298 364.148L506.513 340.534C503.111 337.295 498.593 335.489 493.896 335.488H417.401C414.679 335.49 411.993 336.099 409.536 337.269C407.079 338.44 404.913 340.144 403.197 342.256L390.775 357.544C387.973 361.008 386.521 365.37 386.689 369.822L388.979 427.71C387.347 424.625 383.157 419.639 374.431 424.625C363.026 431.139 370.21 471.791 390.116 456.548L391.119 482.138C391.256 485.479 392.304 488.72 394.151 491.507C395.998 494.294 398.573 496.523 401.596 497.95L455.611 523.674C458.088 524.868 460.802 525.488 463.551 525.488C466.3 525.488 469.014 524.868 471.491 523.674L523.875 498.13C526.877 496.661 529.421 494.399 531.231 491.588C533.041 488.778 534.047 485.525 534.142 482.183L534.756 460.007C548.465 460.771 552.327 430.225 542.568 424.625Z" fill="#84C7AC"/>
<path fill-rule="evenodd" clip-rule="evenodd" d="M389.68 430.448C389.68 430.448 392.159 365.98 417.807 362.533C417.807 362.533 489.627 359.101 510.152 364.264C530.676 369.427 535.307 449.488 535.307 449.488C535.307 449.488 556.324 369.427 544.27 348.76C532.215 328.094 491.256 319.454 467.326 321.185C467.326 321.185 453.643 302.235 412.594 312.576C371.546 322.916 385.497 393.254 389.68 430.448Z" fill="#0A0C35"/>
<path d="M455.853 427.446C456.402 425.696 457.499 424.17 458.983 423.096C460.466 422.023 462.255 421.459 464.083 421.49C465.912 421.52 467.681 422.143 469.128 423.265C470.575 424.387 471.622 425.948 472.113 427.716C472.155 427.849 472.19 427.984 472.218 428.121C475.637 441.848 484.163 474.441 470.515 474.441C456.868 474.441 450 476.15 450 458.991C450 448.246 453.36 435.479 455.853 427.446Z" fill="#EF98C0"/>
<path d="M444 421.137C444 421.137 438.752 410.994 428.24 412.677C417.729 414.36 416 424.488 416 424.488" fill="#09231E"/>
<path d="M515 425.488C515 425.488 513.502 414.468 503.304 412.718C493.106 410.968 488 419.776 488 419.776" fill="#09231E"/>
<path d="M484.375 568.628L563.129 596.08L581 774.488H303L343.977 582.354L421.026 563.488H455.258L484.375 568.628Z" fill="#FDCE34"/>
<path d="M484 489.859C484 489.859 460.204 496.807 443.13 488.114C426.057 479.421 421 472.488 421 472.488" stroke="#110A03" stroke-width="2.37142" stroke-miterlimit="10" stroke-linecap="round"/>
<path d="M486.091 551.488L455 561.912L465.364 584.488L493 568.861L486.091 551.488Z" fill="white"/>
<path d="M428.095 548.488L455 562.206L433.135 584.488L418 563.928L428.095 548.488Z" fill="white"/>
</g>
<path d="M322.835 159.977C312.96 168.055 304.323 177.588 291.888 182.531C274.167 189.429 258.887 188.068 247.353 176.505C241.417 170.174 237.371 162.313 235.671 153.809C233.971 145.306 234.686 136.5 237.734 128.387C243.675 114.051 258.45 105.678 276.848 105.534C293.589 105.576 308.929 110.851 325.474 115.445C320.545 110.831 315.395 106.437 310.706 101.572C305.495 96.5409 300.733 91.0644 296.476 85.2054C284.432 67.1218 284.379 49.2018 295.629 36.2278C308.437 21.5536 333.964 16.1192 351.391 24.2872C366.724 31.5405 370.668 45.074 371.292 60.2999C371.797 72.3693 367.685 83.5386 364.174 94.8077C362.999 97.8418 365.058 101.731 362.068 103.755C363.789 101.792 365.913 100.222 368.295 99.1524C380.976 87.7498 392.781 75.2439 410.635 71.3337C433.896 66.2901 453.965 79.9345 457.835 104.306C461.761 129.46 447.003 148.814 422.864 151.08C406.83 152.567 392.1 146.868 376.863 143.903C376.239 144.935 373.605 142.944 374.116 145.016C374.627 147.087 376.423 147.91 377.59 149.409C385.257 157.883 393.71 165.642 399.411 175.834C408.697 192.204 408.045 207.935 397.191 220.62C390.748 227.751 382.333 232.812 373.009 235.167C363.685 237.521 353.868 237.063 344.796 233.85C330.034 228.131 322.176 214.652 322.047 196.201C321.98 184.573 326.408 173.903 328.087 162.671C330.432 160.037 327.805 155.848 330.73 153.785C329.308 157.374 325.153 157.459 322.835 159.977Z" fill="#D9E021"/>
</svg>
