<svg width="288" height="125" viewBox="0 0 288 125" fill="none" xmlns="http://www.w3.org/2000/svg">
<path d="M108.411 86.931C108.411 86.931 112.72 89.1092 115.84 89.1092C135.198 89.1092 148.582 56.0938 148.582 42.0194C148.582 28.4896 137.025 24.3388 137.025 24.3388C135.54 22.4307 133.622 20.8896 131.425 19.8379C129.228 18.7862 126.812 18.2529 124.369 18.2803C107.311 18.2803 91.4609 48.9538 91.4609 65.6405C91.4609 79.9852 104.667 86.931 108.43 86.931M129.801 31.6312C132.918 31.6312 135.395 35.4392 135.395 38.2152C135.395 50.755 119.801 79.4445 112.189 79.4445C109.804 79.4445 107.33 76.8284 107.33 73.0394C107.33 59.4144 120.718 31.6312 129.785 31.6312" fill="#FF92E8"/>
<path d="M129.165 106.434C128.63 104.884 127.539 103.587 126.105 102.795C124.671 102.002 122.994 101.77 121.399 102.142C119.544 102.583 117.663 102.899 115.766 103.088C102.443 104.397 91.6167 98.3556 86.003 91.3189C82.2286 86.5869 80.2248 79.9139 80.2668 74.6038C80.4313 57.3757 87.5326 40.2778 87.5326 35.2931C87.5326 27.039 82.9131 24.5007 79.8347 23.0421C76.7563 21.5834 75.7544 19.5046 71.4217 19.5046C67.089 19.5046 64.2669 28.846 58.4695 41.4531C52.6722 54.0603 46.9629 64.0411 46.9629 64.0411C46.9629 64.0411 49.5021 35.7449 49.5021 28.6699C49.4791 22.7664 42.5116 18.7848 37.5174 18.7848C37.5174 18.7848 35.6053 17.5176 31.4486 17.5176C27.2918 17.5176 14.4199 63.7731 4.18283 77.9193C3.00501 79.554 0.829102 80.9132 0.829102 82.3641C0.829102 85.7217 7.98397 89.711 11.8807 89.711C15.7775 89.711 21.4792 74.7455 26.1025 62.3221C30.5422 50.4539 32.1751 43.7273 32.3549 43.1798C32.2631 44.0871 30.9055 69.9369 30.9055 77.2838C30.9055 84.8105 37.9724 85.8059 37.9724 85.8059C37.9724 85.8059 41.8654 87.3373 44.9476 87.3373C48.0298 87.3373 55.2726 73.8228 60.5307 60.7639C63.4103 53.5688 66.6574 46.5266 70.2592 39.6653C69.1311 43.1798 66.7449 55.852 66.156 67.8466C65.8977 71.1842 65.9053 74.537 66.1789 77.8733C67.0929 89.6956 71.3797 96.7209 75.6741 101.227C85.7965 111.813 97.2725 115.775 111.51 116.514C113.4 116.564 115.292 116.472 117.169 116.238C119.565 116.005 121.946 115.638 124.301 115.14C125.223 114.94 126.091 114.546 126.849 113.985C127.606 113.424 128.236 112.707 128.696 111.884C129.156 111.06 129.436 110.148 129.517 109.207C129.598 108.267 129.478 107.32 129.165 106.43V106.434Z" fill="#FF92E8"/>
<path d="M164.544 18.7093C164.544 17.6092 165.463 17.5176 166.935 17.5176C171.992 17.5176 179.808 21.8146 179.808 27.2078C179.808 32.601 169.601 51.6988 166.935 64.1277C164.268 76.5565 163.534 82.9543 163.534 84.6005C163.534 86.2467 162.246 88.3475 159.038 88.3475C155.829 88.3475 147.82 85.4217 147.82 80.3951C147.809 66.5034 165.186 25.5616 165.186 21.5396C165.186 19.985 164.544 19.8055 164.544 18.7093Z" fill="#FF92E8"/>
<path d="M187.737 22.6021C188.549 22.6021 189.086 23.3194 190.887 23.3194C192.688 23.3194 201.856 18.2793 211.748 18.2793C227.665 18.2793 236.929 27.8187 236.929 37.8106C236.929 54.189 216.696 62.2018 209.41 63.552C209.41 64.5416 216.873 79.029 224.427 79.029C225.868 79.029 227.11 78.6684 227.845 78.6684C229.287 78.6684 230.095 79.6619 230.095 80.6515C230.095 82.5387 225.688 88.7486 216.604 88.7486C201.136 88.7486 195.563 66.2523 195.563 66.2523C195.563 66.2523 189.718 82.3622 189.718 85.9601C189.718 88.1196 188.009 89.1092 186.299 89.1092C184.59 89.1092 175.238 84.8899 175.238 80.6707C175.238 76.4514 180.263 61.4922 180.263 60.1305C180.263 58.7689 177.925 57.1617 177.925 55.1825C177.925 54.1008 179.274 53.8323 180.443 53.8323C181.046 53.8333 181.648 53.8924 182.241 54.0088C182.241 54.0088 190.695 34.2128 190.695 32.1453C190.695 30.0779 186.736 25.7551 186.736 23.7758C186.736 23.0547 187.097 22.6251 187.725 22.6251M201.036 51.692C201.036 52.5052 201.396 52.6855 202.653 52.6855C206.869 52.6855 224.059 42.1526 224.059 33.1541C224.059 30.6341 222.71 29.4642 219.843 29.4642C215.976 29.4642 213.009 31.2631 210.491 32.0724C208.51 32.7053 207.425 33.7832 206.804 35.4057C206.804 35.4057 201.055 50.8827 201.055 51.692" fill="#FF92E8"/>
<path d="M263.502 17.523C264.757 17.523 267.358 19.9446 272.923 22.9093C278.309 25.8703 285.401 28.3837 285.401 33.9498C285.401 39.6039 282.257 57.0177 282.169 60.1585C284.142 61.7767 287.195 62.4921 287.195 65.5448C287.195 69.9442 279.927 68.6856 279.204 72.0061C278.546 75.3566 278.097 78.745 277.862 82.1514C277.862 84.9326 278.217 85.2922 278.217 86.8186C278.217 88.5248 276.687 89.4199 274.358 89.4199C270.77 89.4199 262.882 83.9456 262.882 79.8179C262.882 76.1377 264.141 70.3918 264.141 70.3918C264.141 70.3918 254.536 71.4668 249.509 72.0061C249.15 72.1859 246.996 76.4973 245.742 79.9059C244.853 82.4767 244.398 85.1774 244.395 87.8974C244.395 89.5997 242.238 91.3939 240.264 91.3939C236.316 91.3939 229.312 85.3802 229.312 80.3535C229.312 77.0329 232.725 70.8394 232.725 69.9442C232.725 68.5058 229.584 64.7376 229.584 58.0047C229.584 57.2855 229.764 56.5701 230.659 56.5701C231.554 56.5701 234.698 59.0835 239.097 59.0835C239.189 59.0835 245.742 47.9512 251.483 38.8847C257.122 29.8221 262.423 21.0234 262.511 19.6768C262.511 19.0494 262.331 19.0494 262.331 18.598C262.329 18.4479 262.358 18.2989 262.418 18.161C262.477 18.0231 262.565 17.8993 262.675 17.7978C262.786 17.6962 262.917 17.6192 263.059 17.5719C263.202 17.5245 263.353 17.5079 263.502 17.523ZM255.152 58.4561C255.152 59.5349 257.305 59.5349 259.742 59.5349C263.869 59.5349 266.382 59.3551 266.654 58.0965C267.908 53.789 269.882 42.5687 269.882 39.2482C269.882 38.6208 269.702 38.3492 269.523 38.3492C267.729 38.3492 255.163 57.0942 255.163 58.4561" fill="#FF92E8"/>
<path d="M181.935 14.2862C181.935 14.2862 184.359 10.3316 185.053 7.26404C186.123 2.52367 176.949 -0.581438 173.428 0.091461C171.937 0.38092 171.564 1.30193 171.191 2.54999C170.221 5.88065 170.396 6.68512 170.02 8.36925C168.64 14.5644 180.331 18.3951 181.935 14.2862Z" fill="#FF92E8"/>
<path d="M192.755 118.05L195.18 98.2492H201.506C203.197 98.2223 204.862 98.6803 206.302 99.5692C207.69 100.43 208.791 101.685 209.465 103.175C210.17 104.731 210.421 106.456 210.188 108.15C209.968 109.945 209.303 111.657 208.253 113.128C207.203 114.629 205.817 115.863 204.205 116.73C202.635 117.595 200.873 118.049 199.081 118.05H192.755ZM197.13 114.565H199.484C201.159 114.563 202.765 113.894 203.949 112.706C205.235 111.513 206.045 109.895 206.231 108.15C206.457 106.339 206.07 104.813 205.071 103.571C204.596 102.968 203.986 102.485 203.29 102.161C202.594 101.837 201.832 101.682 201.065 101.708H198.731L197.13 114.565Z" fill="#29ABE2"/>
<path d="M211.795 118.05L213.542 104.844H217.723L215.976 118.05H211.795ZM215.948 102.581C215.652 102.584 215.358 102.527 215.088 102.415C214.818 102.304 214.577 102.139 214.383 101.933C214.188 101.727 214.045 101.485 213.962 101.223C213.879 100.961 213.858 100.685 213.902 100.415C213.978 99.8165 214.3 99.2679 214.802 98.883C215.275 98.4796 215.893 98.2535 216.537 98.2491C216.837 98.2399 217.135 98.2917 217.411 98.4008C217.686 98.5098 217.933 98.6735 218.132 98.8802C218.332 99.0868 218.479 99.3314 218.565 99.5966C218.651 99.8619 218.672 100.141 218.627 100.415C218.549 101.013 218.226 101.561 217.723 101.947C217.238 102.354 216.604 102.577 215.948 102.573V102.581Z" fill="#29ABE2"/>
<path d="M230.441 104.626H233.882L232.269 118.088C232.093 119.997 231.213 121.766 229.807 123.035C228.376 124.293 226.537 124.958 224.651 124.9C223.364 124.919 222.09 124.642 220.923 124.089L221.376 120.331C222.413 121.215 223.728 121.686 225.078 121.656C225.487 121.66 225.892 121.581 226.271 121.423C226.65 121.265 226.994 121.032 227.284 120.737C227.951 120.015 228.351 119.078 228.417 118.088L228.545 116.952C227.516 117.902 226.177 118.422 224.791 118.412C222.998 118.412 221.605 117.741 220.613 116.4C219.621 115.059 219.243 113.385 219.48 111.38C219.666 109.482 220.488 107.709 221.807 106.36C222.409 105.716 223.133 105.205 223.935 104.858C224.737 104.511 225.601 104.336 226.472 104.344C227.158 104.315 227.841 104.451 228.465 104.742C229.09 105.034 229.639 105.471 230.067 106.02L230.441 104.626ZM225.973 114.952C226.613 114.951 227.236 114.749 227.76 114.373C228.317 113.981 228.768 113.449 229.066 112.828L229.41 109.963C229.275 109.349 228.946 108.798 228.473 108.395C228.019 108.002 227.44 107.791 226.845 107.8C226.405 107.795 225.968 107.884 225.563 108.061C225.158 108.237 224.793 108.499 224.492 108.827C223.835 109.526 223.425 110.43 223.329 111.395C223.236 112.002 223.287 112.623 223.476 113.206C223.647 113.727 223.976 114.178 224.417 114.492C224.876 114.808 225.42 114.969 225.973 114.952Z" fill="#29ABE2"/>
<path d="M236.167 118.05L237.723 104.844H241.449L239.892 118.05H236.167ZM239.867 102.581C239.604 102.587 239.344 102.534 239.104 102.425C238.864 102.315 238.65 102.152 238.478 101.947C238.299 101.741 238.167 101.497 238.089 101.232C238.012 100.968 237.991 100.689 238.03 100.415C238.115 99.8267 238.396 99.2879 238.825 98.8923C239.254 98.4966 239.803 98.269 240.377 98.2491C240.644 98.2399 240.91 98.2917 241.156 98.4008C241.401 98.5098 241.621 98.6735 241.799 98.8802C241.976 99.0868 242.108 99.3314 242.184 99.5966C242.26 99.8619 242.279 100.141 242.24 100.415C242.173 101.013 241.886 101.562 241.438 101.947C241.008 102.351 240.448 102.575 239.867 102.573V102.581Z" fill="#29ABE2"/>
<path d="M250.994 114.418L252.513 117.094C251.612 117.752 250.505 118.089 249.378 118.047C247.624 118.047 246.359 117.623 245.582 116.775C244.805 115.926 244.504 114.763 244.679 113.285L245.37 107.714H243.783L244.129 104.909H245.723L246.281 100.533H250.159L249.602 104.909H252.923L252.577 107.714H249.249L248.531 113.3C248.454 113.706 248.539 114.126 248.77 114.473C248.886 114.608 249.033 114.714 249.199 114.783C249.365 114.852 249.546 114.882 249.727 114.87C249.959 114.88 250.19 114.846 250.408 114.768C250.626 114.69 250.825 114.571 250.994 114.418Z" fill="#29ABE2"/>
<path d="M261.113 104.342C262.963 104.342 264.39 104.764 265.392 105.607C266.394 106.451 266.788 107.716 266.576 109.403L265.526 117.785H262.216L262.189 116.494C260.858 117.477 259.243 118.021 257.576 118.049C256.295 118.049 255.29 117.685 254.563 116.957C253.848 116.226 253.567 115.247 253.728 114.016C253.807 113.368 254.04 112.748 254.41 112.206C254.779 111.663 255.274 111.214 255.854 110.894C257.11 110.141 258.742 109.916 260.752 110.22L262.635 110.51L262.77 109.381C262.837 109.088 262.82 108.782 262.72 108.498C262.62 108.214 262.442 107.963 262.205 107.773C261.672 107.402 261.028 107.216 260.375 107.245C259.711 107.253 259.056 107.398 258.453 107.67C257.85 107.943 257.313 108.337 256.877 108.827L254.805 106.639C255.583 105.872 256.519 105.275 257.549 104.888C258.695 104.501 259.902 104.316 261.113 104.342ZM257.83 113.805C257.794 113.992 257.804 114.184 257.861 114.365C257.917 114.547 258.017 114.713 258.153 114.848C258.464 115.115 258.871 115.25 259.283 115.225C260.198 115.225 261.158 114.829 262.162 114.039L262.351 112.694L261.301 112.483C260.148 112.254 259.279 112.284 258.733 112.562C258.486 112.674 258.274 112.848 258.118 113.066C257.962 113.285 257.868 113.539 257.845 113.805H257.83Z" fill="#29ABE2"/>
<path d="M274.261 118.046C272.568 118.046 271.347 117.617 270.597 116.759C269.847 115.9 269.556 114.723 269.725 113.227L271.557 98.248H275.301L273.469 113.253C273.394 113.664 273.477 114.089 273.7 114.44C273.811 114.577 273.953 114.685 274.114 114.754C274.274 114.824 274.449 114.854 274.623 114.842C274.845 114.849 275.065 114.81 275.272 114.73C275.479 114.649 275.668 114.528 275.829 114.373L277.294 117.082C276.423 117.75 275.351 118.09 274.261 118.046Z" fill="#29ABE2"/>
</svg>
