<svg width="552" height="375" viewBox="0 0 552 375" fill="none" xmlns="http://www.w3.org/2000/svg">
<mask id="mask0_257_17427" style="mask-type:alpha" maskUnits="userSpaceOnUse" x="0" y="0" width="552" height="375">
<rect width="552" height="375" rx="15" fill="#FFDAF7"/>
</mask>
<g mask="url(#mask0_257_17427)">
<rect width="552" height="375" rx="15" fill="#FFDAF7"/>
<path d="M382.5 292L423.5 373H269.5L277.5 281L382.5 292Z" fill="#662D91"/>
</g>
<path d="M231.976 154.526L272.681 287.578L383.843 292.636L379.832 266.778L318.297 258.205L378.144 255.891L374.133 230.033L312.175 218.738L370.967 209.62L366.957 183.762L306.054 179.271L364.846 170.153L359.358 134.769L330.901 136.395L324.43 67.7161L272.832 85.4745L300.144 141.166L231.976 154.526Z" fill="#C1272D"/>
<path d="M119.38 96.9554L111.35 86.3226C109.826 84.302 107.754 82.7543 105.376 81.8606C102.999 80.9669 100.414 80.7642 97.9248 81.2761L71.7021 86.6341C69.3517 87.1145 67.1743 88.2127 65.3971 89.8141C63.62 91.4154 62.3083 93.4611 61.599 95.7378C60.8896 98.0144 60.8088 100.438 61.3647 102.757C61.9207 105.075 63.0931 107.203 64.7596 108.917L134.833 180.938C136.179 182.324 137.813 183.402 139.62 184.099C141.428 184.796 143.366 185.094 145.301 184.974C147.236 184.853 149.122 184.317 150.827 183.401C152.533 182.486 154.018 181.213 155.18 179.671L209.319 107.983C210.722 106.125 211.611 103.935 211.899 101.63C212.186 99.3252 211.861 96.9859 210.956 94.8444C210.051 92.7029 208.598 90.8337 206.741 89.4226C204.883 88.0114 202.687 87.1074 200.369 86.8003L158.107 81.2139C154.764 80.7576 151.37 81.5744 148.609 83.5005C145.847 85.4267 143.921 88.3194 143.218 91.5975C142.704 94.1094 141.47 96.4203 139.664 98.2525C137.859 100.085 135.56 101.36 133.042 101.926C130.525 102.492 127.896 102.324 125.473 101.442C123.049 100.56 120.933 99.0024 119.38 96.9554Z" fill="white"/>
</svg>
