<svg width="666" height="1029" viewBox="0 0 666 1029" fill="none" xmlns="http://www.w3.org/2000/svg">
<mask id="mask0_104_11507" style="mask-type:alpha" maskUnits="userSpaceOnUse" x="0" y="0" width="666" height="1029">
<rect width="666" height="1029" fill="#D9D9D9"/>
</mask>
<g mask="url(#mask0_104_11507)">
<path d="M235.008 543.289C238.867 523.746 229.998 506.06 214.965 489.132C188.558 459.573 188.408 447.897 214.614 419.096C231.401 400.653 236.938 380.988 235.109 356.731C232.253 318.5 238.09 310.61 276.373 302.085C301.001 296.613 317.587 284.741 330.315 263.561C349.481 231.805 359.828 228.409 394.203 242.236C417.954 251.811 439.475 253.106 463.853 242.944C500.006 227.896 510.68 231.219 530.072 263.855C544.002 287.306 563.92 297.859 589.375 304.063C622.196 312.051 629.862 322.067 625.578 354.508C622.221 380.035 628.985 399.969 646.223 419.169C672.003 447.872 671.928 458.987 646.899 487.177C629.988 506.231 622.121 525.896 625.803 551.741C630.413 584.304 621.018 597.129 587.871 603.846C560.136 609.465 540.845 622.852 528.092 647.28C515.34 671.708 495.146 679.036 469.866 666.676C442.908 653.607 417.253 653.387 390.169 666.676C366.443 678.475 345.999 673.198 333.847 649.234C320.418 622.778 299.498 609.074 269.859 603.162C238.015 596.86 233.756 587.26 235.008 543.289Z" fill="#0A0C35"/>
<path d="M548.609 502.736C548.609 502.736 588.857 477.904 588.857 524.039C588.857 570.173 563.174 573.727 548.609 562.991C534.044 552.255 548.609 502.736 548.609 502.736Z" fill="#662D91"/>
<path d="M313.734 502.736C313.734 502.736 273.485 477.904 273.485 524.039C273.485 570.173 299.169 573.727 313.734 562.991C328.299 552.255 313.734 502.736 313.734 502.736Z" fill="#662D91"/>
<path d="M402.583 699.485L370.266 777.414H492.076L469.703 690.719L406.759 699.316L402.583 699.485Z" fill="#662D91"/>
<path d="M472.053 700.018C472.053 700.018 466.792 715.255 436.874 715.255C406.957 715.255 401.97 698.996 401.97 698.996C401.97 698.996 467.341 687.08 472.053 700.018Z" fill="#63151B"/>
<path d="M489.766 366.19C466.268 356.771 440.108 356.166 416.192 364.49C374.366 378.388 304.623 415.549 306.912 508.746C310.146 641.642 323.159 687.205 424.004 702.385C524.849 717.565 550.9 607.463 554.135 542.925C556.921 487.603 562.221 396.007 489.766 366.19Z" fill="#662D91"/>
<path d="M478.284 733.25C478.284 733.25 463.46 767.506 432.939 767.506C402.419 767.506 385.823 739.857 385.823 739.857L171.029 833.573L145 1026.88L709 1029.32L659.837 784.635L478.284 733.25Z" fill="#EF98C0"/>
<path d="M391.959 521.659C391.959 521.659 383.494 505.067 366.59 507.82C349.686 510.573 346.905 527.141 346.905 527.141" fill="#09231E"/>
<path d="M512.1 528.778C512.1 528.778 509.838 509.365 493.331 506.282C476.824 503.2 468.715 518.715 468.715 518.715" fill="#09231E"/>
<path d="M465.378 629.38C465.378 629.38 425.041 640.177 396.124 626.669C367.207 613.16 358.585 602.387 358.585 602.387" stroke="#110A03" stroke-width="2.37142" stroke-miterlimit="10" stroke-linecap="round"/>
<path d="M561.818 564.746C562.183 562.909 563.193 561.253 564.675 560.063C566.156 558.872 568.016 558.221 569.936 558.221C571.856 558.221 573.716 558.872 575.197 560.063C576.679 561.253 577.688 562.909 578.053 564.746C583.406 592.664 593.987 636.232 611.579 664.321C639.224 708.403 556.29 740.509 557.521 704.876C558.501 677.913 554.128 605.35 561.818 564.746Z" fill="#FDCE34"/>
<path d="M298.977 564.787C298.635 562.942 297.661 561.276 296.221 560.077C294.782 558.877 292.97 558.221 291.098 558.221C289.226 558.221 287.414 558.877 285.975 560.077C284.535 561.276 283.561 562.942 283.219 564.787C277.991 592.698 267.731 636.254 250.606 664.336C223.733 708.406 304.351 740.503 303.154 704.88C302.226 677.924 306.452 605.38 298.977 564.787Z" fill="#FDCE34"/>
<path d="M437.845 577.851C453.972 577.851 467.046 569.429 467.046 559.04C467.046 548.651 453.972 540.229 437.845 540.229C421.717 540.229 408.644 548.651 408.644 559.04C408.644 569.429 421.717 577.851 437.845 577.851Z" fill="#EF98C0"/>
<path d="M555.442 532.049C555.442 532.049 527.548 526.451 535.033 489.784C535.033 489.784 510.083 475.116 517.568 460.449C517.568 460.449 490.947 459.741 491.795 438.107C491.795 438.107 477.648 455.56 450.203 438.449C450.203 438.449 437.728 455.56 417.768 448.227C417.768 448.227 402.798 479.199 369.191 462.503C369.191 462.503 362.878 499.562 335.433 489.784C335.433 489.784 323.832 516.673 307.19 495.895C290.548 475.116 270.563 492.228 268.068 448.227C268.068 448.227 225.653 416.448 260.583 377.336C260.583 377.336 247.185 313.584 297.559 310.015C297.559 310.015 336.357 253.253 392.045 290.85C392.045 290.85 422.958 239.735 481.491 277.992C481.491 277.992 552.498 245.333 574.953 306.446C574.953 306.446 623.905 345.558 594.439 382.225C594.439 382.225 606.914 435.271 565.971 444.193C565.971 444.193 581.939 457.467 565.971 483.306C565.872 483.403 573.257 513.202 555.442 532.049Z" fill="#0A0C35"/>
</g>
</svg>
