<svg width="666" height="1029" viewBox="0 0 666 1029" fill="none" xmlns="http://www.w3.org/2000/svg">
<mask id="mask0_104_11555" style="mask-type:alpha" maskUnits="userSpaceOnUse" x="0" y="0" width="666" height="1029">
<rect width="666" height="1029" fill="#D9D9D9"/>
</mask>
<g mask="url(#mask0_104_11555)">
<path d="M274.573 699.948L265.341 784.881H353.042L323.039 694.703L274.573 699.948Z" fill="#FDCE34"/>
<path d="M344.634 749.121C344.634 749.121 332.837 781.682 308.53 781.682C284.223 781.682 270.998 755.401 270.998 755.401L99.9039 844.478L79.168 1028.21L528.446 1030.54L489.278 797.962L344.634 749.121Z" fill="#29ABE2"/>
<path d="M336.118 719.091C336.118 719.091 331.161 733.574 302.911 733.574C274.661 733.574 269.957 718.119 269.957 718.119C269.957 718.119 331.666 706.793 336.118 719.091Z" fill="#63151B"/>
<path d="M128.183 558.318C131.728 539.604 123.579 522.668 109.766 506.457C85.5033 478.153 85.3651 466.971 109.444 439.392C124.868 421.73 129.955 402.9 128.275 379.671C125.65 343.062 131.014 335.507 166.189 327.343C188.817 322.103 204.057 310.734 215.751 290.453C233.361 260.043 242.869 256.792 274.452 270.032C296.275 279.201 316.05 280.441 338.448 270.71C371.666 256.3 381.473 259.482 399.29 290.734C412.089 313.19 430.39 323.296 453.779 329.237C483.935 336.887 490.979 346.478 487.043 377.542C483.958 401.987 490.174 421.075 506.011 439.462C529.699 466.948 529.63 477.591 506.633 504.586C491.094 522.832 483.866 541.663 487.25 566.412C491.486 597.593 482.853 609.874 452.398 616.307C426.914 621.687 409.189 634.506 397.472 657.899C385.754 681.291 367.2 688.309 343.973 676.472C319.203 663.957 295.631 663.747 270.746 676.472C248.946 687.771 230.162 682.718 218.997 659.77C206.658 634.436 187.436 621.313 160.204 615.652C130.945 609.617 127.032 600.424 128.183 558.318Z" fill="#F15A24"/>
<path d="M458.661 541.094C458.661 541.094 475.954 725.8 315.956 725.8C155.958 725.8 155.981 611.496 160.316 514.711C164.651 417.926 185.659 342.485 309.19 320.861C432.721 299.236 458.661 426.744 458.661 541.094Z" fill="#FDCE34"/>
<path d="M268.418 523.782C268.418 523.782 259.754 505.415 242.447 508.472C225.141 511.529 222.26 529.896 222.26 529.896" fill="#09231E"/>
<path d="M397.662 531.451C397.662 531.451 395.064 510.372 376.356 507.016C357.649 503.66 348.426 520.513 348.426 520.513" fill="#09231E"/>
<path d="M305.283 520.545C301.743 522.731 298.722 525.687 296.437 529.202C294.153 532.716 292.661 536.702 292.07 540.872C288.863 560.339 279.742 578.295 265.988 592.216C238.186 620.689 303.861 637.749 315.124 621.599C325.401 606.896 343.271 497.884 305.283 520.545Z" fill="#F7931E"/>
<path d="M314.577 665.738C314.577 665.738 277.964 676.541 251.717 663.025C225.47 649.51 217.644 638.73 217.644 638.73" stroke="#110A03" stroke-width="2.37142" stroke-miterlimit="10" stroke-linecap="round"/>
<path d="M233.799 570.32C262.266 570.32 285.343 546.652 285.343 517.457C285.343 488.261 262.266 464.594 233.799 464.594C205.332 464.594 182.255 488.261 182.255 517.457C182.255 546.652 205.332 570.32 233.799 570.32Z" stroke="white" stroke-width="2.07413" stroke-miterlimit="10"/>
<path d="M388.431 570.32C417.323 570.32 440.744 546.652 440.744 517.457C440.744 488.261 417.323 464.594 388.431 464.594C359.539 464.594 336.118 488.261 336.118 517.457C336.118 546.652 359.539 570.32 388.431 570.32Z" stroke="white" stroke-width="2.07413" stroke-miterlimit="10"/>
<path d="M336.117 508.38C336.117 508.38 324.753 493.728 308.457 494.143C292.161 494.559 285.343 511.238 285.343 511.238" stroke="white" stroke-width="2.07413" stroke-miterlimit="10"/>
</g>
</svg>
