<svg width="820" height="1029" viewBox="0 0 820 1029" fill="none" xmlns="http://www.w3.org/2000/svg">
<mask id="mask0_104_11554" style="mask-type:alpha" maskUnits="userSpaceOnUse" x="0" y="0" width="820" height="1029">
<rect width="820" height="1029" fill="#D9D9D9"/>
</mask>
<g mask="url(#mask0_104_11554)">
<path d="M400.127 582.889C400.127 582.889 435.184 560.593 435.184 602.015C435.184 643.437 412.813 646.628 400.127 636.989C387.441 627.349 400.127 582.889 400.127 582.889Z" fill="#C1272D"/>
<path d="M416.42 623.895C426.601 629.944 433.73 644.053 433.73 660.524C433.73 682.47 421.042 700.266 405.388 700.266C389.735 700.266 377.047 682.47 377.047 660.524C377.049 657.168 377.355 653.82 377.963 650.522" stroke="#FDCE34" stroke-width="12" stroke-miterlimit="10"/>
<path d="M194.294 582.889C194.294 582.889 160.489 560.593 160.489 602.015C160.489 643.437 182.061 646.628 194.294 636.989C206.528 627.349 194.294 582.889 194.294 582.889Z" fill="#C1272D"/>
<path d="M177.799 623.895C167.618 629.944 160.489 644.053 160.489 660.524C160.489 682.47 173.178 700.266 188.831 700.266C204.484 700.266 217.172 682.47 217.172 660.524C217.17 657.168 216.864 653.82 216.257 650.522" stroke="#FDCE34" stroke-width="12" stroke-miterlimit="10"/>
<path d="M271.482 759.542L243.333 829.512H349.432L329.945 751.672L275.12 759.391L271.482 759.542Z" fill="#C1272D"/>
<path d="M331.992 760.019C331.992 760.019 327.519 773.7 302.08 773.7C276.642 773.7 272.402 759.102 272.402 759.102C272.402 759.102 327.985 748.403 331.992 760.019Z" fill="#63151B"/>
<path d="M348.875 460.29C328.408 451.833 305.621 451.29 284.79 458.763C248.359 471.242 187.612 504.607 189.606 588.285C192.423 707.606 203.758 748.516 291.595 762.145C379.433 775.774 402.123 676.919 404.941 618.972C407.368 569.301 411.984 487.062 348.875 460.29Z" fill="#C1272D"/>
<path d="M337.419 789.855C337.419 789.855 324.507 820.613 297.923 820.613C271.339 820.613 256.884 795.787 256.884 795.787L69.7951 879.931L47.1235 1053.49L538.376 1055.69L495.554 835.992L337.419 789.855Z" fill="#EF98C0"/>
<path d="M288.482 601.968C289.308 599.348 290.96 597.065 293.193 595.459C295.426 593.852 298.12 593.009 300.872 593.054C303.625 593.1 306.289 594.032 308.467 595.711C310.646 597.39 312.222 599.726 312.961 602.372C312.961 602.574 313.073 602.776 313.118 602.977C318.265 623.518 331.1 672.291 310.533 672.291C289.965 672.291 279.67 674.848 279.67 649.172C279.603 633.093 284.638 613.988 288.482 601.968Z" fill="#EF98C0"/>
<path d="M269.495 594.005C269.495 594.005 262.123 579.108 247.399 581.58C232.675 584.052 230.253 598.927 230.253 598.927" fill="#09231E"/>
<path d="M374.14 600.396C374.14 600.396 372.17 582.966 357.792 580.198C343.415 577.43 336.352 591.36 336.352 591.36" fill="#09231E"/>
<path d="M321.818 696.598C321.818 696.598 287.782 706.292 263.382 694.163C238.982 682.035 231.707 672.361 231.707 672.361" stroke="#110A03" stroke-width="2.37142" stroke-miterlimit="10" stroke-linecap="round"/>
<path d="M555.243 746.257L546.522 825.104H629.367L601.025 741.389L555.243 746.257Z" fill="#EF98C0"/>
<path d="M619.376 794.262C619.376 794.262 608.194 825.019 585.155 825.019C562.115 825.019 549.58 800.172 549.58 800.172L387.408 884.337L367.753 1057.9L793.602 1060.09L756.477 840.398L619.376 794.262Z" fill="#85C6AB"/>
<path d="M505.827 424.788C505.827 424.788 565.585 303.245 702.834 395.707C840.083 488.169 687.584 807.381 800.869 769.956C800.869 769.956 674.513 833.799 652.727 754.546C630.942 675.293 644.013 589.436 644.013 589.436L505.827 424.788Z" fill="#1E5884"/>
<path d="M610.473 740.928C610.473 740.928 605.891 754.609 579.832 754.609C553.773 754.609 549.43 740.01 549.43 740.01C549.43 740.01 606.369 729.311 610.473 740.928Z" fill="#63151B"/>
<path d="M682.609 463.487L694.478 604.89C695.299 614.598 694.389 624.375 691.789 633.76L679.832 676.834C676.594 688.482 670.834 699.265 662.966 708.412C655.099 717.558 645.317 724.84 634.322 729.737L607.305 741.742C597.229 746.223 586.353 748.599 575.336 748.728C564.32 748.856 553.392 746.734 543.215 742.49L523.542 734.244C511.848 729.372 501.446 721.822 493.162 712.196C484.878 702.569 478.942 691.131 475.824 678.791L460.348 617.621C457.037 604.475 457.037 590.705 460.348 577.559L484.852 478.944C488.678 463.248 497.064 449.053 508.942 438.17C520.82 427.288 535.65 420.21 551.543 417.84C559.506 416.675 567.582 416.498 575.588 417.312C617.032 421.71 678.237 419.511 682.609 463.487Z" fill="#EF98C0"/>
<path d="M589.263 456.986C589.263 456.986 595.829 551.285 440.424 571.022C440.424 571.022 446.991 382.424 580.508 410.933C588.702 424.789 591.799 441.081 589.263 456.986Z" fill="#1B6AB2"/>
<path d="M556.221 461.529C556.221 461.529 548.447 561.778 732.56 582.772C732.56 582.772 724.785 382.272 566.602 412.588C557.006 426.966 553.29 444.485 556.221 461.529V461.529Z" fill="#1B6AB2"/>
<path d="M586.576 623.895H571.871C565.898 623.895 561.056 629.037 561.056 635.38V637.377C561.056 643.72 565.898 648.862 571.871 648.862H586.576C592.549 648.862 597.391 643.72 597.391 637.377V635.38C597.391 629.037 592.549 623.895 586.576 623.895Z" fill="#FDCE34"/>
<path d="M543.616 593.151C543.616 593.151 534.885 575.802 517.447 578.69C500.009 581.577 497.106 598.927 497.106 598.927" fill="#09231E"/>
<path d="M662.795 600.395C662.795 600.395 660.418 580.484 643.299 577.314C626.18 574.144 617.74 590.064 617.74 590.064" fill="#09231E"/>
<path d="M520.684 660.611C520.684 660.611 573.745 689.095 614.832 671.616C614.832 671.616 605.738 714.558 559.94 710.242C514.141 705.926 520.684 660.611 520.684 660.611Z" fill="#09231E"/>
<path d="M593.151 640.333C594.296 640.008 595.53 639.963 596.705 640.202C597.88 640.441 598.947 640.954 599.778 641.68C600.391 642.14 600.882 642.698 601.222 643.32C601.561 643.943 601.742 644.617 601.752 645.299C601.762 645.982 601.601 646.659 601.28 647.288C600.959 647.917 600.484 648.485 599.885 648.957C599.286 649.428 598.576 649.792 597.799 650.027C597.021 650.263 596.193 650.363 595.367 650.323C594.54 650.283 593.733 650.103 592.994 649.794C592.256 649.485 591.602 649.054 591.075 648.528C590.701 648.213 590.381 647.858 590.125 647.472" stroke="#0071BC" stroke-width="2" stroke-miterlimit="10"/>
<path d="M392.788 344.791L382.947 331.602C381.079 329.096 378.54 327.176 375.626 326.067C372.713 324.959 369.545 324.708 366.495 325.343L334.358 331.988C331.477 332.584 328.809 333.947 326.631 335.933C324.453 337.919 322.845 340.457 321.976 343.28C321.107 346.104 321.008 349.111 321.689 351.987C322.371 354.862 323.807 357.501 325.85 359.628L411.727 448.961C413.377 450.68 415.378 452.018 417.594 452.882C419.809 453.747 422.184 454.117 424.556 453.968C426.927 453.818 429.238 453.153 431.328 452.017C433.419 450.881 435.239 449.303 436.662 447.39L503.011 358.469C504.731 356.165 505.821 353.448 506.173 350.589C506.525 347.73 506.127 344.829 505.018 342.172C503.909 339.516 502.128 337.198 499.852 335.447C497.576 333.697 494.883 332.576 492.043 332.195L440.25 325.265C436.153 324.699 431.994 325.712 428.609 328.102C425.224 330.491 422.864 334.079 422.003 338.145V338.145C421.372 341.261 419.86 344.127 417.648 346.4C415.436 348.672 412.617 350.255 409.532 350.957C406.447 351.658 403.226 351.45 400.255 350.356C397.285 349.262 394.692 347.33 392.788 344.791V344.791Z" fill="#FF92E8"/>
</g>
</svg>
