<svg width="812" height="1020" viewBox="0 0 812 1020" fill="none" xmlns="http://www.w3.org/2000/svg">
<mask id="mask0_134_19671" style="mask-type:alpha" maskUnits="userSpaceOnUse" x="0" y="0" width="812" height="1020">
<rect width="812" height="1020" fill="#D9D9D9"/>
</mask>
<g mask="url(#mask0_134_19671)">
<g clip-path="url(#clip0_134_19671)">
<path d="M775 529.271L344.206 544.137L331 407H775V529.271Z" fill="#C49474"/>
<path d="M446.889 501.973L446.56 450.927L436.817 451.042C436.26 451.101 435.697 451.014 435.183 450.791C434.669 450.568 434.221 450.215 433.884 449.767C433.331 448.92 433.079 447.911 433.169 446.903C433.222 445.881 433.548 444.892 434.113 444.038C434.331 443.669 434.64 443.361 435.011 443.146C435.382 442.93 435.802 442.813 436.23 442.807H466.533C467.096 442.853 467.639 443.039 468.112 443.349C468.584 443.66 468.971 444.084 469.237 444.583C469.707 445.459 469.863 446.47 469.681 447.447C469.476 448.419 468.976 449.305 468.25 449.982C467.916 450.338 467.494 450.599 467.026 450.737C466.559 450.876 466.062 450.887 465.589 450.77L455.188 450.87L455.302 501.915L465.589 502.03C466.061 501.914 466.556 501.925 467.023 502.06C467.49 502.196 467.913 502.452 468.25 502.803C468.974 503.489 469.473 504.378 469.681 505.353C469.863 506.33 469.707 507.341 469.237 508.217C468.984 508.738 468.604 509.185 468.131 509.519C467.658 509.852 467.108 510.059 466.533 510.122H436.23C435.775 510.123 435.327 510 434.936 509.765C434.546 509.53 434.226 509.193 434.013 508.79C433.448 507.937 433.122 506.948 433.068 505.926C432.979 504.917 433.231 503.909 433.784 503.061C434.119 502.611 434.567 502.257 435.081 502.033C435.595 501.81 436.159 501.725 436.717 501.786L446.46 501.887L446.889 501.973Z" fill="#0A0C35"/>
<path d="M513.877 490.07C514.029 489.512 514.331 489.006 514.75 488.608C515.168 488.209 515.688 487.932 516.252 487.807C517.281 487.617 518.345 487.81 519.242 488.351C520.189 488.974 520.907 489.889 521.288 490.958C521.523 491.557 521.621 492.201 521.574 492.843C521.527 493.485 521.336 494.109 521.016 494.667C519.114 499.289 516.137 503.39 512.331 506.626C508.969 509.549 504.667 511.161 500.213 511.166C496.896 511.165 493.644 510.248 490.813 508.517C487.765 506.651 485.13 504.18 483.073 501.255C480.75 497.97 478.989 494.321 477.865 490.456C476.587 486.109 475.955 481.596 475.991 477.065C475.968 472.515 476.6 467.986 477.865 463.616C478.995 459.634 480.754 455.858 483.073 452.43C485.099 449.39 487.735 446.805 490.813 444.839C493.618 443.036 496.88 442.077 500.213 442.075C504.669 441.981 509.041 443.299 512.703 445.842C516.318 448.353 519.156 452.411 521.216 458.016C521.498 458.413 521.65 458.889 521.65 459.377C521.65 459.864 521.498 460.34 521.216 460.737C520.668 461.672 519.843 462.412 518.856 462.857C517.84 463.34 516.701 463.495 515.593 463.301C514.988 463.183 514.423 462.914 513.95 462.518C513.477 462.122 513.112 461.613 512.889 461.038C511.401 457.276 509.594 454.693 507.467 453.29C505.26 451.867 502.68 451.134 500.056 451.184C497.802 451.2 495.619 451.978 493.861 453.39C491.812 455.019 490.102 457.034 488.824 459.319C487.301 462.011 486.165 464.904 485.448 467.913C484.632 471.153 484.223 474.482 484.232 477.824C484.213 481.061 484.641 484.286 485.505 487.406C486.246 490.177 487.424 492.812 488.996 495.211C490.329 497.25 492.068 498.99 494.104 500.324C496.26 501.78 498.857 502.433 501.445 502.171C504.032 501.91 506.446 500.75 508.268 498.892C510.802 496.431 512.723 493.409 513.877 490.07V490.07Z" fill="#0A0C35"/>
<path d="M542.749 511.94C542.005 511.932 541.263 511.86 540.532 511.725C539.767 511.593 539.025 511.352 538.328 511.009C537.717 510.707 537.156 510.311 536.669 509.834C536.447 509.619 536.273 509.361 536.157 509.075C536.042 508.788 535.987 508.481 535.996 508.173L535.224 447.718C535.165 446.921 535.273 446.121 535.542 445.369C535.81 444.616 536.233 443.929 536.783 443.35C537.813 442.347 539.721 441.846 542.506 441.846L572.251 442.075C572.808 442.012 573.373 442.096 573.888 442.32C574.402 442.544 574.849 442.899 575.184 443.35C575.753 444.19 576.006 445.205 575.899 446.214C575.842 447.233 575.522 448.22 574.969 449.079C574.753 449.462 574.439 449.782 574.06 450.006C573.681 450.23 573.249 450.35 572.809 450.353L543.937 450.683V471.45L563.08 471.55C563.637 471.492 564.2 471.578 564.714 471.801C565.228 472.025 565.675 472.377 566.013 472.825C566.564 473.673 566.815 474.682 566.728 475.69C566.671 476.711 566.345 477.699 565.784 478.554C565.567 478.936 565.253 479.254 564.873 479.476C564.494 479.697 564.063 479.814 563.624 479.814L544.08 480.044L544.18 503.203L572.494 503.418C573.04 503.372 573.588 503.464 574.089 503.687C574.589 503.91 575.025 504.256 575.356 504.693C575.908 505.54 576.16 506.549 576.071 507.557C576.017 508.579 575.691 509.568 575.127 510.421C574.911 510.806 574.598 511.127 574.219 511.351C573.839 511.575 573.407 511.694 572.966 511.696L542.749 511.94Z" fill="#0A0C35"/>
<path d="M626.261 456.47C626.48 456.924 626.576 457.428 626.538 457.931C626.501 458.434 626.331 458.918 626.046 459.334C625.47 460.14 624.654 460.742 623.714 461.053C622.796 461.377 621.809 461.451 620.853 461.268C620.403 461.195 619.989 460.978 619.672 460.65C619.355 460.323 619.152 459.901 619.093 459.449C618.707 457.588 617.894 455.842 616.718 454.35C615.77 453.204 614.627 452.234 613.342 451.486C612.277 450.87 611.116 450.439 609.908 450.211L607.475 449.824C605.761 449.664 604.032 449.834 602.382 450.326C600.948 450.746 599.601 451.42 598.405 452.316C597.347 453.097 596.444 454.068 595.743 455.181C595.115 456.184 594.737 457.324 594.642 458.504C594.36 460.487 594.669 462.51 595.529 464.319C596.384 465.873 597.62 467.184 599.12 468.128C600.916 469.268 602.836 470.201 604.843 470.907C607.018 471.709 609.283 472.592 611.639 473.557C613.928 474.516 616.189 475.576 618.449 476.722C620.609 477.803 622.584 479.219 624.301 480.918C625.991 482.626 627.276 484.692 628.064 486.962C628.946 489.712 629.191 492.626 628.779 495.484C628.517 498.681 627.422 501.753 625.603 504.393C623.977 506.727 621.838 508.658 619.351 510.036C616.845 511.407 614.11 512.31 611.281 512.7C608.425 513.102 605.52 513.005 602.697 512.413C599.021 511.719 595.554 510.185 592.567 507.93C589.593 505.715 587.495 502.52 586.644 498.907C586.59 498.311 586.655 497.709 586.837 497.139C587.019 496.568 587.313 496.039 587.703 495.585C588.394 494.757 589.292 494.129 590.307 493.766C591.195 493.422 592.179 493.422 593.068 493.766C593.498 493.915 593.874 494.188 594.152 494.549C594.429 494.91 594.594 495.345 594.627 495.799C594.761 497.031 595.168 498.217 595.819 499.27C596.47 500.324 597.349 501.218 598.39 501.886C600.545 503.298 602.99 504.204 605.544 504.536C607.189 504.787 608.863 504.787 610.509 504.536C612.079 504.302 613.587 503.756 614.944 502.932C616.269 502.119 617.417 501.047 618.32 499.781C619.292 498.34 619.915 496.693 620.137 494.969C620.458 493.17 620.305 491.319 619.694 489.598C619.102 488.083 618.155 486.732 616.933 485.659C615.567 484.49 614.039 483.525 612.397 482.795C610.623 481.993 608.749 481.176 606.76 480.36C604.242 479.4 601.724 478.369 599.177 477.266C596.735 476.211 594.444 474.834 592.367 473.17C590.372 471.531 588.768 469.466 587.674 467.126C586.471 464.321 586.07 461.237 586.515 458.217C586.728 455.569 587.561 453.007 588.947 450.741C590.232 448.683 591.927 446.914 593.926 445.542C595.928 444.165 598.155 443.152 600.508 442.549C602.837 441.92 605.254 441.678 607.661 441.832C609.275 441.938 610.872 442.216 612.426 442.663C614.305 443.182 616.095 443.984 617.734 445.041C619.606 446.235 621.269 447.731 622.656 449.466C624.296 451.547 625.521 453.925 626.261 456.47V456.47Z" fill="#0A0C35"/>
<path d="M651.27 501.973L650.926 450.927L641.197 451.042C640.64 451.101 640.077 451.014 639.563 450.791C639.049 450.568 638.602 450.215 638.264 449.767C637.712 448.92 637.46 447.911 637.549 446.903C637.602 445.881 637.928 444.892 638.493 444.038C638.707 443.656 639.018 443.336 639.395 443.112C639.772 442.889 640.201 442.768 640.639 442.764H670.957C671.52 442.81 672.062 442.996 672.535 443.306C673.007 443.617 673.394 444.041 673.661 444.54C674.13 445.416 674.286 446.427 674.104 447.404C673.899 448.376 673.4 449.262 672.673 449.939C672.34 450.295 671.917 450.556 671.449 450.694C670.982 450.833 670.486 450.844 670.012 450.727L659.611 450.827L659.725 501.872L670.012 501.987C670.485 501.871 670.979 501.882 671.446 502.017C671.913 502.153 672.336 502.409 672.673 502.76C673.397 503.446 673.896 504.335 674.104 505.31C674.286 506.287 674.13 507.298 673.661 508.174C673.413 508.703 673.035 509.159 672.562 509.5C672.088 509.841 671.536 510.055 670.957 510.122H640.639C640.201 510.117 639.772 509.997 639.395 509.773C639.018 509.55 638.707 509.23 638.493 508.847C637.928 507.994 637.602 507.005 637.549 505.983C637.46 504.975 637.712 503.966 638.264 503.118C638.6 502.669 639.047 502.314 639.561 502.091C640.076 501.867 640.64 501.782 641.197 501.844L650.926 501.944L651.27 501.973Z" fill="#0A0C35"/>
<path d="M720.704 1020L733.394 530.703L397.114 542.319L367.984 1020H720.704Z" fill="#B27A54"/>
<path d="M562.908 770.502C612.587 770.502 652.859 730.188 652.859 680.457C652.859 630.727 612.587 590.412 562.908 590.412C513.23 590.412 472.958 630.727 472.958 680.457C472.958 730.188 513.23 770.502 562.908 770.502Z" stroke="#040423" stroke-width="4.61" stroke-miterlimit="10"/>
<path fill-rule="evenodd" clip-rule="evenodd" d="M570.791 630.243C567.888 629.935 564.969 629.801 562.049 629.842C559.134 629.735 556.215 629.869 553.322 630.243V630.243L553.021 625.946L556.985 625.531L555.554 604.047H549.702V598.161C549.702 598.161 550.689 597.244 562.006 597.244C573.324 597.244 574.325 598.161 574.325 598.161V604.047H568.502L567.071 625.531L571.049 625.946L570.748 630.243H570.791Z" fill="#0A0C35"/>
<path fill-rule="evenodd" clip-rule="evenodd" d="M550.932 630.86C550.932 630.86 548.071 631.676 542.791 633.725C540.05 634.81 537.396 636.102 534.851 637.592L532.962 633.725L536.439 631.906L527.096 612.513L521.645 614.848L519.456 609.376C519.456 609.376 520.143 608.145 530.573 603.647C541.003 599.15 542.291 599.694 542.291 599.694L544.48 605.18L539.014 607.515L545.867 628.01L549.645 626.692L550.932 630.86V630.86Z" fill="#0A0C35"/>
<path fill-rule="evenodd" clip-rule="evenodd" d="M532.862 639.181C530.595 641.011 528.44 642.977 526.41 645.067C524.293 647.154 522.332 649.395 520.544 651.77V651.77L517.368 648.906L519.957 645.769L504.119 631.561L499.941 635.858L495.878 631.704C495.878 631.704 495.978 630.272 504.019 622.151C512.06 614.031 513.362 613.83 513.362 613.83L517.425 617.998L513.261 622.295L527.154 638.536L530.244 635.901L532.92 639.252L532.862 639.181Z" fill="#0A0C35"/>
<path fill-rule="evenodd" clip-rule="evenodd" d="M519.356 653.79C517.915 656.374 516.653 659.054 515.579 661.811C514.369 664.541 513.374 667.362 512.603 670.247V670.247L508.626 668.915L509.827 664.962L489.811 658.059L487.522 663.644L482.157 661.41C482.157 661.41 481.756 660.092 486.134 649.322C490.513 638.551 491.6 638.064 491.6 638.064L496.951 640.299L494.776 645.884L513.633 655.423L515.565 651.771L519.342 653.79H519.356Z" fill="#0A0C35"/>
<path fill-rule="evenodd" clip-rule="evenodd" d="M512.202 672.581C511.885 675.544 511.723 678.523 511.716 681.503C511.667 684.49 511.829 687.477 512.202 690.441L508.039 690.741L507.638 686.688L486.592 688.12V694.107H480.869C480.869 694.107 479.968 693.09 479.968 681.518C479.968 669.945 480.869 668.828 480.869 668.828H486.592V674.929L507.638 676.362L508.039 672.294L512.202 672.609V672.581Z" fill="#0A0C35"/>
<path fill-rule="evenodd" clip-rule="evenodd" d="M512.703 692.775C513.456 695.582 514.413 698.329 515.565 700.996C516.575 703.813 517.839 706.531 519.342 709.117V709.117L515.565 711.036L513.676 707.485L494.819 717.023L496.994 722.509L491.643 724.843C491.643 724.843 490.541 724.127 486.178 713.471C481.814 702.815 482.2 701.498 482.2 701.498L487.565 699.263L489.812 704.906L509.842 697.946L508.64 694.093L512.718 692.775H512.703Z" fill="#0A0C35"/>
<path fill-rule="evenodd" clip-rule="evenodd" d="M520.644 711.137C522.434 713.469 524.344 715.706 526.367 717.84C528.377 719.988 530.569 721.957 532.919 723.726V723.726L530.144 727.078L527.053 724.442L513.204 740.713L517.367 745.009L513.304 749.177C513.304 749.177 511.873 749.077 503.961 740.856C496.049 732.635 495.82 731.317 495.82 731.317L499.884 727.149L504.061 731.446L519.957 717.238L517.367 714.087L520.644 711.223V711.137Z" fill="#0A0C35"/>
<path fill-rule="evenodd" clip-rule="evenodd" d="M534.951 725.258C537.446 726.679 540.031 727.932 542.692 729.01C545.387 730.243 548.176 731.259 551.033 732.047V732.047L549.602 736.114L545.825 734.897L539.072 755.292L544.537 757.626L542.248 763.112C542.248 763.112 540.96 763.513 530.53 759.044C520.1 754.576 519.514 753.459 519.514 753.459L521.688 747.988L527.154 750.322L536.482 730.929L532.92 729.01L534.908 725.258H534.951Z" fill="#0A0C35"/>
<path fill-rule="evenodd" clip-rule="evenodd" d="M553.408 732.562C556.259 732.882 559.124 733.049 561.993 733.064C564.916 733.18 567.843 733.013 570.734 732.562L571.135 736.931L567.057 737.232L568.488 758.715H574.44V764.702C574.44 764.702 573.353 765.518 562.021 765.518C550.69 765.518 549.717 764.702 549.717 764.702V758.715H555.626L557.056 737.232L553.093 736.931L553.48 732.562H553.408Z" fill="#0A0C35"/>
<path fill-rule="evenodd" clip-rule="evenodd" d="M573.28 732.12C576.088 731.35 578.841 730.393 581.521 729.255C584.236 728.188 586.858 726.9 589.362 725.402V725.402L591.393 729.255L587.817 731.088L597.116 750.424L602.567 748.089L604.756 753.575C604.756 753.575 604.156 754.792 593.64 759.304C583.124 763.815 581.922 763.271 581.922 763.271L579.733 757.785L585.198 755.551L578.517 734.984L574.639 736.302L573.352 732.148L573.28 732.12Z" fill="#0A0C35"/>
<path fill-rule="evenodd" clip-rule="evenodd" d="M591.551 723.927C593.816 722.1 595.971 720.139 598.003 718.055C600.119 715.962 602.08 713.717 603.869 711.338V711.338L607.046 714.202L604.456 717.353L620.351 731.561L624.515 727.264L628.593 731.432C628.593 731.432 628.492 732.864 620.452 740.971C612.411 749.077 611.109 749.292 611.109 749.292L607.046 745.139L611.209 740.842L597.317 724.6L594.255 727.279L591.579 723.927H591.551Z" fill="#0A0C35"/>
<path fill-rule="evenodd" clip-rule="evenodd" d="M605.258 709.203C606.65 706.594 607.91 703.918 609.035 701.183C610.255 698.508 611.214 695.721 611.896 692.861V692.861L615.974 694.179L614.787 698.032L634.817 704.935L637.106 699.349L642.371 701.584C642.371 701.584 642.757 702.901 638.494 713.557C634.23 724.213 632.885 724.958 632.885 724.958L627.534 722.738L629.809 717.152L610.938 707.599L609.064 711.266L605.258 709.203Z" fill="#0A0C35"/>
<path fill-rule="evenodd" clip-rule="evenodd" d="M612.411 690.341C612.411 690.341 612.797 687.29 612.898 681.404C612.946 678.417 612.784 675.431 612.411 672.467V672.467L616.575 672.166L616.975 676.233L638.021 674.801V668.814H643.744C643.744 668.814 644.646 669.831 644.646 681.404C644.646 692.976 643.744 693.993 643.744 693.993H638.021V687.992L616.975 686.56L616.575 690.585L612.411 690.284V690.341Z" fill="#0A0C35"/>
<path fill-rule="evenodd" clip-rule="evenodd" d="M611.896 669.932C611.896 669.932 611.11 666.996 609.035 661.611C607.97 658.817 606.708 656.103 605.258 653.49V653.49L609.035 651.556L610.809 655.208L629.781 645.67L627.506 640.098L632.857 637.764C632.857 637.764 634.059 638.465 638.322 649.121C642.586 659.777 642.3 661.109 642.3 661.109L636.934 663.372L634.645 657.801L614.686 664.804L615.874 668.657L611.896 669.975V669.932Z" fill="#0A0C35"/>
<path fill-rule="evenodd" clip-rule="evenodd" d="M603.669 651.456C601.88 649.127 599.97 646.895 597.946 644.767C595.915 642.641 593.724 640.673 591.394 638.881L594.069 635.529L597.145 638.165L611.052 621.923L606.888 617.626L610.952 613.473C610.952 613.473 612.382 613.573 620.294 621.794C628.206 630.015 628.435 631.333 628.435 631.333L624.358 635.501L620.194 631.204L604.299 645.412L606.888 648.563L603.612 651.427L603.669 651.456Z" fill="#0A0C35"/>
<path fill-rule="evenodd" clip-rule="evenodd" d="M589.276 637.447C586.725 636.032 584.103 634.746 581.422 633.595C578.777 632.35 576.017 631.366 573.181 630.659L574.468 626.591L578.346 627.808L585.099 607.413L579.633 605.079L581.822 599.593C581.822 599.593 583.11 599.192 593.54 603.661C603.97 608.129 604.657 609.232 604.657 609.232L602.468 614.675L597.017 612.34L587.674 631.733L591.151 633.552L589.276 637.404V637.447Z" fill="#0A0C35"/>
<path fill-rule="evenodd" clip-rule="evenodd" d="M539.716 659.777C538.557 661.135 537.491 662.571 536.525 664.074C535.494 665.546 534.599 667.109 533.85 668.743V668.743L531.575 667.425L532.763 665.291L521.546 658.703L519.557 661.739L516.581 659.705C516.581 659.705 516.581 658.903 520.344 653.017C524.107 647.13 525.022 646.93 525.022 646.93L527.884 648.949L525.895 652L536.125 660.02L537.713 658.087L539.702 659.705L539.716 659.777Z" fill="#0A0C35"/>
<path fill-rule="evenodd" clip-rule="evenodd" d="M533.263 670.247C532.719 671.975 532.284 673.735 531.961 675.518C531.58 677.285 531.35 679.082 531.274 680.889V680.889L528.685 680.588L528.885 678.153L516.18 676.434L515.479 680.087L512.002 679.371C512.002 679.371 511.602 678.569 512.904 671.665C514.206 664.762 514.893 664.246 514.893 664.246L518.426 664.805L517.74 668.457L530.259 671.909L530.845 669.474L533.335 670.19L533.263 670.247Z" fill="#0A0C35"/>
<path fill-rule="evenodd" clip-rule="evenodd" d="M531.303 682.42C531.455 684.225 531.718 686.018 532.09 687.791C532.349 689.591 532.785 691.361 533.392 693.076V693.076L530.902 693.792L530.215 691.457L517.797 694.795L518.498 698.361L515.007 699.063C515.007 699.063 514.42 698.561 513.032 691.758C511.645 684.955 512.031 684.038 512.031 684.038L515.508 683.337L516.209 686.989L529.014 685.256L528.713 682.721L531.303 682.42V682.42Z" fill="#0A0C35"/>
<path fill-rule="evenodd" clip-rule="evenodd" d="M533.949 694.494C534.767 696.062 535.665 697.587 536.639 699.063C537.625 700.602 538.71 702.076 539.887 703.474L537.798 705.093L536.367 703.174L526.138 711.18L528.126 714.23L525.265 716.264C525.265 716.264 524.478 716.049 520.601 710.177C516.723 704.305 516.823 703.474 516.823 703.474L519.814 701.441L521.788 704.491L532.919 697.989L531.732 695.755L534.007 694.537L533.949 694.494Z" fill="#0A0C35"/>
<path fill-rule="evenodd" clip-rule="evenodd" d="M540.903 704.447C540.903 704.447 542.334 705.665 545.195 707.684C546.625 708.745 548.154 709.666 549.759 710.434L548.572 712.769L546.383 711.551L539.93 723.009L543.006 725.029L541.018 728.079C541.018 728.079 540.231 728.18 534.465 724.212C528.699 720.245 528.398 719.443 528.398 719.443L530.387 716.578L533.377 718.612L541.218 708.157L539.329 706.524L540.917 704.505L540.903 704.447Z" fill="#0A0C35"/>
<path fill-rule="evenodd" clip-rule="evenodd" d="M551.133 711.037C552.823 711.593 554.549 712.038 556.297 712.369C558.02 712.82 559.784 713.089 561.563 713.171L561.262 715.806L558.773 715.506L557.185 728.611L560.661 729.313L559.974 732.865C559.974 732.865 559.273 733.266 552.52 731.848C545.767 730.43 545.181 729.814 545.181 729.814L545.867 726.262L549.444 726.978L552.721 714.288L550.431 713.572L551.133 711.037Z" fill="#0A0C35"/>
<path fill-rule="evenodd" clip-rule="evenodd" d="M563.051 713.17C564.817 713.025 566.575 712.786 568.316 712.454C570.077 712.133 571.806 711.654 573.481 711.021V711.021L574.168 713.557L571.793 714.273L575.169 727.063L578.746 726.346L579.433 729.798C579.433 729.798 578.832 730.514 572.079 731.832C565.326 733.15 564.639 732.849 564.639 732.849L563.938 729.297L567.415 728.595L565.726 715.49L563.351 715.791L563.051 713.156V713.17Z" fill="#0A0C35"/>
<path fill-rule="evenodd" clip-rule="evenodd" d="M574.869 710.534C574.869 710.534 576.457 709.718 579.433 707.799C580.96 706.811 582.396 705.689 583.725 704.447V704.447L585.328 706.581L583.439 708.099L591.28 718.555L594.256 716.521L596.244 719.386C596.244 719.386 596.044 720.202 590.292 724.155C584.541 728.108 583.725 728.022 583.725 728.022L581.751 724.971L584.727 722.952L578.274 711.58L576.085 712.797L574.898 710.463L574.869 710.534Z" fill="#0A0C35"/>
<path fill-rule="evenodd" clip-rule="evenodd" d="M584.798 703.474C584.798 703.474 585.985 702.042 587.974 699.106C589.024 697.681 589.921 696.15 590.65 694.537V694.537L592.939 695.755L591.751 697.989L602.968 704.491L604.957 701.441L607.933 703.374C607.933 703.374 607.933 704.291 604.156 710.063C600.379 715.835 599.492 716.264 599.492 716.264L596.63 714.23L598.604 711.18L588.389 703.174L586.801 705.093L584.798 703.474Z" fill="#0A0C35"/>
<path fill-rule="evenodd" clip-rule="evenodd" d="M591.394 693.076C591.918 691.339 592.347 689.575 592.681 687.791C593.066 685.987 593.333 684.159 593.482 682.32L595.958 682.621L595.757 685.156L608.562 686.889L609.263 683.237L612.74 683.939C612.74 683.939 613.041 684.655 611.753 691.659C610.465 698.662 609.764 698.963 609.764 698.963L606.288 698.247L606.989 694.795L594.57 691.358L593.869 693.793L591.394 693.076V693.076Z" fill="#0A0C35"/>
<path fill-rule="evenodd" clip-rule="evenodd" d="M593.439 680.802C593.285 678.992 593.017 677.194 592.638 675.417C592.385 673.621 591.954 671.856 591.351 670.146V670.146L593.826 669.43L594.527 671.765L606.946 668.413L606.245 664.761L609.721 664.045C609.721 664.045 610.322 664.561 611.71 671.45C613.098 678.339 612.697 679.169 612.697 679.169L609.22 679.886L608.562 676.262L595.757 677.981L596.058 680.516L593.482 680.831L593.439 680.802Z" fill="#0A0C35"/>
<path fill-rule="evenodd" clip-rule="evenodd" d="M590.75 668.613C590.75 668.613 589.963 666.994 588.074 663.943C587.112 662.394 586.015 660.933 584.798 659.575V659.575L586.887 657.957L588.317 659.89L598.547 651.913L596.573 648.862L599.549 646.828C599.549 646.828 600.35 647.043 604.113 652.929C607.876 658.816 607.89 659.618 607.89 659.618L605.028 661.652L602.94 658.601L591.808 665.204L593.01 667.338L590.721 668.656L590.75 668.613Z" fill="#0A0C35"/>
<path fill-rule="evenodd" clip-rule="evenodd" d="M583.696 658.458C583.696 658.458 582.265 657.241 579.404 655.207C577.972 654.153 576.444 653.237 574.84 652.471V652.471L576.128 650.137L578.216 651.354L584.669 639.896L581.693 637.877L583.667 634.826C583.667 634.826 584.469 634.826 590.235 638.679C596 642.532 596.186 643.448 596.186 643.448L594.255 646.384L591.279 644.351L583.439 654.806L585.327 656.439L583.725 658.458H583.696Z" fill="#0A0C35"/>
<path fill-rule="evenodd" clip-rule="evenodd" d="M573.381 651.914C571.719 651.349 570.028 650.87 568.316 650.481C566.553 650.08 564.758 649.84 562.951 649.765V649.765L563.252 647.13L565.727 647.431L567.415 634.34L563.853 633.624L564.539 630.072C564.539 630.072 565.24 629.671 571.993 631.089C578.746 632.507 579.333 633.022 579.333 633.022L578.646 636.574L575.07 635.858L571.793 648.648L574.068 649.35L573.381 651.899V651.914Z" fill="#0A0C35"/>
<path fill-rule="evenodd" clip-rule="evenodd" d="M561.463 649.837C559.696 649.975 557.938 650.215 556.198 650.553C554.437 650.874 552.708 651.353 551.033 651.986V651.986L550.232 649.451L552.621 648.734L549.244 635.945L545.768 636.661L545.081 633.109C545.081 633.109 545.568 632.493 552.321 631.075C559.074 629.657 559.875 630.158 559.875 630.158L560.562 633.71L556.985 634.426L558.673 647.417L561.163 647.216L561.463 649.852V649.837Z" fill="#0A0C35"/>
<path fill-rule="evenodd" clip-rule="evenodd" d="M549.544 652.573C549.544 652.573 547.956 653.39 544.98 655.323C543.477 656.338 542.043 657.453 540.688 658.66V658.66L539.1 656.54L540.989 655.008L533.148 644.553L530.172 646.586L528.184 643.55C528.184 643.55 528.484 642.834 534.135 638.881C539.787 634.928 540.788 635.014 540.788 635.014L542.677 638.065L539.701 640.098L546.154 651.456L548.343 650.239L549.53 652.573H549.544Z" fill="#0A0C35"/>
<path fill-rule="evenodd" clip-rule="evenodd" d="M546.068 671.25C545.499 672.186 545.02 673.174 544.637 674.2C544.158 675.206 543.793 676.263 543.55 677.351V677.351L542.048 676.836L542.448 675.403L535.009 672.868L534.107 674.902L532.119 674.086C532.119 674.086 532.018 673.57 533.549 669.617C535.08 665.664 535.638 665.32 535.638 665.32L537.627 666.137L536.74 668.271L543.893 671.823L544.595 670.39L546.025 671.193L546.068 671.25Z" fill="#0A0C35"/>
<path fill-rule="evenodd" clip-rule="evenodd" d="M543.392 678.353C543.392 678.353 543.292 679.471 543.292 681.605C543.204 682.726 543.271 683.854 543.492 684.956L541.89 685.157L541.69 683.538L533.849 684.14V686.374H531.674C531.674 686.374 531.374 685.973 531.374 681.705C531.374 677.437 531.674 676.936 531.674 676.936H533.849V679.127L541.69 679.642L541.804 678.11L543.392 678.31V678.353Z" fill="#0A0C35"/>
<path fill-rule="evenodd" clip-rule="evenodd" d="M543.678 685.872C543.931 686.954 544.301 688.006 544.78 689.008C545.181 690.059 545.659 691.079 546.211 692.059V692.059L544.78 692.775L544.079 691.457L536.925 695.009L537.812 697.029L535.824 697.946C535.824 697.946 535.323 697.645 533.735 693.649C532.147 689.653 532.304 689.18 532.304 689.18L534.293 688.264L535.18 690.398L542.634 687.748L542.133 686.316L543.721 685.814L543.678 685.872Z" fill="#0A0C35"/>
<path fill-rule="evenodd" clip-rule="evenodd" d="M546.655 692.775C547.34 693.626 548.07 694.439 548.844 695.21C549.582 696.051 550.418 696.801 551.333 697.444V697.444L550.232 698.662L549.144 697.745L543.879 703.732L545.467 705.25L544.037 706.883C544.037 706.883 543.55 706.783 540.46 703.732C537.369 700.681 537.484 700.18 537.484 700.18L538.915 698.662L540.503 700.18L546.469 695.01L545.467 693.792L546.655 692.775V692.775Z" fill="#0A0C35"/>
<path fill-rule="evenodd" clip-rule="evenodd" d="M552.02 697.945C552.02 697.945 553.021 698.461 555.01 699.263C555.989 699.751 557.021 700.126 558.086 700.38V700.38L557.585 701.898L556.154 701.497L553.665 709.117L555.754 710.019L554.867 712.053C554.867 712.053 554.366 712.153 550.489 710.535C546.611 708.916 546.325 708.401 546.325 708.401L547.212 706.367L549.201 707.284L552.678 699.979L551.39 699.263L552.077 697.945H552.02Z" fill="#0A0C35"/>
<path fill-rule="evenodd" clip-rule="evenodd" d="M558.873 700.609C559.958 700.768 561.053 700.84 562.149 700.824C563.246 700.848 564.342 700.776 565.426 700.609V700.609L565.526 702.242L564.095 702.342L564.696 710.463L566.885 710.363V712.597C566.885 712.597 566.485 712.998 562.207 712.998C557.929 712.998 557.643 712.597 557.643 712.597V710.463H559.832L560.332 702.342L558.83 702.242L558.93 700.609H558.873Z" fill="#0A0C35"/>
<path fill-rule="evenodd" clip-rule="evenodd" d="M566.327 700.38C567.391 700.123 568.422 699.749 569.403 699.263C571.392 698.461 572.379 697.945 572.379 697.945L573.08 699.263L571.793 699.979L575.269 707.284L577.244 706.367L578.145 708.401C578.145 708.401 577.845 708.916 573.982 710.535C570.119 712.153 569.603 712.053 569.603 712.053L568.702 710.019L570.791 709.117L568.216 701.497L566.785 702.013L566.284 700.38H566.327Z" fill="#0A0C35"/>
<path fill-rule="evenodd" clip-rule="evenodd" d="M573.08 697.444C573.08 697.444 573.981 696.728 575.57 695.21C576.337 694.437 577.063 693.625 577.744 692.775V692.775L578.946 693.792L577.945 695.01L583.896 700.18L585.499 698.562L586.93 700.18C586.93 700.18 586.93 700.681 583.939 703.732C580.949 706.783 580.463 706.883 580.463 706.883L578.889 705.25L580.463 703.632L575.269 697.745L574.167 698.562L573.08 697.444Z" fill="#0A0C35"/>
<path fill-rule="evenodd" clip-rule="evenodd" d="M578.246 692.015C578.78 691.061 579.258 690.076 579.676 689.065C580.16 688.031 580.525 686.945 580.764 685.828V685.828L582.195 686.329L581.808 687.848L589.262 690.397L590.149 688.363L592.138 689.18C592.138 689.18 592.224 689.681 590.636 693.634C589.048 697.587 588.561 697.931 588.561 697.931L586.573 697.114L587.46 694.994L580.306 691.443L579.619 692.76L578.188 692.044L578.246 692.015Z" fill="#0A0C35"/>
<path fill-rule="evenodd" clip-rule="evenodd" d="M580.921 684.855C581.074 683.778 581.141 682.691 581.121 681.603C581.143 680.483 581.076 679.362 580.921 678.252V678.252L582.509 678.051L582.609 679.57L590.55 679.068V676.834H592.739C592.739 676.834 593.039 677.235 593.039 681.503C593.039 685.771 592.739 686.272 592.739 686.272H590.55V684.038L582.609 683.437L582.509 684.955L580.921 684.855V684.855Z" fill="#0A0C35"/>
<path fill-rule="evenodd" clip-rule="evenodd" d="M580.821 677.235C580.821 677.235 580.52 676.132 579.733 674.099C579.323 673.084 578.845 672.099 578.303 671.148L579.733 670.346L580.42 671.778L587.474 668.126L586.587 666.092L588.575 665.176C588.575 665.176 589.062 665.477 590.65 669.473C592.238 673.468 592.152 673.927 592.152 673.927L590.164 674.843L589.276 672.709L581.822 675.359L582.323 676.791L580.892 677.293L580.821 677.235Z" fill="#0A0C35"/>
<path fill-rule="evenodd" clip-rule="evenodd" d="M577.745 670.247C577.745 670.247 577.044 669.431 575.57 667.798C574.814 667.015 574.017 666.274 573.181 665.578L574.168 664.346L575.27 665.363L580.52 659.276L578.947 657.643L580.377 656.125C580.377 656.125 580.878 656.125 583.954 659.161C587.03 662.198 586.944 662.713 586.944 662.713L585.514 664.332L583.911 662.713L577.959 668.099L578.961 669.201L577.759 670.233L577.745 670.247Z" fill="#0A0C35"/>
<path fill-rule="evenodd" clip-rule="evenodd" d="M572.279 665.061C571.371 664.497 570.413 664.018 569.418 663.629C568.437 663.143 567.405 662.769 566.342 662.512V662.512L566.843 660.994L568.273 661.395L570.748 653.775L568.76 652.873L569.561 650.839C569.561 650.839 570.062 650.739 573.925 652.357C577.788 653.976 578.102 654.491 578.102 654.491L577.301 656.525L575.227 655.608L571.75 662.913L573.181 663.629L572.38 665.061H572.279Z" fill="#0A0C35"/>
<path fill-rule="evenodd" clip-rule="evenodd" d="M565.326 662.326C565.326 662.326 564.238 662.211 562.15 662.125C561.054 662.104 559.958 662.171 558.873 662.326V662.326L558.673 660.693L560.104 660.593L559.617 652.572H557.485V650.338C557.485 650.338 557.886 650.037 562.049 650.037C566.213 650.037 566.728 650.338 566.728 650.338V652.472L564.539 652.572L563.938 660.593L565.526 660.693L565.326 662.326V662.326Z" fill="#0A0C35"/>
<path fill-rule="evenodd" clip-rule="evenodd" d="M557.886 662.526C556.841 662.84 555.814 663.213 554.81 663.643C553.821 664.079 552.864 664.587 551.949 665.161V665.161L551.147 663.729L552.578 663.013L549.001 655.709L547.027 656.625L546.226 654.591C546.226 654.591 546.426 654.09 550.289 652.457C554.152 650.825 554.667 650.939 554.667 650.939L555.568 652.973L553.465 653.875L556.055 661.495L557.485 660.994L557.986 662.512L557.886 662.526Z" fill="#0A0C35"/>
<path fill-rule="evenodd" clip-rule="evenodd" d="M551.133 665.677C550.296 666.367 549.503 667.108 548.758 667.897C547.922 668.649 547.187 669.506 546.569 670.446L545.267 669.329L546.268 668.212L540.302 662.927L538.871 664.459L537.283 662.927C537.283 662.927 537.383 662.426 540.359 659.375C543.335 656.324 543.836 656.238 543.836 656.238L545.267 657.756L543.836 659.375L549.001 665.462L550.203 664.459L551.19 665.677H551.133Z" fill="#0A0C35"/>
</g>
<path d="M346.116 858.595L341.434 901.229H385.919L370.7 855.963L346.116 858.595Z" fill="#FDCE34"/>
<path d="M381.654 883.279C381.654 883.279 375.67 899.623 363.341 899.623C351.011 899.623 344.303 886.431 344.303 886.431L257.518 931.144L247 1023.37L474.89 1024.54L455.022 907.796L381.654 883.279Z" fill="#29ABE2"/>
<path d="M377.334 868.204C377.334 868.204 374.82 875.474 360.491 875.474C346.162 875.474 343.775 867.716 343.775 867.716C343.775 867.716 375.076 862.031 377.334 868.204Z" fill="#63151B"/>
<path d="M271.862 787.503C273.66 778.11 269.526 769.609 262.52 761.471C250.213 747.264 250.143 741.651 262.357 727.807C270.18 718.942 272.761 709.49 271.908 697.83C270.577 679.454 273.298 675.661 291.14 671.563C302.618 668.933 310.348 663.226 316.28 653.046C325.212 637.781 330.035 636.149 346.055 642.795C357.124 647.398 367.155 648.02 378.516 643.136C395.365 635.903 400.339 637.5 409.377 653.187C415.869 664.459 425.152 669.532 437.016 672.514C452.312 676.354 455.885 681.168 453.888 696.761C452.324 709.032 455.476 718.613 463.51 727.842C475.525 741.639 475.49 746.982 463.825 760.532C455.944 769.691 452.277 779.143 453.994 791.566C456.142 807.218 451.763 813.383 436.315 816.612C423.389 819.312 414.398 825.747 408.455 837.489C402.511 849.231 393.1 852.753 381.318 846.812C368.754 840.53 356.797 840.424 344.175 846.812C333.117 852.483 323.589 849.947 317.926 838.428C311.667 825.712 301.917 819.124 288.104 816.283C273.263 813.253 271.278 808.639 271.862 787.503Z" fill="#F15A24"/>
<path d="M439.492 778.857C439.492 778.857 448.264 871.572 367.108 871.572C285.951 871.572 285.962 814.196 288.161 765.614C290.36 717.032 301.016 679.164 363.676 668.309C426.335 657.455 439.492 721.458 439.492 778.857Z" fill="#FDCE34"/>
<path d="M342.994 770.168C342.994 770.168 338.6 760.948 329.821 762.483C321.042 764.017 319.581 773.237 319.581 773.237" fill="#09231E"/>
<path d="M408.551 774.016C408.551 774.016 407.234 763.436 397.745 761.751C388.255 760.067 383.577 768.526 383.577 768.526" fill="#09231E"/>
<path d="M361.694 768.542C359.898 769.639 358.365 771.123 357.207 772.888C356.048 774.652 355.291 776.652 354.992 778.746C353.365 788.517 348.738 797.53 341.762 804.518C327.659 818.81 360.972 827.374 366.685 819.267C371.898 811.887 380.962 757.167 361.694 768.542Z" fill="#F7931E"/>
<path d="M366.408 841.424C366.408 841.424 347.837 846.847 334.523 840.062C321.21 833.278 317.24 827.867 317.24 827.867" stroke="#110A03" stroke-width="2.37142" stroke-miterlimit="10" stroke-linecap="round"/>
<path d="M325.434 793.527C339.873 793.527 351.579 781.647 351.579 766.992C351.579 752.337 339.873 740.457 325.434 740.457C310.995 740.457 299.289 752.337 299.289 766.992C299.289 781.647 310.995 793.527 325.434 793.527Z" stroke="white" stroke-width="2.07413" stroke-miterlimit="10"/>
<path d="M403.869 793.527C418.524 793.527 430.404 781.647 430.404 766.992C430.404 752.337 418.524 740.457 403.869 740.457C389.214 740.457 377.334 752.337 377.334 766.992C377.334 781.647 389.214 793.527 403.869 793.527Z" stroke="white" stroke-width="2.07413" stroke-miterlimit="10"/>
<path d="M377.334 762.436C377.334 762.436 371.57 755.081 363.304 755.29C355.038 755.498 351.579 763.87 351.579 763.87" stroke="white" stroke-width="2.07413" stroke-miterlimit="10"/>
<path d="M44.2065 781.504C46.1014 771.713 41.7455 762.852 34.3625 754.371C21.393 739.562 21.3192 733.712 34.1902 719.282C42.4345 710.042 45.154 700.19 44.2557 688.037C42.853 668.884 45.72 664.931 64.522 660.659C76.6178 657.918 84.7637 651.97 91.0146 641.359C100.428 625.449 105.51 623.747 122.392 630.675C134.057 635.472 144.627 636.121 156.6 631.029C174.356 623.49 179.598 625.155 189.122 641.506C195.964 653.255 205.746 658.542 218.248 661.651C234.368 665.653 238.133 670.67 236.029 686.923C234.38 699.713 237.702 709.699 246.168 719.319C258.83 733.699 258.793 739.268 246.5 753.391C238.194 762.938 234.331 772.79 236.139 785.738C238.404 802.052 233.789 808.478 217.51 811.843C203.888 814.658 194.413 821.365 188.15 833.603C181.887 845.842 171.969 849.514 159.553 843.321C146.313 836.773 133.713 836.663 120.411 843.321C108.758 849.232 98.7176 846.589 92.7497 834.583C86.1542 821.328 75.8795 814.462 61.3227 811.5C45.6831 808.343 43.5912 803.533 44.2065 781.504Z" fill="#0A0C35"/>
<path d="M198.226 761.187C198.226 761.187 217.994 748.746 217.994 771.86C217.994 794.973 205.379 796.754 198.226 791.375C191.073 785.996 198.226 761.187 198.226 761.187Z" fill="#662D91"/>
<path d="M82.871 761.187C82.871 761.187 63.1035 748.746 63.1035 771.86C63.1035 794.973 75.7176 796.754 82.871 791.375C90.0243 785.996 82.871 761.187 82.871 761.187Z" fill="#662D91"/>
<path d="M126.508 859.759L110.636 898.802H170.461L159.473 855.367L128.559 859.674L126.508 859.759Z" fill="#662D91"/>
<path d="M160.627 860.026C160.627 860.026 158.043 867.66 143.35 867.66C128.656 867.66 126.207 859.514 126.207 859.514C126.207 859.514 158.313 853.544 160.627 860.026Z" fill="#63151B"/>
<path d="M169.326 692.776C157.786 688.056 144.937 687.753 133.191 691.924C112.649 698.887 78.3959 717.504 79.5202 764.197C81.1088 830.778 87.4999 853.606 137.028 861.211C186.557 868.816 199.351 813.654 200.94 781.32C202.309 753.604 204.911 707.714 169.326 692.776Z" fill="#662D91"/>
<path d="M163.687 876.674C163.687 876.674 156.407 893.836 141.417 893.836C126.427 893.836 118.277 879.984 118.277 879.984L12.7836 926.936L0 1023.78L277 1025.01L252.854 902.418L163.687 876.674Z" fill="#EF98C0"/>
<path d="M121.289 770.668C121.289 770.668 117.132 762.355 108.83 763.735C100.528 765.114 99.1621 773.414 99.1621 773.414" fill="#09231E"/>
<path d="M180.296 774.233C180.296 774.233 179.185 764.507 171.078 762.963C162.971 761.418 158.988 769.191 158.988 769.191" fill="#09231E"/>
<path d="M157.348 824.635C157.348 824.635 137.537 830.045 123.335 823.277C109.133 816.509 104.898 811.111 104.898 811.111" stroke="#110A03" stroke-width="2.37142" stroke-miterlimit="10" stroke-linecap="round"/>
<path d="M204.714 792.254C204.893 791.333 205.389 790.504 206.117 789.907C206.844 789.311 207.758 788.984 208.701 788.984C209.644 788.984 210.557 789.311 211.285 789.907C212.012 790.504 212.508 791.333 212.688 792.254C215.317 806.241 220.513 828.068 229.153 842.141C242.73 864.226 201.999 880.311 202.603 862.459C203.085 848.951 200.937 812.596 204.714 792.254Z" fill="#FDCE34"/>
<path d="M75.6236 792.274C75.456 791.35 74.9773 790.515 74.2705 789.914C73.5637 789.313 72.6733 788.984 71.7541 788.984C70.8349 788.984 69.9446 789.313 69.2379 789.914C68.5311 790.515 68.0523 791.35 67.8847 792.274C65.3171 806.258 60.2778 828.079 51.8671 842.149C38.669 864.228 78.2632 880.309 77.6753 862.461C77.2194 848.956 79.2951 812.611 75.6236 792.274Z" fill="#FDCE34"/>
<path d="M143.826 798.82C151.747 798.82 158.168 794.6 158.168 789.395C158.168 784.19 151.747 779.971 143.826 779.971C135.905 779.971 129.484 784.19 129.484 789.395C129.484 794.6 135.905 798.82 143.826 798.82Z" fill="#EF98C0"/>
<path d="M201.583 775.873C201.583 775.873 187.883 773.068 191.559 754.698C191.559 754.698 179.305 747.35 182.981 740.001C182.981 740.001 169.906 739.646 170.323 728.808C170.323 728.808 163.375 737.552 149.896 728.979C149.896 728.979 143.769 737.552 133.966 733.878C133.966 733.878 126.614 749.395 110.108 741.03C110.108 741.03 107.008 759.597 93.5284 754.698C93.5284 754.698 87.8305 768.17 79.6572 757.76C71.4839 747.35 61.6685 755.923 60.4431 733.878C60.4431 733.878 39.6116 717.957 56.767 698.361C56.767 698.361 50.1868 666.421 74.9272 664.633C74.9272 664.633 93.9819 636.195 121.332 655.031C121.332 655.031 136.515 629.422 165.262 648.589C165.262 648.589 200.137 632.227 211.165 662.845C211.165 662.845 235.207 682.44 220.735 700.811C220.735 700.811 226.862 727.387 206.754 731.857C206.754 731.857 214.596 738.507 206.754 751.452C206.705 751.501 210.332 766.431 201.583 775.873Z" fill="#0A0C35"/>
<g clip-path="url(#clip1_134_19671)">
<path d="M812 365.001H607.093C607.093 365.001 607.093 335.061 651.3 337.297C651.3 337.297 639.398 291.942 704.01 302.152C704.01 302.152 731.236 247.081 812 272.905V365.001Z" fill="white"/>
<path d="M0 187.694H262.674C262.674 187.694 262.674 135.453 205.997 139.41C205.997 139.41 221.256 60.2563 138.421 78.066C138.421 78.066 103.544 -18.047 0 27.0313V187.694Z" fill="white"/>
</g>
</g>
<defs>
<clipPath id="clip0_134_19671">
<rect width="444" height="613" fill="white" transform="translate(331 407)"/>
</clipPath>
<clipPath id="clip1_134_19671">
<rect width="812" height="350" fill="white" transform="translate(0 15)"/>
</clipPath>
</defs>
</svg>
