<?xml version="1.0" encoding="utf-8"?>
<!-- Generator: Adobe Illustrator 26.1.0, SVG Export Plug-In . SVG Version: 6.00 Build 0)  -->
<svg version="1.1" id="Capa_1" xmlns="http://www.w3.org/2000/svg" xmlns:xlink="http://www.w3.org/1999/xlink" x="0px" y="0px"
	 viewBox="0 0 666 1029" style="enable-background:new 0 0 666 1029;" xml:space="preserve">
<style type="text/css">
	.st0{fill:#0A0C35;}
	.st1{fill:#662D91;}
	.st2{fill:#63151B;}
	.st3{fill:#EF98C0;}
	.st4{fill:#09231E;}
	.st5{fill:none;stroke:#110A03;stroke-width:2.3714;stroke-linecap:round;stroke-miterlimit:10;}
	.st6{fill:#FDCE34;}
</style>
<path class="st0" d="M195.8,544.9c3.9-19.5-5-37.2-20-54.2c-26.4-29.6-26.6-41.2-0.4-70c16.8-18.4,22.3-38.1,20.5-62.4
	c-2.9-38.2,3-46.1,41.3-54.6c24.6-5.5,41.2-17.3,53.9-38.5c19.2-31.8,29.5-35.2,63.9-21.3c23.8,9.6,45.3,10.9,69.6,0.7
	c36.2-15,46.8-11.7,66.2,20.9c13.9,23.5,33.8,34,59.3,40.2c32.8,8,40.5,18,36.2,50.4c-3.4,25.5,3.4,45.5,20.6,64.7
	c25.8,28.7,25.7,39.8,0.7,68c-16.9,19.1-24.8,38.7-21.1,64.6c4.6,32.6-4.8,45.4-37.9,52.1c-27.7,5.6-47,19-59.8,43.4
	c-12.8,24.4-32.9,31.8-58.2,19.4c-27-13.1-52.6-13.3-79.7,0c-23.7,11.8-44.2,6.5-56.3-17.4c-13.4-26.5-34.3-40.2-64-46.1
	C198.8,598.5,194.5,588.9,195.8,544.9z"/>
<path class="st1" d="M509.4,504.4c0,0,40.2-24.8,40.2,21.3c0,46.1-25.7,49.7-40.2,39C494.8,553.9,509.4,504.4,509.4,504.4z"/>
<path class="st1" d="M274.5,504.4c0,0-40.2-24.8-40.2,21.3c0,46.1,25.7,49.7,40.2,39C289.1,553.9,274.5,504.4,274.5,504.4z"/>
<path class="st1" d="M363.4,701.1l-32.3,77.9h121.8l-22.4-86.7l-62.9,8.6L363.4,701.1z"/>
<path class="st2" d="M432.8,701.7c0,0-5.3,15.2-35.2,15.2c-29.9,0-34.9-16.3-34.9-16.3S428.1,688.7,432.8,701.7z"/>
<path class="st1" d="M450.6,367.8c-23.5-9.4-49.7-10-73.6-1.7c-41.8,13.9-111.6,51.1-109.3,144.3c3.2,132.9,16.2,178.5,117.1,193.6
	s126.9-94.9,130.1-159.5C517.7,489.2,523,397.6,450.6,367.8z"/>
<path class="st3" d="M439.1,734.9c0,0-14.8,34.3-45.3,34.3c-30.5,0-47.1-27.6-47.1-27.6l-214.8,93.7l-26,193.3l564,2.4l-49.2-244.7
	L439.1,734.9z"/>
<path class="st4" d="M352.7,523.3c0,0-8.5-16.6-25.4-13.8c-16.9,2.8-19.7,19.3-19.7,19.3"/>
<path class="st4" d="M472.9,530.4c0,0-2.3-19.4-18.8-22.5c-16.5-3.1-24.6,12.4-24.6,12.4"/>
<path class="st5" d="M426.2,631c0,0-40.3,10.8-69.3-2.7C328,614.8,319.4,604,319.4,604"/>
<path class="st6" d="M522.6,566.4c0.4-1.8,1.4-3.5,2.9-4.7c1.5-1.2,3.3-1.8,5.3-1.8c1.9,0,3.8,0.7,5.3,1.8c1.5,1.2,2.5,2.8,2.9,4.7
	c5.4,27.9,15.9,71.5,33.5,99.6c27.6,44.1-55.3,76.2-54.1,40.6C519.3,679.5,514.9,607,522.6,566.4z"/>
<path class="st6" d="M259.8,566.4c-0.3-1.8-1.3-3.5-2.8-4.7c-1.4-1.2-3.3-1.9-5.1-1.9c-1.9,0-3.7,0.7-5.1,1.9
	c-1.4,1.2-2.4,2.9-2.8,4.7c-5.2,27.9-15.5,71.5-32.6,99.5c-26.9,44.1,53.7,76.2,52.5,40.5C263,679.6,267.2,607,259.8,566.4z"/>
<path class="st3" d="M398.6,579.5c16.1,0,29.2-8.4,29.2-18.8c0-10.4-13.1-18.8-29.2-18.8c-16.1,0-29.2,8.4-29.2,18.8
	C369.4,571.1,382.5,579.5,398.6,579.5z"/>
<path class="st0" d="M516.2,533.7c0,0-27.9-5.6-20.4-42.3c0,0-25-14.7-17.5-29.3c0,0-26.6-0.7-25.8-22.3c0,0-14.1,17.5-41.6,0.3
	c0,0-12.5,17.1-32.4,9.8c0,0-15,31-48.6,14.3c0,0-6.3,37.1-33.8,27.3c0,0-11.6,26.9-28.2,6.1c-16.6-20.8-36.6-3.7-39.1-47.7
	c0,0-42.4-31.8-7.5-70.9c0,0-13.4-63.8,37-67.3c0,0,38.8-56.8,94.5-19.2c0,0,30.9-51.1,89.4-12.9c0,0,71-32.7,93.5,28.5
	c0,0,49,39.1,19.5,75.8c0,0,12.5,53-28.5,62c0,0,16,13.3,0,39.1C526.7,485,534,514.8,516.2,533.7z"/>
</svg>
