<svg width="355" height="341" viewBox="0 0 355 341" fill="none" xmlns="http://www.w3.org/2000/svg">
<g filter="url(#filter0_d_249_17233)">
<mask id="mask0_249_17233" style="mask-type:alpha" maskUnits="userSpaceOnUse" x="5" y="0" width="344" height="328">
<path d="M5.94312 22.3154C5.94312 10.143 15.8107 0.275391 27.9831 0.275391H326.96C339.132 0.275391 349 10.143 349 22.3154V305.96C349 318.132 339.132 328 326.96 328H27.9831C15.8108 328 5.94312 318.132 5.94312 305.96V22.3154Z" fill="#D9D9D9"/>
</mask>
<g mask="url(#mask0_249_17233)">
<path d="M5.94312 22.3154C5.94312 10.143 15.8107 0.275391 27.9831 0.275391H326.96C339.132 0.275391 349 10.143 349 22.3154V305.96C349 318.132 339.132 328 326.96 328H27.9831C15.8108 328 5.94312 318.132 5.94312 305.96V22.3154Z" fill="#F15A24"/>
<path d="M336.038 255.079L174.563 186.427L155.147 228.895L275.741 293.348H332.018L336.038 255.079Z" fill="#FBB03B"/>
<path d="M177.256 249.037L191.325 246.016L151.248 103.574L100.407 110.372L167.206 255.079L177.256 249.037Z" fill="#662D91"/>
<path d="M121.481 125.166C145.07 125.166 164.192 106.004 164.192 82.3654C164.192 58.7271 145.07 39.5645 121.481 39.5645C97.8929 39.5645 78.7709 58.7271 78.7709 82.3654C78.7709 106.004 97.8929 125.166 121.481 125.166Z" fill="#FF7BAC"/>
<path d="M121.481 119.758C142.089 119.758 158.795 103.017 158.795 82.3655C158.795 61.714 142.089 44.9727 121.481 44.9727C100.873 44.9727 84.167 61.714 84.167 82.3655C84.167 103.017 100.873 119.758 121.481 119.758Z" fill="#662D91"/>
<path d="M177.577 197.152L167.206 144.301L113.944 154.372V193.648L154.966 228.563L145.871 208.845L177.577 197.152Z" fill="#FBB03B"/>
<path d="M280.685 131.611C272.414 134.743 263.943 137.542 257.662 144.098C251.381 150.655 249.059 159.074 245.421 167.634C240.899 148.499 229.443 136.273 210.027 131.903L210.58 131.006C213.987 129.607 217.373 128.146 220.81 126.817C231.563 122.658 238.025 114.541 241.914 104.037C242.517 102.425 243.01 100.774 243.713 99.2128C244.215 98.0849 244.004 96.0607 245.653 96.1916C247.08 96.2923 247.21 98.2058 247.562 99.4042C248.908 103.816 250.738 108.065 253.019 112.073C258.044 121.137 266.535 125.477 275.67 128.982C277.148 129.546 278.685 130.06 280.122 130.634C280.303 130.745 280.374 131.067 280.685 131.611Z" fill="#304F9D"/>
<path d="M321.969 143.818C316.944 145.701 311.859 147.393 308.06 151.351C304.262 155.309 302.865 160.415 300.674 165.571C297.94 153.989 291.016 146.628 279.289 143.989L279.62 143.445C281.68 142.599 283.73 141.723 285.801 140.918C292.293 138.41 296.202 133.495 298.574 127.161C298.935 126.154 299.237 125.147 299.659 124.24C299.96 123.566 299.84 122.347 300.835 122.407C301.83 122.468 301.769 123.626 301.98 124.351C302.777 127.023 303.862 129.6 305.216 132.035C308.231 137.514 313.387 140.092 318.894 142.247C319.788 142.589 320.703 142.902 321.587 143.254C321.738 143.294 321.778 143.486 321.969 143.818Z" fill="white"/>
</g>
<path d="M5.94312 259.005H349V305.96C349 318.132 339.132 328 326.96 328H27.9831C15.8108 328 5.94312 318.132 5.94312 305.96V259.005Z" fill="white"/>
<path d="M137.289 298.421V285.006H142.109C143.189 285.006 144.042 285.2 144.668 285.59C145.294 285.98 145.738 286.481 146 287.095C146.268 287.708 146.402 288.344 146.402 289.002C146.402 289.462 146.326 289.925 146.172 290.391C146.019 290.857 145.77 291.289 145.425 291.685C145.086 292.074 144.645 292.391 144.102 292.633C143.559 292.87 142.895 292.988 142.109 292.988H138.631V298.421H137.289ZM138.631 291.723H142.186C142.901 291.723 143.47 291.586 143.892 291.311C144.313 291.03 144.613 290.682 144.792 290.266C144.971 289.845 145.061 289.423 145.061 289.002C145.061 288.593 144.978 288.177 144.812 287.756C144.652 287.334 144.361 286.983 143.94 286.702C143.524 286.414 142.94 286.271 142.186 286.271H138.631V291.723Z" fill="#009245"/>
<path d="M149.395 298.421V288.628H150.736V290.18C150.979 289.605 151.314 289.164 151.742 288.858C152.177 288.551 152.678 288.398 153.247 288.398C153.835 288.398 154.314 288.554 154.684 288.867L154.483 290.142C154.291 290.008 154.081 289.909 153.851 289.845C153.627 289.781 153.384 289.749 153.122 289.749C152.65 289.749 152.234 289.883 151.877 290.151C151.519 290.42 151.238 290.794 151.033 291.273C150.835 291.745 150.736 292.298 150.736 292.93V298.421H149.395Z" fill="#009245"/>
<path d="M160.402 298.651C159.533 298.651 158.782 298.437 158.15 298.009C157.524 297.575 157.042 296.971 156.703 296.198C156.364 295.425 156.195 294.531 156.195 293.515C156.195 292.435 156.371 291.515 156.722 290.755C157.08 289.989 157.575 289.404 158.207 289.002C158.84 288.599 159.571 288.398 160.402 288.398C161.124 288.398 161.779 288.567 162.366 288.906C162.954 289.244 163.42 289.768 163.765 290.477C164.11 291.186 164.283 292.097 164.283 293.208C164.283 293.323 164.28 293.454 164.273 293.601C164.267 293.742 164.257 293.889 164.244 294.042H157.585C157.636 294.719 157.773 295.313 157.997 295.824C158.227 296.329 158.543 296.728 158.945 297.022C159.354 297.31 159.856 297.453 160.45 297.453C160.852 297.453 161.239 297.383 161.609 297.243C161.98 297.096 162.325 296.872 162.644 296.572L163.43 297.473C163.072 297.811 162.631 298.092 162.108 298.316C161.59 298.539 161.021 298.651 160.402 298.651ZM157.565 292.863H162.912C162.912 292.256 162.82 291.704 162.635 291.206C162.456 290.707 162.178 290.311 161.801 290.017C161.43 289.723 160.964 289.577 160.402 289.577C159.642 289.577 158.993 289.838 158.457 290.362C157.926 290.886 157.629 291.72 157.565 292.863Z" fill="#009245"/>
<path d="M170.501 302.503L169.84 301.43C170.728 301.379 171.453 301.251 172.015 301.047C172.577 300.849 172.993 300.565 173.261 300.194C173.529 299.824 173.664 299.354 173.664 298.785V297.243C173.076 298.182 172.188 298.651 171 298.651C170.214 298.651 169.527 298.437 168.939 298.009C168.352 297.581 167.895 296.984 167.569 296.217C167.243 295.444 167.08 294.543 167.08 293.515C167.08 292.474 167.243 291.57 167.569 290.803C167.901 290.036 168.364 289.446 168.958 289.03C169.553 288.609 170.255 288.398 171.067 288.398C171.597 288.398 172.092 288.51 172.552 288.733C173.018 288.95 173.389 289.251 173.664 289.634V288.628H175.005V298.393C175.005 299.044 174.912 299.616 174.727 300.108C174.548 300.606 174.27 301.025 173.893 301.363C173.523 301.702 173.053 301.964 172.485 302.149C171.923 302.341 171.261 302.459 170.501 302.503ZM171.239 297.386C171.718 297.386 172.178 297.239 172.619 296.946C173.06 296.645 173.408 296.252 173.664 295.767V291.148C173.414 290.701 173.066 290.34 172.619 290.065C172.178 289.791 171.725 289.653 171.258 289.653C170.351 289.653 169.655 289.985 169.169 290.65C168.69 291.308 168.451 292.263 168.451 293.515C168.451 294.294 168.566 294.975 168.796 295.556C169.032 296.131 169.358 296.581 169.773 296.907C170.195 297.227 170.683 297.386 171.239 297.386Z" fill="#009245"/>
<path d="M182.241 298.651C181.085 298.651 180.222 298.3 179.654 297.597C179.091 296.894 178.81 295.824 178.81 294.387V288.628H180.152V294.607C180.152 295.527 180.343 296.224 180.727 296.696C181.11 297.169 181.666 297.405 182.394 297.405C183.205 297.405 183.816 297.16 184.224 296.668C184.64 296.169 184.847 295.441 184.847 294.483V288.628H186.189V298.421H184.847V297.243C184.553 297.715 184.189 298.07 183.755 298.306C183.327 298.536 182.822 298.651 182.241 298.651Z" fill="#009245"/>
<path d="M190.203 298.421V288.628H191.545V289.883C191.819 289.404 192.183 289.037 192.637 288.781C193.097 288.526 193.618 288.398 194.199 288.398C195.343 288.398 196.192 288.752 196.748 289.462C197.304 290.164 197.582 291.234 197.582 292.672V298.421H196.24V292.432C196.24 291.519 196.048 290.825 195.665 290.353C195.282 289.874 194.726 289.634 193.998 289.634C193.193 289.634 192.583 289.88 192.167 290.372C191.752 290.864 191.545 291.589 191.545 292.547V298.421H190.203Z" fill="#009245"/>
<path d="M203.694 298.651C203.049 298.651 202.557 298.456 202.218 298.067C201.886 297.671 201.72 297.099 201.72 296.351V289.806H200.1V288.628H201.72V285.236L203.061 284.584V288.628H205.495V289.806H203.061V295.949C203.061 296.46 203.144 296.831 203.311 297.061C203.483 297.284 203.758 297.396 204.135 297.396C204.595 297.396 205.077 297.23 205.582 296.898L205.428 298.22C205.173 298.367 204.898 298.476 204.604 298.546C204.31 298.616 204.007 298.651 203.694 298.651Z" fill="#009245"/>
<path d="M211.27 298.651C210.235 298.651 209.424 298.364 208.836 297.789C208.249 297.207 207.955 296.409 207.955 295.393C207.955 294.742 208.099 294.176 208.386 293.697C208.68 293.218 209.092 292.851 209.622 292.595C210.159 292.333 210.791 292.202 211.52 292.202C211.999 292.202 212.455 292.263 212.89 292.384C213.331 292.506 213.755 292.688 214.164 292.93V291.991C214.164 291.161 213.982 290.551 213.618 290.161C213.26 289.771 212.701 289.577 211.941 289.577C211.488 289.577 211.005 289.663 210.494 289.835C209.99 290.001 209.51 290.238 209.057 290.544L208.664 289.414C209.181 289.088 209.74 288.839 210.341 288.666C210.941 288.487 211.529 288.398 212.104 288.398C213.203 288.398 214.033 288.685 214.596 289.26C215.158 289.835 215.439 290.682 215.439 291.8V298.421H214.164V297.31C213.775 297.738 213.327 298.07 212.823 298.306C212.324 298.536 211.807 298.651 211.27 298.651ZM211.443 297.473C211.935 297.473 212.414 297.345 212.88 297.089C213.347 296.827 213.775 296.454 214.164 295.968V294.138C213.787 293.895 213.379 293.71 212.938 293.582C212.503 293.448 212.082 293.381 211.673 293.381C210.938 293.381 210.35 293.566 209.91 293.937C209.475 294.301 209.258 294.789 209.258 295.403C209.258 296.035 209.453 296.54 209.843 296.917C210.232 297.287 210.766 297.473 211.443 297.473Z" fill="#009245"/>
<path d="M221.82 298.651C221.168 298.651 220.542 298.511 219.941 298.23C219.341 297.949 218.836 297.559 218.427 297.061L219.405 296.227C219.756 296.61 220.146 296.907 220.574 297.118C221.002 297.329 221.424 297.434 221.839 297.434C222.465 297.434 222.947 297.306 223.286 297.051C223.631 296.795 223.803 296.438 223.803 295.978C223.803 295.69 223.723 295.428 223.564 295.192C223.41 294.956 223.158 294.735 222.807 294.531C222.455 294.32 221.992 294.106 221.417 293.889C220.382 293.505 219.638 293.087 219.184 292.633C218.731 292.173 218.504 291.605 218.504 290.928C218.504 290.174 218.795 289.564 219.376 289.097C219.964 288.631 220.727 288.398 221.666 288.398C222.286 288.398 222.867 288.519 223.41 288.762C223.953 288.998 224.417 289.34 224.8 289.787L223.861 290.573C223.235 289.934 222.497 289.615 221.647 289.615C221.091 289.615 220.651 289.733 220.325 289.969C220.005 290.199 219.846 290.519 219.846 290.928C219.846 291.305 220.012 291.63 220.344 291.905C220.676 292.173 221.283 292.47 222.165 292.796C222.88 293.065 223.455 293.349 223.889 293.649C224.324 293.943 224.637 294.278 224.829 294.655C225.027 295.032 225.126 295.467 225.126 295.959C225.126 296.795 224.832 297.453 224.244 297.933C223.656 298.412 222.848 298.651 221.82 298.651Z" fill="#009245"/>
<path d="M233.804 298.421V289.806H232.271V288.628H233.804V286.951C233.804 286.248 233.98 285.712 234.331 285.341C234.689 284.964 235.197 284.776 235.855 284.776C236.129 284.776 236.401 284.811 236.669 284.881C236.944 284.951 237.206 285.054 237.455 285.188V286.318C237.193 286.197 236.96 286.111 236.755 286.06C236.551 286.009 236.343 285.983 236.132 285.983C235.781 285.983 235.529 286.076 235.375 286.261C235.222 286.44 235.145 286.743 235.145 287.171V288.628H237.455V289.806H235.145V298.421H233.804Z" fill="#009245"/>
<path d="M240.036 298.421V288.628H241.378V290.18C241.621 289.605 241.956 289.164 242.384 288.858C242.818 288.551 243.32 288.398 243.889 288.398C244.476 288.398 244.955 288.554 245.326 288.867L245.125 290.142C244.933 290.008 244.722 289.909 244.492 289.845C244.269 289.781 244.026 289.749 243.764 289.749C243.291 289.749 242.876 289.883 242.518 290.151C242.16 290.42 241.879 290.794 241.675 291.273C241.477 291.745 241.378 292.298 241.378 292.93V298.421H240.036Z" fill="#009245"/>
<path d="M251.043 298.651C250.175 298.651 249.424 298.437 248.791 298.009C248.165 297.575 247.683 296.971 247.345 296.198C247.006 295.425 246.837 294.531 246.837 293.515C246.837 292.435 247.012 291.515 247.364 290.755C247.721 289.989 248.217 289.404 248.849 289.002C249.481 288.599 250.213 288.398 251.043 288.398C251.765 288.398 252.42 288.567 253.008 288.906C253.596 289.244 254.062 289.768 254.407 290.477C254.752 291.186 254.924 292.097 254.924 293.208C254.924 293.323 254.921 293.454 254.915 293.601C254.908 293.742 254.899 293.889 254.886 294.042H248.226C248.277 294.719 248.415 295.313 248.638 295.824C248.868 296.329 249.184 296.728 249.587 297.022C249.996 297.31 250.497 297.453 251.091 297.453C251.494 297.453 251.88 297.383 252.251 297.243C252.621 297.096 252.966 296.872 253.286 296.572L254.072 297.473C253.714 297.811 253.273 298.092 252.749 298.316C252.232 298.539 251.663 298.651 251.043 298.651ZM248.207 292.863H253.554C253.554 292.256 253.461 291.704 253.276 291.206C253.097 290.707 252.819 290.311 252.442 290.017C252.072 289.723 251.606 289.577 251.043 289.577C250.283 289.577 249.635 289.838 249.098 290.362C248.568 290.886 248.271 291.72 248.207 292.863Z" fill="#009245"/>
<path d="M261.603 298.651C260.798 298.651 260.105 298.447 259.523 298.038C258.942 297.623 258.495 297.035 258.182 296.275C257.875 295.508 257.722 294.595 257.722 293.534C257.722 292.467 257.882 291.551 258.201 290.784C258.52 290.017 258.977 289.43 259.571 289.021C260.165 288.605 260.875 288.398 261.699 288.398C262.484 288.398 263.155 288.59 263.711 288.973C264.273 289.35 264.682 289.893 264.938 290.602L263.663 291.071C263.497 290.618 263.245 290.27 262.906 290.027C262.567 289.784 262.171 289.663 261.718 289.663C260.868 289.663 260.22 289.992 259.773 290.65C259.332 291.308 259.111 292.269 259.111 293.534C259.111 294.748 259.332 295.693 259.773 296.371C260.213 297.041 260.833 297.377 261.632 297.377C262.155 297.377 262.606 297.236 262.983 296.955C263.36 296.674 263.622 296.291 263.768 295.805L265.033 296.227C264.81 296.993 264.395 297.591 263.788 298.019C263.187 298.44 262.459 298.651 261.603 298.651Z" fill="#009245"/>
<path d="M271.366 298.651C270.21 298.651 269.348 298.3 268.779 297.597C268.217 296.894 267.936 295.824 267.936 294.387V288.628H269.277V294.607C269.277 295.527 269.469 296.224 269.852 296.696C270.236 297.169 270.791 297.405 271.52 297.405C272.331 297.405 272.941 297.16 273.35 296.668C273.765 296.169 273.973 295.441 273.973 294.483V288.628H275.314V298.421H273.973V297.243C273.679 297.715 273.315 298.07 272.88 298.306C272.452 298.536 271.948 298.651 271.366 298.651Z" fill="#009245"/>
<path d="M282.763 298.651C281.894 298.651 281.144 298.437 280.511 298.009C279.885 297.575 279.403 296.971 279.064 296.198C278.726 295.425 278.557 294.531 278.557 293.515C278.557 292.435 278.732 291.515 279.084 290.755C279.441 289.989 279.936 289.404 280.569 289.002C281.201 288.599 281.933 288.398 282.763 288.398C283.485 288.398 284.14 288.567 284.728 288.906C285.315 289.244 285.782 289.768 286.127 290.477C286.472 291.186 286.644 292.097 286.644 293.208C286.644 293.323 286.641 293.454 286.635 293.601C286.628 293.742 286.619 293.889 286.606 294.042H279.946C279.997 294.719 280.134 295.313 280.358 295.824C280.588 296.329 280.904 296.728 281.307 297.022C281.716 297.31 282.217 297.453 282.811 297.453C283.214 297.453 283.6 297.383 283.971 297.243C284.341 297.096 284.686 296.872 285.006 296.572L285.791 297.473C285.434 297.811 284.993 298.092 284.469 298.316C283.952 298.539 283.383 298.651 282.763 298.651ZM279.927 292.863H285.274C285.274 292.256 285.181 291.704 284.996 291.206C284.817 290.707 284.539 290.311 284.162 290.017C283.792 289.723 283.325 289.577 282.763 289.577C282.003 289.577 281.355 289.838 280.818 290.362C280.288 290.886 279.991 291.72 279.927 292.863Z" fill="#009245"/>
<path d="M289.989 298.421V288.628H291.331V289.883C291.606 289.404 291.97 289.037 292.423 288.781C292.883 288.526 293.404 288.398 293.985 288.398C295.129 288.398 295.978 288.752 296.534 289.462C297.09 290.164 297.368 291.234 297.368 292.672V298.421H296.026V292.432C296.026 291.519 295.835 290.825 295.451 290.353C295.068 289.874 294.512 289.634 293.784 289.634C292.979 289.634 292.369 289.88 291.954 290.372C291.539 290.864 291.331 291.589 291.331 292.547V298.421H289.989Z" fill="#009245"/>
<path d="M303.48 298.651C302.835 298.651 302.343 298.456 302.004 298.067C301.672 297.671 301.506 297.099 301.506 296.351V289.806H299.887V288.628H301.506V285.236L302.848 284.584V288.628H305.282V289.806H302.848V295.949C302.848 296.46 302.931 296.831 303.097 297.061C303.269 297.284 303.544 297.396 303.921 297.396C304.381 297.396 304.863 297.23 305.368 296.898L305.215 298.22C304.959 298.367 304.684 298.476 304.39 298.546C304.097 298.616 303.793 298.651 303.48 298.651Z" fill="#009245"/>
<path d="M311.919 298.651C311.05 298.651 310.3 298.437 309.667 298.009C309.041 297.575 308.559 296.971 308.22 296.198C307.882 295.425 307.712 294.531 307.712 293.515C307.712 292.435 307.888 291.515 308.239 290.755C308.597 289.989 309.092 289.404 309.725 289.002C310.357 288.599 311.089 288.398 311.919 288.398C312.641 288.398 313.296 288.567 313.884 288.906C314.471 289.244 314.938 289.768 315.283 290.477C315.628 291.186 315.8 292.097 315.8 293.208C315.8 293.323 315.797 293.454 315.79 293.601C315.784 293.742 315.774 293.889 315.762 294.042H309.102C309.153 294.719 309.29 295.313 309.514 295.824C309.744 296.329 310.06 296.728 310.463 297.022C310.871 297.31 311.373 297.453 311.967 297.453C312.369 297.453 312.756 297.383 313.126 297.243C313.497 297.096 313.842 296.872 314.161 296.572L314.947 297.473C314.589 297.811 314.149 298.092 313.625 298.316C313.107 298.539 312.539 298.651 311.919 298.651ZM309.083 292.863H314.43C314.43 292.256 314.337 291.704 314.152 291.206C313.973 290.707 313.695 290.311 313.318 290.017C312.948 289.723 312.481 289.577 311.919 289.577C311.159 289.577 310.51 289.838 309.974 290.362C309.444 290.886 309.147 291.72 309.083 292.863Z" fill="#009245"/>
<path d="M321.587 298.651C320.936 298.651 320.309 298.511 319.709 298.23C319.108 297.949 318.604 297.559 318.195 297.061L319.172 296.227C319.524 296.61 319.913 296.907 320.341 297.118C320.769 297.329 321.191 297.434 321.606 297.434C322.232 297.434 322.715 297.306 323.053 297.051C323.398 296.795 323.571 296.438 323.571 295.978C323.571 295.69 323.491 295.428 323.331 295.192C323.178 294.956 322.926 294.735 322.574 294.531C322.223 294.32 321.76 294.106 321.185 293.889C320.15 293.505 319.406 293.087 318.952 292.633C318.498 292.173 318.272 291.605 318.272 290.928C318.272 290.174 318.562 289.564 319.144 289.097C319.731 288.631 320.495 288.398 321.434 288.398C322.054 288.398 322.635 288.519 323.178 288.762C323.721 288.998 324.184 289.34 324.567 289.787L323.628 290.573C323.002 289.934 322.264 289.615 321.415 289.615C320.859 289.615 320.418 289.733 320.092 289.969C319.773 290.199 319.613 290.519 319.613 290.928C319.613 291.305 319.779 291.63 320.111 291.905C320.444 292.173 321.051 292.47 321.932 292.796C322.648 293.065 323.223 293.349 323.657 293.649C324.091 293.943 324.404 294.278 324.596 294.655C324.794 295.032 324.893 295.467 324.893 295.959C324.893 296.795 324.599 297.453 324.012 297.933C323.424 298.412 322.616 298.651 321.587 298.651Z" fill="#009245"/>
</g>
<defs>
<filter id="filter0_d_249_17233" x="0.193559" y="0.275391" width="354.556" height="340.182" filterUnits="userSpaceOnUse" color-interpolation-filters="sRGB">
<feFlood flood-opacity="0" result="BackgroundImageFix"/>
<feColorMatrix in="SourceAlpha" type="matrix" values="0 0 0 0 0 0 0 0 0 0 0 0 0 0 0 0 0 0 127 0" result="hardAlpha"/>
<feMorphology radius="2.87478" operator="erode" in="SourceAlpha" result="effect1_dropShadow_249_17233"/>
<feOffset dy="6.70782"/>
<feGaussianBlur stdDeviation="4.31217"/>
<feComposite in2="hardAlpha" operator="out"/>
<feColorMatrix type="matrix" values="0 0 0 0 1 0 0 0 0 0.572549 0 0 0 0 0.909804 0 0 0 0.15 0"/>
<feBlend mode="normal" in2="BackgroundImageFix" result="effect1_dropShadow_249_17233"/>
<feBlend mode="normal" in="SourceGraphic" in2="effect1_dropShadow_249_17233" result="shape"/>
</filter>
</defs>
</svg>
