<svg width="469" height="130" viewBox="0 0 469 130" fill="none" xmlns="http://www.w3.org/2000/svg">
<path d="M74.7862 42H401.786V47H74.7862V42Z" fill="#FF92E8"/>
<path d="M86.7862 44.5C86.7862 50.8513 81.6375 56 75.2862 56C68.9349 56 63.7862 50.8513 63.7862 44.5C63.7862 38.1487 68.9349 33 75.2862 33C81.6375 33 86.7862 38.1487 86.7862 44.5Z" fill="#662D91"/>
<path d="M247.786 44.5C247.786 50.8513 242.637 56 236.286 56C229.935 56 224.786 50.8513 224.786 44.5C224.786 38.1487 229.935 33 236.286 33C242.637 33 247.786 38.1487 247.786 44.5Z" fill="#CF8EFF"/>
<path d="M408.786 44.5C408.786 50.8513 403.637 56 397.286 56C390.935 56 385.786 50.8513 385.786 44.5C385.786 38.1487 390.935 33 397.286 33C403.637 33 408.786 38.1487 408.786 44.5Z" fill="#CF8EFF"/>
<path d="M43 81.9996V67.9996H44.4V74.0696H51.31V67.9996H52.71V81.9996H51.31V75.3896H44.4V81.9996H43Z" fill="#662D91"/>
<path d="M60.8577 82.2396C59.951 82.2396 59.1677 82.0162 58.5077 81.5696C57.8543 81.1162 57.351 80.4862 56.9977 79.6796C56.6443 78.8729 56.4677 77.9396 56.4677 76.8796C56.4677 75.7529 56.651 74.7929 57.0177 73.9996C57.391 73.1996 57.9077 72.5896 58.5677 72.1696C59.2277 71.7496 59.991 71.5396 60.8577 71.5396C61.611 71.5396 62.2943 71.7162 62.9077 72.0696C63.521 72.4229 64.0077 72.9696 64.3677 73.7096C64.7277 74.4496 64.9077 75.3996 64.9077 76.5596C64.9077 76.6796 64.9043 76.8162 64.8977 76.9696C64.891 77.1162 64.881 77.2696 64.8677 77.4296H57.9177C57.971 78.1362 58.1143 78.7562 58.3477 79.2896C58.5877 79.8162 58.9177 80.2329 59.3377 80.5396C59.7643 80.8396 60.2877 80.9896 60.9077 80.9896C61.3277 80.9896 61.731 80.9162 62.1177 80.7696C62.5043 80.6162 62.8643 80.3829 63.1977 80.0696L64.0177 81.0096C63.6443 81.3629 63.1843 81.6562 62.6377 81.8896C62.0977 82.1229 61.5043 82.2396 60.8577 82.2396ZM57.8977 76.1996H63.4777C63.4777 75.5662 63.381 74.9896 63.1877 74.4696C63.001 73.9496 62.711 73.5362 62.3177 73.2296C61.931 72.9229 61.4443 72.7696 60.8577 72.7696C60.0643 72.7696 59.3877 73.0429 58.8277 73.5896C58.2743 74.1362 57.9643 75.0062 57.8977 76.1996Z" fill="#662D91"/>
<path d="M71.877 82.2396C71.037 82.2396 70.3137 82.0262 69.707 81.5996C69.1004 81.1662 68.6337 80.5529 68.307 79.7596C67.987 78.9596 67.827 78.0062 67.827 76.8996C67.827 75.7862 67.9937 74.8296 68.327 74.0296C68.6604 73.2296 69.137 72.6162 69.757 72.1896C70.377 71.7562 71.117 71.5396 71.977 71.5396C72.797 71.5396 73.497 71.7396 74.077 72.1396C74.6637 72.5329 75.0904 73.0996 75.357 73.8396L74.027 74.3296C73.8537 73.8562 73.5904 73.4929 73.237 73.2396C72.8837 72.9862 72.4704 72.8596 71.997 72.8596C71.1104 72.8596 70.4337 73.2029 69.967 73.8896C69.507 74.5762 69.277 75.5796 69.277 76.8996C69.277 78.1662 69.507 79.1529 69.967 79.8596C70.427 80.5596 71.0737 80.9096 71.907 80.9096C72.4537 80.9096 72.9237 80.7629 73.317 80.4696C73.7104 80.1762 73.9837 79.7762 74.137 79.2696L75.457 79.7096C75.2237 80.5096 74.7904 81.1329 74.157 81.5796C73.5304 82.0196 72.7704 82.2396 71.877 82.2396Z" fill="#662D91"/>
<path d="M78.7812 81.9996V68.2096L80.1813 67.5596V73.0996C80.4679 72.5996 80.8512 72.2162 81.3312 71.9496C81.8112 71.6762 82.3512 71.5396 82.9512 71.5396C83.8112 71.5396 84.4979 71.7229 85.0113 72.0896C85.5313 72.4496 85.9046 72.9629 86.1312 73.6296C86.3646 74.2962 86.4812 75.0862 86.4812 75.9996V81.9996H85.0812V75.7496C85.0812 74.8696 84.8946 74.1629 84.5212 73.6296C84.1546 73.0962 83.5612 72.8296 82.7412 72.8296C81.9012 72.8296 81.2646 73.0862 80.8312 73.5996C80.3979 74.1129 80.1813 74.8696 80.1813 75.8696V81.9996H78.7812Z" fill="#662D91"/>
<path d="M94.4956 82.2396C93.149 82.2396 92.0856 81.7629 91.3056 80.8096C90.5256 79.8496 90.1356 78.5462 90.1356 76.8996C90.1356 75.7996 90.3123 74.8496 90.6656 74.0496C91.019 73.2496 91.5223 72.6329 92.1756 72.1996C92.829 71.7596 93.6023 71.5396 94.4956 71.5396C95.3956 71.5396 96.1723 71.7562 96.8256 72.1896C97.479 72.6162 97.979 73.2296 98.3256 74.0296C98.679 74.8296 98.8556 75.7796 98.8556 76.8796C98.8556 77.9796 98.679 78.9329 98.3256 79.7396C97.9723 80.5396 97.469 81.1562 96.8156 81.5896C96.1623 82.0229 95.389 82.2396 94.4956 82.2396ZM94.4956 80.9196C95.4156 80.9196 96.1323 80.5629 96.6456 79.8496C97.1656 79.1362 97.4256 78.1462 97.4256 76.8796C97.4256 75.6062 97.1656 74.6162 96.6456 73.9096C96.1323 73.2029 95.4156 72.8496 94.4956 72.8496C93.5623 72.8496 92.839 73.2029 92.3256 73.9096C91.819 74.6096 91.5656 75.6062 91.5656 76.8996C91.5656 78.1729 91.8223 79.1629 92.3356 79.8696C92.849 80.5696 93.569 80.9196 94.4956 80.9196Z" fill="#662D91"/>
<path d="M105.005 82.2396C104.325 82.2396 103.672 82.0929 103.045 81.7996C102.419 81.5062 101.892 81.0996 101.465 80.5796L102.485 79.7096C102.852 80.1096 103.259 80.4196 103.705 80.6396C104.152 80.8596 104.592 80.9696 105.025 80.9696C105.679 80.9696 106.182 80.8362 106.535 80.5696C106.895 80.3029 107.075 79.9296 107.075 79.4496C107.075 79.1496 106.992 78.8762 106.825 78.6296C106.665 78.3829 106.402 78.1529 106.035 77.9396C105.669 77.7196 105.185 77.4962 104.585 77.2696C103.505 76.8696 102.729 76.4329 102.255 75.9596C101.782 75.4796 101.545 74.8862 101.545 74.1796C101.545 73.3929 101.849 72.7562 102.455 72.2696C103.069 71.7829 103.865 71.5396 104.845 71.5396C105.492 71.5396 106.099 71.6662 106.665 71.9196C107.232 72.1662 107.715 72.5229 108.115 72.9896L107.135 73.8096C106.482 73.1429 105.712 72.8096 104.825 72.8096C104.245 72.8096 103.785 72.9329 103.445 73.1796C103.112 73.4196 102.945 73.7529 102.945 74.1796C102.945 74.5729 103.119 74.9129 103.465 75.1996C103.812 75.4796 104.445 75.7896 105.365 76.1296C106.112 76.4096 106.712 76.7062 107.165 77.0196C107.619 77.3262 107.945 77.6762 108.145 78.0696C108.352 78.4629 108.455 78.9162 108.455 79.4296C108.455 80.3029 108.149 80.9896 107.535 81.4896C106.922 81.9896 106.079 82.2396 105.005 82.2396Z" fill="#662D91"/>
<path d="M179.488 81.9996V67.9996H180.888V81.9996H179.488Z" fill="#CF8EFF"/>
<path d="M185.207 81.9996V71.7796H186.607V72.9796C186.9 72.5129 187.284 72.1562 187.757 71.9096C188.23 71.6629 188.76 71.5396 189.347 71.5396C189.994 71.5396 190.557 71.6996 191.037 72.0196C191.524 72.3396 191.884 72.7896 192.117 73.3696C192.404 72.7962 192.81 72.3496 193.337 72.0296C193.87 71.7029 194.464 71.5396 195.117 71.5396C196.177 71.5396 197.02 71.8696 197.647 72.5296C198.274 73.1829 198.587 74.0696 198.587 75.1896V81.9996H197.187V75.7296C197.187 74.7829 196.997 74.0629 196.617 73.5696C196.237 73.0762 195.687 72.8296 194.967 72.8296C194.494 72.8296 194.077 72.9529 193.717 73.1996C193.364 73.4462 193.087 73.7929 192.887 74.2396C192.687 74.6796 192.587 75.1896 192.587 75.7696V81.9996H191.187V75.7296C191.187 74.7762 191.004 74.0562 190.637 73.5696C190.27 73.0762 189.724 72.8296 188.997 72.8296C188.257 72.8296 187.674 73.0929 187.247 73.6196C186.82 74.1396 186.607 74.8529 186.607 75.7596V81.9996H185.207Z" fill="#CF8EFF"/>
<path d="M202.797 86.0596V71.7796H204.197V72.8496C204.924 71.9762 205.857 71.5396 206.997 71.5396C207.837 71.5396 208.564 71.7562 209.177 72.1896C209.79 72.6229 210.264 73.2396 210.597 74.0396C210.93 74.8396 211.097 75.7862 211.097 76.8796C211.097 77.9796 210.927 78.9329 210.587 79.7396C210.254 80.5396 209.774 81.1562 209.147 81.5896C208.527 82.0229 207.79 82.2396 206.937 82.2396C206.364 82.2396 205.847 82.1196 205.387 81.8796C204.927 81.6329 204.53 81.2729 204.197 80.7996V85.3896L202.797 86.0596ZM206.797 80.9196C207.717 80.9196 208.424 80.5696 208.917 79.8696C209.41 79.1696 209.657 78.1729 209.657 76.8796C209.657 75.6396 209.397 74.6596 208.877 73.9396C208.364 73.2129 207.67 72.8496 206.797 72.8496C206.25 72.8496 205.75 72.9862 205.297 73.2596C204.844 73.5329 204.477 73.9196 204.197 74.4196V79.2696C204.55 79.8096 204.947 80.2196 205.387 80.4996C205.827 80.7796 206.297 80.9196 206.797 80.9196Z" fill="#CF8EFF"/>
<path d="M214.617 81.9996V68.2296L216.017 67.5596V81.9996H214.617Z" fill="#CF8EFF"/>
<path d="M220.204 81.9996V71.7796H221.604V81.9996H220.204ZM220.894 69.7296C220.641 69.7296 220.424 69.6396 220.244 69.4596C220.071 69.2796 219.984 69.0629 219.984 68.8096C219.984 68.5429 220.071 68.3196 220.244 68.1396C220.424 67.9529 220.641 67.8596 220.894 67.8596C221.161 67.8596 221.381 67.9529 221.554 68.1396C221.734 68.3196 221.824 68.5429 221.824 68.8096C221.824 69.0629 221.734 69.2796 221.554 69.4596C221.381 69.6396 221.161 69.7296 220.894 69.7296Z" fill="#CF8EFF"/>
<path d="M229.123 82.2396C228.283 82.2396 227.56 82.0262 226.953 81.5996C226.346 81.1662 225.88 80.5529 225.553 79.7596C225.233 78.9596 225.073 78.0062 225.073 76.8996C225.073 75.7862 225.24 74.8296 225.573 74.0296C225.906 73.2296 226.383 72.6162 227.003 72.1896C227.623 71.7562 228.363 71.5396 229.223 71.5396C230.043 71.5396 230.743 71.7396 231.323 72.1396C231.91 72.5329 232.336 73.0996 232.603 73.8396L231.273 74.3296C231.1 73.8562 230.836 73.4929 230.483 73.2396C230.13 72.9862 229.716 72.8596 229.243 72.8596C228.356 72.8596 227.68 73.2029 227.213 73.8896C226.753 74.5762 226.523 75.5796 226.523 76.8996C226.523 78.1662 226.753 79.1529 227.213 79.8596C227.673 80.5596 228.32 80.9096 229.153 80.9096C229.7 80.9096 230.17 80.7629 230.563 80.4696C230.956 80.1762 231.23 79.7762 231.383 79.2696L232.703 79.7096C232.47 80.5096 232.036 81.1329 231.403 81.5796C230.776 82.0196 230.016 82.2396 229.123 82.2396Z" fill="#CF8EFF"/>
<path d="M238.692 82.2396C237.612 82.2396 236.765 81.9396 236.152 81.3396C235.539 80.7329 235.232 79.8996 235.232 78.8396C235.232 78.1596 235.382 77.5696 235.682 77.0696C235.989 76.5696 236.419 76.1862 236.972 75.9196C237.532 75.6462 238.192 75.5096 238.952 75.5096C239.452 75.5096 239.929 75.5729 240.382 75.6996C240.842 75.8262 241.285 76.0162 241.712 76.2696V75.2896C241.712 74.4229 241.522 73.7862 241.142 73.3796C240.769 72.9729 240.185 72.7696 239.392 72.7696C238.919 72.7696 238.415 72.8596 237.882 73.0396C237.355 73.2129 236.855 73.4596 236.382 73.7796L235.972 72.5996C236.512 72.2596 237.095 71.9996 237.722 71.8196C238.349 71.6329 238.962 71.5396 239.562 71.5396C240.709 71.5396 241.575 71.8396 242.162 72.4396C242.749 73.0396 243.042 73.9229 243.042 75.0896V81.9996H241.712V80.8396C241.305 81.2862 240.839 81.6329 240.312 81.8796C239.792 82.1196 239.252 82.2396 238.692 82.2396ZM238.872 81.0096C239.385 81.0096 239.885 80.8762 240.372 80.6096C240.859 80.3362 241.305 79.9462 241.712 79.4396V77.5296C241.319 77.2762 240.892 77.0829 240.432 76.9496C239.979 76.8096 239.539 76.7396 239.112 76.7396C238.345 76.7396 237.732 76.9329 237.272 77.3196C236.819 77.6996 236.592 78.2096 236.592 78.8496C236.592 79.5096 236.795 80.0362 237.202 80.4296C237.609 80.8162 238.165 81.0096 238.872 81.0096Z" fill="#CF8EFF"/>
<path d="M250.574 82.2396C249.307 82.2396 248.304 81.7596 247.564 80.7996C246.83 79.8329 246.464 78.5262 246.464 76.8796C246.464 75.7729 246.63 74.8229 246.964 74.0296C247.297 73.2296 247.774 72.6162 248.394 72.1896C249.02 71.7562 249.764 71.5396 250.624 71.5396C251.684 71.5396 252.58 71.9462 253.314 72.7596V68.2296L254.714 67.5596V81.9996H253.314V80.9796C252.6 81.8196 251.687 82.2396 250.574 82.2396ZM250.784 80.9196C251.284 80.9196 251.76 80.7762 252.214 80.4896C252.667 80.1962 253.034 79.7996 253.314 79.2996V74.3996C253.014 73.9196 252.637 73.5429 252.184 73.2696C251.737 72.9896 251.27 72.8496 250.784 72.8496C249.864 72.8496 249.15 73.1996 248.644 73.8996C248.144 74.5929 247.894 75.5862 247.894 76.8796C247.894 77.6729 248.017 78.3729 248.264 78.9796C248.51 79.5862 248.85 80.0629 249.284 80.4096C249.717 80.7496 250.217 80.9196 250.784 80.9196Z" fill="#CF8EFF"/>
<path d="M262.515 82.2396C261.168 82.2396 260.105 81.7629 259.325 80.8096C258.545 79.8496 258.155 78.5462 258.155 76.8996C258.155 75.7996 258.332 74.8496 258.685 74.0496C259.038 73.2496 259.542 72.6329 260.195 72.1996C260.848 71.7596 261.622 71.5396 262.515 71.5396C263.415 71.5396 264.192 71.7562 264.845 72.1896C265.498 72.6162 265.998 73.2296 266.345 74.0296C266.698 74.8296 266.875 75.7796 266.875 76.8796C266.875 77.9796 266.698 78.9329 266.345 79.7396C265.992 80.5396 265.488 81.1562 264.835 81.5896C264.182 82.0229 263.408 82.2396 262.515 82.2396ZM262.515 80.9196C263.435 80.9196 264.152 80.5629 264.665 79.8496C265.185 79.1362 265.445 78.1462 265.445 76.8796C265.445 75.6062 265.185 74.6162 264.665 73.9096C264.152 73.2029 263.435 72.8496 262.515 72.8496C261.582 72.8496 260.858 73.2029 260.345 73.9096C259.838 74.6096 259.585 75.6062 259.585 76.8996C259.585 78.1729 259.842 79.1629 260.355 79.8696C260.868 80.5696 261.588 80.9196 262.515 80.9196Z" fill="#CF8EFF"/>
<path d="M272.7 84.5996C272.294 84.0662 271.904 83.4196 271.53 82.6596C271.157 81.9062 270.85 81.0096 270.61 79.9696C270.377 78.9296 270.26 77.7129 270.26 76.3196C270.26 74.9262 270.387 73.6862 270.64 72.5996C270.9 71.5129 271.234 70.5696 271.64 69.7696C272.047 68.9629 272.474 68.2929 272.92 67.7596H274.28C274.1 67.9796 273.864 68.3429 273.57 68.8496C273.284 69.3496 272.994 69.9696 272.7 70.7096C272.407 71.4496 272.16 72.2929 271.96 73.2396C271.76 74.1796 271.66 75.2062 271.66 76.3196C271.66 77.4396 271.754 78.4596 271.94 79.3796C272.134 80.2996 272.364 81.1096 272.63 81.8096C272.904 82.5096 273.174 83.0929 273.44 83.5596C273.707 84.0329 273.914 84.3796 274.06 84.5996H272.7Z" fill="#CF8EFF"/>
<path d="M280.497 82.2396C279.417 82.2396 278.57 81.9396 277.957 81.3396C277.343 80.7329 277.037 79.8996 277.037 78.8396C277.037 78.1596 277.187 77.5696 277.487 77.0696C277.793 76.5696 278.223 76.1862 278.777 75.9196C279.337 75.6462 279.997 75.5096 280.757 75.5096C281.257 75.5096 281.733 75.5729 282.187 75.6996C282.647 75.8262 283.09 76.0162 283.517 76.2696V75.2896C283.517 74.4229 283.327 73.7862 282.947 73.3796C282.573 72.9729 281.99 72.7696 281.197 72.7696C280.723 72.7696 280.22 72.8596 279.687 73.0396C279.16 73.2129 278.66 73.4596 278.187 73.7796L277.777 72.5996C278.317 72.2596 278.9 71.9996 279.527 71.8196C280.153 71.6329 280.767 71.5396 281.367 71.5396C282.513 71.5396 283.38 71.8396 283.967 72.4396C284.553 73.0396 284.847 73.9229 284.847 75.0896V81.9996H283.517V80.8396C283.11 81.2862 282.643 81.6329 282.117 81.8796C281.597 82.1196 281.057 82.2396 280.497 82.2396ZM280.677 81.0096C281.19 81.0096 281.69 80.8762 282.177 80.6096C282.663 80.3362 283.11 79.9462 283.517 79.4396V77.5296C283.123 77.2762 282.697 77.0829 282.237 76.9496C281.783 76.8096 281.343 76.7396 280.917 76.7396C280.15 76.7396 279.537 76.9329 279.077 77.3196C278.623 77.6996 278.397 78.2096 278.397 78.8496C278.397 79.5096 278.6 80.0362 279.007 80.4296C279.413 80.8162 279.97 81.0096 280.677 81.0096Z" fill="#CF8EFF"/>
<path d="M287.588 84.5996C287.741 84.3796 287.948 84.0329 288.208 83.5596C288.474 83.0929 288.744 82.5096 289.018 81.8096C289.291 81.1096 289.521 80.2996 289.708 79.3796C289.894 78.4596 289.988 77.4396 289.988 76.3196C289.988 75.2062 289.888 74.1796 289.688 73.2396C289.488 72.2929 289.241 71.4496 288.948 70.7096C288.654 69.9696 288.361 69.3496 288.068 68.8496C287.781 68.3429 287.548 67.9796 287.368 67.7596H288.728C289.174 68.2929 289.601 68.9629 290.008 69.7696C290.414 70.5696 290.744 71.5129 290.998 72.5996C291.258 73.6862 291.388 74.9262 291.388 76.3196C291.388 77.7129 291.268 78.9296 291.028 79.9696C290.794 81.0096 290.491 81.9062 290.118 82.6596C289.744 83.4196 289.354 84.0662 288.948 84.5996H287.588Z" fill="#CF8EFF"/>
<path d="M372.965 77.9996V63.9996H376.575C377.761 63.9996 378.765 64.1996 379.585 64.5996C380.405 64.9996 381.061 65.5362 381.555 66.2096C382.055 66.8762 382.415 67.6262 382.635 68.4596C382.861 69.2862 382.975 70.1329 382.975 70.9996C382.975 71.8062 382.871 72.6196 382.665 73.4396C382.458 74.2596 382.111 75.0162 381.625 75.7096C381.138 76.3962 380.475 76.9496 379.635 77.3696C378.801 77.7896 377.755 77.9996 376.495 77.9996H372.965ZM374.365 76.6796H376.645C377.585 76.6796 378.368 76.5129 378.995 76.1796C379.621 75.8396 380.121 75.3929 380.495 74.8396C380.868 74.2796 381.131 73.6662 381.285 72.9996C381.445 72.3262 381.525 71.6596 381.525 70.9996C381.525 70.2862 381.438 69.5929 381.265 68.9196C381.098 68.2396 380.825 67.6296 380.445 67.0896C380.071 66.5429 379.585 66.1096 378.985 65.7896C378.391 65.4696 377.668 65.3096 376.815 65.3096H374.365V76.6796Z" fill="#CF8EFF"/>
<path d="M389.258 78.2396C388.178 78.2396 387.332 77.9396 386.718 77.3396C386.105 76.7329 385.798 75.8996 385.798 74.8396C385.798 74.1596 385.948 73.5696 386.248 73.0696C386.555 72.5696 386.985 72.1862 387.538 71.9196C388.098 71.6462 388.758 71.5096 389.518 71.5096C390.018 71.5096 390.495 71.5729 390.948 71.6996C391.408 71.8262 391.852 72.0162 392.278 72.2696V71.2896C392.278 70.4229 392.088 69.7862 391.708 69.3796C391.335 68.9729 390.752 68.7696 389.958 68.7696C389.485 68.7696 388.982 68.8596 388.448 69.0396C387.922 69.2129 387.422 69.4596 386.948 69.7796L386.538 68.5996C387.078 68.2596 387.662 67.9996 388.288 67.8196C388.915 67.6329 389.528 67.5396 390.128 67.5396C391.275 67.5396 392.142 67.8396 392.728 68.4396C393.315 69.0396 393.608 69.9229 393.608 71.0896V77.9996H392.278V76.8396C391.872 77.2862 391.405 77.6329 390.878 77.8796C390.358 78.1196 389.818 78.2396 389.258 78.2396ZM389.438 77.0096C389.952 77.0096 390.452 76.8762 390.938 76.6096C391.425 76.3362 391.872 75.9462 392.278 75.4396V73.5296C391.885 73.2762 391.458 73.0829 390.998 72.9496C390.545 72.8096 390.105 72.7396 389.678 72.7396C388.912 72.7396 388.298 72.9329 387.838 73.3196C387.385 73.6996 387.158 74.2096 387.158 74.8496C387.158 75.5096 387.362 76.0362 387.768 76.4296C388.175 76.8162 388.732 77.0096 389.438 77.0096Z" fill="#CF8EFF"/>
<path d="M399.754 78.2396C399.081 78.2396 398.567 78.0362 398.214 77.6296C397.867 77.2162 397.694 76.6196 397.694 75.8396V69.0096H396.004V67.7796H397.694V64.2396L399.094 63.5596V67.7796H401.634V69.0096H399.094V75.4196C399.094 75.9529 399.181 76.3396 399.354 76.5796C399.534 76.8129 399.821 76.9296 400.214 76.9296C400.694 76.9296 401.197 76.7562 401.724 76.4096L401.564 77.7896C401.297 77.9429 401.011 78.0562 400.704 78.1296C400.397 78.2029 400.081 78.2396 399.754 78.2396Z" fill="#CF8EFF"/>
<path d="M408.531 78.2396C407.184 78.2396 406.121 77.7629 405.341 76.8096C404.561 75.8496 404.171 74.5462 404.171 72.8996C404.171 71.7996 404.347 70.8496 404.701 70.0496C405.054 69.2496 405.557 68.6329 406.211 68.1996C406.864 67.7596 407.637 67.5396 408.531 67.5396C409.431 67.5396 410.207 67.7562 410.861 68.1896C411.514 68.6162 412.014 69.2296 412.361 70.0296C412.714 70.8296 412.891 71.7796 412.891 72.8796C412.891 73.9796 412.714 74.9329 412.361 75.7396C412.007 76.5396 411.504 77.1562 410.851 77.5896C410.197 78.0229 409.424 78.2396 408.531 78.2396ZM408.531 76.9196C409.451 76.9196 410.167 76.5629 410.681 75.8496C411.201 75.1362 411.461 74.1462 411.461 72.8796C411.461 71.6062 411.201 70.6162 410.681 69.9096C410.167 69.2029 409.451 68.8496 408.531 68.8496C407.597 68.8496 406.874 69.2029 406.361 69.9096C405.854 70.6096 405.601 71.6062 405.601 72.8996C405.601 74.1729 405.857 75.1629 406.371 75.8696C406.884 76.5696 407.604 76.9196 408.531 76.9196Z" fill="#CF8EFF"/>
<path d="M419.041 78.2396C418.361 78.2396 417.707 78.0929 417.081 77.7996C416.454 77.5062 415.927 77.0996 415.501 76.5796L416.521 75.7096C416.887 76.1096 417.294 76.4196 417.741 76.6396C418.187 76.8596 418.627 76.9696 419.061 76.9696C419.714 76.9696 420.217 76.8362 420.571 76.5696C420.931 76.3029 421.111 75.9296 421.111 75.4496C421.111 75.1496 421.027 74.8762 420.861 74.6296C420.701 74.3829 420.437 74.1529 420.071 73.9396C419.704 73.7196 419.221 73.4962 418.621 73.2696C417.541 72.8696 416.764 72.4329 416.291 71.9596C415.817 71.4796 415.581 70.8862 415.581 70.1796C415.581 69.3929 415.884 68.7562 416.491 68.2696C417.104 67.7829 417.901 67.5396 418.881 67.5396C419.527 67.5396 420.134 67.6662 420.701 67.9196C421.267 68.1662 421.751 68.5229 422.151 68.9896L421.171 69.8096C420.517 69.1429 419.747 68.8096 418.861 68.8096C418.281 68.8096 417.821 68.9329 417.481 69.1796C417.147 69.4196 416.981 69.7529 416.981 70.1796C416.981 70.5729 417.154 70.9129 417.501 71.1996C417.847 71.4796 418.481 71.7896 419.401 72.1296C420.147 72.4096 420.747 72.7062 421.201 73.0196C421.654 73.3262 421.981 73.6762 422.181 74.0696C422.387 74.4629 422.491 74.9162 422.491 75.4296C422.491 76.3029 422.184 76.9896 421.571 77.4896C420.957 77.9896 420.114 78.2396 419.041 78.2396Z" fill="#CF8EFF"/>
<path d="M369.004 96.9996V88.0096H367.404V86.7796H369.004V85.0296C369.004 84.2962 369.187 83.7362 369.554 83.3496C369.927 82.9562 370.457 82.7596 371.144 82.7596C371.43 82.7596 371.714 82.7962 371.994 82.8696C372.28 82.9429 372.554 83.0496 372.814 83.1896V84.3696C372.54 84.2429 372.297 84.1529 372.084 84.0996C371.87 84.0462 371.654 84.0196 371.434 84.0196C371.067 84.0196 370.804 84.1162 370.644 84.3096C370.484 84.4962 370.404 84.8129 370.404 85.2596V86.7796H372.814V88.0096H370.404V96.9996H369.004Z" fill="#CF8EFF"/>
<path d="M375.548 96.9996V86.7796H376.948V96.9996H375.548ZM376.238 84.7296C375.984 84.7296 375.768 84.6396 375.588 84.4596C375.414 84.2796 375.328 84.0629 375.328 83.8096C375.328 83.5429 375.414 83.3196 375.588 83.1396C375.768 82.9529 375.984 82.8596 376.238 82.8596C376.504 82.8596 376.724 82.9529 376.898 83.1396C377.078 83.3196 377.168 83.5429 377.168 83.8096C377.168 84.0629 377.078 84.2796 376.898 84.4596C376.724 84.6396 376.504 84.7296 376.238 84.7296Z" fill="#CF8EFF"/>
<path d="M381.047 96.9996V86.7796H382.447V88.0896C382.733 87.5896 383.113 87.2062 383.587 86.9396C384.067 86.6729 384.61 86.5396 385.217 86.5396C386.41 86.5396 387.297 86.9096 387.877 87.6496C388.457 88.3829 388.747 89.4996 388.747 90.9996V96.9996H387.347V90.7496C387.347 89.7962 387.147 89.0729 386.747 88.5796C386.347 88.0796 385.767 87.8296 385.007 87.8296C384.167 87.8296 383.53 88.0862 383.097 88.5996C382.663 89.1129 382.447 89.8696 382.447 90.8696V96.9996H381.047Z" fill="#CF8EFF"/>
<path d="M395.676 97.2396C394.596 97.2396 393.75 96.9396 393.136 96.3396C392.523 95.7329 392.216 94.8996 392.216 93.8396C392.216 93.1596 392.366 92.5696 392.666 92.0696C392.973 91.5696 393.403 91.1862 393.956 90.9196C394.516 90.6462 395.176 90.5096 395.936 90.5096C396.436 90.5096 396.913 90.5729 397.366 90.6996C397.826 90.8262 398.27 91.0162 398.696 91.2696V90.2896C398.696 89.4229 398.506 88.7862 398.126 88.3796C397.753 87.9729 397.17 87.7696 396.376 87.7696C395.903 87.7696 395.4 87.8596 394.866 88.0396C394.34 88.2129 393.84 88.4596 393.366 88.7796L392.956 87.5996C393.496 87.2596 394.08 86.9996 394.706 86.8196C395.333 86.6329 395.946 86.5396 396.546 86.5396C397.693 86.5396 398.56 86.8396 399.146 87.4396C399.733 88.0396 400.026 88.9229 400.026 90.0896V96.9996H398.696V95.8396C398.29 96.2862 397.823 96.6329 397.296 96.8796C396.776 97.1196 396.236 97.2396 395.676 97.2396ZM395.856 96.0096C396.37 96.0096 396.87 95.8762 397.356 95.6096C397.843 95.3362 398.29 94.9462 398.696 94.4396V92.5296C398.303 92.2762 397.876 92.0829 397.416 91.9496C396.963 91.8096 396.523 91.7396 396.096 91.7396C395.33 91.7396 394.716 91.9329 394.256 92.3196C393.803 92.6996 393.576 93.2096 393.576 93.8496C393.576 94.5096 393.78 95.0362 394.186 95.4296C394.593 95.8162 395.15 96.0096 395.856 96.0096Z" fill="#CF8EFF"/>
<path d="M403.855 96.9996V83.2296L405.255 82.5596V96.9996H403.855Z" fill="#CF8EFF"/>
<path d="M413.162 97.2396C412.256 97.2396 411.472 97.0162 410.812 96.5696C410.159 96.1162 409.656 95.4862 409.302 94.6796C408.949 93.8729 408.772 92.9396 408.772 91.8796C408.772 90.7529 408.956 89.7929 409.322 88.9996C409.696 88.1996 410.212 87.5896 410.872 87.1696C411.532 86.7496 412.296 86.5396 413.162 86.5396C413.916 86.5396 414.599 86.7162 415.212 87.0696C415.826 87.4229 416.312 87.9696 416.672 88.7096C417.032 89.4496 417.212 90.3996 417.212 91.5596C417.212 91.6796 417.209 91.8162 417.202 91.9696C417.196 92.1162 417.186 92.2696 417.172 92.4296H410.222C410.276 93.1362 410.419 93.7562 410.652 94.2896C410.892 94.8162 411.222 95.2329 411.642 95.5396C412.069 95.8396 412.592 95.9896 413.212 95.9896C413.632 95.9896 414.036 95.9162 414.422 95.7696C414.809 95.6162 415.169 95.3829 415.502 95.0696L416.322 96.0096C415.949 96.3629 415.489 96.6562 414.942 96.8896C414.402 97.1229 413.809 97.2396 413.162 97.2396ZM410.202 91.1996H415.782C415.782 90.5662 415.686 89.9896 415.492 89.4696C415.306 88.9496 415.016 88.5362 414.622 88.2296C414.236 87.9229 413.749 87.7696 413.162 87.7696C412.369 87.7696 411.692 88.0429 411.132 88.5896C410.579 89.1362 410.269 90.0062 410.202 91.1996Z" fill="#CF8EFF"/>
<path d="M423.251 97.2396C422.571 97.2396 421.918 97.0929 421.291 96.7996C420.665 96.5062 420.138 96.0996 419.711 95.5796L420.731 94.7096C421.098 95.1096 421.505 95.4196 421.951 95.6396C422.398 95.8596 422.838 95.9696 423.271 95.9696C423.925 95.9696 424.428 95.8362 424.781 95.5696C425.141 95.3029 425.321 94.9296 425.321 94.4496C425.321 94.1496 425.238 93.8762 425.071 93.6296C424.911 93.3829 424.648 93.1529 424.281 92.9396C423.915 92.7196 423.431 92.4962 422.831 92.2696C421.751 91.8696 420.975 91.4329 420.501 90.9596C420.028 90.4796 419.791 89.8862 419.791 89.1796C419.791 88.3929 420.095 87.7562 420.701 87.2696C421.315 86.7829 422.111 86.5396 423.091 86.5396C423.738 86.5396 424.345 86.6662 424.911 86.9196C425.478 87.1662 425.961 87.5229 426.361 87.9896L425.381 88.8096C424.728 88.1429 423.958 87.8096 423.071 87.8096C422.491 87.8096 422.031 87.9329 421.691 88.1796C421.358 88.4196 421.191 88.7529 421.191 89.1796C421.191 89.5729 421.365 89.9129 421.711 90.1996C422.058 90.4796 422.691 90.7896 423.611 91.1296C424.358 91.4096 424.958 91.7062 425.411 92.0196C425.865 92.3262 426.191 92.6762 426.391 93.0696C426.598 93.4629 426.701 93.9162 426.701 94.4296C426.701 95.3029 426.395 95.9896 425.781 96.4896C425.168 96.9896 424.325 97.2396 423.251 97.2396Z" fill="#CF8EFF"/>
<path d="M74.9522 52V40.68H72.6022V39.73C73.1089 39.73 73.5422 39.6833 73.9022 39.59C74.2622 39.49 74.5589 39.3167 74.7922 39.07C75.0322 38.8167 75.2189 38.46 75.3522 38H76.3522V52H74.9522Z" fill="white"/>
<path d="M231.712 51.9998C231.712 51.1198 231.828 50.3531 232.062 49.6998C232.302 49.0464 232.625 48.4698 233.032 47.9698C233.445 47.4698 233.915 47.0231 234.442 46.6298C234.975 46.2364 235.525 45.8698 236.092 45.5298C236.645 45.1898 237.162 44.8398 237.642 44.4798C238.128 44.1198 238.518 43.7164 238.812 43.2698C239.112 42.8164 239.262 42.2898 239.262 41.6898C239.262 40.9431 239.002 40.3231 238.482 39.8298C237.962 39.3298 237.252 39.0798 236.352 39.0798C235.472 39.0798 234.778 39.2864 234.272 39.6998C233.772 40.1064 233.418 40.6464 233.212 41.3198L231.952 40.7498C232.212 39.8898 232.732 39.1764 233.512 38.6098C234.292 38.0431 235.252 37.7598 236.392 37.7598C237.292 37.7598 238.065 37.9264 238.712 38.2598C239.358 38.5931 239.852 39.0564 240.192 39.6498C240.538 40.2431 240.712 40.9298 240.712 41.7098C240.712 42.5564 240.525 43.2764 240.152 43.8698C239.778 44.4564 239.288 44.9764 238.682 45.4298C238.075 45.8764 237.428 46.3031 236.742 46.7098C236.122 47.0831 235.568 47.4598 235.082 47.8398C234.602 48.2198 234.208 48.6331 233.902 49.0798C233.602 49.5264 233.412 50.0431 233.332 50.6298H240.832V51.9998H231.712Z" fill="white"/>
<path d="M397.089 52.2398C395.969 52.2398 395.009 51.9698 394.209 51.4298C393.409 50.8831 392.806 50.0931 392.399 49.0598L393.709 48.5298C394.376 50.1031 395.503 50.8898 397.089 50.8898C398.076 50.8898 398.856 50.6464 399.429 50.1598C400.009 49.6664 400.299 49.0031 400.299 48.1698C400.299 47.2964 400.026 46.6164 399.479 46.1298C398.939 45.6364 398.186 45.3898 397.219 45.3898H396.299V44.0598H397.049C397.863 44.0598 398.516 43.8298 399.009 43.3698C399.503 42.9031 399.749 42.2964 399.749 41.5498C399.749 40.8098 399.509 40.2164 399.029 39.7698C398.549 39.3164 397.923 39.0898 397.149 39.0898C396.509 39.0898 395.929 39.2598 395.409 39.5998C394.896 39.9398 394.486 40.4298 394.179 41.0698L392.869 40.5698C393.229 39.6964 393.789 39.0098 394.549 38.5098C395.316 38.0098 396.183 37.7598 397.149 37.7598C397.936 37.7598 398.636 37.9198 399.249 38.2398C399.863 38.5531 400.343 38.9864 400.689 39.5398C401.043 40.0864 401.219 40.7098 401.219 41.4098C401.219 42.1031 401.046 42.7331 400.699 43.2998C400.353 43.8598 399.873 44.2831 399.259 44.5698C400.046 44.8231 400.659 45.2631 401.099 45.8898C401.546 46.5164 401.769 47.2631 401.769 48.1298C401.769 48.9364 401.569 49.6498 401.169 50.2698C400.776 50.8831 400.226 51.3664 399.519 51.7198C398.819 52.0664 398.009 52.2398 397.089 52.2398Z" fill="white"/>
</svg>
