<svg width="355" height="341" viewBox="0 0 355 341" fill="none" xmlns="http://www.w3.org/2000/svg">
<g filter="url(#filter0_d_249_17236)">
<mask id="mask0_249_17236" style="mask-type:alpha" maskUnits="userSpaceOnUse" x="6" y="0" width="344" height="328">
<path d="M6 22.3154C6 10.143 15.8676 0.275391 28.04 0.275391H327.017C339.189 0.275391 349.057 10.143 349.057 22.3154V305.96C349.057 318.132 339.189 328 327.017 328H28.04C15.8677 328 6 318.132 6 305.96V22.3154Z" fill="#D9D9D9"/>
</mask>
<g mask="url(#mask0_249_17236)">
<path d="M6 22.3154C6 10.143 15.8676 0.275391 28.04 0.275391H327.017C339.189 0.275391 349.057 10.143 349.057 22.3154V305.96C349.057 318.132 339.189 328 327.017 328H28.04C15.8677 328 6 318.132 6 305.96V22.3154Z" fill="#FFDAF7"/>
<path d="M331.888 259.006H187.33C186.334 259.006 185.38 258.61 184.676 257.907C183.972 257.204 183.577 256.25 183.577 255.255V79.2727C183.577 78.2781 183.972 77.3242 184.676 76.6209C185.38 75.9176 186.334 75.5225 187.33 75.5225H315.3C316.295 75.5225 317.25 75.9176 317.954 76.6209C318.657 77.3242 319.053 78.2781 319.053 79.2727L335.641 255.255C335.641 256.25 335.246 257.204 334.542 257.907C333.838 258.61 332.884 259.006 331.888 259.006Z" fill="#FBB03B"/>
<path d="M318.047 111.967H204.941V116.994H318.047V111.967Z" fill="#FCF9F5"/>
<path d="M318.047 135.845H204.941V140.872H318.047V135.845Z" fill="#FCF9F5"/>
<path d="M318.047 158.467H204.941V163.494H318.047V158.467Z" fill="#FCF9F5"/>
<path d="M265.264 184.858H204.941V188.629H265.264V184.858Z" fill="#FCF9F5"/>
<path d="M272.143 231.357H148.381C147.385 231.357 146.429 230.962 145.724 230.259C145.018 229.556 144.62 228.602 144.618 227.607V51.6243C144.62 50.6287 145.018 49.6748 145.724 48.9718C146.429 48.2688 147.385 47.874 148.381 47.874H292.93C293.925 47.874 294.879 48.2691 295.583 48.9724C296.287 49.6758 296.682 50.6296 296.682 51.6243L275.948 227.607C275.948 228.103 275.849 228.595 275.658 229.054C275.466 229.512 275.185 229.928 274.831 230.277C274.477 230.626 274.057 230.901 273.596 231.086C273.134 231.272 272.641 231.364 272.143 231.357V231.357Z" fill="#662D91"/>
<path d="M279.088 84.3184H165.982V89.3453H279.088V84.3184Z" fill="#FCF9F5"/>
<path d="M279.088 108.197H165.982V113.224H279.088V108.197Z" fill="#FCF9F5"/>
<path d="M279.088 130.818H165.982V135.845H279.088V130.818Z" fill="#FCF9F5"/>
<path d="M226.305 157.21H165.982V160.98H226.305V157.21Z" fill="#FCF9F5"/>
<path d="M253.96 203.709H123.926C122.93 203.709 121.976 203.314 121.272 202.61C120.568 201.907 120.173 200.953 120.173 199.959L105.659 23.986C105.659 22.9905 106.054 22.0356 106.758 21.3306C107.461 20.6257 108.416 20.2283 109.412 20.2256H253.96C254.958 20.2283 255.913 20.6254 256.618 21.33C257.324 22.0346 257.721 22.9895 257.724 23.986V199.969C257.718 200.963 257.319 201.914 256.614 202.615C255.909 203.315 254.955 203.709 253.96 203.709V203.709Z" fill="#C1272D"/>
<path d="M238.873 56.6709H127.023V61.6978H238.873V56.6709Z" fill="#FCF9F5"/>
<path d="M238.873 80.5488H127.023V85.5758H238.873V80.5488Z" fill="#FCF9F5"/>
<path d="M238.873 103.17H127.023V108.197H238.873V103.17Z" fill="#FCF9F5"/>
<path d="M187.347 129.562H127.023V133.332H187.347V129.562Z" fill="#FCF9F5"/>
</g>
<path d="M6 259.005H349.057V305.96C349.057 318.132 339.189 328 327.017 328H28.04C15.8677 328 6 318.132 6 305.96V259.005Z" fill="white"/>
<path d="M232.629 298.421V285.006H237.449C238.529 285.006 239.382 285.2 240.008 285.59C240.634 285.98 241.078 286.481 241.34 287.095C241.608 287.708 241.742 288.344 241.742 289.002C241.742 289.462 241.666 289.925 241.512 290.391C241.359 290.857 241.11 291.289 240.765 291.685C240.426 292.074 239.986 292.391 239.442 292.633C238.899 292.87 238.235 292.988 237.449 292.988H233.971V298.421H232.629ZM233.971 291.723H237.526C238.241 291.723 238.81 291.586 239.232 291.311C239.653 291.03 239.954 290.682 240.132 290.266C240.311 289.845 240.401 289.423 240.401 289.002C240.401 288.593 240.318 288.177 240.152 287.756C239.992 287.334 239.701 286.983 239.28 286.702C238.864 286.414 238.28 286.271 237.526 286.271H233.971V291.723Z" fill="#009245"/>
<path d="M244.735 298.421V288.628H246.076V290.18C246.319 289.605 246.654 289.164 247.083 288.858C247.517 288.551 248.018 288.398 248.587 288.398C249.175 288.398 249.654 288.554 250.024 288.867L249.823 290.142C249.631 290.008 249.421 289.909 249.191 289.845C248.967 289.781 248.724 289.749 248.462 289.749C247.99 289.749 247.574 289.883 247.217 290.151C246.859 290.42 246.578 290.794 246.373 291.273C246.175 291.745 246.076 292.298 246.076 292.93V298.421H244.735Z" fill="#009245"/>
<path d="M255.713 298.651C254.423 298.651 253.404 298.194 252.656 297.281C251.909 296.361 251.535 295.112 251.535 293.534C251.535 292.48 251.704 291.57 252.043 290.803C252.382 290.036 252.864 289.446 253.49 289.03C254.116 288.609 254.857 288.398 255.713 288.398C256.576 288.398 257.32 288.605 257.946 289.021C258.572 289.43 259.051 290.017 259.383 290.784C259.722 291.551 259.891 292.461 259.891 293.515C259.891 294.569 259.722 295.483 259.383 296.256C259.045 297.022 258.562 297.613 257.936 298.028C257.31 298.444 256.569 298.651 255.713 298.651ZM255.713 297.386C256.595 297.386 257.282 297.045 257.773 296.361C258.272 295.677 258.521 294.729 258.521 293.515C258.521 292.295 258.272 291.346 257.773 290.669C257.282 289.992 256.595 289.653 255.713 289.653C254.819 289.653 254.126 289.992 253.634 290.669C253.148 291.34 252.905 292.295 252.905 293.534C252.905 294.754 253.151 295.703 253.643 296.38C254.135 297.051 254.825 297.386 255.713 297.386Z" fill="#009245"/>
<path d="M265.573 298.651C264.928 298.651 264.436 298.456 264.098 298.067C263.766 297.671 263.599 297.099 263.599 296.351V289.806H261.98V288.628H263.599V285.236L264.941 284.584V288.628H267.375V289.806H264.941V295.949C264.941 296.46 265.024 296.831 265.19 297.061C265.363 297.284 265.637 297.396 266.014 297.396C266.474 297.396 266.957 297.23 267.461 296.898L267.308 298.22C267.052 298.367 266.778 298.476 266.484 298.546C266.19 298.616 265.887 298.651 265.573 298.651Z" fill="#009245"/>
<path d="M273.984 298.651C272.693 298.651 271.674 298.194 270.927 297.281C270.179 296.361 269.806 295.112 269.806 293.534C269.806 292.48 269.975 291.57 270.314 290.803C270.652 290.036 271.134 289.446 271.761 289.03C272.387 288.609 273.128 288.398 273.984 288.398C274.846 288.398 275.59 288.605 276.216 289.021C276.843 289.43 277.322 290.017 277.654 290.784C277.992 291.551 278.162 292.461 278.162 293.515C278.162 294.569 277.992 295.483 277.654 296.256C277.315 297.022 276.833 297.613 276.207 298.028C275.581 298.444 274.84 298.651 273.984 298.651ZM273.984 297.386C274.865 297.386 275.552 297.045 276.044 296.361C276.542 295.677 276.791 294.729 276.791 293.515C276.791 292.295 276.542 291.346 276.044 290.669C275.552 289.992 274.865 289.653 273.984 289.653C273.089 289.653 272.396 289.992 271.904 290.669C271.419 291.34 271.176 292.295 271.176 293.534C271.176 294.754 271.422 295.703 271.914 296.38C272.406 297.051 273.096 297.386 273.984 297.386Z" fill="#009245"/>
<path d="M284.909 298.651C284.104 298.651 283.411 298.447 282.829 298.038C282.248 297.623 281.801 297.035 281.488 296.275C281.181 295.508 281.028 294.595 281.028 293.534C281.028 292.467 281.188 291.551 281.507 290.784C281.826 290.017 282.283 289.43 282.877 289.021C283.471 288.605 284.18 288.398 285.005 288.398C285.79 288.398 286.461 288.59 287.017 288.973C287.579 289.35 287.988 289.893 288.244 290.602L286.969 291.071C286.803 290.618 286.551 290.27 286.212 290.027C285.873 289.784 285.477 289.663 285.024 289.663C284.174 289.663 283.526 289.992 283.078 290.65C282.638 291.308 282.417 292.269 282.417 293.534C282.417 294.748 282.638 295.693 283.078 296.371C283.519 297.041 284.139 297.377 284.938 297.377C285.461 297.377 285.912 297.236 286.289 296.955C286.666 296.674 286.928 296.291 287.074 295.805L288.339 296.227C288.116 296.993 287.701 297.591 287.094 298.019C286.493 298.44 285.765 298.651 284.909 298.651Z" fill="#009245"/>
<path d="M295.137 298.651C293.846 298.651 292.827 298.194 292.08 297.281C291.332 296.361 290.959 295.112 290.959 293.534C290.959 292.48 291.128 291.57 291.466 290.803C291.805 290.036 292.287 289.446 292.913 289.03C293.539 288.609 294.28 288.398 295.137 288.398C295.999 288.398 296.743 288.605 297.369 289.021C297.995 289.43 298.474 290.017 298.807 290.784C299.145 291.551 299.315 292.461 299.315 293.515C299.315 294.569 299.145 295.483 298.807 296.256C298.468 297.022 297.986 297.613 297.36 298.028C296.734 298.444 295.993 298.651 295.137 298.651ZM295.137 297.386C296.018 297.386 296.705 297.045 297.197 296.361C297.695 295.677 297.944 294.729 297.944 293.515C297.944 292.295 297.695 291.346 297.197 290.669C296.705 289.992 296.018 289.653 295.137 289.653C294.242 289.653 293.549 289.992 293.057 290.669C292.572 291.34 292.329 292.295 292.329 293.534C292.329 294.754 292.575 295.703 293.067 296.38C293.559 297.051 294.249 297.386 295.137 297.386Z" fill="#009245"/>
<path d="M302.683 298.421V285.226L304.025 284.584V298.421H302.683Z" fill="#009245"/>
<path d="M311.573 298.651C310.282 298.651 309.264 298.194 308.516 297.281C307.769 296.361 307.395 295.112 307.395 293.534C307.395 292.48 307.564 291.57 307.903 290.803C308.241 290.036 308.724 289.446 309.35 289.03C309.976 288.609 310.717 288.398 311.573 288.398C312.435 288.398 313.18 288.605 313.806 289.021C314.432 289.43 314.911 290.017 315.243 290.784C315.582 291.551 315.751 292.461 315.751 293.515C315.751 294.569 315.582 295.483 315.243 296.256C314.904 297.022 314.422 297.613 313.796 298.028C313.17 298.444 312.429 298.651 311.573 298.651ZM311.573 297.386C312.455 297.386 313.141 297.045 313.633 296.361C314.131 295.677 314.381 294.729 314.381 293.515C314.381 292.295 314.131 291.346 313.633 290.669C313.141 289.992 312.455 289.653 311.573 289.653C310.679 289.653 309.985 289.992 309.494 290.669C309.008 291.34 308.765 292.295 308.765 293.534C308.765 294.754 309.011 295.703 309.503 296.38C309.995 297.051 310.685 297.386 311.573 297.386Z" fill="#009245"/>
<path d="M321.644 298.651C320.992 298.651 320.366 298.511 319.766 298.23C319.165 297.949 318.661 297.559 318.252 297.061L319.229 296.227C319.581 296.61 319.97 296.907 320.398 297.118C320.826 297.329 321.248 297.434 321.663 297.434C322.289 297.434 322.772 297.306 323.11 297.051C323.455 296.795 323.628 296.438 323.628 295.978C323.628 295.69 323.548 295.428 323.388 295.192C323.235 294.956 322.982 294.735 322.631 294.531C322.28 294.32 321.817 294.106 321.242 293.889C320.207 293.505 319.462 293.087 319.009 292.633C318.555 292.173 318.329 291.605 318.329 290.928C318.329 290.174 318.619 289.564 319.201 289.097C319.788 288.631 320.552 288.398 321.491 288.398C322.11 288.398 322.692 288.519 323.235 288.762C323.778 288.998 324.241 289.34 324.624 289.787L323.685 290.573C323.059 289.934 322.321 289.615 321.472 289.615C320.916 289.615 320.475 289.733 320.149 289.969C319.83 290.199 319.67 290.519 319.67 290.928C319.67 291.305 319.836 291.63 320.168 291.905C320.501 292.173 321.107 292.47 321.989 292.796C322.705 293.065 323.28 293.349 323.714 293.649C324.148 293.943 324.461 294.278 324.653 294.655C324.851 295.032 324.95 295.467 324.95 295.959C324.95 296.795 324.656 297.453 324.068 297.933C323.481 298.412 322.673 298.651 321.644 298.651Z" fill="#009245"/>
</g>
<defs>
<filter id="filter0_d_249_17236" x="0.250444" y="0.275391" width="354.556" height="340.182" filterUnits="userSpaceOnUse" color-interpolation-filters="sRGB">
<feFlood flood-opacity="0" result="BackgroundImageFix"/>
<feColorMatrix in="SourceAlpha" type="matrix" values="0 0 0 0 0 0 0 0 0 0 0 0 0 0 0 0 0 0 127 0" result="hardAlpha"/>
<feMorphology radius="2.87478" operator="erode" in="SourceAlpha" result="effect1_dropShadow_249_17236"/>
<feOffset dy="6.70782"/>
<feGaussianBlur stdDeviation="4.31217"/>
<feComposite in2="hardAlpha" operator="out"/>
<feColorMatrix type="matrix" values="0 0 0 0 1 0 0 0 0 0.572549 0 0 0 0 0.909804 0 0 0 0.15 0"/>
<feBlend mode="normal" in2="BackgroundImageFix" result="effect1_dropShadow_249_17236"/>
<feBlend mode="normal" in="SourceGraphic" in2="effect1_dropShadow_249_17236" result="shape"/>
</filter>
</defs>
</svg>
