<svg width="552" height="621" viewBox="0 0 552 621" fill="none" xmlns="http://www.w3.org/2000/svg">
<mask id="mask0_93_7268" style="mask-type:alpha" maskUnits="userSpaceOnUse" x="0" y="0" width="552" height="621">
<rect width="552" height="621" rx="29" fill="#D9D9D9"/>
</mask>
<g mask="url(#mask0_93_7268)">
<path d="M1 665.416L555.602 -33.2188H1V665.416Z" fill="#662D91"/>
<path d="M557.348 -37.0004L2.74603 661.635L557.348 661.635L557.348 -37.0004Z" fill="#FF92E8"/>
<path d="M181.539 508.908C181.539 508.908 191.244 502.869 191.244 514.089C191.244 525.31 185.051 526.175 181.539 523.563C178.027 520.952 181.539 508.908 181.539 508.908Z" fill="#304F9D"/>
<path d="M124.905 508.908C124.905 508.908 115.2 502.869 115.2 514.089C115.2 525.31 121.393 526.175 124.905 523.563C128.417 520.952 124.905 508.908 124.905 508.908Z" fill="#304F9D"/>
<path d="M146.033 556.763L138.134 575.717H167.908L162.439 554.631L147.054 556.722L146.033 556.763Z" fill="#304F9D"/>
<path d="M163.08 556.892C163.08 556.892 161.811 560.598 154.597 560.598C147.383 560.598 146.181 556.643 146.181 556.643C146.181 556.643 161.944 553.745 163.08 556.892Z" fill="#1B1464"/>
<path d="M167.351 475.699C161.685 473.408 155.377 473.261 149.61 475.286C139.525 478.666 122.708 487.704 123.26 510.371C124.04 542.694 127.178 553.775 151.494 557.467C175.81 561.159 182.092 534.381 182.872 518.684C183.544 505.229 184.821 482.951 167.351 475.699Z" fill="#304F9D"/>
<path d="M164.582 564.973C164.582 564.973 161.008 573.304 153.649 573.304C146.289 573.304 142.288 566.579 142.288 566.579L90.4959 589.373L84.2197 636.388L220.213 636.983L208.359 577.47L164.582 564.973Z" fill="#C1272D"/>
<path d="M145.377 511.921C145.377 511.921 143.336 507.886 139.26 508.555C135.184 509.225 134.513 513.255 134.513 513.255" fill="#09231E"/>
<path d="M174.346 513.652C174.346 513.652 173.8 508.93 169.82 508.181C165.84 507.431 163.885 511.204 163.885 511.204" fill="#09231E"/>
<path d="M160.263 539.712C160.263 539.712 150.537 542.338 143.565 539.052C136.592 535.767 134.513 533.146 134.513 533.146" stroke="#110A03" stroke-width="1.38005" stroke-miterlimit="10" stroke-linecap="round"/>
<path d="M154.832 529.169C158.72 529.169 161.873 527.209 161.873 524.792C161.873 522.375 158.72 520.416 154.832 520.416C150.943 520.416 147.791 522.375 147.791 524.792C147.791 527.209 150.943 529.169 154.832 529.169Z" fill="#EF98C0"/>
<path d="M364.864 423.238C364.864 423.238 381.061 413.159 381.061 431.885C381.061 450.611 370.725 452.054 364.864 447.696C359.003 443.338 364.864 423.238 364.864 423.238Z" fill="#C1272D"/>
<path d="M372.392 441.777C377.095 444.512 380.389 450.891 380.389 458.337C380.389 468.259 374.527 476.304 367.295 476.304C360.063 476.304 354.201 468.259 354.201 458.337C354.202 456.82 354.344 455.306 354.624 453.815" stroke="#FDCE34" stroke-width="4.07367" stroke-miterlimit="10"/>
<path d="M269.769 423.238C269.769 423.238 254.15 413.159 254.15 431.885C254.15 450.611 264.117 452.054 269.769 447.696C275.42 443.338 269.769 423.238 269.769 423.238Z" fill="#C1272D"/>
<path d="M262.148 441.777C257.444 444.512 254.15 450.891 254.15 458.337C254.15 468.259 260.012 476.304 267.244 476.304C274.476 476.304 280.338 468.259 280.338 458.337C280.337 456.82 280.196 455.306 279.915 453.815" stroke="#FDCE34" stroke-width="4.07367" stroke-miterlimit="10"/>
<path d="M305.43 503.101L292.425 534.733H341.443L332.44 499.543L307.11 503.033L305.43 503.101Z" fill="#C1272D"/>
<path d="M333.385 503.316C333.385 503.316 331.319 509.501 319.566 509.501C307.813 509.501 305.854 502.901 305.854 502.901C305.854 502.901 331.534 498.064 333.385 503.316Z" fill="#63151B"/>
<path d="M341.185 367.813C331.73 363.99 321.202 363.744 311.578 367.123C294.747 372.764 266.681 387.848 267.602 425.678C268.904 479.621 274.14 498.116 314.722 504.277C355.303 510.439 365.787 465.748 367.088 439.551C368.21 417.096 370.342 379.916 341.185 367.813Z" fill="#C1272D"/>
<path d="M335.893 516.807C335.893 516.807 329.928 530.712 317.645 530.712C305.363 530.712 298.685 519.488 298.685 519.488L212.249 557.528L201.774 635.992L428.736 636.986L408.952 537.664L335.893 516.807Z" fill="#662D91"/>
<path d="M313.283 431.865C313.665 430.68 314.428 429.648 315.46 428.922C316.492 428.196 317.736 427.814 319.008 427.835C320.279 427.855 321.51 428.277 322.517 429.036C323.523 429.795 324.251 430.851 324.593 432.047C324.593 432.138 324.645 432.23 324.665 432.321C327.043 441.607 332.973 463.657 323.471 463.657C313.969 463.657 309.212 464.812 309.212 453.205C309.181 445.936 311.507 437.298 313.283 431.865Z" fill="#662D91"/>
<path d="M304.512 428.264C304.512 428.264 301.106 421.529 294.303 422.647C287.501 423.764 286.382 430.489 286.382 430.489" fill="#09231E"/>
<path d="M352.859 431.151C352.859 431.151 351.948 423.271 345.306 422.02C338.663 420.769 335.4 427.066 335.4 427.066" fill="#09231E"/>
<path d="M328.685 474.644C328.685 474.644 312.96 479.027 301.687 473.544C290.414 468.061 287.053 463.688 287.053 463.688" stroke="#110A03" stroke-width="1.38005" stroke-miterlimit="10" stroke-linecap="round"/>
<path d="M473.699 489.492L469.54 526.944H509.049L495.533 487.18L473.699 489.492Z" fill="#D9E021"/>
<path d="M504.488 512.293C504.488 512.293 499.079 526.903 487.933 526.903C476.788 526.903 470.723 515.1 470.723 515.1L392.27 555.079L382.762 637.52L588.773 638.563L570.813 534.208L504.488 512.293Z" fill="#84C7AC"/>
<path d="M499.877 486.959C499.877 486.959 497.604 493.458 484.651 493.458C471.697 493.458 469.54 486.523 469.54 486.523C469.54 486.523 497.836 481.442 499.877 486.959Z" fill="#1B1464"/>
<path d="M537.045 355.175L542.772 422.342C543.17 426.96 542.731 431.611 541.475 436.076L535.706 456.536C534.144 462.069 531.365 467.191 527.569 471.535C523.773 475.879 519.054 479.339 513.75 481.665L500.716 487.346C495.855 489.475 490.608 490.604 485.293 490.665C479.978 490.726 474.706 489.717 469.797 487.701L460.306 483.785C454.664 481.47 449.645 477.884 445.649 473.312C441.652 468.739 438.788 463.306 437.284 457.445L429.818 428.389C428.221 422.144 428.221 415.604 429.818 409.359L441.64 362.517C443.488 355.056 447.54 348.309 453.279 343.139C459.017 337.969 466.182 334.611 473.857 333.493C477.698 332.94 481.594 332.856 485.457 333.242C505.409 335.331 534.936 334.287 537.045 355.175Z" fill="#D9E021"/>
<path d="M487.732 418.812H480.981C478.17 418.812 475.891 421.16 475.891 424.057V437.985C475.891 440.882 478.17 443.229 480.981 443.229H487.732C490.544 443.229 492.823 440.882 492.823 437.985V424.057C492.823 421.16 490.544 418.812 487.732 418.812Z" fill="#009245"/>
<path d="M466.719 416.765C466.719 416.765 462.613 408.524 454.413 409.896C446.213 411.268 444.848 419.509 444.848 419.509" fill="#09231E"/>
<path d="M525.982 420.207C525.982 420.207 524.791 410.749 516.212 409.243C507.634 407.737 503.405 415.299 503.405 415.299" fill="#09231E"/>
<path d="M539.076 445.322C547.917 430.298 554.808 414.244 559.589 397.535C566.844 371.177 555.159 351.335 555.159 351.335C555.159 351.335 549.848 374.31 541.35 374.31C532.852 374.31 561.533 335.671 553.035 320.006C553.035 320.006 547.16 336.183 543.198 331.222C539.236 326.262 550.198 306.911 535.157 301.449C535.157 301.449 538.163 316.873 523.291 312.696C508.42 308.519 530.727 299.12 530.727 292.855C530.727 286.589 523.291 278.234 523.291 278.234C523.291 278.234 526.882 294.087 518.182 299.214C509.482 304.342 496.735 305.386 497.797 312.696C497.797 312.696 496.023 303.193 502.226 297.032C508.43 290.87 493.728 285.868 493.728 285.868C493.728 285.868 496.023 297.084 489.479 303.872C482.936 310.66 471.24 314.785 473.365 320.006C473.365 320.006 469.466 311.85 475.67 296.604C481.873 281.357 462.742 275.102 462.742 275.102C462.742 275.102 459.555 301.209 448.933 315.829C438.31 330.449 429.812 360.734 432.999 371.177C432.999 371.177 425.276 363.428 432.319 342.762C439.362 322.095 428.07 321.876 428.07 321.876C428.07 321.876 422.376 364.911 418.127 382.664C413.878 400.417 428.048 419.403 428.048 419.403C432.629 415.643 436.375 410.998 439.054 405.756C441.733 400.514 443.287 394.787 443.621 388.93C444.684 369.088 460.968 360.818 469.296 370.133C477.624 379.448 462.742 378.487 462.742 378.487C462.742 378.487 482.213 390.945 487.886 371.668C493.558 352.39 516.811 369.788 514.793 378.487C512.775 387.186 522.718 391.144 525.66 390.037C528.603 388.93 534.264 407.602 532.501 424.373C530.738 441.145 539.076 445.322 539.076 445.322Z" fill="#662D91"/>
<path d="M499.878 465.903C499.878 465.903 483.356 470.508 471.512 464.747C459.667 458.985 456.136 454.391 456.136 454.391" stroke="#110A03" stroke-width="1.38005" stroke-miterlimit="10" stroke-linecap="round"/>
<path fill-rule="evenodd" clip-rule="evenodd" d="M222.724 219.06L213.995 263.87L151.144 302.861L146.198 328.467L167.439 322.647V346.507L146.198 339.815L151.144 372.404H129.612L133.686 339.815L114.481 346.507V328.467H129.612L122.919 302.861L71.1256 280.165L53.376 209.748L97.6044 143.988L174.713 139.332L218.651 185.015L222.724 219.06ZM197.409 194.909L167.439 162.61L109.825 166.393L78.3998 214.404L88.584 269.399L133.685 287.439L201.483 248.739L197.409 194.909Z" fill="#7696E8"/>
<path fill-rule="evenodd" clip-rule="evenodd" d="M381.889 42.4355L357.737 70.3693L375.778 140.786L329.804 203.637H253.859L201.774 136.421L223.015 61.349L270.735 28.7596L340.279 53.7836L371.413 28.7596L357.737 13.0469H403.13V61.349L381.889 42.4355ZM333.295 73.8607L267.535 52.9104L233.49 78.5163L219.524 135.839L260.26 189.087L325.439 181.231L354.537 135.839L333.295 73.8607Z" fill="#FF92E8"/>
</g>
</svg>
