<svg width="32" height="36" viewBox="0 0 32 36" fill="none" xmlns="http://www.w3.org/2000/svg">
<path d="M29.7731 13.6607C29.4554 14.2921 29.1027 14.9056 28.7166 15.4983C27.5068 17.1293 27.7805 18.7169 28.8753 20.2935C29.7935 21.5321 30.6467 22.8169 31.4317 24.1428C32.6306 26.3175 31.9135 27.6495 29.4611 27.7908C27.7312 27.8833 25.985 27.7365 24.2497 27.6767C23.5065 27.6033 22.7591 27.7659 22.1148 28.141C21.4705 28.5162 20.9626 29.0845 20.6641 29.7644C19.9251 31.2595 19.1751 32.7601 18.3212 34.1899C16.8596 36.6365 15.3925 36.5984 13.9418 34.1029C13.1645 32.7764 12.4419 31.4117 11.7522 30.0362C11.4312 29.2944 10.8722 28.6789 10.1623 28.2856C9.45236 27.8922 8.63137 27.7431 7.82722 27.8615C6.41489 27.9757 4.99709 28.0899 3.57928 28.1062C2.44613 28.1062 1.14329 28.2965 0.44807 27.1058C-0.186932 26.0184 0.420699 24.98 0.995484 24.0449C1.75092 22.7781 2.58846 21.5603 3.39316 20.3207C3.85822 19.656 4.09501 18.86 4.06839 18.051C4.04176 17.242 3.75313 16.4631 3.24536 15.8299C2.40781 14.6121 1.51553 13.4269 0.771044 12.1547C-0.772665 9.52326 0.0101375 8.12601 3.04282 8.07708C4.45515 8.04989 5.87842 8.15863 7.29623 8.25106C9.32166 8.38154 10.7887 7.62583 11.6755 5.74471C12.2887 4.40182 12.9127 3.05894 13.6517 1.78129C15.0367 -0.61089 16.6953 -0.589139 18.1077 1.81935C18.9178 3.20573 19.624 4.64647 20.3904 6.06003C20.7057 6.73475 21.2272 7.29347 21.8809 7.65661C22.5345 8.01975 23.2868 8.16879 24.0307 8.08252C25.6729 7.97378 27.255 7.87048 28.8698 7.8433C31.6945 7.78349 32.532 9.14813 31.2128 11.5838C30.8132 12.3178 30.3917 13.0354 29.9811 13.7585L29.7731 13.6607Z" fill="#FBB03B"/>
</svg>
