<svg width="552" height="244" viewBox="0 0 552 244" fill="none" xmlns="http://www.w3.org/2000/svg">
<mask id="mask0_258_17487" style="mask-type:alpha" maskUnits="userSpaceOnUse" x="0" y="0" width="552" height="243">
<mask id="mask1_258_17487" style="mask-type:alpha" maskUnits="userSpaceOnUse" x="0" y="0" width="552" height="243">
<rect width="552" height="243" rx="14" fill="#FFDAF7"/>
</mask>
<g mask="url(#mask1_258_17487)">
<rect width="552" height="243" rx="14" fill="#FFDAF7"/>
</g>
</mask>
<g mask="url(#mask0_258_17487)">
<mask id="mask2_258_17487" style="mask-type:alpha" maskUnits="userSpaceOnUse" x="0" y="0" width="552" height="243">
<rect width="552" height="243" rx="14" fill="#FFDFAE"/>
</mask>
<g mask="url(#mask2_258_17487)">
<rect width="552" height="243" rx="14" fill="#FFDFAE"/>
</g>
<path d="M434.901 142.406L436.158 169.838L406.244 167.944L414.661 140.479L434.901 142.406Z" fill="#F15A24"/>
<path d="M435.05 144.118C435.05 144.118 432.033 149.894 427.347 149.894C422.661 149.894 414 143.131 414 143.131L415.178 139.369L434.805 142.237L435.05 144.118Z" fill="#09231E"/>
<path d="M469.728 89.8768C468.601 89.1614 467.303 88.7598 465.969 88.7133L466.645 64.1298C466.685 62.717 466.427 61.3117 465.889 60.0051C465.35 58.6986 464.543 57.52 463.52 56.5459L449.868 43.5486C447.994 41.7634 445.506 40.7677 442.919 40.7676H400.783C399.285 40.7676 397.806 41.1016 396.452 41.7454C395.099 42.3891 393.906 43.3265 392.96 44.4894L386.117 52.9149C384.574 54.8238 383.775 57.2279 383.867 59.6818L385.128 91.5851C384.229 89.8768 381.921 87.1453 377.107 89.8768C370.825 93.4666 374.782 115.871 385.746 107.471L386.299 121.574C386.374 123.415 386.952 125.201 387.969 126.737C388.986 128.274 390.404 129.502 392.07 130.288L421.822 144.466C423.186 145.124 424.681 145.465 426.196 145.465C427.71 145.465 429.205 145.124 430.569 144.466L459.423 130.387C461.077 129.578 462.478 128.331 463.475 126.782C464.472 125.233 465.026 123.441 465.079 121.599L465.417 109.377C472.976 109.798 475.103 92.9632 469.728 89.8768Z" fill="#F15A24"/>
<path fill-rule="evenodd" clip-rule="evenodd" d="M386.097 107.241C386.097 107.241 386.246 57.5147 400.475 55.614C400.475 55.614 440.318 53.7215 451.704 56.5685C463.09 59.4154 465.659 103.564 465.659 103.564C465.659 103.564 477.318 59.4154 470.672 48.0193C464.026 36.6232 441.262 31.8589 427.987 32.8134C427.987 32.8134 420.396 22.3635 397.624 28.0657C374.852 33.7679 383.777 86.7313 386.097 107.241Z" fill="#0A0C35"/>
<path d="M421.791 97.9737C423.239 95.5208 429.869 95.5712 431.12 98.0493C431.143 98.0896 431.163 98.1318 431.18 98.1754C433.142 102.334 438.033 112.212 430.203 112.212C422.373 112.212 418.433 112.733 418.433 107.533C418.433 104.299 420.36 100.435 421.791 97.9737Z" fill="#FBB03B"/>
<path d="M414.554 87.6581C414.554 87.6581 411.751 82.0392 406.136 82.9716C400.521 83.904 399.598 89.5147 399.598 89.5147" fill="#09231E"/>
<path d="M454.993 90.6226C454.993 90.6226 454.205 84.0484 448.514 83.0044C442.823 81.9605 440.036 87.2147 440.036 87.2147" fill="#09231E"/>
<path d="M437.469 169.374L481.092 184.654L491 283.953H337L359.698 177.014L402.378 166.514H421.34L437.469 169.374Z" fill="#304F9D"/>
<path d="M438.979 159.867L421.756 165.641L427.497 178.148L442.806 169.491L438.979 159.867Z" fill="white"/>
<path d="M406.448 158.203L421.755 165.802L409.316 178.146L400.705 166.756L406.448 158.203Z" fill="white"/>
<path d="M385.629 102.189C385.629 102.189 391.759 107.125 407.16 113.657C422.56 120.189 432.235 118.023 434.011 117.855C435.788 117.687 443.174 117.964 450.221 110.299C457.269 102.634 464.903 102.81 465.217 98.9316C465.217 98.9316 474.611 130.305 452.303 137.021C429.996 143.738 432.722 147.641 426.402 148.212C420.081 148.783 403.557 137.819 394.469 136.14C385.381 134.461 381.746 117.771 385.629 102.189Z" fill="#0A0C35"/>
<path d="M437.819 127.871C437.819 127.871 424.428 131.913 414.82 126.856C405.212 121.8 402.366 117.768 402.366 117.768" stroke="white" stroke-width="2.37142" stroke-miterlimit="10" stroke-linecap="round"/>
</g>
<path d="M309.176 63.7366L151.824 69.176L147 19H309.176V63.7366Z" fill="#C49474"/>
<path d="M189.699 53.7027L189.579 35.3579L186.011 35.3991C185.807 35.4203 185.601 35.3892 185.413 35.3089C185.224 35.2286 185.06 35.1019 184.937 34.941C184.735 34.6364 184.642 34.2739 184.675 33.9116C184.695 33.5442 184.814 33.1888 185.021 32.8821C185.101 32.7493 185.214 32.6388 185.35 32.5613C185.485 32.4838 185.639 32.4418 185.796 32.4395H196.892C197.098 32.4559 197.297 32.523 197.47 32.6345C197.643 32.746 197.785 32.8984 197.882 33.0777C198.054 33.3927 198.111 33.7558 198.045 34.1072C197.97 34.4566 197.787 34.7748 197.521 35.0182C197.399 35.1461 197.244 35.2398 197.073 35.2895C196.901 35.3393 196.72 35.3434 196.546 35.3013L192.738 35.3373L192.78 53.6821L196.546 53.7233C196.719 53.6817 196.9 53.6854 197.071 53.7342C197.242 53.783 197.397 53.8751 197.521 54.0012C197.786 54.2475 197.969 54.567 198.045 54.9174C198.111 55.2687 198.054 55.6319 197.882 55.9469C197.79 56.1339 197.65 56.2948 197.477 56.4146C197.304 56.5343 197.103 56.6089 196.892 56.6315H185.796C185.629 56.6318 185.465 56.5874 185.322 56.5031C185.179 56.4187 185.062 56.2976 184.984 56.1528C184.777 55.8461 184.658 55.4906 184.638 55.1233C184.606 54.761 184.698 54.3984 184.9 54.0939C185.023 53.9322 185.187 53.8049 185.375 53.7245C185.564 53.6442 185.77 53.6136 185.974 53.6358L189.542 53.6718L189.699 53.7027Z" fill="#0A0C35"/>
<path d="M213.989 49.5953C214.046 49.3855 214.159 49.1955 214.315 49.0455C214.471 48.8956 214.664 48.7914 214.875 48.7443C215.258 48.6729 215.655 48.7457 215.989 48.949C216.343 49.1832 216.61 49.5274 216.752 49.9292C216.84 50.1546 216.876 50.3969 216.859 50.6384C216.841 50.8798 216.77 51.1142 216.651 51.3242C215.942 53.0624 214.832 54.6044 213.413 55.8215C212.159 56.9208 210.555 57.527 208.895 57.5289C207.658 57.5284 206.445 57.1836 205.39 56.5325C204.254 55.8309 203.271 54.9015 202.504 53.8018C201.638 52.5664 200.982 51.1939 200.563 49.7407C200.086 48.1058 199.851 46.409 199.864 44.7048C199.855 42.9938 200.091 41.2906 200.563 39.6473C200.984 38.1498 201.64 36.7298 202.504 35.4408C203.26 34.2975 204.243 33.3254 205.39 32.5862C206.436 31.9082 207.652 31.5474 208.895 31.5467C210.556 31.5112 212.186 32.007 213.552 32.9632C214.899 33.9076 215.957 35.4336 216.726 37.5414C216.831 37.6908 216.887 37.8697 216.887 38.053C216.887 38.2364 216.831 38.4152 216.726 38.5647C216.521 38.9161 216.214 39.1947 215.845 39.3618C215.467 39.5434 215.042 39.6018 214.629 39.5288C214.404 39.4845 214.193 39.3832 214.017 39.2344C213.84 39.0856 213.704 38.8941 213.621 38.6778C213.066 37.2631 212.392 36.2918 211.599 35.764C210.777 35.2289 209.815 34.9533 208.836 34.9722C207.996 34.9784 207.182 35.2706 206.526 35.8017C205.763 36.4145 205.125 37.1719 204.649 38.0315C204.081 39.0437 203.657 40.1316 203.39 41.2631C203.085 42.4816 202.933 43.7336 202.936 44.9902C202.929 46.2077 203.089 47.4202 203.411 48.5935C203.687 49.6358 204.127 50.6267 204.713 51.5289C205.21 52.2954 205.858 52.95 206.617 53.4517C207.421 53.9989 208.389 54.2447 209.354 54.1463C210.319 54.0479 211.219 53.6116 211.898 52.9131C212.843 51.9877 213.559 50.8513 213.989 49.5953Z" fill="#0A0C35"/>
<path d="M224.178 57.5289C223.901 57.526 223.624 57.4993 223.352 57.4493C223.067 57.4003 222.79 57.3109 222.531 57.1838C222.303 57.0721 222.094 56.9251 221.912 56.7484C221.83 56.6688 221.765 56.5729 221.722 56.4668C221.679 56.3608 221.658 56.2469 221.662 56.1326L221.374 33.7218C221.352 33.4264 221.392 33.1298 221.493 32.8509C221.593 32.572 221.75 32.3171 221.955 32.1024C222.339 31.7307 223.05 31.5449 224.087 31.5449L235.17 31.6299C235.378 31.6065 235.588 31.6378 235.78 31.7207C235.972 31.8036 236.138 31.9352 236.263 32.1024C236.475 32.4139 236.57 32.7901 236.53 33.1643C236.508 33.5421 236.389 33.908 236.183 34.2261C236.103 34.3684 235.986 34.4871 235.844 34.57C235.703 34.653 235.542 34.6974 235.378 34.6987L224.62 34.8208V42.5194L231.753 42.5565C231.961 42.5347 232.171 42.5668 232.362 42.6496C232.554 42.7324 232.72 42.8631 232.846 43.0291C233.051 43.3436 233.145 43.7173 233.113 44.0909C233.091 44.4696 232.97 44.8358 232.761 45.1528C232.68 45.2945 232.563 45.4123 232.421 45.4944C232.28 45.5764 232.119 45.6198 231.956 45.62L224.674 45.705L224.711 54.2902L235.261 54.3699C235.464 54.3527 235.669 54.387 235.855 54.4697C236.041 54.5523 236.204 54.6805 236.327 54.8424C236.533 55.1565 236.627 55.5305 236.594 55.9043C236.574 56.2832 236.452 56.6498 236.242 56.9661C236.162 57.1088 236.045 57.2277 235.903 57.3107C235.762 57.3937 235.601 57.4379 235.437 57.4387L224.178 57.5289Z" fill="#0A0C35"/>
<path d="M254.447 36.9066C254.525 37.0725 254.559 37.2565 254.546 37.4402C254.532 37.6239 254.472 37.8006 254.37 37.9526C254.164 38.2467 253.872 38.4665 253.537 38.5803C253.209 38.6986 252.856 38.7257 252.514 38.6587C252.354 38.632 252.206 38.5529 252.092 38.4332C251.979 38.3135 251.907 38.1597 251.886 37.9945C251.748 37.3149 251.457 36.6774 251.037 36.1326C250.698 35.7139 250.29 35.3598 249.831 35.0866C249.451 34.8615 249.036 34.7042 248.604 34.6211L247.735 34.4799C247.123 34.4211 246.505 34.4833 245.915 34.6629C245.403 34.8163 244.922 35.0626 244.494 35.3899C244.116 35.6748 243.794 36.0296 243.544 36.4359C243.319 36.8021 243.184 37.2183 243.15 37.6493C243.049 38.3736 243.16 39.1121 243.467 39.7727C243.772 40.3402 244.214 40.8189 244.75 41.1639C245.392 41.5802 246.078 41.9206 246.795 42.1786C247.571 42.4714 248.381 42.794 249.223 43.1461C250.04 43.4965 250.848 43.8836 251.656 44.302C252.427 44.6968 253.133 45.214 253.746 45.8344C254.35 46.4581 254.809 47.2123 255.091 48.0415C255.406 49.0454 255.493 50.1097 255.346 51.1534C255.253 52.3207 254.861 53.4424 254.211 54.4065C253.631 55.259 252.866 55.964 251.978 56.4672C251.082 56.9678 250.105 57.2975 249.095 57.44C248.074 57.587 247.036 57.5516 246.028 57.3354C244.714 57.0817 243.476 56.5215 242.409 55.6983C241.346 54.8893 240.597 53.7225 240.293 52.4034C240.273 52.1855 240.297 51.9659 240.362 51.7575C240.427 51.5491 240.532 51.3561 240.671 51.19C240.918 50.8878 241.239 50.6585 241.601 50.5258C241.919 50.4004 242.27 50.4004 242.588 50.5258C242.741 50.5805 242.876 50.6799 242.975 50.8119C243.074 50.9438 243.133 51.1025 243.145 51.2685C243.192 51.7182 243.338 52.1513 243.571 52.5359C243.803 52.9206 244.117 53.247 244.489 53.4912C245.259 54.0069 246.133 54.3377 247.045 54.4588C247.633 54.5504 248.231 54.5504 248.819 54.4588C249.38 54.3732 249.918 54.1741 250.403 53.873C250.877 53.5762 251.287 53.1849 251.61 52.7224C251.957 52.1964 252.179 51.5946 252.259 50.9651C252.373 50.3084 252.319 49.6324 252.1 49.0038C251.889 48.4506 251.55 47.9573 251.114 47.5656C250.626 47.1386 250.08 46.7863 249.493 46.5195C248.86 46.2266 248.19 45.9285 247.479 45.6304C246.58 45.28 245.68 44.9034 244.77 44.5007C243.898 44.1155 243.079 43.6124 242.337 43.0049C241.624 42.4064 241.052 41.6523 240.661 40.7978C240.231 39.7736 240.088 38.6474 240.247 37.5447C240.323 36.5775 240.62 35.6422 241.116 34.8146C241.575 34.0633 242.18 33.4169 242.894 32.9161C243.609 32.4132 244.405 32.0432 245.246 31.823C246.078 31.5933 246.941 31.505 247.801 31.5615C248.378 31.5999 248.949 31.7016 249.504 31.8648C250.175 32.0544 250.814 32.3471 251.4 32.733C252.069 33.1693 252.663 33.7153 253.158 34.3491C253.745 35.1089 254.182 35.9773 254.447 36.9066Z" fill="#0A0C35"/>
<path d="M264.038 53.7045L263.913 35.3715L260.344 35.4127C260.14 35.4338 259.934 35.4027 259.745 35.3225C259.557 35.2423 259.393 35.1156 259.269 34.9548C259.066 34.6505 258.974 34.2881 259.006 33.9261C259.026 33.559 259.146 33.2037 259.353 32.8973C259.431 32.7598 259.545 32.6451 259.684 32.5647C259.822 32.4843 259.979 32.4411 260.14 32.4395H271.258C271.465 32.4559 271.664 32.523 271.837 32.6344C272.011 32.7458 272.153 32.8981 272.25 33.0773C272.422 33.3921 272.48 33.755 272.413 34.1061C272.338 34.4553 272.154 34.7733 271.888 35.0166C271.766 35.1444 271.611 35.238 271.439 35.2877C271.268 35.3375 271.086 35.3415 270.912 35.2995L267.098 35.3355L267.139 53.6685L270.912 53.7097C271.085 53.6681 271.267 53.6719 271.438 53.7206C271.609 53.7694 271.765 53.8614 271.888 53.9875C272.154 54.2336 272.337 54.5529 272.413 54.9031C272.48 55.2542 272.422 55.6171 272.25 55.9319C272.159 56.1217 272.021 56.2856 271.847 56.4081C271.674 56.5305 271.471 56.6074 271.258 56.6315H260.14C259.979 56.6298 259.822 56.5866 259.684 56.5062C259.545 56.4258 259.431 56.3111 259.353 56.1736C259.146 55.8672 259.026 55.512 259.006 55.1448C258.974 54.7828 259.066 54.4204 259.269 54.1161C259.392 53.9545 259.556 53.8273 259.745 53.747C259.933 53.6667 260.14 53.6361 260.344 53.6582L263.913 53.6943L264.038 53.7045Z" fill="#0A0C35"/>
<path d="M289.307 242.999L293.943 64.6953L171.082 68.9281L160.439 242.999H289.307Z" fill="#B27A54"/>
<path d="M231.672 151.607C249.734 151.607 264.376 136.965 264.376 118.903C264.376 100.841 249.734 86.1992 231.672 86.1992C213.61 86.1992 198.968 100.841 198.968 118.903C198.968 136.965 213.61 151.607 231.672 151.607Z" stroke="#040423" stroke-width="4.61" stroke-miterlimit="10"/>
<path fill-rule="evenodd" clip-rule="evenodd" d="M234.418 100.537C233.362 100.428 232.299 100.381 231.237 100.395C230.176 100.357 229.114 100.405 228.061 100.537L227.952 99.02L229.394 98.8734L228.874 91.2901H226.744V89.2122C226.744 89.2122 227.103 88.8887 231.222 88.8887C235.34 88.8887 235.704 89.2122 235.704 89.2122V91.2901H233.585L233.065 98.8734L234.512 99.02L234.403 100.537H234.418Z" fill="#0A0C35"/>
<path fill-rule="evenodd" clip-rule="evenodd" d="M227.64 100.837C227.64 100.837 226.581 101.127 224.628 101.853C223.613 102.237 222.631 102.695 221.689 103.223L220.99 101.853L222.277 101.208L218.819 94.3341L216.802 95.1616L215.992 93.2223C215.992 93.2223 216.246 92.7857 220.106 91.1917C223.966 89.5976 224.442 89.7905 224.442 89.7905L225.252 91.7349L223.23 92.5624L225.766 99.827L227.164 99.3599L227.64 100.837Z" fill="#0A0C35"/>
<path fill-rule="evenodd" clip-rule="evenodd" d="M220.451 103.843C219.629 104.534 218.847 105.277 218.11 106.067C217.342 106.855 216.631 107.702 215.982 108.6L214.829 107.517L215.769 106.332L210.022 100.964L208.507 102.587L207.032 101.018C207.032 101.018 207.069 100.476 209.986 97.408C212.903 94.3394 213.376 94.2637 213.376 94.2637L214.85 95.8385L213.34 97.4621L218.38 103.599L219.501 102.603L220.472 103.87L220.451 103.843Z" fill="#0A0C35"/>
<path fill-rule="evenodd" clip-rule="evenodd" d="M215.992 108.916C215.471 109.852 215.016 110.822 214.627 111.819C214.191 112.808 213.831 113.828 213.553 114.873L212.116 114.391L212.55 112.96L205.32 110.461L204.493 112.483L202.555 111.674C202.555 111.674 202.411 111.197 203.992 107.299C205.573 103.401 205.966 103.225 205.966 103.225L207.899 104.033L207.113 106.055L213.925 109.507L214.622 108.186L215.987 108.916H215.992Z" fill="#0A0C35"/>
<path fill-rule="evenodd" clip-rule="evenodd" d="M213.304 116.201C213.19 117.252 213.131 118.307 213.128 119.364C213.111 120.422 213.17 121.481 213.304 122.532L211.8 122.638L211.655 121.201L204.05 121.709V123.831H201.982C201.982 123.831 201.656 123.471 201.656 119.369C201.656 115.267 201.982 114.871 201.982 114.871H204.05V117.034L211.655 117.541L211.8 116.1L213.304 116.211V116.201Z" fill="#0A0C35"/>
<path fill-rule="evenodd" clip-rule="evenodd" d="M213.59 123.832C213.862 124.851 214.208 125.849 214.625 126.818C214.991 127.841 215.448 128.828 215.992 129.768L214.625 130.465L213.942 129.175L207.12 132.64L207.907 134.632L205.971 135.48C205.971 135.48 205.573 135.22 203.994 131.349C202.415 127.479 202.555 127 202.555 127L204.496 126.189L205.309 128.238L212.555 125.71L212.12 124.311L213.595 123.832H213.59Z" fill="#0A0C35"/>
<path fill-rule="evenodd" clip-rule="evenodd" d="M216.025 130.104C216.674 130.982 217.366 131.826 218.098 132.63C218.827 133.439 219.621 134.181 220.472 134.848L219.467 136.111L218.347 135.118L213.33 141.25L214.838 142.869L213.366 144.44C213.366 144.44 212.848 144.402 209.981 141.304C207.115 138.205 207.032 137.709 207.032 137.709L208.504 136.138L210.018 137.757L215.776 132.403L214.838 131.215L216.025 130.136V130.104Z" fill="#0A0C35"/>
<path fill-rule="evenodd" clip-rule="evenodd" d="M221.697 135.48C222.619 135.985 223.575 136.43 224.558 136.812C225.554 137.25 226.584 137.611 227.64 137.89L227.111 139.334L225.716 138.902L223.22 146.141L225.24 146.97L224.394 148.917C224.394 148.917 223.918 149.06 220.063 147.473C216.209 145.887 215.992 145.491 215.992 145.491L216.796 143.549L218.816 144.377L222.263 137.494L220.946 136.812L221.681 135.48H221.697Z" fill="#0A0C35"/>
<path fill-rule="evenodd" clip-rule="evenodd" d="M228.082 138.168C229.115 138.281 230.154 138.34 231.193 138.345C232.252 138.386 233.313 138.327 234.361 138.168L234.506 139.712L233.029 139.818L233.547 147.411H235.704V149.527C235.704 149.527 235.31 149.816 231.203 149.816C227.097 149.816 226.744 149.527 226.744 149.527V147.411H228.886L229.404 139.818L227.968 139.712L228.108 138.168H228.082Z" fill="#0A0C35"/>
<path fill-rule="evenodd" clip-rule="evenodd" d="M235.704 137.863C236.743 137.59 237.762 137.251 238.754 136.847C239.758 136.469 240.729 136.012 241.655 135.48L242.407 136.847L241.083 137.497L244.525 144.356L246.542 143.528L247.352 145.474C247.352 145.474 247.13 145.906 243.238 147.506C239.347 149.106 238.902 148.913 238.902 148.913L238.092 146.967L240.114 146.175L237.642 138.879L236.207 139.347L235.731 137.873L235.704 137.863Z" fill="#0A0C35"/>
<path fill-rule="evenodd" clip-rule="evenodd" d="M241.977 134.859C242.799 134.169 243.58 133.428 244.318 132.641C245.086 131.85 245.797 131.002 246.446 130.104L247.599 131.185L246.659 132.376L252.426 137.742L253.937 136.119L255.417 137.693C255.417 137.693 255.38 138.234 252.463 141.296C249.545 144.358 249.073 144.44 249.073 144.44L247.599 142.871L249.109 141.248L244.069 135.113L242.958 136.125L241.987 134.859H241.977Z" fill="#0A0C35"/>
<path fill-rule="evenodd" clip-rule="evenodd" d="M247.352 129.763C247.856 128.816 248.312 127.844 248.719 126.852C249.161 125.881 249.508 124.87 249.755 123.832L251.231 124.31L250.801 125.708L258.053 128.214L258.882 126.187L260.788 126.997C260.788 126.997 260.928 127.476 259.385 131.343C257.841 135.21 257.354 135.48 257.354 135.48L255.417 134.674L256.24 132.647L249.408 129.18L248.729 130.511L247.352 129.763Z" fill="#0A0C35"/>
<path fill-rule="evenodd" clip-rule="evenodd" d="M250.04 122.531C250.04 122.531 250.18 121.446 250.216 119.351C250.233 118.288 250.175 117.225 250.04 116.171L251.545 116.064L251.689 117.511L259.294 117.002V114.871H261.362C261.362 114.871 261.688 115.233 261.688 119.351C261.688 123.469 261.362 123.831 261.362 123.831H259.294V121.696L251.689 121.186L251.545 122.618L250.04 122.511V122.531Z" fill="#0A0C35"/>
<path fill-rule="evenodd" clip-rule="evenodd" d="M249.76 114.857C249.76 114.857 249.475 113.795 248.722 111.848C248.336 110.838 247.878 109.856 247.352 108.911L248.722 108.212L249.366 109.533L256.248 106.084L255.423 104.069L257.364 103.225C257.364 103.225 257.8 103.478 259.347 107.332C260.894 111.185 260.79 111.667 260.79 111.667L258.844 112.485L258.013 110.47L250.772 113.003L251.203 114.396L249.76 114.873V114.857Z" fill="#0A0C35"/>
<path fill-rule="evenodd" clip-rule="evenodd" d="M246.431 108.6C245.782 107.721 245.088 106.878 244.354 106.075C243.617 105.273 242.822 104.53 241.977 103.853L242.947 102.588L244.063 103.583L249.109 97.4531L247.599 95.8313L249.073 94.2637C249.073 94.2637 249.592 94.3015 252.463 97.4044C255.334 100.507 255.417 101.005 255.417 101.005L253.937 102.578L252.426 100.956L246.659 106.318L247.599 107.508L246.41 108.589L246.431 108.6Z" fill="#0A0C35"/>
<path fill-rule="evenodd" clip-rule="evenodd" d="M241.66 103.223C240.716 102.721 239.746 102.264 238.754 101.856C237.775 101.414 236.754 101.065 235.704 100.813L236.181 99.3696L237.615 99.8018L240.114 92.5623L238.092 91.7336L238.902 89.7865C238.902 89.7865 239.379 89.6441 243.238 91.2303C247.098 92.8165 247.352 93.208 247.352 93.208L246.542 95.1398L244.525 94.3112L241.067 101.195L242.354 101.84L241.66 103.208V103.223Z" fill="#0A0C35"/>
<path fill-rule="evenodd" clip-rule="evenodd" d="M223.16 111.558C222.756 112.06 222.384 112.591 222.048 113.146C221.688 113.691 221.376 114.268 221.115 114.873L220.322 114.385L220.736 113.597L216.826 111.161L216.133 112.283L215.096 111.532C215.096 111.532 215.096 111.235 216.407 109.059C217.719 106.883 218.038 106.809 218.038 106.809L219.035 107.555L218.342 108.683L221.908 111.648L222.462 110.933L223.155 111.532L223.16 111.558Z" fill="#0A0C35"/>
<path fill-rule="evenodd" clip-rule="evenodd" d="M220.448 115.342C220.265 115.993 220.12 116.656 220.011 117.328C219.884 117.994 219.807 118.671 219.781 119.352L218.914 119.239L218.981 118.321L214.723 117.673L214.488 119.05L213.323 118.78C213.323 118.78 213.189 118.478 213.625 115.876C214.062 113.274 214.292 113.08 214.292 113.08L215.476 113.291L215.246 114.667L219.441 115.968L219.637 115.05L220.472 115.32L220.448 115.342Z" fill="#0A0C35"/>
<path fill-rule="evenodd" clip-rule="evenodd" d="M220.582 119.352C220.639 120.032 220.738 120.708 220.878 121.376C220.976 122.054 221.14 122.721 221.369 123.367L220.431 123.637L220.172 122.757L215.495 124.015L215.759 125.359L214.444 125.624C214.444 125.624 214.223 125.435 213.701 122.871C213.178 120.307 213.323 119.961 213.323 119.961L214.633 119.697L214.897 121.073L219.72 120.42L219.607 119.465L220.582 119.352Z" fill="#0A0C35"/>
<path fill-rule="evenodd" clip-rule="evenodd" d="M221.084 123.832C221.37 124.413 221.683 124.978 222.024 125.524C222.369 126.095 222.748 126.64 223.16 127.158L222.429 127.758L221.929 127.047L218.352 130.013L219.048 131.143L218.047 131.896C218.047 131.896 217.772 131.816 216.416 129.641C215.061 127.466 215.096 127.158 215.096 127.158L216.141 126.405L216.832 127.535L220.724 125.127L220.308 124.299L221.104 123.848L221.084 123.832Z" fill="#0A0C35"/>
<path fill-rule="evenodd" clip-rule="evenodd" d="M223.4 127.416C223.4 127.416 223.94 127.878 225.021 128.643C225.561 129.045 226.138 129.395 226.744 129.686L226.295 130.571L225.469 130.109L223.033 134.454L224.194 135.219L223.444 136.376C223.444 136.376 223.146 136.414 220.97 134.91C218.793 133.406 218.68 133.101 218.68 133.101L219.43 132.015L220.559 132.787L223.519 128.822L222.806 128.203L223.406 127.438L223.4 127.416Z" fill="#0A0C35"/>
<path fill-rule="evenodd" clip-rule="evenodd" d="M227.231 130.104C227.878 130.308 228.539 130.472 229.208 130.594C229.868 130.761 230.543 130.86 231.224 130.89L231.109 131.861L230.156 131.75L229.548 136.58L230.879 136.839L230.616 138.148C230.616 138.148 230.348 138.296 227.762 137.773C225.177 137.251 224.952 137.024 224.952 137.024L225.215 135.715L226.585 135.979L227.839 131.302L226.962 131.038L227.231 130.104Z" fill="#0A0C35"/>
<path fill-rule="evenodd" clip-rule="evenodd" d="M232.12 130.896C232.7 130.843 233.277 130.754 233.848 130.632C234.426 130.514 234.993 130.337 235.543 130.104L235.768 131.039L234.989 131.303L236.097 136.022L237.271 135.758L237.496 137.031C237.496 137.031 237.299 137.295 235.083 137.781C232.867 138.268 232.641 138.157 232.641 138.157L232.411 136.846L233.552 136.587L232.998 131.752L232.219 131.863L232.12 130.891V130.896Z" fill="#0A0C35"/>
<path fill-rule="evenodd" clip-rule="evenodd" d="M235.704 129.729C235.704 129.729 236.303 129.419 237.426 128.69C238.002 128.314 238.544 127.888 239.045 127.416L239.65 128.227L238.937 128.804L241.895 132.778L243.018 132.005L243.768 133.094C243.768 133.094 243.693 133.404 241.523 134.906C239.353 136.409 239.045 136.376 239.045 136.376L238.3 135.216L239.423 134.449L236.989 130.127L236.163 130.59L235.715 129.702L235.704 129.729Z" fill="#0A0C35"/>
<path fill-rule="evenodd" clip-rule="evenodd" d="M239.288 127.149C239.288 127.149 239.748 126.617 240.518 125.528C240.925 124.999 241.272 124.431 241.554 123.832L242.441 124.284L241.981 125.113L246.325 127.526L247.096 126.394L248.248 127.112C248.248 127.112 248.248 127.452 246.785 129.594C245.322 131.737 244.979 131.896 244.979 131.896L243.871 131.141L244.635 130.009L240.679 127.037L240.064 127.75L239.288 127.149Z" fill="#0A0C35"/>
<path fill-rule="evenodd" clip-rule="evenodd" d="M241.977 123.405C242.174 122.75 242.336 122.086 242.462 121.413C242.607 120.733 242.708 120.045 242.765 119.352L243.698 119.465L243.623 120.42L248.453 121.073L248.718 119.697L250.029 119.961C250.029 119.961 250.142 120.231 249.657 122.871C249.171 125.51 248.906 125.624 248.906 125.624L247.595 125.354L247.859 124.053L243.175 122.757L242.91 123.675L241.977 123.405Z" fill="#0A0C35"/>
<path fill-rule="evenodd" clip-rule="evenodd" d="M242.763 119.341C242.704 118.665 242.604 117.993 242.461 117.329C242.366 116.658 242.203 115.999 241.976 115.36L242.908 115.092L243.172 115.965L247.852 114.712L247.588 113.348L248.898 113.08C248.898 113.08 249.124 113.273 249.647 115.847C250.17 118.421 250.019 118.731 250.019 118.731L248.709 118.999L248.461 117.645L243.636 118.287L243.749 119.234L242.779 119.352L242.763 119.341Z" fill="#0A0C35"/>
<path fill-rule="evenodd" clip-rule="evenodd" d="M241.597 114.857C241.597 114.857 241.292 114.259 240.559 113.132C240.186 112.559 239.76 112.019 239.288 111.518L240.099 110.92L240.654 111.634L244.623 108.687L243.857 107.56L245.012 106.809C245.012 106.809 245.322 106.888 246.783 109.063C248.243 111.237 248.248 111.534 248.248 111.534L247.138 112.285L246.327 111.158L242.008 113.597L242.475 114.386L241.586 114.873L241.597 114.857Z" fill="#0A0C35"/>
<path fill-rule="evenodd" clip-rule="evenodd" d="M239.05 111.288C239.05 111.288 238.509 110.827 237.428 110.055C236.887 109.656 236.31 109.309 235.704 109.018L236.191 108.133L236.98 108.595L239.417 104.25L238.293 103.485L239.039 102.328C239.039 102.328 239.342 102.328 241.52 103.789C243.698 105.25 243.768 105.597 243.768 105.597L243.038 106.71L241.914 105.939L238.952 109.903L239.666 110.522L239.06 111.288H239.05Z" fill="#0A0C35"/>
<path fill-rule="evenodd" clip-rule="evenodd" d="M235.543 108.599C234.997 108.391 234.443 108.215 233.881 108.072C233.302 107.924 232.713 107.836 232.12 107.808L232.219 106.837L233.031 106.948L233.585 102.126L232.416 101.863L232.641 100.554C232.641 100.554 232.871 100.407 235.087 100.929C237.304 101.451 237.496 101.641 237.496 101.641L237.271 102.949L236.097 102.686L235.022 107.396L235.768 107.655L235.543 108.594V108.599Z" fill="#0A0C35"/>
<path fill-rule="evenodd" clip-rule="evenodd" d="M231.224 107.809C230.548 107.859 229.875 107.947 229.208 108.072C228.534 108.19 227.872 108.367 227.231 108.599L226.924 107.666L227.839 107.403L226.546 102.696L225.215 102.96L224.952 101.653C224.952 101.653 225.138 101.426 227.724 100.904C230.309 100.382 230.616 100.567 230.616 100.567L230.879 101.874L229.51 102.137L230.156 106.918L231.109 106.844L231.224 107.814V107.809Z" fill="#0A0C35"/>
<path fill-rule="evenodd" clip-rule="evenodd" d="M226.744 108.982C226.744 108.982 226.144 109.291 225.021 110.024C224.453 110.408 223.912 110.831 223.4 111.288L222.801 110.485L223.514 109.904L220.554 105.943L219.43 106.713L218.68 105.563C218.68 105.563 218.793 105.291 220.927 103.793C223.06 102.296 223.438 102.328 223.438 102.328L224.151 103.484L223.028 104.255L225.464 108.558L226.29 108.097L226.738 108.982H226.744Z" fill="#0A0C35"/>
<path fill-rule="evenodd" clip-rule="evenodd" d="M225.848 115.288C225.628 115.637 225.444 116.004 225.296 116.387C225.111 116.761 224.971 117.155 224.877 117.56L224.298 117.368L224.453 116.835L221.586 115.891L221.239 116.648L220.472 116.344C220.472 116.344 220.434 116.152 221.024 114.68C221.613 113.208 221.828 113.08 221.828 113.08L222.595 113.384L222.253 114.179L225.01 115.501L225.28 114.968L225.831 115.267L225.848 115.288Z" fill="#0A0C35"/>
<path fill-rule="evenodd" clip-rule="evenodd" d="M224.916 118.099C224.916 118.099 224.879 118.523 224.879 119.334C224.846 119.759 224.871 120.187 224.953 120.606L224.36 120.682L224.286 120.068L221.388 120.296V121.145H220.584C220.584 121.145 220.473 120.992 220.473 119.372C220.473 117.751 220.584 117.561 220.584 117.561H221.388V118.393L224.286 118.588L224.329 118.007L224.916 118.083V118.099Z" fill="#0A0C35"/>
<path fill-rule="evenodd" clip-rule="evenodd" d="M224.87 121.166C224.968 121.565 225.11 121.954 225.296 122.324C225.451 122.712 225.635 123.089 225.849 123.451L225.296 123.715L225.025 123.228L222.26 124.54L222.603 125.286L221.834 125.625C221.834 125.625 221.641 125.513 221.027 124.038C220.413 122.562 220.474 122.388 220.474 122.388L221.243 122.049L221.586 122.837L224.466 121.859L224.273 121.33L224.887 121.145L224.87 121.166Z" fill="#0A0C35"/>
<path fill-rule="evenodd" clip-rule="evenodd" d="M225.824 123.832C226.089 124.102 226.373 124.36 226.673 124.605C226.96 124.872 227.284 125.11 227.64 125.315L227.212 125.701L226.79 125.41L224.746 127.311L225.363 127.794L224.807 128.312C224.807 128.312 224.619 128.28 223.419 127.311C222.219 126.343 222.264 126.183 222.264 126.183L222.819 125.701L223.436 126.183L225.751 124.542L225.363 124.155L225.824 123.832Z" fill="#0A0C35"/>
<path fill-rule="evenodd" clip-rule="evenodd" d="M228.017 125.623C228.017 125.623 228.398 125.787 229.156 126.041C229.529 126.196 229.922 126.315 230.328 126.396L230.137 126.878L229.592 126.751L228.644 129.17L229.439 129.457L229.101 130.103C229.101 130.103 228.911 130.134 227.434 129.621C225.957 129.107 225.848 128.943 225.848 128.943L226.186 128.297L226.943 128.588L228.268 126.269L227.777 126.041L228.039 125.623H228.017Z" fill="#0A0C35"/>
<path fill-rule="evenodd" clip-rule="evenodd" d="M229.909 126.52C230.329 126.577 230.754 126.603 231.179 126.597C231.604 126.606 232.029 126.58 232.45 126.52L232.489 127.11L231.934 127.146L232.167 130.083L233.016 130.047V130.855C233.016 130.855 232.86 131 231.201 131C229.543 131 229.432 130.855 229.432 130.855V130.083H230.28L230.475 127.146L229.892 127.11L229.931 126.52H229.909Z" fill="#0A0C35"/>
<path fill-rule="evenodd" clip-rule="evenodd" d="M233.032 126.396C233.434 126.315 233.823 126.196 234.194 126.041C234.945 125.787 235.318 125.623 235.318 125.623L235.583 126.041L235.096 126.269L236.409 128.588L237.155 128.297L237.496 128.943C237.496 128.943 237.382 129.107 235.923 129.621C234.464 130.134 234.269 130.103 234.269 130.103L233.929 129.457L234.718 129.17L233.745 126.751L233.205 126.915L233.016 126.396H233.032Z" fill="#0A0C35"/>
<path fill-rule="evenodd" clip-rule="evenodd" d="M235.704 125.315C235.704 125.315 235.996 125.087 236.509 124.605C236.758 124.36 236.992 124.102 237.213 123.832L237.602 124.155L237.278 124.542L239.203 126.183L239.721 125.67L240.184 126.183C240.184 126.183 240.184 126.343 239.217 127.311C238.25 128.28 238.092 128.312 238.092 128.312L237.583 127.794L238.092 127.28L236.412 125.41L236.056 125.67L235.704 125.315Z" fill="#0A0C35"/>
<path fill-rule="evenodd" clip-rule="evenodd" d="M237.514 123.435C237.686 123.082 237.84 122.717 237.974 122.343C238.129 121.96 238.246 121.558 238.323 121.145L238.783 121.33L238.659 121.892L241.052 122.836L241.337 122.083L241.976 122.385C241.976 122.385 242.003 122.571 241.493 124.034C240.983 125.497 240.827 125.625 240.827 125.625L240.189 125.322L240.473 124.538L238.176 123.223L237.956 123.711L237.496 123.446L237.514 123.435Z" fill="#0A0C35"/>
<path fill-rule="evenodd" clip-rule="evenodd" d="M238.393 120.606C238.449 120.197 238.474 119.784 238.467 119.372C238.475 118.946 238.45 118.52 238.393 118.099L238.98 118.023L239.017 118.599L241.952 118.409V117.561H242.762C242.762 117.561 242.873 117.713 242.873 119.334C242.873 120.954 242.762 121.145 242.762 121.145H241.952V120.296L239.017 120.068L238.98 120.644L238.393 120.606Z" fill="#0A0C35"/>
<path fill-rule="evenodd" clip-rule="evenodd" d="M238.311 117.539C238.311 117.539 238.213 117.131 237.959 116.379C237.826 116.004 237.671 115.64 237.496 115.288L237.959 114.992L238.181 115.521L240.463 114.171L240.176 113.419L240.819 113.08C240.819 113.08 240.976 113.191 241.49 114.669C242.004 116.146 241.976 116.316 241.976 116.316L241.333 116.655L241.046 115.866L238.635 116.845L238.797 117.375L238.334 117.56L238.311 117.539Z" fill="#0A0C35"/>
<path fill-rule="evenodd" clip-rule="evenodd" d="M237.19 114.873C237.19 114.873 236.961 114.614 236.482 114.096C236.236 113.847 235.976 113.612 235.704 113.391L236.025 113.001L236.384 113.323L238.093 111.392L237.581 110.874L238.047 110.393C238.047 110.393 238.21 110.393 239.211 111.356C240.212 112.319 240.184 112.483 240.184 112.483L239.718 112.996L239.197 112.483L237.259 114.191L237.585 114.541L237.194 114.868L237.19 114.873Z" fill="#0A0C35"/>
<path fill-rule="evenodd" clip-rule="evenodd" d="M235.277 113.08C234.932 112.902 234.567 112.751 234.187 112.628C233.814 112.476 233.421 112.358 233.016 112.277L233.206 111.798L233.751 111.925L234.694 109.525L233.937 109.241L234.242 108.6C234.242 108.6 234.433 108.568 235.904 109.078C237.376 109.588 237.496 109.75 237.496 109.75L237.19 110.391L236.4 110.102L235.076 112.403L235.621 112.628L235.316 113.08H235.277Z" fill="#0A0C35"/>
<path fill-rule="evenodd" clip-rule="evenodd" d="M232.472 112.183C232.472 112.183 232.05 112.141 231.24 112.11C230.815 112.102 230.391 112.127 229.97 112.183L229.892 111.588L230.447 111.551L230.258 108.627H229.432V107.813C229.432 107.813 229.587 107.703 231.201 107.703C232.816 107.703 233.016 107.813 233.016 107.813V108.591L232.167 108.627L231.934 111.551L232.55 111.588L232.472 112.183Z" fill="#0A0C35"/>
<path fill-rule="evenodd" clip-rule="evenodd" d="M230.29 112.25C229.891 112.349 229.5 112.466 229.118 112.601C228.741 112.739 228.377 112.899 228.028 113.08L227.722 112.629L228.268 112.403L226.905 110.102L226.153 110.391L225.848 109.75C225.848 109.75 225.924 109.593 227.395 109.078C228.867 108.564 229.063 108.6 229.063 108.6L229.407 109.241L228.605 109.525L229.592 111.925L230.137 111.767L230.328 112.245L230.29 112.25Z" fill="#0A0C35"/>
<path fill-rule="evenodd" clip-rule="evenodd" d="M227.618 113.964C227.294 114.225 226.987 114.506 226.699 114.804C226.376 115.089 226.092 115.413 225.853 115.769L225.35 115.346L225.737 114.923L223.431 112.923L222.878 113.503L222.264 112.923C222.264 112.923 222.302 112.734 223.453 111.579C224.603 110.425 224.797 110.393 224.797 110.393L225.35 110.967L224.797 111.579L226.793 113.883L227.258 113.503L227.64 113.964H227.618Z" fill="#0A0C35"/>
<path d="M36.0101 108.698C37.0211 103.279 34.5804 98.3974 30.4678 93.7368C23.2438 85.5994 23.1812 82.366 30.242 74.3422C34.7648 69.204 36.2313 63.748 35.6896 57.0338C34.8429 46.4518 36.413 44.256 46.79 41.8251C53.4658 40.2648 57.9464 36.9467 61.3622 31.0582C66.5062 22.2287 69.309 21.2694 78.6666 25.0356C85.1324 27.6441 90.9774 27.9633 97.5765 25.1045C107.363 20.8712 110.267 21.7718 115.592 30.7744C119.418 37.2433 124.845 40.1294 131.767 41.8011C140.692 43.9533 142.792 46.713 141.689 55.7047C140.825 62.7802 142.699 68.2881 147.414 73.5739C154.467 81.4756 154.467 84.5538 147.725 92.4063C143.169 97.7139 141.07 103.174 142.118 110.325C143.43 119.334 140.903 122.903 131.917 124.824C124.398 126.43 119.186 130.173 115.77 136.961C112.353 143.749 106.885 145.816 99.9987 142.439C92.6558 138.869 85.6905 138.855 78.3627 142.584C71.9435 145.895 66.3836 144.471 63.0401 137.857C59.3451 130.555 53.6402 126.798 45.5828 125.215C36.9262 123.528 35.752 120.877 36.0101 108.698Z" fill="#0A0C35"/>
<path d="M121.071 96.8931C121.071 96.8931 131.951 89.9427 132.037 102.719C132.123 115.495 125.157 116.526 121.183 113.58C117.209 110.633 121.071 96.8931 121.071 96.8931Z" fill="#662D91"/>
<path d="M57.3072 97.3235C57.3072 97.3235 46.3343 90.5202 46.4203 103.296C46.5063 116.072 53.4855 117.01 57.4195 114.01C61.3535 111.01 57.3072 97.3235 57.3072 97.3235Z" fill="#662D91"/>
<path d="M81.7946 151.648L73.1665 173.288L106.235 173.066L99.9999 149.098L82.9281 151.594L81.7946 151.648Z" fill="#662D91"/>
<path d="M100.655 151.668C100.655 151.668 99.2555 155.897 91.1335 155.952C83.0115 156.007 81.6275 151.513 81.6275 151.513C81.6275 151.513 99.352 148.094 100.655 151.668Z" fill="#63151B"/>
<path d="M104.842 59.1872C98.445 56.6215 91.3418 56.5019 84.8647 58.8508C73.5358 62.7761 54.6714 73.1945 55.4666 98.9997C56.5924 135.797 60.21 148.391 87.6154 152.411C115.021 156.43 121.888 125.892 122.646 108.013C123.299 92.6877 124.567 67.3122 104.842 59.1872Z" fill="#662D91"/>
<path d="M102.409 160.86C102.409 160.86 98.4484 170.374 90.1626 170.429C81.8769 170.485 77.32 162.858 77.32 162.858L19.1829 189.204L12.477 242.784L165.595 242.431L151.792 174.758L102.409 160.86Z" fill="#EF98C0"/>
<path d="M78.5796 102.421C78.5796 102.421 76.2508 97.842 71.6668 98.6354C67.0828 99.4287 66.3589 104.022 66.3589 104.022" fill="#09231E"/>
<path d="M111.208 104.173C111.208 104.173 110.558 98.8009 106.071 97.9774C101.584 97.1539 99.4116 101.465 99.4116 101.465" fill="#09231E"/>
<path d="M98.7111 132.118C98.7111 132.118 87.7806 135.182 79.9052 131.494C72.0297 127.806 69.6689 124.838 69.6689 124.838" stroke="#110A03" stroke-width="2.37142" stroke-miterlimit="10" stroke-linecap="round"/>
<path d="M124.773 114.043C124.868 113.533 125.14 113.073 125.539 112.74C125.939 112.408 126.443 112.224 126.964 112.221C127.486 112.217 127.992 112.394 128.396 112.721C128.8 113.048 129.078 113.505 129.18 114.013C130.685 121.735 133.639 133.781 138.467 141.527C146.054 153.685 123.599 162.727 123.867 152.857C124.083 145.388 122.761 125.301 124.773 114.043Z" fill="#FDCE34"/>
<path d="M53.4168 114.534C53.3207 114.024 53.053 113.565 52.6601 113.235C52.2671 112.906 51.7738 112.727 51.2657 112.73C50.7575 112.734 50.2667 112.919 49.8783 113.254C49.4898 113.589 49.2283 114.052 49.1391 114.563C47.7718 122.302 45.0675 134.383 40.4708 142.191C33.2576 154.445 55.2034 163.186 54.812 153.323C54.5097 145.86 55.5219 125.762 53.4168 114.534Z" fill="#FDCE34"/>
<path d="M91.1411 117.897C95.5194 117.867 99.0529 115.511 99.0336 112.634C99.0142 109.757 95.4492 107.448 91.071 107.478C86.6928 107.507 83.1593 109.864 83.1786 112.741C83.198 115.618 86.7629 117.926 91.1411 117.897Z" fill="#EF98C0"/>
<path d="M122.981 104.999C122.981 104.999 115.397 103.5 117.361 93.3318C117.361 93.3318 110.56 89.3156 112.565 85.2401C112.565 85.2401 105.337 85.0924 105.527 79.0997C105.527 79.0997 101.719 83.9591 94.236 79.2705C94.236 79.2705 90.8812 84.032 85.4488 82.0376C85.4488 82.0376 81.4426 90.6421 72.2877 86.0799C72.2877 86.0799 70.6431 96.3542 63.1742 93.6965C63.1742 93.6965 60.0747 101.164 55.5182 95.4405C50.9616 89.7167 45.568 94.492 44.8086 82.3112C44.8086 82.3112 33.2347 73.5881 42.6445 62.6929C42.6445 62.6929 38.8884 45.0621 52.5572 43.9817C52.5572 43.9817 62.984 28.1917 78.1722 38.5016C78.1722 38.5016 86.4691 24.2898 102.431 34.7774C102.431 34.7774 121.647 25.6034 127.857 42.4865C127.857 42.4865 141.219 53.2285 133.288 63.4368C133.288 63.4368 136.774 78.1041 125.675 80.6498C125.675 80.6498 130.035 84.2966 125.748 91.4813C125.721 91.5085 127.782 99.7472 122.981 104.999Z" fill="#0A0C35"/>
</svg>
