<svg width="38" height="39" viewBox="0 0 38 39" fill="none" xmlns="http://www.w3.org/2000/svg">
<path d="M19 0.220825C8.50759 0.220825 0 8.72841 0 19.2208C0 29.7132 8.50759 38.2208 19 38.2208C29.4924 38.2208 38 29.7132 38 19.2208C38 8.72841 29.4924 0.220825 19 0.220825ZM28.131 14.5429C28.1437 14.7423 28.1437 14.9501 28.1437 15.1536C28.1437 21.3795 23.4022 28.5512 14.7377 28.5512C12.0658 28.5512 9.58906 27.7751 7.50245 26.4391C7.88415 26.4815 8.24888 26.4985 8.63906 26.4985C10.8444 26.4985 12.8717 25.7521 14.4875 24.4882C12.4179 24.4458 10.679 23.0887 10.0853 21.2226C10.8105 21.3286 11.4636 21.3286 12.21 21.1378C11.1444 20.9213 10.1865 20.3425 9.49922 19.4998C8.81192 18.6571 8.43755 17.6025 8.43973 16.515V16.4556C9.06317 16.8077 9.79688 17.0239 10.5645 17.0536C9.9192 16.6236 9.38998 16.0409 9.02378 15.3573C8.65757 14.6738 8.4657 13.9104 8.46518 13.1349C8.46518 12.257 8.6942 11.4554 9.10558 10.7599C10.2884 12.216 11.7644 13.4069 13.4377 14.2552C15.1109 15.1035 16.944 15.5903 18.8176 15.6838C18.1518 12.4818 20.5437 9.89047 23.4192 9.89047C24.7763 9.89047 25.9978 10.4588 26.8587 11.3748C27.9232 11.1755 28.9411 10.7769 29.8487 10.2425C29.4967 11.3324 28.7587 12.2527 27.779 12.8338C28.729 12.732 29.6451 12.469 30.4933 12.1001C29.8529 13.0416 29.0513 13.8771 28.131 14.5429Z" fill="#304F9D"/>
</svg>
