<svg width="355" height="341" viewBox="0 0 355 341" fill="none" xmlns="http://www.w3.org/2000/svg">
<g filter="url(#filter0_d_249_17230)">
<mask id="mask0_249_17230" style="mask-type:alpha" maskUnits="userSpaceOnUse" x="6" y="0" width="344" height="329">
<path d="M6 22.5927C6 10.4204 15.8676 0.552734 28.04 0.552734H327.017C339.189 0.552734 349.057 10.4204 349.057 22.5927V306.237C349.057 318.41 339.189 328.277 327.017 328.277H28.04C15.8677 328.277 6 318.41 6 306.237V22.5927Z" fill="#D9D9D9"/>
</mask>
<g mask="url(#mask0_249_17230)">
<path d="M373.661 -9.03027H-1.3551V272.536H373.661V-9.03027Z" fill="#1B6AB2"/>
<path d="M192.179 151.229L193.274 174.926L167.166 173.292L174.504 149.563L192.179 151.229Z" fill="#84C7AC"/>
<path d="M192.235 152.402C192.235 152.402 189.605 157.341 185.525 157.341C181.445 157.341 173.889 151.56 173.889 151.56L174.915 148.342L192.049 150.793L192.235 152.402Z" fill="#09231E"/>
<path d="M222.348 105.798C221.372 105.178 220.25 104.83 219.096 104.788L219.68 83.5033C219.715 82.2792 219.493 81.0613 219.028 79.9289C218.563 78.7965 217.866 77.7749 216.981 76.9303L205.165 65.6615C203.544 64.1114 201.39 63.247 199.151 63.248H162.744C161.448 63.2483 160.169 63.5384 159 64.0972C157.83 64.6561 156.8 65.4696 155.984 66.4784L150.082 73.781C148.746 75.4311 148.056 77.5132 148.141 79.6369L149.223 107.27C148.446 105.798 146.45 103.416 142.295 105.798C136.866 108.916 140.293 128.304 149.758 121.033L150.237 133.244C150.3 134.837 150.797 136.383 151.674 137.713C152.551 139.043 153.775 140.107 155.212 140.789L180.935 153.075C182.117 153.639 183.411 153.929 184.72 153.922C186.03 153.916 187.321 153.613 188.497 153.037L213.43 140.839C214.861 140.141 216.075 139.062 216.938 137.721C217.801 136.38 218.28 134.827 218.325 133.231L218.617 122.629C225.159 123.035 226.994 108.461 222.348 105.798Z" fill="#84C7AC"/>
<path fill-rule="evenodd" clip-rule="evenodd" d="M149.261 108.585C149.261 108.585 150.436 77.9773 162.675 76.3434C162.675 76.3434 196.943 74.7033 206.738 77.1604C216.533 79.6174 218.735 117.627 218.735 117.627C218.735 117.627 228.766 79.5863 223.051 69.7954C217.336 60.0045 197.758 55.8886 186.358 56.6993C186.358 56.6993 179.828 47.7004 160.237 52.6083C140.647 57.5162 147.264 90.9237 149.261 108.585Z" fill="#0A0C35"/>
<path d="M180.978 107.114C182.179 103.253 187.695 103.328 188.734 107.238C188.754 107.302 188.77 107.366 188.783 107.432C190.419 113.974 194.499 129.521 187.969 129.521C181.439 129.521 178.18 130.337 178.18 122.156C178.18 117.036 179.778 110.943 180.978 107.114Z" fill="#EF98C0"/>
<path d="M174.915 104.157C174.915 104.157 172.465 99.2494 167.57 100.066C162.676 100.883 161.861 105.797 161.861 105.797" fill="#09231E"/>
<path d="M209.201 106.265C209.201 106.265 208.529 100.821 203.641 99.9539C198.753 99.0871 196.352 103.446 196.352 103.446" fill="#09231E"/>
<path d="M194.499 174.522L232.032 187.611L240.552 272.699H108.065L127.593 181.063L164.311 172.064H180.624L194.499 174.522Z" fill="#FDCE34"/>
<path fill-rule="evenodd" clip-rule="evenodd" d="M169.963 141.124C169.963 141.124 169.964 141.123 169.963 141.124ZM169.963 141.124L169.965 141.123L169.98 141.113C169.994 141.104 170.018 141.088 170.051 141.068C170.117 141.027 170.218 140.964 170.352 140.883C170.621 140.721 171.021 140.486 171.531 140.208C172.554 139.65 174.01 138.92 175.73 138.236C179.222 136.849 183.576 135.745 187.576 136.415C191.954 137.149 194.894 138.091 196.704 138.824C197.609 139.191 198.233 139.506 198.614 139.716C198.805 139.822 198.935 139.902 199.009 139.949C199.046 139.973 199.07 139.989 199.08 139.995C199.081 139.997 199.083 139.997 199.084 139.998C199.925 140.601 201.097 140.414 201.708 139.576C202.323 138.734 202.138 137.553 201.296 136.939L200.2 138.441C201.296 136.939 201.295 136.938 201.295 136.938L201.293 136.936L201.289 136.934L201.282 136.928L201.262 136.915C201.248 136.904 201.23 136.892 201.209 136.877C201.166 136.848 201.11 136.811 201.039 136.766C200.899 136.676 200.701 136.557 200.443 136.413C199.926 136.127 199.164 135.747 198.121 135.325C196.035 134.48 192.827 133.467 188.2 132.692C183.195 131.853 178.071 133.244 174.336 134.728C172.443 135.48 170.848 136.28 169.723 136.894C169.16 137.201 168.713 137.462 168.402 137.65C168.247 137.744 168.125 137.819 168.041 137.872C167.998 137.899 167.965 137.92 167.942 137.935L167.914 137.953L167.905 137.959L167.901 137.961C167.9 137.962 167.9 137.962 168.932 139.543L167.9 137.962C167.027 138.532 166.781 139.702 167.351 140.575C167.921 141.447 169.091 141.693 169.963 141.124Z" fill="#110A03"/>
<path d="M195.313 166.339L180.624 171.247L185.524 181.88L198.579 174.521L195.313 166.339Z" fill="white"/>
<path d="M167.57 164.699L180.624 171.247L170.02 181.88L162.675 172.064L167.57 164.699Z" fill="white"/>
<path d="M373.661 213.148L250.832 167.767V172.132L267.002 179.615L258.295 196.453L288.147 193.335L373.661 241.354V213.148Z" fill="#FDCE34"/>
<path d="M373.972 106.651L241.043 118.294L242.903 122.242L260.714 122.092L260.005 141.044L285.672 125.447L373.35 135.338L373.972 106.651Z" fill="#FDCE34"/>
<path d="M373.972 5.00098L243.288 67.6876L246.435 70.6997L263.003 64.1517L269.129 82.0933L287.5 58.3021L373.972 33.6877V5.00098Z" fill="#FDCE34"/>
<path d="M161.898 108.523C161.898 108.523 153.813 117.254 160.654 119.749C167.495 122.243 161.898 108.523 161.898 108.523Z" fill="#29ABE2"/>
<path d="M-1.66602 207.66L113.818 162.279V166.645L97.6479 174.128L106.355 190.966L76.5027 187.848L-1.66602 235.867V207.66Z" fill="#FDCE34"/>
<path d="M-1.66602 101.663L123.6 112.807L121.741 116.755L103.935 116.605L104.644 135.557L78.9717 119.96L-1.66602 125.361V101.663Z" fill="#FDCE34"/>
<path d="M-1.66602 4.37793L121.362 62.2003L118.208 65.2124L101.647 58.6644L95.5209 76.606L77.1433 52.8148L-1.66602 28.0756V4.37793Z" fill="#FDCE34"/>
</g>
<path d="M6 259.283H349.057V306.238C349.057 318.41 339.189 328.278 327.017 328.278H28.04C15.8677 328.278 6 318.41 6 306.238V259.283Z" fill="white"/>
<path d="M207.708 302.532C206.859 302.532 206.14 302.369 205.552 302.043C204.971 301.724 204.527 301.289 204.22 300.74C203.92 300.197 203.77 299.584 203.77 298.9C203.77 298.376 203.856 297.929 204.029 297.559C204.201 297.182 204.422 296.849 204.69 296.562C204.958 296.274 205.239 296 205.533 295.738C205.833 295.476 206.114 295.204 206.376 294.923C206.638 294.642 206.852 294.32 207.018 293.955C207.191 293.591 207.277 293.157 207.277 292.652V292.183H208.638V292.671C208.638 293.31 208.539 293.85 208.341 294.291C208.149 294.725 207.903 295.099 207.603 295.412C207.303 295.725 206.996 296.019 206.683 296.294C206.274 296.639 205.913 297.003 205.6 297.386C205.287 297.769 205.131 298.274 205.131 298.9C205.131 299.577 205.351 300.143 205.792 300.596C206.239 301.05 206.878 301.277 207.708 301.277C208.628 301.277 209.341 301.015 209.845 300.491C210.35 299.973 210.602 299.283 210.602 298.421H211.953C211.953 299.239 211.775 299.954 211.417 300.567C211.065 301.187 210.57 301.669 209.932 302.014C209.293 302.359 208.552 302.532 207.708 302.532ZM207.986 290.793C207.673 290.793 207.414 290.691 207.21 290.487C207.012 290.276 206.913 290.027 206.913 289.739C206.913 289.458 207.012 289.212 207.21 289.001C207.414 288.784 207.673 288.675 207.986 288.675C208.28 288.675 208.536 288.784 208.753 289.001C208.97 289.212 209.079 289.458 209.079 289.739C209.079 290.027 208.97 290.276 208.753 290.487C208.536 290.691 208.28 290.793 207.986 290.793Z" fill="#009245"/>
<path d="M223.003 299.906L221.93 298.306C221.572 298.504 221.183 298.657 220.761 298.766C220.346 298.875 219.886 298.929 219.381 298.929C218.359 298.929 217.493 298.728 216.784 298.325C216.082 297.916 215.513 297.376 215.079 296.706C214.651 296.028 214.338 295.281 214.139 294.463C213.941 293.646 213.842 292.822 213.842 291.991C213.842 291.161 213.941 290.336 214.139 289.519C214.338 288.701 214.651 287.957 215.079 287.286C215.513 286.609 216.082 286.069 216.784 285.667C217.493 285.258 218.359 285.053 219.381 285.053C220.41 285.053 221.278 285.258 221.988 285.667C222.697 286.069 223.265 286.609 223.693 287.286C224.121 287.957 224.431 288.701 224.623 289.519C224.821 290.336 224.92 291.161 224.92 291.991C224.92 292.687 224.853 293.384 224.719 294.08C224.591 294.77 224.38 295.422 224.086 296.035C223.792 296.642 223.403 297.172 222.917 297.626L223.99 299.207L223.003 299.906ZM219.381 297.654C219.733 297.654 220.055 297.616 220.349 297.539C220.649 297.456 220.921 297.341 221.164 297.194L220.138 295.652L221.154 294.952L222.141 296.437C222.639 295.875 222.994 295.192 223.205 294.387C223.415 293.575 223.521 292.777 223.521 291.991C223.521 291.288 223.447 290.602 223.3 289.931C223.16 289.254 222.927 288.644 222.601 288.1C222.281 287.557 221.857 287.126 221.326 286.807C220.803 286.481 220.154 286.318 219.381 286.318C218.615 286.318 217.966 286.491 217.436 286.836C216.912 287.174 216.487 287.625 216.161 288.187C215.842 288.743 215.609 289.356 215.462 290.027C215.315 290.691 215.241 291.346 215.241 291.991C215.241 292.694 215.315 293.384 215.462 294.061C215.609 294.732 215.842 295.339 216.161 295.882C216.487 296.418 216.912 296.849 217.436 297.175C217.966 297.495 218.615 297.654 219.381 297.654Z" fill="#009245"/>
<path d="M231.869 298.929C230.713 298.929 229.85 298.577 229.282 297.875C228.719 297.172 228.438 296.102 228.438 294.665V288.905H229.78V294.885C229.78 295.805 229.972 296.501 230.355 296.974C230.738 297.447 231.294 297.683 232.022 297.683C232.834 297.683 233.444 297.437 233.853 296.945C234.268 296.447 234.475 295.719 234.475 294.76V288.905H235.817V298.699H234.475V297.52C234.182 297.993 233.817 298.347 233.383 298.584C232.955 298.814 232.45 298.929 231.869 298.929Z" fill="#009245"/>
<path d="M243.266 298.929C242.397 298.929 241.646 298.715 241.014 298.287C240.388 297.852 239.905 297.249 239.567 296.476C239.228 295.703 239.059 294.808 239.059 293.793C239.059 292.713 239.235 291.793 239.586 291.033C239.944 290.266 240.439 289.682 241.071 289.279C241.704 288.877 242.435 288.675 243.266 288.675C243.988 288.675 244.642 288.845 245.23 289.183C245.818 289.522 246.284 290.046 246.629 290.755C246.974 291.464 247.147 292.374 247.147 293.486C247.147 293.601 247.144 293.732 247.137 293.879C247.131 294.019 247.121 294.166 247.108 294.32H240.448C240.5 294.997 240.637 295.591 240.861 296.102C241.091 296.607 241.407 297.006 241.809 297.3C242.218 297.587 242.72 297.731 243.314 297.731C243.716 297.731 244.103 297.661 244.473 297.52C244.844 297.373 245.189 297.15 245.508 296.849L246.294 297.75C245.936 298.089 245.495 298.37 244.971 298.593C244.454 298.817 243.885 298.929 243.266 298.929ZM240.429 293.141H245.776C245.776 292.534 245.684 291.981 245.498 291.483C245.32 290.985 245.042 290.589 244.665 290.295C244.294 290.001 243.828 289.854 243.266 289.854C242.506 289.854 241.857 290.116 241.32 290.64C240.79 291.164 240.493 291.997 240.429 293.141ZM242.288 287.66L245.067 284.67H247.003L243.649 287.66H242.288Z" fill="#009245"/>
<path d="M258.841 298.929C257.972 298.929 257.222 298.715 256.589 298.287C255.963 297.852 255.481 297.249 255.142 296.476C254.804 295.703 254.634 294.808 254.634 293.793C254.634 292.713 254.81 291.793 255.161 291.033C255.519 290.266 256.014 289.682 256.647 289.279C257.279 288.877 258.011 288.675 258.841 288.675C259.563 288.675 260.218 288.845 260.806 289.183C261.393 289.522 261.86 290.046 262.205 290.755C262.55 291.464 262.722 292.374 262.722 293.486C262.722 293.601 262.719 293.732 262.713 293.879C262.706 294.019 262.697 294.166 262.684 294.32H256.024C256.075 294.997 256.212 295.591 256.436 296.102C256.666 296.607 256.982 297.006 257.385 297.3C257.794 297.587 258.295 297.731 258.889 297.731C259.292 297.731 259.678 297.661 260.049 297.52C260.419 297.373 260.764 297.15 261.084 296.849L261.869 297.75C261.512 298.089 261.071 298.37 260.547 298.593C260.029 298.817 259.461 298.929 258.841 298.929ZM256.005 293.141H261.352C261.352 292.534 261.259 291.981 261.074 291.483C260.895 290.985 260.617 290.589 260.24 290.295C259.87 290.001 259.403 289.854 258.841 289.854C258.081 289.854 257.433 290.116 256.896 290.64C256.366 291.164 256.069 291.997 256.005 293.141Z" fill="#009245"/>
<path d="M268.509 298.929C267.858 298.929 267.232 298.788 266.631 298.507C266.031 298.226 265.526 297.836 265.117 297.338L266.094 296.504C266.446 296.888 266.836 297.185 267.264 297.396C267.692 297.606 268.113 297.712 268.528 297.712C269.155 297.712 269.637 297.584 269.975 297.329C270.32 297.073 270.493 296.715 270.493 296.255C270.493 295.968 270.413 295.706 270.253 295.47C270.1 295.233 269.848 295.013 269.496 294.808C269.145 294.597 268.682 294.383 268.107 294.166C267.072 293.783 266.328 293.365 265.874 292.911C265.421 292.451 265.194 291.882 265.194 291.205C265.194 290.451 265.484 289.841 266.066 289.375C266.653 288.909 267.417 288.675 268.356 288.675C268.976 288.675 269.557 288.797 270.1 289.04C270.643 289.276 271.106 289.618 271.489 290.065L270.55 290.851C269.924 290.212 269.186 289.892 268.337 289.892C267.781 289.892 267.34 290.011 267.014 290.247C266.695 290.477 266.535 290.796 266.535 291.205C266.535 291.582 266.701 291.908 267.034 292.183C267.366 292.451 267.973 292.748 268.854 293.074C269.57 293.342 270.145 293.626 270.579 293.927C271.014 294.221 271.327 294.556 271.518 294.933C271.716 295.31 271.815 295.744 271.815 296.236C271.815 297.073 271.521 297.731 270.934 298.21C270.346 298.689 269.538 298.929 268.509 298.929Z" fill="#009245"/>
<path d="M283.081 298.699L278.491 285.283H279.929L283.34 295.479C283.398 295.645 283.455 295.83 283.513 296.035C283.577 296.233 283.637 296.441 283.695 296.658C283.752 296.441 283.81 296.236 283.867 296.044C283.925 295.846 283.982 295.658 284.04 295.479L287.394 285.283H288.831L284.25 298.699H283.081Z" fill="#009245"/>
<path d="M291.963 298.699V285.283H296.505C297.533 285.283 298.342 285.453 298.929 285.791C299.517 286.123 299.935 286.558 300.185 287.094C300.434 287.625 300.558 288.18 300.558 288.762C300.558 289.413 300.367 290.001 299.983 290.525C299.6 291.042 299.063 291.419 298.373 291.656C298.923 291.777 299.396 291.991 299.792 292.298C300.188 292.598 300.494 292.975 300.712 293.428C300.929 293.876 301.037 294.377 301.037 294.933C301.037 295.38 300.964 295.827 300.817 296.274C300.676 296.715 300.443 297.121 300.117 297.491C299.798 297.856 299.367 298.149 298.824 298.373C298.281 298.59 297.61 298.699 296.811 298.699H291.963ZM293.304 297.472H296.994C297.703 297.472 298.252 297.354 298.642 297.118C299.038 296.881 299.313 296.578 299.466 296.207C299.626 295.837 299.705 295.45 299.705 295.048C299.705 294.582 299.613 294.141 299.428 293.725C299.242 293.31 298.91 292.978 298.431 292.729C297.952 292.473 297.268 292.346 296.38 292.346H293.304V297.472ZM293.304 291.129H296.169C297.185 291.129 297.949 290.911 298.46 290.477C298.971 290.043 299.226 289.471 299.226 288.762C299.226 288.398 299.156 288.043 299.015 287.698C298.881 287.347 298.623 287.059 298.239 286.836C297.862 286.612 297.313 286.5 296.591 286.5H293.304V291.129Z" fill="#009245"/>
<path d="M309.675 298.929C308.684 298.929 307.838 298.737 307.135 298.354C306.433 297.964 305.861 297.44 305.42 296.782C304.979 296.118 304.653 295.374 304.443 294.55C304.238 293.719 304.136 292.866 304.136 291.991C304.136 291.109 304.245 290.257 304.462 289.432C304.685 288.602 305.021 287.858 305.468 287.2C305.921 286.542 306.496 286.021 307.193 285.638C307.889 285.248 308.716 285.053 309.675 285.053C310.441 285.053 311.086 285.159 311.61 285.369C312.134 285.58 312.569 285.855 312.914 286.194C313.265 286.526 313.559 286.874 313.795 287.238L312.597 287.947C312.297 287.513 311.923 287.136 311.476 286.816C311.029 286.491 310.428 286.328 309.675 286.328C308.902 286.328 308.25 286.497 307.72 286.836C307.19 287.174 306.765 287.625 306.445 288.187C306.126 288.743 305.893 289.353 305.746 290.017C305.605 290.681 305.535 291.339 305.535 291.991C305.535 292.719 305.615 293.422 305.775 294.099C305.934 294.776 306.18 295.38 306.512 295.91C306.851 296.441 307.279 296.862 307.796 297.175C308.32 297.482 308.946 297.635 309.675 297.635C310.32 297.635 310.879 297.491 311.352 297.204C311.831 296.916 312.201 296.504 312.463 295.968C312.725 295.425 312.856 294.773 312.856 294.013V293.582H310.298V292.346H314.265V293.63C314.265 294.818 314.063 295.805 313.661 296.591C313.259 297.37 312.709 297.955 312.013 298.344C311.323 298.734 310.543 298.929 309.675 298.929Z" fill="#009245"/>
<path d="M320.23 295.402V294.904C320.23 294.259 320.326 293.716 320.518 293.275C320.716 292.834 320.965 292.454 321.265 292.135C321.566 291.809 321.872 291.509 322.185 291.234C322.594 290.876 322.952 290.506 323.259 290.122C323.572 289.733 323.728 289.234 323.728 288.628C323.728 287.982 323.505 287.436 323.057 286.989C322.617 286.542 321.981 286.318 321.15 286.318C320.237 286.318 319.528 286.57 319.023 287.075C318.525 287.58 318.276 288.228 318.276 289.02H316.963C316.963 288.254 317.135 287.57 317.48 286.97C317.825 286.369 318.311 285.9 318.937 285.561C319.563 285.223 320.301 285.053 321.15 285.053C322 285.053 322.716 285.216 323.297 285.542C323.885 285.861 324.332 286.293 324.638 286.836C324.945 287.372 325.098 287.976 325.098 288.647C325.098 289.19 325.009 289.653 324.83 290.036C324.658 290.419 324.434 290.758 324.159 291.052C323.885 291.339 323.6 291.617 323.306 291.886C323.019 292.141 322.744 292.409 322.482 292.691C322.22 292.965 322.006 293.281 321.84 293.639C321.674 293.997 321.591 294.422 321.591 294.914V295.402H320.23ZM320.882 298.958C320.588 298.958 320.336 298.852 320.125 298.641C319.921 298.431 319.818 298.185 319.818 297.903C319.818 297.616 319.921 297.364 320.125 297.146C320.336 296.929 320.588 296.821 320.882 296.821C321.189 296.821 321.444 296.929 321.649 297.146C321.86 297.364 321.965 297.616 321.965 297.903C321.965 298.185 321.86 298.431 321.649 298.641C321.444 298.852 321.189 298.958 320.882 298.958Z" fill="#009245"/>
</g>
<defs>
<filter id="filter0_d_249_17230" x="0.250444" y="0.552734" width="354.556" height="340.183" filterUnits="userSpaceOnUse" color-interpolation-filters="sRGB">
<feFlood flood-opacity="0" result="BackgroundImageFix"/>
<feColorMatrix in="SourceAlpha" type="matrix" values="0 0 0 0 0 0 0 0 0 0 0 0 0 0 0 0 0 0 127 0" result="hardAlpha"/>
<feMorphology radius="2.87478" operator="erode" in="SourceAlpha" result="effect1_dropShadow_249_17230"/>
<feOffset dy="6.70782"/>
<feGaussianBlur stdDeviation="4.31217"/>
<feComposite in2="hardAlpha" operator="out"/>
<feColorMatrix type="matrix" values="0 0 0 0 1 0 0 0 0 0.572549 0 0 0 0 0.909804 0 0 0 0.15 0"/>
<feBlend mode="normal" in2="BackgroundImageFix" result="effect1_dropShadow_249_17230"/>
<feBlend mode="normal" in="SourceGraphic" in2="effect1_dropShadow_249_17230" result="shape"/>
</filter>
</defs>
</svg>
