<svg width="370" height="355" viewBox="0 0 370 355" fill="none" xmlns="http://www.w3.org/2000/svg">
<g filter="url(#filter0_d_257_17261)">
<mask id="mask0_257_17261" style="mask-type:alpha" maskUnits="userSpaceOnUse" x="6" y="0" width="358" height="342">
<path d="M6 23C6 10.2974 16.2975 0 29 0H341C353.703 0 364 10.2975 364 23V319C364 331.703 353.703 342 341 342H29C16.2975 342 6 331.703 6 319V23Z" fill="#D9D9D9"/>
</mask>
<g mask="url(#mask0_257_17261)">
<path d="M389.675 -10H-1.67554V283.831H389.675V-10Z" fill="#1B6AB2"/>
<path d="M200.289 157.24L201.431 181.97L174.186 180.264L181.844 155.502L200.289 157.24Z" fill="#84C7AC"/>
<path d="M200.347 158.463C200.347 158.463 197.602 163.617 193.345 163.617C189.087 163.617 181.202 157.585 181.202 157.585L182.273 154.227L200.153 156.784L200.347 158.463Z" fill="#09231E"/>
<path d="M231.772 109.829C230.754 109.183 229.582 108.819 228.378 108.775L228.988 86.5634C229.024 85.2859 228.792 84.015 228.307 82.8333C227.822 81.6515 227.094 80.5854 226.171 79.7041L213.84 67.9443C212.149 66.3267 209.901 65.4247 207.564 65.4258H169.571C168.219 65.426 166.884 65.7288 165.664 66.3119C164.443 66.8951 163.368 67.7441 162.516 68.7969L156.357 76.4176C154.963 78.1395 154.243 80.3123 154.333 82.5285L155.462 111.365C154.651 109.829 152.567 107.343 148.232 109.829C142.566 113.083 146.142 133.316 156.02 125.728L156.52 138.47C156.585 140.133 157.104 141.746 158.019 143.134C158.935 144.523 160.212 145.633 161.712 146.345L188.555 159.165C189.788 159.754 191.139 160.057 192.505 160.05C193.871 160.043 195.219 159.727 196.447 159.126L222.465 146.397C223.959 145.668 225.225 144.543 226.126 143.143C227.026 141.743 227.527 140.122 227.573 138.457L227.878 127.394C234.705 127.817 236.62 112.608 231.772 109.829Z" fill="#84C7AC"/>
<path fill-rule="evenodd" clip-rule="evenodd" d="M155.501 112.738C155.501 112.738 156.728 80.7975 169.5 79.0925C169.5 79.0925 205.26 77.3809 215.482 79.945C225.704 82.5091 228.001 122.175 228.001 122.175C228.001 122.175 238.47 82.4766 232.506 72.2592C226.541 62.0418 206.11 57.7466 194.214 58.5926C194.214 58.5926 187.4 49.2018 166.956 54.3235C146.512 59.4452 153.418 94.3079 155.501 112.738Z" fill="#0A0C35"/>
<path d="M188.6 111.203C189.853 107.174 195.609 107.253 196.693 111.333C196.714 111.399 196.732 111.467 196.745 111.535C198.452 118.361 202.71 134.586 195.895 134.586C189.08 134.586 185.68 135.438 185.68 126.9C185.68 121.557 187.348 115.199 188.6 111.203Z" fill="#EF98C0"/>
<path d="M182.273 108.119C182.273 108.119 179.715 102.997 174.608 103.85C169.5 104.702 168.65 109.83 168.65 109.83" fill="#09231E"/>
<path d="M218.052 110.318C218.052 110.318 217.351 104.637 212.25 103.732C207.149 102.828 204.644 107.377 204.644 107.377" fill="#09231E"/>
<path d="M202.71 181.547L241.877 195.207L250.769 284H112.511L132.89 188.373L171.207 178.982H188.23L202.71 181.547Z" fill="#FDCE34"/>
<path fill-rule="evenodd" clip-rule="evenodd" d="M177.106 146.692C177.105 146.692 177.106 146.692 177.106 146.692ZM177.106 146.692L177.107 146.691L177.123 146.681C177.138 146.672 177.163 146.656 177.197 146.634C177.266 146.591 177.371 146.526 177.511 146.441C177.792 146.272 178.209 146.027 178.742 145.737C179.809 145.155 181.328 144.393 183.124 143.679C186.767 142.231 191.311 141.079 195.485 141.779C200.054 142.545 203.122 143.528 205.011 144.293C205.956 144.675 206.607 145.004 207.004 145.224C207.203 145.334 207.339 145.417 207.417 145.467C207.455 145.491 207.48 145.508 207.49 145.515C207.492 145.516 207.493 145.517 207.494 145.518C208.372 146.147 209.595 145.952 210.233 145.078C210.875 144.199 210.682 142.967 209.803 142.325L208.642 143.917C209.803 142.325 209.802 142.325 209.802 142.324L209.8 142.323L209.796 142.32L209.788 142.314L209.768 142.3C209.753 142.289 209.734 142.276 209.712 142.261C209.667 142.231 209.609 142.192 209.535 142.145C209.389 142.051 209.183 141.926 208.913 141.777C208.373 141.478 207.578 141.082 206.49 140.641C204.313 139.759 200.965 138.702 196.137 137.893C190.914 137.018 185.566 138.469 181.669 140.018C179.693 140.803 178.029 141.638 176.855 142.278C176.268 142.599 175.8 142.872 175.476 143.067C175.314 143.165 175.188 143.244 175.099 143.299C175.055 143.327 175.021 143.349 174.996 143.365L174.967 143.384L174.957 143.39L174.953 143.392C174.953 143.393 174.952 143.393 176.029 145.042L174.952 143.393C174.041 143.988 173.785 145.209 174.38 146.12C174.975 147.03 176.195 147.287 177.106 146.692Z" fill="#110A03"/>
<path d="M203.56 173.008L188.23 178.13L193.345 189.225L206.967 181.546L203.56 173.008Z" fill="white"/>
<path d="M174.608 171.297L188.23 178.13L177.165 189.226L169.5 178.983L174.608 171.297Z" fill="white"/>
<path d="M389.675 221.856L261.497 174.498V179.054L278.371 186.863L269.285 204.434L300.437 201.18L389.675 251.291V221.856Z" fill="#FDCE34"/>
<path d="M390 110.721L251.281 122.871L253.222 126.99L271.809 126.834L271.069 146.612L297.854 130.335L389.351 140.657L390 110.721Z" fill="#FDCE34"/>
<path d="M390 4.64258L253.624 70.0598L256.908 73.2031L274.198 66.3698L280.59 85.093L299.762 60.2654L390 34.5788V4.64258Z" fill="#FDCE34"/>
<path d="M168.689 112.674C168.689 112.674 160.252 121.785 167.391 124.388C174.53 126.991 168.689 112.674 168.689 112.674Z" fill="#29ABE2"/>
<path d="M-2 216.129L118.514 168.771V173.327L101.64 181.136L110.726 198.708L79.5736 195.454L-2 245.564V216.129Z" fill="#FDCE34"/>
<path d="M-2 105.516L128.723 117.145L126.782 121.265L108.201 121.109L108.941 140.886L82.1502 124.61L-2 130.246V105.516Z" fill="#FDCE34"/>
<path d="M-2 3.99219L126.386 64.3333L123.096 67.4766L105.813 60.6433L99.4203 79.3665L80.2421 54.5389L-2 28.7221V3.99219Z" fill="#FDCE34"/>
</g>
<path d="M6 270H364V319C364 331.703 353.703 342 341 342H29C16.2975 342 6 331.703 6 319V270Z" fill="white"/>
<path d="M216.495 314.999C215.608 314.999 214.858 314.829 214.245 314.489C213.638 314.156 213.175 313.703 212.855 313.129C212.541 312.563 212.385 311.923 212.385 311.209C212.385 310.663 212.475 310.196 212.655 309.809C212.835 309.416 213.065 309.069 213.345 308.769C213.625 308.469 213.918 308.183 214.225 307.909C214.538 307.636 214.831 307.353 215.105 307.059C215.378 306.766 215.601 306.429 215.775 306.049C215.955 305.669 216.045 305.216 216.045 304.689V304.199H217.465V304.709C217.465 305.376 217.361 305.939 217.155 306.399C216.955 306.853 216.698 307.243 216.385 307.569C216.071 307.896 215.751 308.203 215.425 308.489C214.998 308.849 214.621 309.229 214.295 309.629C213.968 310.029 213.805 310.556 213.805 311.209C213.805 311.916 214.035 312.506 214.495 312.979C214.961 313.453 215.628 313.689 216.495 313.689C217.455 313.689 218.198 313.416 218.725 312.869C219.251 312.329 219.515 311.609 219.515 310.709H220.925C220.925 311.563 220.738 312.309 220.365 312.949C219.998 313.596 219.481 314.099 218.815 314.459C218.148 314.819 217.375 314.999 216.495 314.999ZM216.785 302.749C216.458 302.749 216.188 302.643 215.975 302.429C215.768 302.209 215.665 301.949 215.665 301.649C215.665 301.356 215.768 301.099 215.975 300.879C216.188 300.653 216.458 300.539 216.785 300.539C217.091 300.539 217.358 300.653 217.585 300.879C217.811 301.099 217.925 301.356 217.925 301.649C217.925 301.949 217.811 302.209 217.585 302.429C217.358 302.643 217.091 302.749 216.785 302.749Z" fill="#009245"/>
<path d="M232.456 312.259L231.336 310.589C230.962 310.796 230.556 310.956 230.116 311.069C229.682 311.183 229.202 311.239 228.676 311.239C227.609 311.239 226.706 311.029 225.966 310.609C225.232 310.183 224.639 309.619 224.186 308.919C223.739 308.213 223.412 307.433 223.206 306.579C222.999 305.726 222.896 304.866 222.896 303.999C222.896 303.133 222.999 302.273 223.206 301.419C223.412 300.566 223.739 299.789 224.186 299.089C224.639 298.383 225.232 297.819 225.966 297.399C226.706 296.973 227.609 296.759 228.676 296.759C229.749 296.759 230.656 296.973 231.396 297.399C232.136 297.819 232.729 298.383 233.176 299.089C233.622 299.789 233.946 300.566 234.146 301.419C234.352 302.273 234.456 303.133 234.456 303.999C234.456 304.726 234.386 305.453 234.246 306.179C234.112 306.899 233.892 307.579 233.586 308.219C233.279 308.853 232.872 309.406 232.366 309.879L233.486 311.529L232.456 312.259ZM228.676 309.909C229.042 309.909 229.379 309.869 229.686 309.789C229.999 309.703 230.282 309.583 230.536 309.429L229.466 307.819L230.526 307.089L231.556 308.639C232.076 308.053 232.446 307.339 232.666 306.499C232.886 305.653 232.996 304.819 232.996 303.999C232.996 303.266 232.919 302.549 232.766 301.849C232.619 301.143 232.376 300.506 232.036 299.939C231.702 299.373 231.259 298.923 230.706 298.589C230.159 298.249 229.482 298.079 228.676 298.079C227.876 298.079 227.199 298.259 226.646 298.619C226.099 298.973 225.656 299.443 225.316 300.029C224.982 300.609 224.739 301.249 224.586 301.949C224.432 302.643 224.356 303.326 224.356 303.999C224.356 304.733 224.432 305.453 224.586 306.159C224.739 306.859 224.982 307.493 225.316 308.059C225.656 308.619 226.099 309.069 226.646 309.409C227.199 309.743 227.876 309.909 228.676 309.909Z" fill="#009245"/>
<path d="M241.707 311.239C240.501 311.239 239.601 310.873 239.007 310.139C238.421 309.406 238.127 308.289 238.127 306.789V300.779H239.527V307.019C239.527 307.979 239.727 308.706 240.127 309.199C240.527 309.693 241.107 309.939 241.867 309.939C242.714 309.939 243.351 309.683 243.777 309.169C244.211 308.649 244.427 307.889 244.427 306.889V300.779H245.827V310.999H244.427V309.769C244.121 310.263 243.741 310.633 243.287 310.879C242.841 311.119 242.314 311.239 241.707 311.239Z" fill="#009245"/>
<path d="M253.601 311.239C252.694 311.239 251.911 311.016 251.251 310.569C250.597 310.116 250.094 309.486 249.741 308.679C249.387 307.873 249.211 306.939 249.211 305.879C249.211 304.753 249.394 303.793 249.761 302.999C250.134 302.199 250.651 301.589 251.311 301.169C251.971 300.749 252.734 300.539 253.601 300.539C254.354 300.539 255.037 300.716 255.651 301.069C256.264 301.423 256.751 301.969 257.111 302.709C257.471 303.449 257.651 304.399 257.651 305.559C257.651 305.679 257.647 305.816 257.641 305.969C257.634 306.116 257.624 306.269 257.611 306.429H250.661C250.714 307.136 250.857 307.756 251.091 308.289C251.331 308.816 251.661 309.233 252.081 309.539C252.507 309.839 253.031 309.989 253.651 309.989C254.071 309.989 254.474 309.916 254.861 309.769C255.247 309.616 255.607 309.383 255.941 309.069L256.761 310.009C256.387 310.363 255.927 310.656 255.381 310.889C254.841 311.123 254.247 311.239 253.601 311.239ZM250.641 305.199H256.221C256.221 304.566 256.124 303.989 255.931 303.469C255.744 302.949 255.454 302.536 255.061 302.229C254.674 301.923 254.187 301.769 253.601 301.769C252.807 301.769 252.131 302.043 251.571 302.589C251.017 303.136 250.707 304.006 250.641 305.199ZM252.581 299.479L255.481 296.359H257.501L254.001 299.479H252.581Z" fill="#009245"/>
<path d="M269.855 311.239C268.948 311.239 268.165 311.016 267.505 310.569C266.851 310.116 266.348 309.486 265.995 308.679C265.641 307.873 265.465 306.939 265.465 305.879C265.465 304.753 265.648 303.793 266.015 302.999C266.388 302.199 266.905 301.589 267.565 301.169C268.225 300.749 268.988 300.539 269.855 300.539C270.608 300.539 271.291 300.716 271.905 301.069C272.518 301.423 273.005 301.969 273.365 302.709C273.725 303.449 273.905 304.399 273.905 305.559C273.905 305.679 273.901 305.816 273.895 305.969C273.888 306.116 273.878 306.269 273.865 306.429H266.915C266.968 307.136 267.111 307.756 267.345 308.289C267.585 308.816 267.915 309.233 268.335 309.539C268.761 309.839 269.285 309.989 269.905 309.989C270.325 309.989 270.728 309.916 271.115 309.769C271.501 309.616 271.861 309.383 272.195 309.069L273.015 310.009C272.641 310.363 272.181 310.656 271.635 310.889C271.095 311.123 270.501 311.239 269.855 311.239ZM266.895 305.199H272.475C272.475 304.566 272.378 303.989 272.185 303.469C271.998 302.949 271.708 302.536 271.315 302.229C270.928 301.923 270.441 301.769 269.855 301.769C269.061 301.769 268.385 302.043 267.825 302.589C267.271 303.136 266.961 304.006 266.895 305.199Z" fill="#009245"/>
<path d="M279.944 311.239C279.264 311.239 278.611 311.093 277.984 310.799C277.357 310.506 276.831 310.099 276.404 309.579L277.424 308.709C277.791 309.109 278.197 309.419 278.644 309.639C279.091 309.859 279.531 309.969 279.964 309.969C280.617 309.969 281.121 309.836 281.474 309.569C281.834 309.303 282.014 308.929 282.014 308.449C282.014 308.149 281.931 307.876 281.764 307.629C281.604 307.383 281.341 307.153 280.974 306.939C280.607 306.719 280.124 306.496 279.524 306.269C278.444 305.869 277.667 305.433 277.194 304.959C276.721 304.479 276.484 303.886 276.484 303.179C276.484 302.393 276.787 301.756 277.394 301.269C278.007 300.783 278.804 300.539 279.784 300.539C280.431 300.539 281.037 300.666 281.604 300.919C282.171 301.166 282.654 301.523 283.054 301.989L282.074 302.809C281.421 302.143 280.651 301.809 279.764 301.809C279.184 301.809 278.724 301.933 278.384 302.179C278.051 302.419 277.884 302.753 277.884 303.179C277.884 303.573 278.057 303.913 278.404 304.199C278.751 304.479 279.384 304.789 280.304 305.129C281.051 305.409 281.651 305.706 282.104 306.019C282.557 306.326 282.884 306.676 283.084 307.069C283.291 307.463 283.394 307.916 283.394 308.429C283.394 309.303 283.087 309.989 282.474 310.489C281.861 310.989 281.017 311.239 279.944 311.239Z" fill="#009245"/>
<path d="M295.151 310.999L290.361 296.999H291.861L295.421 307.639C295.481 307.813 295.541 308.006 295.601 308.219C295.667 308.426 295.731 308.643 295.791 308.869C295.851 308.643 295.911 308.429 295.971 308.229C296.031 308.023 296.091 307.826 296.151 307.639L299.651 296.999H301.151L296.371 310.999H295.151Z" fill="#009245"/>
<path d="M304.419 310.999V296.999H309.159C310.232 296.999 311.076 297.176 311.689 297.529C312.302 297.876 312.739 298.329 312.999 298.889C313.259 299.443 313.389 300.023 313.389 300.629C313.389 301.309 313.189 301.923 312.789 302.469C312.389 303.009 311.829 303.403 311.109 303.649C311.682 303.776 312.176 303.999 312.589 304.319C313.002 304.633 313.322 305.026 313.549 305.499C313.776 305.966 313.889 306.489 313.889 307.069C313.889 307.536 313.812 308.003 313.659 308.469C313.512 308.929 313.269 309.353 312.929 309.739C312.596 310.119 312.146 310.426 311.579 310.659C311.012 310.886 310.312 310.999 309.479 310.999H304.419ZM305.819 309.719H309.669C310.409 309.719 310.982 309.596 311.389 309.349C311.802 309.103 312.089 308.786 312.249 308.399C312.416 308.013 312.499 307.609 312.499 307.189C312.499 306.703 312.402 306.243 312.209 305.809C312.016 305.376 311.669 305.029 311.169 304.769C310.669 304.503 309.956 304.369 309.029 304.369H305.819V309.719ZM305.819 303.099H308.809C309.869 303.099 310.666 302.873 311.199 302.419C311.732 301.966 311.999 301.369 311.999 300.629C311.999 300.249 311.926 299.879 311.779 299.519C311.639 299.153 311.369 298.853 310.969 298.619C310.576 298.386 310.002 298.269 309.249 298.269H305.819V303.099Z" fill="#009245"/>
<path d="M322.902 311.239C321.869 311.239 320.986 311.039 320.252 310.639C319.519 310.233 318.922 309.686 318.462 308.999C318.002 308.306 317.662 307.529 317.442 306.669C317.229 305.803 317.122 304.913 317.122 303.999C317.122 303.079 317.236 302.189 317.462 301.329C317.696 300.463 318.046 299.686 318.512 298.999C318.986 298.313 319.586 297.769 320.312 297.369C321.039 296.963 321.902 296.759 322.902 296.759C323.702 296.759 324.376 296.869 324.922 297.089C325.469 297.309 325.922 297.596 326.282 297.949C326.649 298.296 326.956 298.659 327.202 299.039L325.952 299.779C325.639 299.326 325.249 298.933 324.782 298.599C324.316 298.259 323.689 298.089 322.902 298.089C322.096 298.089 321.416 298.266 320.862 298.619C320.309 298.973 319.866 299.443 319.532 300.029C319.199 300.609 318.956 301.246 318.802 301.939C318.656 302.633 318.582 303.319 318.582 303.999C318.582 304.759 318.666 305.493 318.832 306.199C318.999 306.906 319.256 307.536 319.602 308.089C319.956 308.643 320.402 309.083 320.942 309.409C321.489 309.729 322.142 309.889 322.902 309.889C323.576 309.889 324.159 309.739 324.652 309.439C325.152 309.139 325.539 308.709 325.812 308.149C326.086 307.583 326.222 306.903 326.222 306.109V305.659H323.552V304.369H327.692V305.709C327.692 306.949 327.482 307.979 327.062 308.799C326.642 309.613 326.069 310.223 325.342 310.629C324.622 311.036 323.809 311.239 322.902 311.239Z" fill="#009245"/>
<path d="M333.918 307.559V307.039C333.918 306.366 334.018 305.799 334.218 305.339C334.425 304.879 334.685 304.483 334.998 304.149C335.311 303.809 335.631 303.496 335.958 303.209C336.385 302.836 336.758 302.449 337.078 302.049C337.405 301.643 337.568 301.123 337.568 300.489C337.568 299.816 337.335 299.246 336.868 298.779C336.408 298.313 335.745 298.079 334.878 298.079C333.925 298.079 333.185 298.343 332.658 298.869C332.138 299.396 331.878 300.073 331.878 300.899H330.508C330.508 300.099 330.688 299.386 331.048 298.759C331.408 298.133 331.915 297.643 332.568 297.289C333.221 296.936 333.991 296.759 334.878 296.759C335.765 296.759 336.511 296.929 337.118 297.269C337.731 297.603 338.198 298.053 338.518 298.619C338.838 299.179 338.998 299.809 338.998 300.509C338.998 301.076 338.905 301.559 338.718 301.959C338.538 302.359 338.305 302.713 338.018 303.019C337.731 303.319 337.435 303.609 337.128 303.889C336.828 304.156 336.541 304.436 336.268 304.729C335.995 305.016 335.771 305.346 335.598 305.719C335.425 306.093 335.338 306.536 335.338 307.049V307.559H333.918ZM334.598 311.269C334.291 311.269 334.028 311.159 333.808 310.939C333.595 310.719 333.488 310.463 333.488 310.169C333.488 309.869 333.595 309.606 333.808 309.379C334.028 309.153 334.291 309.039 334.598 309.039C334.918 309.039 335.185 309.153 335.398 309.379C335.618 309.606 335.728 309.869 335.728 310.169C335.728 310.463 335.618 310.719 335.398 310.939C335.185 311.159 334.918 311.269 334.598 311.269Z" fill="#009245"/>
</g>
<defs>
<filter id="filter0_d_257_17261" x="0" y="0" width="370" height="355" filterUnits="userSpaceOnUse" color-interpolation-filters="sRGB">
<feFlood flood-opacity="0" result="BackgroundImageFix"/>
<feColorMatrix in="SourceAlpha" type="matrix" values="0 0 0 0 0 0 0 0 0 0 0 0 0 0 0 0 0 0 127 0" result="hardAlpha"/>
<feMorphology radius="3" operator="erode" in="SourceAlpha" result="effect1_dropShadow_257_17261"/>
<feOffset dy="7"/>
<feGaussianBlur stdDeviation="4.5"/>
<feComposite in2="hardAlpha" operator="out"/>
<feColorMatrix type="matrix" values="0 0 0 0 1 0 0 0 0 0.572549 0 0 0 0 0.909804 0 0 0 0.15 0"/>
<feBlend mode="normal" in2="BackgroundImageFix" result="effect1_dropShadow_257_17261"/>
<feBlend mode="normal" in="SourceGraphic" in2="effect1_dropShadow_257_17261" result="shape"/>
</filter>
</defs>
</svg>
