<svg width="1448" height="27" viewBox="0 0 1448 27" fill="none" xmlns="http://www.w3.org/2000/svg">
<path d="M4 4C25.9282 4 25.9282 23.4924 47.6127 23.4924C69.2973 23.4924 69.5409 4 91.2498 4C112.959 4 113.178 23.4924 134.887 23.4924C156.596 23.4924 156.815 4 178.524 4C200.233 4 200.452 23.4924 222.137 23.4924C243.821 23.4924 244.065 4 265.774 4C287.483 4 287.702 23.4924 309.411 23.4924C331.12 23.4924 331.339 4 353.048 4C374.757 4 374.976 23.4924 396.685 23.4924C418.394 23.4924 418.613 4 440.298 4C461.982 4 462.226 23.4924 483.935 23.4924C505.644 23.4924 505.863 4 527.572 4C549.281 4 549.5 23.4924 571.209 23.4924C592.918 23.4924 593.137 4 614.846 4C636.555 4 636.775 23.4924 658.483 23.4924C680.192 23.4924 680.29 4 702.121 4C723.951 4 724.049 23.4924 745.758 23.4924C767.467 23.4924 767.564 4 789.395 4C811.225 4 811.201 23.4924 833.032 23.4924C854.863 23.4924 854.838 4 876.669 4C898.5 4 898.475 23.4924 920.306 23.4924C942.137 23.4924 942.112 4 963.919 4C985.725 4 985.847 23.4924 1007.56 23.4924C1029.26 23.4924 1029.48 4 1051.22 4C1072.95 4 1073.02 23.4924 1094.83 23.4924C1116.64 23.4924 1116.76 4 1138.47 4C1160.18 4 1160.4 23.4924 1182.13 23.4924C1203.86 23.4924 1203.94 4 1225.77 4C1247.6 4 1247.57 23.4924 1269.4 23.4924C1291.23 23.4924 1291.33 4 1313.04 4C1334.75 4 1334.97 23.4924 1356.7 23.4924C1378.43 23.4924 1378.63 4 1400.36 4C1422.1 4 1422.29 23.4924 1444 23.4924" stroke="#29ABE2" stroke-width="6.61507" stroke-linecap="round" stroke-linejoin="round"/>
</svg>
