<svg width="723" height="610" viewBox="0 0 723 610" fill="none" xmlns="http://www.w3.org/2000/svg">
<path d="M501.939 405.991L496.221 457.154H550.543L531.959 402.832L501.939 405.991Z" fill="#EF98C0"/>
<path d="M543.992 437.143C543.992 437.143 536.66 457.101 521.553 457.101C506.446 457.101 498.226 440.977 498.226 440.977L391.888 495.592L379 608.214L658.235 609.639L633.891 467.08L543.992 437.143Z" fill="#85C6AB"/>
<path d="M469.537 197.392C469.537 197.392 508.721 118.523 598.717 178.521C688.713 238.519 588.717 445.654 663 421.369C663 421.369 580.146 462.796 565.861 411.369C551.576 359.943 560.147 304.231 560.147 304.231L469.537 197.392Z" fill="#FFDAF7"/>
<path d="M538.154 402.531C538.154 402.531 535.15 411.409 518.063 411.409C500.975 411.409 498.127 401.936 498.127 401.936C498.127 401.936 535.463 394.994 538.154 402.531Z" fill="#63151B"/>
<path d="M585.455 222.505L593.238 314.26C593.776 320.559 593.179 326.904 591.475 332.994L583.635 360.944C581.511 368.503 577.734 375.5 572.575 381.435C567.416 387.369 561.002 392.095 553.793 395.272L536.077 403.063C529.47 405.97 522.339 407.512 515.115 407.596C507.891 407.679 500.726 406.302 494.053 403.548L481.153 398.197C473.485 395.036 466.664 390.137 461.232 383.89C455.801 377.643 451.908 370.221 449.864 362.214L439.716 322.521C437.545 313.991 437.545 305.056 439.716 296.526L455.783 232.535C458.292 222.349 463.791 213.139 471.579 206.077C479.368 199.015 489.093 194.423 499.514 192.885C504.735 192.129 510.03 192.014 515.28 192.542C542.456 195.396 582.588 193.969 585.455 222.505Z" fill="#EF98C0"/>
<path d="M524.247 218.286C524.247 218.286 528.552 279.476 426.651 292.283C426.651 292.283 430.957 169.903 518.506 188.402C523.879 197.394 525.91 207.966 524.247 218.286Z" fill="#FFB9F0"/>
<path d="M502.581 221.234C502.581 221.234 497.483 286.285 618.208 299.908C618.208 299.908 613.11 169.805 509.387 189.477C503.096 198.806 500.659 210.174 502.581 221.234V221.234Z" fill="#FFB9F0"/>
<path d="M522.485 326.592H512.843C508.926 326.592 505.751 329.928 505.751 334.044V335.341C505.751 339.456 508.926 342.793 512.843 342.793H522.485C526.402 342.793 529.577 339.456 529.577 335.341V334.044C529.577 329.928 526.402 326.592 522.485 326.592Z" fill="#FDCE34"/>
<path d="M494.315 306.643C494.315 306.643 488.591 295.385 477.156 297.259C465.722 299.133 463.818 310.391 463.818 310.391" fill="#09231E"/>
<path d="M572.463 311.342C572.463 311.342 570.904 298.422 559.679 296.365C548.454 294.308 542.919 304.638 542.919 304.638" fill="#09231E"/>
<path d="M479.279 350.418C479.279 350.418 514.071 368.901 541.013 357.559C541.013 357.559 535.05 385.423 505.019 382.623C474.988 379.822 479.279 350.418 479.279 350.418Z" fill="#09231E"/>
<path d="M526.796 337.257C527.547 337.047 528.356 337.017 529.126 337.172C529.897 337.327 530.597 337.66 531.141 338.132C531.543 338.43 531.865 338.792 532.088 339.196C532.311 339.6 532.429 340.037 532.436 340.48C532.442 340.923 532.337 341.362 532.126 341.77C531.916 342.179 531.604 342.547 531.212 342.853C530.819 343.159 530.353 343.395 529.843 343.548C529.334 343.701 528.791 343.766 528.249 343.74C527.707 343.714 527.177 343.597 526.693 343.396C526.209 343.196 525.781 342.916 525.435 342.575C525.189 342.371 524.98 342.14 524.812 341.89" stroke="#0071BC" stroke-width="0.691375" stroke-miterlimit="10"/>
</svg>
