<svg width="552" height="425" viewBox="0 0 552 425" fill="none" xmlns="http://www.w3.org/2000/svg">
<mask id="mask0_93_7210" style="mask-type:alpha" maskUnits="userSpaceOnUse" x="0" y="0" width="552" height="425">
<rect width="552" height="425" rx="15" fill="#FFDAF7"/>
</mask>
<g mask="url(#mask0_93_7210)">
<rect width="552" height="425" rx="15" fill="#FFDAF7"/>
<path d="M379.294 222.12C380.892 213.952 377.217 206.561 370.989 199.486C360.048 187.132 359.985 182.252 370.844 170.215C377.799 162.507 380.093 154.289 379.335 144.151C378.152 128.173 380.57 124.876 396.432 121.313C406.637 119.026 413.509 114.064 418.782 105.213C426.724 91.9405 431.011 90.5214 445.253 96.2999C455.094 100.302 464.011 100.843 474.112 96.596C489.091 90.307 493.514 91.6955 501.549 105.335C507.32 115.136 515.573 119.547 526.12 122.14C539.719 125.478 542.895 129.664 541.12 143.222C539.729 153.891 542.532 162.222 549.674 170.246C560.356 182.242 560.325 186.887 549.954 198.669C542.947 206.632 539.688 214.851 541.214 225.652C543.124 239.261 539.231 244.621 525.497 247.429C514.005 249.777 506.012 255.371 500.728 265.581C495.445 275.79 487.078 278.853 476.603 273.687C465.434 268.225 454.804 268.133 443.582 273.687C433.751 278.618 425.281 276.413 420.246 266.398C414.682 255.341 406.014 249.613 393.733 247.143C380.539 244.509 378.775 240.496 379.294 222.12Z" fill="#0A0C35"/>
<path d="M509.229 205.172C509.229 205.172 525.905 194.794 525.905 214.075C525.905 233.356 515.264 234.841 509.229 230.354C503.194 225.867 509.229 205.172 509.229 205.172Z" fill="#662D91"/>
<path d="M411.912 205.172C411.912 205.172 395.236 194.794 395.236 214.075C395.236 233.356 405.877 234.841 411.912 230.354C417.947 225.867 411.912 205.172 411.912 205.172Z" fill="#662D91"/>
<path d="M448.726 287.398L435.335 319.967H485.806L476.536 283.734L450.456 287.327L448.726 287.398Z" fill="#662D91"/>
<path d="M477.509 287.623C477.509 287.623 475.33 293.991 462.934 293.991C450.538 293.991 448.472 287.196 448.472 287.196C448.472 287.196 475.557 282.216 477.509 287.623Z" fill="#63151B"/>
<path d="M484.849 148.105C475.113 144.168 464.273 143.915 454.364 147.394C437.034 153.203 408.137 168.733 409.086 207.683C410.426 263.225 415.818 282.267 457.601 288.612C499.385 294.956 510.179 248.941 511.519 221.968C512.673 198.847 514.869 160.566 484.849 148.105Z" fill="#662D91"/>
<path d="M480.091 301.51C480.091 301.51 473.949 315.827 461.303 315.827C448.657 315.827 441.781 304.271 441.781 304.271L352.785 343.438L342 424.226L575.685 425.249L555.315 322.985L480.091 301.51Z" fill="#EF98C0"/>
<path d="M444.323 213.08C444.323 213.08 440.816 206.146 433.812 207.297C426.808 208.447 425.656 215.372 425.656 215.372" fill="#09231E"/>
<path d="M494.102 216.055C494.102 216.055 493.165 207.942 486.326 206.654C479.486 205.365 476.126 211.85 476.126 211.85" fill="#09231E"/>
<path d="M474.744 258.1C474.744 258.1 458.031 262.612 446.049 256.967C434.068 251.321 430.496 246.818 430.496 246.818" stroke="#110A03" stroke-width="2.37142" stroke-miterlimit="10" stroke-linecap="round"/>
<path d="M514.702 231.088C514.854 230.321 515.272 229.629 515.886 229.131C516.5 228.633 517.27 228.361 518.066 228.361C518.861 228.361 519.632 228.633 520.246 229.131C520.86 229.629 521.278 230.321 521.429 231.088C523.647 242.756 528.031 260.965 535.32 272.704C546.774 291.127 512.412 304.545 512.922 289.653C513.328 278.385 511.516 248.058 514.702 231.088Z" fill="#FDCE34"/>
<path d="M405.798 231.105C405.656 230.335 405.253 229.638 404.656 229.137C404.06 228.636 403.309 228.361 402.533 228.361C401.758 228.361 401.007 228.636 400.411 229.137C399.814 229.638 399.41 230.335 399.269 231.105C397.103 242.77 392.852 260.974 385.756 272.71C374.622 291.128 408.025 304.543 407.529 289.655C407.144 278.389 408.895 248.071 405.798 231.105Z" fill="#FDCE34"/>
<path d="M463.336 236.564C470.018 236.564 475.435 233.044 475.435 228.702C475.435 224.36 470.018 220.84 463.336 220.84C456.654 220.84 451.237 224.36 451.237 228.702C451.237 233.044 456.654 236.564 463.336 236.564Z" fill="#EF98C0"/>
<path d="M512.06 217.424C512.06 217.424 500.503 215.084 503.604 199.759C503.604 199.759 493.267 193.63 496.368 187.5C496.368 187.5 485.338 187.203 485.689 178.162C485.689 178.162 479.828 185.456 468.456 178.305C468.456 178.305 463.287 185.456 455.017 182.392C455.017 182.392 448.815 195.336 434.89 188.358C434.89 188.358 432.274 203.846 420.903 199.759C420.903 199.759 416.096 210.997 409.201 202.313C402.306 193.63 394.025 200.781 392.991 182.392C392.991 182.392 375.417 169.11 389.89 152.764C389.89 152.764 384.339 126.12 405.211 124.628C405.211 124.628 421.286 100.906 444.359 116.619C444.359 116.619 457.168 95.2561 481.42 111.245C481.42 111.245 510.841 97.5957 520.144 123.137C520.144 123.137 540.427 139.483 528.218 154.807C528.218 154.807 533.387 176.977 516.423 180.706C516.423 180.706 523.039 186.253 516.423 197.052C516.382 197.093 519.442 209.547 512.06 217.424Z" fill="#0A0C35"/>
<path d="M246.742 279.978L242.614 316.495H281.825L268.411 277.723L246.742 279.978Z" fill="#EF98C0"/>
<path d="M277.096 302.211C277.096 302.211 271.804 316.456 260.899 316.456C249.994 316.456 244.061 304.948 244.061 304.948L167.303 343.929L158 424.314L359.56 425.331L341.988 323.579L277.096 302.211Z" fill="#85C6AB"/>
<path d="M223.352 131.089C223.352 131.089 251.637 74.7958 316.599 117.619C381.561 160.443 309.381 308.287 363 290.953C363 290.953 303.194 320.522 292.882 283.816C282.571 247.11 288.758 207.345 288.758 207.345L223.352 131.089Z" fill="#1E5884"/>
<path d="M272.883 277.508C272.883 277.508 270.714 283.845 258.38 283.845C246.046 283.845 243.99 277.083 243.99 277.083C243.99 277.083 270.94 272.128 272.883 277.508Z" fill="#63151B"/>
<path d="M307.025 149.011L312.643 214.502C313.032 218.998 312.601 223.526 311.371 227.873L305.711 247.823C304.179 253.217 301.452 258.212 297.728 262.448C294.004 266.684 289.375 270.056 284.171 272.324L271.383 277.885C266.614 279.96 261.466 281.061 256.252 281.12C251.038 281.18 245.865 280.197 241.048 278.231L231.737 274.412C226.202 272.156 221.278 268.659 217.358 264.2C213.437 259.742 210.627 254.444 209.151 248.729L201.826 220.398C200.259 214.309 200.259 207.932 201.826 201.843L213.424 156.17C215.235 148.9 219.204 142.326 224.826 137.285C230.448 132.245 237.468 128.967 244.99 127.869C248.759 127.33 252.581 127.248 256.371 127.625C275.987 129.662 304.956 128.643 307.025 149.011Z" fill="#EF98C0"/>
<path d="M262.843 146.001C262.843 146.001 265.951 189.676 192.396 198.817C192.396 198.817 195.504 111.468 258.699 124.672C262.578 131.089 264.044 138.635 262.843 146.001Z" fill="#1B6AB2"/>
<path d="M247.204 148.105C247.204 148.105 243.525 194.535 330.668 204.258C330.668 204.258 326.988 111.397 252.118 125.438C247.576 132.097 245.817 140.211 247.204 148.105Z" fill="#1B6AB2"/>
<path d="M261.572 223.305H254.612C251.785 223.305 249.493 225.686 249.493 228.624V229.549C249.493 232.487 251.785 234.868 254.612 234.868H261.572C264.399 234.868 266.691 232.487 266.691 229.549V228.624C266.691 225.686 264.399 223.305 261.572 223.305Z" fill="#FDCE34"/>
<path d="M241.238 209.067C241.238 209.067 237.106 201.031 228.852 202.369C220.598 203.706 219.225 211.742 219.225 211.742" fill="#09231E"/>
<path d="M297.648 212.421C297.648 212.421 296.522 203.199 288.42 201.731C280.317 200.262 276.322 207.635 276.322 207.635" fill="#09231E"/>
<path d="M230.384 240.311C230.384 240.311 255.499 253.503 274.946 245.408C274.946 245.408 270.642 265.296 248.965 263.297C227.288 261.298 230.384 240.311 230.384 240.311Z" fill="#09231E"/>
<path d="M264.684 230.918C265.226 230.767 265.81 230.746 266.366 230.857C266.922 230.968 267.427 231.206 267.82 231.542C268.11 231.755 268.343 232.013 268.504 232.301C268.664 232.59 268.75 232.902 268.755 233.218C268.759 233.534 268.683 233.848 268.531 234.139C268.379 234.43 268.155 234.694 267.871 234.912C267.588 235.13 267.251 235.299 266.883 235.408C266.516 235.517 266.124 235.563 265.733 235.545C265.341 235.526 264.959 235.443 264.61 235.3C264.26 235.157 263.951 234.957 263.701 234.713C263.524 234.568 263.373 234.403 263.251 234.224" stroke="#0071BC" stroke-width="0.691375" stroke-miterlimit="10"/>
<path d="M134.229 204.897C134.229 204.897 150.905 194.519 150.905 213.8C150.905 233.081 140.264 234.566 134.229 230.079C128.194 225.592 134.229 204.897 134.229 204.897Z" fill="#304F9D"/>
<path d="M36.9122 204.897C36.9122 204.897 20.2358 194.519 20.2358 213.8C20.2358 233.081 30.8775 234.566 36.9122 230.079C42.947 225.592 36.9122 204.897 36.9122 204.897Z" fill="#304F9D"/>
<path d="M73.2176 287.124L59.644 319.694H110.806L101.409 283.461L74.9717 287.054L73.2176 287.124Z" fill="#304F9D"/>
<path d="M102.509 287.347C102.509 287.347 100.33 293.715 87.9337 293.715C75.5377 293.715 73.4717 286.92 73.4717 286.92C73.4717 286.92 100.557 281.94 102.509 287.347Z" fill="#1B1464"/>
<path d="M109.849 147.83C100.113 143.893 89.2734 143.64 79.3642 147.119C62.0343 152.927 33.1373 168.458 34.0858 207.408C35.426 262.95 40.8177 281.992 82.6012 288.336C124.385 294.68 135.179 248.665 136.519 221.693C137.673 198.572 139.869 160.291 109.849 147.83Z" fill="#304F9D"/>
<path d="M105.091 301.236C105.091 301.236 98.9492 315.553 86.3033 315.553C73.6575 315.553 66.7813 303.997 66.7813 303.997L-22.2154 343.164L-33 423.952L200.685 424.975L180.315 322.712L105.091 301.236Z" fill="#C7B299"/>
<path d="M72.089 210.071C72.089 210.071 68.582 203.136 61.5779 204.287C54.5739 205.438 53.4219 212.362 53.4219 212.362" fill="#09231E"/>
<path d="M121.868 213.046C121.868 213.046 120.931 204.932 114.091 203.644C107.252 202.356 103.892 208.84 103.892 208.84" fill="#09231E"/>
<path d="M97.6699 257.824C97.6699 257.824 80.9568 262.337 68.9756 256.691C56.9943 251.046 53.4219 246.543 53.4219 246.543" stroke="#110A03" stroke-width="2.37142" stroke-miterlimit="10" stroke-linecap="round"/>
<path d="M88.3359 239.708C95.018 239.708 100.435 236.341 100.435 232.188C100.435 228.035 95.018 224.668 88.3359 224.668C81.6538 224.668 76.2368 228.035 76.2368 232.188C76.2368 236.341 81.6538 239.708 88.3359 239.708Z" fill="#EF98C0"/>
</g>
</svg>
