<svg width="628" height="403" viewBox="0 0 628 403" fill="none" xmlns="http://www.w3.org/2000/svg">
<g clip-path="url(#clip0_258_17470)">
<rect width="628" height="403" fill="white"/>
<mask id="mask0_258_17470" style="mask-type:alpha" maskUnits="userSpaceOnUse" x="-501" y="-55" width="1440" height="452">
<path d="M900 -55H-462C-483.539 -55 -501 -37.5391 -501 -16V358C-501 379.539 -483.539 397 -462 397H900C921.539 397 939 379.539 939 358V-16C939 -37.5391 921.539 -55 900 -55Z" fill="#FFDFAE"/>
</mask>
<g mask="url(#mask0_258_17470)">
<path d="M586 8H38C16.4609 8 -1 25.4609 -1 47V358C-1 379.539 16.4609 397 38 397H586C607.539 397 625 379.539 625 358V47C625 25.4609 607.539 8 586 8Z" fill="#FFDFAE"/>
<path d="M524.726 208.266C525.741 198.745 533.002 187.129 541.7 191.131C544.816 192.565 547.211 196.275 547.211 204.292C547.211 227.247 534.683 229.016 527.578 223.674C524.299 221.208 524.047 214.633 524.726 208.266Z" fill="#C1272D"/>
<path d="M536.702 216.416C542.404 219.769 546.396 227.588 546.396 236.716C546.396 248.878 539.29 258.741 530.524 258.741C521.758 258.741 514.652 248.878 514.652 236.716C514.653 234.856 514.825 233.001 515.165 231.173" stroke="#FDCE34" stroke-width="7" stroke-miterlimit="10"/>
<path d="M415.044 208.131C414.055 198.702 406.762 186.805 398.402 191.276C395.539 192.808 393.376 196.533 393.376 204.292C393.376 227.247 405.457 229.016 412.307 223.674C415.492 221.191 415.716 214.54 415.044 208.131Z" fill="#C1272D"/>
<path d="M403.07 216.416C397.368 219.769 393.376 227.588 393.376 236.716C393.376 248.878 400.482 258.741 409.248 258.741C418.014 258.741 425.12 248.878 425.12 236.716C425.119 234.856 424.947 233.001 424.607 231.173" stroke="#FDCE34" stroke-width="7" stroke-miterlimit="10"/>
<path d="M457.571 291.508C456.331 291.559 455.234 292.331 454.766 293.481L450.771 303.31C445.516 316.236 455.027 330.369 468.981 330.369H472.978C486.276 330.369 496.021 317.852 492.76 304.96V304.96C490.207 294.87 480.47 288.318 470.162 289.754L457.571 291.508V291.508Z" fill="#C1272D"/>
<path d="M482.231 288.968C487.477 289.357 488.413 295.052 483.668 297.322C481.165 298.52 477.628 299.439 472.67 299.439V299.439C462.165 299.439 465.003 289.455 475.496 288.946C477.883 288.831 480.195 288.818 482.231 288.968Z" fill="#63151B"/>
<path d="M498.876 125.748C487.414 121.061 474.653 120.76 462.987 124.902C442.585 131.817 408.565 150.308 409.682 196.682C411.26 262.809 417.607 285.481 466.798 293.034C515.989 300.587 528.696 245.802 530.274 213.689C531.633 186.161 534.218 140.584 498.876 125.748Z" fill="#C1272D"/>
<path d="M520.776 316.566C504.617 311.9 487.161 325.436 470.342 325.436V325.436V325.436C454.434 325.436 436.38 316.565 421.846 323.033L362.535 349.431C350.14 354.947 341.503 366.508 339.728 379.958L335.685 410.588C332.61 433.883 350.68 454.588 374.177 454.692L557.355 455.502C581.989 455.611 600.553 433.136 595.792 408.966L585.615 357.295C582.793 342.965 572.2 331.413 558.168 327.362L520.776 316.566Z" fill="#EF98C0"/>
<path d="M465.054 204.265C465.517 202.813 466.442 201.548 467.693 200.658C468.943 199.767 470.452 199.3 471.993 199.325C473.534 199.35 475.026 199.867 476.246 200.797C477.373 201.657 478.212 202.827 478.66 204.156C478.734 204.375 478.8 204.599 478.851 204.824V204.824C481.734 216.208 488.921 243.238 477.403 243.238C465.885 243.238 460.12 244.654 460.12 230.425C460.082 221.515 462.902 210.926 465.054 204.265Z" fill="#EF98C0"/>
<path d="M454.422 199.852C454.422 199.852 450.293 191.596 442.047 192.966C433.802 194.336 432.445 202.58 432.445 202.58" fill="#09231E"/>
<path d="M513.025 203.393C513.025 203.393 511.921 193.734 503.87 192.2C495.818 190.666 491.862 198.386 491.862 198.386" fill="#09231E"/>
<path d="M483.723 256.707C483.723 256.707 464.662 262.08 450.998 255.358C437.334 248.636 433.259 243.275 433.259 243.275" stroke="#110A03" stroke-width="2.37142" stroke-miterlimit="10" stroke-linecap="round"/>
<path d="M292.303 380.071L311.165 379.116C316.836 378.829 322.155 381.871 324.781 386.905C329.506 395.962 323.657 406.938 313.504 408.066L294.734 410.151C287.224 410.986 280.254 406.139 278.421 398.809C276.115 389.585 282.808 380.552 292.303 380.071Z" fill="#EF98C0"/>
<path d="M260.683 337.277L268.998 364.456C272.051 374.434 281.05 381.414 291.473 381.888L314.655 382.943C318.246 383.106 321.087 379.939 320.536 376.386L320.14 373.831C319.99 372.867 319.226 372.114 318.26 371.98L316.643 371.755C314.145 371.407 314.329 367.74 316.848 367.643C318.083 367.595 319 366.482 318.811 365.261L317.894 359.351C317.629 357.645 316.313 356.294 314.615 355.984L312.376 355.576C308.306 354.834 308.384 348.973 312.472 348.339C314.475 348.028 315.847 346.152 315.536 344.149L314.718 338.871C314.523 337.614 313.486 336.658 312.217 336.564L311.114 336.483C308.021 336.255 307.841 331.782 310.906 331.307C312.329 331.086 313.303 329.754 313.083 328.331L312.042 321.622C311.529 318.31 308.584 315.929 305.238 316.121C301.741 316.32 298.714 313.719 298.385 310.232L297.365 299.401C296.775 293.147 290.488 289.093 284.548 291.137C279.029 293.036 276.424 299.343 278.994 304.583L279.581 305.78C282.732 312.205 278.928 319.87 271.906 321.246L270.082 321.603C262.921 323.007 258.549 330.299 260.683 337.277Z" fill="#C1272D"/>
</g>
<path d="M241.019 204.444C234.029 215.639 231.036 228.363 225.014 239.894C221.166 247.245 216.463 246.723 210.608 243.999C206.778 242.133 205.663 238.812 205.719 234.67C205.938 226.812 205.59 218.949 204.678 211.142C201.444 220.471 198.302 229.8 194.919 239.129C193.881 242.037 192.482 244.801 190.755 247.357C187.632 251.928 184.119 248.757 181.033 247.189C178.375 245.846 176.851 243.887 179.063 240.472C189.361 224.669 192.633 206.048 199.324 188.79C200.979 184.535 201.183 178.64 208.842 180.281C216.277 181.867 221.854 184.218 221.854 193.062C221.854 201.906 221.854 211.049 221.854 220.34C227.746 210.862 230.999 200.059 235.516 189.834C237.375 185.692 237.561 179.293 244.811 180.375C252.804 181.569 258.752 188.118 257.823 195.749C256.837 204.649 254.718 213.437 253.361 222.318C251.502 234.073 253.603 244.708 263.827 252.171C274.608 260.045 286.523 260.063 298.234 255.119C308.476 250.809 316.822 243.551 320.354 232.729C321.748 228.494 322.38 225.639 327.418 227.337C332.455 229.035 335.764 232.095 332.994 237.767C323.923 256.201 309.945 268.721 289.033 270.698C260.778 273.348 233.509 258.888 239.755 213.362C239.996 210.321 240.572 207.392 241.019 204.444Z" fill="#662D91"/>
<path d="M113.761 120.608C122.101 107.146 128.56 92.6262 132.963 77.444C134.84 70.5043 137.693 70.002 143.531 72.0671C157.271 77.0533 158.81 80.0115 152.259 92.9421C139.852 117.482 127.032 141.929 116.914 167.605C114.211 174.47 110.345 179.679 101.429 175.512C93.0194 171.567 91.0484 167.567 94.8964 158.581C98.7444 149.595 100.922 142.376 93.9767 133.166C88.7397 126.227 94.7275 116.31 93.9767 107.249C93.3572 99.3047 89.284 90.9514 85.6425 83.3419C83.7655 79.3232 86.2995 78.5231 89.3966 77.9278C99.6829 75.9556 108.618 82.4488 111.02 93.7049C112.935 102.598 112.747 111.566 113.761 120.608Z" fill="#662D91"/>
<path d="M132.075 224.212C131.55 211.547 138.616 199.999 140.322 186.961C140.903 182.528 147.088 183.87 150.931 185.285C155.542 187.017 159.497 189.42 157.566 195.529C154.698 204.656 151.081 213.559 149.713 223.132C148.888 228.925 146.564 236.785 153.199 238.517C158.653 239.932 159.759 231.644 161.577 227.006C166.376 214.937 168.681 202.123 171.737 189.513C173.067 183.925 174.642 178.338 182.777 180.461C190.912 182.584 190.986 187.427 188.737 193.965C183.433 209.405 180.565 225.796 171.305 239.709C162.571 252.747 146.601 253.51 136.854 241.348C132.918 236.524 131.662 230.88 132.075 224.212Z" fill="#662D91"/>
<path d="M130.98 198.276C130.603 203.14 129.429 207.914 127.503 212.419C125.765 217.06 122.686 218.344 117.887 216.473C112.748 214.456 112.427 211.667 115.242 207.301C116.943 204.678 119.625 200.697 115.544 198.661C112.371 197.084 110.311 201.156 108.573 203.559C101.677 213.043 102.546 216.4 113.655 224.141C126.88 233.313 126.88 243.971 113.655 251.162C103.397 256.665 83.9184 249.071 80.48 238.175C78.5907 232.231 82.5959 229.7 86.9601 227.718C93.0246 224.985 92.6279 230.121 93.6103 233.332C94.5927 236.542 95.0839 240.156 99.3347 240.963C100.11 241.097 100.91 240.992 101.621 240.663C102.333 240.334 102.92 239.798 103.302 239.128C105.531 235.46 104.53 232.029 102.32 228.874C100.563 226.361 98.5412 224.05 96.463 221.72C87.338 211.172 87.3568 204.953 96.5953 193.488C104.152 184.078 112.182 182.61 124.008 188.499C128.184 190.48 131.282 193.25 130.98 198.276Z" fill="#662D91"/>
<path d="M259.803 144.878C262.423 138.326 264.743 131.605 267.831 125.259C269.477 121.842 269.515 115.571 276.102 117.542C281.996 119.307 285.945 122.893 284.803 129.877C283.662 136.862 282.595 143.395 281.603 150.173C281.22 152.659 281.008 155.168 280.967 157.683C280.967 160.518 283.362 164.761 278.385 164.986C273.875 165.193 271.087 161.963 271.012 157.138C271.012 151.938 272.228 146.7 270.039 139.715C266.82 147.019 264.425 153.102 261.487 158.978C259.896 162.226 258.381 166.113 253.235 164.404C248.818 162.94 246.61 160.292 246.91 155.43C247.302 150.805 246.845 146.147 245.562 141.687C243.017 148.558 240.435 155.411 237.965 162.339C236.374 166.732 233.736 168.272 229.376 165.868C225.015 163.465 227.71 160.95 229.188 158.359C235.214 147.357 237.778 135.04 242.287 123.457C243.579 120.115 243.878 115.947 249.586 117.242C254.638 118.406 258.455 119.908 258.287 126.066C258.119 132.224 258.287 138.457 258.287 144.653L259.803 144.878Z" fill="#662D91"/>
<path d="M293.807 116.453C301.595 115.608 308.934 114.726 316.217 114.05C319.952 113.693 323.687 115.233 323.985 119.062C324.284 123.248 319.914 121.54 317.524 122.197C314.775 122.656 312.065 123.328 309.419 124.206C308.193 124.912 307.19 125.954 306.529 127.21C305.868 128.466 305.575 129.885 305.684 131.302C305.684 134.756 308.43 133.761 310.39 134.174C312.911 134.699 315.526 135.694 315.545 138.679C315.545 142.039 312.501 141.983 310.148 142.546C307.71 142.975 305.312 143.603 302.977 144.423C301.653 144.95 300.573 145.953 299.945 147.237C299.316 148.521 299.186 149.994 299.578 151.369C300.474 154.11 303.313 151.744 305.311 151.707C307.309 151.669 309.046 150.843 310.913 150.918C313.845 151.05 316.87 152.308 317.375 155.292C317.972 158.859 314.275 158.596 312.146 159.047C304.807 160.661 297.374 167.344 290.054 158.559C287.869 155.931 285.908 153.265 287.701 150.28C291.324 144.273 289.045 136.689 294.162 130.757C297.057 127.435 296.609 121.427 293.807 116.453Z" fill="#662D91"/>
<path d="M199.824 72.5737C189.703 68.5583 178.602 72.1834 169.166 83.9509C156.085 100.217 148 118.659 148 139.963C148.058 146.349 150.068 152.564 153.758 157.764C157.448 162.965 162.64 166.9 168.63 169.038C181.581 174.001 193.311 173.332 203.191 162.364C217.456 146.544 223.581 127.507 225.986 109.531C226.411 91.4985 217.197 79.4521 199.824 72.5737ZM207.225 104.419C203.691 121.819 197.308 138.029 186.41 152.121C183.709 155.634 180.749 160.356 175.309 158.051C170.221 155.932 170.202 150.875 170.424 146.042C172.848 127.805 178.436 110.721 189.852 96.0158C192.849 92.1677 196.623 87.799 202.174 90.6247C207.724 93.4504 208.205 98.9903 207.169 104.419H207.225Z" fill="#662D91"/>
<path d="M298.82 177.233C289.645 173.521 283.443 178.793 278.195 185.048C269.803 194.981 264.837 207.407 264.047 220.449C263.737 225.117 264.957 229.758 267.518 233.655C270.079 237.551 273.838 240.484 278.213 242C288.709 245.899 295.535 244.284 302.6 235.503C310.574 225.625 315.256 213.449 315.977 200.716C316.399 189.689 311.077 182.301 298.82 177.233ZM303.756 198.321C301.588 210.16 296.739 221.33 289.59 230.955C287.957 233.053 285.92 235.689 282.801 234.668C279.681 233.647 278.911 230.287 279.002 227.057C280.635 214.675 284.305 203.036 291.994 193.086C293.976 190.525 296.453 187.406 300.398 189.559C303.774 191.378 304.472 194.757 303.756 198.321Z" fill="#662D91"/>
</g>
<defs>
<clipPath id="clip0_258_17470">
<rect width="628" height="403" fill="white"/>
</clipPath>
</defs>
</svg>
