<svg width="370" height="355" viewBox="0 0 370 355" fill="none" xmlns="http://www.w3.org/2000/svg">
<g filter="url(#filter0_d_250_17252)">
<mask id="mask0_250_17252" style="mask-type:alpha" maskUnits="userSpaceOnUse" x="6" y="0" width="358" height="342">
<rect x="6" width="358" height="342" rx="23" fill="#D9D9D9"/>
</mask>
<g mask="url(#mask0_250_17252)">
<rect x="6" width="358" height="342" rx="23" fill="#FFDFAE"/>
<path d="M288.921 89.897C288.921 89.897 305.597 79.4014 305.597 98.9006C305.597 118.4 294.956 119.902 288.921 115.364C282.886 110.826 288.921 89.897 288.921 89.897Z" fill="#C1272D"/>
<path d="M296.671 109.199C301.514 112.047 304.906 118.689 304.906 126.442C304.906 136.773 298.87 145.151 291.424 145.151C283.978 145.151 277.942 136.773 277.942 126.442C277.943 124.863 278.089 123.287 278.377 121.734" stroke="#FDCE34" stroke-width="7" stroke-miterlimit="10"/>
<path d="M191.008 89.897C191.008 89.897 174.927 79.4014 174.927 98.9006C174.927 118.4 185.189 119.902 191.008 115.364C196.827 110.826 191.008 89.897 191.008 89.897Z" fill="#C1272D"/>
<path d="M183.162 109.199C178.318 112.047 174.927 118.689 174.927 126.442C174.927 136.773 180.963 145.151 188.409 145.151C195.855 145.151 201.891 136.773 201.891 126.442C201.89 124.863 201.744 123.287 201.455 121.734" stroke="#FDCE34" stroke-width="7" stroke-miterlimit="10"/>
<path d="M227.726 173.055L214.335 205.992H264.806L255.536 169.35L229.456 172.983L227.726 173.055Z" fill="#C1272D"/>
<path d="M256.509 173.28C256.509 173.28 254.382 179.72 242.281 179.72C230.18 179.72 228.163 172.848 228.163 172.848C228.163 172.848 254.604 167.812 256.509 173.28Z" fill="#63151B"/>
<path d="M264.541 32.1835C254.805 28.2022 243.965 27.9467 234.056 31.4648C216.726 37.3391 187.829 53.0454 188.778 92.4362C190.118 148.606 195.51 167.864 237.293 174.28C279.077 180.696 289.87 134.16 291.211 106.882C292.365 83.4999 294.561 44.786 264.541 32.1835Z" fill="#C1272D"/>
<path d="M259.091 187.324C259.091 187.324 252.949 201.803 240.303 201.803C227.657 201.803 220.781 190.117 220.781 190.117L131.785 229.727L121 311.429L354.685 312.463L334.315 209.043L259.091 187.324Z" fill="#EF98C0"/>
<path d="M235.812 98.8766C236.205 97.6434 236.991 96.5685 238.053 95.8123C239.115 95.0562 240.397 94.6591 241.706 94.6805C243.015 94.7019 244.283 95.1405 245.319 95.9309C246.355 96.7213 247.105 97.8212 247.456 99.0666C247.456 99.1616 247.51 99.2567 247.531 99.3517C249.98 109.021 256.085 131.981 246.302 131.981C236.518 131.981 231.62 133.184 231.62 121.097C231.588 113.529 233.984 104.535 235.812 98.8766Z" fill="#EF98C0"/>
<path d="M226.78 95.1278C226.78 95.1278 223.273 88.1151 216.269 89.2788C209.265 90.4424 208.113 97.4449 208.113 97.4449" fill="#09231E"/>
<path d="M276.559 98.1363C276.559 98.1363 275.622 89.9312 268.783 88.6283C261.943 87.3254 258.583 93.883 258.583 93.883" fill="#09231E"/>
<path d="M251.67 143.425C251.67 143.425 235.479 147.988 223.872 142.279C212.265 136.569 208.805 132.016 208.805 132.016" stroke="#110A03" stroke-width="2.37142" stroke-miterlimit="10" stroke-linecap="round"/>
<path d="M113 247L125 270L80 275L73.5 249L113 247Z" fill="#EF98C0"/>
</g>
<path d="M6 270H364V319C364 331.703 353.703 342 341 342H29C16.2975 342 6 331.703 6 319V270Z" fill="white"/>
<path d="M25.3422 315C24.4555 315 23.7055 314.83 23.0922 314.49C22.4855 314.157 22.0222 313.703 21.7022 313.13C21.3889 312.563 21.2322 311.923 21.2322 311.21C21.2322 310.663 21.3222 310.197 21.5022 309.81C21.6822 309.417 21.9122 309.07 22.1922 308.77C22.4722 308.47 22.7655 308.183 23.0722 307.91C23.3855 307.637 23.6789 307.353 23.9522 307.06C24.2255 306.767 24.4489 306.43 24.6222 306.05C24.8022 305.67 24.8922 305.217 24.8922 304.69V304.2H26.3122V304.71C26.3122 305.377 26.2089 305.94 26.0022 306.4C25.8022 306.853 25.5455 307.243 25.2322 307.57C24.9189 307.897 24.5989 308.203 24.2722 308.49C23.8455 308.85 23.4689 309.23 23.1422 309.63C22.8155 310.03 22.6522 310.557 22.6522 311.21C22.6522 311.917 22.8822 312.507 23.3422 312.98C23.8089 313.453 24.4755 313.69 25.3422 313.69C26.3022 313.69 27.0455 313.417 27.5722 312.87C28.0989 312.33 28.3622 311.61 28.3622 310.71H29.7722C29.7722 311.563 29.5855 312.31 29.2122 312.95C28.8455 313.597 28.3289 314.1 27.6622 314.46C26.9955 314.82 26.2222 315 25.3422 315ZM25.6322 302.75C25.3055 302.75 25.0355 302.643 24.8222 302.43C24.6155 302.21 24.5122 301.95 24.5122 301.65C24.5122 301.357 24.6155 301.1 24.8222 300.88C25.0355 300.653 25.3055 300.54 25.6322 300.54C25.9389 300.54 26.2055 300.653 26.4322 300.88C26.6589 301.1 26.7722 301.357 26.7722 301.65C26.7722 301.95 26.6589 302.21 26.4322 302.43C26.2055 302.643 25.9389 302.75 25.6322 302.75ZM41.3034 312.26L40.1834 310.59C39.8101 310.797 39.4034 310.957 38.9634 311.07C38.5301 311.183 38.0501 311.24 37.5234 311.24C36.4568 311.24 35.5534 311.03 34.8134 310.61C34.0801 310.183 33.4868 309.62 33.0334 308.92C32.5868 308.213 32.2601 307.433 32.0534 306.58C31.8468 305.727 31.7434 304.867 31.7434 304C31.7434 303.133 31.8468 302.273 32.0534 301.42C32.2601 300.567 32.5868 299.79 33.0334 299.09C33.4868 298.383 34.0801 297.82 34.8134 297.4C35.5534 296.973 36.4568 296.76 37.5234 296.76C38.5968 296.76 39.5034 296.973 40.2434 297.4C40.9834 297.82 41.5768 298.383 42.0234 299.09C42.4701 299.79 42.7934 300.567 42.9934 301.42C43.2001 302.273 43.3034 303.133 43.3034 304C43.3034 304.727 43.2334 305.453 43.0934 306.18C42.9601 306.9 42.7401 307.58 42.4334 308.22C42.1268 308.853 41.7201 309.407 41.2134 309.88L42.3334 311.53L41.3034 312.26ZM37.5234 309.91C37.8901 309.91 38.2268 309.87 38.5334 309.79C38.8468 309.703 39.1301 309.583 39.3834 309.43L38.3134 307.82L39.3734 307.09L40.4034 308.64C40.9234 308.053 41.2934 307.34 41.5134 306.5C41.7334 305.653 41.8434 304.82 41.8434 304C41.8434 303.267 41.7668 302.55 41.6134 301.85C41.4668 301.143 41.2234 300.507 40.8834 299.94C40.5501 299.373 40.1068 298.923 39.5534 298.59C39.0068 298.25 38.3301 298.08 37.5234 298.08C36.7234 298.08 36.0468 298.26 35.4934 298.62C34.9468 298.973 34.5034 299.443 34.1634 300.03C33.8301 300.61 33.5868 301.25 33.4334 301.95C33.2801 302.643 33.2034 303.327 33.2034 304C33.2034 304.733 33.2801 305.453 33.4334 306.16C33.5868 306.86 33.8301 307.493 34.1634 308.06C34.5034 308.62 34.9468 309.07 35.4934 309.41C36.0468 309.743 36.7234 309.91 37.5234 309.91ZM50.5552 311.24C49.3485 311.24 48.4485 310.873 47.8552 310.14C47.2685 309.407 46.9752 308.29 46.9752 306.79V300.78H48.3752V307.02C48.3752 307.98 48.5752 308.707 48.9752 309.2C49.3752 309.693 49.9552 309.94 50.7152 309.94C51.5618 309.94 52.1985 309.683 52.6252 309.17C53.0585 308.65 53.2752 307.89 53.2752 306.89V300.78H54.6752V311H53.2752V309.77C52.9685 310.263 52.5885 310.633 52.1352 310.88C51.6885 311.12 51.1618 311.24 50.5552 311.24ZM62.4484 311.24C61.5418 311.24 60.7584 311.017 60.0984 310.57C59.4451 310.117 58.9418 309.487 58.5884 308.68C58.2351 307.873 58.0584 306.94 58.0584 305.88C58.0584 304.753 58.2418 303.793 58.6084 303C58.9818 302.2 59.4984 301.59 60.1584 301.17C60.8184 300.75 61.5818 300.54 62.4484 300.54C63.2018 300.54 63.8851 300.717 64.4984 301.07C65.1118 301.423 65.5984 301.97 65.9584 302.71C66.3184 303.45 66.4984 304.4 66.4984 305.56C66.4984 305.68 66.4951 305.817 66.4884 305.97C66.4818 306.117 66.4718 306.27 66.4584 306.43H59.5084C59.5618 307.137 59.7051 307.757 59.9384 308.29C60.1784 308.817 60.5084 309.233 60.9284 309.54C61.3551 309.84 61.8784 309.99 62.4984 309.99C62.9184 309.99 63.3218 309.917 63.7084 309.77C64.0951 309.617 64.4551 309.383 64.7884 309.07L65.6084 310.01C65.2351 310.363 64.7751 310.657 64.2284 310.89C63.6884 311.123 63.0951 311.24 62.4484 311.24ZM59.4884 305.2H65.0684C65.0684 304.567 64.9718 303.99 64.7784 303.47C64.5918 302.95 64.3018 302.537 63.9084 302.23C63.5218 301.923 63.0351 301.77 62.4484 301.77C61.6551 301.77 60.9784 302.043 60.4184 302.59C59.8651 303.137 59.5551 304.007 59.4884 305.2ZM61.4284 299.48L64.3284 296.36H66.3484L62.8484 299.48H61.4284ZM74.9423 315.06V300.78H76.3423V301.85C77.069 300.977 78.0023 300.54 79.1423 300.54C79.9823 300.54 80.709 300.757 81.3223 301.19C81.9357 301.623 82.409 302.24 82.7423 303.04C83.0757 303.84 83.2423 304.787 83.2423 305.88C83.2423 306.98 83.0723 307.933 82.7323 308.74C82.399 309.54 81.919 310.157 81.2923 310.59C80.6723 311.023 79.9357 311.24 79.0823 311.24C78.509 311.24 77.9923 311.12 77.5323 310.88C77.0723 310.633 76.6757 310.273 76.3423 309.8V314.39L74.9423 315.06ZM78.9423 309.92C79.8623 309.92 80.569 309.57 81.0623 308.87C81.5557 308.17 81.8023 307.173 81.8023 305.88C81.8023 304.64 81.5423 303.66 81.0223 302.94C80.509 302.213 79.8157 301.85 78.9423 301.85C78.3957 301.85 77.8957 301.987 77.4423 302.26C76.989 302.533 76.6223 302.92 76.3423 303.42V308.27C76.6957 308.81 77.0923 309.22 77.5323 309.5C77.9723 309.78 78.4423 309.92 78.9423 309.92ZM90.1723 311.24C88.9657 311.24 88.0657 310.873 87.4723 310.14C86.8857 309.407 86.5923 308.29 86.5923 306.79V300.78H87.9923V307.02C87.9923 307.98 88.1923 308.707 88.5923 309.2C88.9923 309.693 89.5723 309.94 90.3323 309.94C91.179 309.94 91.8157 309.683 92.2423 309.17C92.6757 308.65 92.8923 307.89 92.8923 306.89V300.78H94.2923V311H92.8923V309.77C92.5857 310.263 92.2057 310.633 91.7523 310.88C91.3057 311.12 90.779 311.24 90.1723 311.24ZM102.066 311.24C101.159 311.24 100.376 311.017 99.7156 310.57C99.0623 310.117 98.559 309.487 98.2056 308.68C97.8523 307.873 97.6756 306.94 97.6756 305.88C97.6756 304.753 97.859 303.793 98.2256 303C98.599 302.2 99.1156 301.59 99.7756 301.17C100.436 300.75 101.199 300.54 102.066 300.54C102.819 300.54 103.502 300.717 104.116 301.07C104.729 301.423 105.216 301.97 105.576 302.71C105.936 303.45 106.116 304.4 106.116 305.56C106.116 305.68 106.112 305.817 106.106 305.97C106.099 306.117 106.089 306.27 106.076 306.43H99.1256C99.179 307.137 99.3223 307.757 99.5556 308.29C99.7956 308.817 100.126 309.233 100.546 309.54C100.972 309.84 101.496 309.99 102.116 309.99C102.536 309.99 102.939 309.917 103.326 309.77C103.712 309.617 104.072 309.383 104.406 309.07L105.226 310.01C104.852 310.363 104.392 310.657 103.846 310.89C103.306 311.123 102.712 311.24 102.066 311.24ZM99.1056 305.2H104.686C104.686 304.567 104.589 303.99 104.396 303.47C104.209 302.95 103.919 302.537 103.526 302.23C103.139 301.923 102.652 301.77 102.066 301.77C101.272 301.77 100.596 302.043 100.036 302.59C99.4823 303.137 99.1723 304.007 99.1056 305.2ZM113.145 311.24C111.878 311.24 110.875 310.76 110.135 309.8C109.402 308.833 109.035 307.527 109.035 305.88C109.035 304.773 109.202 303.823 109.535 303.03C109.868 302.23 110.345 301.617 110.965 301.19C111.592 300.757 112.335 300.54 113.195 300.54C114.255 300.54 115.152 300.947 115.885 301.76V297.23L117.285 296.56V311H115.885V309.98C115.172 310.82 114.258 311.24 113.145 311.24ZM113.355 309.92C113.855 309.92 114.332 309.777 114.785 309.49C115.238 309.197 115.605 308.8 115.885 308.3V303.4C115.585 302.92 115.208 302.543 114.755 302.27C114.308 301.99 113.842 301.85 113.355 301.85C112.435 301.85 111.722 302.2 111.215 302.9C110.715 303.593 110.465 304.587 110.465 305.88C110.465 306.673 110.588 307.373 110.835 307.98C111.082 308.587 111.422 309.063 111.855 309.41C112.288 309.75 112.788 309.92 113.355 309.92ZM125.086 311.24C123.74 311.24 122.676 310.763 121.896 309.81C121.116 308.85 120.726 307.547 120.726 305.9C120.726 304.8 120.903 303.85 121.256 303.05C121.61 302.25 122.113 301.633 122.766 301.2C123.42 300.76 124.193 300.54 125.086 300.54C125.986 300.54 126.763 300.757 127.416 301.19C128.07 301.617 128.57 302.23 128.916 303.03C129.27 303.83 129.446 304.78 129.446 305.88C129.446 306.98 129.27 307.933 128.916 308.74C128.563 309.54 128.06 310.157 127.406 310.59C126.753 311.023 125.98 311.24 125.086 311.24ZM125.086 309.92C126.006 309.92 126.723 309.563 127.236 308.85C127.756 308.137 128.016 307.147 128.016 305.88C128.016 304.607 127.756 303.617 127.236 302.91C126.723 302.203 126.006 301.85 125.086 301.85C124.153 301.85 123.43 302.203 122.916 302.91C122.41 303.61 122.156 304.607 122.156 305.9C122.156 307.173 122.413 308.163 122.926 308.87C123.44 309.57 124.16 309.92 125.086 309.92ZM138.001 311V297.21L139.401 296.56V302.1C139.688 301.6 140.071 301.217 140.551 300.95C141.031 300.677 141.571 300.54 142.171 300.54C143.031 300.54 143.718 300.723 144.231 301.09C144.751 301.45 145.124 301.963 145.351 302.63C145.584 303.297 145.701 304.087 145.701 305V311H144.301V304.75C144.301 303.87 144.114 303.163 143.741 302.63C143.374 302.097 142.781 301.83 141.961 301.83C141.121 301.83 140.484 302.087 140.051 302.6C139.618 303.113 139.401 303.87 139.401 304.87V311H138.001ZM152.63 311.24C151.55 311.24 150.704 310.94 150.09 310.34C149.477 309.733 149.17 308.9 149.17 307.84C149.17 307.16 149.32 306.57 149.62 306.07C149.927 305.57 150.357 305.187 150.91 304.92C151.47 304.647 152.13 304.51 152.89 304.51C153.39 304.51 153.867 304.573 154.32 304.7C154.78 304.827 155.224 305.017 155.65 305.27V304.29C155.65 303.423 155.46 302.787 155.08 302.38C154.707 301.973 154.124 301.77 153.33 301.77C152.857 301.77 152.354 301.86 151.82 302.04C151.294 302.213 150.794 302.46 150.32 302.78L149.91 301.6C150.45 301.26 151.034 301 151.66 300.82C152.287 300.633 152.9 300.54 153.5 300.54C154.647 300.54 155.514 300.84 156.1 301.44C156.687 302.04 156.98 302.923 156.98 304.09V311H155.65V309.84C155.244 310.287 154.777 310.633 154.25 310.88C153.73 311.12 153.19 311.24 152.63 311.24ZM152.81 310.01C153.324 310.01 153.824 309.877 154.31 309.61C154.797 309.337 155.244 308.947 155.65 308.44V306.53C155.257 306.277 154.83 306.083 154.37 305.95C153.917 305.81 153.477 305.74 153.05 305.74C152.284 305.74 151.67 305.933 151.21 306.32C150.757 306.7 150.53 307.21 150.53 307.85C150.53 308.51 150.734 309.037 151.14 309.43C151.547 309.817 152.104 310.01 152.81 310.01ZM164.452 311.24C163.612 311.24 162.889 311.027 162.282 310.6C161.676 310.167 161.209 309.553 160.882 308.76C160.562 307.96 160.402 307.007 160.402 305.9C160.402 304.787 160.569 303.83 160.902 303.03C161.236 302.23 161.712 301.617 162.332 301.19C162.952 300.757 163.692 300.54 164.552 300.54C165.372 300.54 166.072 300.74 166.652 301.14C167.239 301.533 167.666 302.1 167.932 302.84L166.602 303.33C166.429 302.857 166.166 302.493 165.812 302.24C165.459 301.987 165.046 301.86 164.572 301.86C163.686 301.86 163.009 302.203 162.542 302.89C162.082 303.577 161.852 304.58 161.852 305.9C161.852 307.167 162.082 308.153 162.542 308.86C163.002 309.56 163.649 309.91 164.482 309.91C165.029 309.91 165.499 309.763 165.892 309.47C166.286 309.177 166.559 308.777 166.712 308.27L168.032 308.71C167.799 309.51 167.366 310.133 166.732 310.58C166.106 311.02 165.346 311.24 164.452 311.24ZM175.155 311.24C174.249 311.24 173.465 311.017 172.805 310.57C172.152 310.117 171.649 309.487 171.295 308.68C170.942 307.873 170.765 306.94 170.765 305.88C170.765 304.753 170.949 303.793 171.315 303C171.689 302.2 172.205 301.59 172.865 301.17C173.525 300.75 174.289 300.54 175.155 300.54C175.909 300.54 176.592 300.717 177.205 301.07C177.819 301.423 178.305 301.97 178.665 302.71C179.025 303.45 179.205 304.4 179.205 305.56C179.205 305.68 179.202 305.817 179.195 305.97C179.189 306.117 179.179 306.27 179.165 306.43H172.215C172.269 307.137 172.412 307.757 172.645 308.29C172.885 308.817 173.215 309.233 173.635 309.54C174.062 309.84 174.585 309.99 175.205 309.99C175.625 309.99 176.029 309.917 176.415 309.77C176.802 309.617 177.162 309.383 177.495 309.07L178.315 310.01C177.942 310.363 177.482 310.657 176.935 310.89C176.395 311.123 175.802 311.24 175.155 311.24ZM172.195 305.2H177.775C177.775 304.567 177.679 303.99 177.485 303.47C177.299 302.95 177.009 302.537 176.615 302.23C176.229 301.923 175.742 301.77 175.155 301.77C174.362 301.77 173.685 302.043 173.125 302.59C172.572 303.137 172.262 304.007 172.195 305.2ZM182.696 311V300.78H184.096V302.4C184.35 301.8 184.7 301.34 185.146 301.02C185.6 300.7 186.123 300.54 186.716 300.54C187.33 300.54 187.83 300.703 188.216 301.03L188.006 302.36C187.806 302.22 187.586 302.117 187.346 302.05C187.113 301.983 186.86 301.95 186.586 301.95C186.093 301.95 185.66 302.09 185.286 302.37C184.913 302.65 184.62 303.04 184.406 303.54C184.2 304.033 184.096 304.61 184.096 305.27V311H182.696ZM196.04 315.06V300.78H197.44V301.85C198.167 300.977 199.1 300.54 200.24 300.54C201.08 300.54 201.807 300.757 202.42 301.19C203.033 301.623 203.507 302.24 203.84 303.04C204.173 303.84 204.34 304.787 204.34 305.88C204.34 306.98 204.17 307.933 203.83 308.74C203.497 309.54 203.017 310.157 202.39 310.59C201.77 311.023 201.033 311.24 200.18 311.24C199.607 311.24 199.09 311.12 198.63 310.88C198.17 310.633 197.773 310.273 197.44 309.8V314.39L196.04 315.06ZM200.04 309.92C200.96 309.92 201.667 309.57 202.16 308.87C202.653 308.17 202.9 307.173 202.9 305.88C202.9 304.64 202.64 303.66 202.12 302.94C201.607 302.213 200.913 301.85 200.04 301.85C199.493 301.85 198.993 301.987 198.54 302.26C198.087 302.533 197.72 302.92 197.44 303.42V308.27C197.793 308.81 198.19 309.22 198.63 309.5C199.07 309.78 199.54 309.92 200.04 309.92ZM210.923 311.24C209.843 311.24 208.997 310.94 208.383 310.34C207.77 309.733 207.463 308.9 207.463 307.84C207.463 307.16 207.613 306.57 207.913 306.07C208.22 305.57 208.65 305.187 209.203 304.92C209.763 304.647 210.423 304.51 211.183 304.51C211.683 304.51 212.16 304.573 212.613 304.7C213.073 304.827 213.517 305.017 213.943 305.27V304.29C213.943 303.423 213.753 302.787 213.373 302.38C213 301.973 212.417 301.77 211.623 301.77C211.15 301.77 210.647 301.86 210.113 302.04C209.587 302.213 209.087 302.46 208.613 302.78L208.203 301.6C208.743 301.26 209.327 301 209.953 300.82C210.58 300.633 211.193 300.54 211.793 300.54C212.94 300.54 213.807 300.84 214.393 301.44C214.98 302.04 215.273 302.923 215.273 304.09V311H213.943V309.84C213.537 310.287 213.07 310.633 212.543 310.88C212.023 311.12 211.483 311.24 210.923 311.24ZM211.103 310.01C211.617 310.01 212.117 309.877 212.603 309.61C213.09 309.337 213.537 308.947 213.943 308.44V306.53C213.55 306.277 213.123 306.083 212.663 305.95C212.21 305.81 211.77 305.74 211.343 305.74C210.577 305.74 209.963 305.933 209.503 306.32C209.05 306.7 208.823 307.21 208.823 307.85C208.823 308.51 209.027 309.037 209.433 309.43C209.84 309.817 210.397 310.01 211.103 310.01ZM219.267 311V300.78H220.667V302.4C220.92 301.8 221.27 301.34 221.717 301.02C222.17 300.7 222.693 300.54 223.287 300.54C223.9 300.54 224.4 300.703 224.787 301.03L224.577 302.36C224.377 302.22 224.157 302.117 223.917 302.05C223.683 301.983 223.43 301.95 223.157 301.95C222.663 301.95 222.23 302.09 221.857 302.37C221.483 302.65 221.19 303.04 220.977 303.54C220.77 304.033 220.667 304.61 220.667 305.27V311H219.267ZM229.97 311.24C228.89 311.24 228.044 310.94 227.43 310.34C226.817 309.733 226.51 308.9 226.51 307.84C226.51 307.16 226.66 306.57 226.96 306.07C227.267 305.57 227.697 305.187 228.25 304.92C228.81 304.647 229.47 304.51 230.23 304.51C230.73 304.51 231.207 304.573 231.66 304.7C232.12 304.827 232.564 305.017 232.99 305.27V304.29C232.99 303.423 232.8 302.787 232.42 302.38C232.047 301.973 231.464 301.77 230.67 301.77C230.197 301.77 229.694 301.86 229.16 302.04C228.634 302.213 228.134 302.46 227.66 302.78L227.25 301.6C227.79 301.26 228.374 301 229 300.82C229.627 300.633 230.24 300.54 230.84 300.54C231.987 300.54 232.854 300.84 233.44 301.44C234.027 302.04 234.32 302.923 234.32 304.09V311H232.99V309.84C232.584 310.287 232.117 310.633 231.59 310.88C231.07 311.12 230.53 311.24 229.97 311.24ZM230.15 310.01C230.664 310.01 231.164 309.877 231.65 309.61C232.137 309.337 232.584 308.947 232.99 308.44V306.53C232.597 306.277 232.17 306.083 231.71 305.95C231.257 305.81 230.817 305.74 230.39 305.74C229.624 305.74 229.01 305.933 228.55 306.32C228.097 306.7 227.87 307.21 227.87 307.85C227.87 308.51 228.074 309.037 228.48 309.43C228.887 309.817 229.444 310.01 230.15 310.01ZM246.088 311.24C245.408 311.24 244.755 311.093 244.128 310.8C243.502 310.507 242.975 310.1 242.548 309.58L243.568 308.71C243.935 309.11 244.342 309.42 244.788 309.64C245.235 309.86 245.675 309.97 246.108 309.97C246.762 309.97 247.265 309.837 247.618 309.57C247.978 309.303 248.158 308.93 248.158 308.45C248.158 308.15 248.075 307.877 247.908 307.63C247.748 307.383 247.485 307.153 247.118 306.94C246.752 306.72 246.268 306.497 245.668 306.27C244.588 305.87 243.812 305.433 243.338 304.96C242.865 304.48 242.628 303.887 242.628 303.18C242.628 302.393 242.932 301.757 243.538 301.27C244.152 300.783 244.948 300.54 245.928 300.54C246.575 300.54 247.182 300.667 247.748 300.92C248.315 301.167 248.798 301.523 249.198 301.99L248.218 302.81C247.565 302.143 246.795 301.81 245.908 301.81C245.328 301.81 244.868 301.933 244.528 302.18C244.195 302.42 244.028 302.753 244.028 303.18C244.028 303.573 244.202 303.913 244.548 304.2C244.895 304.48 245.528 304.79 246.448 305.13C247.195 305.41 247.795 305.707 248.248 306.02C248.702 306.327 249.028 306.677 249.228 307.07C249.435 307.463 249.538 307.917 249.538 308.43C249.538 309.303 249.232 309.99 248.618 310.49C248.005 310.99 247.162 311.24 246.088 311.24ZM256.55 311.24C255.643 311.24 254.86 311.017 254.2 310.57C253.547 310.117 253.043 309.487 252.69 308.68C252.337 307.873 252.16 306.94 252.16 305.88C252.16 304.753 252.343 303.793 252.71 303C253.083 302.2 253.6 301.59 254.26 301.17C254.92 300.75 255.683 300.54 256.55 300.54C257.303 300.54 257.987 300.717 258.6 301.07C259.213 301.423 259.7 301.97 260.06 302.71C260.42 303.45 260.6 304.4 260.6 305.56C260.6 305.68 260.597 305.817 260.59 305.97C260.583 306.117 260.573 306.27 260.56 306.43H253.61C253.663 307.137 253.807 307.757 254.04 308.29C254.28 308.817 254.61 309.233 255.03 309.54C255.457 309.84 255.98 309.99 256.6 309.99C257.02 309.99 257.423 309.917 257.81 309.77C258.197 309.617 258.557 309.383 258.89 309.07L259.71 310.01C259.337 310.363 258.877 310.657 258.33 310.89C257.79 311.123 257.197 311.24 256.55 311.24ZM253.59 305.2H259.17C259.17 304.567 259.073 303.99 258.88 303.47C258.693 302.95 258.403 302.537 258.01 302.23C257.623 301.923 257.137 301.77 256.55 301.77C255.757 301.77 255.08 302.043 254.52 302.59C253.967 303.137 253.657 304.007 253.59 305.2ZM264.091 311V300.78H265.491V302.4C265.744 301.8 266.094 301.34 266.541 301.02C266.994 300.7 267.517 300.54 268.111 300.54C268.724 300.54 269.224 300.703 269.611 301.03L269.401 302.36C269.201 302.22 268.981 302.117 268.741 302.05C268.507 301.983 268.254 301.95 267.981 301.95C267.487 301.95 267.054 302.09 266.681 302.37C266.307 302.65 266.014 303.04 265.801 303.54C265.594 304.033 265.491 304.61 265.491 305.27V311H264.091ZM277.435 311V300.78H278.835V301.98C279.128 301.513 279.511 301.157 279.985 300.91C280.458 300.663 280.988 300.54 281.575 300.54C282.221 300.54 282.785 300.7 283.265 301.02C283.751 301.34 284.111 301.79 284.345 302.37C284.631 301.797 285.038 301.35 285.565 301.03C286.098 300.703 286.691 300.54 287.345 300.54C288.405 300.54 289.248 300.87 289.875 301.53C290.501 302.183 290.815 303.07 290.815 304.19V311H289.415V304.73C289.415 303.783 289.225 303.063 288.845 302.57C288.465 302.077 287.915 301.83 287.195 301.83C286.721 301.83 286.305 301.953 285.945 302.2C285.591 302.447 285.315 302.793 285.115 303.24C284.915 303.68 284.815 304.19 284.815 304.77V311H283.415V304.73C283.415 303.777 283.231 303.057 282.865 302.57C282.498 302.077 281.951 301.83 281.225 301.83C280.485 301.83 279.901 302.093 279.475 302.62C279.048 303.14 278.835 303.853 278.835 304.76V311H277.435ZM298.843 311.24C297.936 311.24 297.153 311.017 296.493 310.57C295.84 310.117 295.336 309.487 294.983 308.68C294.63 307.873 294.453 306.94 294.453 305.88C294.453 304.753 294.636 303.793 295.003 303C295.376 302.2 295.893 301.59 296.553 301.17C297.213 300.75 297.976 300.54 298.843 300.54C299.596 300.54 300.28 300.717 300.893 301.07C301.506 301.423 301.993 301.97 302.353 302.71C302.713 303.45 302.893 304.4 302.893 305.56C302.893 305.68 302.89 305.817 302.883 305.97C302.876 306.117 302.866 306.27 302.853 306.43H295.903C295.956 307.137 296.1 307.757 296.333 308.29C296.573 308.817 296.903 309.233 297.323 309.54C297.75 309.84 298.273 309.99 298.893 309.99C299.313 309.99 299.716 309.917 300.103 309.77C300.49 309.617 300.85 309.383 301.183 309.07L302.003 310.01C301.63 310.363 301.17 310.657 300.623 310.89C300.083 311.123 299.49 311.24 298.843 311.24ZM295.883 305.2H301.463C301.463 304.567 301.366 303.99 301.173 303.47C300.986 302.95 300.696 302.537 300.303 302.23C299.916 301.923 299.43 301.77 298.843 301.77C298.05 301.77 297.373 302.043 296.813 302.59C296.26 303.137 295.95 304.007 295.883 305.2ZM304.357 315.27L303.687 314.19C304.621 314.063 305.284 313.817 305.678 313.45C306.071 313.09 306.268 312.547 306.268 311.82V300.78H307.668V311.38C307.668 312.547 307.401 313.45 306.868 314.09C306.334 314.73 305.498 315.123 304.357 315.27ZM306.968 298.73C306.714 298.73 306.498 298.64 306.318 298.46C306.138 298.28 306.048 298.063 306.048 297.81C306.048 297.543 306.138 297.32 306.318 297.14C306.498 296.953 306.714 296.86 306.968 296.86C307.221 296.86 307.438 296.95 307.618 297.13C307.798 297.31 307.888 297.537 307.888 297.81C307.888 298.063 307.801 298.28 307.628 298.46C307.454 298.64 307.234 298.73 306.968 298.73ZM315.497 311.24C314.15 311.24 313.087 310.763 312.307 309.81C311.527 308.85 311.137 307.547 311.137 305.9C311.137 304.8 311.313 303.85 311.667 303.05C312.02 302.25 312.523 301.633 313.177 301.2C313.83 300.76 314.603 300.54 315.497 300.54C316.397 300.54 317.173 300.757 317.827 301.19C318.48 301.617 318.98 302.23 319.327 303.03C319.68 303.83 319.857 304.78 319.857 305.88C319.857 306.98 319.68 307.933 319.327 308.74C318.973 309.54 318.47 310.157 317.817 310.59C317.163 311.023 316.39 311.24 315.497 311.24ZM315.497 309.92C316.417 309.92 317.133 309.563 317.647 308.85C318.167 308.137 318.427 307.147 318.427 305.88C318.427 304.607 318.167 303.617 317.647 302.91C317.133 302.203 316.417 301.85 315.497 301.85C314.563 301.85 313.84 302.203 313.327 302.91C312.82 303.61 312.567 304.607 312.567 305.9C312.567 307.173 312.823 308.163 313.337 308.87C313.85 309.57 314.57 309.92 315.497 309.92ZM323.224 311V300.78H324.624V302.4C324.877 301.8 325.227 301.34 325.674 301.02C326.127 300.7 326.65 300.54 327.244 300.54C327.857 300.54 328.357 300.703 328.744 301.03L328.534 302.36C328.334 302.22 328.114 302.117 327.874 302.05C327.64 301.983 327.387 301.95 327.114 301.95C326.62 301.95 326.187 302.09 325.814 302.37C325.44 302.65 325.147 303.04 324.934 303.54C324.727 304.033 324.624 304.61 324.624 305.27V311H323.224ZM333.918 307.56V307.04C333.918 306.367 334.018 305.8 334.218 305.34C334.425 304.88 334.685 304.483 334.998 304.15C335.311 303.81 335.631 303.497 335.958 303.21C336.385 302.837 336.758 302.45 337.078 302.05C337.405 301.643 337.568 301.123 337.568 300.49C337.568 299.817 337.335 299.247 336.868 298.78C336.408 298.313 335.745 298.08 334.878 298.08C333.925 298.08 333.185 298.343 332.658 298.87C332.138 299.397 331.878 300.073 331.878 300.9H330.508C330.508 300.1 330.688 299.387 331.048 298.76C331.408 298.133 331.915 297.643 332.568 297.29C333.221 296.937 333.991 296.76 334.878 296.76C335.765 296.76 336.511 296.93 337.118 297.27C337.731 297.603 338.198 298.053 338.518 298.62C338.838 299.18 338.998 299.81 338.998 300.51C338.998 301.077 338.905 301.56 338.718 301.96C338.538 302.36 338.305 302.713 338.018 303.02C337.731 303.32 337.435 303.61 337.128 303.89C336.828 304.157 336.541 304.437 336.268 304.73C335.995 305.017 335.771 305.347 335.598 305.72C335.425 306.093 335.338 306.537 335.338 307.05V307.56H333.918ZM334.598 311.27C334.291 311.27 334.028 311.16 333.808 310.94C333.595 310.72 333.488 310.463 333.488 310.17C333.488 309.87 333.595 309.607 333.808 309.38C334.028 309.153 334.291 309.04 334.598 309.04C334.918 309.04 335.185 309.153 335.398 309.38C335.618 309.607 335.728 309.87 335.728 310.17C335.728 310.463 335.618 310.72 335.398 310.94C335.185 311.16 334.918 311.27 334.598 311.27Z" fill="#009245"/>
</g>
<path d="M58.8243 200.775L73.6025 249.081L113.961 250.917L112.505 241.529L90.1637 238.416L111.892 237.576L110.436 228.189L87.9413 224.088L109.286 220.777L107.83 211.389L85.719 209.759L107.064 206.448L105.071 193.602L94.7397 194.192L92.3904 169.258L73.6572 175.705L83.5733 195.924L58.8243 200.775Z" fill="#C1272D"/>
<g clip-path="url(#clip0_250_17252)">
<path d="M118.55 119.079C114.79 125.079 113.18 131.899 109.94 138.079C107.87 142.019 105.34 141.739 102.19 140.279C100.13 139.279 99.53 137.499 99.56 135.279C99.678 131.068 99.4909 126.854 99 122.669C97.26 127.669 95.57 132.669 93.75 137.669C93.1917 139.228 92.4391 140.709 91.51 142.079C89.83 144.529 87.94 142.829 86.28 141.989C84.85 141.269 84.03 140.219 85.22 138.389C90.76 129.919 92.52 119.939 96.12 110.689C97.01 108.409 97.12 105.249 101.24 106.129C105.24 106.979 108.24 108.239 108.24 112.979C108.24 117.719 108.24 122.619 108.24 127.599C111.41 122.519 113.16 116.729 115.59 111.249C116.59 109.029 116.69 105.599 120.59 106.179C124.89 106.819 128.09 110.329 127.59 114.419C127.06 119.189 125.92 123.899 125.19 128.659C124.19 134.959 125.32 140.659 130.82 144.659C136.62 148.879 143.03 148.889 149.33 146.239C154.84 143.929 159.33 140.039 161.23 134.239C161.98 131.969 162.32 130.439 165.03 131.349C167.74 132.259 169.52 133.899 168.03 136.939C163.15 146.819 155.63 153.529 144.38 154.589C129.18 156.009 114.51 148.259 117.87 123.859C118 122.229 118.31 120.659 118.55 119.079Z" fill="#662D91"/>
<path d="M50.1 73.6792C54.543 66.4438 57.9844 58.6394 60.33 50.4792C61.33 46.7492 62.85 46.4792 65.96 47.5892C73.28 50.2692 74.1 51.8592 70.61 58.8092C64 71.9992 57.17 85.1392 51.78 98.9392C50.34 102.629 48.28 105.429 43.53 103.189C39.05 101.069 38 98.9192 40.05 94.0892C42.1 89.2592 43.26 85.3792 39.56 80.4292C36.77 76.6992 39.96 71.369 39.56 66.499C39.23 62.229 37.06 57.7392 35.12 53.6492C34.12 51.4892 35.47 51.0592 37.12 50.7392C42.6 49.6792 47.36 53.1692 48.64 59.2192C49.66 63.9992 49.56 68.8192 50.1 73.6792Z" fill="#662D91"/>
<path d="M59.84 129.63C59.56 122.83 63.33 116.63 64.24 109.63C64.55 107.25 67.85 107.97 69.9 108.73C72.36 109.66 74.47 110.95 73.44 114.23C71.91 119.13 69.98 123.91 69.25 129.05C68.81 132.16 67.57 136.38 71.11 137.31C74.02 138.07 74.61 133.62 75.58 131.13C78.14 124.65 79.37 117.77 81 111C81.71 108 82.55 105 86.89 106.14C91.23 107.28 91.27 109.88 90.07 113.39C87.24 121.68 85.71 130.48 80.77 137.95C76.11 144.95 67.59 145.36 62.39 138.83C60.29 136.24 59.62 133.21 59.84 129.63Z" fill="#662D91"/>
<path d="M59 115.47C58.8006 118.121 58.1794 120.724 57.16 123.18C56.24 125.71 54.61 126.41 52.07 125.39C49.35 124.29 49.18 122.77 50.67 120.39C51.57 118.96 52.99 116.79 50.83 115.68C49.15 114.82 48.06 117.04 47.14 118.35C43.49 123.52 43.95 125.35 49.83 129.57C56.83 134.57 56.83 140.38 49.83 144.3C44.4 147.3 34.09 143.16 32.27 137.22C31.27 133.98 33.39 132.6 35.7 131.52C38.91 130.03 38.7 132.83 39.22 134.58C39.74 136.33 40 138.3 42.25 138.74C42.6606 138.813 43.0838 138.756 43.4603 138.576C43.8368 138.397 44.1479 138.104 44.35 137.74C45.53 135.74 45 133.87 43.83 132.15C42.9 130.78 41.83 129.52 40.73 128.25C35.9 122.5 35.91 119.11 40.8 112.86C44.8 107.73 49.05 106.93 55.31 110.14C57.52 111.22 59.16 112.73 59 115.47Z" fill="#662D91"/>
<path d="M128.61 86.8997C130.01 83.4097 131.25 79.8297 132.9 76.4497C133.78 74.6297 133.8 71.2897 137.32 72.3397C140.47 73.2797 142.58 75.1897 141.97 78.9097C141.36 82.6297 140.79 86.1097 140.26 89.7197C140.055 91.0437 139.942 92.3802 139.92 93.7197C139.92 95.2297 141.2 97.4897 138.54 97.6097C136.13 97.7197 134.64 95.9997 134.6 93.4297C134.6 90.6597 135.25 87.8697 134.08 84.1497C132.36 88.0397 131.08 91.2797 129.51 94.4097C128.66 96.1397 127.85 98.2097 125.1 97.2997C122.74 96.5197 121.56 95.1097 121.72 92.5197C121.93 90.0562 121.686 87.5752 121 85.1997C119.64 88.8597 118.26 92.5097 116.94 96.1997C116.09 98.5397 114.68 99.3597 112.35 98.0797C110.02 96.7997 111.46 95.4597 112.25 94.0797C115.47 88.2197 116.84 81.6597 119.25 75.4897C119.94 73.7097 120.1 71.4897 123.15 72.1797C125.85 72.7997 127.89 73.5997 127.8 76.8797C127.71 80.1597 127.8 83.4797 127.8 86.7797L128.61 86.8997Z" fill="#662D91"/>
<path d="M147 71.8008C151.17 71.3508 155.1 70.8808 159 70.5208C161 70.3308 163 71.1508 163.16 73.1908C163.32 75.4208 160.98 74.5108 159.7 74.8608C158.228 75.1053 156.777 75.463 155.36 75.9308C154.703 76.307 154.166 76.8619 153.812 77.5311C153.458 78.2002 153.302 78.956 153.36 79.7108C153.36 81.5508 154.83 81.0208 155.88 81.2408C157.23 81.5208 158.63 82.0508 158.64 83.6408C158.64 85.4308 157.01 85.4008 155.75 85.7008C154.445 85.9291 153.161 86.2636 151.91 86.7008C151.202 86.9816 150.623 87.5159 150.286 88.1997C149.95 88.8836 149.88 89.6682 150.09 90.4008C150.57 91.8608 152.09 90.6008 153.16 90.5808C154.23 90.5608 155.16 90.1208 156.16 90.1608C157.73 90.2308 159.35 90.9008 159.62 92.4908C159.94 94.3908 157.96 94.2508 156.82 94.4908C152.89 95.3508 148.91 98.9108 144.99 94.2308C143.82 92.8308 142.77 91.4108 143.73 89.8208C145.67 86.6208 144.45 82.5808 147.19 79.4208C148.74 77.6508 148.5 74.4508 147 71.8008Z" fill="#662D91"/>
<path d="M96.47 48.2098C91 46.0498 85 47.9998 79.9 54.3298C72.83 63.0798 68.46 72.9998 68.46 84.4598C68.4915 87.8953 69.5779 91.2381 71.5723 94.0355C73.5667 96.833 76.3726 98.95 79.61 100.1C86.61 102.77 92.95 102.41 98.29 96.5098C106 87.9998 109.31 77.7598 110.61 68.0898C110.84 58.3898 105.86 51.9098 96.47 48.2098ZM100.47 65.3398C98.56 74.6998 95.11 83.4198 89.22 90.9998C87.76 92.8898 86.16 95.4298 83.22 94.1898C80.47 93.0498 80.46 90.3298 80.58 87.7298C81.89 77.9198 84.91 68.7298 91.08 60.8198C92.7 58.7498 94.74 56.3998 97.74 57.9198C100.74 59.4398 101 62.4198 100.44 65.3398H100.47Z" fill="#662D91"/>
<path d="M149.56 104.481C144.56 102.481 141.18 105.321 138.32 108.691C133.747 114.041 131.04 120.735 130.61 127.761C130.441 130.276 131.106 132.776 132.501 134.875C133.897 136.974 135.946 138.554 138.33 139.371C144.05 141.471 147.77 140.601 151.62 135.871C155.966 130.549 158.517 123.99 158.91 117.131C159.14 111.191 156.24 107.211 149.56 104.481ZM152.25 115.841C151.069 122.218 148.426 128.235 144.53 133.421C143.64 134.551 142.53 135.971 140.83 135.421C139.13 134.871 138.71 133.061 138.76 131.321C139.65 124.651 141.65 118.381 145.84 113.021C146.92 111.641 148.27 109.961 150.42 111.121C152.26 112.101 152.64 113.921 152.25 115.841Z" fill="#662D91"/>
</g>
<defs>
<filter id="filter0_d_250_17252" x="0" y="0" width="370" height="355" filterUnits="userSpaceOnUse" color-interpolation-filters="sRGB">
<feFlood flood-opacity="0" result="BackgroundImageFix"/>
<feColorMatrix in="SourceAlpha" type="matrix" values="0 0 0 0 0 0 0 0 0 0 0 0 0 0 0 0 0 0 127 0" result="hardAlpha"/>
<feMorphology radius="3" operator="erode" in="SourceAlpha" result="effect1_dropShadow_250_17252"/>
<feOffset dy="7"/>
<feGaussianBlur stdDeviation="4.5"/>
<feComposite in2="hardAlpha" operator="out"/>
<feColorMatrix type="matrix" values="0 0 0 0 1 0 0 0 0 0.572549 0 0 0 0 0.909804 0 0 0 0.15 0"/>
<feBlend mode="normal" in2="BackgroundImageFix" result="effect1_dropShadow_250_17252"/>
<feBlend mode="normal" in="SourceGraphic" in2="effect1_dropShadow_250_17252" result="shape"/>
</filter>
<clipPath id="clip0_250_17252">
<rect width="136.54" height="107.7" fill="white" transform="translate(32 47)"/>
</clipPath>
</defs>
</svg>
