<svg width="66" height="92" viewBox="0 0 66 92" fill="none" xmlns="http://www.w3.org/2000/svg">
<path d="M64.8865 80.8303C64.7277 81.1461 64.5513 81.4528 64.3583 81.7491C63.7534 82.5647 63.8902 83.3584 64.4377 84.1468C64.8967 84.7661 65.3234 85.4085 65.7159 86.0714C66.3153 87.1587 65.9567 87.8247 64.7305 87.8954C63.8656 87.9416 62.9925 87.8682 62.1248 87.8383C61.7533 87.8017 61.3795 87.883 61.0574 88.0705C60.7353 88.2581 60.4813 88.5423 60.332 88.8822C59.9625 89.6298 59.5876 90.38 59.1606 91.095C58.4298 92.3182 57.6962 92.2992 56.9709 91.0515C56.5823 90.3882 56.221 89.7059 55.8761 89.0181C55.7156 88.6472 55.4361 88.3395 55.0811 88.1428C54.7262 87.9461 54.3157 87.8716 53.9136 87.9308C53.2074 87.9878 52.4985 88.0449 51.7896 88.0531C51.2231 88.0531 50.5716 88.1482 50.224 87.5529C49.9065 87.0092 50.2103 86.49 50.4977 86.0225C50.8755 85.3891 51.2942 84.7801 51.6966 84.1604C51.9291 83.828 52.0475 83.43 52.0342 83.0255C52.0209 82.621 51.8766 82.2315 51.6227 81.915C51.2039 81.306 50.7578 80.7134 50.3855 80.0773C49.6137 78.7616 50.0051 78.063 51.5214 78.0385C52.2276 78.0249 52.9392 78.0793 53.6481 78.1255C54.6608 78.1908 55.3944 77.8129 55.8378 76.8724C56.1443 76.2009 56.4564 75.5295 56.8259 74.8906C57.5183 73.6946 58.3477 73.7054 59.0538 74.9097C59.4589 75.6029 59.812 76.3232 60.1952 77.03C60.3528 77.3674 60.6136 77.6467 60.9404 77.8283C61.2672 78.0099 61.6434 78.0844 62.0153 78.0413C62.8365 77.9869 63.6275 77.9352 64.4349 77.9216C65.8473 77.8917 66.266 78.5741 65.6064 79.7919C65.4066 80.1589 65.1958 80.5177 64.9905 80.8793L64.8865 80.8303Z" fill="#FBB03B"/>
</svg>
